%FSLAX24Y24*%
%MOIN*%
G70*
G01*
G75*
G04 Layer_Physical_Order=2*
G04 Layer_Color=16711680*
%ADD10C,0.0787*%
%ADD11C,0.0197*%
%ADD12C,0.0276*%
%ADD13C,0.0394*%
%ADD14C,0.0472*%
%ADD15C,0.0315*%
%ADD16C,0.0551*%
%ADD17C,0.2362*%
%ADD18C,0.0650*%
%ADD19C,0.0591*%
%ADD20R,0.0591X0.0591*%
%ADD21R,0.0591X0.0591*%
%ADD22C,0.1161*%
%ADD23C,0.0630*%
%ADD24C,0.0591*%
%ADD25R,0.0591X0.0591*%
%ADD26R,0.0630X0.0630*%
%ADD27C,0.0630*%
%ADD28C,0.1181*%
%ADD29R,0.1181X0.1181*%
%ADD30C,0.0669*%
%ADD31R,0.0669X0.0669*%
%ADD32O,0.0984X0.0551*%
%ADD33R,0.0984X0.0551*%
%ADD34O,0.1400X0.0900*%
%ADD35O,0.0900X0.1400*%
%ADD36O,0.1969X0.1378*%
%ADD37C,0.1969*%
%ADD38O,0.0600X0.1200*%
G04:AMPARAMS|DCode=39|XSize=120mil|YSize=60mil|CornerRadius=0mil|HoleSize=0mil|Usage=FLASHONLY|Rotation=90.000|XOffset=0mil|YOffset=0mil|HoleType=Round|Shape=Octagon|*
%AMOCTAGOND39*
4,1,8,0.0150,0.0600,-0.0150,0.0600,-0.0300,0.0450,-0.0300,-0.0450,-0.0150,-0.0600,0.0150,-0.0600,0.0300,-0.0450,0.0300,0.0450,0.0150,0.0600,0.0*
%
%ADD39OCTAGOND39*%

%ADD40C,0.0787*%
%ADD41C,0.0600*%
%ADD42R,0.0591X0.0591*%
%ADD43C,0.0620*%
%ADD44C,0.0500*%
G36*
X23246Y10049D02*
X23361Y9672D01*
X21580Y7892D01*
X20268D01*
X20234Y7975D01*
D01*
X20234D01*
X20234D01*
X20234Y7975D01*
X20234D01*
X20223Y8002D01*
D01*
D01*
D01*
X19898Y8137D01*
D01*
D01*
D01*
D01*
D01*
X19573Y8002D01*
X19561Y7975D01*
X19561Y7975D01*
X19497Y7820D01*
X19111Y7897D01*
Y8185D01*
X19004Y8442D01*
X18911Y8536D01*
X19062Y8900D01*
X21920D01*
X22071Y8963D01*
X23172Y10064D01*
X23246Y10049D01*
D02*
G37*
G36*
X78889Y7731D02*
X78871Y7687D01*
X78871D01*
X78871Y7687D01*
X78853Y7644D01*
Y7644D01*
X78853Y7644D01*
X78978Y7341D01*
X78980Y7341D01*
Y6968D01*
X78796Y6886D01*
X78586Y6839D01*
X76875Y8372D01*
X77016Y8740D01*
X77881D01*
X78889Y7731D01*
D02*
G37*
G36*
X14129Y10388D02*
X16110Y8407D01*
X16367Y8300D01*
X17342D01*
X17560Y7973D01*
X17459Y7727D01*
X17898D01*
Y7627D01*
X17435D01*
X17231Y7322D01*
X16759D01*
X16577Y7246D01*
X14842Y5511D01*
X14766Y5329D01*
Y5120D01*
X14721Y5102D01*
X14720Y5100D01*
X14327D01*
X14326Y5102D01*
X14024Y5227D01*
X14024Y5227D01*
X13721Y5102D01*
X13720Y5100D01*
X13327D01*
X13326Y5102D01*
X13024Y5227D01*
X13024Y5227D01*
X12721Y5102D01*
X12720Y5100D01*
X12342D01*
X12264Y5274D01*
X12213Y5496D01*
X13681Y7153D01*
D01*
X13681Y7153D01*
X13681D01*
X13744Y7304D01*
D01*
X14024Y7371D01*
Y7371D01*
X14326Y7497D01*
X14327Y7498D01*
X14720D01*
X14721Y7497D01*
X15024Y7371D01*
X15326Y7497D01*
X15451Y7799D01*
X15326Y8102D01*
X15024Y8227D01*
X14721Y8102D01*
X14720Y8100D01*
X14327D01*
X14326Y8102D01*
X14326Y8102D01*
X14024Y8227D01*
X13744Y8903D01*
Y10193D01*
X14071Y10412D01*
X14129Y10388D01*
D02*
G37*
G36*
X13314Y9423D02*
Y8928D01*
X13024Y8227D01*
X12721Y8102D01*
X12721Y8102D01*
X12720Y8100D01*
X12327D01*
X12326Y8102D01*
X12024Y8227D01*
X11721Y8102D01*
X11720Y8100D01*
X11327D01*
X11326Y8102D01*
X11024Y8227D01*
X11024Y8227D01*
X11024Y8227D01*
X11024Y8227D01*
X11024Y8227D01*
X10721Y8102D01*
X10720Y8100D01*
X10327D01*
X10326Y8102D01*
X10024Y8227D01*
X10024Y8227D01*
X9721Y8102D01*
X9720Y8100D01*
X9327D01*
X9326Y8102D01*
X9024Y8227D01*
X9024Y8227D01*
X8721Y8102D01*
X8720Y8100D01*
X8327D01*
X8326Y8102D01*
X8024Y8227D01*
X8024Y8227D01*
X7721Y8102D01*
X7720Y8100D01*
X7327D01*
X7326Y8102D01*
X7024Y8227D01*
X6721Y8102D01*
X6596Y7799D01*
X6632Y7711D01*
X6191Y7271D01*
X4857D01*
X4820Y7358D01*
X4518Y7484D01*
X4240Y7369D01*
X4135Y7439D01*
X4097Y7831D01*
X5055Y8790D01*
X12078D01*
X12230Y8853D01*
X12950Y9573D01*
X13314Y9423D01*
D02*
G37*
G36*
X63851Y10205D02*
X64639Y9417D01*
X64489Y9053D01*
X63868D01*
X63195Y9727D01*
Y10123D01*
X63522Y10342D01*
X63851Y10205D01*
D02*
G37*
G36*
X46623Y9582D02*
X46805Y9506D01*
X48738D01*
X48988Y9202D01*
X48955Y9037D01*
X48833Y8987D01*
X48787Y8876D01*
X47630D01*
X47589Y8975D01*
X47276Y9105D01*
X46962Y8975D01*
X46832Y8661D01*
X46873Y8562D01*
X46448Y8138D01*
X45857D01*
X45638Y8465D01*
X45719Y8661D01*
X45589Y8975D01*
X45276Y9105D01*
X44962Y8975D01*
X44921Y8876D01*
X43763D01*
X43717Y8987D01*
X43595Y9037D01*
X43557Y9224D01*
X43807Y9529D01*
X43899D01*
X44081Y9604D01*
X45341Y10864D01*
X46623Y9582D01*
D02*
G37*
G36*
X41743Y9056D02*
X41716Y9029D01*
X41653Y8877D01*
Y8591D01*
X41289Y8441D01*
X40720Y9010D01*
X40663Y9033D01*
X40740Y9420D01*
X41592D01*
X41743Y9056D01*
D02*
G37*
G36*
X31483Y7249D02*
Y6869D01*
X30920D01*
X30723Y7066D01*
Y7440D01*
X31292D01*
X31483Y7249D01*
D02*
G37*
G36*
X19561Y7379D02*
X19561Y7379D01*
X19573Y7352D01*
X19898Y7217D01*
D01*
D01*
D01*
D01*
D01*
D01*
X20223Y7352D01*
D01*
D01*
D01*
X20234Y7379D01*
D01*
Y7379D01*
D01*
D01*
X20234D01*
X20234Y7379D01*
X20234D01*
D01*
D01*
X20234D01*
D01*
D01*
X20268Y7462D01*
X21669D01*
X21698Y7474D01*
X21977Y7196D01*
X21963Y7164D01*
X22074Y6897D01*
X22096Y6887D01*
X22096Y6494D01*
X21827Y6382D01*
X21827Y6382D01*
X21827Y6382D01*
X21827D01*
X21821Y6371D01*
X21560Y6382D01*
Y6382D01*
X21326Y6479D01*
X21326Y6479D01*
X21273Y6501D01*
X20985Y6382D01*
D01*
X20718Y6382D01*
X20718Y6382D01*
X20431Y6501D01*
X20431Y6501D01*
X20197Y6404D01*
D01*
D01*
X20197D01*
Y6404D01*
Y6404D01*
X19822D01*
X19589Y6501D01*
X19535Y6479D01*
X19535D01*
X19438Y6439D01*
X19111Y6658D01*
Y7457D01*
X19497Y7534D01*
X19561Y7379D01*
D02*
G37*
G36*
X61613Y11319D02*
Y9724D01*
X61676Y9573D01*
X63005Y8244D01*
X62801Y7751D01*
X62000Y6950D01*
X59160D01*
X59144Y6991D01*
D01*
X59144D01*
X59144D01*
X59144Y6991D01*
X59144D01*
X59132Y7018D01*
D01*
D01*
D01*
X58857Y7132D01*
Y6693D01*
Y6254D01*
X59132Y6368D01*
D01*
D01*
D01*
X59144Y6395D01*
D01*
Y6395D01*
D01*
D01*
X59144D01*
X59144Y6395D01*
X59144D01*
D01*
D01*
X59144D01*
D01*
D01*
X59160Y6436D01*
X62106D01*
X62288Y6511D01*
X63253Y7476D01*
X63645Y7437D01*
X63711Y7338D01*
X63428Y6656D01*
X63735Y5917D01*
X63516Y5589D01*
X63205D01*
X63053Y5526D01*
X61762Y4235D01*
X61689Y4265D01*
X61402Y4146D01*
X61371Y4073D01*
X58765D01*
X58546Y4400D01*
X58628Y4600D01*
X58628D01*
Y4600D01*
Y4600D01*
X58628D01*
D01*
D01*
Y4600D01*
X58646Y4643D01*
D01*
D01*
D01*
X58521Y4945D01*
D01*
D01*
D01*
X58478Y4963D01*
D01*
X58478Y4963D01*
D01*
D01*
D01*
D01*
Y4963D01*
D01*
D01*
X58433Y4982D01*
Y5634D01*
X58370Y5786D01*
X58132Y6025D01*
X58107Y6327D01*
X58132Y6368D01*
D01*
X58132Y6368D01*
X58153Y6399D01*
D01*
X58132Y6368D01*
X58132Y6368D01*
X58198Y6395D01*
X58482Y6368D01*
D01*
X58509Y6356D01*
Y6356D01*
X58509Y6356D01*
X58757Y6254D01*
Y6693D01*
Y7132D01*
X58739Y7125D01*
X58208Y7656D01*
X58359Y8020D01*
X60268D01*
X60420Y8083D01*
X60740Y8403D01*
X60761Y8453D01*
X61479D01*
Y9244D01*
X60802D01*
Y10774D01*
X61036Y11339D01*
X61413Y11453D01*
X61613Y11319D01*
D02*
G37*
G36*
X53646Y7212D02*
X53396Y6908D01*
X52625D01*
X52375Y7212D01*
X52416Y7417D01*
X53605D01*
X53646Y7212D01*
D02*
G37*
G36*
X11721Y7497D02*
X12024Y7371D01*
X12326Y7497D01*
X12327Y7498D01*
X12720D01*
X12721Y7497D01*
X12886Y7428D01*
X12963Y7042D01*
X11111Y5191D01*
X11024Y5227D01*
X11024Y5227D01*
X10721Y5102D01*
X10720Y5100D01*
X10327D01*
X10326Y5102D01*
X10024Y5227D01*
X10024Y5227D01*
X9721Y5102D01*
X9720Y5100D01*
X9327D01*
X9326Y5102D01*
X9161Y5170D01*
X9084Y5556D01*
X10936Y7408D01*
X11024Y7371D01*
X11024Y7371D01*
X11326Y7497D01*
X11327Y7498D01*
X11720D01*
X11721Y7497D01*
D02*
G37*
G36*
X33576Y8280D02*
X32637Y7340D01*
X32273Y7491D01*
Y7552D01*
X31787D01*
X31533Y7806D01*
X31381Y7869D01*
X23865D01*
X23715Y8233D01*
X24125Y8643D01*
X33426D01*
X33576Y8280D01*
D02*
G37*
G36*
X41713Y7409D02*
X41562Y7045D01*
X37825D01*
X36591Y8280D01*
X36742Y8643D01*
X40479D01*
X41713Y7409D01*
D02*
G37*
G36*
X16836Y9392D02*
X16772Y9237D01*
X16386Y9160D01*
X14760Y10786D01*
X14824Y10941D01*
X15211Y11018D01*
X16836Y9392D01*
D02*
G37*
G36*
X75835Y9533D02*
X75685Y9169D01*
X70977D01*
X70947Y9214D01*
X70947Y9214D01*
X70947D01*
X70864Y9415D01*
D01*
X70836Y9482D01*
X70568Y9593D01*
X70500Y9565D01*
X70500D01*
X70368Y9510D01*
D01*
X70300Y9482D01*
X70189Y9214D01*
X70217Y9147D01*
Y9147D01*
X70300Y8947D01*
X70157Y8601D01*
X69729D01*
X69586Y8947D01*
X69668Y9147D01*
Y9147D01*
X69697Y9214D01*
X69586Y9482D01*
X69518Y9510D01*
D01*
X69318Y9593D01*
X69050Y9482D01*
X68635Y9654D01*
X68566Y9757D01*
X68638Y9930D01*
X68638Y9931D01*
X68638Y9931D01*
X68652Y9963D01*
X68520Y10281D01*
X68670Y10642D01*
X72880D01*
X73032Y10704D01*
X73331Y11003D01*
X73441Y10958D01*
X73739Y11081D01*
X73739Y11081D01*
Y11081D01*
X73766Y11092D01*
X73780Y11126D01*
X74166Y11202D01*
X75835Y9533D01*
D02*
G37*
G36*
X6098Y17016D02*
Y16679D01*
X6272Y16258D01*
X6693Y16084D01*
X7114Y16258D01*
X7264Y16620D01*
X8006D01*
X8224Y16293D01*
X8068Y15917D01*
X8319Y15313D01*
X8762Y15130D01*
Y14736D01*
X8319Y14552D01*
X8068Y13948D01*
X8266Y13472D01*
X8047Y13145D01*
X6773D01*
X6621Y13082D01*
X5336Y11796D01*
X5273Y11644D01*
Y11071D01*
X4946Y10852D01*
X4841Y10896D01*
Y11647D01*
X4826D01*
X4679Y12003D01*
X4898Y12531D01*
X4679Y13060D01*
X4529Y13122D01*
Y13515D01*
X4679Y13577D01*
X4898Y14106D01*
X4768Y14420D01*
X5640Y15291D01*
X5702Y15443D01*
Y16825D01*
X6030Y17044D01*
X6098Y17016D01*
D02*
G37*
G36*
X59782Y11580D02*
X60084Y11455D01*
X60302Y10928D01*
X60024Y10650D01*
X59900Y10701D01*
X59846Y10679D01*
X59487Y11039D01*
X59335Y11102D01*
X59241D01*
X59207Y11277D01*
X59456Y11581D01*
X59781D01*
X59782Y11580D01*
D02*
G37*
G36*
X12531Y12351D02*
X12023Y11843D01*
X11947Y11661D01*
Y11261D01*
X11770D01*
Y11084D01*
X11362D01*
X11270Y11176D01*
X11088Y11252D01*
X10420D01*
X10201Y11579D01*
X10367Y11980D01*
X10198Y12388D01*
X10417Y12715D01*
X12381D01*
X12531Y12351D01*
D02*
G37*
G36*
X55210Y12906D02*
X54341Y12037D01*
X54279Y11885D01*
Y11720D01*
X54234Y11701D01*
X54234Y11701D01*
Y11701D01*
X54191Y11683D01*
X54190Y11682D01*
X53796D01*
X53796Y11683D01*
X53493Y11809D01*
X53191Y11683D01*
X53190Y11682D01*
X52796D01*
X52796Y11683D01*
X52737Y11707D01*
X52661Y12094D01*
X53837Y13269D01*
X55060D01*
X55210Y12906D01*
D02*
G37*
G36*
X70579Y12509D02*
X70534Y12402D01*
X70653Y12114D01*
X70782Y12061D01*
X70705Y11675D01*
X69276D01*
X69125Y12038D01*
X69923Y12836D01*
X70360D01*
X70579Y12509D01*
D02*
G37*
G36*
X28234Y11733D02*
X28385Y11670D01*
X34222D01*
X34283Y11579D01*
X34097Y11232D01*
X31659D01*
X31477Y11156D01*
X31170Y10849D01*
X31152Y10856D01*
Y10467D01*
X31541D01*
X31534Y10485D01*
X31766Y10717D01*
X34543D01*
X34725Y10792D01*
X34826Y10893D01*
X34843Y10885D01*
Y11324D01*
X34893D01*
Y11374D01*
X35367D01*
X35564Y11670D01*
X36872D01*
X37065Y11381D01*
X37065Y11381D01*
X37065D01*
X37173Y11121D01*
Y11121D01*
X37191Y11078D01*
X37493Y10953D01*
D01*
D01*
D01*
X37497Y10954D01*
X37796Y11078D01*
X37796Y11080D01*
X38190D01*
X38191Y11078D01*
X38493Y10953D01*
X38493Y10953D01*
X38796Y11078D01*
X38796Y11080D01*
X39190D01*
X39191Y11078D01*
X39493Y10953D01*
X39493Y10953D01*
X39796Y11078D01*
X39796Y11080D01*
X40190D01*
X40191Y11078D01*
X40493Y10953D01*
X40493Y10953D01*
X40796Y11078D01*
X40796Y11080D01*
X41190D01*
X41191Y11078D01*
X41493Y10953D01*
X41796Y11078D01*
X41796Y11080D01*
X42190D01*
X42191Y11078D01*
X42356Y11010D01*
X42433Y10623D01*
X41659Y9849D01*
X31681D01*
X31462Y10177D01*
X31541Y10367D01*
X30663D01*
X30742Y10177D01*
X30524Y9849D01*
X25847D01*
X25325Y10371D01*
X25476Y10735D01*
X30421D01*
X30671Y10485D01*
X30663Y10467D01*
X31052D01*
Y10856D01*
X31035Y10849D01*
X30710Y11174D01*
X30528Y11250D01*
X24380D01*
Y11499D01*
X24658Y11777D01*
X28189D01*
X28234Y11733D01*
D02*
G37*
G36*
X65372Y11818D02*
X65372Y11818D01*
X65372D01*
X65497Y11516D01*
X65499Y11515D01*
Y11121D01*
X65497Y11121D01*
X65392Y10868D01*
X65800D01*
Y10768D01*
X65392D01*
X65497Y10516D01*
X65497Y10516D01*
D01*
Y10516D01*
X65497D01*
X65497Y10516D01*
D01*
X65499Y10513D01*
Y10121D01*
X65497Y10121D01*
X65390Y9861D01*
X65390D01*
X65390Y9861D01*
X65372Y9818D01*
X65000Y9664D01*
X63208Y11456D01*
X63285Y11842D01*
X63931Y12110D01*
X65177D01*
X65372Y11818D01*
D02*
G37*
G36*
X25606Y9483D02*
X25662Y9459D01*
X25585Y9073D01*
X24036D01*
X23884Y9010D01*
X22615Y7741D01*
X22229Y7817D01*
X22195Y7899D01*
X23897Y9601D01*
X23984Y9564D01*
X24287Y9690D01*
X24412Y9992D01*
X24412Y9992D01*
X24412Y9992D01*
X24514Y10144D01*
X24906Y10183D01*
X25606Y9483D01*
D02*
G37*
G36*
X8198Y10325D02*
X8068Y10011D01*
X8261Y9547D01*
X8042Y9219D01*
X7061D01*
X6910Y9583D01*
X7871Y10544D01*
X8198Y10325D01*
D02*
G37*
G36*
X6197Y11504D02*
X6098Y11264D01*
Y10764D01*
X6272Y10343D01*
X6418Y10282D01*
X6457Y10089D01*
X6207Y9785D01*
X5366D01*
X5216Y10149D01*
X5640Y10573D01*
X5702Y10724D01*
Y11417D01*
X6050Y11603D01*
X6197Y11504D01*
D02*
G37*
G36*
X12255Y10392D02*
X12639D01*
D01*
X12639D01*
X12653Y10379D01*
X12798Y10028D01*
X11989Y9219D01*
X10393D01*
X10174Y9547D01*
X10367Y10011D01*
X10202Y10410D01*
X10421Y10737D01*
X10981D01*
X11073Y10645D01*
X11255Y10569D01*
X11770D01*
Y10392D01*
X12155D01*
Y10827D01*
X12255D01*
Y10392D01*
D02*
G37*
G36*
X60315Y9824D02*
X60315Y9431D01*
X60084Y9277D01*
X60084Y9277D01*
Y9277D01*
X59996Y9240D01*
X59577Y9659D01*
X59796Y9987D01*
X59900Y9944D01*
X60046Y10004D01*
X60315Y9824D01*
D02*
G37*
G36*
X58930Y9555D02*
X58835Y9173D01*
X58825Y9169D01*
Y9169D01*
X58782Y9151D01*
X58656Y8849D01*
X58674Y8805D01*
D01*
X58686Y8777D01*
X58468Y8449D01*
X53468D01*
X53446Y8502D01*
X53178Y8613D01*
X52910Y8502D01*
X52888Y8449D01*
X51478D01*
X51326Y8386D01*
X50487Y7547D01*
X46980D01*
X46829Y7911D01*
X47177Y8259D01*
X47276Y8218D01*
X47589Y8348D01*
X47630Y8447D01*
X48787D01*
X48833Y8336D01*
X49158Y8202D01*
X49158Y8202D01*
X49483Y8336D01*
X49483Y8336D01*
X49483Y8336D01*
X49549Y8364D01*
X49833Y8336D01*
D01*
X49860Y8325D01*
Y8325D01*
X49860Y8325D01*
X50108Y8222D01*
Y8661D01*
Y9100D01*
X50090Y9093D01*
X49759Y9425D01*
X49977Y9752D01*
X50018Y9736D01*
X50286Y9847D01*
D01*
D01*
Y9847D01*
D01*
X50397Y10114D01*
X51027Y10375D01*
X58254D01*
X58930Y9555D01*
D02*
G37*
G36*
X62315Y2769D02*
X62214Y2411D01*
X62158Y2387D01*
X62158Y2387D01*
Y2387D01*
X62115Y2369D01*
X62115Y2369D01*
X61876Y2131D01*
X62115Y2369D01*
X62115D01*
X62115Y2369D01*
X62115Y2369D01*
X61813D01*
Y2462D01*
X61022D01*
Y1975D01*
X60411Y1364D01*
X58614D01*
Y2038D01*
X57837D01*
D01*
X57823Y2038D01*
X57544Y1922D01*
X57521Y1945D01*
X57521Y1945D01*
X57218Y2071D01*
X56916Y1945D01*
X56915Y1944D01*
X56522D01*
X56521Y1945D01*
X56327Y2026D01*
X56177Y2389D01*
X56210Y2470D01*
X56928D01*
X57080Y2533D01*
X57297Y2750D01*
X58128D01*
X58150Y2697D01*
X58418Y2586D01*
X58686Y2697D01*
X58797Y2964D01*
X58794Y2971D01*
X58866Y3044D01*
X62090D01*
X62315Y2769D01*
D02*
G37*
G36*
X13299Y2426D02*
Y2195D01*
X13352Y2067D01*
X13133Y1739D01*
X12390D01*
X12204Y2086D01*
X12352Y2307D01*
X12638Y2189D01*
X12955Y2320D01*
X12955D01*
Y2320D01*
Y2320D01*
X12955Y2320D01*
Y2320D01*
X13189Y2536D01*
X13299Y2426D01*
D02*
G37*
G36*
X30018Y2175D02*
X30089Y2042D01*
X29887Y1739D01*
X21531D01*
X21380Y2103D01*
X21667Y2390D01*
X29501D01*
X30018Y2175D01*
D02*
G37*
G36*
X49721Y3137D02*
X49644Y2751D01*
X45661D01*
X45484Y2824D01*
X45370Y3201D01*
X45436Y3300D01*
X49328D01*
X49721Y3137D01*
D02*
G37*
G36*
X13161Y3322D02*
X13113Y3082D01*
X12890Y2983D01*
X12670Y3073D01*
D01*
X12638Y3087D01*
X12320Y2955D01*
X12307Y2923D01*
Y2923D01*
X12189Y2638D01*
X12307Y2352D01*
X11980Y2133D01*
X10977Y3136D01*
X11128Y3500D01*
X13036D01*
X13161Y3322D01*
D02*
G37*
G36*
X32481Y3290D02*
X32481Y3290D01*
D01*
X32481D01*
X32481D01*
X32481Y3290D01*
X33092D01*
X33151Y3147D01*
X32932Y2819D01*
X32273D01*
Y3057D01*
X31878D01*
Y3157D01*
X32273D01*
Y3330D01*
X32481Y3290D01*
D02*
G37*
G36*
X19301Y2807D02*
X19589Y2688D01*
X19662Y2718D01*
X19957Y2423D01*
X19800Y2042D01*
X18868D01*
X18187Y2324D01*
Y2324D01*
X18187Y2324D01*
X18076Y2592D01*
X18101Y2654D01*
X18465Y2805D01*
X18747Y2688D01*
X19035Y2807D01*
X19035Y2807D01*
X19035Y2807D01*
X19035D01*
X19182Y3095D01*
D01*
D01*
X19301Y2807D01*
D02*
G37*
G36*
X40016Y587D02*
X40131Y210D01*
X39990Y-0D01*
X38141D01*
X38064Y386D01*
X38167Y429D01*
X38608Y870D01*
X39334D01*
X40016Y587D01*
D02*
G37*
G36*
X35370Y429D02*
X35473Y386D01*
X35397Y-0D01*
X9890D01*
X9737Y370D01*
X10137Y770D01*
X35029D01*
X35370Y429D01*
D02*
G37*
G36*
X452Y2990D02*
X915Y2798D01*
X1066Y2434D01*
X1033Y2354D01*
Y1016D01*
X1096Y864D01*
X1590Y370D01*
X1437Y-0D01*
X0D01*
X0Y0D01*
D01*
D01*
Y0D01*
X0D01*
D01*
Y3071D01*
X386Y3148D01*
X452Y2990D01*
D02*
G37*
G36*
X11942Y1563D02*
X11792Y1199D01*
X10048D01*
X9896Y1136D01*
X9860Y1100D01*
X9496Y1251D01*
Y1586D01*
X9654Y1969D01*
X9284Y2862D01*
X9503Y3190D01*
X10316D01*
X11942Y1563D01*
D02*
G37*
G36*
X42898Y1886D02*
X43049Y1823D01*
X45591D01*
X45743Y1886D01*
X45882Y2024D01*
X49594D01*
X49813Y1697D01*
X49809Y1686D01*
D01*
X49791Y1643D01*
X49916Y1340D01*
D01*
D01*
D01*
D01*
D01*
X50178Y1232D01*
X50329Y868D01*
X50284Y759D01*
X49792D01*
X49007Y1084D01*
Y1084D01*
X49007Y1084D01*
X48924Y1285D01*
D01*
X48896Y1352D01*
X48628Y1463D01*
X48560Y1435D01*
X48560D01*
X48360Y1352D01*
X48338Y1299D01*
X40539D01*
X39913Y1559D01*
X39798Y1935D01*
X39908Y2100D01*
X42683D01*
X42898Y1886D01*
D02*
G37*
G36*
X7251Y2862D02*
X6881Y1969D01*
X7256Y1064D01*
X7037Y736D01*
X1831D01*
X1479Y1088D01*
X1518Y1480D01*
X1728Y1621D01*
X1728Y1621D01*
Y1621D01*
X2016Y1740D01*
X2135Y2028D01*
X2105Y2100D01*
X3194Y3190D01*
X7033D01*
X7251Y2862D01*
D02*
G37*
G36*
X35007Y1787D02*
X35121Y1410D01*
X34980Y1199D01*
X34591D01*
X34440Y1563D01*
X34764Y1887D01*
X35007Y1787D01*
D02*
G37*
G36*
X35894Y4660D02*
X36019Y4357D01*
D01*
Y4357D01*
D01*
D01*
X36321Y4232D01*
X36435Y3856D01*
X36344Y3719D01*
X32570D01*
X32270Y4019D01*
X32306Y4107D01*
X32181Y4410D01*
X31980Y4493D01*
X31829Y4856D01*
X31864Y4940D01*
X35219D01*
X35894Y4660D01*
D02*
G37*
G36*
X37590Y6053D02*
X37440Y5689D01*
X36267D01*
X36048Y6017D01*
X36317Y6666D01*
X36236Y6861D01*
X36564Y7079D01*
X37590Y6053D01*
D02*
G37*
G36*
X78889Y5731D02*
X78871Y5687D01*
X78871D01*
X78871Y5687D01*
X78853Y5644D01*
Y5644D01*
X78853Y5644D01*
X78978Y5341D01*
X78980Y5341D01*
Y5179D01*
X78701Y4901D01*
X78297D01*
X78115Y4826D01*
X77593Y4304D01*
X77216Y4418D01*
X77172Y4640D01*
X77453Y4756D01*
X77572Y5043D01*
X77453Y5331D01*
X77165Y5450D01*
X77093Y5420D01*
X76424Y6089D01*
X76272Y6152D01*
X71655D01*
Y6332D01*
X70865D01*
Y5555D01*
X70865Y5555D01*
X70865D01*
X70865Y5542D01*
Y5542D01*
Y5473D01*
X70586Y5194D01*
X70219D01*
X69653Y5429D01*
X69518Y5754D01*
X69491Y5766D01*
Y5766D01*
X69491Y5766D01*
X69450Y5782D01*
Y7215D01*
X69375Y7397D01*
X68964Y7807D01*
X69115Y8171D01*
X76450D01*
X78889Y5731D01*
D02*
G37*
G36*
X66788Y7511D02*
X66788D01*
Y6682D01*
X66970D01*
X67120Y6318D01*
X66392Y5589D01*
X65688D01*
X65469Y5917D01*
X65776Y6656D01*
X65493Y7338D01*
X65712Y7666D01*
X66788D01*
Y7511D01*
D02*
G37*
G36*
X33502Y7135D02*
X33551Y7016D01*
X33819Y6905D01*
X33819Y6905D01*
X33819D01*
X33819D01*
Y6905D01*
X33819Y6905D01*
X34110Y7006D01*
Y7006D01*
X33970Y6666D01*
X34223Y6055D01*
X33993Y5735D01*
X33195Y5789D01*
X32306Y6157D01*
X32214Y6379D01*
X32255Y6440D01*
X32407Y6503D01*
X33116Y7211D01*
X33502Y7135D01*
D02*
G37*
G36*
X49865Y6289D02*
X49782Y6088D01*
X38285D01*
X38066Y6415D01*
X38149Y6616D01*
X49646D01*
X49865Y6289D01*
D02*
G37*
G36*
X23511Y5807D02*
X23798Y5688D01*
X23871Y5718D01*
X25025Y4564D01*
X25177Y4501D01*
X29933D01*
Y4157D01*
X30723D01*
Y4501D01*
X31180D01*
X31487Y4195D01*
X31450Y4107D01*
X31565Y3830D01*
X31346Y3502D01*
X31297D01*
X30742Y4057D01*
X29933D01*
Y3712D01*
X29933D01*
X30328Y3683D01*
X30026Y3410D01*
D01*
X30026D01*
D01*
D01*
D01*
X29900Y3107D01*
D01*
D01*
D01*
X29900D01*
Y3107D01*
X29708Y2819D01*
X27756D01*
X27572Y3095D01*
X27572Y3095D01*
X27572D01*
X27453Y3382D01*
X27165Y3501D01*
X27093Y3471D01*
X26731Y3833D01*
X26579Y3896D01*
X25226D01*
X25074Y3833D01*
X24713Y3471D01*
X24640Y3501D01*
X24352Y3382D01*
X24352Y3382D01*
Y3382D01*
X24116Y3309D01*
X24108Y3328D01*
D01*
D01*
Y3328D01*
X24108D01*
X24108D01*
X24086Y3382D01*
X23798Y3501D01*
X23798Y3501D01*
X23798Y3501D01*
X23798Y3501D01*
X23798Y3501D01*
X23511Y3382D01*
D01*
X23266Y3328D01*
X23244Y3382D01*
X22956Y3501D01*
X22956Y3501D01*
X22956Y3501D01*
X22956Y3501D01*
X22956Y3501D01*
X22669Y3382D01*
D01*
X22424Y3328D01*
X22402Y3382D01*
X22114Y3501D01*
X22114Y3501D01*
X22114Y3501D01*
X22114Y3501D01*
X22114Y3501D01*
X21827Y3382D01*
D01*
X21582Y3328D01*
X21560Y3382D01*
D01*
D01*
Y3382D01*
X21273Y3501D01*
D01*
D01*
D01*
X21219Y3479D01*
X21219D01*
D01*
D01*
X21219D01*
D01*
D01*
X21219Y3479D01*
D01*
D01*
X20985Y3382D01*
X20985Y3382D01*
X20985Y3382D01*
X20985D01*
X20980Y3371D01*
X20718Y3382D01*
D01*
X20431Y3501D01*
X20377Y3479D01*
X20377D01*
X20197Y3404D01*
X20197Y3404D01*
X20197Y3404D01*
X20143Y3382D01*
X20143Y3382D01*
X20138Y3371D01*
D01*
X20143Y3382D01*
X20143Y3382D01*
X20119Y3372D01*
X19876Y3382D01*
Y3382D01*
X19589Y3501D01*
X19516Y3471D01*
X19221Y3766D01*
X19069Y3829D01*
X18425D01*
X18273Y3766D01*
X17978Y3471D01*
X17905Y3501D01*
X17618Y3382D01*
X17618Y3382D01*
Y3382D01*
X17381Y3309D01*
X17373Y3328D01*
D01*
D01*
Y3328D01*
X17373D01*
X17373D01*
X17351Y3382D01*
D01*
D01*
Y3382D01*
X17063Y3501D01*
D01*
D01*
D01*
X17009Y3479D01*
X17009D01*
D01*
D01*
X17009D01*
D01*
D01*
X17009Y3479D01*
D01*
D01*
X16776Y3382D01*
X16657Y3095D01*
X16657Y3095D01*
X16657D01*
X16072Y2853D01*
X15481D01*
X15331Y3216D01*
X17833Y5718D01*
X17905Y5688D01*
X18069Y5756D01*
X18433Y5605D01*
X18490Y5467D01*
X18740Y5217D01*
X18740Y5217D01*
X18997Y5110D01*
X20206D01*
X20463Y5217D01*
X20688Y5442D01*
X20754Y5602D01*
X21118Y5752D01*
X21273Y5688D01*
X21560Y5807D01*
Y5807D01*
X21821Y5818D01*
X21827Y5807D01*
X21827D01*
X21827Y5807D01*
X21827Y5807D01*
X22114Y5688D01*
X22402Y5807D01*
X22402Y5807D01*
X22402Y5807D01*
X22402D01*
X22550Y6095D01*
D01*
D01*
X22646Y5861D01*
X22646D01*
X22669Y5807D01*
X22956Y5688D01*
X23010Y5710D01*
X23010Y5710D01*
X23244Y5807D01*
X23244Y5807D01*
X23244Y5807D01*
X23244D01*
X23391Y6095D01*
D01*
D01*
X23511Y5807D01*
D02*
G37*
G36*
X29933Y6781D02*
Y6762D01*
X29933D01*
X29940Y6761D01*
X30038Y6469D01*
X30026Y6460D01*
D01*
X30026D01*
D01*
D01*
D01*
X29921Y6207D01*
X30328D01*
Y6107D01*
X29867D01*
X29682Y5829D01*
X28213D01*
X27572Y6095D01*
X27453Y6382D01*
X27453Y6382D01*
X27399Y6404D01*
Y6404D01*
X27399Y6404D01*
X27274Y6456D01*
X27351Y6842D01*
X29912D01*
X29933Y6781D01*
D02*
G37*
G36*
X49550Y4677D02*
X49504Y4524D01*
X49017Y4322D01*
X46164D01*
X46099Y4402D01*
X46064Y4485D01*
X46013Y4507D01*
X45914Y4627D01*
X45977Y4940D01*
X49498D01*
X49550Y4677D01*
D02*
G37*
G36*
X55916Y4340D02*
X55959Y4322D01*
X55959Y4322D01*
Y4322D01*
X56024Y4295D01*
X56108Y4008D01*
X55879Y3729D01*
X54123D01*
X54072Y3853D01*
X54222Y4217D01*
X54521Y4340D01*
X54522Y4342D01*
X54915D01*
X54916Y4340D01*
X54959Y4322D01*
X54959Y4322D01*
Y4322D01*
X55219Y4215D01*
X55219Y4215D01*
X55521Y4340D01*
X55522Y4342D01*
X55915D01*
X55916Y4340D01*
D02*
G37*
G36*
X45220Y4271D02*
X45152Y4107D01*
X45169Y4067D01*
X44950Y3739D01*
X44454D01*
X44241Y4057D01*
X43718D01*
Y4157D01*
X44232D01*
X44220Y4185D01*
X44435Y4515D01*
X44963Y4528D01*
X45220Y4271D01*
D02*
G37*
G36*
X9721Y4497D02*
X10024Y4371D01*
X10024Y4371D01*
D01*
X10111Y4408D01*
X10536Y3983D01*
X10386Y3619D01*
X5119D01*
X5066Y3699D01*
X5180Y4076D01*
X5271Y4113D01*
X5328Y4090D01*
X8529D01*
X8681Y4153D01*
X8936Y4408D01*
X9024Y4371D01*
X9326Y4497D01*
X9327Y4498D01*
X9720D01*
X9721Y4497D01*
D02*
G37*
G36*
X76789Y5116D02*
X76759Y5043D01*
X76878Y4756D01*
X77159Y4640D01*
X77082Y4253D01*
X72307D01*
X71674Y4887D01*
X71260D01*
Y4987D01*
X71667D01*
X71562Y5240D01*
X71562Y5240D01*
X71535Y5251D01*
X71655Y5542D01*
Y5542D01*
Y5555D01*
Y5555D01*
D01*
X71655Y5722D01*
X76183D01*
X76789Y5116D01*
D02*
G37*
G36*
X26463Y5166D02*
X26337Y4931D01*
X25471D01*
X25253Y5258D01*
X25311Y5400D01*
X26338D01*
X26463Y5166D01*
D02*
G37*
G36*
X16741Y5890D02*
X16776Y5807D01*
X16829Y5785D01*
X16906Y5399D01*
X14946Y3439D01*
X14248D01*
X14096Y3376D01*
X14088Y3368D01*
X14066D01*
X13698Y3442D01*
X13666Y3520D01*
X13320Y3866D01*
X13168Y3929D01*
X11372D01*
X11141Y4211D01*
X11211Y4449D01*
X11326Y4497D01*
X11327Y4498D01*
X11720D01*
X11721Y4497D01*
X12024Y4371D01*
X12326Y4497D01*
X12327Y4498D01*
X12720D01*
X12721Y4497D01*
X13024Y4371D01*
X13024Y4371D01*
X13326Y4497D01*
X13327Y4498D01*
X13720D01*
X13721Y4497D01*
X14024Y4371D01*
X14024Y4371D01*
X14326Y4497D01*
X14327Y4498D01*
X14720D01*
X14721Y4497D01*
X14974Y4392D01*
Y4799D01*
X15024D01*
Y4849D01*
X15431D01*
X15326Y5102D01*
Y5102D01*
Y5102D01*
X15416Y5319D01*
X16363Y5998D01*
X16741Y5890D01*
D02*
G37*
G36*
X31995Y16776D02*
X31289Y16069D01*
X30529D01*
X30376Y16355D01*
X30529Y16640D01*
X30618D01*
X30770Y16703D01*
X31207Y17140D01*
X31845D01*
X31995Y16776D01*
D02*
G37*
G36*
X38666Y16272D02*
X38516Y15908D01*
X34592D01*
X34225Y16276D01*
X34294Y16443D01*
X34425Y16640D01*
X38299D01*
X38666Y16272D01*
D02*
G37*
G36*
X59691Y19533D02*
X59843Y19470D01*
X61275D01*
X61427Y19533D01*
X61787Y19893D01*
X63502D01*
X63720Y19566D01*
X63428Y18861D01*
X63507Y18672D01*
Y18372D01*
X63179Y18154D01*
X63142Y18169D01*
X61700D01*
X61512Y18451D01*
X61512Y18451D01*
X61512D01*
X61405Y18710D01*
Y18710D01*
X61387Y18753D01*
X61084Y18879D01*
X61041Y18861D01*
X61041D01*
X60782Y18753D01*
X60781Y18752D01*
X60387D01*
X60387Y18753D01*
X60084Y18879D01*
X59782Y18753D01*
X59781Y18752D01*
X59387D01*
X59387Y18753D01*
X59134Y18858D01*
Y18451D01*
X59034D01*
Y18858D01*
X58782Y18753D01*
X58656Y18451D01*
X58656Y18451D01*
X58656Y18451D01*
X58468Y18169D01*
X56067D01*
X55915Y18106D01*
X55581Y17772D01*
X55537Y17791D01*
Y17791D01*
X55537Y17791D01*
X55493Y17809D01*
X55493Y17809D01*
X55191Y17683D01*
X55190Y17682D01*
X54986D01*
X54708Y17960D01*
Y19070D01*
X54645Y19222D01*
X53857Y20009D01*
X54008Y20373D01*
X58851D01*
X59691Y19533D01*
D02*
G37*
G36*
X78437Y16919D02*
Y16417D01*
X78109Y16198D01*
X78046Y16224D01*
Y15817D01*
X77946D01*
Y16231D01*
X77678Y16499D01*
X77496Y16574D01*
X77317D01*
X77299Y16619D01*
X77046Y16724D01*
Y16317D01*
X76946D01*
Y16724D01*
X76694Y16619D01*
X76675Y16574D01*
X75810D01*
X71655Y16580D01*
Y16928D01*
Y16928D01*
X71655Y16941D01*
X71655Y16941D01*
X71655D01*
Y17538D01*
X71655Y17538D01*
X71655Y17538D01*
X71655Y17718D01*
X71754Y17817D01*
X77539D01*
X78437Y16919D01*
D02*
G37*
G36*
X42191Y17078D02*
X42493Y16953D01*
Y16953D01*
X42493Y16953D01*
Y16953D01*
X42604Y16999D01*
X42645Y17016D01*
X42924Y16737D01*
X42829Y16508D01*
X41841D01*
X41610Y16790D01*
X41681Y17030D01*
X41796Y17078D01*
X41796Y17080D01*
X42190D01*
X42191Y17078D01*
D02*
G37*
G36*
X16966Y16250D02*
X17050Y16045D01*
D01*
X17050D01*
X17050D01*
X17050Y16045D01*
X17050D01*
D01*
Y16045D01*
D01*
X17061Y16018D01*
D01*
D01*
D01*
X17387Y15884D01*
D01*
D01*
D01*
X17414Y15895D01*
X17414D01*
D01*
D01*
X17414D01*
D01*
D01*
X17684Y16007D01*
Y16007D01*
X17684Y16007D01*
Y16007D01*
X17712Y16018D01*
X17722Y16043D01*
X18108Y16120D01*
X19526Y14703D01*
X19375Y14339D01*
X17867D01*
X17846Y14370D01*
X17846Y14370D01*
Y14370D01*
D01*
D01*
X17723Y14668D01*
X17723D01*
X17723D01*
X17723Y14668D01*
X17723D01*
X17712Y14695D01*
D01*
D01*
D01*
X17387Y14830D01*
D01*
D01*
D01*
X17359Y14819D01*
Y14819D01*
X17359Y14819D01*
Y14819D01*
D01*
D01*
D01*
D01*
D01*
Y14819D01*
X17276Y14784D01*
X16974Y15086D01*
X16822Y15149D01*
X14108D01*
X13956Y15086D01*
X13769Y14900D01*
X13388D01*
X13169Y15227D01*
X13201Y15304D01*
X11996D01*
X12094Y15067D01*
Y15067D01*
D01*
D01*
Y15067D01*
D01*
Y14973D01*
X12094D01*
X12094D01*
D01*
D01*
D01*
X11975Y14685D01*
X12094Y14398D01*
Y14398D01*
D01*
D01*
Y14398D01*
D01*
Y14303D01*
X12094D01*
X12094D01*
D01*
D01*
D01*
X11996Y14066D01*
X12598D01*
Y14016D01*
X12648D01*
Y13609D01*
X12815D01*
X13102Y13728D01*
X13115Y13758D01*
X15032D01*
X15214Y13834D01*
X15319Y13938D01*
X15337Y13931D01*
Y14370D01*
X15387D01*
Y14420D01*
X15856D01*
X16056Y14720D01*
X16717D01*
X16936Y14392D01*
X16927Y14370D01*
X17050Y14072D01*
D01*
X17050D01*
X17050D01*
X17050Y14072D01*
X17050D01*
D01*
Y14072D01*
D01*
X17061Y14045D01*
D01*
D01*
D01*
X17387Y13910D01*
D01*
D01*
D01*
X17414Y13922D01*
X17414D01*
D01*
Y13922D01*
X17414Y13922D01*
Y13922D01*
D01*
D01*
D01*
D01*
D01*
Y13922D01*
X17508Y13961D01*
X17633Y13909D01*
X20358D01*
X20844Y13423D01*
X20814Y13350D01*
X20832Y13308D01*
X20613Y12981D01*
X19095D01*
X18732Y13344D01*
X18580Y13407D01*
X16582D01*
X16430Y13344D01*
X16231Y13145D01*
X10388D01*
X10170Y13472D01*
X10367Y13948D01*
X10117Y14552D01*
X9674Y14736D01*
Y15130D01*
X10117Y15313D01*
X10367Y15917D01*
X10211Y16293D01*
X10328Y16468D01*
X10720Y16506D01*
X10790Y16436D01*
X11048Y16329D01*
X11238D01*
X11975Y16024D01*
D01*
D01*
X11975Y16024D01*
Y16024D01*
X11975Y16024D01*
X12094Y15736D01*
Y15736D01*
D01*
D01*
Y15736D01*
D01*
Y15642D01*
X12094D01*
X12094D01*
D01*
D01*
D01*
X11996Y15404D01*
X13201D01*
X13199Y15408D01*
Y15408D01*
X13199D01*
X13102Y15642D01*
Y15642D01*
D01*
D01*
Y15642D01*
D01*
Y15736D01*
X13102Y15736D01*
D01*
D01*
X13221Y16024D01*
D01*
D01*
X13221Y16024D01*
X13221D01*
Y16024D01*
D01*
X13221D01*
Y16024D01*
D01*
D01*
Y16038D01*
X13484Y16329D01*
X13808D01*
X14065Y16436D01*
X14310Y16680D01*
X14712D01*
X14904Y16393D01*
X15869D01*
X16061Y16680D01*
X16535D01*
X16966Y16250D01*
D02*
G37*
G36*
X39191Y17078D02*
X39493Y16953D01*
X39796Y17078D01*
X39796Y17080D01*
X40190D01*
X40191Y17078D01*
X40493Y16953D01*
X40493Y16953D01*
X40581Y16989D01*
X40995Y16575D01*
X40845Y16211D01*
X39335D01*
X39028Y16518D01*
X38888Y16856D01*
X38981Y17080D01*
X39190D01*
X39191Y17078D01*
D02*
G37*
G36*
X31492Y15276D02*
X31205Y14989D01*
X30505D01*
X30286Y15317D01*
X30302Y15354D01*
X30302Y15354D01*
X30302Y15354D01*
X30492Y15640D01*
X31341D01*
X31492Y15276D01*
D02*
G37*
G36*
X29446Y15354D02*
X29446Y15354D01*
X29446D01*
X29462Y15317D01*
X29243Y14989D01*
X19847D01*
X19560Y15276D01*
X19711Y15640D01*
X29256D01*
X29446Y15354D01*
D02*
G37*
G36*
X3772Y18009D02*
Y17846D01*
X3622Y17784D01*
X3403Y17256D01*
X3622Y16727D01*
X3772Y16665D01*
Y16271D01*
X3622Y16209D01*
X3403Y15681D01*
X3622Y15152D01*
X3772Y15090D01*
Y14696D01*
X3622Y14634D01*
X3622Y14634D01*
Y14634D01*
X3295Y14585D01*
X3233Y14737D01*
X2603Y15367D01*
X2732Y15681D01*
X2514Y16209D01*
X2364Y16271D01*
Y16665D01*
X2514Y16727D01*
X2732Y17256D01*
X2558Y17677D01*
X2871Y17991D01*
X3444Y18228D01*
X3772Y18009D01*
D02*
G37*
G36*
X70957Y16020D02*
X70959Y16020D01*
Y15626D01*
X70957Y15625D01*
X70850Y15366D01*
X70850D01*
X70850Y15366D01*
X70832Y15323D01*
X70058Y15002D01*
X68676D01*
X68520Y15379D01*
X68652Y15696D01*
X68635Y15738D01*
X68853Y16065D01*
X70939D01*
X70957Y16020D01*
D02*
G37*
G36*
X5273Y17152D02*
Y15784D01*
X4887Y15707D01*
X4679Y16209D01*
X4529Y16271D01*
Y16665D01*
X4679Y16727D01*
X4887Y17229D01*
X5273Y17152D01*
D02*
G37*
G36*
X65381Y16839D02*
X65372Y16818D01*
X65497Y16516D01*
X65499Y16515D01*
Y16121D01*
X65497Y16121D01*
X65372Y15818D01*
X65372Y15818D01*
X65372Y15818D01*
X65290Y15696D01*
X64898Y15657D01*
X64586Y15970D01*
X64434Y16033D01*
X63138D01*
X63102Y16121D01*
X63101Y16121D01*
Y16515D01*
X63102Y16516D01*
X63227Y16818D01*
X63227Y16818D01*
Y16818D01*
X63219Y16839D01*
X63437Y17167D01*
X65162D01*
X65381Y16839D01*
D02*
G37*
G36*
X58588Y15422D02*
X58431Y15129D01*
X53671D01*
X53203Y15323D01*
X53279Y15710D01*
X58434D01*
X58588Y15422D01*
D02*
G37*
G36*
X28307Y18993D02*
X27675Y18361D01*
X27425Y18464D01*
X27190Y18366D01*
X26971Y18694D01*
X27634Y19356D01*
X28157D01*
X28307Y18993D01*
D02*
G37*
G36*
X67518Y18595D02*
X67480Y18504D01*
X67480Y18504D01*
X67480Y18504D01*
X67290Y18219D01*
X65988D01*
X65886Y18177D01*
X65608Y18455D01*
X65776Y18861D01*
X65483Y19566D01*
X65702Y19893D01*
X66220D01*
X67518Y18595D01*
D02*
G37*
G36*
X32595Y18979D02*
Y18667D01*
X32571Y18657D01*
X32446Y18354D01*
X32446D01*
X32446Y18354D01*
X32256Y18069D01*
X30463D01*
X30269Y18263D01*
Y18750D01*
X29479D01*
Y17959D01*
X29479D01*
X29571Y17943D01*
Y17657D01*
X29814Y17899D01*
X29874Y17889D01*
X29571Y17657D01*
Y17657D01*
X29571Y17657D01*
X29571Y17657D01*
D01*
X29571Y17657D01*
X29571Y17657D01*
X29446Y17354D01*
X28758Y17069D01*
X28259D01*
X28040Y17397D01*
X28173Y17717D01*
X28069Y17966D01*
X29509Y19406D01*
X32168D01*
X32595Y18979D01*
D02*
G37*
G36*
X27449Y20666D02*
X27421Y20638D01*
X27358Y20486D01*
Y20310D01*
X27305Y20288D01*
X27243Y20137D01*
X27194Y20020D01*
D01*
D01*
Y20020D01*
D01*
X27219Y19960D01*
X27305Y19752D01*
X27223Y19553D01*
X26091Y18421D01*
X26038Y18443D01*
X25814Y18351D01*
X25770Y18332D01*
X25770Y18332D01*
X25770Y18332D01*
X25687Y18132D01*
Y18132D01*
X25659Y18064D01*
X25770Y17797D01*
X25838Y17768D01*
D01*
X26038Y17686D01*
X26306Y17797D01*
Y17797D01*
X26332Y17860D01*
X26662Y17723D01*
X26777Y17346D01*
X26592Y17069D01*
X23067D01*
X20260Y19876D01*
X20108Y19939D01*
X10218D01*
X10196Y19992D01*
X9995Y20075D01*
Y20075D01*
X9995Y20075D01*
X9928Y20103D01*
X9804Y20052D01*
X9440Y20203D01*
X9248Y20666D01*
Y20666D01*
Y20666D01*
X9321Y21030D01*
X27298D01*
X27449Y20666D01*
D02*
G37*
G36*
X43875Y18590D02*
Y18590D01*
X43875Y18590D01*
X43918Y18572D01*
X43994Y18186D01*
X43581Y17772D01*
X43493Y17809D01*
X43390Y17766D01*
X43212Y17884D01*
X43150Y18036D01*
X43108Y18078D01*
X43185Y18464D01*
X43487Y18590D01*
Y18590D01*
X43829Y18643D01*
X43875Y18590D01*
D02*
G37*
G36*
X9981Y19075D02*
D01*
X10113Y18757D01*
X9885Y18529D01*
X9493Y18568D01*
X9307Y18847D01*
X9468Y19235D01*
X9532Y19261D01*
X9981Y19075D01*
D02*
G37*
G36*
X15605Y18413D02*
X15454Y18049D01*
X10349D01*
X10163Y18396D01*
X10296Y18596D01*
X10577Y18479D01*
X11077D01*
X11498Y18654D01*
X11557Y18796D01*
X15222D01*
X15605Y18413D01*
D02*
G37*
G36*
X18678Y17717D02*
X18896Y17190D01*
X18568Y16972D01*
X17933Y17607D01*
X18062Y17801D01*
X18268Y17886D01*
X18678Y17717D01*
D02*
G37*
G36*
X22826Y16703D02*
X22978Y16640D01*
X29219D01*
X29372Y16355D01*
X29219Y16069D01*
X19471D01*
X18680Y16860D01*
X18899Y17187D01*
X19425Y16969D01*
X19954Y17188D01*
X20173Y17717D01*
X19954Y18245D01*
X19425Y18464D01*
X19175Y18361D01*
X19032Y18504D01*
X18835Y18586D01*
X17739D01*
X17521Y18913D01*
X17567Y19025D01*
X16742D01*
Y19125D01*
X17567D01*
X17543Y19182D01*
X17762Y19510D01*
X20019D01*
X22826Y16703D01*
D02*
G37*
G36*
X62217Y17084D02*
X62103Y16707D01*
X61623Y16508D01*
X57417D01*
X57266Y16872D01*
X57561Y17167D01*
X62162D01*
X62217Y17084D01*
D02*
G37*
G36*
X6369Y18520D02*
X6228Y18179D01*
X6076Y18116D01*
X5336Y17376D01*
X5289Y17262D01*
X4895D01*
X4679Y17784D01*
X4529Y17846D01*
Y18240D01*
X4679Y18302D01*
X4877Y18780D01*
X4150D01*
Y18880D01*
X4877D01*
X4699Y19310D01*
X4879Y19579D01*
X5271Y19618D01*
X6369Y18520D01*
D02*
G37*
G36*
X54279Y18981D02*
Y17720D01*
X54234Y17701D01*
X54234Y17701D01*
Y17701D01*
X54191Y17683D01*
X54190Y17682D01*
X53796D01*
X53796Y17683D01*
X53493Y17809D01*
X53191Y17683D01*
X53190Y17682D01*
X52796D01*
X52796Y17683D01*
X52493Y17809D01*
X52493Y17809D01*
X52493D01*
X52493D01*
Y17809D01*
X52493Y17809D01*
X52119Y17843D01*
Y17949D01*
X52333Y18163D01*
X52395Y18314D01*
Y18552D01*
X52487Y18590D01*
X52614Y18896D01*
Y19496D01*
X52509Y19749D01*
X52728Y20076D01*
X53183D01*
X54279Y18981D01*
D02*
G37*
G36*
X34081Y20000D02*
X34297Y19671D01*
X33970Y18881D01*
X33480Y18678D01*
X33153Y18897D01*
Y19094D01*
X33071Y19292D01*
X32706Y19657D01*
X32859Y20019D01*
X34081Y20000D01*
D02*
G37*
G36*
X70865Y17718D02*
X70865Y17538D01*
X70865Y17538D01*
X70865Y17538D01*
Y16941D01*
X70865Y16941D01*
X70865D01*
X70865Y16928D01*
Y16928D01*
Y16859D01*
X70586Y16580D01*
X67829D01*
X67647Y16505D01*
X67254Y16111D01*
X67253D01*
Y15696D01*
X67153D01*
Y16111D01*
X66788D01*
D01*
X66788D01*
X66711Y16188D01*
Y16966D01*
X66648Y17118D01*
X66340Y17426D01*
X66491Y17790D01*
X67290D01*
X67480Y17504D01*
X67480Y17504D01*
X67480D01*
X67607Y17198D01*
X67913Y17071D01*
X68220Y17198D01*
X68220Y17198D01*
Y17198D01*
X68498Y17368D01*
D01*
X68498D01*
Y17368D01*
X68650Y17305D01*
X69298D01*
X69449Y17368D01*
X69898Y17817D01*
X70766D01*
X70865Y17718D01*
D02*
G37*
G36*
X65297Y12832D02*
X65141Y12539D01*
X63901D01*
X63514Y12699D01*
X63476Y12825D01*
X63533Y13110D01*
X65149D01*
X65297Y12832D01*
D02*
G37*
G36*
X69708Y13213D02*
X69683Y13203D01*
X68900Y12421D01*
X68573Y12640D01*
X68652Y12830D01*
X68520Y13147D01*
X68361Y13213D01*
X68438Y13600D01*
X69631D01*
X69708Y13213D01*
D02*
G37*
G36*
X59949Y12704D02*
Y12704D01*
X59949Y12704D01*
X60002Y12577D01*
X59851Y12214D01*
X59782Y12185D01*
X59781Y12183D01*
X59387D01*
X59387Y12185D01*
X59134Y12290D01*
Y11882D01*
X59084D01*
Y11832D01*
X58677D01*
X58782Y11580D01*
X58825Y11562D01*
X58825D01*
X59004Y11488D01*
X58927Y11102D01*
X56889D01*
Y11776D01*
X56098D01*
Y11683D01*
X55796D01*
X55796Y11683D01*
X55796Y11683D01*
X55796D01*
X56045Y11537D01*
X55796Y11683D01*
X55796Y11683D01*
X55753Y11701D01*
X55753Y11701D01*
Y11701D01*
X55493Y11809D01*
X55191Y11683D01*
D01*
X55132Y11707D01*
X55041Y11845D01*
X54957Y12045D01*
X55778Y12866D01*
X59559D01*
X59949Y12704D01*
D02*
G37*
G36*
X37425Y12463D02*
X37275Y12099D01*
X31775D01*
X31562Y12417D01*
X31562Y12417D01*
X31562D01*
X31516Y12528D01*
X32098Y13110D01*
X34522D01*
X34557Y13027D01*
D01*
X34557D01*
X34557D01*
X34557Y13027D01*
X34557D01*
D01*
Y13027D01*
D01*
X34568Y12999D01*
D01*
D01*
D01*
X34893Y12865D01*
D01*
D01*
D01*
D01*
D01*
X35218Y12999D01*
X35230Y13027D01*
X35230Y13027D01*
X35342Y13297D01*
X35342Y13297D01*
X35342Y13297D01*
X35353Y13324D01*
X35346Y13342D01*
X35564Y13670D01*
X36219D01*
X37425Y12463D01*
D02*
G37*
G36*
X23344Y13677D02*
X23650Y13617D01*
Y13617D01*
X23918Y13506D01*
X23971Y13528D01*
X23972Y13526D01*
X24124Y13463D01*
X31330D01*
X31473Y13117D01*
X31195Y12839D01*
X31130Y12866D01*
Y12866D01*
D01*
D01*
X31130Y12866D01*
D01*
X31102Y12877D01*
X30777Y12742D01*
X30777Y12742D01*
X30777Y12742D01*
X30777D01*
X30777D01*
X30643Y12417D01*
X29875Y12099D01*
X28474D01*
X28430Y12144D01*
X28278Y12207D01*
X24380D01*
Y12387D01*
X23589D01*
Y12266D01*
X23225Y12115D01*
X22855Y12485D01*
X22685Y12555D01*
X22673Y12617D01*
X22673Y13006D01*
X23344Y13677D01*
D01*
D02*
G37*
G36*
X76348Y13408D02*
X76462Y13032D01*
X76382Y12912D01*
X74236D01*
X74084Y12849D01*
X74014Y12778D01*
X73995Y12786D01*
Y12786D01*
X73995D01*
X73941Y12808D01*
X73941Y12808D01*
X73653Y12689D01*
X73028Y12948D01*
X72773Y13203D01*
X72748Y13213D01*
X72824Y13600D01*
X75886D01*
X76348Y13408D01*
D02*
G37*
G36*
X62372Y12818D02*
X62372Y12818D01*
X62372D01*
X62497Y12516D01*
X62499Y12515D01*
Y12252D01*
X62194Y12002D01*
X62042Y12032D01*
Y12134D01*
X61980Y12286D01*
X61520Y12746D01*
X61671Y13110D01*
X62177D01*
X62372Y12818D01*
D02*
G37*
G36*
X52551Y13742D02*
X50581Y11772D01*
X50537Y11791D01*
Y11791D01*
X50537Y11791D01*
X50493Y11809D01*
X50493Y11809D01*
X50191Y11683D01*
X50190Y11682D01*
X49821D01*
X49781Y11771D01*
X50091Y12518D01*
X51522Y14106D01*
X52401D01*
X52551Y13742D01*
D02*
G37*
G36*
X73226Y12142D02*
X73149Y11756D01*
X73116Y11742D01*
Y11742D01*
X72981Y11417D01*
X72989Y11398D01*
X72770Y11071D01*
X72112D01*
X71914Y11367D01*
X71441D01*
Y11417D01*
X71391D01*
Y11856D01*
X71343Y11837D01*
X71228Y12114D01*
X71347Y12402D01*
X71303Y12509D01*
X71522Y12836D01*
X72532D01*
X73226Y12142D01*
D02*
G37*
G36*
X4141Y21290D02*
X2299Y19448D01*
X1985Y19578D01*
X1457Y19359D01*
X1238Y18830D01*
X1457Y18302D01*
X1606Y18240D01*
Y17846D01*
X1457Y17784D01*
X1238Y17256D01*
X1457Y16727D01*
X1606Y16665D01*
Y16271D01*
X1457Y16209D01*
X1238Y15681D01*
X1457Y15152D01*
X1606Y15090D01*
Y14696D01*
X1457Y14634D01*
X1238Y14106D01*
X1457Y13577D01*
X1606Y13515D01*
Y13122D01*
X1457Y13060D01*
X1238Y12531D01*
X1457Y12003D01*
X1606Y11941D01*
Y11547D01*
X1457Y11485D01*
X1258Y11006D01*
X1985D01*
Y10956D01*
X2035D01*
Y10206D01*
X2896Y9346D01*
X3078Y9270D01*
X4414D01*
X4565Y8906D01*
X3609Y7951D01*
X3122D01*
Y7161D01*
X3122D01*
X3511Y7004D01*
X3511Y7002D01*
X3511D01*
X3200Y6874D01*
Y6874D01*
X3200Y6874D01*
Y6873D01*
D01*
D01*
X3200D01*
X3069Y6556D01*
X3200Y6238D01*
X3485Y6120D01*
Y6120D01*
X3200Y6238D01*
X3485Y6120D01*
X3485Y6120D01*
D01*
X3490Y6084D01*
X3215Y5858D01*
X3215D01*
X3215Y5858D01*
X3090Y5556D01*
Y5556D01*
X3090Y5556D01*
X3215Y5253D01*
X3217Y5253D01*
Y4859D01*
X3215Y4858D01*
X3090Y4556D01*
X3090D01*
X3139Y4437D01*
X2921Y4109D01*
X2788D01*
X2636Y4046D01*
X2165Y3575D01*
X1779Y3652D01*
X1584Y4122D01*
X1018Y4357D01*
X452Y4122D01*
X386Y3964D01*
X0Y4041D01*
Y7571D01*
X386Y7648D01*
X452Y7490D01*
X1018Y7255D01*
X1584Y7490D01*
X1818Y8056D01*
X1584Y8622D01*
X1018Y8857D01*
X452Y8622D01*
X386Y8464D01*
X0Y8541D01*
Y21654D01*
D01*
X0D01*
Y21654D01*
D01*
D01*
X0Y21654D01*
X0D01*
X3990D01*
X4141Y21290D01*
D02*
G37*
G36*
X81496Y17345D02*
X81110Y17268D01*
X81062Y17383D01*
X80496Y17618D01*
X79930Y17383D01*
X79695Y16817D01*
X79930Y16251D01*
X80496Y16016D01*
X81062Y16251D01*
X81110Y16366D01*
X81496Y16289D01*
Y12845D01*
X81110Y12768D01*
X81062Y12883D01*
X80496Y13118D01*
X79930Y12883D01*
X79695Y12317D01*
X79930Y11751D01*
X80496Y11516D01*
X81062Y11751D01*
X81110Y11866D01*
X81496Y11789D01*
Y-0D01*
X75334D01*
X75258Y386D01*
X75273Y393D01*
X75654Y773D01*
X75717Y925D01*
Y1167D01*
X75770Y1189D01*
X75770Y1189D01*
X75850Y1382D01*
X75881Y1457D01*
D01*
D01*
Y1457D01*
Y1457D01*
X75881D01*
X75862Y1501D01*
X76081Y1829D01*
X76848D01*
X76856Y1810D01*
D01*
D01*
Y1810D01*
X76856D01*
X76856D01*
Y1810D01*
D01*
D01*
X76878Y1756D01*
D01*
D01*
Y1756D01*
X77165Y1637D01*
D01*
D01*
D01*
X77219Y1659D01*
D01*
D01*
X77219D01*
D01*
D01*
X77219D01*
D01*
D01*
X77219Y1659D01*
D01*
D01*
X77453Y1756D01*
X77915Y1565D01*
X78153Y988D01*
X79134Y582D01*
X80114Y988D01*
X80521Y1969D01*
X80114Y2949D01*
X79134Y3355D01*
X78153Y2949D01*
X77872Y2270D01*
X77478D01*
X77453Y2331D01*
X77219Y2428D01*
D01*
X77219Y2428D01*
X77219D01*
D01*
X77219D01*
X77165Y2450D01*
D01*
D01*
D01*
X76878Y2331D01*
Y2331D01*
D01*
D01*
X76856Y2277D01*
D01*
X76856D01*
X76856D01*
Y2277D01*
D01*
D01*
D01*
D01*
D01*
X76848Y2258D01*
X73575D01*
X73518Y2282D01*
X70268D01*
X70223Y2392D01*
X69898Y2527D01*
X69573Y2392D01*
X69438Y2067D01*
X69573Y1742D01*
X69898Y1607D01*
X70223Y1742D01*
X70268Y1852D01*
X73484D01*
X73541Y1829D01*
X74923D01*
X75142Y1501D01*
X75123Y1457D01*
X75123Y1457D01*
Y1457D01*
D01*
X75234Y1189D01*
X75073Y800D01*
X75032Y759D01*
X61928D01*
X61777Y1123D01*
X62330Y1675D01*
X62374Y1657D01*
Y1657D01*
X62374Y1657D01*
X62417Y1639D01*
X62417Y1639D01*
X62720Y1764D01*
X62720Y1766D01*
X63114D01*
X63115Y1764D01*
X63158Y1746D01*
X63158Y1746D01*
Y1746D01*
X63417Y1639D01*
X63720Y1764D01*
X63720Y1766D01*
X64114D01*
X64115Y1764D01*
X64417Y1639D01*
X64720Y1764D01*
X64720Y1766D01*
X65114D01*
X65115Y1764D01*
X65367Y1660D01*
Y2067D01*
Y2474D01*
X65115Y2369D01*
X65114Y2368D01*
X64720D01*
X64720Y2369D01*
X64417Y2495D01*
X64115Y2369D01*
X64114Y2368D01*
X63720D01*
X63720Y2369D01*
X63417Y2495D01*
X63417Y2495D01*
X63374Y2477D01*
X63374Y2477D01*
Y2477D01*
X63330Y2458D01*
X62378Y3410D01*
X62236Y3469D01*
X62085Y3833D01*
X62096Y3858D01*
X62065Y3931D01*
X63294Y5160D01*
X66481D01*
X66633Y5223D01*
X68100Y6690D01*
X68170Y6661D01*
Y6661D01*
D01*
D01*
X68170Y6661D01*
D01*
D01*
D01*
X68170D01*
X68203Y6647D01*
D01*
D01*
D01*
X68520Y6779D01*
D01*
D01*
D01*
X68534Y6811D01*
D01*
D01*
D01*
D01*
X68534Y6812D01*
D01*
D01*
D01*
D01*
X68534D01*
D01*
Y6812D01*
X68549Y6849D01*
X68936Y6772D01*
Y5782D01*
X68868Y5754D01*
X68754Y5479D01*
X69193D01*
Y5429D01*
X69243D01*
Y4990D01*
X69261Y4997D01*
X69503Y4755D01*
X69685Y4680D01*
X70939D01*
X70957Y4634D01*
X70959Y4634D01*
Y4430D01*
X70680Y4152D01*
X69701D01*
X69549Y4089D01*
X69303Y3843D01*
X69193Y3889D01*
X68868Y3754D01*
X68822Y3644D01*
X65613D01*
X65096Y3858D01*
Y3858D01*
X65096Y3858D01*
X64999Y4092D01*
X64999D01*
X64976Y4146D01*
X64689Y4265D01*
X64635Y4242D01*
X64635Y4242D01*
X64402Y4146D01*
X64282Y3858D01*
X64402Y3571D01*
X64689Y3452D01*
X64762Y3482D01*
X64966Y3277D01*
X65118Y3214D01*
X68822D01*
X68868Y3104D01*
X69193Y2969D01*
X69518Y3104D01*
X69653Y3429D01*
X70360Y3722D01*
X70921D01*
X70957Y3634D01*
X71217Y3527D01*
X71217D01*
X71260Y3509D01*
X71562Y3634D01*
X71580Y3678D01*
Y3678D01*
X71613Y3757D01*
X71999Y3834D01*
X72019Y3814D01*
X72201Y3739D01*
X77649D01*
X77831Y3814D01*
X78404Y4386D01*
X78959D01*
X78978Y4341D01*
X79231Y4237D01*
Y4644D01*
X79281D01*
Y4694D01*
X79688D01*
X79583Y4946D01*
X79582Y4947D01*
Y5341D01*
X79583Y5341D01*
X79709Y5644D01*
X79709Y5644D01*
Y5644D01*
X79601Y5903D01*
X79601Y5903D01*
X79601D01*
X79583Y5946D01*
X79582Y5947D01*
Y6341D01*
X79583Y6341D01*
X79709Y6644D01*
X79709Y6644D01*
X79583Y6946D01*
X79582Y6947D01*
Y7341D01*
X79583Y7341D01*
X79709Y7644D01*
X79601Y7903D01*
X79601Y7903D01*
X79601D01*
X79583Y7946D01*
X79582Y7947D01*
Y8341D01*
X79583Y8341D01*
X79709Y8644D01*
X79709Y8644D01*
Y8644D01*
X79601Y8903D01*
X79601Y8903D01*
X79601D01*
X79583Y8946D01*
X79583Y8946D01*
X79322Y9208D01*
X79583Y8946D01*
Y9248D01*
X79676D01*
Y10039D01*
X78885D01*
Y9513D01*
X78613Y9526D01*
X78613D01*
D01*
X78613D01*
X78613D01*
X78613Y9526D01*
X76450D01*
X74488Y11488D01*
X74228Y12114D01*
D01*
X74347Y12402D01*
X74542Y12482D01*
X77601D01*
Y12422D01*
X78391D01*
Y13212D01*
X78391D01*
X78315Y13243D01*
X78314Y13499D01*
X78314D01*
X78314Y13499D01*
D01*
D01*
D01*
X78432Y13784D01*
D01*
X78445Y13817D01*
X78314Y14135D01*
Y14135D01*
X78268Y14441D01*
X78299Y14514D01*
Y14514D01*
X78299Y14514D01*
X78424Y14817D01*
X78424Y14817D01*
Y14817D01*
X78406Y14860D01*
X78406Y14860D01*
X78406D01*
X78388Y14905D01*
X78803Y15321D01*
X78866Y15472D01*
Y17008D01*
X78803Y17160D01*
X77780Y18183D01*
X77628Y18246D01*
X75151D01*
X75008Y18591D01*
X75287Y18869D01*
X75351Y18843D01*
Y18843D01*
D01*
D01*
X75351Y18843D01*
D01*
D01*
D01*
X75351D01*
X75378Y18832D01*
D01*
D01*
D01*
X75703Y18966D01*
D01*
D01*
D01*
X75714Y18994D01*
D01*
Y18994D01*
D01*
D01*
X75714D01*
X75714Y18994D01*
X75714D01*
D01*
D01*
X75714D01*
D01*
D01*
X75826Y19264D01*
D01*
X75838Y19291D01*
X75703Y19616D01*
X75676Y19628D01*
Y19628D01*
X75378Y19751D01*
X75053Y19616D01*
X74918Y19291D01*
X74964Y19181D01*
X74600Y18817D01*
X72419D01*
X72260Y19201D01*
X72357Y19434D01*
X72357Y19434D01*
X72379Y19488D01*
X72260Y19776D01*
X72206Y19798D01*
Y19798D01*
X71972Y19895D01*
X71685Y19776D01*
X71566Y19488D01*
X71685Y19201D01*
X71526Y18817D01*
X69476D01*
X69324Y18754D01*
X69061Y18491D01*
X69008Y18513D01*
X68740Y18402D01*
X68629Y18134D01*
X68629Y18134D01*
X68629D01*
X68542Y18141D01*
X68334Y18475D01*
X68346Y18504D01*
X68220Y18810D01*
Y18810D01*
X68166Y19152D01*
X68220Y19198D01*
X68220D01*
X68220Y19198D01*
X68256Y19286D01*
X68650Y19286D01*
X68663Y19255D01*
X68663D01*
X68685Y19201D01*
X68972Y19082D01*
X69026Y19104D01*
X69026Y19104D01*
X69260Y19201D01*
X69379Y19488D01*
X69260Y19776D01*
X69026Y19872D01*
X69026Y19872D01*
X68972Y19895D01*
X68685Y19776D01*
X68663Y19722D01*
X68663D01*
X68656Y19706D01*
X68263Y19706D01*
X68236Y19769D01*
X68236D01*
X68220Y19810D01*
X67963Y19916D01*
Y19504D01*
X67863D01*
Y19916D01*
X67607Y19810D01*
X67583Y19750D01*
X67201Y19655D01*
X66461Y20260D01*
D01*
X66461Y20260D01*
Y20260D01*
X66309Y20323D01*
X61827D01*
X61655Y20394D01*
Y20394D01*
X61655Y20394D01*
X61544Y20662D01*
X61276Y20773D01*
X61008Y20662D01*
X60856Y20862D01*
Y20862D01*
X60588Y20973D01*
X60535Y20951D01*
X60196Y21290D01*
X60347Y21654D01*
X81496D01*
Y17345D01*
D02*
G37*
G36*
X18259Y11888D02*
X18624D01*
Y12046D01*
X22567D01*
X23548Y11064D01*
X23456Y10841D01*
X23362Y10701D01*
X23291D01*
X23139Y10638D01*
X21831Y9329D01*
X21122D01*
X20357Y9646D01*
X20223Y9971D01*
X20223Y9971D01*
X20195Y9982D01*
Y9982D01*
X20195Y9982D01*
X19898Y10105D01*
X19600Y9982D01*
X19600Y9982D01*
Y9982D01*
X19573Y9971D01*
X19573Y9971D01*
X19438Y9646D01*
X18898Y9422D01*
X18357Y9646D01*
X18223Y9971D01*
X18223Y9971D01*
X18195Y9982D01*
Y9982D01*
X18195Y9982D01*
X17948Y10085D01*
Y9646D01*
X17848D01*
Y10085D01*
X17600Y9982D01*
X17600Y9982D01*
Y9982D01*
X17573Y9971D01*
X17501Y9798D01*
X17115Y9721D01*
X15320Y11516D01*
X15168Y11579D01*
X13919D01*
X13767Y11516D01*
X13646Y11396D01*
X13547Y11437D01*
X13470Y11823D01*
X13690Y12043D01*
X16867D01*
X16891Y11986D01*
X17209Y11854D01*
X17526Y11986D01*
X17526D01*
Y11986D01*
Y11986D01*
X17526Y11986D01*
Y11986D01*
X17777Y12283D01*
X17794Y12266D01*
Y11888D01*
X18159D01*
Y12303D01*
X18259D01*
Y11888D01*
D02*
G37*
G36*
X7183Y12573D02*
X7275Y12351D01*
X6764Y11841D01*
X6728Y11844D01*
X6693Y11859D01*
X6671Y11850D01*
X6373Y11879D01*
X6234Y12087D01*
X6797Y12650D01*
X7183Y12573D01*
D02*
G37*
G36*
X7287Y20666D02*
Y20666D01*
D01*
X6881Y19685D01*
X7228Y18847D01*
X7169Y18757D01*
X6777Y18719D01*
X5492Y20004D01*
X5340Y20067D01*
X4040D01*
X3889Y20431D01*
X4488Y21030D01*
X7215D01*
X7287Y20666D01*
D02*
G37*
G36*
X64389Y14397D02*
X64277Y14127D01*
X63891Y14050D01*
X63469Y14473D01*
X63386Y14507D01*
X63271Y14884D01*
X63351Y15004D01*
X63743Y15042D01*
X64389Y14397D01*
D02*
G37*
G36*
X36515Y19962D02*
X36781Y19696D01*
D01*
Y19246D01*
X37181D01*
Y19146D01*
X36781D01*
Y18842D01*
X36404Y18727D01*
X36311Y18867D01*
X36317Y18881D01*
X36002Y19641D01*
X36223Y19966D01*
X36515Y19962D01*
D02*
G37*
G36*
X64938Y15100D02*
X65142D01*
X65296Y14813D01*
X65179Y14594D01*
X64833Y14560D01*
X64508Y14885D01*
X64786Y15163D01*
X64938Y15100D01*
D02*
G37*
G36*
X76568Y15317D02*
X76694Y15014D01*
X76694Y15014D01*
X76695Y15014D01*
Y14810D01*
X76417Y14532D01*
X75620D01*
X75401Y14859D01*
X75487Y15064D01*
X75400Y15272D01*
X75619Y15600D01*
X75886D01*
X76568Y15317D01*
D02*
G37*
G36*
X50145Y14336D02*
X47581Y11772D01*
X47493Y11809D01*
X47242Y11705D01*
X47212Y11724D01*
X47150Y11876D01*
X46430Y12596D01*
X46278Y12659D01*
X37837D01*
X36460Y14036D01*
X36308Y14099D01*
X33801D01*
X33688Y14372D01*
X33906Y14700D01*
X36698D01*
X36809Y14534D01*
X36809Y14534D01*
X36809D01*
X36920Y14267D01*
Y14267D01*
Y14267D01*
Y14267D01*
X36920Y14267D01*
X36920D01*
D01*
D01*
Y14267D01*
X37019Y14225D01*
X37188Y14156D01*
X37241Y14178D01*
X37476Y13943D01*
X37628Y13880D01*
X42708D01*
X42730Y13827D01*
X42998Y13716D01*
X43198Y13798D01*
D01*
X43266Y13827D01*
X43377Y14094D01*
X43348Y14162D01*
Y14162D01*
X43266Y14362D01*
X43405Y14700D01*
X49994D01*
X50145Y14336D01*
D02*
G37*
G36*
X62295Y13828D02*
X62141Y13539D01*
X61694D01*
X61475Y13867D01*
X61574Y14106D01*
X62147D01*
X62295Y13828D01*
D02*
G37*
G36*
X66788Y13276D02*
Y13245D01*
X66788D01*
Y12719D01*
X66711Y12642D01*
X66319Y12681D01*
X66227Y12818D01*
X66227Y12818D01*
X66227D01*
X66102Y13121D01*
D01*
X66114Y13150D01*
X66170Y13173D01*
X66424Y13427D01*
X66788Y13276D01*
D02*
G37*
G36*
X23255Y14196D02*
X22132Y13073D01*
X21741Y13111D01*
X21609Y13308D01*
X21627Y13350D01*
X21508Y13638D01*
X21220Y13757D01*
X21148Y13727D01*
X20679Y14196D01*
X20829Y14560D01*
X23105D01*
X23255Y14196D01*
D02*
G37*
%LPC*%
G36*
X5114Y1978D02*
X4778D01*
Y1642D01*
X5016Y1740D01*
X5114Y1978D01*
D02*
G37*
G36*
X4678Y2413D02*
X4441Y2315D01*
X4343Y2078D01*
X4678D01*
Y2413D01*
D02*
G37*
G36*
X4778D02*
Y2078D01*
X5114D01*
X5016Y2315D01*
X4778Y2413D01*
D02*
G37*
G36*
X67948Y2506D02*
Y2117D01*
X68337D01*
X68223Y2392D01*
D01*
D01*
X67948Y2506D01*
D02*
G37*
G36*
X77328Y19730D02*
X77053Y19616D01*
X76939Y19341D01*
X77328D01*
Y19730D01*
D02*
G37*
G36*
Y19241D02*
X76939D01*
X77042Y18994D01*
X77042D01*
X77053Y18966D01*
X77328Y18852D01*
Y19241D01*
D02*
G37*
G36*
X79134Y21072D02*
X78153Y20666D01*
X77747Y19685D01*
X77747Y19685D01*
X77747D01*
X77642Y19642D01*
X77428Y19730D01*
Y19291D01*
Y18852D01*
X77703Y18966D01*
X77703D01*
X77703D01*
X78116Y18795D01*
X78153Y18705D01*
X79134Y18298D01*
X80114Y18705D01*
X80521Y19685D01*
X80114Y20666D01*
X79134Y21072D01*
D02*
G37*
G36*
X4678Y1978D02*
X4343D01*
X4441Y1740D01*
X4678Y1642D01*
Y1978D01*
D02*
G37*
G36*
X68337Y2017D02*
X67948D01*
Y1628D01*
X68223Y1742D01*
X68234Y1769D01*
X68234Y1769D01*
X68337Y2017D01*
D02*
G37*
G36*
X67848Y2506D02*
X67573Y2392D01*
D01*
D01*
D01*
X67561Y2365D01*
D01*
D01*
X67561D01*
X67561Y2365D01*
X67561D01*
D01*
D01*
X67561D01*
D01*
D01*
X67544Y2324D01*
X65739D01*
X65720Y2369D01*
X65467Y2474D01*
Y2067D01*
Y1660D01*
X65720Y1764D01*
X65739Y1810D01*
X67544D01*
X67561Y1769D01*
D01*
X67561D01*
X67561D01*
X67561Y1769D01*
X67561D01*
D01*
Y1769D01*
D01*
X67573Y1742D01*
D01*
D01*
D01*
X67848Y1628D01*
Y2067D01*
Y2506D01*
D02*
G37*
G36*
X21220Y10757D02*
X20933Y10638D01*
X20814Y10350D01*
X20933Y10063D01*
X21220Y9944D01*
X21508Y10063D01*
X21627Y10350D01*
X21508Y10638D01*
X21220Y10757D01*
D02*
G37*
G36*
X12548Y13966D02*
X11996D01*
X12094Y13728D01*
X12382Y13609D01*
X12548D01*
Y13966D01*
D02*
G37*
G36*
X50208Y9100D02*
Y8711D01*
X50597D01*
X50495Y8959D01*
D01*
X50495D01*
X50495D01*
X50495Y8959D01*
X50495D01*
X50483Y8987D01*
D01*
D01*
D01*
X50208Y9100D01*
D02*
G37*
G36*
X1935Y10906D02*
X1258D01*
X1457Y10428D01*
X1935Y10230D01*
Y10906D01*
D02*
G37*
G36*
X71491Y11856D02*
Y11467D01*
X71880D01*
X71777Y11715D01*
X71777Y11715D01*
X71766Y11742D01*
X71491Y11856D01*
D02*
G37*
G36*
X59034Y12290D02*
X58782Y12185D01*
X58677Y11932D01*
X59034D01*
Y12290D01*
D02*
G37*
G36*
X35332Y11274D02*
X34943D01*
Y10885D01*
X35218Y10999D01*
X35332Y11274D01*
D02*
G37*
G36*
X79583Y8946D02*
Y8946D01*
X79583Y8946D01*
X79583Y8946D01*
D02*
G37*
G36*
X69143Y5379D02*
X68754D01*
X68856Y5131D01*
D01*
X68856D01*
X68856D01*
X68856Y5131D01*
X68856D01*
D01*
Y5131D01*
D01*
X68868Y5104D01*
D01*
D01*
D01*
X69143Y4990D01*
Y5379D01*
D02*
G37*
G36*
X15431Y4749D02*
X15074D01*
Y4392D01*
X15283Y4479D01*
X15283D01*
X15326Y4497D01*
X15431Y4749D01*
D02*
G37*
G36*
X79688Y4594D02*
X79331D01*
Y4237D01*
X79583Y4341D01*
X79688Y4594D01*
D02*
G37*
G36*
X15826Y16293D02*
X15437D01*
Y15904D01*
X15712Y16018D01*
D01*
X15712D01*
D01*
X15714Y16025D01*
X15826Y16293D01*
D02*
G37*
G36*
X15826Y14320D02*
X15437D01*
Y13931D01*
X15712Y14045D01*
Y14045D01*
X15826Y14320D01*
D02*
G37*
G36*
X50597Y8611D02*
X50208D01*
Y8222D01*
X50483Y8336D01*
X50495Y8364D01*
X50495D01*
X50597Y8611D01*
D02*
G37*
G36*
X15337Y16293D02*
X14948D01*
X15059Y16025D01*
X15061Y16018D01*
D01*
X15061D01*
D01*
X15337Y15904D01*
Y16293D01*
D02*
G37*
%LPD*%
D10*
X6693Y11014D02*
X7659Y11980D01*
X9218D01*
D11*
X52045Y6693D02*
X53937D01*
X55937D02*
X57807D01*
X47276Y8661D02*
X49158D01*
X43392D02*
X45276D01*
X22114Y3095D02*
X22956D01*
X23798D01*
X21273D02*
X22114D01*
X23798D02*
X24640D01*
X17063D02*
X17905D01*
X69898Y2067D02*
X73518D01*
X73541Y2043D01*
X77165D01*
X37322Y4660D02*
X38322D01*
X39322D01*
X41990Y11884D02*
X42493Y11381D01*
X28385Y11884D02*
X41990D01*
X28278Y11992D02*
X28385Y11884D01*
X23984Y11992D02*
X28278D01*
X62800Y12818D02*
X63293Y12324D01*
X4150Y14106D02*
X5488Y15443D01*
Y17224D01*
X6228Y17964D01*
X6838D01*
X7298Y17504D01*
X17028D01*
X19758Y14774D01*
X31294D01*
X32874Y16354D01*
X57838Y3858D02*
X61689D01*
X57712Y3984D02*
X57838Y3858D01*
X54219Y4643D02*
X54720Y5144D01*
X36278Y18324D02*
X38181D01*
X35651Y17698D02*
X36278Y18324D01*
X34624Y17698D02*
X35651D01*
X33968Y18354D02*
X34624Y17698D01*
X32874Y18354D02*
X33968D01*
X41930Y17944D02*
X42493Y17381D01*
X37344Y17944D02*
X41930D01*
X36800Y17401D02*
X37344Y17944D01*
X33664Y17401D02*
X36800D01*
X33211Y17854D02*
X33664Y17401D01*
X30374Y17854D02*
X33211D01*
X29874Y18354D02*
X30374Y17854D01*
X6780Y6556D02*
X8024Y7799D01*
X3518Y6556D02*
X6780D01*
X6280Y7056D02*
X7024Y7799D01*
X4518Y7056D02*
X6280D01*
X4518Y5056D02*
X6359D01*
X6596Y5293D01*
X8517D01*
X11024Y7799D01*
X7814Y5590D02*
X10024Y7799D01*
X6233Y5590D02*
X7814D01*
X6199Y5556D02*
X6233Y5590D01*
X3518Y5556D02*
X6199D01*
X43493Y17381D02*
X44284Y18172D01*
X46295D01*
X47181Y19057D01*
Y19196D01*
X31878Y4107D02*
X32481Y3504D01*
X44108D01*
X44128Y3524D01*
X45198D01*
X45208Y3514D01*
X56090D01*
X57218Y4643D01*
X9928Y19724D02*
X20108D01*
X22978Y16854D01*
X30618D01*
X31118Y17354D01*
X32874D01*
X3518Y7556D02*
X4966Y9004D01*
X12078D01*
X13068Y9994D01*
Y11724D01*
X13601Y12258D01*
X16992D01*
Y12303D02*
X17209D01*
X48493Y17381D02*
X49507Y18394D01*
X51181D01*
Y19196D01*
X60001Y21182D02*
X60588Y20594D01*
X32727Y21182D02*
X60001D01*
X32664Y21244D02*
X32727Y21182D01*
X4399Y21244D02*
X32664D01*
X1985Y18830D02*
X4399Y21244D01*
X47493Y11381D02*
X50721Y14609D01*
X63777Y15312D02*
X64772Y14317D01*
X66444D01*
X66567Y14194D01*
X72179D01*
X72302Y14317D01*
X76996D01*
X53683Y4107D02*
X54219Y4643D01*
X45686Y4107D02*
X53683D01*
X23798Y6095D02*
X25177Y4716D01*
X31269D01*
X31878Y4107D01*
X52707Y5154D02*
X53218Y4643D01*
X26988Y5154D02*
X52707D01*
X26978Y5164D02*
X26988Y5154D01*
X76499Y13814D02*
X76996Y13317D01*
X66508Y13814D02*
X76499D01*
X66018Y13324D02*
X66508Y13814D01*
X55493Y17381D02*
X56067Y17954D01*
X63142D01*
X63418Y17678D01*
X65662D01*
X65988Y18004D01*
X68165D01*
X50468Y2984D02*
X56356D01*
X56785Y3413D01*
X58712D01*
X58866Y3258D01*
X62226D01*
X63417Y2067D01*
X1728Y2028D02*
X3105Y3404D01*
X34098Y1524D02*
X34888Y2314D01*
X42772D01*
X43049Y2037D01*
X45591D01*
X45793Y2239D01*
X55622D01*
X56219Y1643D01*
X53178Y8234D02*
X60268D01*
X30878Y5614D02*
X31018Y5474D01*
X53338D01*
X53718Y5094D01*
X60268Y8234D02*
X60588Y8554D01*
Y11379D01*
X60084Y11882D02*
X60588Y11379D01*
X43068Y2614D02*
X43348Y2334D01*
X44998D01*
X45199Y2536D01*
X50918D01*
X51066Y2684D01*
X56928D01*
X57208Y2964D01*
X58418D01*
X59335Y10887D02*
X59900Y10323D01*
X55987Y10887D02*
X59335D01*
X55493Y11381D02*
X55987Y10887D01*
X67858Y9214D02*
X69318D01*
X61828Y9724D02*
Y12134D01*
X49493Y11194D02*
Y11381D01*
X23918Y13884D02*
X24124Y13678D01*
X32829D01*
X33035Y13884D01*
X36308D01*
X37748Y12444D01*
X46278D01*
X46998Y11724D01*
Y10884D02*
Y11724D01*
Y10884D02*
X47066Y10816D01*
X49477D01*
X49703Y10590D01*
X58343D01*
X60084Y8849D01*
X15035Y3224D02*
X17905Y6095D01*
X14248Y3224D02*
X15035D01*
X13998Y2974D02*
X14248Y3224D01*
X13998Y2224D02*
Y2974D01*
Y2224D02*
X14098Y2124D01*
X17608D01*
X17808Y2324D01*
X24640Y6095D02*
X25120Y5614D01*
X30878D01*
X30328Y7157D02*
X30831Y6654D01*
X50518Y6170D02*
X54323D01*
X55358Y7204D01*
X57238D01*
X57284Y7158D01*
X22114Y6095D02*
X23674Y7654D01*
X31381D01*
X31878Y7157D01*
X58218Y4643D02*
Y5634D01*
X57980Y5873D02*
X58218Y5634D01*
X72478Y15064D02*
X75108D01*
X71904Y14491D02*
X72478Y15064D01*
X64434Y15818D02*
X64938Y15314D01*
X62800Y15818D02*
X64434D01*
X5488Y10724D02*
Y11644D01*
X6773Y12930D01*
X16320D01*
X16582Y13192D01*
X18580D01*
X23698Y14334D02*
X31061D01*
X31421Y13975D01*
X32318D01*
X32677Y14334D01*
X33218D01*
X70568Y9214D02*
X70828Y8954D01*
X77970D01*
X79281Y7644D01*
X6888Y18304D02*
X9738D01*
X10208Y17834D01*
X31378Y15854D02*
X32378Y16854D01*
X38388D01*
X39246Y15996D01*
X47884D01*
X48180Y16293D01*
X62275D01*
X62800Y16818D01*
X77498Y14315D02*
X77996Y13817D01*
X71501Y14788D02*
X72528Y15814D01*
X57472Y17381D02*
X66081D01*
X56681Y16590D02*
X57472Y17381D01*
X47884Y16590D02*
X56681D01*
X47587Y16293D02*
X47884Y16590D01*
X41581Y16293D02*
X47587D01*
X40493Y17381D02*
X41581Y16293D01*
X50181Y19196D02*
Y19684D01*
X49408Y19994D02*
X49718Y19684D01*
X47950Y19994D02*
X49408D01*
X47681Y19724D02*
X47950Y19994D01*
X47681Y18397D02*
Y19724D01*
X46940Y18397D02*
X47681D01*
X46493Y17950D02*
X46940Y18397D01*
X46493Y17381D02*
Y17950D01*
X45493Y17381D02*
X45987Y16887D01*
X46987D01*
Y17800D01*
X47287Y18100D01*
X48484D01*
X49181Y18797D01*
Y19196D01*
X47048Y10114D02*
X50018D01*
X42998Y11604D02*
X43268Y11874D01*
X42998Y10884D02*
Y11604D01*
X41748Y9634D02*
X42998Y10884D01*
X25758Y9634D02*
X41748D01*
X17418Y9114D02*
X21920D01*
X15168Y11364D02*
X17418Y9114D01*
X13919Y11364D02*
X15168D01*
X13529Y10974D02*
X13919Y11364D01*
X13529Y7304D02*
Y10974D01*
X11024Y4799D02*
X13529Y7304D01*
X20801Y1828D02*
X21578Y2604D01*
X11108Y3714D02*
X13168D01*
X10024Y4799D02*
X11108Y3714D01*
X38519Y1084D02*
X48628D01*
X10048Y984D02*
X35118D01*
X1248Y2354D02*
X2788Y3894D01*
X3608D01*
X4268Y4554D01*
X5078D01*
X5328Y4304D01*
X8529D01*
X9024Y4799D01*
X76272Y5937D02*
X77165Y5043D01*
X71260Y5937D02*
X76272D01*
X32466Y20944D02*
X32526Y20885D01*
X28268Y20494D02*
X28361Y20588D01*
X61203Y852D02*
X62417Y2067D01*
X51009Y852D02*
X61203D01*
X50219Y1643D02*
X51009Y852D01*
X60500Y1149D02*
X61417Y2067D01*
X53712Y1149D02*
X60500D01*
X53218Y1643D02*
X53712Y1149D01*
X60577Y15924D02*
X61084Y15417D01*
X48399Y15924D02*
X60577D01*
X48168Y15694D02*
X48399Y15924D01*
X52181Y18314D02*
Y19196D01*
X51741Y17874D02*
X52181Y18314D01*
X49998Y17874D02*
X51741D01*
X37188Y14534D02*
X37628Y14094D01*
X42998D01*
X7280Y6056D02*
X9024Y7799D01*
X4518Y6056D02*
X7280D01*
X52450Y15397D02*
X52508Y15454D01*
X33710Y15397D02*
X52450D01*
X33078Y14764D02*
X33710Y15397D01*
X32208Y14764D02*
X33078D01*
X31868Y14424D02*
X32208Y14764D01*
X31102Y12417D02*
X32009Y13324D01*
X34893D01*
X38181Y18324D02*
Y19196D01*
Y18324D02*
X42558D01*
X42998Y17884D01*
Y17157D02*
Y17884D01*
Y17157D02*
X43565Y16590D01*
X47284D01*
X47581Y16887D01*
X48000D01*
X48493Y17381D01*
X19589Y3095D02*
X20109Y2574D01*
X20752D01*
X21273Y3095D01*
X16607Y2638D02*
X17063Y3095D01*
X14606Y2638D02*
X16607D01*
X19069Y3614D02*
X19589Y3095D01*
X18425Y3614D02*
X19069D01*
X17905Y3095D02*
X18425Y3614D01*
X16822Y14934D02*
X17387Y14370D01*
X14108Y14934D02*
X16822D01*
X13858Y14685D02*
X14108Y14934D01*
X12598Y14685D02*
X13858D01*
X65800Y9818D02*
Y10114D01*
X61689Y3858D02*
X63205Y5374D01*
X66481D01*
X68203Y7096D01*
X45050Y4744D02*
X45686Y4107D01*
X41468Y4660D02*
X45050Y4744D01*
X39322Y4660D02*
X41468Y4660D01*
X69193Y3429D02*
X69701Y3937D01*
X71260D01*
X64689Y3858D02*
X65118Y3429D01*
X69193D01*
X21669Y7677D02*
X23984Y9992D01*
X19898Y7677D02*
X21669D01*
X51478Y8234D02*
X53178D01*
X49718Y19684D02*
X50181D01*
X16992Y12258D02*
Y12303D01*
X10208Y17834D02*
X17402D01*
X19382Y15854D01*
X31378D01*
X28031Y20944D02*
X32466D01*
X28361Y20588D02*
X58940D01*
X32526Y20885D02*
X59233D01*
X58940Y20588D02*
X59843Y19685D01*
X61275D01*
X59233Y20885D02*
X60039Y20079D01*
X60960D01*
X61276Y20394D01*
X69008Y18134D02*
X69476Y18602D01*
X74689D01*
X75378Y19291D01*
X64938Y15314D02*
X66142D01*
X66722Y14734D01*
X66820Y15100D02*
X67292D01*
X67604Y14788D01*
X71501D01*
X66496Y15423D02*
X66820Y15100D01*
X66496Y15423D02*
Y16966D01*
X66081Y17381D02*
X66496Y16966D01*
X62306Y14897D02*
Y15170D01*
X62448Y15312D01*
X63777D01*
X62003Y15021D02*
Y15399D01*
X62422Y15818D01*
X62800D01*
X63820Y13818D02*
X65800D01*
X66722Y14734D02*
X67116D01*
X67360Y14491D01*
X71904D01*
X72528Y15814D02*
X77362D01*
X77498Y14315D02*
Y15679D01*
X77362Y15814D02*
X77498Y15679D01*
X73941Y12402D02*
X74236Y12697D01*
X77876D01*
X77996Y12817D01*
X68165Y18004D02*
X68650Y17520D01*
X69298D01*
X69809Y18032D01*
X77996Y14817D02*
X78652Y15472D01*
X69809Y18032D02*
X77628D01*
X78652Y17008D01*
Y15472D02*
Y17008D01*
X65800Y10114D02*
X66542Y10856D01*
X72880D01*
X73441Y11417D01*
X66585Y9621D02*
Y10315D01*
X66791Y10522D01*
X41868Y8300D02*
X42244Y7923D01*
X46537D01*
X47276Y8661D01*
X22342Y7164D02*
X24036Y8858D01*
X40568D01*
X24640Y3095D02*
X25226Y3681D01*
X26579D01*
X27165Y3095D01*
X75502Y925D02*
Y1457D01*
X75121Y544D02*
X75502Y925D01*
X40498Y544D02*
X75121D01*
X51812Y10887D02*
X51988Y11063D01*
Y11724D01*
X49493Y11194D02*
X49583D01*
X49891Y10887D01*
X51812D01*
X33218Y14334D02*
X33798Y14914D01*
X36934D01*
X37002Y14983D01*
X37373D01*
X37442Y14914D01*
X35118Y984D02*
X35522Y581D01*
X38015D01*
X38519Y1084D01*
X30448Y2154D02*
X33670D01*
X34130Y2614D01*
X43068D01*
X21578Y2604D02*
X33224D01*
X33544Y2924D01*
X43518D01*
X26038Y18064D02*
X27545Y19571D01*
X28441D01*
X29161Y20291D01*
X27573Y20020D02*
Y20486D01*
X28031Y20944D01*
X29161Y20291D02*
X53272D01*
X54493Y19070D01*
Y17381D02*
Y19070D01*
X1985Y17256D02*
Y17408D01*
X3179Y18602D01*
Y19114D01*
X3917Y19852D01*
X5340D01*
X6888Y18304D01*
X18580Y13192D02*
X19006Y12766D01*
X22129D01*
X23698Y14334D01*
X30831Y6654D02*
X32255D01*
X33996Y8396D01*
X36171D01*
X33819Y7169D02*
Y7283D01*
X38074Y5873D02*
X57980D01*
X35915Y8031D02*
X38074Y5873D01*
X33732Y7256D02*
X33819Y7169D01*
X33732Y7256D02*
X34508Y8031D01*
X35915D01*
X68048Y8564D02*
X68226Y8386D01*
X76361Y9311D02*
X78613D01*
X79281Y8644D01*
X66791Y10522D02*
X67835D01*
X68203Y10154D01*
Y9963D02*
Y10154D01*
X13881Y1828D02*
X20801D01*
X13514Y2195D02*
X13881Y1828D01*
X13514Y2195D02*
Y3368D01*
X13168Y3714D02*
X13514Y3368D01*
X22956Y6095D02*
X23919Y7057D01*
X30228D01*
X30328Y7157D01*
X24906Y10486D02*
X25758Y9634D01*
X45998Y11164D02*
Y11788D01*
X45911Y11874D02*
X45998Y11788D01*
X43268Y11874D02*
X45911D01*
X68226Y8386D02*
X76539D01*
X79281Y5644D01*
X61538Y13324D02*
X66018D01*
X54720Y5144D02*
X57543D01*
X57712Y4975D01*
Y3984D02*
Y4975D01*
X23291Y10486D02*
X24906D01*
X21920Y9114D02*
X23291Y10486D01*
X1248Y1016D02*
Y2354D01*
Y1016D02*
X1742Y522D01*
X9585D01*
X10048Y984D01*
X61828Y9724D02*
X63156Y8396D01*
X67039D01*
X67858Y9214D01*
X62800Y9818D02*
X63779Y8839D01*
X66732D01*
X67203Y9309D01*
Y9963D01*
X62800Y11561D02*
Y11818D01*
Y11561D02*
X65128Y9232D01*
X66196D01*
X66585Y9621D01*
X61275Y19685D02*
X61698Y20108D01*
X66309D01*
X67913Y18504D01*
X48493Y11381D02*
X51433Y14321D01*
X63317D01*
X63820Y13818D01*
X50721Y14609D02*
X51301D01*
X51311Y14618D01*
X62027D01*
X62306Y14897D01*
X37442Y14914D02*
X51187D01*
X51188Y14915D01*
X61896D01*
X62003Y15021D01*
X50493Y11381D02*
X53020Y13907D01*
X60955D01*
X61538Y13324D01*
X51988Y11724D02*
X53748Y13484D01*
X60478D01*
X61828Y12134D01*
X59951Y13081D02*
X60328Y12704D01*
X54493Y11381D02*
Y11885D01*
X55689Y13081D01*
X59951D01*
X69834Y13051D02*
X72621D01*
X76361Y9311D01*
X63293Y12324D02*
X66697D01*
X67203Y12830D01*
X65800Y11818D02*
X65871Y11890D01*
X68673D01*
X69834Y13051D01*
X41868Y8877D02*
X44371Y11381D01*
X41868Y8300D02*
Y8877D01*
X44371Y11381D02*
X44493D01*
X40568Y8858D02*
X42093Y7333D01*
X50576D01*
X51478Y8234D01*
X36171Y8396D02*
X37736Y6831D01*
X49857D01*
X50518Y6170D01*
X1985Y15681D02*
X3081Y14585D01*
X4763Y10000D02*
X5488Y10724D01*
X3081Y10217D02*
Y14585D01*
Y10217D02*
X3297Y10000D01*
X4763D01*
X33855Y16342D02*
X34503Y15694D01*
X48168D01*
X3105Y3404D02*
X10405D01*
X12285Y1524D01*
X34098D01*
X45998Y11164D02*
X47048Y10114D01*
X17387Y14370D02*
X17633Y14124D01*
X20447D01*
X21220Y13350D01*
D12*
X30328Y6157D02*
X31878D01*
X65417Y2067D02*
X67898D01*
X15032Y14016D02*
X15387Y14370D01*
X12598Y14016D02*
X15032D01*
X67203Y15696D02*
X67829Y16323D01*
X71260D01*
X76996Y16317D02*
X77496D01*
X77996Y15817D01*
X43701Y4124D02*
X43718Y4107D01*
X36788Y4124D02*
X43701D01*
X36788D02*
Y4660D01*
X36322D02*
X36788D01*
X17656Y12856D02*
X18209Y12303D01*
X16920Y12856D02*
X17656D01*
X16658Y12594D02*
X16920Y12856D01*
X13138Y12594D02*
X16658D01*
X12205Y11661D02*
X13138Y12594D01*
X12205Y10827D02*
Y11661D01*
X58807Y6693D02*
X62106D01*
X7958Y10994D02*
X11088D01*
X11255Y10827D01*
X12205D01*
X22673Y12303D02*
X23984Y10992D01*
X18209Y12303D02*
X22673D01*
X30528Y10992D02*
X31102Y10417D01*
X23984Y10992D02*
X30528D01*
X30328Y4107D02*
X31328Y3107D01*
X31878D01*
X71260Y16323D02*
X75810Y16317D01*
X76996D01*
X69193Y5429D02*
X69685Y4937D01*
X71260D01*
X78297Y4644D02*
X79281D01*
X45341Y11228D02*
X45493Y11381D01*
X57826Y7674D02*
X58807Y6693D01*
X52027Y7674D02*
X57826D01*
X51045Y6693D02*
X52027Y7674D01*
X43899Y9786D02*
X45341Y11228D01*
X35566Y1314D02*
Y1666D01*
X35488Y1744D02*
X35566Y1666D01*
Y1314D02*
X35906Y974D01*
X37815D01*
X38322Y1481D01*
Y1626D01*
X15024Y4799D02*
Y5329D01*
X16759Y7064D01*
X17898Y7307D02*
Y7677D01*
X17655Y7064D02*
X17898Y7307D01*
X16759Y7064D02*
X17655D01*
X71260Y4937D02*
X72201Y3996D01*
X77649D01*
X78297Y4644D01*
X31102Y10417D02*
X31659Y10974D01*
X34543D01*
X34893Y11324D01*
X62106Y6693D02*
X63337Y7923D01*
X69193Y5429D02*
Y7215D01*
X63337Y7923D02*
X68484D01*
X69193Y7215D01*
X65800Y10818D02*
X66399Y11417D01*
X71441D01*
X45341Y11228D02*
X46805Y9764D01*
X49056D01*
X50158Y8661D01*
X43516Y9786D02*
X43899D01*
X42392Y8661D02*
X43516Y9786D01*
X6491Y9528D02*
X7958Y10994D01*
X1985Y10620D02*
X3078Y9528D01*
X1985Y10620D02*
Y10956D01*
X3078Y9528D02*
X6491D01*
D14*
X11048Y16693D02*
X12598D01*
X10756Y16984D02*
X11048Y16693D01*
X6693Y16929D02*
Y16984D01*
X20431Y5699D02*
Y6095D01*
X20206Y5474D02*
X20431Y5699D01*
X18997Y5474D02*
X20206D01*
X18747Y5724D02*
X18997Y5474D01*
X18747Y5724D02*
Y6095D01*
X12598Y16693D02*
X13808D01*
X14205Y10827D02*
X16367Y8664D01*
X18268D01*
X18747Y8185D01*
Y6095D02*
Y8185D01*
X6693Y16984D02*
X10756D01*
X13808Y16693D02*
X14159Y17044D01*
X16686D01*
X17387Y16343D01*
D15*
X10827Y19075D02*
X15337D01*
X16105Y18307D01*
X18835D01*
X19425Y17717D01*
X32874Y18354D02*
Y19094D01*
X27425Y17717D02*
X29394Y19685D01*
X32283D01*
X32874Y19094D01*
D16*
X1728Y2028D02*
D03*
X4728D02*
D03*
X27165Y6095D02*
D03*
Y3095D02*
D03*
X64689Y3858D02*
D03*
X61689D02*
D03*
X70941Y12402D02*
D03*
X73941D02*
D03*
X17063Y6095D02*
D03*
Y3095D02*
D03*
X17905Y6095D02*
D03*
Y3095D02*
D03*
X18747Y6095D02*
D03*
Y3095D02*
D03*
X19589Y6095D02*
D03*
Y3095D02*
D03*
X20431Y6095D02*
D03*
Y3095D02*
D03*
X21273Y6095D02*
D03*
Y3095D02*
D03*
X22114Y6095D02*
D03*
Y3095D02*
D03*
X22956Y6095D02*
D03*
Y3095D02*
D03*
X23798D02*
D03*
Y6095D02*
D03*
X24640Y3095D02*
D03*
Y6095D02*
D03*
X26324Y3095D02*
D03*
Y6095D02*
D03*
X25482Y3095D02*
D03*
Y6095D02*
D03*
X21220Y10350D02*
D03*
Y13350D02*
D03*
X71972Y19488D02*
D03*
X68972D02*
D03*
X77165Y5043D02*
D03*
Y2043D02*
D03*
D17*
X79134Y19685D02*
D03*
Y1969D02*
D03*
X8268D02*
D03*
Y19685D02*
D03*
D18*
X17898Y9646D02*
D03*
X19898D02*
D03*
X71441Y11417D02*
D03*
X73441D02*
D03*
X19898Y7677D02*
D03*
X17898D02*
D03*
X75378Y19291D02*
D03*
X77378D02*
D03*
X67898Y2067D02*
D03*
X69898D02*
D03*
X69193Y3429D02*
D03*
Y5429D02*
D03*
X31102Y12417D02*
D03*
Y10417D02*
D03*
X15387Y14370D02*
D03*
X17387D02*
D03*
Y16343D02*
D03*
X15387D02*
D03*
X43392Y8661D02*
D03*
X42392D02*
D03*
X50158D02*
D03*
X49158D02*
D03*
X34893Y13324D02*
D03*
Y11324D02*
D03*
X58807Y6693D02*
D03*
X57807D02*
D03*
X52045D02*
D03*
X51045D02*
D03*
D19*
X23984Y9992D02*
D03*
Y10992D02*
D03*
X71260Y15323D02*
D03*
Y16323D02*
D03*
Y3937D02*
D03*
Y4937D02*
D03*
X32874Y15354D02*
D03*
Y16354D02*
D03*
Y17354D02*
D03*
Y18354D02*
D03*
X29874Y15354D02*
D03*
Y16354D02*
D03*
Y17354D02*
D03*
X62417Y2067D02*
D03*
X63417D02*
D03*
X64417D02*
D03*
X65417D02*
D03*
X30328Y3107D02*
D03*
X31878Y4107D02*
D03*
X30328Y6157D02*
D03*
X31878D02*
D03*
X79281Y4644D02*
D03*
Y5644D02*
D03*
Y6644D02*
D03*
Y7644D02*
D03*
Y8644D02*
D03*
X55493Y11381D02*
D03*
X54493D02*
D03*
X53493D02*
D03*
X52493D02*
D03*
X51493D02*
D03*
X50493D02*
D03*
X49493D02*
D03*
X48493D02*
D03*
X47493D02*
D03*
X46493D02*
D03*
X45493D02*
D03*
X44493D02*
D03*
X43493D02*
D03*
X42493D02*
D03*
X41493D02*
D03*
X40493D02*
D03*
X39493D02*
D03*
X38493D02*
D03*
X37493D02*
D03*
X56493Y17381D02*
D03*
X55493D02*
D03*
X54493D02*
D03*
X53493D02*
D03*
X52493D02*
D03*
X51493D02*
D03*
X50493D02*
D03*
X49493D02*
D03*
X48493D02*
D03*
X47493D02*
D03*
X46493D02*
D03*
X45493D02*
D03*
X44493D02*
D03*
X43493D02*
D03*
X42493D02*
D03*
X41493D02*
D03*
X40493D02*
D03*
X39493D02*
D03*
X38493D02*
D03*
X37493D02*
D03*
X57218Y1643D02*
D03*
X56219D02*
D03*
X55219D02*
D03*
X54219D02*
D03*
X53218D02*
D03*
X52218D02*
D03*
X51219D02*
D03*
X50219D02*
D03*
X58218Y4643D02*
D03*
X57218D02*
D03*
X56219D02*
D03*
X55219D02*
D03*
X54219D02*
D03*
X53218D02*
D03*
X52218D02*
D03*
X51219D02*
D03*
X50219D02*
D03*
D20*
X23984Y11992D02*
D03*
X71260Y17323D02*
D03*
Y5937D02*
D03*
X30328Y4107D02*
D03*
X31878Y3107D02*
D03*
X30328Y7157D02*
D03*
X31878D02*
D03*
X79281Y9644D02*
D03*
X56493Y11381D02*
D03*
X58218Y1643D02*
D03*
D21*
X29874Y18354D02*
D03*
X61417Y2067D02*
D03*
D22*
X80496Y16817D02*
D03*
Y12317D02*
D03*
X1018Y3556D02*
D03*
Y8056D02*
D03*
D23*
X77996Y13817D02*
D03*
X3518Y6556D02*
D03*
D24*
X77996Y14817D02*
D03*
X76996Y14317D02*
D03*
Y15317D02*
D03*
X77996Y15817D02*
D03*
X76996Y13317D02*
D03*
Y16317D02*
D03*
X3518Y5556D02*
D03*
X4518Y6056D02*
D03*
Y5056D02*
D03*
X3518Y4556D02*
D03*
X4518Y7056D02*
D03*
Y4056D02*
D03*
X36322Y1626D02*
D03*
X37322D02*
D03*
X38322D02*
D03*
X39322D02*
D03*
X36322Y4660D02*
D03*
X37322D02*
D03*
X38322D02*
D03*
X61084Y11882D02*
D03*
X60084D02*
D03*
X59084D02*
D03*
X60084Y8849D02*
D03*
X59084D02*
D03*
X61084Y18451D02*
D03*
X60084D02*
D03*
X59084D02*
D03*
X60084Y15417D02*
D03*
X59084D02*
D03*
X15024Y7799D02*
D03*
X14024D02*
D03*
X13024D02*
D03*
X12024D02*
D03*
X11024D02*
D03*
X10024D02*
D03*
X9024D02*
D03*
X8024D02*
D03*
X7024D02*
D03*
X15024Y4799D02*
D03*
X14024D02*
D03*
X13024D02*
D03*
X12024D02*
D03*
X11024D02*
D03*
X10024D02*
D03*
X9024D02*
D03*
X8024D02*
D03*
X65800Y16818D02*
D03*
Y15818D02*
D03*
Y14818D02*
D03*
Y13818D02*
D03*
Y12818D02*
D03*
Y11818D02*
D03*
Y10818D02*
D03*
Y9818D02*
D03*
X62800Y16818D02*
D03*
Y15818D02*
D03*
Y14818D02*
D03*
Y13818D02*
D03*
Y12818D02*
D03*
Y11818D02*
D03*
Y10818D02*
D03*
D25*
X77996Y12817D02*
D03*
X3518Y7556D02*
D03*
X39322Y4660D02*
D03*
X61084Y8849D02*
D03*
Y15417D02*
D03*
X7024Y4799D02*
D03*
D26*
X18209Y12303D02*
D03*
X67203Y9963D02*
D03*
Y7096D02*
D03*
Y12830D02*
D03*
Y15696D02*
D03*
D27*
X17209Y12303D02*
D03*
X68203Y9963D02*
D03*
Y7096D02*
D03*
Y12830D02*
D03*
Y15696D02*
D03*
X14606Y2638D02*
D03*
X12638D02*
D03*
D28*
X4150Y18830D02*
D03*
Y17256D02*
D03*
Y15681D02*
D03*
Y14106D02*
D03*
Y12531D02*
D03*
X1985Y18830D02*
D03*
Y17256D02*
D03*
Y15681D02*
D03*
Y14106D02*
D03*
Y12531D02*
D03*
Y10956D02*
D03*
X27425Y17717D02*
D03*
X19425D02*
D03*
D29*
X4150Y10956D02*
D03*
D30*
X14205Y10827D02*
D03*
D31*
X12205D02*
D03*
D32*
X12598Y14016D02*
D03*
Y14685D02*
D03*
Y15354D02*
D03*
Y16024D02*
D03*
D33*
Y16693D02*
D03*
D34*
X10827Y19075D02*
D03*
X16742D02*
D03*
D35*
X6693Y16929D02*
D03*
Y11014D02*
D03*
D36*
X9218Y13948D02*
D03*
Y15917D02*
D03*
Y11980D02*
D03*
Y10011D02*
D03*
D37*
X64602Y6656D02*
D03*
X35143Y18881D02*
D03*
Y6666D02*
D03*
X64602Y18861D02*
D03*
D38*
X52181Y19196D02*
D03*
X51181D02*
D03*
X50181D02*
D03*
X49181D02*
D03*
X48181D02*
D03*
X47181D02*
D03*
X46181D02*
D03*
X45181D02*
D03*
X44181D02*
D03*
X43181D02*
D03*
X42181D02*
D03*
X41181D02*
D03*
X40181D02*
D03*
X39181D02*
D03*
X38181D02*
D03*
D39*
X37181D02*
D03*
D40*
X44702Y2926D02*
D03*
X45686Y4107D02*
D03*
X43718D02*
D03*
D41*
X67913Y18504D02*
D03*
Y19504D02*
D03*
Y17504D02*
D03*
D42*
X62800Y9818D02*
D03*
D43*
X55937Y6693D02*
D03*
X53937D02*
D03*
X47276Y8661D02*
D03*
X45276D02*
D03*
D44*
X9928Y19724D02*
D03*
X60588Y20594D02*
D03*
X26978Y5164D02*
D03*
X35488Y1744D02*
D03*
X68048Y8564D02*
D03*
X60328Y12704D02*
D03*
X69008Y18134D02*
D03*
X50468Y2984D02*
D03*
X53178Y8234D02*
D03*
X53718Y5094D02*
D03*
X22342Y7164D02*
D03*
X30448Y2154D02*
D03*
X58418Y2964D02*
D03*
X59900Y10323D02*
D03*
X69318Y9214D02*
D03*
X23918Y13884D02*
D03*
X17808Y2324D02*
D03*
X30878Y5614D02*
D03*
X57284Y7158D02*
D03*
X75108Y15064D02*
D03*
X70568Y9214D02*
D03*
X26038Y18064D02*
D03*
X50018Y10114D02*
D03*
X43518Y2924D02*
D03*
X48628Y1084D02*
D03*
X40498Y544D02*
D03*
X61276Y20394D02*
D03*
X28268Y20494D02*
D03*
X49998Y17874D02*
D03*
X37188Y14534D02*
D03*
X42998Y14094D02*
D03*
X52508Y15454D02*
D03*
X31868Y14424D02*
D03*
X75502Y1457D02*
D03*
X27573Y20020D02*
D03*
X33819Y7283D02*
D03*
X33878Y16191D02*
D03*
M02*
