%FSLAX24Y24*%
%MOIN*%
G70*
G01*
G75*
%ADD10C,0.0787*%
%ADD11C,0.0197*%
%ADD12C,0.0276*%
%ADD13C,0.0394*%
%ADD14C,0.0472*%
%ADD15C,0.0315*%
%ADD16C,0.0551*%
%ADD17C,0.2362*%
%ADD18C,0.0650*%
%ADD19C,0.0591*%
%ADD20R,0.0591X0.0591*%
%ADD21R,0.0591X0.0591*%
%ADD22C,0.1161*%
%ADD23C,0.0630*%
%ADD24C,0.0591*%
%ADD25R,0.0591X0.0591*%
%ADD26R,0.0630X0.0630*%
%ADD27C,0.0630*%
%ADD28C,0.1181*%
%ADD29R,0.1181X0.1181*%
%ADD30C,0.0669*%
%ADD31R,0.0669X0.0669*%
%ADD32O,0.0984X0.0551*%
%ADD33R,0.0984X0.0551*%
%ADD34O,0.1400X0.0900*%
%ADD35O,0.0900X0.1400*%
%ADD36O,0.1969X0.1378*%
%ADD37C,0.1969*%
%ADD38O,0.0600X0.1200*%
G04:AMPARAMS|DCode=39|XSize=120mil|YSize=60mil|CornerRadius=0mil|HoleSize=0mil|Usage=FLASHONLY|Rotation=90.000|XOffset=0mil|YOffset=0mil|HoleType=Round|Shape=Octagon|*
%AMOCTAGOND39*
4,1,8,0.0150,0.0600,-0.0150,0.0600,-0.0300,0.0450,-0.0300,-0.0450,-0.0150,-0.0600,0.0150,-0.0600,0.0300,-0.0450,0.0300,0.0450,0.0150,0.0600,0.0*
%
%ADD39OCTAGOND39*%

%ADD40C,0.0787*%
%ADD41C,0.0600*%
%ADD42R,0.0591X0.0591*%
%ADD43C,0.0620*%
%ADD44C,0.0500*%
%ADD45C,0.0100*%
%ADD46C,0.0236*%
%ADD47C,0.0098*%
%ADD48C,0.0079*%
%ADD49C,0.0050*%
%ADD50C,0.0039*%
%ADD51C,0.0060*%
%ADD52C,0.0150*%
%ADD53R,0.0300X0.2008*%
%ADD54R,0.0252X0.0300*%
%ADD55R,0.0219X0.0300*%
%ADD56R,0.2008X0.0300*%
%ADD57R,0.0300X0.0252*%
%ADD58R,0.0300X0.0219*%
%ADD59C,0.0631*%
%ADD60C,0.2442*%
%ADD61C,0.0730*%
%ADD62C,0.0671*%
%ADD63R,0.0671X0.0671*%
%ADD64R,0.0671X0.0671*%
%ADD65C,0.1241*%
%ADD66C,0.0710*%
%ADD67C,0.0671*%
%ADD68R,0.0671X0.0671*%
%ADD69R,0.0710X0.0710*%
%ADD70C,0.0710*%
%ADD71C,0.1261*%
%ADD72R,0.1261X0.1261*%
%ADD73C,0.0749*%
%ADD74R,0.0749X0.0749*%
%ADD75O,0.1064X0.0631*%
%ADD76R,0.1064X0.0631*%
%ADD77O,0.1480X0.0980*%
%ADD78O,0.0980X0.1480*%
%ADD79O,0.2049X0.1458*%
%ADD80C,0.2049*%
%ADD81O,0.0680X0.1280*%
G04:AMPARAMS|DCode=82|XSize=128mil|YSize=68mil|CornerRadius=0mil|HoleSize=0mil|Usage=FLASHONLY|Rotation=90.000|XOffset=0mil|YOffset=0mil|HoleType=Round|Shape=Octagon|*
%AMOCTAGOND82*
4,1,8,0.0170,0.0640,-0.0170,0.0640,-0.0340,0.0470,-0.0340,-0.0470,-0.0170,-0.0640,0.0170,-0.0640,0.0340,-0.0470,0.0340,0.0470,0.0170,0.0640,0.0*
%
%ADD82OCTAGOND82*%

%ADD83C,0.0867*%
%ADD84C,0.0680*%
%ADD85R,0.0671X0.0671*%
%ADD86C,0.0700*%
%ADD87C,0.0580*%
%ADD88C,0.0120*%
%ADD89C,0.0067*%
%ADD90C,0.0040*%
D49*
X1561Y2028D02*
X1896D01*
X1728Y1860D02*
Y2195D01*
X4561Y2028D02*
X4896D01*
X4728Y1860D02*
Y2195D01*
X78346Y19685D02*
X79921D01*
X79134Y18898D02*
Y20472D01*
X78346Y1969D02*
X79921D01*
X79134Y1181D02*
Y2756D01*
X7480Y1969D02*
X9055D01*
X8268Y1181D02*
Y2756D01*
X7480Y19685D02*
X9055D01*
X8268Y18898D02*
Y20472D01*
X26998Y6095D02*
X27333D01*
X27165Y5927D02*
Y6262D01*
X26998Y3095D02*
X27333D01*
X27165Y2927D02*
Y3262D01*
X64522Y3858D02*
X64856D01*
X64689Y3691D02*
Y4026D01*
X61522Y3858D02*
X61856D01*
X61689Y3691D02*
Y4026D01*
X70774Y12402D02*
X71108D01*
X70941Y12234D02*
Y12569D01*
X73774Y12402D02*
X74108D01*
X73941Y12234D02*
Y12569D01*
X17701Y9646D02*
X18094D01*
X17898Y9449D02*
Y9843D01*
X19701Y9646D02*
X20094D01*
X19898Y9449D02*
Y9843D01*
X71244Y11417D02*
X71638D01*
X71441Y11220D02*
Y11614D01*
X73244Y11417D02*
X73638D01*
X73441Y11220D02*
Y11614D01*
X19701Y7677D02*
X20094D01*
X19898Y7480D02*
Y7874D01*
X17701Y7677D02*
X18094D01*
X17898Y7480D02*
Y7874D01*
X75181Y19291D02*
X75575D01*
X75378Y19095D02*
Y19488D01*
X77181Y19291D02*
X77575D01*
X77378Y19095D02*
Y19488D01*
X67701Y2067D02*
X68094D01*
X67898Y1870D02*
Y2264D01*
X69701Y2067D02*
X70094D01*
X69898Y1870D02*
Y2264D01*
X68996Y3429D02*
X69390D01*
X69193Y3232D02*
Y3626D01*
X68996Y5429D02*
X69390D01*
X69193Y5232D02*
Y5626D01*
X23807Y9992D02*
X24161D01*
X23984Y9815D02*
Y10169D01*
X23807Y10992D02*
X24161D01*
X23984Y10815D02*
Y11169D01*
X23807Y11992D02*
X24161D01*
X23984Y11815D02*
Y12169D01*
X71083Y15323D02*
X71437D01*
X71260Y15146D02*
Y15500D01*
X71083Y16323D02*
X71437D01*
X71260Y16146D02*
Y16500D01*
X71083Y17323D02*
X71437D01*
X71260Y17146D02*
Y17500D01*
X71083Y3937D02*
X71437D01*
X71260Y3760D02*
Y4114D01*
X71083Y4937D02*
X71437D01*
X71260Y4760D02*
Y5114D01*
X71083Y5937D02*
X71437D01*
X71260Y5760D02*
Y6114D01*
X30906Y12417D02*
X31299D01*
X31102Y12220D02*
Y12614D01*
X30906Y10417D02*
X31299D01*
X31102Y10220D02*
Y10614D01*
X32697Y15354D02*
X33051D01*
X32874Y15177D02*
Y15531D01*
X32697Y16354D02*
X33051D01*
X32874Y16177D02*
Y16531D01*
X32697Y17354D02*
X33051D01*
X32874Y17177D02*
Y17531D01*
X32697Y18354D02*
X33051D01*
X32874Y18177D02*
Y18531D01*
X29697Y15354D02*
X30051D01*
X29874Y15177D02*
Y15531D01*
X29697Y16354D02*
X30051D01*
X29874Y16177D02*
Y16531D01*
X29697Y17354D02*
X30051D01*
X29874Y17177D02*
Y17531D01*
X29697Y18354D02*
X30051D01*
X29874Y18177D02*
Y18531D01*
X61240Y2067D02*
X61594D01*
X61417Y1890D02*
Y2244D01*
X62240Y2067D02*
X62594D01*
X62417Y1890D02*
Y2244D01*
X63240Y2067D02*
X63594D01*
X63417Y1890D02*
Y2244D01*
X64240Y2067D02*
X64594D01*
X64417Y1890D02*
Y2244D01*
X65240Y2067D02*
X65594D01*
X65417Y1890D02*
Y2244D01*
X30151Y3107D02*
X30505D01*
X30328Y2930D02*
Y3284D01*
X30151Y4107D02*
X30505D01*
X30328Y3930D02*
Y4284D01*
X31701Y4107D02*
X32055D01*
X31878Y3930D02*
Y4284D01*
X31701Y3107D02*
X32055D01*
X31878Y2930D02*
Y3284D01*
X30151Y6157D02*
X30505D01*
X30328Y5980D02*
Y6334D01*
X30151Y7157D02*
X30505D01*
X30328Y6980D02*
Y7334D01*
X31701Y6157D02*
X32055D01*
X31878Y5980D02*
Y6334D01*
X31701Y7157D02*
X32055D01*
X31878Y6980D02*
Y7334D01*
X79856Y16817D02*
X81136D01*
X80496Y16177D02*
Y17457D01*
X79856Y12317D02*
X81136D01*
X80496Y11677D02*
Y12957D01*
X77819Y13817D02*
X78173D01*
X77996Y13640D02*
Y13994D01*
X77819Y14817D02*
X78173D01*
X77996Y14640D02*
Y14994D01*
X76819Y14317D02*
X77173D01*
X76996Y14140D02*
Y14494D01*
X76819Y15317D02*
X77173D01*
X76996Y15140D02*
Y15494D01*
X77819Y15817D02*
X78173D01*
X77996Y15640D02*
Y15994D01*
X77819Y12817D02*
X78173D01*
X77996Y12640D02*
Y12994D01*
X76819Y13317D02*
X77173D01*
X76996Y13140D02*
Y13494D01*
X76819Y16317D02*
X77173D01*
X76996Y16140D02*
Y16494D01*
X18051Y12303D02*
X18366D01*
X18209Y12146D02*
Y12461D01*
X17051Y12303D02*
X17366D01*
X17209Y12146D02*
Y12461D01*
X15190Y14370D02*
X15583D01*
X15387Y14173D02*
Y14567D01*
X17190Y14370D02*
X17583D01*
X17387Y14173D02*
Y14567D01*
X3855Y18830D02*
X4446D01*
X4150Y18535D02*
Y19126D01*
X3855Y17256D02*
X4446D01*
X4150Y16960D02*
Y17551D01*
X3855Y15681D02*
X4446D01*
X4150Y15385D02*
Y15976D01*
X3855Y14106D02*
X4446D01*
X4150Y13811D02*
Y14401D01*
X3855Y12531D02*
X4446D01*
X4150Y12236D02*
Y12826D01*
X3855Y10956D02*
X4446D01*
X4150Y10661D02*
Y11252D01*
X1690Y18830D02*
X2280D01*
X1985Y18535D02*
Y19126D01*
X1690Y17256D02*
X2280D01*
X1985Y16960D02*
Y17551D01*
X1690Y15681D02*
X2280D01*
X1985Y15385D02*
Y15976D01*
X1690Y14106D02*
X2280D01*
X1985Y13811D02*
Y14401D01*
X1690Y12531D02*
X2280D01*
X1985Y12236D02*
Y12826D01*
X1690Y10956D02*
X2280D01*
X1985Y10661D02*
Y11252D01*
X14028Y10827D02*
X14382D01*
X14205Y10650D02*
Y11004D01*
X12028Y10827D02*
X12382D01*
X12205Y10650D02*
Y11004D01*
X12382Y14016D02*
X12815D01*
X12598Y13799D02*
Y14232D01*
X12382Y14685D02*
X12815D01*
X12598Y14469D02*
Y14902D01*
X12382Y15354D02*
X12815D01*
X12598Y15138D02*
Y15571D01*
X12382Y16024D02*
X12815D01*
X12598Y15807D02*
Y16240D01*
X12382Y16693D02*
X12815D01*
X12598Y16476D02*
Y16909D01*
X10527Y19075D02*
X11127D01*
X10827Y18775D02*
Y19375D01*
X16442Y19075D02*
X17042D01*
X16742Y18775D02*
Y19375D01*
X6393Y16929D02*
X6993D01*
X6693Y16629D02*
Y17229D01*
X6393Y11014D02*
X6993D01*
X6693Y10714D02*
Y11314D01*
X17190Y16343D02*
X17583D01*
X17387Y16146D02*
Y16540D01*
X15190Y16343D02*
X15583D01*
X15387Y16146D02*
Y16540D01*
X8706Y13948D02*
X9730D01*
X9218Y13437D02*
Y14460D01*
X8706Y15917D02*
X9730D01*
X9218Y15405D02*
Y16429D01*
X8706Y11980D02*
X9730D01*
X9218Y11468D02*
Y12492D01*
X8706Y10011D02*
X9730D01*
X9218Y9500D02*
Y10523D01*
X27130Y17717D02*
X27720D01*
X27425Y17421D02*
Y18012D01*
X19130Y17717D02*
X19720D01*
X19425Y17421D02*
Y18012D01*
X79104Y4644D02*
X79458D01*
X79281Y4467D02*
Y4821D01*
X79104Y5644D02*
X79458D01*
X79281Y5467D02*
Y5821D01*
X79104Y6644D02*
X79458D01*
X79281Y6467D02*
Y6821D01*
X79104Y7644D02*
X79458D01*
X79281Y7467D02*
Y7821D01*
X79104Y8644D02*
X79458D01*
X79281Y8467D02*
Y8821D01*
X79104Y9644D02*
X79458D01*
X79281Y9467D02*
Y9821D01*
X378Y3556D02*
X1657D01*
X1018Y2916D02*
Y4196D01*
X378Y8056D02*
X1657D01*
X1018Y7416D02*
Y8696D01*
X3341Y6556D02*
X3695D01*
X3518Y6379D02*
Y6733D01*
X3341Y5556D02*
X3695D01*
X3518Y5379D02*
Y5733D01*
X4341Y6056D02*
X4695D01*
X4518Y5879D02*
Y6233D01*
X4341Y5056D02*
X4695D01*
X4518Y4879D02*
Y5233D01*
X3341Y4556D02*
X3695D01*
X3518Y4379D02*
Y4733D01*
X3341Y7556D02*
X3695D01*
X3518Y7379D02*
Y7733D01*
X4341Y7056D02*
X4695D01*
X4518Y6879D02*
Y7233D01*
X4341Y4056D02*
X4695D01*
X4518Y3879D02*
Y4233D01*
X64011Y6656D02*
X65193D01*
X64602Y6066D02*
Y7247D01*
X51981Y19196D02*
X52381D01*
X52181Y18996D02*
Y19396D01*
X50981Y19196D02*
X51381D01*
X51181Y18996D02*
Y19396D01*
X49981Y19196D02*
X50381D01*
X50181Y18996D02*
Y19396D01*
X48981Y19196D02*
X49381D01*
X49181Y18996D02*
Y19396D01*
X47981Y19196D02*
X48381D01*
X48181Y18996D02*
Y19396D01*
X46981Y19196D02*
X47381D01*
X47181Y18996D02*
Y19396D01*
X45981Y19196D02*
X46381D01*
X46181Y18996D02*
Y19396D01*
X44981Y19196D02*
X45381D01*
X45181Y18996D02*
Y19396D01*
X43981Y19196D02*
X44381D01*
X44181Y18996D02*
Y19396D01*
X42981Y19196D02*
X43381D01*
X43181Y18996D02*
Y19396D01*
X41981Y19196D02*
X42381D01*
X42181Y18996D02*
Y19396D01*
X40981Y19196D02*
X41381D01*
X41181Y18996D02*
Y19396D01*
X39981Y19196D02*
X40381D01*
X40181Y18996D02*
Y19396D01*
X38981Y19196D02*
X39381D01*
X39181Y18996D02*
Y19396D01*
X37981Y19196D02*
X38381D01*
X38181Y18996D02*
Y19396D01*
X36981Y19196D02*
X37381D01*
X37181Y18996D02*
Y19396D01*
X34553Y18881D02*
X35734D01*
X35143Y18290D02*
Y19471D01*
X34553Y6666D02*
X35734D01*
X35143Y6076D02*
Y7257D01*
X64011Y18861D02*
X65193D01*
X64602Y18270D02*
Y19452D01*
X56316Y11381D02*
X56670D01*
X56493Y11204D02*
Y11558D01*
X55316Y11381D02*
X55670D01*
X55493Y11204D02*
Y11558D01*
X54316Y11381D02*
X54670D01*
X54493Y11204D02*
Y11558D01*
X53316Y11381D02*
X53670D01*
X53493Y11204D02*
Y11558D01*
X52316Y11381D02*
X52670D01*
X52493Y11204D02*
Y11558D01*
X51316Y11381D02*
X51670D01*
X51493Y11204D02*
Y11558D01*
X50316Y11381D02*
X50670D01*
X50493Y11204D02*
Y11558D01*
X49316Y11381D02*
X49670D01*
X49493Y11204D02*
Y11558D01*
X48316Y11381D02*
X48670D01*
X48493Y11204D02*
Y11558D01*
X47316Y11381D02*
X47670D01*
X47493Y11204D02*
Y11558D01*
X46316Y11381D02*
X46670D01*
X46493Y11204D02*
Y11558D01*
X45316Y11381D02*
X45670D01*
X45493Y11204D02*
Y11558D01*
X44316Y11381D02*
X44670D01*
X44493Y11204D02*
Y11558D01*
X43316Y11381D02*
X43670D01*
X43493Y11204D02*
Y11558D01*
X42316Y11381D02*
X42670D01*
X42493Y11204D02*
Y11558D01*
X41316Y11381D02*
X41670D01*
X41493Y11204D02*
Y11558D01*
X40316Y11381D02*
X40670D01*
X40493Y11204D02*
Y11558D01*
X39316Y11381D02*
X39670D01*
X39493Y11204D02*
Y11558D01*
X38316Y11381D02*
X38670D01*
X38493Y11204D02*
Y11558D01*
X37316Y11381D02*
X37670D01*
X37493Y11204D02*
Y11558D01*
X56316Y17381D02*
X56670D01*
X56493Y17204D02*
Y17558D01*
X55316Y17381D02*
X55670D01*
X55493Y17204D02*
Y17558D01*
X54316Y17381D02*
X54670D01*
X54493Y17204D02*
Y17558D01*
X53316Y17381D02*
X53670D01*
X53493Y17204D02*
Y17558D01*
X52316Y17381D02*
X52670D01*
X52493Y17204D02*
Y17558D01*
X51316Y17381D02*
X51670D01*
X51493Y17204D02*
Y17558D01*
X50316Y17381D02*
X50670D01*
X50493Y17204D02*
Y17558D01*
X49316Y17381D02*
X49670D01*
X49493Y17204D02*
Y17558D01*
X48316Y17381D02*
X48670D01*
X48493Y17204D02*
Y17558D01*
X47316Y17381D02*
X47670D01*
X47493Y17204D02*
Y17558D01*
X46316Y17381D02*
X46670D01*
X46493Y17204D02*
Y17558D01*
X45316Y17381D02*
X45670D01*
X45493Y17204D02*
Y17558D01*
X44316Y17381D02*
X44670D01*
X44493Y17204D02*
Y17558D01*
X43316Y17381D02*
X43670D01*
X43493Y17204D02*
Y17558D01*
X42316Y17381D02*
X42670D01*
X42493Y17204D02*
Y17558D01*
X41316Y17381D02*
X41670D01*
X41493Y17204D02*
Y17558D01*
X40316Y17381D02*
X40670D01*
X40493Y17204D02*
Y17558D01*
X39316Y17381D02*
X39670D01*
X39493Y17204D02*
Y17558D01*
X38316Y17381D02*
X38670D01*
X38493Y17204D02*
Y17558D01*
X37316Y17381D02*
X37670D01*
X37493Y17204D02*
Y17558D01*
X36145Y1626D02*
X36499D01*
X36322Y1449D02*
Y1803D01*
X37145Y1626D02*
X37499D01*
X37322Y1449D02*
Y1803D01*
X38145Y1626D02*
X38499D01*
X38322Y1449D02*
Y1803D01*
X39145Y1626D02*
X39499D01*
X39322Y1449D02*
Y1803D01*
X36145Y4660D02*
X36499D01*
X36322Y4483D02*
Y4837D01*
X37145Y4660D02*
X37499D01*
X37322Y4483D02*
Y4837D01*
X38145Y4660D02*
X38499D01*
X38322Y4483D02*
Y4837D01*
X39145Y4660D02*
X39499D01*
X39322Y4483D02*
Y4837D01*
X43195Y8661D02*
X43589D01*
X43392Y8465D02*
Y8858D01*
X42195Y8661D02*
X42589D01*
X42392Y8465D02*
Y8858D01*
X49961Y8661D02*
X50355D01*
X50158Y8465D02*
Y8858D01*
X48961Y8661D02*
X49355D01*
X49158Y8465D02*
Y8858D01*
X34696Y13324D02*
X35090D01*
X34893Y13128D02*
Y13521D01*
X34696Y11324D02*
X35090D01*
X34893Y11128D02*
Y11521D01*
X16896Y6095D02*
X17231D01*
X17063Y5927D02*
Y6262D01*
X16896Y3095D02*
X17231D01*
X17063Y2927D02*
Y3262D01*
X17738Y6095D02*
X18073D01*
X17905Y5927D02*
Y6262D01*
X17738Y3095D02*
X18073D01*
X17905Y2927D02*
Y3262D01*
X18580Y6095D02*
X18914D01*
X18747Y5927D02*
Y6262D01*
X18580Y3095D02*
X18914D01*
X18747Y2927D02*
Y3262D01*
X19422Y6095D02*
X19756D01*
X19589Y5927D02*
Y6262D01*
X19422Y3095D02*
X19756D01*
X19589Y2927D02*
Y3262D01*
X58041Y1643D02*
X58396D01*
X58218Y1466D02*
Y1820D01*
X57041Y1643D02*
X57396D01*
X57218Y1466D02*
Y1820D01*
X56041Y1643D02*
X56396D01*
X56219Y1466D02*
Y1820D01*
X55041Y1643D02*
X55396D01*
X55219Y1466D02*
Y1820D01*
X54041Y1643D02*
X54396D01*
X54219Y1466D02*
Y1820D01*
X53041Y1643D02*
X53396D01*
X53218Y1466D02*
Y1820D01*
X52041Y1643D02*
X52396D01*
X52218Y1466D02*
Y1820D01*
X51041Y1643D02*
X51396D01*
X51219Y1466D02*
Y1820D01*
X50041Y1643D02*
X50396D01*
X50219Y1466D02*
Y1820D01*
X58041Y4643D02*
X58396D01*
X58218Y4466D02*
Y4820D01*
X57041Y4643D02*
X57396D01*
X57218Y4466D02*
Y4820D01*
X56041Y4643D02*
X56396D01*
X56219Y4466D02*
Y4820D01*
X55041Y4643D02*
X55396D01*
X55219Y4466D02*
Y4820D01*
X54041Y4643D02*
X54396D01*
X54219Y4466D02*
Y4820D01*
X53041Y4643D02*
X53396D01*
X53218Y4466D02*
Y4820D01*
X52041Y4643D02*
X52396D01*
X52218Y4466D02*
Y4820D01*
X51041Y4643D02*
X51396D01*
X51219Y4466D02*
Y4820D01*
X50041Y4643D02*
X50396D01*
X50219Y4466D02*
Y4820D01*
X20263Y6095D02*
X20598D01*
X20431Y5927D02*
Y6262D01*
X20263Y3095D02*
X20598D01*
X20431Y2927D02*
Y3262D01*
X21105Y6095D02*
X21440D01*
X21273Y5927D02*
Y6262D01*
X21105Y3095D02*
X21440D01*
X21273Y2927D02*
Y3262D01*
X21947Y6095D02*
X22282D01*
X22114Y5927D02*
Y6262D01*
X21947Y3095D02*
X22282D01*
X22114Y2927D02*
Y3262D01*
X22789Y6095D02*
X23124D01*
X22956Y5927D02*
Y6262D01*
X22789Y3095D02*
X23124D01*
X22956Y2927D02*
Y3262D01*
X23631Y3095D02*
X23965D01*
X23798Y2927D02*
Y3262D01*
X23631Y6095D02*
X23965D01*
X23798Y5927D02*
Y6262D01*
X24473Y3095D02*
X24807D01*
X24640Y2927D02*
Y3262D01*
X24473Y6095D02*
X24807D01*
X24640Y5927D02*
Y6262D01*
X58610Y6693D02*
X59004D01*
X58807Y6496D02*
Y6890D01*
X57610Y6693D02*
X58004D01*
X57807Y6496D02*
Y6890D01*
X51848Y6693D02*
X52242D01*
X52045Y6496D02*
Y6890D01*
X50848Y6693D02*
X51242D01*
X51045Y6496D02*
Y6890D01*
X60907Y11882D02*
X61261D01*
X61084Y11705D02*
Y12060D01*
X59907Y11882D02*
X60261D01*
X60084Y11705D02*
Y12060D01*
X58907Y11882D02*
X59261D01*
X59084Y11705D02*
Y12060D01*
X60907Y8849D02*
X61261D01*
X61084Y8672D02*
Y9026D01*
X59907Y8849D02*
X60261D01*
X60084Y8672D02*
Y9026D01*
X58907Y8849D02*
X59261D01*
X59084Y8672D02*
Y9026D01*
X60907Y18451D02*
X61261D01*
X61084Y18274D02*
Y18628D01*
X59907Y18451D02*
X60261D01*
X60084Y18274D02*
Y18628D01*
X58907Y18451D02*
X59261D01*
X59084Y18274D02*
Y18628D01*
X60907Y15417D02*
X61261D01*
X61084Y15240D02*
Y15594D01*
X59907Y15417D02*
X60261D01*
X60084Y15240D02*
Y15594D01*
X58907Y15417D02*
X59261D01*
X59084Y15240D02*
Y15594D01*
X44505Y2926D02*
X44899D01*
X44702Y2730D02*
Y3123D01*
X45490Y4107D02*
X45883D01*
X45686Y3911D02*
Y4304D01*
X43521Y4107D02*
X43915D01*
X43718Y3911D02*
Y4304D01*
X67756Y18504D02*
X68071D01*
X67913Y18346D02*
Y18661D01*
X67756Y19504D02*
X68071D01*
X67913Y19346D02*
Y19661D01*
X67756Y17504D02*
X68071D01*
X67913Y17346D02*
Y17661D01*
X26156Y3095D02*
X26491D01*
X26324Y2927D02*
Y3262D01*
X26156Y6095D02*
X26491D01*
X26324Y5927D02*
Y6262D01*
X25314Y3095D02*
X25649D01*
X25482Y2927D02*
Y3262D01*
X25314Y6095D02*
X25649D01*
X25482Y5927D02*
Y6262D01*
X14846Y7799D02*
X15201D01*
X15024Y7622D02*
Y7976D01*
X13846Y7799D02*
X14201D01*
X14024Y7622D02*
Y7976D01*
X12846Y7799D02*
X13201D01*
X13024Y7622D02*
Y7976D01*
X11846Y7799D02*
X12201D01*
X12024Y7622D02*
Y7976D01*
X10846Y7799D02*
X11201D01*
X11024Y7622D02*
Y7976D01*
X9846Y7799D02*
X10201D01*
X10024Y7622D02*
Y7976D01*
X8846Y7799D02*
X9201D01*
X9024Y7622D02*
Y7976D01*
X7846Y7799D02*
X8201D01*
X8024Y7622D02*
Y7976D01*
X6846Y7799D02*
X7201D01*
X7024Y7622D02*
Y7976D01*
X14846Y4799D02*
X15201D01*
X15024Y4622D02*
Y4976D01*
X13846Y4799D02*
X14201D01*
X14024Y4622D02*
Y4976D01*
X12846Y4799D02*
X13201D01*
X13024Y4622D02*
Y4976D01*
X11846Y4799D02*
X12201D01*
X12024Y4622D02*
Y4976D01*
X10846Y4799D02*
X11201D01*
X11024Y4622D02*
Y4976D01*
X9846Y4799D02*
X10201D01*
X10024Y4622D02*
Y4976D01*
X8846Y4799D02*
X9201D01*
X9024Y4622D02*
Y4976D01*
X7846Y4799D02*
X8201D01*
X8024Y4622D02*
Y4976D01*
X6846Y4799D02*
X7201D01*
X7024Y4622D02*
Y4976D01*
X65622Y16818D02*
X65977D01*
X65800Y16641D02*
Y16995D01*
X65622Y15818D02*
X65977D01*
X65800Y15641D02*
Y15995D01*
X65622Y14818D02*
X65977D01*
X65800Y14641D02*
Y14995D01*
X65622Y13818D02*
X65977D01*
X65800Y13641D02*
Y13995D01*
X65622Y12818D02*
X65977D01*
X65800Y12641D02*
Y12995D01*
X65622Y11818D02*
X65977D01*
X65800Y11641D02*
Y11995D01*
X65622Y10818D02*
X65977D01*
X65800Y10641D02*
Y10995D01*
X65622Y9818D02*
X65977D01*
X65800Y9641D02*
Y9995D01*
X62622Y16818D02*
X62977D01*
X62800Y16641D02*
Y16995D01*
X62622Y15818D02*
X62977D01*
X62800Y15641D02*
Y15995D01*
X62622Y14818D02*
X62977D01*
X62800Y14641D02*
Y14995D01*
X62622Y13818D02*
X62977D01*
X62800Y13641D02*
Y13995D01*
X62622Y12818D02*
X62977D01*
X62800Y12641D02*
Y12995D01*
X62622Y11818D02*
X62977D01*
X62800Y11641D02*
Y11995D01*
X62622Y10818D02*
X62977D01*
X62800Y10641D02*
Y10995D01*
X62622Y9818D02*
X62977D01*
X62800Y9641D02*
Y9995D01*
X67045Y9963D02*
X67360D01*
X67203Y9806D02*
Y10121D01*
X68045Y9963D02*
X68360D01*
X68203Y9806D02*
Y10121D01*
X67045Y7096D02*
X67360D01*
X67203Y6939D02*
Y7254D01*
X68045Y7096D02*
X68360D01*
X68203Y6939D02*
Y7254D01*
X67045Y12830D02*
X67360D01*
X67203Y12672D02*
Y12987D01*
X68045Y12830D02*
X68360D01*
X68203Y12672D02*
Y12987D01*
X67045Y15696D02*
X67360D01*
X67203Y15539D02*
Y15854D01*
X68045Y15696D02*
X68360D01*
X68203Y15539D02*
Y15854D01*
X55780Y6693D02*
X56094D01*
X55937Y6535D02*
Y6850D01*
X53780Y6693D02*
X54094D01*
X53937Y6535D02*
Y6850D01*
X47118Y8661D02*
X47433D01*
X47276Y8504D02*
Y8819D01*
X45118Y8661D02*
X45433D01*
X45276Y8504D02*
Y8819D01*
X14449Y2638D02*
X14764D01*
X14606Y2480D02*
Y2795D01*
X12480Y2638D02*
X12795D01*
X12638Y2480D02*
Y2795D01*
X21053Y10350D02*
X21388D01*
X21220Y10183D02*
Y10518D01*
X21053Y13350D02*
X21388D01*
X21220Y13183D02*
Y13518D01*
X71805Y19488D02*
X72140D01*
X71972Y19321D02*
Y19656D01*
X68805Y19488D02*
X69140D01*
X68972Y19321D02*
Y19656D01*
X76998Y5043D02*
X77333D01*
X77165Y4876D02*
Y5211D01*
X76998Y2043D02*
X77333D01*
X77165Y1876D02*
Y2211D01*
X9788Y19724D02*
X10068D01*
X9928Y19584D02*
Y19864D01*
X60448Y20594D02*
X60728D01*
X60588Y20454D02*
Y20734D01*
X26838Y5164D02*
X27118D01*
X26978Y5024D02*
Y5304D01*
X35348Y1744D02*
X35628D01*
X35488Y1604D02*
Y1884D01*
X67908Y8564D02*
X68188D01*
X68048Y8424D02*
Y8704D01*
X60188Y12704D02*
X60468D01*
X60328Y12564D02*
Y12844D01*
X68868Y18134D02*
X69148D01*
X69008Y17994D02*
Y18274D01*
X50328Y2984D02*
X50608D01*
X50468Y2844D02*
Y3124D01*
X53038Y8234D02*
X53318D01*
X53178Y8094D02*
Y8374D01*
X53578Y5094D02*
X53858D01*
X53718Y4954D02*
Y5234D01*
X22202Y7164D02*
X22482D01*
X22342Y7024D02*
Y7304D01*
X30308Y2154D02*
X30588D01*
X30448Y2014D02*
Y2294D01*
X58278Y2964D02*
X58558D01*
X58418Y2824D02*
Y3104D01*
X59760Y10323D02*
X60040D01*
X59900Y10183D02*
Y10463D01*
X69178Y9214D02*
X69458D01*
X69318Y9074D02*
Y9354D01*
X23778Y13884D02*
X24058D01*
X23918Y13744D02*
Y14024D01*
X17668Y2324D02*
X17948D01*
X17808Y2184D02*
Y2464D01*
X30738Y5614D02*
X31018D01*
X30878Y5474D02*
Y5754D01*
X57144Y7158D02*
X57424D01*
X57284Y7018D02*
Y7298D01*
X74968Y15064D02*
X75248D01*
X75108Y14924D02*
Y15204D01*
X70428Y9214D02*
X70708D01*
X70568Y9074D02*
Y9354D01*
X25898Y18064D02*
X26178D01*
X26038Y17924D02*
Y18204D01*
X49878Y10114D02*
X50158D01*
X50018Y9974D02*
Y10254D01*
X43378Y2924D02*
X43658D01*
X43518Y2784D02*
Y3064D01*
X48488Y1084D02*
X48768D01*
X48628Y944D02*
Y1224D01*
X40358Y544D02*
X40638D01*
X40498Y404D02*
Y684D01*
X61136Y20394D02*
X61416D01*
X61276Y20254D02*
Y20534D01*
X28128Y20494D02*
X28408D01*
X28268Y20354D02*
Y20634D01*
X49858Y17874D02*
X50138D01*
X49998Y17734D02*
Y18014D01*
X37048Y14534D02*
X37328D01*
X37188Y14394D02*
Y14674D01*
X42858Y14094D02*
X43138D01*
X42998Y13954D02*
Y14234D01*
X52368Y15454D02*
X52648D01*
X52508Y15314D02*
Y15594D01*
X31728Y14424D02*
X32008D01*
X31868Y14284D02*
Y14564D01*
X75362Y1457D02*
X75642D01*
X75502Y1317D02*
Y1597D01*
X27433Y20020D02*
X27713D01*
X27573Y19880D02*
Y20160D01*
X33679Y7283D02*
X33959D01*
X33819Y7143D02*
Y7423D01*
X33738Y16191D02*
X34018D01*
X33878Y16051D02*
Y16331D01*
M02*
