%FSLAX24Y24*%
%MOIN*%
G70*
G01*
G75*
G04 Layer_Physical_Order=2*
G04 Layer_Color=16711680*
%ADD10C,0.0472*%
%ADD11C,0.0315*%
%ADD12C,0.0591*%
%ADD13R,0.7480X0.4724*%
%ADD14C,0.1181*%
%ADD15R,0.1181X0.1181*%
%ADD16C,0.1969*%
%ADD17C,0.0866*%
%ADD18R,0.0866X0.0866*%
%ADD19C,0.0669*%
%ADD20R,0.0669X0.0669*%
%ADD21C,0.0591*%
%ADD22R,0.0591X0.0591*%
%ADD23C,0.0650*%
%ADD24O,0.0900X0.1400*%
%ADD25O,0.1400X0.0900*%
G04:AMPARAMS|DCode=26|XSize=118.1mil|YSize=118.1mil|CornerRadius=29.5mil|HoleSize=0mil|Usage=FLASHONLY|Rotation=0.000|XOffset=0mil|YOffset=0mil|HoleType=Round|Shape=RoundedRectangle|*
%AMROUNDEDRECTD26*
21,1,0.1181,0.0591,0,0,0.0*
21,1,0.0591,0.1181,0,0,0.0*
1,1,0.0591,0.0295,-0.0295*
1,1,0.0591,-0.0295,-0.0295*
1,1,0.0591,-0.0295,0.0295*
1,1,0.0591,0.0295,0.0295*
%
%ADD26ROUNDEDRECTD26*%
%ADD27C,0.1000*%
%ADD28R,0.0669X0.0984*%
%ADD29C,0.0984*%
%ADD30C,0.1161*%
%ADD31R,0.0591X0.0591*%
%ADD32R,0.0669X0.0669*%
%ADD33C,0.2362*%
%ADD34C,0.0620*%
%ADD35C,0.0591*%
%ADD36C,0.0630*%
%ADD37C,0.0500*%
%ADD38C,0.0787*%
%ADD39C,0.0236*%
%ADD40C,0.0709*%
%ADD41C,0.0197*%
G36*
X22568Y10865D02*
X22267Y10138D01*
X19966D01*
X19774Y10601D01*
X19774Y10601D01*
X19311Y10146D01*
X19261Y10904D01*
X19261Y10904D01*
X19261D01*
X19168Y11127D01*
X19201Y11175D01*
X19201D01*
Y12286D01*
X21148D01*
X22568Y10865D01*
D02*
G37*
G36*
X74984Y10322D02*
X74984Y10322D01*
X74984Y10322D01*
X75182Y10190D01*
X75259Y9406D01*
X74045Y8192D01*
X73273Y8346D01*
X73206Y8509D01*
D01*
X72940Y9151D01*
X73306Y9303D01*
X73306D01*
X74349Y10346D01*
X74434Y10550D01*
X74984Y10322D01*
D02*
G37*
G36*
X32573Y7545D02*
X32489Y7120D01*
X32111Y6963D01*
X32111D01*
D01*
D01*
X32111D01*
D01*
X31825D01*
X31825Y6963D01*
Y6963D01*
X31825D01*
D01*
X31388Y7144D01*
X31388Y7144D01*
X31268Y7194D01*
X30710Y6963D01*
X30660Y6843D01*
D01*
X30479Y6405D01*
X28954Y5774D01*
X26708D01*
X26554Y6546D01*
X27122Y6781D01*
X27390Y7427D01*
Y7927D01*
X27541Y8153D01*
X29954D01*
X30016Y8128D01*
Y8153D01*
X32074D01*
X32573Y7545D01*
D02*
G37*
G36*
X42068Y13243D02*
X42182Y13290D01*
X42909Y12989D01*
X42943Y12907D01*
X42943Y12907D01*
X43234Y12615D01*
Y11828D01*
X40271Y8865D01*
X39751Y8969D01*
X39751Y8969D01*
X39751Y8969D01*
X39294Y9158D01*
Y9945D01*
X39972Y10226D01*
D01*
X39993Y10235D01*
X39951Y10277D01*
Y10277D01*
X39951D01*
X39775Y10453D01*
X39913Y10786D01*
X39913D01*
X39913Y10786D01*
Y12164D01*
X39913D01*
Y12526D01*
X39976Y12589D01*
D01*
X40398Y12764D01*
X40823Y13189D01*
X41511Y13474D01*
X42068Y13243D01*
D02*
G37*
G36*
X58435Y12233D02*
X58804Y11544D01*
X58532Y11138D01*
X56987D01*
X56550Y11793D01*
X56734Y12238D01*
X58423D01*
X58435Y12233D01*
D02*
G37*
G36*
X69395Y11535D02*
X69202Y11069D01*
X68470D01*
X68264Y11154D01*
X67938Y11763D01*
X68223Y12190D01*
X68957D01*
X69395Y11535D01*
D02*
G37*
G36*
X14310Y11102D02*
X14321Y11077D01*
X14967Y10809D01*
X15467D01*
X15871Y10977D01*
X15955D01*
X16121Y11045D01*
X16775Y10608D01*
Y9341D01*
X15341Y8746D01*
X7365D01*
X7064Y9474D01*
X8311Y10721D01*
X8451Y11058D01*
X9051Y10809D01*
X9551D01*
X9801Y10913D01*
X13498D01*
X14071Y11150D01*
X14310Y11102D01*
D02*
G37*
G36*
X59068Y7243D02*
X59068Y7243D01*
X59068D01*
X59225Y6865D01*
X59086Y6529D01*
X59086Y6529D01*
X58855Y5971D01*
X58855Y5971D01*
X58855Y5971D01*
X58806Y5898D01*
X57842D01*
X57360Y5699D01*
X56448Y4787D01*
X56217Y4691D01*
X56160Y4555D01*
X55373D01*
X55369Y4566D01*
X55369D01*
X55317Y4691D01*
X54767Y4919D01*
X54641Y4867D01*
X54641D01*
X54217Y4691D01*
X53989Y4141D01*
X53989Y4141D01*
X53534Y4593D01*
X53534Y4593D01*
X53161Y4438D01*
X52983Y4512D01*
Y4512D01*
X52983Y4512D01*
X52253D01*
X51839Y4926D01*
X51839D01*
X51777Y4988D01*
Y5776D01*
X53368Y7367D01*
X53568Y7450D01*
X54068Y7243D01*
X54568Y7450D01*
X55068Y7243D01*
X55568Y7450D01*
X56068Y7243D01*
X56568Y7450D01*
X57068Y7243D01*
X57568Y7450D01*
X58068Y7243D01*
X58568Y7450D01*
X59068Y7243D01*
D02*
G37*
G36*
X71920Y4742D02*
Y4223D01*
X73146D01*
X73299Y3451D01*
X72417Y3085D01*
X71918Y1880D01*
X72417Y675D01*
Y675D01*
Y675D01*
X72137Y0D01*
X60731D01*
X60429Y727D01*
X60904Y1202D01*
X60904D01*
X61079Y1624D01*
X61372Y1745D01*
X61643Y1633D01*
X61643Y1633D01*
X62106Y1825D01*
X63435D01*
X63857Y2000D01*
X64883Y3025D01*
X66489D01*
X66564Y2994D01*
X66564D01*
X66730Y2925D01*
X67223Y3129D01*
X67292Y3295D01*
Y3295D01*
X67427Y3622D01*
X67427Y3622D01*
X67427D01*
X67617Y3701D01*
X67726Y3656D01*
X68067Y3797D01*
X69331D01*
X69813Y3996D01*
X69813Y3996D01*
X69813Y3996D01*
X71212Y5087D01*
X71920Y4742D01*
D02*
G37*
G36*
X19723Y3059D02*
X19741Y3016D01*
D01*
X19755Y2981D01*
X20433Y2701D01*
X20468Y2715D01*
Y2715D01*
X20511Y2733D01*
X20687Y2660D01*
X21254D01*
X21522Y2549D01*
Y2660D01*
X31165D01*
X31268Y2617D01*
X31371Y2660D01*
X32565D01*
X32668Y2617D01*
X33226Y2848D01*
X33226Y2848D01*
X33226Y2848D01*
X33511D01*
X33511Y2848D01*
Y2848D01*
X34069Y2617D01*
X34326Y2724D01*
X35212D01*
X35469Y2617D01*
X35726Y2724D01*
X36612D01*
X36869Y2617D01*
X37127Y2724D01*
X38013D01*
X38270Y2617D01*
X38527Y2724D01*
X39413D01*
X39670Y2617D01*
X39804Y2673D01*
X40374Y2103D01*
D01*
X41071Y1815D01*
D01*
Y1815D01*
X41599Y2033D01*
X42905Y727D01*
X42604Y0D01*
X9635D01*
X9198Y655D01*
X9681Y1821D01*
X9505Y2246D01*
X9943Y2901D01*
X18356D01*
X18838Y3101D01*
X18951Y3213D01*
X19723Y3059D01*
D02*
G37*
G36*
X44972Y2741D02*
X45372Y2341D01*
X45053Y1571D01*
X43841D01*
X43470Y2265D01*
X43741Y2671D01*
X43751Y2667D01*
X43751Y2667D01*
X43751D01*
X43872Y2617D01*
X43872Y2617D01*
X44429Y2848D01*
D01*
X44715D01*
D01*
X44715D01*
X44715Y2848D01*
X44715D01*
X44972Y2741D01*
D02*
G37*
G36*
X19705Y6545D02*
X19705D01*
Y5895D01*
X19601Y5792D01*
X19478Y5741D01*
X19514Y5705D01*
X18415Y4606D01*
X17632Y4683D01*
X17474Y4919D01*
X17604Y5235D01*
X17604D01*
X17635Y5310D01*
X17635D01*
X17664Y5379D01*
X17664Y5379D01*
D01*
D01*
D01*
D01*
D01*
D01*
X17423Y5485D01*
X17237Y5915D01*
D01*
D01*
X17237Y5915D01*
D01*
D01*
Y6506D01*
X17358Y6687D01*
X19705D01*
Y6545D01*
D02*
G37*
G36*
X24396Y4879D02*
X24094Y4151D01*
X22323D01*
X21624Y4850D01*
X21624D01*
X21522Y4893D01*
D01*
X21522D01*
X21161Y5108D01*
Y6545D01*
D01*
Y6545D01*
X21303Y6687D01*
X22588D01*
X24396Y4879D01*
D02*
G37*
G36*
X76677Y8211D02*
X76772Y7983D01*
Y0D01*
X75107D01*
X74827Y675D01*
D01*
D01*
X75327Y1880D01*
X74827Y3085D01*
X73622Y3584D01*
X73377Y4223D01*
X73377Y4223D01*
X73377Y4223D01*
Y4681D01*
X73950Y5254D01*
D01*
X74239Y5951D01*
Y5951D01*
X74239D01*
X74020Y6480D01*
X75905Y8365D01*
X76677Y8211D01*
D02*
G37*
G36*
X15155Y6506D02*
Y5915D01*
X15155Y5915D01*
X15155Y5915D01*
X15187Y5691D01*
X14728Y5379D01*
Y5379D01*
X14536Y5093D01*
X9731D01*
X9293Y5747D01*
X9363Y5915D01*
Y6506D01*
X9484Y6687D01*
X15034D01*
X15155Y6506D01*
D02*
G37*
G36*
X76772Y16344D02*
X75999Y16191D01*
X75775Y16732D01*
X74984Y17060D01*
X74193Y16732D01*
X74181Y16703D01*
X73409Y16549D01*
X73001Y16957D01*
X72579Y17132D01*
X70076D01*
X69990Y17097D01*
X69263Y17398D01*
X69221Y17499D01*
X69221D01*
X69221Y17499D01*
X69221Y17499D01*
X69221D01*
X69005Y17715D01*
X68583Y17890D01*
X66388D01*
X66388Y17890D01*
X65966Y17715D01*
X65966Y17715D01*
D01*
D01*
Y17715D01*
Y17715D01*
X65966D01*
X65555Y17304D01*
X64793Y16989D01*
X64066Y17290D01*
X63876Y17749D01*
X63755Y17799D01*
D01*
X63318Y17980D01*
X63061Y17873D01*
X62548D01*
X62439Y17828D01*
X62154Y17946D01*
X61853Y18674D01*
X61877Y18731D01*
X61646Y19289D01*
D01*
D01*
Y19289D01*
X61088Y19520D01*
X60968Y19470D01*
X60968D01*
X60968D01*
X60968D01*
X60968Y19470D01*
D01*
X60595Y19316D01*
X60558Y19331D01*
X60558Y19331D01*
Y19331D01*
X59546Y20343D01*
X59124Y20518D01*
X41821D01*
X41399Y20343D01*
X39923Y18866D01*
X39326Y18619D01*
Y18619D01*
X38974Y18267D01*
X38828D01*
X38645Y18399D01*
Y18399D01*
X38645Y18399D01*
X36315Y20729D01*
X36617Y21457D01*
X72145D01*
X72417Y20802D01*
D01*
D01*
X71918Y19596D01*
X72417Y18391D01*
X73622Y17892D01*
X74827Y18391D01*
X75327Y19596D01*
X74827Y20802D01*
Y20802D01*
Y20802D01*
X75099Y21457D01*
X76772D01*
Y16344D01*
D02*
G37*
G36*
X34059Y18325D02*
X33906Y17553D01*
X33790Y17505D01*
X32256D01*
X32159Y17465D01*
X30701D01*
X30444Y17572D01*
X29886Y17341D01*
X29780Y17084D01*
X29409Y16713D01*
X28626Y16790D01*
X28324Y17242D01*
X28362Y17333D01*
X27925Y18387D01*
X27217Y18680D01*
X27371Y19453D01*
X32932D01*
X34059Y18325D01*
D02*
G37*
G36*
X53096Y18144D02*
X52914Y17962D01*
X52714Y17480D01*
X52500Y17337D01*
X51746Y17566D01*
X51655Y17787D01*
X51455Y17587D01*
X50918Y17621D01*
Y17621D01*
X50918Y17621D01*
D01*
D01*
D01*
X50368Y17849D01*
X49818Y17621D01*
X49818Y17621D01*
Y17621D01*
X49694Y17495D01*
X49048Y17621D01*
Y17621D01*
X48624Y17797D01*
Y17797D01*
X48624Y17797D01*
X48498Y17849D01*
X48498Y17849D01*
X47948Y17621D01*
X47948Y17621D01*
X47948Y17621D01*
D01*
X47842Y17603D01*
X47191Y17835D01*
D01*
D01*
D01*
D01*
D01*
Y17835D01*
X47191D01*
X47191D01*
X47191D01*
X47191Y17835D01*
X46614Y18412D01*
X46705Y18872D01*
X52794D01*
X53096Y18144D01*
D02*
G37*
G36*
X43868Y18100D02*
X43569Y17976D01*
X43569Y17976D01*
Y17976D01*
Y17976D01*
X43569Y17976D01*
X43569Y17976D01*
X43334Y17813D01*
X42701Y18069D01*
X42622Y18323D01*
X43073Y18872D01*
X43714D01*
X43868Y18100D01*
D02*
G37*
G36*
X6674Y20802D02*
X6483Y20341D01*
X5894Y19753D01*
X5472Y19927D01*
X3346D01*
X3346Y19927D01*
X2925Y19753D01*
X2925Y19753D01*
X2925Y19753D01*
X2580Y19408D01*
X2405Y18986D01*
Y18860D01*
X2249Y18795D01*
X1937Y18041D01*
X1978Y17941D01*
X1978Y17134D01*
X1451Y16915D01*
X1047Y16512D01*
X829Y15984D01*
Y13701D01*
X1038Y13195D01*
X1008Y13165D01*
X790Y12638D01*
Y10496D01*
X1008Y9969D01*
X1583Y9394D01*
X1646Y9368D01*
Y9202D01*
X1646Y9202D01*
X1646D01*
X1318Y8411D01*
X1646Y7620D01*
X2437Y7292D01*
X2522Y7327D01*
X3176Y6890D01*
Y5432D01*
X2522Y4994D01*
X2437Y5029D01*
X1646Y4702D01*
X1318Y3911D01*
X1646Y3120D01*
X2437Y2792D01*
X3228Y3120D01*
X3271Y3224D01*
X4044Y3378D01*
X4321Y3101D01*
X4803Y2901D01*
X6010D01*
X6448Y2246D01*
X6272Y1821D01*
X6755Y655D01*
X6318Y0D01*
X0D01*
Y21457D01*
D01*
X0D01*
Y21457D01*
D01*
D01*
X0Y21457D01*
D01*
X6236D01*
X6674Y20802D01*
D02*
G37*
G36*
X36260Y19097D02*
X36397Y18768D01*
X35742Y18330D01*
X34884Y19188D01*
X34989Y19442D01*
X35762Y19595D01*
X36260Y19097D01*
D02*
G37*
G36*
X13677Y21205D02*
X13831Y20433D01*
X11436Y18038D01*
X9646D01*
X9209Y18692D01*
X9591Y19615D01*
X9099Y20802D01*
X9537Y21457D01*
X13069D01*
X13677Y21205D01*
D02*
G37*
G36*
X26523Y18680D02*
X25815Y18387D01*
X25379Y17333D01*
X25416Y17242D01*
X24979Y16587D01*
X21945D01*
X21508Y17242D01*
X21627Y17530D01*
Y18866D01*
X23043Y19453D01*
X26369D01*
X26523Y18680D01*
D02*
G37*
G36*
X15183Y14552D02*
X13163Y12532D01*
X9801D01*
X9551Y12636D01*
X9051D01*
X8530Y12984D01*
Y14403D01*
X8751Y14938D01*
X8751Y14938D01*
X8751Y14938D01*
X8979Y15279D01*
X14881D01*
X15183Y14552D01*
D02*
G37*
G36*
X29904Y12764D02*
X29904D01*
Y12764D01*
D01*
D01*
D01*
X29904D01*
X30218Y12511D01*
X29886Y12099D01*
X29886Y12099D01*
X29886Y12099D01*
D01*
X29886Y12099D01*
X29886D01*
D01*
D01*
X29656Y11541D01*
X29173Y11342D01*
X24201D01*
X22202Y13341D01*
X22503Y14069D01*
X25412D01*
X25563Y13843D01*
Y13343D01*
X25831Y12697D01*
X26476Y12429D01*
X27122Y12697D01*
X27390Y13343D01*
Y13843D01*
X27541Y14069D01*
X28599D01*
X29904Y12764D01*
D02*
G37*
G36*
X36668Y11935D02*
X36638Y11861D01*
X36638D01*
D01*
D01*
Y11861D01*
Y11861D01*
X36536Y11616D01*
Y11616D01*
X36478Y11475D01*
X36696Y10948D01*
X36838Y10889D01*
Y10889D01*
X36859Y10880D01*
X36910Y10625D01*
X36411Y10016D01*
X35620D01*
X35198Y9841D01*
X35198D01*
X35198D01*
X34622Y10080D01*
X34605Y10121D01*
X34502Y10164D01*
X34438Y10228D01*
X34591Y11000D01*
X34605Y11006D01*
X34836Y11564D01*
X34836Y11564D01*
Y11564D01*
X34682Y11935D01*
X35120Y12589D01*
X36231D01*
X36668Y11935D01*
D02*
G37*
G36*
X52068Y13243D02*
X52068Y13243D01*
X52068Y13243D01*
X52594Y13267D01*
X52371Y12729D01*
D01*
Y12729D01*
D01*
X52497Y12677D01*
D01*
X52960Y12485D01*
X52960D01*
X53068Y12441D01*
X53068Y12441D01*
X53331Y12691D01*
X53371Y12729D01*
X53371D01*
X53371Y12729D01*
X53636Y12619D01*
X56136Y10119D01*
X56558Y9945D01*
X58118D01*
X58295Y9516D01*
X57994Y8789D01*
X57568Y8613D01*
X57068Y8820D01*
X56568Y8613D01*
X56068Y8820D01*
X55568Y8613D01*
X55068Y8820D01*
X54568Y8613D01*
X54068Y8820D01*
X53568Y8613D01*
X53068Y8820D01*
X52568Y8613D01*
X52068Y8820D01*
X51568Y8613D01*
X51068Y8820D01*
X50568Y8613D01*
X50068Y8820D01*
X49568Y8613D01*
X49068Y8820D01*
X48790Y8705D01*
X48766Y8729D01*
X48749Y8688D01*
X48568Y8613D01*
X48068Y8820D01*
X47568Y8613D01*
X47068Y8820D01*
X46568Y8613D01*
X46068Y8820D01*
X45568Y8613D01*
X45068Y8820D01*
X44568Y8613D01*
X44068Y8820D01*
X43568Y8613D01*
X43068Y8820D01*
X42861Y9320D01*
X43178Y10084D01*
X44490Y11396D01*
X44490Y11396D01*
X44665Y11818D01*
Y12378D01*
X45193Y12907D01*
X45193Y12907D01*
X45387Y13375D01*
X45568Y13450D01*
X46068Y13243D01*
X46568Y13450D01*
X47068Y13243D01*
X47568Y13450D01*
X48068Y13243D01*
X48568Y13450D01*
X49068Y13243D01*
X49568Y13450D01*
X50068Y13243D01*
X50346Y13358D01*
X50370Y13334D01*
X50387Y13375D01*
X50568Y13450D01*
X51068Y13243D01*
X51568Y13450D01*
X52068Y13243D01*
D02*
G37*
G36*
X36146Y16239D02*
X35972Y15471D01*
X35657Y15359D01*
X35120Y15896D01*
X35120Y15896D01*
X35108Y15902D01*
D01*
X34989Y15988D01*
X35157Y16757D01*
X35549Y16835D01*
X36146Y16239D01*
D02*
G37*
G36*
X76772Y15538D02*
Y14215D01*
X76225Y13989D01*
X75617Y14488D01*
X75746Y15138D01*
X75775Y15150D01*
X75999Y15691D01*
X76772Y15538D01*
D02*
G37*
G36*
X33490Y15381D02*
D01*
D01*
X33259Y14824D01*
X33419Y14437D01*
X32982Y13782D01*
X31526D01*
X31089Y14437D01*
X31232Y14784D01*
X31001Y15341D01*
Y15341D01*
Y15341D01*
X31259Y15962D01*
X31398Y16102D01*
X32216D01*
X32313Y16142D01*
X33175D01*
X33490Y15381D01*
D02*
G37*
D10*
X67275Y4478D02*
G03*
X67615Y4619I0J481D01*
G01*
X67838D02*
G03*
X68178Y4478I340J340D01*
G01*
X34500Y14672D02*
G03*
X34073Y14728I-281J-487D01*
G01*
X34117Y14893D02*
G03*
X35108Y14483I990J990D01*
G01*
X34500Y14672D02*
G03*
X34073Y14728I-281J-487D01*
G01*
X62161Y6983D02*
G03*
X61741Y5971I1012J-1012D01*
G01*
X61594Y6057D02*
G03*
X61856Y6398I-281J487D01*
G01*
X61594Y6057D02*
G03*
X61856Y6398I-281J487D01*
G01*
X59728Y4246D02*
G03*
X60070Y3984I487J281D01*
G01*
X60683Y3667D02*
G03*
X59643Y4098I-1040J-1040D01*
G01*
X61558Y4147D02*
G03*
X61216Y4409I-487J-281D01*
G01*
X60899Y4603D02*
G03*
X61643Y4295I744J744D01*
G01*
X61558Y4147D02*
G03*
X61216Y4409I-487J-281D01*
G01*
X20433Y5404D02*
G03*
X19996Y5223I0J-618D01*
G01*
X16441Y5955D02*
G03*
X16196Y5379I553J-576D01*
G01*
D02*
G03*
X15950Y5955I-799J0D01*
G01*
X42422Y3491D02*
G03*
X42684Y3832I-281J487D01*
G01*
X42800Y3961D02*
G03*
X42570Y3405I556J-556D01*
G01*
X42422Y3491D02*
G03*
X42684Y3832I-281J487D01*
G01*
X56338Y16160D02*
G03*
X57009Y16438I0J948D01*
G01*
X56722Y16263D02*
G03*
X56415Y16027I131J-489D01*
G01*
X56722Y16263D02*
G03*
X56415Y16027I131J-489D01*
G01*
X17668Y17523D02*
G03*
X18275Y17513I313J542D01*
G01*
X18228Y17200D02*
G03*
X17194Y17628I-1034J-1034D01*
G01*
X17668Y17523D02*
G03*
X18275Y17513I313J542D01*
G01*
X18564Y16000D02*
G03*
X18703Y15664I475J0D01*
G01*
X18703Y15664D02*
G03*
X18367Y15804I-336J-336D01*
G01*
X20100Y16670D02*
G03*
X20239Y16334I475J0D01*
G01*
X20239Y16334D02*
G03*
X19903Y16473I-336J-336D01*
G01*
Y16867D02*
G03*
X20550Y17135I0J915D01*
G01*
X67275Y4478D02*
G03*
X67615Y4619I0J481D01*
G01*
X67838D02*
G03*
X68178Y4478I340J340D01*
G01*
X34117Y14893D02*
G03*
X35108Y14483I990J990D01*
G01*
X34500Y14672D02*
G03*
X34073Y14728I-281J-487D01*
G01*
X62161Y6983D02*
G03*
X61741Y5971I1012J-1012D01*
G01*
X61594Y6057D02*
G03*
X61856Y6398I-281J487D01*
G01*
X60683Y3667D02*
G03*
X59643Y4098I-1040J-1040D01*
G01*
X60899Y4603D02*
G03*
X61643Y4295I744J744D01*
G01*
X61558Y4147D02*
G03*
X61216Y4409I-487J-281D01*
G01*
X20433Y5404D02*
G03*
X19996Y5223I0J-618D01*
G01*
X16441Y5955D02*
G03*
X16196Y5379I553J-576D01*
G01*
D02*
G03*
X15950Y5955I-799J0D01*
G01*
X42800Y3961D02*
G03*
X42570Y3405I556J-556D01*
G01*
X42422Y3491D02*
G03*
X42684Y3832I-281J487D01*
G01*
X56338Y16160D02*
G03*
X57009Y16438I0J948D01*
G01*
X56722Y16263D02*
G03*
X56415Y16027I131J-489D01*
G01*
X18228Y17200D02*
G03*
X17194Y17628I-1034J-1034D01*
G01*
X17668Y17523D02*
G03*
X18275Y17513I313J542D01*
G01*
X18564Y16000D02*
G03*
X18703Y15664I475J0D01*
G01*
X18703Y15664D02*
G03*
X18367Y15804I-336J-336D01*
G01*
X20100Y16670D02*
G03*
X20239Y16334I475J0D01*
G01*
X20239Y16334D02*
G03*
X19903Y16473I-336J-336D01*
G01*
Y16867D02*
G03*
X20550Y17135I0J915D01*
G01*
X34117Y14893D02*
G03*
X35108Y14483I990J990D01*
G01*
X62161Y6983D02*
G03*
X61741Y5971I1012J-1012D01*
G01*
X60899Y4603D02*
G03*
X61643Y4295I744J744D01*
G01*
X20433Y5404D02*
G03*
X19996Y5223I0J-618D01*
G01*
X16441Y5955D02*
G03*
X16196Y5379I553J-576D01*
G01*
D02*
G03*
X15950Y5955I-799J0D01*
G01*
X42800Y3961D02*
G03*
X42570Y3405I556J-556D01*
G01*
X56338Y16160D02*
G03*
X57009Y16438I0J948D01*
G01*
X18228Y17200D02*
G03*
X17194Y17628I-1034J-1034D01*
G01*
X18564Y16000D02*
G03*
X18703Y15664I475J0D01*
G01*
X18703Y15664D02*
G03*
X18367Y15804I-336J-336D01*
G01*
X20100Y16670D02*
G03*
X20239Y16334I475J0D01*
G01*
X20239Y16334D02*
G03*
X19903Y16473I-336J-336D01*
G01*
Y16867D02*
G03*
X20550Y17135I0J915D01*
G01*
X64321Y4478D02*
X69331D01*
X63159Y3317D02*
X64321Y4478D01*
X61033Y3317D02*
X63159D01*
X60154Y4196D02*
X61033Y3317D01*
X59643Y4196D02*
X60154D01*
X70886Y11378D02*
X71921D01*
X69392Y12871D02*
X70886Y11378D01*
X67088Y12871D02*
X69392D01*
X68917Y5502D02*
X71367Y7951D01*
X64016Y5502D02*
X68917D01*
X62710Y4196D02*
X64016Y5502D01*
X69331Y4478D02*
X71804Y6951D01*
X72648D01*
X71367Y7951D02*
X72648D01*
X61643Y4196D02*
X62710D01*
X20283Y19528D02*
X20945Y18866D01*
X16254Y19528D02*
X20283D01*
X15354Y18628D02*
X16254Y19528D01*
X47486Y15059D02*
X48498Y16071D01*
X42424Y15059D02*
X47486D01*
X41847Y15636D02*
X42424Y15059D01*
X63379Y8201D02*
X64088D01*
X61643Y6466D02*
X63379Y8201D01*
X61643Y5971D02*
Y6466D01*
X61306Y4196D02*
X61643D01*
X60285Y5217D02*
X61306Y4196D01*
X57842Y5217D02*
X60285D01*
X56767Y4141D02*
X57842Y5217D01*
X58747Y1526D02*
X59643Y2421D01*
X55663Y1526D02*
X58747D01*
X54767Y2421D02*
X55663Y1526D01*
X45266Y5659D02*
X50696D01*
X43683Y4076D02*
X45266Y5659D01*
X42915Y4076D02*
X43683D01*
X42471Y3633D02*
X42915Y4076D01*
X42471Y3405D02*
Y3633D01*
X41743Y4134D02*
X42471Y3405D01*
X40399Y4134D02*
X41743D01*
X39670Y3405D02*
X40399Y4134D01*
X50696Y5659D02*
X53068Y8031D01*
X71921Y11378D02*
X72484Y11941D01*
X52720Y15620D02*
X53396Y16296D01*
X50820Y15620D02*
X52720D01*
X50368Y16071D02*
X50820Y15620D01*
X53396Y17480D02*
X53996Y18081D01*
X53396Y16296D02*
Y17480D01*
X53996Y18081D02*
X56501D01*
X57156Y17426D01*
Y16585D02*
Y17426D01*
X56642Y16071D02*
X57156Y16585D01*
X56338Y16071D02*
X56642D01*
X20945Y17530D02*
Y18866D01*
X20085Y16670D02*
X20945Y17530D01*
X19903Y16670D02*
X20085D01*
X16196Y5379D02*
Y6211D01*
X30444Y11541D02*
X30466Y11564D01*
X29566Y15906D02*
X30444Y16784D01*
X20667Y15906D02*
X29566D01*
X19903Y16670D02*
X20667Y15906D01*
X19102Y15266D02*
X29962D01*
X18367Y16000D02*
X19102Y15266D01*
X29962D02*
X30444Y14784D01*
X18012Y17628D02*
X18179Y17461D01*
X3858Y7423D02*
X4346Y7911D01*
X65532Y11315D02*
X67088Y12871D01*
X64088Y11315D02*
X65532D01*
X52695Y2421D02*
X54767D01*
X52294Y2823D02*
X52695Y2421D01*
X34388Y14483D02*
X37224D01*
X34048Y14824D02*
X34388Y14483D01*
X61088Y15731D02*
X62548Y17191D01*
X63318D01*
X41847Y15636D02*
Y16410D01*
X42508Y17071D01*
X15354Y17628D02*
X18012D01*
X45854Y2823D02*
X47624D01*
X45272Y3405D02*
X45854Y2823D01*
X41071Y6405D02*
X41790Y5686D01*
X43152D01*
X43872Y6405D01*
X32256Y16824D02*
X34048D01*
X32216Y16784D02*
X32256Y16824D01*
X30444Y16784D02*
X32216D01*
X38270Y3405D02*
X39670D01*
X36869D02*
X38270D01*
X35469D02*
X36869D01*
X34069D02*
X35469D01*
X50737Y2823D02*
X52294D01*
X47624D02*
X49180D01*
X50737D01*
X48498Y16071D02*
X50368D01*
X30466Y11564D02*
X34048D01*
X4346Y7911D02*
X4937D01*
X3858Y4528D02*
Y7423D01*
X4937Y5911D02*
Y6911D01*
Y7911D01*
X5937Y4411D02*
X15228D01*
X16196Y5379D01*
X3858Y4528D02*
X4803Y3583D01*
X18356D01*
X20433Y5659D01*
D11*
X68208Y9163D02*
G03*
X67979Y9068I0J-324D01*
G01*
X69295Y9078D02*
G03*
X69089Y9163I-205J-205D01*
G01*
X69295Y9078D02*
G03*
X69089Y9163I-205J-205D01*
G01*
X68680Y16495D02*
G03*
X68799Y16663I-59J169D01*
G01*
X68645Y16473D02*
G03*
X68799Y16845I-372J372D01*
G01*
X6034Y5508D02*
G03*
X6270Y5411I235J235D01*
G01*
D02*
G03*
X6034Y5313I0J-333D01*
G01*
X5937Y7549D02*
G03*
X6172Y7646I0J333D01*
G01*
D02*
G03*
X6075Y7411I235J-235D01*
G01*
X43872Y3583D02*
G03*
X44487Y3838I0J871D01*
G01*
X41248Y3405D02*
G03*
X41373Y3103I428J0D01*
G01*
X41373Y3103D02*
G03*
X41071Y3228I-302J-302D01*
G01*
X36869Y6583D02*
G03*
X37172Y6708I0J428D01*
G01*
X37172Y6708D02*
G03*
X37047Y6405I302J-302D01*
G01*
X32533Y6431D02*
G03*
X32650Y6051I418J-79D01*
G01*
X32842Y6372D02*
G03*
X33071Y5630I816J-155D01*
G01*
X32780Y6268D02*
G03*
X32668Y6033I192J-235D01*
G01*
D02*
G03*
X32556Y6268I-304J0D01*
G01*
X52431Y3823D02*
G03*
X52529Y3588I333J0D01*
G01*
D02*
G03*
X52294Y3685I-235J-235D01*
G01*
X50439Y4420D02*
G03*
X50806Y3942I760J204D01*
G01*
X50606Y3865D02*
G03*
X50518Y4230I-343J111D01*
G01*
X50914Y3823D02*
G03*
X50742Y4238I-587J0D01*
G01*
X50599Y3823D02*
G03*
X50204Y4776I-1348J0D01*
G01*
X50439Y4420D02*
G03*
X50806Y3942I760J204D01*
G01*
X50639Y3920D02*
G03*
X50737Y4156I-235J235D01*
G01*
D02*
G03*
X50834Y3920I333J0D01*
G01*
X42508Y16239D02*
G03*
X42794Y16357I0J404D01*
G01*
D02*
G03*
X42676Y16071I286J-286D01*
G01*
X44601Y16571D02*
G03*
X44709Y16311I368J0D01*
G01*
D02*
G03*
X44448Y16419I-260J-260D01*
G01*
X46296Y16571D02*
G03*
X46188Y16832I-368J0D01*
G01*
D02*
G03*
X46448Y16724I260J260D01*
G01*
X60963Y16606D02*
G03*
X60660Y16731I-302J-302D01*
G01*
D02*
G03*
X60963Y16857I0J428D01*
G01*
X60911Y17731D02*
G03*
X60786Y18034I-428J0D01*
G01*
X60786Y18034D02*
G03*
X61088Y17909I302J302D01*
G01*
X58265Y15731D02*
G03*
X58391Y15429I428J0D01*
G01*
X58391Y15429D02*
G03*
X58088Y15554I-302J-302D01*
G01*
Y16554D02*
G03*
X57786Y16429I0J-428D01*
G01*
X57786Y16429D02*
G03*
X57911Y16731I-302J302D01*
G01*
X54288Y16749D02*
G03*
X54591Y16874I0J428D01*
G01*
X54591Y16874D02*
G03*
X54465Y16571I302J-302D01*
G01*
X54413Y16446D02*
G03*
X54288Y16144I302J-302D01*
G01*
D02*
G03*
X54163Y16446I-428J0D01*
G01*
X51856Y16624D02*
G03*
X52149Y16680I114J197D01*
G01*
X52163Y16446D02*
G03*
X51543Y16703I-619J-619D01*
G01*
X51856Y16624D02*
G03*
X52149Y16680I114J197D01*
G01*
X45397Y6531D02*
G03*
X45700Y6405I302J302D01*
G01*
D02*
G03*
X45397Y6280I0J-428D01*
G01*
X45272Y6228D02*
G03*
X44603Y5951I0J-947D01*
G01*
X30319Y9416D02*
G03*
X30016Y9541I-302J-302D01*
G01*
D02*
G03*
X30319Y9667I0J428D01*
G01*
X63436Y15310D02*
G03*
X63722Y15191I286J286D01*
G01*
D02*
G03*
X63436Y15073I0J-404D01*
G01*
X61768Y2547D02*
G03*
X62071Y2421I302J302D01*
G01*
D02*
G03*
X61768Y2296I0J-428D01*
G01*
X18650Y9904D02*
G03*
X18775Y9601I428J0D01*
G01*
X18775Y9601D02*
G03*
X18472Y9726I-302J-302D01*
G01*
X18347Y11778D02*
G03*
X18045Y11904I-302J-302D01*
G01*
D02*
G03*
X18347Y12029I0J428D01*
G01*
X72661Y13941D02*
G03*
X72787Y13639I428J0D01*
G01*
X72787Y13639D02*
G03*
X72484Y13764I-302J-302D01*
G01*
X71307Y13441D02*
G03*
X71182Y13743I-428J0D01*
G01*
X71182Y13743D02*
G03*
X71484Y13618I302J302D01*
G01*
X72661Y14941D02*
G03*
X72787Y14639I428J0D01*
G01*
X72787Y14639D02*
G03*
X72484Y14764I-302J-302D01*
G01*
X71307Y12441D02*
G03*
X71182Y12743I-428J0D01*
G01*
X71182Y12743D02*
G03*
X71484Y12618I302J302D01*
G01*
X33943Y6531D02*
G03*
X34069Y6833I-302J302D01*
G01*
D02*
G03*
X34194Y6531I428J0D01*
G01*
X59937Y14072D02*
G03*
X60035Y13676I377J-117D01*
G01*
X60237Y13979D02*
G03*
X60404Y13307I640J-198D01*
G01*
X60148Y13556D02*
G03*
X59971Y13883I-391J0D01*
G01*
X54245Y14031D02*
G03*
X54371Y13729I428J0D01*
G01*
X54371Y13729D02*
G03*
X54068Y13854I-302J-302D01*
G01*
X53245Y14031D02*
G03*
X53371Y13729I428J0D01*
G01*
X53371Y13729D02*
G03*
X53068Y13854I-302J-302D01*
G01*
X49068Y14209D02*
G03*
X49371Y14334I0J428D01*
G01*
X49371Y14334D02*
G03*
X49245Y14031I302J-302D01*
G01*
X44193Y13906D02*
G03*
X44068Y13604I302J-302D01*
G01*
D02*
G03*
X43943Y13906I-428J0D01*
G01*
X60245Y8031D02*
G03*
X60371Y7729I428J0D01*
G01*
X60371Y7729D02*
G03*
X60068Y7854I-302J-302D01*
G01*
X50068D02*
G03*
X49766Y7729I0J-428D01*
G01*
X49766Y7729D02*
G03*
X49891Y8031I-302J302D01*
G01*
X44068Y7854D02*
G03*
X43766Y7729I0J-428D01*
G01*
X43766Y7729D02*
G03*
X43891Y8031I-302J302D01*
G01*
X41943Y7906D02*
G03*
X41640Y8031I-302J-302D01*
G01*
D02*
G03*
X41943Y8157I0J428D01*
G01*
X39745Y6566D02*
G03*
X40061Y6647I108J233D01*
G01*
X39745Y6566D02*
G03*
X40061Y6647I108J233D01*
G01*
X39921Y6742D02*
G03*
X39842Y6450I215J-215D01*
G01*
X39962Y6742D02*
G03*
X39542Y6456I0J-451D01*
G01*
X40423Y6742D02*
G03*
X39835Y6341I0J-631D01*
G01*
X50535Y17071D02*
G03*
X50654Y16786I404J0D01*
G01*
D02*
G03*
X50368Y16904I-286J-286D01*
G01*
X56220Y16953D02*
G03*
X55934Y17071I-286J-286D01*
G01*
D02*
G03*
X56220Y17190I0J404D01*
G01*
X48498Y16904D02*
G03*
X48213Y16786I0J-404D01*
G01*
D02*
G03*
X48331Y17071I-286J286D01*
G01*
X39224Y11337D02*
G03*
X38988Y11240I0J-333D01*
G01*
D02*
G03*
X39086Y11475I-235J235D01*
G01*
X38126Y17614D02*
G03*
X38224Y17849I-235J235D01*
G01*
D02*
G03*
X38321Y17614I333J0D01*
G01*
X72648Y6129D02*
G03*
X72951Y6254I0J428D01*
G01*
X72951Y6254D02*
G03*
X72825Y5951I302J-302D01*
G01*
X2719Y18369D02*
G03*
X3002Y18986I-531J617D01*
G01*
D02*
G03*
X3285Y18369I814J0D01*
G01*
X6047Y16634D02*
G03*
X5251Y16304I0J-1125D01*
G01*
X6807Y16634D02*
G03*
X5474Y16082I0J-1886D01*
G01*
X4792Y16172D02*
G03*
X4419Y16388I-372J-214D01*
G01*
D02*
G03*
X4792Y16603I0J429D01*
G01*
X5295Y16538D02*
G03*
X4538Y16507I-361J-426D01*
G01*
X5091Y16298D02*
G03*
X4297Y16265I-379J-447D01*
G01*
X4887Y16058D02*
G03*
X4055Y16024I-398J-468D01*
G01*
X5526Y15263D02*
G03*
X4990Y14820I216J-806D01*
G01*
X6189Y15441D02*
G03*
X5274Y14683I369J-1378D01*
G01*
X5167Y14852D02*
G03*
X6024Y15207I0J1212D01*
G01*
X5167Y15167D02*
G03*
X6562Y15745I0J1972D01*
G01*
X5989Y14405D02*
G03*
X5197Y14620I-584J-584D01*
G01*
X6378Y14016D02*
G03*
X5276Y14315I-812J-812D01*
G01*
X5384Y15109D02*
G03*
X5882Y15044I328J568D01*
G01*
X5027Y14596D02*
G03*
X5699Y14312I679J669D01*
G01*
X5352Y13149D02*
G03*
X4861Y13596I-677J-252D01*
G01*
X5057Y13040D02*
G03*
X4272Y13754I-1083J-402D01*
G01*
X4734Y13081D02*
G03*
X4581Y13450I-523J0D01*
G01*
X4596Y13435D02*
G03*
X5167Y13199I571J571D01*
G01*
X4058Y13973D02*
G03*
X5167Y13514I1109J1109D01*
G01*
X5553Y11625D02*
G03*
X5876Y11427I323J166D01*
G01*
D02*
G03*
X5553Y11230I0J-363D01*
G01*
X5068Y11257D02*
G03*
X5801Y11352I305J522D01*
G01*
X5227Y11529D02*
G03*
X6089Y11640I359J615D01*
G01*
X5386Y11801D02*
G03*
X6378Y11929I413J707D01*
G01*
X68208Y9163D02*
G03*
X67979Y9068I0J-324D01*
G01*
X69295Y9078D02*
G03*
X69089Y9163I-205J-205D01*
G01*
X69295Y9078D02*
G03*
X69089Y9163I-205J-205D01*
G01*
X68680Y16495D02*
G03*
X68799Y16663I-59J169D01*
G01*
X68645Y16473D02*
G03*
X68799Y16845I-372J372D01*
G01*
X6034Y5508D02*
G03*
X6270Y5411I235J235D01*
G01*
D02*
G03*
X6034Y5313I0J-333D01*
G01*
X5937Y7549D02*
G03*
X6172Y7646I0J333D01*
G01*
D02*
G03*
X6075Y7411I235J-235D01*
G01*
X43872Y3583D02*
G03*
X44487Y3838I0J871D01*
G01*
X41248Y3405D02*
G03*
X41373Y3103I428J0D01*
G01*
X41373Y3103D02*
G03*
X41071Y3228I-302J-302D01*
G01*
X36869Y6583D02*
G03*
X37172Y6708I0J428D01*
G01*
X37172Y6708D02*
G03*
X37047Y6405I302J-302D01*
G01*
X32533Y6431D02*
G03*
X32650Y6051I418J-79D01*
G01*
X32842Y6372D02*
G03*
X33071Y5630I816J-155D01*
G01*
X32780Y6268D02*
G03*
X32668Y6033I192J-235D01*
G01*
D02*
G03*
X32556Y6268I-304J0D01*
G01*
X52431Y3823D02*
G03*
X52529Y3588I333J0D01*
G01*
D02*
G03*
X52294Y3685I-235J-235D01*
G01*
X50914Y3823D02*
G03*
X50742Y4238I-587J0D01*
G01*
X50599Y3823D02*
G03*
X50204Y4776I-1348J0D01*
G01*
X50439Y4420D02*
G03*
X50806Y3942I760J204D01*
G01*
X50639Y3920D02*
G03*
X50737Y4156I-235J235D01*
G01*
D02*
G03*
X50834Y3920I333J0D01*
G01*
X42508Y16239D02*
G03*
X42794Y16357I0J404D01*
G01*
D02*
G03*
X42676Y16071I286J-286D01*
G01*
X44601Y16571D02*
G03*
X44709Y16311I368J0D01*
G01*
D02*
G03*
X44448Y16419I-260J-260D01*
G01*
X46296Y16571D02*
G03*
X46188Y16832I-368J0D01*
G01*
D02*
G03*
X46448Y16724I260J260D01*
G01*
X60963Y16606D02*
G03*
X60660Y16731I-302J-302D01*
G01*
D02*
G03*
X60963Y16857I0J428D01*
G01*
X60911Y17731D02*
G03*
X60786Y18034I-428J0D01*
G01*
X60786Y18034D02*
G03*
X61088Y17909I302J302D01*
G01*
X58265Y15731D02*
G03*
X58391Y15429I428J0D01*
G01*
X58391Y15429D02*
G03*
X58088Y15554I-302J-302D01*
G01*
Y16554D02*
G03*
X57786Y16429I0J-428D01*
G01*
X57786Y16429D02*
G03*
X57911Y16731I-302J302D01*
G01*
X54288Y16749D02*
G03*
X54591Y16874I0J428D01*
G01*
X54591Y16874D02*
G03*
X54465Y16571I302J-302D01*
G01*
X54413Y16446D02*
G03*
X54288Y16144I302J-302D01*
G01*
D02*
G03*
X54163Y16446I-428J0D01*
G01*
X52163D02*
G03*
X51543Y16703I-619J-619D01*
G01*
X51856Y16624D02*
G03*
X52149Y16680I114J197D01*
G01*
X45397Y6531D02*
G03*
X45700Y6405I302J302D01*
G01*
D02*
G03*
X45397Y6280I0J-428D01*
G01*
X45272Y6228D02*
G03*
X44603Y5951I0J-947D01*
G01*
X30319Y9416D02*
G03*
X30016Y9541I-302J-302D01*
G01*
D02*
G03*
X30319Y9667I0J428D01*
G01*
X63436Y15310D02*
G03*
X63722Y15191I286J286D01*
G01*
D02*
G03*
X63436Y15073I0J-404D01*
G01*
X61768Y2547D02*
G03*
X62071Y2421I302J302D01*
G01*
D02*
G03*
X61768Y2296I0J-428D01*
G01*
X18650Y9904D02*
G03*
X18775Y9601I428J0D01*
G01*
X18775Y9601D02*
G03*
X18472Y9726I-302J-302D01*
G01*
X18347Y11778D02*
G03*
X18045Y11904I-302J-302D01*
G01*
D02*
G03*
X18347Y12029I0J428D01*
G01*
X72661Y13941D02*
G03*
X72787Y13639I428J0D01*
G01*
X72787Y13639D02*
G03*
X72484Y13764I-302J-302D01*
G01*
X71307Y13441D02*
G03*
X71182Y13743I-428J0D01*
G01*
X71182Y13743D02*
G03*
X71484Y13618I302J302D01*
G01*
X72661Y14941D02*
G03*
X72787Y14639I428J0D01*
G01*
X72787Y14639D02*
G03*
X72484Y14764I-302J-302D01*
G01*
X71307Y12441D02*
G03*
X71182Y12743I-428J0D01*
G01*
X71182Y12743D02*
G03*
X71484Y12618I302J302D01*
G01*
X33943Y6531D02*
G03*
X34069Y6833I-302J302D01*
G01*
D02*
G03*
X34194Y6531I428J0D01*
G01*
X59937Y14072D02*
G03*
X60035Y13676I377J-117D01*
G01*
X60237Y13979D02*
G03*
X60404Y13307I640J-198D01*
G01*
X60148Y13556D02*
G03*
X59971Y13883I-391J0D01*
G01*
X54245Y14031D02*
G03*
X54371Y13729I428J0D01*
G01*
X54371Y13729D02*
G03*
X54068Y13854I-302J-302D01*
G01*
X53245Y14031D02*
G03*
X53371Y13729I428J0D01*
G01*
X53371Y13729D02*
G03*
X53068Y13854I-302J-302D01*
G01*
X49068Y14209D02*
G03*
X49371Y14334I0J428D01*
G01*
X49371Y14334D02*
G03*
X49245Y14031I302J-302D01*
G01*
X44193Y13906D02*
G03*
X44068Y13604I302J-302D01*
G01*
D02*
G03*
X43943Y13906I-428J0D01*
G01*
X60245Y8031D02*
G03*
X60371Y7729I428J0D01*
G01*
X60371Y7729D02*
G03*
X60068Y7854I-302J-302D01*
G01*
X50068D02*
G03*
X49766Y7729I0J-428D01*
G01*
X49766Y7729D02*
G03*
X49891Y8031I-302J302D01*
G01*
X44068Y7854D02*
G03*
X43766Y7729I0J-428D01*
G01*
X43766Y7729D02*
G03*
X43891Y8031I-302J302D01*
G01*
X41943Y7906D02*
G03*
X41640Y8031I-302J-302D01*
G01*
D02*
G03*
X41943Y8157I0J428D01*
G01*
X39745Y6566D02*
G03*
X40061Y6647I108J233D01*
G01*
X39921Y6742D02*
G03*
X39842Y6450I215J-215D01*
G01*
X39962Y6742D02*
G03*
X39542Y6456I0J-451D01*
G01*
X40423Y6742D02*
G03*
X39835Y6341I0J-631D01*
G01*
X50535Y17071D02*
G03*
X50654Y16786I404J0D01*
G01*
D02*
G03*
X50368Y16904I-286J-286D01*
G01*
X56220Y16953D02*
G03*
X55934Y17071I-286J-286D01*
G01*
D02*
G03*
X56220Y17190I0J404D01*
G01*
X48498Y16904D02*
G03*
X48213Y16786I0J-404D01*
G01*
D02*
G03*
X48331Y17071I-286J286D01*
G01*
X39224Y11337D02*
G03*
X38988Y11240I0J-333D01*
G01*
D02*
G03*
X39086Y11475I-235J235D01*
G01*
X38126Y17614D02*
G03*
X38224Y17849I-235J235D01*
G01*
D02*
G03*
X38321Y17614I333J0D01*
G01*
X72648Y6129D02*
G03*
X72951Y6254I0J428D01*
G01*
X72951Y6254D02*
G03*
X72825Y5951I302J-302D01*
G01*
X2719Y18369D02*
G03*
X3002Y18986I-531J617D01*
G01*
D02*
G03*
X3285Y18369I814J0D01*
G01*
X6047Y16634D02*
G03*
X5251Y16304I0J-1125D01*
G01*
X6807Y16634D02*
G03*
X5474Y16082I0J-1886D01*
G01*
X4792Y16172D02*
G03*
X4419Y16388I-372J-214D01*
G01*
D02*
G03*
X4792Y16603I0J429D01*
G01*
X5295Y16538D02*
G03*
X4538Y16507I-361J-426D01*
G01*
X5091Y16298D02*
G03*
X4297Y16265I-379J-447D01*
G01*
X4887Y16058D02*
G03*
X4055Y16024I-398J-468D01*
G01*
X5167Y14852D02*
G03*
X6024Y15207I0J1212D01*
G01*
X5167Y15167D02*
G03*
X6562Y15745I0J1972D01*
G01*
X5989Y14405D02*
G03*
X5197Y14620I-584J-584D01*
G01*
X6378Y14016D02*
G03*
X5276Y14315I-812J-812D01*
G01*
X4734Y13081D02*
G03*
X4581Y13450I-523J0D01*
G01*
X4596Y13435D02*
G03*
X5167Y13199I571J571D01*
G01*
X4058Y13973D02*
G03*
X5167Y13514I1109J1109D01*
G01*
X5553Y11625D02*
G03*
X5876Y11427I323J166D01*
G01*
D02*
G03*
X5553Y11230I0J-363D01*
G01*
X5068Y11257D02*
G03*
X5801Y11352I305J522D01*
G01*
X5227Y11529D02*
G03*
X6089Y11640I359J615D01*
G01*
X5386Y11801D02*
G03*
X6378Y11929I413J707D01*
G01*
X43872Y3583D02*
G03*
X44487Y3838I0J871D01*
G01*
X41248Y3405D02*
G03*
X41373Y3103I428J0D01*
G01*
X41373Y3103D02*
G03*
X41071Y3228I-302J-302D01*
G01*
X36869Y6583D02*
G03*
X37172Y6708I0J428D01*
G01*
X37172Y6708D02*
G03*
X37047Y6405I302J-302D01*
G01*
X32533Y6431D02*
G03*
X32650Y6051I418J-79D01*
G01*
X32842Y6372D02*
G03*
X33071Y5630I816J-155D01*
G01*
X32780Y6268D02*
G03*
X32668Y6033I192J-235D01*
G01*
D02*
G03*
X32556Y6268I-304J0D01*
G01*
X52431Y3823D02*
G03*
X52529Y3588I333J0D01*
G01*
D02*
G03*
X52294Y3685I-235J-235D01*
G01*
X50914Y3823D02*
G03*
X50742Y4238I-587J0D01*
G01*
X50599Y3823D02*
G03*
X50204Y4776I-1348J0D01*
G01*
X50639Y3920D02*
G03*
X50737Y4156I-235J235D01*
G01*
D02*
G03*
X50834Y3920I333J0D01*
G01*
X42508Y16239D02*
G03*
X42794Y16357I0J404D01*
G01*
D02*
G03*
X42676Y16071I286J-286D01*
G01*
X44601Y16571D02*
G03*
X44709Y16311I368J0D01*
G01*
D02*
G03*
X44448Y16419I-260J-260D01*
G01*
X46296Y16571D02*
G03*
X46188Y16832I-368J0D01*
G01*
D02*
G03*
X46448Y16724I260J260D01*
G01*
X60963Y16606D02*
G03*
X60660Y16731I-302J-302D01*
G01*
D02*
G03*
X60963Y16857I0J428D01*
G01*
X58265Y15731D02*
G03*
X58391Y15429I428J0D01*
G01*
X58391Y15429D02*
G03*
X58088Y15554I-302J-302D01*
G01*
Y16554D02*
G03*
X57786Y16429I0J-428D01*
G01*
X57786Y16429D02*
G03*
X57911Y16731I-302J302D01*
G01*
X54288Y16749D02*
G03*
X54591Y16874I0J428D01*
G01*
X54591Y16874D02*
G03*
X54465Y16571I302J-302D01*
G01*
X54413Y16446D02*
G03*
X54288Y16144I302J-302D01*
G01*
D02*
G03*
X54163Y16446I-428J0D01*
G01*
X52163D02*
G03*
X51543Y16703I-619J-619D01*
G01*
X45397Y6531D02*
G03*
X45700Y6405I302J302D01*
G01*
D02*
G03*
X45397Y6280I0J-428D01*
G01*
X45272Y6228D02*
G03*
X44603Y5951I0J-947D01*
G01*
X30319Y9416D02*
G03*
X30016Y9541I-302J-302D01*
G01*
D02*
G03*
X30319Y9667I0J428D01*
G01*
X18650Y9904D02*
G03*
X18775Y9601I428J0D01*
G01*
X18775Y9601D02*
G03*
X18472Y9726I-302J-302D01*
G01*
X18347Y11778D02*
G03*
X18045Y11904I-302J-302D01*
G01*
D02*
G03*
X18347Y12029I0J428D01*
G01*
X72661Y13941D02*
G03*
X72787Y13639I428J0D01*
G01*
X72787Y13639D02*
G03*
X72484Y13764I-302J-302D01*
G01*
X71307Y13441D02*
G03*
X71182Y13743I-428J0D01*
G01*
X71182Y13743D02*
G03*
X71484Y13618I302J302D01*
G01*
X72661Y14941D02*
G03*
X72787Y14639I428J0D01*
G01*
X72787Y14639D02*
G03*
X72484Y14764I-302J-302D01*
G01*
X71307Y12441D02*
G03*
X71182Y12743I-428J0D01*
G01*
X71182Y12743D02*
G03*
X71484Y12618I302J302D01*
G01*
X33943Y6531D02*
G03*
X34069Y6833I-302J302D01*
G01*
D02*
G03*
X34194Y6531I428J0D01*
G01*
X59937Y14072D02*
G03*
X60035Y13676I377J-117D01*
G01*
X60237Y13979D02*
G03*
X60404Y13307I640J-198D01*
G01*
X60148Y13556D02*
G03*
X59971Y13883I-391J0D01*
G01*
X54245Y14031D02*
G03*
X54371Y13729I428J0D01*
G01*
X54371Y13729D02*
G03*
X54068Y13854I-302J-302D01*
G01*
X53245Y14031D02*
G03*
X53371Y13729I428J0D01*
G01*
X53371Y13729D02*
G03*
X53068Y13854I-302J-302D01*
G01*
X49068Y14209D02*
G03*
X49371Y14334I0J428D01*
G01*
X49371Y14334D02*
G03*
X49245Y14031I302J-302D01*
G01*
X44193Y13906D02*
G03*
X44068Y13604I302J-302D01*
G01*
D02*
G03*
X43943Y13906I-428J0D01*
G01*
X60245Y8031D02*
G03*
X60371Y7729I428J0D01*
G01*
X60371Y7729D02*
G03*
X60068Y7854I-302J-302D01*
G01*
X50068D02*
G03*
X49766Y7729I0J-428D01*
G01*
X49766Y7729D02*
G03*
X49891Y8031I-302J302D01*
G01*
X44068Y7854D02*
G03*
X43766Y7729I0J-428D01*
G01*
X43766Y7729D02*
G03*
X43891Y8031I-302J302D01*
G01*
X41943Y7906D02*
G03*
X41640Y8031I-302J-302D01*
G01*
D02*
G03*
X41943Y8157I0J428D01*
G01*
X39921Y6742D02*
G03*
X39842Y6450I215J-215D01*
G01*
X39962Y6742D02*
G03*
X39542Y6456I0J-451D01*
G01*
X40423Y6742D02*
G03*
X39835Y6341I0J-631D01*
G01*
X50535Y17071D02*
G03*
X50654Y16786I404J0D01*
G01*
D02*
G03*
X50368Y16904I-286J-286D01*
G01*
X56220Y16953D02*
G03*
X55934Y17071I-286J-286D01*
G01*
D02*
G03*
X56220Y17190I0J404D01*
G01*
X48498Y16904D02*
G03*
X48213Y16786I0J-404D01*
G01*
D02*
G03*
X48331Y17071I-286J286D01*
G01*
X39224Y11337D02*
G03*
X38988Y11240I0J-333D01*
G01*
D02*
G03*
X39086Y11475I-235J235D01*
G01*
X38126Y17614D02*
G03*
X38224Y17849I-235J235D01*
G01*
D02*
G03*
X38321Y17614I333J0D01*
G01*
X72648Y6129D02*
G03*
X72951Y6254I0J428D01*
G01*
X72951Y6254D02*
G03*
X72825Y5951I302J-302D01*
G01*
X66925Y11315D02*
X67088D01*
X66152Y10541D02*
X66925Y11315D01*
X56558Y10541D02*
X66152D01*
X66870Y10472D02*
X72628D01*
X65502Y9104D02*
X66870Y10472D01*
X59833Y9104D02*
X65502D01*
X59068Y8340D02*
X59833Y9104D01*
X59068Y8031D02*
Y8340D01*
X60136Y18684D02*
X61088Y17731D01*
X60136Y18684D02*
Y18909D01*
X60315Y16880D02*
Y17697D01*
X59618Y18394D02*
X60315Y17697D01*
X59618Y18394D02*
Y18719D01*
X68583Y17293D02*
X68799Y17077D01*
Y16663D02*
Y17077D01*
X68691Y16555D02*
X68799Y16663D01*
X66388Y17293D02*
X68583D01*
X64286Y15191D02*
X66388Y17293D01*
X63318Y15191D02*
X64286D01*
X66289Y15630D02*
X69170D01*
X64675Y14016D02*
X66289Y15630D01*
X63136Y14016D02*
X64675D01*
X69170Y15630D02*
X70076Y16535D01*
X65167Y12057D02*
X66673Y13563D01*
X59705Y12057D02*
X65167D01*
X62865Y12835D02*
X63496Y13466D01*
X62865Y12835D02*
X62913D01*
X55265D02*
X62865D01*
X66673Y13563D02*
X70362D01*
X67943Y9163D02*
X69075D01*
X67913Y9134D02*
X67943Y9163D01*
X69252Y7579D02*
X71398Y9724D01*
X64783Y7579D02*
X69252D01*
X62372Y5167D02*
X64783Y7579D01*
X63435Y2421D02*
X64636Y3622D01*
X66624D01*
X61643Y2421D02*
X63435D01*
X73927Y10768D02*
Y13498D01*
X72884Y9724D02*
X73927Y10768D01*
X71398Y9724D02*
X72884D01*
X53068Y14031D02*
X56558Y10541D01*
X72628Y10472D02*
X73346Y11191D01*
X35689Y20512D02*
X38224Y17977D01*
X14754Y20512D02*
X35689D01*
X33179Y20049D02*
X36850Y16378D01*
X15699Y20049D02*
X33179D01*
X12284Y16634D02*
X15699Y20049D01*
X59124Y19921D02*
X60136Y18909D01*
X41821Y19921D02*
X59124D01*
X40026Y18126D02*
X41821Y19921D01*
X6693Y15876D02*
X17156D01*
X60068Y8031D02*
X60463Y7637D01*
Y5974D02*
Y7637D01*
Y5974D02*
X61270Y5167D01*
X59833Y974D02*
X60482Y1624D01*
X43502Y974D02*
X59833D01*
X41071Y3405D02*
X43502Y974D01*
X61270Y5167D02*
X62372D01*
X38224Y17517D02*
Y17977D01*
X40187Y7224D02*
X40994Y8031D01*
X39370Y7224D02*
X40187D01*
X38996Y6850D02*
X39370Y7224D01*
X38996Y5758D02*
Y6850D01*
X38415Y5177D02*
X38996Y5758D01*
X25995Y5177D02*
X38415D01*
X23022Y8150D02*
X25995Y5177D01*
X25433Y4675D02*
X43455D01*
X43396Y4744D02*
X45057Y6405D01*
X45650Y5000D02*
X49980D01*
X44055Y3405D02*
X45650Y5000D01*
X43872Y3405D02*
X44055D01*
X45057Y6405D02*
X45272D01*
X40006Y7756D02*
X44068Y11818D01*
X38220Y7756D02*
X40006D01*
X36869Y6405D02*
X38220Y7756D01*
X40994Y8031D02*
X42068D01*
X34823Y6024D02*
Y8622D01*
X35620Y9419D01*
X37168D01*
X39224Y11475D01*
X34429Y5630D02*
X34823Y6024D01*
X33071Y5630D02*
X34429D01*
X32668Y6033D02*
X33071Y5630D01*
X39670Y6405D02*
Y6491D01*
X39921Y6742D01*
X40423D01*
X40965Y7283D01*
X43320D02*
X44068Y8031D01*
X40965Y7283D02*
X43320D01*
X49980Y5000D02*
X50737Y4243D01*
Y3823D02*
Y4243D01*
X60482Y1624D02*
Y2844D01*
X59990Y3337D02*
X60482Y2844D01*
X52780Y3337D02*
X59990D01*
X52294Y3823D02*
X52780Y3337D01*
X73346Y11191D02*
Y13079D01*
X72484Y13941D02*
X73346Y13079D01*
X72484Y14941D02*
X73927Y13498D01*
X70362Y13563D02*
X71484Y12441D01*
X70821Y14104D02*
X71484Y13441D01*
X65896Y14104D02*
X70821D01*
X65257Y13466D02*
X65896Y14104D01*
X72579Y16535D02*
X75984Y13130D01*
Y9287D02*
Y13130D01*
X72648Y5951D02*
X75984Y9287D01*
X70076Y16535D02*
X72579D01*
X63496Y13466D02*
X65257D01*
X60404Y13307D02*
X62427D01*
X60148Y13563D02*
X60404Y13307D01*
X60148Y13563D02*
Y13952D01*
X62427Y13307D02*
X63136Y14016D01*
X54068Y14031D02*
X55265Y12835D01*
X60315Y16880D02*
X60463Y16731D01*
X58868Y19468D02*
X59618Y18719D01*
X42585Y19468D02*
X58868D01*
X61999Y15079D02*
X63116Y16196D01*
X61730Y15079D02*
X61999D01*
X61728Y15080D02*
X61730Y15079D01*
X58739Y15080D02*
X61728D01*
X58088Y15731D02*
X58739Y15080D01*
X52157Y16703D02*
X52288Y16571D01*
X50737Y16703D02*
X52157D01*
X50368Y17071D02*
X50737Y16703D01*
X56654Y15297D02*
X58088Y16731D01*
X56654Y14624D02*
Y15297D01*
X60068Y14031D02*
X60148Y13952D01*
X40939Y17822D02*
X42585Y19468D01*
X60463Y16731D02*
X61088D01*
X36850Y16378D02*
X39528D01*
X40026Y16876D01*
X17963Y8750D02*
X32628D01*
X17372Y9341D02*
X17963Y8750D01*
X17372Y9341D02*
Y11339D01*
X17937Y11904D01*
X18472D01*
X32628Y8750D02*
X34069Y7309D01*
Y6405D02*
Y7309D01*
X40026Y16876D02*
Y18126D01*
X18366Y14665D02*
X28846D01*
X17156Y15876D02*
X18366Y14665D01*
X5650Y16634D02*
X12284D01*
X28846Y14665D02*
X30326Y13186D01*
X32668Y6033D02*
Y6405D01*
X18835Y9541D02*
X30444D01*
X18472Y9904D02*
X18835Y9541D01*
X49068Y14031D02*
X49923Y14886D01*
X53196D01*
X54288Y15978D01*
Y16571D01*
X44068Y11818D02*
Y14031D01*
X63116Y16196D02*
X63576D01*
X30326Y13186D02*
X39976D01*
X40939Y14148D01*
Y17822D01*
X45272Y6405D02*
X48442D01*
X50068Y8031D01*
X47177Y15750D02*
X48498Y17071D01*
X45269Y15750D02*
X47177D01*
X44448Y16571D02*
X45269Y15750D01*
X45466Y17554D02*
X46448Y16571D01*
X43991Y17554D02*
X45466D01*
X42508Y16071D02*
X43991Y17554D01*
X54788Y17071D02*
X56338D01*
X54288Y16571D02*
X54788Y17071D01*
X5937Y5411D02*
X6631D01*
X6890Y5669D01*
X3002Y18041D02*
Y18986D01*
X3346Y19331D01*
X5354Y16339D02*
X5650Y16634D01*
X5551Y14734D02*
X6693Y15876D01*
X5167Y14734D02*
X5551D01*
X4419Y16388D02*
X5167D01*
X4055Y16024D02*
X4419Y16388D01*
X4055Y13976D02*
Y16024D01*
Y13976D02*
X4951Y13081D01*
X5167D01*
X5937Y7411D02*
X6676Y8150D01*
X23022D01*
X11683Y17441D02*
X14754Y20512D01*
X5167Y11427D02*
X5876D01*
X5167Y14734D02*
X5659D01*
X5876Y11427D02*
X6378Y11929D01*
Y14016D01*
X5659Y14734D02*
X6378Y14016D01*
X3346Y19331D02*
X5472D01*
X7362Y17441D01*
X11683D01*
X22835Y7283D02*
X25374Y4744D01*
X6890Y5669D02*
Y6654D01*
X7520Y7283D01*
X22835D01*
D12*
X21079Y3506D02*
G03*
X20539Y3494I-260J-450D01*
G01*
X20572Y3799D02*
G03*
X21522Y3405I949J949D01*
G01*
X21079Y3506D02*
G03*
X20539Y3494I-260J-450D01*
G01*
X15467Y11877D02*
G03*
X16564Y12332I0J1552D01*
G01*
X16137Y12057D02*
G03*
X15601Y11645I229J-854D01*
G01*
X15514Y11870D02*
G03*
X15924Y11969I124J385D01*
G01*
X16137Y12057D02*
G03*
X15601Y11645I229J-854D01*
G01*
X2793Y16179D02*
G03*
X2289Y16388I-504J-504D01*
G01*
D02*
G03*
X2793Y16597I0J713D01*
G01*
Y12872D02*
G03*
X2289Y13081I-504J-504D01*
G01*
D02*
G03*
X2793Y13290I0J713D01*
G01*
Y12872D02*
G03*
X2289Y13081I-504J-504D01*
G01*
D02*
G03*
X2793Y13290I0J713D01*
G01*
Y12872D02*
G03*
X2289Y13081I-504J-504D01*
G01*
D02*
G03*
X2793Y13290I0J713D01*
G01*
X2273Y13003D02*
G03*
X3087Y12798I578J578D01*
G01*
X1575Y13701D02*
G03*
X2917Y13363I953J953D01*
G01*
X20572Y3799D02*
G03*
X21522Y3405I949J949D01*
G01*
X21079Y3506D02*
G03*
X20539Y3494I-260J-450D01*
G01*
X15467Y11877D02*
G03*
X16564Y12332I0J1552D01*
G01*
X16137Y12057D02*
G03*
X15601Y11645I229J-854D01*
G01*
X2793Y16179D02*
G03*
X2289Y16388I-504J-504D01*
G01*
D02*
G03*
X2793Y16597I0J713D01*
G01*
Y12872D02*
G03*
X2289Y13081I-504J-504D01*
G01*
D02*
G03*
X2793Y13290I0J713D01*
G01*
Y12872D02*
G03*
X2289Y13081I-504J-504D01*
G01*
D02*
G03*
X2793Y13290I0J713D01*
G01*
Y12872D02*
G03*
X2289Y13081I-504J-504D01*
G01*
D02*
G03*
X2793Y13290I0J713D01*
G01*
X2273Y13003D02*
G03*
X3087Y12798I578J578D01*
G01*
X1575Y13701D02*
G03*
X2917Y13363I953J953D01*
G01*
X20572Y3799D02*
G03*
X21522Y3405I949J949D01*
G01*
X15467Y11877D02*
G03*
X16564Y12332I0J1552D01*
G01*
X17264Y13032D02*
X21457D01*
X15955Y11722D02*
X17264Y13032D01*
X15217Y11722D02*
X15955D01*
X23892Y10596D02*
X33015D01*
X21457Y13032D02*
X23892Y10596D01*
X33015D02*
X34048Y9564D01*
X20687Y3405D02*
X31268D01*
X20433Y3659D02*
X20687Y3405D01*
X31268D02*
X32668D01*
X2195Y13081D02*
X3002D01*
X1978D02*
X2195D01*
X1575Y13701D02*
X2195Y13081D01*
X1535Y12638D02*
X1978Y13081D01*
X1575Y13701D02*
Y15984D01*
X1978Y16388D01*
X3002D01*
X1535Y10496D02*
Y12638D01*
Y10496D02*
X2110Y9921D01*
X6457D01*
X7784Y11248D01*
Y14938D01*
D14*
X3002Y11427D02*
D03*
Y13081D02*
D03*
Y14734D02*
D03*
Y16388D02*
D03*
X5167Y13081D02*
D03*
Y14734D02*
D03*
Y16388D02*
D03*
Y18041D02*
D03*
X3002D02*
D03*
D15*
X5167Y11427D02*
D03*
D16*
X26870Y17333D02*
D03*
D17*
X19903Y16670D02*
D03*
Y18008D02*
D03*
X18367Y16000D02*
D03*
Y17339D02*
D03*
D18*
Y18678D02*
D03*
D19*
X72648Y7951D02*
D03*
Y6951D02*
D03*
Y5951D02*
D03*
X42471Y3405D02*
D03*
Y6405D02*
D03*
X39670Y3405D02*
D03*
Y6405D02*
D03*
X35469Y3405D02*
D03*
Y6405D02*
D03*
X42068Y8031D02*
D03*
X43068D02*
D03*
X44068D02*
D03*
X45068D02*
D03*
X46068D02*
D03*
X47068D02*
D03*
X48068D02*
D03*
X49068D02*
D03*
X50068D02*
D03*
X51068D02*
D03*
X52068D02*
D03*
X53068D02*
D03*
X54068D02*
D03*
X55068D02*
D03*
X56068D02*
D03*
X57068D02*
D03*
X58068D02*
D03*
X59068D02*
D03*
X60068D02*
D03*
X61068D02*
D03*
X42068Y14031D02*
D03*
X43068D02*
D03*
X44068D02*
D03*
X45068D02*
D03*
X46068D02*
D03*
X47068D02*
D03*
X48068D02*
D03*
X49068D02*
D03*
X50068D02*
D03*
X51068D02*
D03*
X52068D02*
D03*
X53068D02*
D03*
X54068D02*
D03*
X55068D02*
D03*
X56068D02*
D03*
X57068D02*
D03*
X58068D02*
D03*
X59068D02*
D03*
X60068D02*
D03*
X64088Y11315D02*
D03*
X67088D02*
D03*
X64088Y9758D02*
D03*
X67088D02*
D03*
X34069Y3405D02*
D03*
Y6405D02*
D03*
X15354Y18628D02*
D03*
X71484Y15441D02*
D03*
Y12441D02*
D03*
X72484Y14941D02*
D03*
X71484Y14441D02*
D03*
Y13441D02*
D03*
X72484Y13941D02*
D03*
Y12941D02*
D03*
X49180Y2823D02*
D03*
X47624D02*
D03*
X54767Y2421D02*
D03*
X67742Y6683D02*
D03*
X66742D02*
D03*
X67742Y14764D02*
D03*
X68742D02*
D03*
X18472Y10904D02*
D03*
Y9904D02*
D03*
X59643Y2421D02*
D03*
X61643D02*
D03*
Y4196D02*
D03*
X59643D02*
D03*
X63318Y17191D02*
D03*
X30444Y11541D02*
D03*
Y9541D02*
D03*
X61643Y5971D02*
D03*
X59643D02*
D03*
X30444Y16784D02*
D03*
Y14784D02*
D03*
X67088Y12871D02*
D03*
X64088D02*
D03*
Y8201D02*
D03*
X67088D02*
D03*
X45272Y6405D02*
D03*
Y3405D02*
D03*
X52288Y16571D02*
D03*
X54288D02*
D03*
X34048Y11564D02*
D03*
Y9564D02*
D03*
Y16824D02*
D03*
Y14824D02*
D03*
X58088Y17731D02*
D03*
Y16731D02*
D03*
Y15731D02*
D03*
X61088Y18731D02*
D03*
Y17731D02*
D03*
Y16731D02*
D03*
Y15731D02*
D03*
X31268Y6405D02*
D03*
Y3405D02*
D03*
X32668Y6405D02*
D03*
Y3405D02*
D03*
X36869D02*
D03*
Y6405D02*
D03*
X38270Y3405D02*
D03*
Y6405D02*
D03*
X41071D02*
D03*
Y3405D02*
D03*
X43872Y6405D02*
D03*
Y3405D02*
D03*
D20*
X72648Y4951D02*
D03*
X61068Y14031D02*
D03*
X15354Y17628D02*
D03*
X72484Y11941D02*
D03*
X18472Y11904D02*
D03*
D21*
X37224Y17517D02*
D03*
X38224D02*
D03*
X37224Y14483D02*
D03*
X38224D02*
D03*
X39224D02*
D03*
X37224Y11475D02*
D03*
X38224D02*
D03*
X37224Y8441D02*
D03*
X38224D02*
D03*
X39224D02*
D03*
X5937Y4411D02*
D03*
Y7411D02*
D03*
X4937Y4911D02*
D03*
X5937Y5411D02*
D03*
Y6411D02*
D03*
X4937Y5911D02*
D03*
D22*
X39224Y17517D02*
D03*
Y11475D02*
D03*
X4937Y7911D02*
D03*
D23*
X54767Y4141D02*
D03*
X56767D02*
D03*
X48498Y17071D02*
D03*
Y16071D02*
D03*
X56338Y17071D02*
D03*
Y16071D02*
D03*
X50368D02*
D03*
Y17071D02*
D03*
X56767Y2421D02*
D03*
X63318Y15191D02*
D03*
X42508Y17071D02*
D03*
Y16071D02*
D03*
D24*
X26476Y7677D02*
D03*
Y13593D02*
D03*
D25*
X9301Y11722D02*
D03*
X15217D02*
D03*
D26*
X8322Y6211D02*
D03*
X16196D02*
D03*
D27*
X7784Y14938D02*
D03*
X16734Y14958D02*
D03*
D28*
X20433Y5659D02*
D03*
D29*
Y3659D02*
D03*
D30*
X74984Y11441D02*
D03*
Y15941D02*
D03*
X2437Y8411D02*
D03*
Y3911D02*
D03*
D31*
X49180Y3823D02*
D03*
X47624D02*
D03*
X50737D02*
D03*
X52294D02*
D03*
D32*
X68742Y6683D02*
D03*
X66742Y14764D02*
D03*
X58088Y18731D02*
D03*
D33*
X7887Y19615D02*
D03*
X7977Y1821D02*
D03*
X73622Y1880D02*
D03*
Y19596D02*
D03*
D34*
X46448Y16571D02*
D03*
X44448D02*
D03*
D35*
X50737Y2823D02*
D03*
X52294D02*
D03*
D36*
X4937Y6911D02*
D03*
D37*
X68711Y16407D02*
D03*
X66742D02*
D03*
X69360Y9144D02*
D03*
X67913Y9134D02*
D03*
X66730Y3622D02*
D03*
X59557Y12057D02*
D03*
X56654Y14624D02*
D03*
X63576Y16196D02*
D03*
D38*
X67726Y4508D02*
D03*
D39*
X66649Y16314D02*
G03*
X66424Y16407I-225J-225D01*
G01*
D02*
G03*
X66649Y16501I0J318D01*
G01*
X57068Y14248D02*
G03*
X57438Y14401I0J523D01*
G01*
X57438Y14401D02*
G03*
X57285Y14031I370J-370D01*
G01*
X66649Y16314D02*
G03*
X66424Y16407I-225J-225D01*
G01*
D02*
G03*
X66649Y16501I0J318D01*
G01*
X57068Y14248D02*
G03*
X57438Y14401I0J523D01*
G01*
X57438Y14401D02*
G03*
X57285Y14031I370J-370D01*
G01*
X57068Y14248D02*
G03*
X57438Y14401I0J523D01*
G01*
X57438Y14401D02*
G03*
X57285Y14031I370J-370D01*
G01*
X66329Y16407D02*
X66673D01*
X64390Y14468D02*
X66329Y16407D01*
X61753Y14468D02*
X64390D01*
X61556Y14665D02*
X61753Y14468D01*
X57702Y14665D02*
X61556D01*
X57068Y14031D02*
X57702Y14665D01*
D40*
X13498Y11722D02*
X16734Y14958D01*
X9301Y11722D02*
X13498D01*
D41*
X61088Y17731D02*
Y17800D01*
M02*
