%FSLAX24Y24*%
%MOIN*%
G70*
G01*
G75*
G04 Layer_Color=65535*
%ADD10C,0.0787*%
%ADD11C,0.0197*%
%ADD12C,0.0276*%
%ADD13C,0.0394*%
%ADD14C,0.0472*%
%ADD15C,0.0315*%
%ADD16C,0.0551*%
%ADD17C,0.2362*%
%ADD18C,0.0650*%
%ADD19C,0.0591*%
%ADD20R,0.0591X0.0591*%
%ADD21R,0.0591X0.0591*%
%ADD22C,0.1161*%
%ADD23C,0.0630*%
%ADD24C,0.0591*%
%ADD25R,0.0591X0.0591*%
%ADD26R,0.0630X0.0630*%
%ADD27C,0.0630*%
%ADD28C,0.1181*%
%ADD29R,0.1181X0.1181*%
%ADD30C,0.0669*%
%ADD31R,0.0669X0.0669*%
%ADD32O,0.0984X0.0551*%
%ADD33R,0.0984X0.0551*%
%ADD34O,0.1400X0.0900*%
%ADD35O,0.0900X0.1400*%
%ADD36O,0.1969X0.1378*%
%ADD37C,0.1969*%
%ADD38O,0.0600X0.1200*%
G04:AMPARAMS|DCode=39|XSize=120mil|YSize=60mil|CornerRadius=0mil|HoleSize=0mil|Usage=FLASHONLY|Rotation=90.000|XOffset=0mil|YOffset=0mil|HoleType=Round|Shape=Octagon|*
%AMOCTAGOND39*
4,1,8,0.0150,0.0600,-0.0150,0.0600,-0.0300,0.0450,-0.0300,-0.0450,-0.0150,-0.0600,0.0150,-0.0600,0.0300,-0.0450,0.0300,0.0450,0.0150,0.0600,0.0*
%
%ADD39OCTAGOND39*%

%ADD40C,0.0787*%
%ADD41C,0.0600*%
%ADD42R,0.0591X0.0591*%
%ADD43C,0.0620*%
%ADD44C,0.0500*%
%ADD45C,0.0100*%
%ADD46C,0.0236*%
%ADD47C,0.0098*%
%ADD48C,0.0079*%
%ADD49C,0.0050*%
%ADD50C,0.0039*%
%ADD51C,0.0060*%
%ADD52C,0.0150*%
%ADD53R,0.0300X0.2008*%
%ADD54R,0.0252X0.0300*%
%ADD55R,0.0219X0.0300*%
%ADD56R,0.2008X0.0300*%
%ADD57R,0.0300X0.0252*%
%ADD58R,0.0300X0.0219*%
G36*
X26171Y14806D02*
X26179Y14805D01*
X26187Y14803D01*
X26197Y14801D01*
X26208Y14798D01*
X26219Y14795D01*
X26231Y14790D01*
X26243Y14785D01*
X26255Y14779D01*
X26266Y14771D01*
X26278Y14762D01*
X26288Y14752D01*
X26299Y14740D01*
X26300Y14739D01*
X26302Y14736D01*
X26305Y14732D01*
X26309Y14726D01*
X26313Y14717D01*
X26318Y14707D01*
X26324Y14694D01*
X26330Y14680D01*
X26335Y14662D01*
X26341Y14644D01*
X26346Y14623D01*
X26351Y14600D01*
X26355Y14574D01*
X26358Y14546D01*
X26359Y14516D01*
X26360Y14484D01*
Y14483D01*
Y14482D01*
Y14476D01*
Y14466D01*
X26359Y14455D01*
X26358Y14439D01*
X26358Y14423D01*
X26356Y14404D01*
X26353Y14384D01*
X26345Y14341D01*
X26340Y14320D01*
X26334Y14299D01*
X26327Y14279D01*
X26318Y14260D01*
X26309Y14241D01*
X26298Y14226D01*
X26297Y14225D01*
X26296Y14223D01*
X26293Y14220D01*
X26288Y14216D01*
X26284Y14211D01*
X26277Y14206D01*
X26270Y14200D01*
X26261Y14194D01*
X26252Y14188D01*
X26241Y14182D01*
X26229Y14177D01*
X26216Y14172D01*
X26203Y14167D01*
X26188Y14165D01*
X26172Y14163D01*
X26156Y14162D01*
X26152D01*
X26147Y14163D01*
X26140D01*
X26133Y14164D01*
X26124Y14166D01*
X26113Y14167D01*
X26103Y14170D01*
X26091Y14174D01*
X26079Y14179D01*
X26066Y14185D01*
X26054Y14191D01*
X26041Y14199D01*
X26030Y14209D01*
X26017Y14219D01*
X26007Y14232D01*
X26006Y14233D01*
X26005Y14236D01*
X26002Y14240D01*
X25998Y14246D01*
X25994Y14254D01*
X25989Y14264D01*
X25984Y14276D01*
X25979Y14290D01*
X25974Y14307D01*
X25968Y14325D01*
X25963Y14345D01*
X25960Y14368D01*
X25956Y14394D01*
X25954Y14421D01*
X25952Y14452D01*
X25951Y14485D01*
Y14486D01*
Y14487D01*
Y14492D01*
Y14502D01*
X25952Y14513D01*
X25953Y14529D01*
X25954Y14545D01*
X25956Y14563D01*
X25959Y14584D01*
X25966Y14626D01*
X25971Y14647D01*
X25977Y14668D01*
X25984Y14688D01*
X25992Y14708D01*
X26002Y14726D01*
X26013Y14741D01*
X26013Y14742D01*
X26014Y14744D01*
X26018Y14747D01*
X26022Y14752D01*
X26027Y14757D01*
X26034Y14762D01*
X26041Y14768D01*
X26050Y14774D01*
X26060Y14780D01*
X26070Y14786D01*
X26082Y14791D01*
X26094Y14796D01*
X26109Y14801D01*
X26123Y14804D01*
X26139Y14806D01*
X26156Y14807D01*
X26164D01*
X26171Y14806D01*
D02*
G37*
G36*
X21470Y14173D02*
X21349D01*
Y14294D01*
X21470D01*
Y14173D01*
D02*
G37*
G36*
X21370Y15297D02*
X21249D01*
Y15418D01*
X21370D01*
Y15297D01*
D02*
G37*
G36*
X22056Y15602D02*
X22066Y15601D01*
X22077Y15599D01*
X22090Y15597D01*
X22103Y15594D01*
X22119Y15590D01*
X22133Y15585D01*
X22149Y15580D01*
X22165Y15574D01*
X22180Y15565D01*
X22195Y15556D01*
X22210Y15546D01*
X22224Y15533D01*
X22225D01*
X22226Y15531D01*
X22231Y15526D01*
X22239Y15517D01*
X22248Y15504D01*
X22259Y15487D01*
X22270Y15468D01*
X22281Y15445D01*
X22290Y15418D01*
X22164Y15388D01*
Y15389D01*
X22163Y15390D01*
X22162Y15396D01*
X22158Y15405D01*
X22153Y15416D01*
X22147Y15429D01*
X22139Y15441D01*
X22129Y15454D01*
X22117Y15465D01*
X22115Y15466D01*
X22110Y15470D01*
X22103Y15475D01*
X22093Y15480D01*
X22080Y15485D01*
X22065Y15489D01*
X22048Y15493D01*
X22030Y15494D01*
X22023D01*
X22019Y15493D01*
X22013Y15492D01*
X22006Y15491D01*
X21990Y15487D01*
X21972Y15481D01*
X21952Y15473D01*
X21944Y15467D01*
X21934Y15460D01*
X21925Y15452D01*
X21917Y15443D01*
Y15442D01*
X21915Y15441D01*
X21913Y15437D01*
X21910Y15433D01*
X21907Y15428D01*
X21903Y15421D01*
X21899Y15413D01*
X21896Y15404D01*
X21891Y15393D01*
X21887Y15382D01*
X21883Y15368D01*
X21880Y15353D01*
X21877Y15337D01*
X21875Y15319D01*
X21874Y15300D01*
X21873Y15280D01*
Y15279D01*
Y15275D01*
Y15268D01*
X21874Y15260D01*
Y15250D01*
X21875Y15239D01*
X21877Y15227D01*
X21879Y15213D01*
X21884Y15186D01*
X21892Y15157D01*
X21897Y15143D01*
X21902Y15131D01*
X21908Y15119D01*
X21916Y15109D01*
X21917Y15108D01*
X21918Y15107D01*
X21923Y15101D01*
X21933Y15093D01*
X21946Y15084D01*
X21962Y15074D01*
X21981Y15066D01*
X22003Y15061D01*
X22015Y15060D01*
X22027Y15059D01*
X22032D01*
X22036Y15060D01*
X22046Y15061D01*
X22057Y15063D01*
X22071Y15066D01*
X22086Y15072D01*
X22100Y15080D01*
X22115Y15090D01*
X22117Y15092D01*
X22120Y15096D01*
X22127Y15105D01*
X22135Y15115D01*
X22144Y15130D01*
X22152Y15148D01*
X22161Y15168D01*
X22168Y15193D01*
X22292Y15155D01*
Y15154D01*
X22291Y15150D01*
X22289Y15145D01*
X22286Y15137D01*
X22283Y15129D01*
X22279Y15119D01*
X22274Y15108D01*
X22268Y15096D01*
X22256Y15071D01*
X22240Y15045D01*
X22219Y15021D01*
X22209Y15010D01*
X22196Y15000D01*
X22195Y14999D01*
X22194Y14998D01*
X22190Y14995D01*
X22185Y14992D01*
X22178Y14988D01*
X22170Y14985D01*
X22161Y14980D01*
X22150Y14975D01*
X22139Y14970D01*
X22126Y14965D01*
X22113Y14962D01*
X22098Y14958D01*
X22082Y14955D01*
X22066Y14952D01*
X22047Y14951D01*
X22029Y14950D01*
X22023D01*
X22017Y14951D01*
X22008D01*
X21997Y14953D01*
X21985Y14955D01*
X21972Y14957D01*
X21956Y14961D01*
X21940Y14965D01*
X21923Y14971D01*
X21906Y14978D01*
X21889Y14987D01*
X21872Y14996D01*
X21854Y15008D01*
X21838Y15020D01*
X21823Y15036D01*
X21822Y15037D01*
X21819Y15039D01*
X21815Y15044D01*
X21810Y15051D01*
X21804Y15060D01*
X21797Y15070D01*
X21790Y15083D01*
X21782Y15097D01*
X21774Y15112D01*
X21768Y15131D01*
X21761Y15150D01*
X21754Y15171D01*
X21750Y15193D01*
X21746Y15217D01*
X21743Y15243D01*
X21742Y15270D01*
Y15272D01*
Y15277D01*
X21743Y15285D01*
Y15296D01*
X21745Y15309D01*
X21746Y15325D01*
X21749Y15341D01*
X21752Y15359D01*
X21756Y15380D01*
X21762Y15399D01*
X21768Y15420D01*
X21775Y15440D01*
X21785Y15460D01*
X21796Y15480D01*
X21808Y15498D01*
X21823Y15515D01*
X21824Y15516D01*
X21826Y15519D01*
X21831Y15523D01*
X21837Y15529D01*
X21846Y15535D01*
X21855Y15543D01*
X21867Y15551D01*
X21880Y15559D01*
X21895Y15567D01*
X21911Y15575D01*
X21928Y15582D01*
X21947Y15589D01*
X21968Y15595D01*
X21990Y15599D01*
X22013Y15602D01*
X22037Y15603D01*
X22048D01*
X22056Y15602D01*
D02*
G37*
G36*
X22795Y14804D02*
X22813Y14803D01*
X22832Y14802D01*
X22849Y14800D01*
X22864Y14798D01*
X22866D01*
X22871Y14797D01*
X22878Y14795D01*
X22886Y14792D01*
X22897Y14789D01*
X22908Y14784D01*
X22919Y14779D01*
X22931Y14772D01*
X22932Y14771D01*
X22935Y14768D01*
X22941Y14764D01*
X22948Y14758D01*
X22955Y14750D01*
X22963Y14741D01*
X22971Y14731D01*
X22979Y14719D01*
X22980Y14717D01*
X22982Y14713D01*
X22985Y14707D01*
X22989Y14698D01*
X22992Y14686D01*
X22996Y14674D01*
X22998Y14660D01*
X22999Y14645D01*
Y14643D01*
Y14637D01*
X22998Y14629D01*
X22996Y14618D01*
X22993Y14606D01*
X22988Y14592D01*
X22982Y14578D01*
X22975Y14563D01*
X22974Y14561D01*
X22970Y14558D01*
X22965Y14551D01*
X22957Y14543D01*
X22948Y14534D01*
X22937Y14525D01*
X22924Y14516D01*
X22909Y14509D01*
X22910D01*
X22912Y14508D01*
X22915Y14507D01*
X22919Y14506D01*
X22930Y14501D01*
X22942Y14495D01*
X22957Y14487D01*
X22971Y14478D01*
X22985Y14465D01*
X22998Y14451D01*
X22999Y14449D01*
X23003Y14444D01*
X23007Y14436D01*
X23014Y14424D01*
X23020Y14410D01*
X23025Y14394D01*
X23029Y14376D01*
X23030Y14356D01*
Y14354D01*
Y14348D01*
X23029Y14340D01*
X23027Y14329D01*
X23025Y14316D01*
X23021Y14302D01*
X23016Y14288D01*
X23009Y14272D01*
X23008Y14270D01*
X23006Y14265D01*
X23001Y14258D01*
X22995Y14249D01*
X22987Y14239D01*
X22978Y14228D01*
X22967Y14216D01*
X22955Y14207D01*
X22953Y14206D01*
X22949Y14203D01*
X22941Y14199D01*
X22931Y14194D01*
X22918Y14189D01*
X22904Y14184D01*
X22887Y14180D01*
X22869Y14177D01*
X22865D01*
X22862Y14176D01*
X22853D01*
X22846Y14175D01*
X22829D01*
X22817Y14174D01*
X22791D01*
X22775Y14173D01*
X22501D01*
Y14805D01*
X22779D01*
X22795Y14804D01*
D02*
G37*
G36*
X25526Y14173D02*
X25405D01*
Y14629D01*
X25404Y14628D01*
X25402Y14626D01*
X25398Y14623D01*
X25394Y14618D01*
X25387Y14613D01*
X25379Y14608D01*
X25371Y14601D01*
X25360Y14594D01*
X25349Y14586D01*
X25337Y14579D01*
X25311Y14564D01*
X25281Y14550D01*
X25249Y14537D01*
Y14647D01*
X25249D01*
X25250Y14648D01*
X25253Y14649D01*
X25257Y14650D01*
X25267Y14654D01*
X25279Y14660D01*
X25295Y14668D01*
X25312Y14679D01*
X25331Y14690D01*
X25351Y14706D01*
X25352Y14707D01*
X25354Y14708D01*
X25357Y14710D01*
X25360Y14713D01*
X25370Y14722D01*
X25382Y14734D01*
X25395Y14749D01*
X25407Y14766D01*
X25419Y14785D01*
X25427Y14807D01*
X25526D01*
Y14173D01*
D02*
G37*
G36*
X25852D02*
X25731D01*
Y14294D01*
X25852D01*
Y14173D01*
D02*
G37*
G36*
X23706D02*
X23568D01*
X23514Y14316D01*
X23259D01*
X23207Y14173D01*
X23073D01*
X23318Y14805D01*
X23452D01*
X23706Y14173D01*
D02*
G37*
G36*
X24065Y14804D02*
X24085D01*
X24095Y14803D01*
X24119Y14801D01*
X24143Y14797D01*
X24166Y14793D01*
X24177Y14790D01*
X24186Y14787D01*
X24187D01*
X24188Y14786D01*
X24193Y14784D01*
X24202Y14780D01*
X24213Y14773D01*
X24224Y14764D01*
X24237Y14754D01*
X24248Y14741D01*
X24260Y14726D01*
X24261Y14724D01*
X24264Y14718D01*
X24268Y14709D01*
X24274Y14697D01*
X24279Y14683D01*
X24284Y14666D01*
X24287Y14647D01*
X24288Y14627D01*
Y14626D01*
Y14624D01*
Y14620D01*
X24287Y14615D01*
Y14609D01*
X24286Y14602D01*
X24283Y14585D01*
X24277Y14567D01*
X24269Y14547D01*
X24260Y14528D01*
X24253Y14518D01*
X24245Y14510D01*
Y14509D01*
X24243Y14508D01*
X24240Y14506D01*
X24238Y14502D01*
X24233Y14499D01*
X24228Y14494D01*
X24221Y14489D01*
X24214Y14485D01*
X24206Y14480D01*
X24197Y14475D01*
X24187Y14470D01*
X24175Y14465D01*
X24164Y14461D01*
X24150Y14457D01*
X24137Y14454D01*
X24121Y14451D01*
X24122D01*
X24123Y14450D01*
X24128Y14447D01*
X24136Y14442D01*
X24145Y14436D01*
X24156Y14428D01*
X24167Y14418D01*
X24179Y14409D01*
X24189Y14398D01*
X24190Y14397D01*
X24194Y14392D01*
X24200Y14386D01*
X24209Y14375D01*
X24219Y14361D01*
X24231Y14343D01*
X24239Y14333D01*
X24245Y14321D01*
X24253Y14310D01*
X24262Y14296D01*
X24338Y14173D01*
X24186D01*
X24095Y14310D01*
X24094Y14311D01*
X24093Y14313D01*
X24091Y14316D01*
X24088Y14321D01*
X24084Y14328D01*
X24079Y14334D01*
X24068Y14349D01*
X24058Y14365D01*
X24046Y14380D01*
X24036Y14393D01*
X24032Y14399D01*
X24028Y14403D01*
X24027Y14404D01*
X24025Y14406D01*
X24021Y14410D01*
X24017Y14413D01*
X24004Y14422D01*
X23997Y14426D01*
X23990Y14429D01*
X23989D01*
X23986Y14430D01*
X23981Y14432D01*
X23974Y14433D01*
X23966Y14435D01*
X23955Y14436D01*
X23942Y14437D01*
X23901D01*
Y14173D01*
X23773D01*
Y14805D01*
X24056D01*
X24065Y14804D01*
D02*
G37*
G36*
X23491Y15259D02*
Y15259D01*
Y15255D01*
Y15249D01*
Y15241D01*
Y15232D01*
X23490Y15221D01*
Y15210D01*
Y15197D01*
X23488Y15170D01*
X23486Y15144D01*
X23485Y15132D01*
X23484Y15119D01*
X23482Y15109D01*
X23480Y15099D01*
Y15098D01*
Y15097D01*
X23478Y15091D01*
X23475Y15083D01*
X23472Y15071D01*
X23466Y15059D01*
X23460Y15045D01*
X23451Y15032D01*
X23442Y15019D01*
X23441Y15018D01*
X23437Y15013D01*
X23430Y15008D01*
X23423Y15001D01*
X23411Y14992D01*
X23399Y14984D01*
X23384Y14975D01*
X23368Y14967D01*
X23367D01*
X23366Y14966D01*
X23363Y14965D01*
X23359Y14964D01*
X23355Y14964D01*
X23350Y14962D01*
X23335Y14959D01*
X23318Y14955D01*
X23298Y14952D01*
X23274Y14950D01*
X23247Y14949D01*
X23232D01*
X23225Y14950D01*
X23216D01*
X23196Y14952D01*
X23174Y14954D01*
X23152Y14958D01*
X23130Y14963D01*
X23120Y14965D01*
X23110Y14969D01*
X23109D01*
X23108Y14970D01*
X23103Y14973D01*
X23094Y14978D01*
X23083Y14984D01*
X23072Y14992D01*
X23059Y15001D01*
X23048Y15013D01*
X23036Y15024D01*
X23035Y15026D01*
X23032Y15030D01*
X23028Y15037D01*
X23022Y15045D01*
X23016Y15056D01*
X23010Y15068D01*
X23005Y15081D01*
X23001Y15094D01*
Y15095D01*
Y15097D01*
X23000Y15100D01*
X22999Y15105D01*
X22998Y15110D01*
X22997Y15117D01*
X22996Y15125D01*
X22995Y15135D01*
X22994Y15145D01*
X22993Y15157D01*
X22992Y15170D01*
X22991Y15185D01*
X22990Y15200D01*
Y15217D01*
X22989Y15235D01*
Y15255D01*
Y15592D01*
X23117D01*
Y15249D01*
Y15248D01*
Y15245D01*
Y15241D01*
Y15235D01*
Y15230D01*
Y15222D01*
X23118Y15205D01*
Y15187D01*
X23119Y15170D01*
X23120Y15155D01*
Y15148D01*
X23121Y15143D01*
Y15141D01*
X23123Y15136D01*
X23126Y15130D01*
X23129Y15121D01*
X23134Y15111D01*
X23141Y15100D01*
X23149Y15090D01*
X23159Y15081D01*
X23161Y15080D01*
X23165Y15077D01*
X23172Y15073D01*
X23181Y15069D01*
X23193Y15065D01*
X23207Y15062D01*
X23225Y15059D01*
X23243Y15058D01*
X23252D01*
X23261Y15059D01*
X23274Y15061D01*
X23286Y15063D01*
X23300Y15067D01*
X23312Y15072D01*
X23324Y15080D01*
X23325Y15081D01*
X23328Y15084D01*
X23333Y15088D01*
X23338Y15095D01*
X23344Y15103D01*
X23350Y15112D01*
X23354Y15122D01*
X23357Y15134D01*
Y15136D01*
X23358Y15140D01*
X23359Y15148D01*
X23360Y15160D01*
X23361Y15174D01*
X23362Y15193D01*
Y15204D01*
X23363Y15215D01*
Y15228D01*
Y15241D01*
Y15592D01*
X23491D01*
Y15259D01*
D02*
G37*
G36*
X2015Y1125D02*
X2027D01*
X2039Y1123D01*
X2054Y1121D01*
X2072Y1120D01*
X2089Y1116D01*
X2107Y1113D01*
X2147Y1104D01*
X2186Y1092D01*
X2205Y1084D01*
X2225Y1075D01*
X2226D01*
X2230Y1073D01*
X2234Y1069D01*
X2242Y1066D01*
X2250Y1060D01*
X2260Y1054D01*
X2283Y1038D01*
X2307Y1017D01*
X2333Y993D01*
X2358Y964D01*
X2380Y931D01*
X2381Y930D01*
X2382Y926D01*
X2384Y922D01*
X2388Y915D01*
X2392Y905D01*
X2397Y895D01*
X2401Y884D01*
X2407Y871D01*
X2412Y856D01*
X2416Y840D01*
X2426Y805D01*
X2431Y767D01*
X2434Y747D01*
Y727D01*
Y726D01*
Y721D01*
Y714D01*
X2433Y705D01*
X2431Y693D01*
X2429Y679D01*
X2427Y664D01*
X2423Y647D01*
X2419Y629D01*
X2414Y610D01*
X2407Y591D01*
X2399Y570D01*
X2390Y549D01*
X2378Y528D01*
X2367Y509D01*
X2352Y488D01*
X2351Y487D01*
X2347Y482D01*
X2341Y475D01*
X2333Y467D01*
X2323Y457D01*
X2312Y445D01*
X2298Y434D01*
X2282Y421D01*
X2263Y409D01*
X2243Y397D01*
X2223Y385D01*
X2200Y375D01*
X2174Y367D01*
X2148Y360D01*
X2120Y355D01*
X2091Y354D01*
X2084D01*
X2076Y355D01*
X2067Y357D01*
X2046Y361D01*
X2036Y365D01*
X2027Y369D01*
X2026Y370D01*
X2023Y372D01*
X2020Y375D01*
X2015Y381D01*
X2011Y387D01*
X2005Y395D01*
X2001Y403D01*
X1998Y413D01*
X1997Y412D01*
X1996Y411D01*
X1992Y407D01*
X1988Y404D01*
X1982Y399D01*
X1975Y395D01*
X1958Y384D01*
X1937Y373D01*
X1913Y364D01*
X1886Y357D01*
X1872Y355D01*
X1857Y354D01*
X1849D01*
X1843Y355D01*
X1835Y357D01*
X1827Y358D01*
X1808Y361D01*
X1785Y368D01*
X1762Y380D01*
X1750Y385D01*
X1737Y394D01*
X1726Y403D01*
X1715Y413D01*
X1714Y414D01*
X1713Y415D01*
X1711Y419D01*
X1706Y424D01*
X1703Y429D01*
X1698Y437D01*
X1692Y445D01*
X1688Y455D01*
X1677Y478D01*
X1668Y504D01*
X1661Y535D01*
X1660Y551D01*
X1659Y570D01*
Y571D01*
Y576D01*
Y581D01*
X1660Y591D01*
X1661Y601D01*
X1662Y614D01*
X1665Y628D01*
X1667Y643D01*
X1672Y660D01*
X1675Y677D01*
X1681Y696D01*
X1688Y714D01*
X1696Y734D01*
X1705Y753D01*
X1715Y773D01*
X1727Y791D01*
X1728Y792D01*
X1730Y797D01*
X1735Y803D01*
X1742Y811D01*
X1750Y820D01*
X1759Y831D01*
X1771Y841D01*
X1785Y852D01*
X1798Y864D01*
X1815Y874D01*
X1832Y885D01*
X1850Y894D01*
X1871Y902D01*
X1892Y908D01*
X1915Y912D01*
X1938Y914D01*
X1947D01*
X1953Y912D01*
X1961Y911D01*
X1969Y910D01*
X1990Y904D01*
X2012Y896D01*
X2023Y890D01*
X2035Y884D01*
X2045Y875D01*
X2056Y865D01*
X2065Y855D01*
X2074Y842D01*
X2087Y901D01*
X2223D01*
X2145Y530D01*
Y528D01*
X2144Y524D01*
X2143Y518D01*
X2142Y511D01*
X2140Y496D01*
X2139Y489D01*
Y485D01*
Y482D01*
X2140Y478D01*
X2141Y471D01*
X2144Y465D01*
X2145Y464D01*
X2148Y463D01*
X2152Y460D01*
X2158Y459D01*
X2163D01*
X2167Y460D01*
X2175Y463D01*
X2185Y466D01*
X2195Y472D01*
X2208Y479D01*
X2222Y489D01*
X2223D01*
X2224Y492D01*
X2231Y496D01*
X2240Y505D01*
X2253Y517D01*
X2265Y532D01*
X2280Y550D01*
X2294Y571D01*
X2307Y594D01*
Y595D01*
X2308Y598D01*
X2310Y601D01*
X2313Y606D01*
X2315Y611D01*
X2317Y620D01*
X2324Y637D01*
X2330Y658D01*
X2336Y681D01*
X2339Y705D01*
X2340Y731D01*
Y733D01*
Y737D01*
Y744D01*
X2339Y753D01*
X2338Y764D01*
X2336Y776D01*
X2332Y790D01*
X2329Y806D01*
X2324Y822D01*
X2318Y840D01*
X2310Y857D01*
X2301Y875D01*
X2291Y893D01*
X2278Y911D01*
X2264Y929D01*
X2248Y945D01*
X2247Y946D01*
X2243Y948D01*
X2239Y953D01*
X2231Y958D01*
X2222Y964D01*
X2210Y972D01*
X2197Y980D01*
X2181Y988D01*
X2164Y997D01*
X2144Y1003D01*
X2124Y1012D01*
X2101Y1017D01*
X2076Y1023D01*
X2050Y1028D01*
X2021Y1030D01*
X1991Y1031D01*
X1977D01*
X1968Y1030D01*
X1955D01*
X1941Y1028D01*
X1926Y1027D01*
X1909Y1024D01*
X1872Y1017D01*
X1832Y1007D01*
X1812Y1000D01*
X1792Y993D01*
X1772Y984D01*
X1753Y973D01*
X1752Y972D01*
X1749Y971D01*
X1744Y968D01*
X1737Y963D01*
X1729Y957D01*
X1720Y949D01*
X1710Y941D01*
X1699Y932D01*
X1688Y920D01*
X1675Y909D01*
X1664Y895D01*
X1651Y881D01*
X1628Y849D01*
X1607Y812D01*
Y811D01*
X1605Y807D01*
X1602Y802D01*
X1599Y794D01*
X1595Y784D01*
X1592Y773D01*
X1587Y760D01*
X1583Y746D01*
X1578Y730D01*
X1574Y714D01*
X1567Y677D01*
X1561Y638D01*
X1559Y596D01*
Y595D01*
Y592D01*
Y586D01*
X1560Y578D01*
Y569D01*
X1562Y557D01*
X1563Y545D01*
X1566Y531D01*
X1572Y500D01*
X1582Y466D01*
X1595Y433D01*
X1604Y415D01*
X1613Y398D01*
X1614Y397D01*
X1615Y395D01*
X1619Y390D01*
X1623Y383D01*
X1629Y376D01*
X1636Y368D01*
X1644Y359D01*
X1653Y349D01*
X1664Y338D01*
X1675Y328D01*
X1702Y306D01*
X1733Y285D01*
X1767Y268D01*
X1768D01*
X1772Y266D01*
X1778Y264D01*
X1785Y261D01*
X1794Y259D01*
X1805Y255D01*
X1818Y251D01*
X1833Y247D01*
X1849Y244D01*
X1866Y239D01*
X1885Y236D01*
X1904Y233D01*
X1948Y229D01*
X1994Y226D01*
X2006D01*
X2015Y227D01*
X2026D01*
X2038Y229D01*
X2052Y230D01*
X2067Y231D01*
X2101Y234D01*
X2136Y241D01*
X2172Y249D01*
X2207Y261D01*
X2208D01*
X2210Y262D01*
X2215Y264D01*
X2222Y268D01*
X2228Y271D01*
X2238Y276D01*
X2258Y287D01*
X2280Y301D01*
X2305Y320D01*
X2329Y340D01*
X2351Y365D01*
X2461D01*
Y364D01*
X2459Y360D01*
X2456Y354D01*
X2452Y347D01*
X2446Y338D01*
X2439Y329D01*
X2431Y317D01*
X2422Y305D01*
X2412Y292D01*
X2400Y278D01*
X2386Y266D01*
X2373Y252D01*
X2356Y238D01*
X2340Y225D01*
X2322Y213D01*
X2302Y201D01*
X2301Y200D01*
X2297Y198D01*
X2290Y194D01*
X2280Y191D01*
X2269Y185D01*
X2254Y179D01*
X2238Y173D01*
X2219Y166D01*
X2199Y159D01*
X2175Y154D01*
X2151Y148D01*
X2125Y142D01*
X2097Y139D01*
X2067Y135D01*
X2036Y133D01*
X2004Y132D01*
X1988D01*
X1975Y133D01*
X1960Y134D01*
X1944Y135D01*
X1924Y136D01*
X1903Y139D01*
X1880Y142D01*
X1856Y146D01*
X1808Y156D01*
X1782Y163D01*
X1757Y171D01*
X1733Y179D01*
X1708Y189D01*
X1707Y191D01*
X1703Y192D01*
X1697Y195D01*
X1689Y200D01*
X1679Y207D01*
X1666Y214D01*
X1653Y222D01*
X1639Y232D01*
X1624Y244D01*
X1609Y256D01*
X1594Y270D01*
X1579Y285D01*
X1564Y301D01*
X1551Y320D01*
X1537Y338D01*
X1525Y359D01*
X1524Y360D01*
X1523Y364D01*
X1519Y370D01*
X1516Y379D01*
X1511Y389D01*
X1507Y402D01*
X1501Y415D01*
X1495Y432D01*
X1489Y449D01*
X1484Y467D01*
X1479Y488D01*
X1474Y509D01*
X1468Y555D01*
X1466Y579D01*
X1465Y603D01*
Y605D01*
Y610D01*
Y617D01*
X1466Y628D01*
X1468Y641D01*
X1469Y656D01*
X1471Y673D01*
X1473Y692D01*
X1478Y712D01*
X1481Y734D01*
X1487Y756D01*
X1494Y779D01*
X1502Y803D01*
X1511Y827D01*
X1522Y850D01*
X1533Y874D01*
X1534Y875D01*
X1537Y880D01*
X1540Y886D01*
X1546Y895D01*
X1553Y905D01*
X1561Y917D01*
X1571Y931D01*
X1583Y945D01*
X1595Y960D01*
X1609Y976D01*
X1625Y991D01*
X1642Y1007D01*
X1660Y1022D01*
X1679Y1037D01*
X1699Y1050D01*
X1721Y1062D01*
X1722Y1063D01*
X1727Y1065D01*
X1733Y1068D01*
X1742Y1073D01*
X1753Y1077D01*
X1767Y1082D01*
X1782Y1088D01*
X1800Y1095D01*
X1819Y1100D01*
X1840Y1106D01*
X1862Y1111D01*
X1886Y1115D01*
X1911Y1120D01*
X1938Y1123D01*
X1964Y1125D01*
X1993Y1126D01*
X2006D01*
X2015Y1125D01*
D02*
G37*
G36*
X20849Y15591D02*
X20866Y15590D01*
X20887Y15589D01*
X20906Y15587D01*
X20925Y15583D01*
X20942Y15580D01*
X20943D01*
X20945Y15579D01*
X20948Y15578D01*
X20952Y15577D01*
X20961Y15572D01*
X20975Y15566D01*
X20989Y15558D01*
X21005Y15548D01*
X21021Y15535D01*
X21036Y15521D01*
X21037D01*
X21038Y15519D01*
X21043Y15513D01*
X21050Y15505D01*
X21060Y15493D01*
X21069Y15478D01*
X21079Y15460D01*
X21088Y15441D01*
X21097Y15419D01*
Y15418D01*
X21098Y15416D01*
X21099Y15413D01*
X21100Y15408D01*
X21102Y15403D01*
X21104Y15395D01*
X21106Y15387D01*
X21108Y15378D01*
X21109Y15367D01*
X21111Y15357D01*
X21115Y15331D01*
X21117Y15302D01*
X21118Y15270D01*
Y15269D01*
Y15266D01*
Y15262D01*
Y15257D01*
X21117Y15250D01*
Y15242D01*
X21115Y15224D01*
X21113Y15203D01*
X21109Y15181D01*
X21105Y15158D01*
X21098Y15136D01*
Y15135D01*
X21097Y15133D01*
X21096Y15129D01*
X21094Y15124D01*
X21091Y15118D01*
X21088Y15112D01*
X21081Y15096D01*
X21071Y15078D01*
X21060Y15060D01*
X21046Y15041D01*
X21031Y15024D01*
X21029Y15023D01*
X21025Y15018D01*
X21017Y15013D01*
X21008Y15006D01*
X20994Y14997D01*
X20979Y14988D01*
X20961Y14981D01*
X20941Y14973D01*
X20939Y14972D01*
X20934Y14971D01*
X20925Y14969D01*
X20912Y14967D01*
X20896Y14964D01*
X20877Y14963D01*
X20854Y14962D01*
X20829Y14961D01*
X20591D01*
Y15592D01*
X20841D01*
X20849Y15591D01*
D02*
G37*
G36*
X1058Y1111D02*
X1079Y1110D01*
X1103Y1108D01*
X1126Y1106D01*
X1149Y1101D01*
X1170Y1097D01*
X1171D01*
X1173Y1096D01*
X1177Y1095D01*
X1182Y1093D01*
X1193Y1088D01*
X1209Y1081D01*
X1227Y1072D01*
X1245Y1059D01*
X1265Y1044D01*
X1283Y1027D01*
X1284D01*
X1285Y1024D01*
X1291Y1017D01*
X1299Y1007D01*
X1311Y993D01*
X1322Y975D01*
X1334Y954D01*
X1345Y931D01*
X1356Y904D01*
Y903D01*
X1357Y901D01*
X1358Y897D01*
X1359Y892D01*
X1361Y885D01*
X1364Y875D01*
X1366Y866D01*
X1368Y855D01*
X1371Y842D01*
X1373Y829D01*
X1378Y798D01*
X1380Y764D01*
X1381Y726D01*
Y724D01*
Y721D01*
Y716D01*
Y709D01*
X1380Y701D01*
Y692D01*
X1378Y670D01*
X1375Y645D01*
X1371Y618D01*
X1365Y591D01*
X1357Y564D01*
Y563D01*
X1356Y561D01*
X1355Y556D01*
X1352Y550D01*
X1349Y543D01*
X1345Y535D01*
X1336Y517D01*
X1325Y495D01*
X1311Y473D01*
X1295Y451D01*
X1276Y430D01*
X1274Y429D01*
X1269Y424D01*
X1260Y417D01*
X1248Y409D01*
X1232Y398D01*
X1214Y388D01*
X1193Y379D01*
X1169Y369D01*
X1167Y368D01*
X1160Y367D01*
X1149Y365D01*
X1133Y362D01*
X1115Y359D01*
X1092Y357D01*
X1064Y355D01*
X1034Y354D01*
X748D01*
Y1112D01*
X1049D01*
X1058Y1111D01*
D02*
G37*
G36*
X2685Y354D02*
X2540D01*
Y500D01*
X2685D01*
Y354D01*
D02*
G37*
G36*
X21370Y14961D02*
X21249D01*
Y15082D01*
X21370D01*
Y14961D01*
D02*
G37*
G36*
X25076D02*
X24937D01*
X24883Y15104D01*
X24629D01*
X24577Y14961D01*
X24442D01*
X24687Y15592D01*
X24822D01*
X25076Y14961D01*
D02*
G37*
G36*
X25434Y15591D02*
X25454D01*
X25465Y15590D01*
X25489Y15588D01*
X25513Y15584D01*
X25536Y15580D01*
X25546Y15578D01*
X25555Y15575D01*
X25556D01*
X25557Y15574D01*
X25563Y15572D01*
X25571Y15567D01*
X25582Y15560D01*
X25594Y15552D01*
X25606Y15541D01*
X25618Y15529D01*
X25629Y15513D01*
X25630Y15511D01*
X25634Y15506D01*
X25638Y15497D01*
X25643Y15484D01*
X25648Y15470D01*
X25653Y15454D01*
X25656Y15434D01*
X25657Y15414D01*
Y15413D01*
Y15411D01*
Y15408D01*
X25656Y15403D01*
Y15396D01*
X25655Y15389D01*
X25652Y15373D01*
X25646Y15355D01*
X25639Y15334D01*
X25629Y15315D01*
X25622Y15306D01*
X25615Y15297D01*
Y15296D01*
X25613Y15295D01*
X25610Y15293D01*
X25607Y15289D01*
X25602Y15286D01*
X25597Y15282D01*
X25591Y15277D01*
X25584Y15272D01*
X25575Y15267D01*
X25567Y15262D01*
X25556Y15258D01*
X25545Y15253D01*
X25533Y15248D01*
X25520Y15244D01*
X25506Y15241D01*
X25491Y15238D01*
X25492D01*
X25493Y15237D01*
X25497Y15235D01*
X25505Y15230D01*
X25515Y15223D01*
X25525Y15215D01*
X25537Y15206D01*
X25548Y15196D01*
X25559Y15186D01*
X25560Y15185D01*
X25564Y15180D01*
X25569Y15173D01*
X25578Y15162D01*
X25589Y15148D01*
X25600Y15131D01*
X25608Y15120D01*
X25615Y15109D01*
X25622Y15097D01*
X25631Y15084D01*
X25708Y14961D01*
X25555D01*
X25465Y15097D01*
X25464Y15098D01*
X25463Y15100D01*
X25460Y15104D01*
X25457Y15109D01*
X25453Y15115D01*
X25448Y15121D01*
X25438Y15136D01*
X25427Y15153D01*
X25416Y15167D01*
X25405Y15181D01*
X25401Y15186D01*
X25397Y15190D01*
X25397Y15191D01*
X25395Y15193D01*
X25391Y15197D01*
X25386Y15201D01*
X25373Y15210D01*
X25367Y15213D01*
X25359Y15216D01*
X25358D01*
X25355Y15217D01*
X25350Y15219D01*
X25344Y15220D01*
X25335Y15222D01*
X25324Y15223D01*
X25311Y15224D01*
X25271D01*
Y14961D01*
X25143D01*
Y15592D01*
X25425D01*
X25434Y15591D01*
D02*
G37*
G36*
X22655D02*
X22667D01*
X22693Y15590D01*
X22718Y15588D01*
X22730Y15587D01*
X22740Y15585D01*
X22749Y15584D01*
X22757Y15582D01*
X22758D01*
X22760Y15581D01*
X22761Y15580D01*
X22765Y15580D01*
X22776Y15576D01*
X22788Y15569D01*
X22803Y15561D01*
X22817Y15550D01*
X22833Y15536D01*
X22847Y15520D01*
Y15519D01*
X22849Y15518D01*
X22851Y15515D01*
X22853Y15511D01*
X22856Y15506D01*
X22859Y15501D01*
X22866Y15487D01*
X22873Y15469D01*
X22879Y15448D01*
X22883Y15424D01*
X22884Y15397D01*
Y15396D01*
Y15394D01*
Y15391D01*
Y15387D01*
X22883Y15377D01*
X22882Y15363D01*
X22880Y15348D01*
X22876Y15332D01*
X22870Y15315D01*
X22863Y15300D01*
X22862Y15298D01*
X22859Y15293D01*
X22855Y15286D01*
X22849Y15278D01*
X22841Y15267D01*
X22832Y15257D01*
X22821Y15247D01*
X22810Y15237D01*
X22809Y15236D01*
X22804Y15234D01*
X22797Y15230D01*
X22789Y15226D01*
X22779Y15220D01*
X22768Y15215D01*
X22756Y15211D01*
X22743Y15208D01*
X22741D01*
X22738Y15207D01*
X22735D01*
X22730Y15206D01*
X22724Y15205D01*
X22717Y15204D01*
X22710D01*
X22701Y15203D01*
X22691Y15202D01*
X22681Y15201D01*
X22668Y15200D01*
X22656D01*
X22642Y15199D01*
X22529D01*
Y14961D01*
X22401D01*
Y15592D01*
X22643D01*
X22655Y15591D01*
D02*
G37*
G36*
X24165D02*
X24183Y15590D01*
X24201Y15589D01*
X24218Y15587D01*
X24234Y15585D01*
X24236D01*
X24240Y15584D01*
X24247Y15582D01*
X24256Y15580D01*
X24266Y15577D01*
X24278Y15572D01*
X24288Y15566D01*
X24300Y15559D01*
X24301Y15558D01*
X24305Y15555D01*
X24311Y15552D01*
X24317Y15545D01*
X24324Y15537D01*
X24333Y15529D01*
X24340Y15518D01*
X24348Y15506D01*
X24349Y15505D01*
X24351Y15501D01*
X24355Y15494D01*
X24359Y15485D01*
X24362Y15474D01*
X24365Y15461D01*
X24367Y15448D01*
X24368Y15432D01*
Y15431D01*
Y15425D01*
X24367Y15416D01*
X24365Y15406D01*
X24362Y15393D01*
X24358Y15380D01*
X24352Y15365D01*
X24344Y15351D01*
X24343Y15349D01*
X24339Y15345D01*
X24335Y15338D01*
X24327Y15331D01*
X24317Y15321D01*
X24307Y15312D01*
X24293Y15304D01*
X24279Y15296D01*
X24280D01*
X24282Y15295D01*
X24285Y15294D01*
X24288Y15293D01*
X24299Y15288D01*
X24312Y15283D01*
X24326Y15275D01*
X24340Y15265D01*
X24355Y15253D01*
X24367Y15238D01*
X24368Y15236D01*
X24372Y15232D01*
X24377Y15223D01*
X24384Y15211D01*
X24389Y15197D01*
X24394Y15182D01*
X24398Y15163D01*
X24399Y15143D01*
Y15141D01*
Y15136D01*
X24398Y15128D01*
X24396Y15116D01*
X24394Y15104D01*
X24390Y15089D01*
X24386Y15075D01*
X24379Y15060D01*
X24378Y15058D01*
X24375Y15053D01*
X24370Y15045D01*
X24364Y15037D01*
X24357Y15026D01*
X24347Y15015D01*
X24337Y15004D01*
X24324Y14994D01*
X24322Y14993D01*
X24318Y14990D01*
X24311Y14987D01*
X24300Y14982D01*
X24288Y14976D01*
X24273Y14971D01*
X24257Y14967D01*
X24239Y14964D01*
X24235D01*
X24232Y14964D01*
X24222D01*
X24215Y14963D01*
X24198D01*
X24187Y14962D01*
X24161D01*
X24144Y14961D01*
X23870D01*
Y15592D01*
X24148D01*
X24165Y15591D01*
D02*
G37*
G36*
X75022Y9262D02*
X74707D01*
Y10315D01*
X75022D01*
Y9262D01*
D02*
G37*
G36*
X71710Y10435D02*
X71721D01*
Y10424D01*
X71731D01*
Y10413D01*
X71742D01*
Y10402D01*
X71753D01*
Y10391D01*
X71764D01*
Y10381D01*
X71775D01*
Y10370D01*
X71797D01*
Y10359D01*
X71807D01*
Y10348D01*
X71818D01*
Y10337D01*
X71829D01*
Y10326D01*
X71840D01*
Y10315D01*
X71851D01*
Y10304D01*
X71862D01*
Y10294D01*
X71873D01*
Y10283D01*
X71883D01*
Y10272D01*
X71894D01*
Y10261D01*
X71905D01*
Y10250D01*
X71916D01*
Y10239D01*
X71927D01*
Y10228D01*
X71938D01*
Y10218D01*
X71949D01*
Y10207D01*
X71959D01*
Y10196D01*
X71970D01*
Y10185D01*
X71981D01*
Y10174D01*
X71992D01*
Y10163D01*
X72003D01*
Y10152D01*
X72014D01*
Y10142D01*
X72025D01*
Y10131D01*
X72035D01*
Y10120D01*
X72046D01*
Y10109D01*
X72057D01*
Y10098D01*
X72068D01*
Y10087D01*
X72079D01*
Y10076D01*
X72101D01*
Y10087D01*
X72112D01*
Y10098D01*
X72122D01*
Y10109D01*
X72133D01*
Y10120D01*
X72144D01*
Y10131D01*
X72155D01*
Y10142D01*
X72166D01*
Y10152D01*
X72177D01*
Y10163D01*
X72188D01*
Y10174D01*
X72198D01*
Y10185D01*
X72209D01*
Y10196D01*
X72220D01*
Y10207D01*
X72231D01*
Y10218D01*
X72242D01*
Y10228D01*
X72264D01*
Y10218D01*
X72274D01*
Y10207D01*
X72285D01*
Y10196D01*
X72296D01*
Y10185D01*
X72307D01*
Y10174D01*
X72318D01*
Y10163D01*
X72329D01*
Y10152D01*
X72340D01*
Y10142D01*
X72350D01*
Y10131D01*
X72361D01*
Y10120D01*
X72372D01*
Y10109D01*
X72383D01*
Y10098D01*
X72394D01*
Y10087D01*
X72405D01*
Y10066D01*
X72394D01*
Y10055D01*
X72383D01*
Y10044D01*
X72372D01*
Y10033D01*
X72361D01*
Y10022D01*
X72350D01*
Y10011D01*
X72340D01*
Y10000D01*
X72329D01*
Y9990D01*
X72318D01*
Y9979D01*
X72307D01*
Y9968D01*
X72296D01*
Y9957D01*
X72285D01*
Y9946D01*
X72274D01*
Y9935D01*
X72264D01*
Y9924D01*
X72253D01*
Y9892D01*
X72264D01*
Y9881D01*
X72274D01*
Y9870D01*
X72285D01*
Y9859D01*
X72296D01*
Y9848D01*
X72307D01*
Y9837D01*
X72318D01*
Y9827D01*
X72329D01*
Y9816D01*
X72350D01*
Y9805D01*
X72361D01*
Y9816D01*
X72372D01*
Y9827D01*
X72383D01*
Y9837D01*
X72394D01*
Y9848D01*
X72405D01*
Y9859D01*
X72416D01*
Y9870D01*
X72426D01*
Y9881D01*
X72437D01*
Y9892D01*
X72448D01*
Y9903D01*
X72459D01*
Y9914D01*
X72470D01*
Y9924D01*
X72481D01*
Y9935D01*
X72492D01*
Y9946D01*
X72502D01*
Y9957D01*
X72513D01*
Y9968D01*
X72524D01*
Y9957D01*
X72535D01*
Y9946D01*
X72546D01*
Y9935D01*
X72557D01*
Y9924D01*
X72568D01*
Y9914D01*
X72578D01*
Y9903D01*
X72589D01*
Y9892D01*
X72600D01*
Y9881D01*
X72611D01*
Y9870D01*
X72622D01*
Y9859D01*
X72633D01*
Y9848D01*
X72644D01*
Y9837D01*
X72655D01*
Y9827D01*
X72665D01*
Y9805D01*
X72655D01*
Y9794D01*
X72644D01*
Y9783D01*
X72633D01*
Y9772D01*
X72622D01*
Y9761D01*
X72611D01*
Y9751D01*
X72600D01*
Y9740D01*
X72589D01*
Y9729D01*
X72578D01*
Y9718D01*
X72568D01*
Y9707D01*
X72557D01*
Y9696D01*
X72546D01*
Y9685D01*
X72535D01*
Y9675D01*
X72524D01*
Y9664D01*
X72513D01*
Y9631D01*
X72524D01*
Y9620D01*
X72535D01*
Y9609D01*
X72546D01*
Y9599D01*
X72557D01*
Y9588D01*
X72568D01*
Y9577D01*
X72578D01*
Y9566D01*
X72589D01*
Y9555D01*
X72600D01*
Y9544D01*
X72622D01*
Y9566D01*
X72633D01*
Y9577D01*
X72644D01*
Y9588D01*
X72655D01*
Y9599D01*
X72665D01*
Y9609D01*
X72698D01*
Y9631D01*
X72720D01*
Y9653D01*
X72731D01*
Y9664D01*
X72741D01*
Y9675D01*
X72752D01*
Y9685D01*
X72763D01*
Y9696D01*
X72774D01*
Y9707D01*
X72785D01*
Y9696D01*
X72796D01*
Y9685D01*
X72807D01*
Y9675D01*
X72817D01*
Y9664D01*
X72828D01*
Y9653D01*
X72839D01*
Y9642D01*
X72850D01*
Y9631D01*
X72861D01*
Y9620D01*
X72872D01*
Y9609D01*
X72883D01*
Y9599D01*
X72893D01*
Y9588D01*
X72904D01*
Y9577D01*
X72915D01*
Y9566D01*
X72926D01*
Y9555D01*
X72937D01*
Y9544D01*
X72926D01*
Y9533D01*
X72915D01*
Y9523D01*
X72904D01*
Y9512D01*
X72893D01*
Y9501D01*
X72883D01*
Y9490D01*
X72872D01*
Y9479D01*
X72861D01*
Y9468D01*
X72850D01*
Y9457D01*
X72839D01*
Y9447D01*
X72828D01*
Y9436D01*
X72817D01*
Y9425D01*
X72807D01*
Y9414D01*
X72796D01*
Y9403D01*
X72785D01*
Y9360D01*
X72796D01*
Y9349D01*
X72807D01*
Y9338D01*
X72817D01*
Y9327D01*
X72828D01*
Y9316D01*
X72839D01*
Y9305D01*
X72850D01*
Y9294D01*
X72861D01*
Y9284D01*
X72872D01*
Y9273D01*
X72883D01*
Y9262D01*
X72893D01*
Y9251D01*
X72904D01*
Y9240D01*
X72915D01*
Y9229D01*
X72926D01*
Y9218D01*
X72937D01*
Y9208D01*
X72948D01*
Y9197D01*
X72959D01*
Y9186D01*
X72969D01*
Y9175D01*
X72980D01*
Y9164D01*
X72991D01*
Y9153D01*
X73002D01*
Y9142D01*
X72969D01*
Y9132D01*
X72774D01*
Y9142D01*
X72600D01*
Y9218D01*
X72589D01*
Y9240D01*
X72437D01*
Y9262D01*
X72426D01*
Y9305D01*
X72416D01*
Y9316D01*
X72405D01*
Y9349D01*
X72394D01*
Y9360D01*
X72383D01*
Y9381D01*
X72372D01*
Y9403D01*
X72383D01*
Y9414D01*
X72394D01*
Y9425D01*
X72405D01*
Y9447D01*
X72416D01*
Y9457D01*
X72426D01*
Y9468D01*
X72437D01*
Y9479D01*
X72448D01*
Y9501D01*
X72459D01*
Y9523D01*
X72448D01*
Y9544D01*
X72437D01*
Y9555D01*
X72426D01*
Y9577D01*
X72405D01*
Y9588D01*
X72394D01*
Y9599D01*
X72383D01*
Y9609D01*
X72372D01*
Y9620D01*
X72383D01*
Y9631D01*
X72361D01*
Y9642D01*
X72350D01*
Y9653D01*
X72329D01*
Y9664D01*
X72318D01*
Y9675D01*
X72307D01*
Y9664D01*
X72285D01*
Y9653D01*
X72253D01*
Y9642D01*
X72242D01*
Y9631D01*
X72220D01*
Y9620D01*
X72198D01*
Y9609D01*
X72177D01*
Y9620D01*
X72166D01*
Y9631D01*
X72144D01*
Y9642D01*
X72122D01*
Y9653D01*
X72101D01*
Y9664D01*
X72090D01*
Y9675D01*
X72068D01*
Y9685D01*
X72046D01*
Y9696D01*
X72057D01*
Y9837D01*
X72046D01*
Y9848D01*
X72025D01*
Y9859D01*
X72003D01*
Y9870D01*
X71959D01*
Y9881D01*
X71927D01*
Y9892D01*
X71883D01*
Y9903D01*
X71851D01*
Y9892D01*
X71840D01*
Y9870D01*
X71818D01*
Y9837D01*
X71807D01*
Y9816D01*
X71797D01*
Y9805D01*
X71786D01*
Y9783D01*
X71775D01*
Y9772D01*
X71612D01*
Y9794D01*
X71601D01*
Y9805D01*
X71590D01*
Y9837D01*
X71579D01*
Y9848D01*
X71568D01*
Y9870D01*
X71558D01*
Y9892D01*
X71536D01*
Y9903D01*
X71503D01*
Y9892D01*
X71471D01*
Y9881D01*
X71438D01*
Y9870D01*
X71395D01*
Y9859D01*
X71362D01*
Y9848D01*
X71351D01*
Y9837D01*
X71330D01*
Y9751D01*
X71340D01*
Y9685D01*
X71330D01*
Y9675D01*
X71297D01*
Y9664D01*
X71286D01*
Y9653D01*
X71264D01*
Y9642D01*
X71254D01*
Y9631D01*
X71232D01*
Y9620D01*
X71221D01*
Y9609D01*
X71188D01*
Y9620D01*
X71167D01*
Y9631D01*
X71145D01*
Y9642D01*
X71134D01*
Y9653D01*
X71112D01*
Y9664D01*
X71091D01*
Y9675D01*
X71058D01*
Y9642D01*
X71036D01*
Y9631D01*
X71025D01*
Y9620D01*
X71015D01*
Y9599D01*
X70993D01*
Y9577D01*
X70971D01*
Y9555D01*
X70960D01*
Y9544D01*
X70949D01*
Y9533D01*
X70939D01*
Y9490D01*
X70949D01*
Y9479D01*
X70960D01*
Y9457D01*
X70971D01*
Y9447D01*
X70982D01*
Y9436D01*
X70993D01*
Y9425D01*
X71004D01*
Y9403D01*
X71015D01*
Y9360D01*
X71004D01*
Y9349D01*
X70993D01*
Y9316D01*
X70982D01*
Y9294D01*
X70971D01*
Y9284D01*
X70960D01*
Y9240D01*
X70819D01*
Y9229D01*
X70797D01*
Y9197D01*
X70787D01*
Y9153D01*
X70797D01*
Y9142D01*
X70385D01*
Y9153D01*
X70396D01*
Y9164D01*
X70406D01*
Y9175D01*
X70417D01*
Y9186D01*
X70428D01*
Y9197D01*
X70439D01*
Y9208D01*
X70450D01*
Y9218D01*
X70461D01*
Y9229D01*
X70472D01*
Y9240D01*
X70482D01*
Y9251D01*
X70493D01*
Y9262D01*
X70504D01*
Y9273D01*
X70515D01*
Y9284D01*
X70526D01*
Y9294D01*
X70537D01*
Y9305D01*
X70548D01*
Y9316D01*
X70558D01*
Y9327D01*
X70569D01*
Y9338D01*
X70580D01*
Y9349D01*
X70591D01*
Y9360D01*
X70602D01*
Y9370D01*
X70613D01*
Y9381D01*
X70624D01*
Y9392D01*
X70635D01*
Y9403D01*
X70645D01*
Y9414D01*
X70656D01*
Y9425D01*
X70667D01*
Y9436D01*
X70678D01*
Y9447D01*
X70689D01*
Y9457D01*
X70700D01*
Y9468D01*
X70711D01*
Y9479D01*
X70721D01*
Y9490D01*
X70732D01*
Y9501D01*
X70743D01*
Y9512D01*
X70754D01*
Y9523D01*
X70765D01*
Y9533D01*
X70776D01*
Y9544D01*
X70787D01*
Y9555D01*
X70808D01*
Y9566D01*
X70819D01*
Y9577D01*
X70830D01*
Y9588D01*
X70841D01*
Y9599D01*
X70852D01*
Y9609D01*
X70863D01*
Y9620D01*
X70873D01*
Y9631D01*
X70884D01*
Y9642D01*
X70895D01*
Y9653D01*
X70906D01*
Y9664D01*
X70917D01*
Y9675D01*
X70928D01*
Y9685D01*
X70939D01*
Y9696D01*
X70949D01*
Y9707D01*
X70960D01*
Y9718D01*
X70971D01*
Y9729D01*
X70982D01*
Y9740D01*
X70993D01*
Y9751D01*
X71004D01*
Y9761D01*
X71015D01*
Y9772D01*
X71025D01*
Y9783D01*
X71036D01*
Y9794D01*
X71047D01*
Y9805D01*
X71058D01*
Y9816D01*
X71069D01*
Y9827D01*
X71080D01*
Y9837D01*
X71091D01*
Y9848D01*
X71101D01*
Y9859D01*
X71112D01*
Y9870D01*
X71123D01*
Y9881D01*
X71134D01*
Y9892D01*
X71145D01*
Y9903D01*
X71156D01*
Y9914D01*
X71167D01*
Y9924D01*
X71178D01*
Y9935D01*
X71188D01*
Y9946D01*
X71199D01*
Y9957D01*
X71210D01*
Y9968D01*
X71221D01*
Y9979D01*
X71232D01*
Y9990D01*
X71243D01*
Y10000D01*
X71254D01*
Y10011D01*
X71264D01*
Y10022D01*
X71275D01*
Y10033D01*
X71286D01*
Y10044D01*
X71297D01*
Y10055D01*
X71308D01*
Y10066D01*
X71319D01*
Y10076D01*
X71330D01*
Y10087D01*
X71340D01*
Y10098D01*
X71351D01*
Y10109D01*
X71362D01*
Y10120D01*
X71373D01*
Y10131D01*
X71384D01*
Y10142D01*
X71395D01*
Y10152D01*
X71406D01*
Y10163D01*
X71416D01*
Y10174D01*
X71427D01*
Y10185D01*
X71438D01*
Y10196D01*
X71449D01*
Y10207D01*
X71460D01*
Y10218D01*
X71471D01*
Y10228D01*
X71482D01*
Y10239D01*
X71492D01*
Y10250D01*
X71503D01*
Y10261D01*
X71514D01*
Y10272D01*
X71525D01*
Y10283D01*
X71536D01*
Y10294D01*
X71547D01*
Y10304D01*
X71558D01*
Y10315D01*
X71568D01*
Y10326D01*
X71579D01*
Y10337D01*
X71590D01*
Y10348D01*
X71601D01*
Y10359D01*
X71612D01*
Y10370D01*
X71623D01*
Y10381D01*
X71634D01*
Y10391D01*
X71645D01*
Y10402D01*
X71655D01*
Y10413D01*
X71666D01*
Y10424D01*
X71677D01*
Y10435D01*
X71688D01*
Y10446D01*
X71710D01*
Y10435D01*
D02*
G37*
G36*
X73979Y8860D02*
X74164D01*
Y8686D01*
X74001D01*
Y8675D01*
X73979D01*
Y8024D01*
X73990D01*
Y8013D01*
X74001D01*
Y8002D01*
X74164D01*
Y7970D01*
X74175D01*
Y7872D01*
X74164D01*
Y7828D01*
X74001D01*
Y7817D01*
X73925D01*
Y7828D01*
X73827D01*
Y7839D01*
X73773D01*
Y7850D01*
X73741D01*
Y7861D01*
X73719D01*
Y7872D01*
X73697D01*
Y7883D01*
X73686D01*
Y7894D01*
X73675D01*
Y7915D01*
X73665D01*
Y7948D01*
X73654D01*
Y8675D01*
X73632D01*
Y8686D01*
X73588D01*
Y8697D01*
X73556D01*
Y8686D01*
X73502D01*
Y8860D01*
X73534D01*
Y8871D01*
X73556D01*
Y8882D01*
X73578D01*
Y8893D01*
X73599D01*
Y8904D01*
X73610D01*
Y8914D01*
X73632D01*
Y8925D01*
X73654D01*
Y8936D01*
X73675D01*
Y8947D01*
X73686D01*
Y8958D01*
X73708D01*
Y8969D01*
X73730D01*
Y8980D01*
X73751D01*
Y8990D01*
X73762D01*
Y9001D01*
X73784D01*
Y9012D01*
X73795D01*
Y9023D01*
X73827D01*
Y9034D01*
X73849D01*
Y9045D01*
X73860D01*
Y9056D01*
X73882D01*
Y9066D01*
X73903D01*
Y9077D01*
X73914D01*
Y9088D01*
X73936D01*
Y9099D01*
X73958D01*
Y9110D01*
X73979D01*
Y8860D01*
D02*
G37*
G36*
X76542Y9262D02*
X76217D01*
Y10315D01*
X76542D01*
Y9262D01*
D02*
G37*
G36*
X75044Y8686D02*
X74598D01*
Y8675D01*
X74588D01*
Y8632D01*
X74577D01*
Y8491D01*
X74588D01*
Y8437D01*
X75044D01*
Y8263D01*
X74588D01*
Y8241D01*
X74577D01*
Y8100D01*
X74588D01*
Y8024D01*
X74598D01*
Y8013D01*
X74609D01*
Y8002D01*
X75044D01*
Y7828D01*
X74436D01*
Y7839D01*
X74392D01*
Y7850D01*
X74349D01*
Y7861D01*
X74327D01*
Y7872D01*
X74316D01*
Y7883D01*
X74305D01*
Y7894D01*
X74294D01*
Y7904D01*
X74284D01*
Y7915D01*
X74273D01*
Y8773D01*
X74284D01*
Y8795D01*
X74294D01*
Y8806D01*
X74305D01*
Y8817D01*
X74316D01*
Y8827D01*
X74349D01*
Y8838D01*
X74370D01*
Y8849D01*
X74468D01*
Y8860D01*
X75044D01*
Y8686D01*
D02*
G37*
G36*
X77085Y8849D02*
X77075D01*
Y7839D01*
X77085D01*
Y7828D01*
X76771D01*
Y8263D01*
X76499D01*
Y7883D01*
X76488D01*
Y7828D01*
X76184D01*
Y8849D01*
X76325D01*
Y8860D01*
X76488D01*
Y8437D01*
X76771D01*
Y8860D01*
X77085D01*
Y8849D01*
D02*
G37*
G36*
X76043Y8686D02*
X75619D01*
Y8675D01*
X75587D01*
Y8665D01*
X75576D01*
Y8654D01*
X75565D01*
Y8643D01*
X75554D01*
Y8621D01*
X75532D01*
Y8578D01*
X75522D01*
Y8556D01*
X75511D01*
Y8480D01*
X75500D01*
Y8382D01*
X75489D01*
Y8317D01*
X75500D01*
Y8198D01*
X75511D01*
Y8122D01*
X75522D01*
Y8100D01*
X75532D01*
Y8067D01*
X75543D01*
Y8056D01*
X75554D01*
Y8046D01*
X75565D01*
Y8035D01*
X75576D01*
Y8024D01*
X75598D01*
Y8013D01*
X75619D01*
Y8002D01*
X76043D01*
Y7828D01*
X75630D01*
Y7839D01*
X75565D01*
Y7850D01*
X75500D01*
Y7861D01*
X75478D01*
Y7872D01*
X75446D01*
Y7883D01*
X75424D01*
Y7894D01*
X75402D01*
Y7904D01*
X75380D01*
Y7915D01*
X75359D01*
Y7926D01*
X75348D01*
Y7937D01*
X75326D01*
Y7948D01*
X75315D01*
Y7959D01*
X75304D01*
Y7970D01*
X75294D01*
Y7980D01*
X75283D01*
Y7991D01*
X75272D01*
Y8002D01*
X75261D01*
Y8013D01*
X75250D01*
Y8035D01*
X75239D01*
Y8046D01*
X75228D01*
Y8067D01*
X75218D01*
Y8089D01*
X75207D01*
Y8111D01*
X75196D01*
Y8122D01*
X75185D01*
Y8143D01*
X75174D01*
Y8176D01*
X75163D01*
Y8198D01*
X75152D01*
Y8263D01*
X75142D01*
Y8415D01*
X75152D01*
Y8491D01*
X75163D01*
Y8513D01*
X75174D01*
Y8523D01*
X75185D01*
Y8534D01*
X75174D01*
Y8545D01*
X75185D01*
Y8556D01*
X75196D01*
Y8578D01*
X75207D01*
Y8610D01*
X75228D01*
Y8632D01*
X75239D01*
Y8654D01*
X75250D01*
Y8665D01*
X75261D01*
Y8675D01*
X75272D01*
Y8697D01*
X75283D01*
Y8708D01*
X75294D01*
Y8719D01*
X75304D01*
Y8730D01*
X75326D01*
Y8741D01*
X75337D01*
Y8751D01*
X75348D01*
Y8762D01*
X75370D01*
Y8773D01*
X75380D01*
Y8784D01*
X75402D01*
Y8795D01*
X75413D01*
Y8806D01*
X75435D01*
Y8817D01*
X75456D01*
Y8827D01*
X75500D01*
Y8838D01*
X75532D01*
Y8849D01*
X75630D01*
Y8860D01*
X76043D01*
Y8686D01*
D02*
G37*
G36*
X73013Y8849D02*
X73002D01*
Y8838D01*
X72991D01*
Y8827D01*
X72980D01*
Y8817D01*
X72969D01*
Y8806D01*
X72959D01*
Y8795D01*
X72948D01*
Y8784D01*
X72937D01*
Y8773D01*
X72926D01*
Y8762D01*
X72915D01*
Y8751D01*
X72904D01*
Y8741D01*
X72893D01*
Y8730D01*
X72883D01*
Y8719D01*
X72872D01*
Y8708D01*
X72861D01*
Y8697D01*
X72850D01*
Y8686D01*
X72839D01*
Y8675D01*
X72828D01*
Y8665D01*
X72817D01*
Y8654D01*
X72807D01*
Y8643D01*
X72796D01*
Y8632D01*
X72785D01*
Y8621D01*
X72774D01*
Y8610D01*
X72763D01*
Y8599D01*
X72752D01*
Y8589D01*
X72741D01*
Y8578D01*
X72731D01*
Y8567D01*
X72720D01*
Y8556D01*
X72709D01*
Y8545D01*
X72698D01*
Y8534D01*
X72687D01*
Y8523D01*
X72676D01*
Y8513D01*
X72665D01*
Y8502D01*
X72655D01*
Y8491D01*
X72644D01*
Y8480D01*
X72633D01*
Y8469D01*
X72622D01*
Y8458D01*
X72611D01*
Y8447D01*
X72600D01*
Y8437D01*
X72589D01*
Y8426D01*
X72578D01*
Y8415D01*
X72568D01*
Y8404D01*
X72557D01*
Y8393D01*
X72546D01*
Y8382D01*
X72535D01*
Y8371D01*
X72524D01*
Y8360D01*
X72513D01*
Y8350D01*
X72502D01*
Y8339D01*
X72492D01*
Y8328D01*
X72481D01*
Y8317D01*
X72470D01*
Y8306D01*
X72459D01*
Y8295D01*
X72448D01*
Y8284D01*
X72437D01*
Y8274D01*
X72426D01*
Y8263D01*
X72416D01*
Y8252D01*
X72405D01*
Y8241D01*
X72394D01*
Y8230D01*
X72383D01*
Y8219D01*
X72372D01*
Y8208D01*
X72361D01*
Y8198D01*
X72350D01*
Y8187D01*
X72340D01*
Y8176D01*
X72329D01*
Y8165D01*
X72318D01*
Y8154D01*
X72307D01*
Y8143D01*
X72296D01*
Y8132D01*
X72285D01*
Y8122D01*
X72274D01*
Y8111D01*
X72264D01*
Y8100D01*
X72253D01*
Y8089D01*
X72242D01*
Y8078D01*
X72231D01*
Y8067D01*
X72220D01*
Y8056D01*
X72209D01*
Y8046D01*
X72198D01*
Y8035D01*
X72188D01*
Y8024D01*
X72177D01*
Y8013D01*
X72166D01*
Y8002D01*
X72155D01*
Y7991D01*
X72144D01*
Y7980D01*
X72133D01*
Y7970D01*
X72122D01*
Y7959D01*
X72112D01*
Y7948D01*
X72101D01*
Y7937D01*
X72090D01*
Y7926D01*
X72079D01*
Y7915D01*
X72068D01*
Y7904D01*
X72057D01*
Y7894D01*
X72046D01*
Y7883D01*
X72035D01*
Y7872D01*
X72025D01*
Y7861D01*
X72014D01*
Y7850D01*
X72003D01*
Y7839D01*
X71992D01*
Y7828D01*
X71981D01*
Y7817D01*
X71970D01*
Y7807D01*
X71959D01*
Y7796D01*
X71949D01*
Y7785D01*
X71938D01*
Y7774D01*
X71927D01*
Y7763D01*
X71916D01*
Y7752D01*
X71905D01*
Y7741D01*
X71894D01*
Y7731D01*
X71883D01*
Y7720D01*
X71873D01*
Y7709D01*
X71862D01*
Y7698D01*
X71851D01*
Y7687D01*
X71840D01*
Y7676D01*
X71829D01*
Y7665D01*
X71818D01*
Y7655D01*
X71807D01*
Y7644D01*
X71797D01*
Y7633D01*
X71786D01*
Y7622D01*
X71775D01*
Y7611D01*
X71764D01*
Y7600D01*
X71753D01*
Y7589D01*
X71742D01*
Y7579D01*
X71731D01*
Y7568D01*
X71721D01*
Y7557D01*
X71710D01*
Y7546D01*
X71688D01*
Y7557D01*
X71677D01*
Y7568D01*
X71666D01*
Y7579D01*
X71655D01*
Y7589D01*
X71645D01*
Y7600D01*
X71634D01*
Y7611D01*
X71623D01*
Y7622D01*
X71612D01*
Y7633D01*
X71601D01*
Y7644D01*
X71590D01*
Y7655D01*
X71579D01*
Y7665D01*
X71568D01*
Y7676D01*
X71558D01*
Y7687D01*
X71547D01*
Y7698D01*
X71536D01*
Y7709D01*
X71525D01*
Y7720D01*
X71514D01*
Y7731D01*
X71503D01*
Y7741D01*
X71492D01*
Y7752D01*
X71482D01*
Y7763D01*
X71471D01*
Y7774D01*
X71460D01*
Y7785D01*
X71449D01*
Y7796D01*
X71438D01*
Y7807D01*
X71427D01*
Y7817D01*
X71416D01*
Y7828D01*
X71406D01*
Y7839D01*
X71395D01*
Y7850D01*
X71384D01*
Y7861D01*
X71373D01*
Y7872D01*
X71362D01*
Y7883D01*
X71351D01*
Y7894D01*
X71340D01*
Y7904D01*
X71330D01*
Y7915D01*
X71297D01*
Y7904D01*
X71286D01*
Y7894D01*
X71275D01*
Y7883D01*
X71264D01*
Y7872D01*
X71254D01*
Y7861D01*
X71243D01*
Y7850D01*
X71232D01*
Y7839D01*
X71221D01*
Y7828D01*
X71210D01*
Y7817D01*
X71199D01*
Y7807D01*
X71188D01*
Y7796D01*
X71178D01*
Y7785D01*
X71167D01*
Y7774D01*
X71145D01*
Y7763D01*
X71134D01*
Y7774D01*
X71123D01*
Y7785D01*
X71112D01*
Y7796D01*
X71101D01*
Y7807D01*
X71091D01*
Y7817D01*
X71080D01*
Y7828D01*
X71069D01*
Y7839D01*
X71058D01*
Y7850D01*
X71047D01*
Y7861D01*
X71036D01*
Y7872D01*
X71025D01*
Y7883D01*
X71015D01*
Y7894D01*
X71004D01*
Y7904D01*
X70993D01*
Y7915D01*
X70982D01*
Y7926D01*
X70993D01*
Y7937D01*
X71004D01*
Y7948D01*
X71015D01*
Y7959D01*
X71025D01*
Y7970D01*
X71036D01*
Y7980D01*
X71047D01*
Y7991D01*
X71058D01*
Y8002D01*
X71069D01*
Y8013D01*
X71080D01*
Y8024D01*
X71091D01*
Y8035D01*
X71101D01*
Y8046D01*
X71112D01*
Y8056D01*
X71123D01*
Y8067D01*
X71145D01*
Y8100D01*
X71134D01*
Y8111D01*
X71123D01*
Y8122D01*
X71112D01*
Y8132D01*
X71101D01*
Y8143D01*
X71091D01*
Y8154D01*
X71080D01*
Y8165D01*
X71069D01*
Y8176D01*
X71058D01*
Y8187D01*
X71036D01*
Y8176D01*
X71025D01*
Y8165D01*
X71015D01*
Y8154D01*
X71004D01*
Y8143D01*
X70993D01*
Y8132D01*
X70982D01*
Y8122D01*
X70971D01*
Y8111D01*
X70960D01*
Y8100D01*
X70949D01*
Y8089D01*
X70939D01*
Y8078D01*
X70928D01*
Y8067D01*
X70917D01*
Y8056D01*
X70906D01*
Y8046D01*
X70895D01*
Y8035D01*
X70884D01*
Y8024D01*
X70873D01*
Y8035D01*
X70863D01*
Y8046D01*
X70852D01*
Y8056D01*
X70841D01*
Y8067D01*
X70830D01*
Y8078D01*
X70819D01*
Y8089D01*
X70808D01*
Y8100D01*
X70797D01*
Y8111D01*
X70787D01*
Y8122D01*
X70776D01*
Y8132D01*
X70765D01*
Y8143D01*
X70754D01*
Y8154D01*
X70743D01*
Y8165D01*
X70732D01*
Y8176D01*
X70721D01*
Y8187D01*
X70732D01*
Y8198D01*
X70743D01*
Y8208D01*
X70754D01*
Y8219D01*
X70765D01*
Y8230D01*
X70776D01*
Y8241D01*
X70787D01*
Y8252D01*
X70797D01*
Y8263D01*
X70808D01*
Y8274D01*
X70819D01*
Y8284D01*
X70830D01*
Y8295D01*
X70841D01*
Y8306D01*
X70852D01*
Y8317D01*
X70863D01*
Y8328D01*
X70884D01*
Y8360D01*
X70863D01*
Y8371D01*
X70852D01*
Y8382D01*
X70841D01*
Y8393D01*
X70830D01*
Y8404D01*
X70819D01*
Y8415D01*
X70808D01*
Y8437D01*
X70797D01*
Y8447D01*
X70776D01*
Y8437D01*
X70765D01*
Y8426D01*
X70754D01*
Y8415D01*
X70743D01*
Y8404D01*
X70732D01*
Y8393D01*
X70721D01*
Y8382D01*
X70711D01*
Y8371D01*
X70700D01*
Y8360D01*
X70689D01*
Y8350D01*
X70678D01*
Y8339D01*
X70667D01*
Y8328D01*
X70656D01*
Y8317D01*
X70645D01*
Y8306D01*
X70635D01*
Y8295D01*
X70624D01*
Y8284D01*
X70613D01*
Y8295D01*
X70602D01*
Y8306D01*
X70591D01*
Y8317D01*
X70580D01*
Y8328D01*
X70569D01*
Y8339D01*
X70558D01*
Y8350D01*
X70548D01*
Y8360D01*
X70537D01*
Y8371D01*
X70526D01*
Y8382D01*
X70515D01*
Y8393D01*
X70504D01*
Y8404D01*
X70493D01*
Y8415D01*
X70482D01*
Y8426D01*
X70472D01*
Y8437D01*
X70461D01*
Y8447D01*
X70472D01*
Y8458D01*
X70482D01*
Y8469D01*
X70493D01*
Y8480D01*
X70504D01*
Y8491D01*
X70515D01*
Y8502D01*
X70526D01*
Y8513D01*
X70537D01*
Y8523D01*
X70548D01*
Y8534D01*
X70558D01*
Y8545D01*
X70569D01*
Y8556D01*
X70580D01*
Y8567D01*
X70591D01*
Y8578D01*
X70602D01*
Y8589D01*
X70613D01*
Y8621D01*
X70602D01*
Y8632D01*
X70591D01*
Y8643D01*
X70580D01*
Y8654D01*
X70569D01*
Y8665D01*
X70558D01*
Y8675D01*
X70548D01*
Y8686D01*
X70537D01*
Y8697D01*
X70526D01*
Y8708D01*
X70515D01*
Y8719D01*
X70504D01*
Y8730D01*
X70493D01*
Y8741D01*
X70482D01*
Y8751D01*
X70472D01*
Y8762D01*
X70461D01*
Y8773D01*
X70450D01*
Y8784D01*
X70439D01*
Y8795D01*
X70428D01*
Y8806D01*
X70417D01*
Y8817D01*
X70406D01*
Y8838D01*
X70396D01*
Y8849D01*
X70504D01*
Y8860D01*
X70928D01*
Y8838D01*
X70939D01*
Y8795D01*
X70917D01*
Y8784D01*
X70906D01*
Y8773D01*
X70884D01*
Y8762D01*
X70873D01*
Y8751D01*
X70863D01*
Y8741D01*
X70852D01*
Y8730D01*
X70841D01*
Y8719D01*
X70819D01*
Y8686D01*
X70830D01*
Y8665D01*
X70841D01*
Y8632D01*
X70852D01*
Y8610D01*
X70863D01*
Y8589D01*
X70873D01*
Y8567D01*
X70884D01*
Y8556D01*
X70895D01*
Y8523D01*
X70906D01*
Y8513D01*
X70939D01*
Y8523D01*
X70971D01*
Y8534D01*
X71047D01*
Y8545D01*
X71058D01*
Y8523D01*
X71080D01*
Y8513D01*
X71091D01*
Y8491D01*
X71101D01*
Y8480D01*
X71112D01*
Y8469D01*
X71123D01*
Y8458D01*
X71134D01*
Y8447D01*
X71145D01*
Y8437D01*
X71156D01*
Y8426D01*
X71167D01*
Y8415D01*
X71156D01*
Y8393D01*
X71145D01*
Y8371D01*
X71134D01*
Y8339D01*
X71123D01*
Y8306D01*
X71112D01*
Y8274D01*
X71134D01*
Y8263D01*
X71145D01*
Y8252D01*
X71156D01*
Y8241D01*
X71167D01*
Y8230D01*
X71188D01*
Y8219D01*
X71210D01*
Y8208D01*
X71221D01*
Y8198D01*
X71243D01*
Y8187D01*
X71264D01*
Y8176D01*
X71286D01*
Y8165D01*
X71297D01*
Y8176D01*
X71308D01*
Y8187D01*
X71319D01*
Y8198D01*
X71330D01*
Y8208D01*
X71340D01*
Y8219D01*
X71351D01*
Y8230D01*
X71362D01*
Y8241D01*
X71373D01*
Y8252D01*
X71384D01*
Y8263D01*
X71438D01*
Y8252D01*
X71460D01*
Y8241D01*
X71514D01*
Y8230D01*
X71547D01*
Y8219D01*
X71558D01*
Y8198D01*
X71568D01*
Y8154D01*
X71579D01*
Y8089D01*
X71590D01*
Y8078D01*
X71655D01*
Y8067D01*
X71775D01*
Y8078D01*
X71818D01*
Y8154D01*
X71829D01*
Y8187D01*
X71840D01*
Y8219D01*
X71851D01*
Y8230D01*
X71883D01*
Y8241D01*
X71938D01*
Y8252D01*
X71959D01*
Y8263D01*
X72003D01*
Y8252D01*
X72014D01*
Y8241D01*
X72025D01*
Y8230D01*
X72035D01*
Y8219D01*
X72046D01*
Y8208D01*
X72057D01*
Y8198D01*
X72068D01*
Y8187D01*
X72079D01*
Y8176D01*
X72101D01*
Y8165D01*
X72112D01*
Y8176D01*
X72133D01*
Y8187D01*
X72155D01*
Y8198D01*
X72166D01*
Y8208D01*
X72188D01*
Y8219D01*
X72209D01*
Y8230D01*
X72231D01*
Y8252D01*
X72253D01*
Y8263D01*
X72264D01*
Y8274D01*
X72285D01*
Y8306D01*
X72274D01*
Y8339D01*
X72264D01*
Y8360D01*
X72253D01*
Y8393D01*
X72242D01*
Y8415D01*
X72231D01*
Y8426D01*
X72242D01*
Y8437D01*
X72253D01*
Y8447D01*
X72264D01*
Y8458D01*
X72274D01*
Y8469D01*
X72285D01*
Y8480D01*
X72296D01*
Y8502D01*
X72307D01*
Y8513D01*
X72318D01*
Y8523D01*
X72329D01*
Y8545D01*
X72361D01*
Y8534D01*
X72416D01*
Y8523D01*
X72459D01*
Y8513D01*
X72481D01*
Y8523D01*
X72502D01*
Y8556D01*
X72513D01*
Y8567D01*
X72524D01*
Y8599D01*
X72535D01*
Y8610D01*
X72546D01*
Y8643D01*
X72557D01*
Y8665D01*
X72568D01*
Y8686D01*
X72578D01*
Y8719D01*
X72568D01*
Y8730D01*
X72546D01*
Y8741D01*
X72535D01*
Y8751D01*
X72524D01*
Y8762D01*
X72513D01*
Y8773D01*
X72492D01*
Y8784D01*
X72481D01*
Y8795D01*
X72459D01*
Y8827D01*
X72470D01*
Y8860D01*
X73013D01*
Y8849D01*
D02*
G37*
G36*
X71384Y9512D02*
X71438D01*
Y9501D01*
X71460D01*
Y9479D01*
X71471D01*
Y9468D01*
X71482D01*
Y9436D01*
X71492D01*
Y9425D01*
X71503D01*
Y9392D01*
X71514D01*
Y9381D01*
X71525D01*
Y9349D01*
X71536D01*
Y9338D01*
X71547D01*
Y9316D01*
X71558D01*
Y9294D01*
X71568D01*
Y9273D01*
X71579D01*
Y9240D01*
X71590D01*
Y9218D01*
X71601D01*
Y9197D01*
X71612D01*
Y9175D01*
X71623D01*
Y9164D01*
X71634D01*
Y9121D01*
X71645D01*
Y9110D01*
X71612D01*
Y9099D01*
X71579D01*
Y9088D01*
X71514D01*
Y9077D01*
X71482D01*
Y9066D01*
X71449D01*
Y9056D01*
X71416D01*
Y9045D01*
X71384D01*
Y9034D01*
X71362D01*
Y9023D01*
X71340D01*
Y9012D01*
X71319D01*
Y9001D01*
X71308D01*
Y8990D01*
X71286D01*
Y8980D01*
X71275D01*
Y8969D01*
X71254D01*
Y8958D01*
X71243D01*
Y8947D01*
X71221D01*
Y8925D01*
X71254D01*
Y8936D01*
X71264D01*
Y8947D01*
X71286D01*
Y8958D01*
X71308D01*
Y8969D01*
X71319D01*
Y8980D01*
X71351D01*
Y8990D01*
X71373D01*
Y9001D01*
X71406D01*
Y9012D01*
X71416D01*
Y9023D01*
X71460D01*
Y9034D01*
X71482D01*
Y9045D01*
X71536D01*
Y9056D01*
X71579D01*
Y9066D01*
X71677D01*
Y9045D01*
X71688D01*
Y9023D01*
X71699D01*
Y9034D01*
X71721D01*
Y9066D01*
X71731D01*
Y9077D01*
X71753D01*
Y9066D01*
X71829D01*
Y9056D01*
X71873D01*
Y9045D01*
X71927D01*
Y9034D01*
X71949D01*
Y9023D01*
X71992D01*
Y9012D01*
X72014D01*
Y9001D01*
X72035D01*
Y8990D01*
X72057D01*
Y8980D01*
X72079D01*
Y8969D01*
X72101D01*
Y8958D01*
X72122D01*
Y8980D01*
X72101D01*
Y8990D01*
X72090D01*
Y9001D01*
X72079D01*
Y9012D01*
X72057D01*
Y9023D01*
X72025D01*
Y9034D01*
X72014D01*
Y9045D01*
X71981D01*
Y9056D01*
X71970D01*
Y9066D01*
X71938D01*
Y9077D01*
X71905D01*
Y9088D01*
X71851D01*
Y9099D01*
X71807D01*
Y9110D01*
X71753D01*
Y9132D01*
X71764D01*
Y9164D01*
X71775D01*
Y9175D01*
X71786D01*
Y9208D01*
X71797D01*
Y9218D01*
X71807D01*
Y9251D01*
X71818D01*
Y9273D01*
X71829D01*
Y9294D01*
X71840D01*
Y9316D01*
X71851D01*
Y9338D01*
X71862D01*
Y9370D01*
X71873D01*
Y9381D01*
X71883D01*
Y9414D01*
X71894D01*
Y9425D01*
X71905D01*
Y9457D01*
X71916D01*
Y9468D01*
X71927D01*
Y9479D01*
X71938D01*
Y9490D01*
X71949D01*
Y9501D01*
X71959D01*
Y9512D01*
X72198D01*
Y9501D01*
X72209D01*
Y9479D01*
X72220D01*
Y8480D01*
X72035D01*
Y8860D01*
X72025D01*
Y8849D01*
X72014D01*
Y8838D01*
X72003D01*
Y8817D01*
X71992D01*
Y8795D01*
X71981D01*
Y8773D01*
X71970D01*
Y8751D01*
X71959D01*
Y8741D01*
X71949D01*
Y8708D01*
X71938D01*
Y8697D01*
X71927D01*
Y8665D01*
X71916D01*
Y8643D01*
X71894D01*
Y8610D01*
X71883D01*
Y8599D01*
X71873D01*
Y8567D01*
X71862D01*
Y8556D01*
X71851D01*
Y8523D01*
X71829D01*
Y8502D01*
X71807D01*
Y8480D01*
X71590D01*
Y8491D01*
X71579D01*
Y8502D01*
X71568D01*
Y8513D01*
X71558D01*
Y8523D01*
X71547D01*
Y8545D01*
X71536D01*
Y8567D01*
X71525D01*
Y8578D01*
X71514D01*
Y8599D01*
X71503D01*
Y8621D01*
X71492D01*
Y8654D01*
X71482D01*
Y8665D01*
X71471D01*
Y8697D01*
X71460D01*
Y8708D01*
X71449D01*
Y8741D01*
X71438D01*
Y8751D01*
X71427D01*
Y8762D01*
X71416D01*
Y8795D01*
X71406D01*
Y8806D01*
X71395D01*
Y8838D01*
X71373D01*
Y8860D01*
X71351D01*
Y8491D01*
X71362D01*
Y8480D01*
X71178D01*
Y9490D01*
X71188D01*
Y9501D01*
X71199D01*
Y9512D01*
X71362D01*
Y9523D01*
X71384D01*
Y9512D01*
D02*
G37*
G36*
X76130Y10304D02*
X76119D01*
Y10272D01*
X76108D01*
Y10250D01*
X76097D01*
Y10218D01*
X76086D01*
Y10196D01*
X76075D01*
Y10152D01*
X76065D01*
Y10131D01*
X76054D01*
Y10109D01*
X76043D01*
Y10098D01*
X76054D01*
Y10087D01*
X76043D01*
Y10066D01*
X76032D01*
Y10044D01*
X76021D01*
Y10000D01*
X76010D01*
Y9979D01*
X75999D01*
Y9935D01*
X75989D01*
Y9914D01*
X75978D01*
Y9870D01*
X75967D01*
Y9848D01*
X75956D01*
Y9827D01*
X75945D01*
Y9816D01*
X75956D01*
Y9805D01*
X75945D01*
Y9783D01*
X75934D01*
Y9761D01*
X75923D01*
Y9718D01*
X75913D01*
Y9696D01*
X75902D01*
Y9653D01*
X75891D01*
Y9631D01*
X75880D01*
Y9588D01*
X75869D01*
Y9566D01*
X75858D01*
Y9544D01*
X75847D01*
Y9512D01*
X75837D01*
Y9479D01*
X75826D01*
Y9436D01*
X75815D01*
Y9425D01*
X75804D01*
Y9381D01*
X75793D01*
Y9370D01*
X75782D01*
Y9349D01*
X75771D01*
Y9338D01*
X75761D01*
Y9327D01*
X75750D01*
Y9316D01*
X75739D01*
Y9305D01*
X75717D01*
Y9294D01*
X75706D01*
Y9284D01*
X75674D01*
Y9273D01*
X75641D01*
Y9262D01*
X75565D01*
Y9273D01*
X75532D01*
Y9284D01*
X75500D01*
Y9294D01*
X75489D01*
Y9305D01*
X75467D01*
Y9316D01*
X75456D01*
Y9327D01*
X75446D01*
Y9338D01*
X75435D01*
Y9349D01*
X75424D01*
Y9370D01*
X75413D01*
Y9381D01*
X75402D01*
Y9414D01*
X75391D01*
Y9436D01*
X75380D01*
Y9479D01*
X75370D01*
Y9512D01*
X75359D01*
Y9533D01*
X75348D01*
Y9566D01*
X75337D01*
Y9588D01*
X75326D01*
Y9631D01*
X75315D01*
Y9653D01*
X75304D01*
Y9696D01*
X75294D01*
Y9718D01*
X75283D01*
Y9740D01*
X75272D01*
Y9751D01*
X75283D01*
Y9761D01*
X75272D01*
Y9783D01*
X75261D01*
Y9805D01*
X75250D01*
Y9848D01*
X75239D01*
Y9870D01*
X75228D01*
Y9914D01*
X75218D01*
Y9935D01*
X75207D01*
Y9979D01*
X75196D01*
Y10000D01*
X75185D01*
Y10044D01*
X75174D01*
Y10066D01*
X75163D01*
Y10087D01*
X75152D01*
Y10120D01*
X75142D01*
Y10142D01*
X75131D01*
Y10196D01*
X75120D01*
Y10218D01*
X75109D01*
Y10261D01*
X75098D01*
Y10283D01*
X75087D01*
Y10304D01*
X75076D01*
Y10315D01*
X75424D01*
Y10304D01*
X75435D01*
Y10272D01*
X75446D01*
Y10250D01*
X75456D01*
Y10196D01*
X75467D01*
Y10174D01*
X75478D01*
Y10152D01*
X75489D01*
Y10142D01*
X75478D01*
Y10131D01*
X75489D01*
Y10120D01*
X75500D01*
Y10098D01*
X75511D01*
Y10055D01*
X75522D01*
Y10022D01*
X75532D01*
Y9979D01*
X75543D01*
Y9957D01*
X75554D01*
Y9924D01*
X75565D01*
Y9903D01*
X75576D01*
Y9881D01*
X75587D01*
Y9870D01*
X75576D01*
Y9859D01*
X75587D01*
Y9827D01*
X75598D01*
Y9805D01*
X75608D01*
Y9761D01*
X75619D01*
Y9751D01*
X75630D01*
Y9707D01*
X75641D01*
Y9685D01*
X75652D01*
Y9642D01*
X75663D01*
Y9620D01*
X75674D01*
Y9588D01*
X75695D01*
Y9609D01*
X75706D01*
Y9620D01*
X75717D01*
Y9664D01*
X75728D01*
Y9685D01*
X75739D01*
Y9707D01*
X75750D01*
Y9761D01*
X75761D01*
Y9772D01*
X75771D01*
Y9816D01*
X75782D01*
Y9837D01*
X75793D01*
Y9881D01*
X75804D01*
Y9903D01*
X75815D01*
Y9946D01*
X75826D01*
Y9968D01*
X75837D01*
Y9990D01*
X75847D01*
Y10033D01*
X75858D01*
Y10055D01*
X75869D01*
Y10098D01*
X75880D01*
Y10120D01*
X75891D01*
Y10163D01*
X75902D01*
Y10185D01*
X75913D01*
Y10218D01*
X75923D01*
Y10250D01*
X75934D01*
Y10272D01*
X75945D01*
Y10315D01*
X76130D01*
Y10304D01*
D02*
G37*
G36*
X21200Y14173D02*
X21082D01*
X21081Y14670D01*
X20956Y14173D01*
X20834D01*
X20709Y14670D01*
Y14173D01*
X20591D01*
Y14805D01*
X20781D01*
X20895Y14373D01*
X21008Y14805D01*
X21200D01*
Y14173D01*
D02*
G37*
G36*
X24953D02*
X24816D01*
X24590Y14805D01*
X24728D01*
X24888Y14338D01*
X25042Y14805D01*
X25178D01*
X24953Y14173D01*
D02*
G37*
G36*
X21470Y14510D02*
X21349D01*
Y14631D01*
X21470D01*
Y14510D01*
D02*
G37*
G36*
X22156Y14814D02*
X22166Y14813D01*
X22177Y14811D01*
X22190Y14809D01*
X22203Y14807D01*
X22218Y14803D01*
X22233Y14798D01*
X22249Y14793D01*
X22265Y14786D01*
X22280Y14778D01*
X22295Y14769D01*
X22310Y14758D01*
X22324Y14746D01*
X22325D01*
X22326Y14744D01*
X22331Y14738D01*
X22339Y14730D01*
X22348Y14716D01*
X22359Y14700D01*
X22370Y14681D01*
X22381Y14658D01*
X22390Y14631D01*
X22264Y14601D01*
Y14602D01*
X22263Y14603D01*
X22262Y14609D01*
X22258Y14617D01*
X22253Y14629D01*
X22247Y14641D01*
X22239Y14654D01*
X22229Y14666D01*
X22217Y14678D01*
X22215Y14679D01*
X22210Y14683D01*
X22203Y14687D01*
X22193Y14692D01*
X22180Y14698D01*
X22165Y14702D01*
X22148Y14706D01*
X22130Y14707D01*
X22123D01*
X22119Y14706D01*
X22113Y14705D01*
X22106Y14704D01*
X22090Y14700D01*
X22071Y14694D01*
X22052Y14685D01*
X22044Y14680D01*
X22034Y14673D01*
X22025Y14664D01*
X22017Y14656D01*
Y14655D01*
X22015Y14654D01*
X22013Y14650D01*
X22010Y14646D01*
X22007Y14640D01*
X22003Y14634D01*
X21999Y14626D01*
X21996Y14616D01*
X21991Y14606D01*
X21987Y14594D01*
X21983Y14581D01*
X21980Y14565D01*
X21977Y14550D01*
X21975Y14532D01*
X21974Y14512D01*
X21973Y14492D01*
Y14491D01*
Y14487D01*
Y14481D01*
X21974Y14473D01*
Y14462D01*
X21975Y14452D01*
X21977Y14439D01*
X21979Y14426D01*
X21984Y14398D01*
X21992Y14369D01*
X21996Y14356D01*
X22002Y14343D01*
X22008Y14332D01*
X22016Y14321D01*
X22017Y14320D01*
X22018Y14319D01*
X22023Y14314D01*
X22033Y14306D01*
X22046Y14296D01*
X22062Y14287D01*
X22081Y14279D01*
X22103Y14273D01*
X22115Y14272D01*
X22127Y14271D01*
X22132D01*
X22136Y14272D01*
X22145Y14273D01*
X22157Y14275D01*
X22171Y14279D01*
X22186Y14285D01*
X22200Y14292D01*
X22215Y14303D01*
X22217Y14305D01*
X22220Y14309D01*
X22227Y14317D01*
X22235Y14328D01*
X22243Y14342D01*
X22252Y14361D01*
X22261Y14381D01*
X22267Y14406D01*
X22391Y14367D01*
Y14366D01*
X22390Y14363D01*
X22389Y14358D01*
X22386Y14350D01*
X22383Y14341D01*
X22379Y14332D01*
X22374Y14320D01*
X22368Y14309D01*
X22356Y14284D01*
X22340Y14258D01*
X22319Y14234D01*
X22309Y14222D01*
X22296Y14213D01*
X22295Y14212D01*
X22293Y14211D01*
X22290Y14208D01*
X22285Y14205D01*
X22278Y14201D01*
X22270Y14197D01*
X22261Y14192D01*
X22250Y14188D01*
X22239Y14183D01*
X22226Y14178D01*
X22213Y14174D01*
X22198Y14170D01*
X22182Y14167D01*
X22166Y14165D01*
X22147Y14164D01*
X22129Y14163D01*
X22123D01*
X22117Y14164D01*
X22108D01*
X22097Y14166D01*
X22085Y14167D01*
X22071Y14169D01*
X22056Y14173D01*
X22040Y14178D01*
X22023Y14184D01*
X22006Y14191D01*
X21989Y14199D01*
X21972Y14209D01*
X21954Y14220D01*
X21938Y14233D01*
X21922Y14248D01*
X21922Y14249D01*
X21919Y14252D01*
X21915Y14257D01*
X21910Y14264D01*
X21904Y14272D01*
X21897Y14283D01*
X21890Y14295D01*
X21882Y14310D01*
X21874Y14325D01*
X21868Y14343D01*
X21861Y14363D01*
X21854Y14384D01*
X21849Y14406D01*
X21846Y14430D01*
X21843Y14456D01*
X21842Y14483D01*
Y14485D01*
Y14489D01*
X21843Y14498D01*
Y14509D01*
X21845Y14522D01*
X21846Y14537D01*
X21848Y14554D01*
X21852Y14572D01*
X21856Y14592D01*
X21862Y14611D01*
X21868Y14633D01*
X21875Y14653D01*
X21885Y14673D01*
X21896Y14692D01*
X21908Y14710D01*
X21922Y14728D01*
X21923Y14729D01*
X21926Y14732D01*
X21931Y14735D01*
X21937Y14741D01*
X21946Y14748D01*
X21955Y14756D01*
X21967Y14763D01*
X21980Y14772D01*
X21995Y14780D01*
X22011Y14787D01*
X22028Y14795D01*
X22047Y14802D01*
X22068Y14807D01*
X22090Y14811D01*
X22113Y14814D01*
X22137Y14815D01*
X22148D01*
X22156Y14814D01*
D02*
G37*
G36*
X74403Y10304D02*
X74425D01*
Y10294D01*
X74446D01*
Y10283D01*
X74457D01*
Y10272D01*
X74468D01*
Y10261D01*
X74479D01*
Y10250D01*
X74490D01*
Y10239D01*
X74501D01*
Y10207D01*
X74512D01*
Y10185D01*
X74522D01*
Y9262D01*
X74316D01*
Y9284D01*
X74327D01*
Y9631D01*
X74316D01*
Y9642D01*
X74327D01*
Y9664D01*
X74305D01*
Y9653D01*
X74294D01*
Y9642D01*
X74284D01*
Y9609D01*
X74273D01*
Y9599D01*
X74262D01*
Y9566D01*
X74251D01*
Y9555D01*
X74240D01*
Y9533D01*
X74229D01*
Y9512D01*
X74218D01*
Y9501D01*
X74208D01*
Y9468D01*
X74197D01*
Y9457D01*
X74186D01*
Y9425D01*
X74175D01*
Y9414D01*
X74164D01*
Y9392D01*
X74153D01*
Y9370D01*
X74142D01*
Y9360D01*
X74131D01*
Y9338D01*
X74121D01*
Y9327D01*
X74110D01*
Y9316D01*
X74099D01*
Y9305D01*
X74088D01*
Y9294D01*
X74077D01*
Y9284D01*
X74045D01*
Y9273D01*
X74023D01*
Y9262D01*
X73969D01*
Y9273D01*
X73936D01*
Y9284D01*
X73914D01*
Y9294D01*
X73903D01*
Y9305D01*
X73893D01*
Y9316D01*
X73882D01*
Y9327D01*
X73871D01*
Y9349D01*
X73860D01*
Y9360D01*
X73849D01*
Y9370D01*
X73838D01*
Y9392D01*
X73827D01*
Y9425D01*
X73817D01*
Y9436D01*
X73806D01*
Y9457D01*
X73795D01*
Y9479D01*
X73784D01*
Y9490D01*
X73773D01*
Y9523D01*
X73762D01*
Y9533D01*
X73751D01*
Y9555D01*
X73741D01*
Y9577D01*
X73730D01*
Y9609D01*
X73719D01*
Y9620D01*
X73708D01*
Y9642D01*
X73697D01*
Y9653D01*
X73686D01*
Y9664D01*
X73665D01*
Y9642D01*
X73675D01*
Y9262D01*
X73469D01*
Y10163D01*
X73480D01*
Y10218D01*
X73491D01*
Y10228D01*
X73502D01*
Y10239D01*
X73512D01*
Y10261D01*
X73523D01*
Y10272D01*
X73534D01*
Y10283D01*
X73556D01*
Y10294D01*
X73567D01*
Y10304D01*
X73599D01*
Y10315D01*
X73697D01*
Y10304D01*
X73719D01*
Y10294D01*
X73741D01*
Y10283D01*
X73751D01*
Y10272D01*
X73762D01*
Y10261D01*
X73773D01*
Y10239D01*
X73784D01*
Y10228D01*
X73795D01*
Y10207D01*
X73806D01*
Y10196D01*
X73817D01*
Y10163D01*
X73827D01*
Y10152D01*
X73838D01*
Y10109D01*
X73849D01*
Y10098D01*
X73860D01*
Y10066D01*
X73871D01*
Y10055D01*
X73882D01*
Y10033D01*
X73893D01*
Y10000D01*
X73903D01*
Y9990D01*
X73914D01*
Y9957D01*
X73925D01*
Y9946D01*
X73936D01*
Y9914D01*
X73947D01*
Y9903D01*
X73958D01*
Y9859D01*
X73969D01*
Y9848D01*
X73979D01*
Y9816D01*
X74001D01*
Y9827D01*
X74012D01*
Y9837D01*
X74023D01*
Y9870D01*
X74034D01*
Y9881D01*
X74045D01*
Y9914D01*
X74055D01*
Y9924D01*
X74066D01*
Y9946D01*
X74077D01*
Y9990D01*
X74099D01*
Y10022D01*
X74110D01*
Y10044D01*
X74121D01*
Y10076D01*
X74131D01*
Y10087D01*
X74142D01*
Y10120D01*
X74153D01*
Y10142D01*
X74164D01*
Y10152D01*
X74175D01*
Y10185D01*
X74186D01*
Y10196D01*
X74197D01*
Y10218D01*
X74208D01*
Y10239D01*
X74218D01*
Y10250D01*
X74229D01*
Y10272D01*
X74251D01*
Y10283D01*
X74262D01*
Y10294D01*
X74273D01*
Y10304D01*
X74305D01*
Y10315D01*
X74403D01*
Y10304D01*
D02*
G37*
G36*
X77042Y9468D02*
X77053D01*
Y9447D01*
X77075D01*
Y9436D01*
X77238D01*
Y9262D01*
X76868D01*
Y9273D01*
X76836D01*
Y9284D01*
X76803D01*
Y9294D01*
X76781D01*
Y9305D01*
X76760D01*
Y9316D01*
X76749D01*
Y9327D01*
X76738D01*
Y9338D01*
X76727D01*
Y9381D01*
X76716D01*
Y10315D01*
X77042D01*
Y9468D01*
D02*
G37*
%LPC*%
G36*
X1002Y984D02*
X901D01*
Y482D01*
X1036D01*
X1050Y483D01*
X1064D01*
X1080Y486D01*
X1094Y487D01*
X1105Y489D01*
X1107D01*
X1112Y492D01*
X1119Y494D01*
X1127Y496D01*
X1148Y507D01*
X1159Y512D01*
X1168Y520D01*
X1169Y522D01*
X1172Y525D01*
X1176Y530D01*
X1182Y538D01*
X1188Y548D01*
X1194Y561D01*
X1201Y576D01*
X1207Y593D01*
Y594D01*
X1208Y595D01*
Y599D01*
X1209Y602D01*
X1212Y614D01*
X1215Y630D01*
X1218Y649D01*
X1221Y674D01*
X1222Y701D01*
X1223Y733D01*
Y734D01*
Y736D01*
Y741D01*
Y747D01*
Y754D01*
X1222Y762D01*
X1221Y782D01*
X1220Y804D01*
X1216Y826D01*
X1213Y848D01*
X1207Y866D01*
X1206Y869D01*
X1205Y874D01*
X1201Y882D01*
X1197Y893D01*
X1190Y905D01*
X1183Y917D01*
X1175Y930D01*
X1164Y940D01*
X1163Y941D01*
X1160Y945D01*
X1153Y949D01*
X1145Y955D01*
X1135Y961D01*
X1123Y967D01*
X1109Y971D01*
X1094Y976D01*
X1093D01*
X1087Y977D01*
X1079Y978D01*
X1066Y980D01*
X1058D01*
X1049Y982D01*
X1040D01*
X1028Y983D01*
X1016D01*
X1002Y984D01*
D02*
G37*
G36*
X1951Y820D02*
X1943D01*
X1934Y818D01*
X1923Y816D01*
X1910Y812D01*
X1896Y805D01*
X1883Y797D01*
X1868Y786D01*
X1866Y784D01*
X1862Y779D01*
X1855Y772D01*
X1847Y760D01*
X1838Y746D01*
X1828Y730D01*
X1819Y709D01*
X1811Y688D01*
Y686D01*
X1810Y685D01*
Y682D01*
X1809Y677D01*
X1805Y664D01*
X1802Y649D01*
X1798Y632D01*
X1796Y614D01*
X1794Y594D01*
X1793Y576D01*
Y575D01*
Y573D01*
Y570D01*
Y565D01*
X1794Y554D01*
X1796Y539D01*
X1800Y523D01*
X1804Y508D01*
X1810Y492D01*
X1819Y479D01*
X1820Y478D01*
X1824Y474D01*
X1830Y470D01*
X1838Y464D01*
X1847Y458D01*
X1858Y453D01*
X1871Y450D01*
X1885Y449D01*
X1890D01*
X1895Y450D01*
X1902Y451D01*
X1911Y452D01*
X1921Y455D01*
X1930Y458D01*
X1940Y463D01*
X1941D01*
X1944Y465D01*
X1947Y467D01*
X1953Y471D01*
X1964Y481D01*
X1978Y495D01*
X1979Y496D01*
X1983Y501D01*
X1989Y508D01*
X1994Y518D01*
X2002Y531D01*
X2009Y547D01*
X2017Y565D01*
X2026Y586D01*
Y587D01*
X2027Y588D01*
X2028Y592D01*
X2029Y596D01*
X2032Y608D01*
X2036Y623D01*
X2039Y640D01*
X2043Y660D01*
X2045Y679D01*
X2046Y699D01*
Y700D01*
Y701D01*
Y708D01*
X2045Y719D01*
X2043Y731D01*
X2039Y746D01*
X2035Y761D01*
X2028Y775D01*
X2019Y788D01*
X2017Y789D01*
X2014Y792D01*
X2008Y798D01*
X2000Y804D01*
X1990Y810D01*
X1978Y816D01*
X1966Y819D01*
X1951Y820D01*
D02*
G37*
G36*
X24046Y14698D02*
X23901D01*
Y14537D01*
X24024D01*
X24042Y14538D01*
X24062Y14539D01*
X24080Y14540D01*
X24089Y14541D01*
X24095Y14542D01*
X24102Y14544D01*
X24107Y14545D01*
X24108D01*
X24111Y14547D01*
X24115Y14549D01*
X24120Y14551D01*
X24132Y14560D01*
X24138Y14564D01*
X24142Y14571D01*
X24143Y14572D01*
X24144Y14575D01*
X24146Y14579D01*
X24149Y14585D01*
X24152Y14591D01*
X24154Y14600D01*
X24155Y14609D01*
X24156Y14619D01*
Y14620D01*
Y14625D01*
X24155Y14631D01*
X24154Y14637D01*
X24152Y14645D01*
X24148Y14654D01*
X24144Y14662D01*
X24139Y14670D01*
X24138Y14671D01*
X24136Y14673D01*
X24132Y14677D01*
X24126Y14681D01*
X24119Y14685D01*
X24112Y14689D01*
X24102Y14692D01*
X24091Y14695D01*
X24091D01*
X24088Y14696D01*
X24083D01*
X24074Y14697D01*
X24055D01*
X24046Y14698D01*
D02*
G37*
G36*
X22757Y14700D02*
X22629D01*
Y14554D01*
X22751D01*
X22767Y14555D01*
X22795D01*
X22801Y14556D01*
X22807D01*
X22810Y14557D01*
X22816Y14558D01*
X22823Y14560D01*
X22832Y14562D01*
X22840Y14566D01*
X22848Y14572D01*
X22856Y14578D01*
X22857Y14579D01*
X22859Y14582D01*
X22861Y14585D01*
X22865Y14591D01*
X22869Y14599D01*
X22872Y14607D01*
X22874Y14617D01*
X22875Y14628D01*
Y14629D01*
Y14633D01*
X22874Y14638D01*
X22873Y14644D01*
X22871Y14652D01*
X22868Y14660D01*
X22864Y14667D01*
X22859Y14675D01*
X22858Y14676D01*
X22856Y14678D01*
X22852Y14681D01*
X22846Y14684D01*
X22839Y14688D01*
X22832Y14692D01*
X22822Y14695D01*
X22810Y14697D01*
X22810D01*
X22806Y14698D01*
X22795D01*
X22789Y14699D01*
X22766D01*
X22757Y14700D01*
D02*
G37*
G36*
X23384Y14658D02*
X23299Y14423D01*
X23473D01*
X23384Y14658D01*
D02*
G37*
G36*
X22760Y14449D02*
X22629D01*
Y14280D01*
X22769D01*
X22783Y14281D01*
X22798D01*
X22812Y14282D01*
X22825Y14283D01*
X22830D01*
X22834Y14284D01*
X22834D01*
X22838Y14285D01*
X22843Y14287D01*
X22850Y14289D01*
X22857Y14292D01*
X22865Y14296D01*
X22873Y14302D01*
X22880Y14309D01*
X22881Y14310D01*
X22883Y14313D01*
X22885Y14317D01*
X22889Y14323D01*
X22892Y14331D01*
X22895Y14340D01*
X22897Y14351D01*
X22898Y14363D01*
Y14364D01*
Y14367D01*
X22897Y14372D01*
X22896Y14379D01*
X22894Y14387D01*
X22892Y14394D01*
X22888Y14403D01*
X22883Y14411D01*
X22883Y14412D01*
X22881Y14413D01*
X22878Y14417D01*
X22874Y14422D01*
X22868Y14427D01*
X22861Y14432D01*
X22854Y14436D01*
X22844Y14439D01*
X22843D01*
X22838Y14441D01*
X22832Y14442D01*
X22826Y14443D01*
X22820Y14444D01*
X22813Y14445D01*
X22805Y14446D01*
X22796Y14447D01*
X22785D01*
X22774Y14448D01*
X22760Y14449D01*
D02*
G37*
G36*
X26156Y14707D02*
X26152D01*
X26148Y14706D01*
X26142Y14705D01*
X26136Y14703D01*
X26130Y14701D01*
X26123Y14697D01*
X26116Y14692D01*
X26115Y14691D01*
X26113Y14689D01*
X26111Y14685D01*
X26107Y14681D01*
X26103Y14674D01*
X26098Y14665D01*
X26094Y14655D01*
X26090Y14642D01*
Y14641D01*
Y14640D01*
X26089Y14637D01*
X26088Y14634D01*
X26087Y14628D01*
X26087Y14621D01*
X26086Y14613D01*
X26085Y14605D01*
X26084Y14594D01*
X26083Y14583D01*
X26082Y14570D01*
X26081Y14556D01*
X26080Y14539D01*
Y14522D01*
X26079Y14504D01*
Y14484D01*
Y14483D01*
Y14479D01*
Y14473D01*
Y14465D01*
Y14457D01*
X26080Y14446D01*
Y14435D01*
Y14423D01*
X26082Y14397D01*
X26084Y14372D01*
X26085Y14360D01*
X26086Y14349D01*
X26087Y14339D01*
X26089Y14330D01*
X26090Y14328D01*
X26091Y14323D01*
X26093Y14316D01*
X26097Y14308D01*
X26101Y14298D01*
X26105Y14290D01*
X26111Y14282D01*
X26116Y14275D01*
X26117Y14274D01*
X26119Y14273D01*
X26123Y14271D01*
X26128Y14268D01*
X26134Y14265D01*
X26140Y14264D01*
X26148Y14263D01*
X26156Y14262D01*
X26160D01*
X26163Y14263D01*
X26168Y14264D01*
X26181Y14267D01*
X26186Y14270D01*
X26193Y14275D01*
X26194Y14276D01*
X26196Y14278D01*
X26199Y14282D01*
X26203Y14287D01*
X26208Y14293D01*
X26211Y14302D01*
X26216Y14313D01*
X26220Y14325D01*
Y14326D01*
X26221Y14327D01*
Y14330D01*
X26222Y14335D01*
X26223Y14339D01*
X26224Y14346D01*
X26225Y14354D01*
X26227Y14363D01*
X26228Y14373D01*
X26229Y14385D01*
X26230Y14397D01*
X26231Y14412D01*
X26232Y14428D01*
Y14445D01*
X26233Y14463D01*
Y14484D01*
Y14485D01*
Y14488D01*
Y14494D01*
Y14502D01*
Y14511D01*
X26232Y14521D01*
Y14533D01*
Y14544D01*
X26230Y14570D01*
X26228Y14595D01*
X26227Y14607D01*
X26225Y14618D01*
X26223Y14628D01*
X26221Y14636D01*
Y14637D01*
Y14638D01*
X26219Y14643D01*
X26217Y14650D01*
X26213Y14659D01*
X26205Y14678D01*
X26199Y14685D01*
X26193Y14692D01*
X26192Y14693D01*
X26190Y14694D01*
X26186Y14697D01*
X26183Y14700D01*
X26177Y14702D01*
X26170Y14705D01*
X26163Y14706D01*
X26156Y14707D01*
D02*
G37*
G36*
X24126Y15487D02*
X23998D01*
Y15341D01*
X24120D01*
X24137Y15342D01*
X24165D01*
X24170Y15343D01*
X24176D01*
X24180Y15344D01*
X24186Y15345D01*
X24192Y15347D01*
X24201Y15350D01*
X24210Y15354D01*
X24217Y15359D01*
X24225Y15365D01*
X24226Y15366D01*
X24228Y15369D01*
X24231Y15373D01*
X24235Y15379D01*
X24239Y15386D01*
X24241Y15394D01*
X24243Y15405D01*
X24244Y15415D01*
Y15416D01*
Y15420D01*
X24243Y15426D01*
X24242Y15432D01*
X24240Y15439D01*
X24238Y15447D01*
X24234Y15455D01*
X24228Y15462D01*
X24227Y15463D01*
X24225Y15465D01*
X24221Y15468D01*
X24215Y15472D01*
X24209Y15476D01*
X24201Y15480D01*
X24191Y15482D01*
X24180Y15484D01*
X24179D01*
X24175Y15485D01*
X24165D01*
X24159Y15486D01*
X24136D01*
X24126Y15487D01*
D02*
G37*
G36*
X24130Y15236D02*
X23998D01*
Y15067D01*
X24139D01*
X24152Y15068D01*
X24167D01*
X24182Y15069D01*
X24194Y15070D01*
X24199D01*
X24203Y15071D01*
X24204D01*
X24208Y15072D01*
X24213Y15074D01*
X24219Y15076D01*
X24226Y15080D01*
X24235Y15084D01*
X24242Y15089D01*
X24249Y15096D01*
X24250Y15097D01*
X24252Y15100D01*
X24255Y15105D01*
X24259Y15111D01*
X24262Y15118D01*
X24264Y15128D01*
X24266Y15138D01*
X24267Y15150D01*
Y15151D01*
Y15155D01*
X24266Y15160D01*
X24265Y15166D01*
X24263Y15174D01*
X24262Y15182D01*
X24258Y15190D01*
X24253Y15198D01*
X24252Y15199D01*
X24250Y15201D01*
X24247Y15205D01*
X24243Y15210D01*
X24238Y15214D01*
X24231Y15219D01*
X24223Y15223D01*
X24214Y15227D01*
X24213D01*
X24208Y15229D01*
X24201Y15230D01*
X24195Y15231D01*
X24189Y15232D01*
X24183Y15233D01*
X24174Y15234D01*
X24165Y15235D01*
X24155D01*
X24143Y15235D01*
X24130Y15236D01*
D02*
G37*
G36*
X20802Y15485D02*
X20718D01*
Y15067D01*
X20831D01*
X20842Y15068D01*
X20854D01*
X20867Y15070D01*
X20879Y15071D01*
X20888Y15073D01*
X20889D01*
X20894Y15075D01*
X20900Y15077D01*
X20907Y15079D01*
X20924Y15087D01*
X20933Y15092D01*
X20940Y15099D01*
X20941Y15100D01*
X20944Y15103D01*
X20947Y15107D01*
X20952Y15113D01*
X20958Y15122D01*
X20962Y15133D01*
X20968Y15145D01*
X20973Y15160D01*
Y15161D01*
X20974Y15161D01*
Y15164D01*
X20975Y15167D01*
X20977Y15177D01*
X20980Y15190D01*
X20983Y15207D01*
X20985Y15227D01*
X20986Y15250D01*
X20986Y15276D01*
Y15277D01*
Y15279D01*
Y15283D01*
Y15288D01*
Y15294D01*
X20986Y15301D01*
X20985Y15317D01*
X20984Y15335D01*
X20981Y15354D01*
X20978Y15372D01*
X20973Y15387D01*
X20972Y15389D01*
X20971Y15394D01*
X20968Y15401D01*
X20964Y15409D01*
X20959Y15420D01*
X20953Y15430D01*
X20946Y15440D01*
X20937Y15449D01*
X20937Y15450D01*
X20934Y15453D01*
X20928Y15457D01*
X20921Y15461D01*
X20913Y15466D01*
X20903Y15471D01*
X20891Y15475D01*
X20879Y15479D01*
X20878D01*
X20873Y15480D01*
X20866Y15481D01*
X20856Y15482D01*
X20849D01*
X20841Y15483D01*
X20834D01*
X20824Y15484D01*
X20814D01*
X20802Y15485D01*
D02*
G37*
G36*
X24754Y15445D02*
X24668Y15210D01*
X24842D01*
X24754Y15445D01*
D02*
G37*
G36*
X25416Y15485D02*
X25271D01*
Y15325D01*
X25394D01*
X25412Y15326D01*
X25431Y15327D01*
X25449Y15328D01*
X25458Y15329D01*
X25465Y15330D01*
X25471Y15332D01*
X25476Y15333D01*
X25477D01*
X25480Y15334D01*
X25484Y15336D01*
X25490Y15338D01*
X25501Y15347D01*
X25507Y15352D01*
X25512Y15358D01*
X25513Y15359D01*
X25514Y15362D01*
X25516Y15366D01*
X25519Y15372D01*
X25521Y15379D01*
X25523Y15387D01*
X25524Y15396D01*
X25525Y15407D01*
Y15408D01*
Y15412D01*
X25524Y15418D01*
X25523Y15425D01*
X25521Y15432D01*
X25518Y15441D01*
X25514Y15450D01*
X25508Y15457D01*
X25507Y15458D01*
X25505Y15460D01*
X25501Y15464D01*
X25495Y15468D01*
X25489Y15473D01*
X25481Y15477D01*
X25471Y15480D01*
X25461Y15482D01*
X25460D01*
X25457Y15483D01*
X25452D01*
X25444Y15484D01*
X25424D01*
X25416Y15485D01*
D02*
G37*
G36*
X22624D02*
X22529D01*
Y15306D01*
X22616D01*
X22623Y15307D01*
X22638D01*
X22656Y15308D01*
X22672Y15309D01*
X22686Y15312D01*
X22693Y15313D01*
X22698Y15315D01*
X22699Y15316D01*
X22702Y15317D01*
X22707Y15319D01*
X22712Y15323D01*
X22719Y15327D01*
X22726Y15333D01*
X22733Y15338D01*
X22738Y15346D01*
X22739Y15347D01*
X22740Y15350D01*
X22743Y15355D01*
X22746Y15360D01*
X22748Y15367D01*
X22751Y15376D01*
X22752Y15385D01*
X22753Y15395D01*
Y15397D01*
Y15401D01*
X22752Y15408D01*
X22750Y15415D01*
X22748Y15424D01*
X22744Y15433D01*
X22739Y15443D01*
X22733Y15452D01*
X22732Y15453D01*
X22729Y15456D01*
X22725Y15459D01*
X22718Y15464D01*
X22711Y15469D01*
X22702Y15474D01*
X22692Y15478D01*
X22681Y15481D01*
X22680D01*
X22676Y15481D01*
X22670Y15482D01*
X22661Y15483D01*
X22649D01*
X22633Y15484D01*
X22624Y15485D01*
D02*
G37*
%LPD*%
D45*
X76181Y4823D02*
G03*
X76181Y4823I-2953J0D01*
G01*
Y16240D02*
G03*
X76181Y16240I-2953J0D01*
G01*
X28937Y11024D02*
G03*
X28937Y11024I-2953J0D01*
G01*
X12008Y20098D02*
X15561D01*
X12008Y18091D02*
Y20098D01*
Y18091D02*
X15561D01*
Y20098D01*
X7717Y12195D02*
Y15748D01*
X5709D02*
X7717D01*
X5709Y12195D02*
Y15748D01*
Y12195D02*
X7717D01*
X5118Y1870D02*
Y2470D01*
X5418D01*
X5518Y2370D01*
Y2170D01*
X5418Y2070D01*
X5118D01*
X5318D02*
X5518Y1870D01*
X5718D02*
X5918D01*
X5818D01*
Y2470D01*
X5718Y2370D01*
X6218Y1970D02*
X6318Y1870D01*
X6518D01*
X6618Y1970D01*
Y2370D01*
X6518Y2470D01*
X6318D01*
X6218Y2370D01*
Y2270D01*
X6318Y2170D01*
X6618D01*
X18904Y10736D02*
X18804Y10836D01*
X18604D01*
X18504Y10736D01*
Y10336D01*
X18604Y10236D01*
X18804D01*
X18904Y10336D01*
X19104D02*
X19204Y10236D01*
X19404D01*
X19504Y10336D01*
Y10736D01*
X19404Y10836D01*
X19204D01*
X19104Y10736D01*
Y10636D01*
X19204Y10536D01*
X19504D01*
X75006Y11523D02*
X74906Y11623D01*
X74706D01*
X74606Y11523D01*
Y11124D01*
X74706Y11024D01*
X74906D01*
X75006Y11124D01*
X75206Y11024D02*
X75406D01*
X75306D01*
Y11623D01*
X75206Y11523D01*
X75706D02*
X75806Y11623D01*
X76006D01*
X76106Y11523D01*
Y11124D01*
X76006Y11024D01*
X75806D01*
X75706Y11124D01*
Y11523D01*
X18707Y8768D02*
X18607Y8868D01*
X18407D01*
X18307Y8768D01*
Y8368D01*
X18407Y8268D01*
X18607D01*
X18707Y8368D01*
X18907Y8268D02*
X19107D01*
X19007D01*
Y8868D01*
X18907Y8768D01*
X19407Y8268D02*
X19607D01*
X19507D01*
Y8868D01*
X19407Y8768D01*
X75990Y20382D02*
X75890Y20482D01*
X75691D01*
X75591Y20382D01*
Y19982D01*
X75691Y19882D01*
X75890D01*
X75990Y19982D01*
X76190Y19882D02*
X76390D01*
X76290D01*
Y20482D01*
X76190Y20382D01*
X77090Y19882D02*
X76690D01*
X77090Y20282D01*
Y20382D01*
X76990Y20482D01*
X76790D01*
X76690Y20382D01*
X68431Y1268D02*
X68331Y1368D01*
X68131D01*
X68032Y1268D01*
Y868D01*
X68131Y768D01*
X68331D01*
X68431Y868D01*
X68631Y768D02*
X68831D01*
X68731D01*
Y1368D01*
X68631Y1268D01*
X69131D02*
X69231Y1368D01*
X69431D01*
X69531Y1268D01*
Y1168D01*
X69431Y1068D01*
X69331D01*
X69431D01*
X69531Y968D01*
Y868D01*
X69431Y768D01*
X69231D01*
X69131Y868D01*
X67906Y4042D02*
X67806Y3942D01*
Y3742D01*
X67906Y3642D01*
X68306D01*
X68406Y3742D01*
Y3942D01*
X68306Y4042D01*
X68406Y4242D02*
Y4441D01*
Y4342D01*
X67806D01*
X67906Y4242D01*
X68406Y5041D02*
X67806D01*
X68106Y4741D01*
Y5141D01*
X24803Y11417D02*
X25403D01*
Y11117D01*
X25303Y11017D01*
X25103D01*
X25003Y11117D01*
Y11417D01*
X24803Y10518D02*
X25403D01*
X25103Y10818D01*
Y10418D01*
X71890Y16890D02*
X72490D01*
Y16590D01*
X72390Y16490D01*
X72190D01*
X72090Y16590D01*
Y16890D01*
X72490Y15890D02*
Y16290D01*
X72190D01*
X72290Y16090D01*
Y15990D01*
X72190Y15890D01*
X71990D01*
X71890Y15990D01*
Y16190D01*
X71990Y16290D01*
X71929Y5315D02*
X72529D01*
Y5015D01*
X72429Y4915D01*
X72229D01*
X72129Y5015D01*
Y5315D01*
X72529Y4315D02*
X72429Y4515D01*
X72229Y4715D01*
X72029D01*
X71929Y4615D01*
Y4415D01*
X72029Y4315D01*
X72129D01*
X72229Y4415D01*
Y4715D01*
X74409Y12205D02*
Y12805D01*
X74709D01*
X74809Y12705D01*
Y12505D01*
X74709Y12405D01*
X74409D01*
X74609D02*
X74809Y12205D01*
X75009D02*
X75209D01*
X75109D01*
Y12805D01*
X75009Y12705D01*
X75809Y12205D02*
Y12805D01*
X75509Y12505D01*
X75909D01*
X65157Y3465D02*
Y4064D01*
X65457D01*
X65557Y3964D01*
Y3764D01*
X65457Y3665D01*
X65157D01*
X65357D02*
X65557Y3465D01*
X65757D02*
X65957D01*
X65857D01*
Y4064D01*
X65757Y3964D01*
X66657Y4064D02*
X66257D01*
Y3764D01*
X66457Y3864D01*
X66557D01*
X66657Y3764D01*
Y3565D01*
X66557Y3465D01*
X66357D01*
X66257Y3565D01*
X31102Y13617D02*
X31002Y13717D01*
X30802D01*
X30702Y13617D01*
Y13217D01*
X30802Y13117D01*
X31002D01*
X31102Y13217D01*
X31302Y13117D02*
X31502D01*
X31402D01*
Y13717D01*
X31302Y13617D01*
X16345Y17429D02*
X16245Y17529D01*
X16045D01*
X15945Y17429D01*
Y17029D01*
X16045Y16929D01*
X16245D01*
X16345Y17029D01*
X16545Y17529D02*
X16945D01*
Y17429D01*
X16545Y17029D01*
Y16929D01*
X16345Y15460D02*
X16245Y15560D01*
X16045D01*
X15945Y15460D01*
Y15061D01*
X16045Y14961D01*
X16245D01*
X16345Y15061D01*
X16545Y15460D02*
X16645Y15560D01*
X16845D01*
X16945Y15460D01*
Y15360D01*
X16845Y15261D01*
X16945Y15161D01*
Y15061D01*
X16845Y14961D01*
X16645D01*
X16545Y15061D01*
Y15161D01*
X16645Y15261D01*
X16545Y15360D01*
Y15460D01*
X16645Y15261D02*
X16845D01*
X9252Y18907D02*
Y18307D01*
X9552D01*
X9652Y18407D01*
Y18807D01*
X9552Y18907D01*
X9252D01*
X9852Y18307D02*
X10052D01*
X9952D01*
Y18907D01*
X9852Y18807D01*
X6102Y10245D02*
Y9646D01*
X6402D01*
X6502Y9746D01*
Y10146D01*
X6402Y10245D01*
X6102D01*
X7102Y9646D02*
X6702D01*
X7102Y10046D01*
Y10146D01*
X7002Y10245D01*
X6802D01*
X6702Y10146D01*
X14605Y13477D02*
X14205D01*
Y12877D01*
X14605D01*
X14205Y13177D02*
X14405D01*
X14805Y12877D02*
X15004D01*
X14905D01*
Y13477D01*
X14805Y13377D01*
X19298Y13395D02*
X18898D01*
Y12795D01*
X19298D01*
X18898Y13095D02*
X19098D01*
X19897Y12795D02*
X19497D01*
X19897Y13195D01*
Y13295D01*
X19797Y13395D01*
X19597D01*
X19497Y13295D01*
X9418Y17431D02*
X9018D01*
Y17131D01*
X9218D01*
X9018D01*
Y16831D01*
X9618D02*
X9817D01*
X9717D01*
Y17431D01*
X9618Y17331D01*
X76778Y11427D02*
X76578D01*
X76678D01*
Y10927D01*
X76578Y10827D01*
X76478D01*
X76378Y10927D01*
X77378Y11327D02*
X77278Y11427D01*
X77078D01*
X76978Y11327D01*
Y10927D01*
X77078Y10827D01*
X77278D01*
X77378Y10927D01*
X77578Y10827D02*
X77778D01*
X77678D01*
Y11427D01*
X77578Y11327D01*
X3549Y9655D02*
X3350D01*
X3450D01*
Y9155D01*
X3350Y9055D01*
X3250D01*
X3150Y9155D01*
X4149Y9555D02*
X4049Y9655D01*
X3849D01*
X3749Y9555D01*
Y9155D01*
X3849Y9055D01*
X4049D01*
X4149Y9155D01*
X4749Y9055D02*
X4349D01*
X4749Y9455D01*
Y9555D01*
X4649Y9655D01*
X4449D01*
X4349Y9555D01*
X30028Y8207D02*
Y8007D01*
Y8107D01*
X30528D01*
X30628Y8007D01*
Y7907D01*
X30528Y7807D01*
X30628Y8407D02*
X30028D01*
Y8707D01*
X30128Y8807D01*
X30328D01*
X30428Y8707D01*
Y8407D01*
X30628Y9007D02*
Y9207D01*
Y9107D01*
X30028D01*
X30128Y9007D01*
X31628Y8257D02*
Y8057D01*
Y8157D01*
X32128D01*
X32228Y8057D01*
Y7957D01*
X32128Y7857D01*
X32228Y8457D02*
X31628D01*
Y8757D01*
X31728Y8857D01*
X31928D01*
X32028Y8757D01*
Y8457D01*
X32228Y9457D02*
Y9057D01*
X31828Y9457D01*
X31728D01*
X31628Y9357D01*
Y9157D01*
X31728Y9057D01*
X29978Y957D02*
Y757D01*
Y857D01*
X30478D01*
X30578Y757D01*
Y657D01*
X30478Y557D01*
X30578Y1157D02*
X29978D01*
Y1457D01*
X30078Y1557D01*
X30278D01*
X30378Y1457D01*
Y1157D01*
X30078Y1757D02*
X29978Y1857D01*
Y2057D01*
X30078Y2157D01*
X30178D01*
X30278Y2057D01*
Y1957D01*
Y2057D01*
X30378Y2157D01*
X30478D01*
X30578Y2057D01*
Y1857D01*
X30478Y1757D01*
X31578Y807D02*
Y607D01*
Y707D01*
X32078D01*
X32178Y607D01*
Y507D01*
X32078Y407D01*
X32178Y1007D02*
X31578D01*
Y1307D01*
X31678Y1407D01*
X31878D01*
X31978Y1307D01*
Y1007D01*
X32178Y1907D02*
X31578D01*
X31878Y1607D01*
Y2007D01*
X22835Y19301D02*
Y18701D01*
X23235D01*
X23434D02*
X23634D01*
X23534D01*
Y19301D01*
X23434Y19201D01*
X34032Y20735D02*
Y20135D01*
X34432D01*
X35032Y20635D02*
X34932Y20735D01*
X34732D01*
X34632Y20635D01*
Y20235D01*
X34732Y20135D01*
X34932D01*
X35032Y20235D01*
X35232Y20735D02*
Y20135D01*
X35532D01*
X35632Y20235D01*
Y20635D01*
X35532Y20735D01*
X35232D01*
X35832Y20135D02*
X36032D01*
X35932D01*
Y20735D01*
X35832Y20635D01*
X12992Y3749D02*
Y3150D01*
X13392D01*
X13992Y3649D02*
X13892Y3749D01*
X13692D01*
X13592Y3649D01*
Y3549D01*
X13692Y3450D01*
X13892D01*
X13992Y3350D01*
Y3250D01*
X13892Y3150D01*
X13692D01*
X13592Y3250D01*
X14192Y3150D02*
X14392D01*
X14292D01*
Y3749D01*
X14192Y3649D01*
X66252Y2502D02*
X66852D01*
Y2202D01*
X66752Y2102D01*
X66552D01*
X66452Y2202D01*
Y2502D01*
X66252Y1502D02*
Y1902D01*
X66652Y1502D01*
X66752D01*
X66852Y1602D01*
Y1802D01*
X66752Y1902D01*
X2756Y19685D02*
Y20285D01*
X3056D01*
X3156Y20185D01*
Y19985D01*
X3056Y19885D01*
X2756D01*
X3356Y20185D02*
X3456Y20285D01*
X3656D01*
X3756Y20185D01*
Y20085D01*
X3656Y19985D01*
X3556D01*
X3656D01*
X3756Y19885D01*
Y19785D01*
X3656Y19685D01*
X3456D01*
X3356Y19785D01*
X78346Y4331D02*
X77747D01*
Y4631D01*
X77847Y4731D01*
X78047D01*
X78147Y4631D01*
Y4331D01*
X77747Y4931D02*
Y5330D01*
X77847D01*
X78246Y4931D01*
X78346D01*
X29639Y19869D02*
Y19369D01*
X29739Y19269D01*
X29939D01*
X30039Y19369D01*
Y19869D01*
X30239Y19269D02*
X30439D01*
X30339D01*
Y19869D01*
X30239Y19769D01*
X11014Y14764D02*
X11514D01*
X11614Y14864D01*
Y15064D01*
X11514Y15164D01*
X11014D01*
Y15763D02*
Y15364D01*
X11314D01*
X11214Y15564D01*
Y15663D01*
X11314Y15763D01*
X11514D01*
X11614Y15663D01*
Y15464D01*
X11514Y15364D01*
X5174Y6799D02*
Y6299D01*
X5274Y6199D01*
X5474D01*
X5573Y6299D01*
Y6799D01*
X5773D02*
X6173D01*
Y6699D01*
X5773Y6299D01*
Y6199D01*
X22244Y11024D02*
X21644D01*
Y11324D01*
X21744Y11423D01*
X21944D01*
X22044Y11324D01*
Y11024D01*
Y11224D02*
X22244Y11423D01*
Y11623D02*
Y11823D01*
Y11723D01*
X21644D01*
X21744Y11623D01*
X21644Y12523D02*
X21744Y12323D01*
X21944Y12123D01*
X22144D01*
X22244Y12223D01*
Y12423D01*
X22144Y12523D01*
X22044D01*
X21944Y12423D01*
Y12123D01*
X69685Y18504D02*
Y19104D01*
X69985D01*
X70085Y19004D01*
Y18804D01*
X69985Y18704D01*
X69685D01*
X69885D02*
X70085Y18504D01*
X70285D02*
X70485D01*
X70385D01*
Y19104D01*
X70285Y19004D01*
X70785Y19104D02*
X71185D01*
Y19004D01*
X70785Y18604D01*
Y18504D01*
X77441Y5472D02*
X76841D01*
Y5772D01*
X76941Y5872D01*
X77141D01*
X77241Y5772D01*
Y5472D01*
Y5672D02*
X77441Y5872D01*
Y6072D02*
Y6272D01*
Y6172D01*
X76841D01*
X76941Y6072D01*
Y6572D02*
X76841Y6672D01*
Y6872D01*
X76941Y6972D01*
X77041D01*
X77141Y6872D01*
X77241Y6972D01*
X77341D01*
X77441Y6872D01*
Y6672D01*
X77341Y6572D01*
X77241D01*
X77141Y6672D01*
X77041Y6572D01*
X76941D01*
X77141Y6672D02*
Y6872D01*
X10236Y2962D02*
Y2362D01*
X10536D01*
X10636Y2462D01*
Y2562D01*
X10536Y2662D01*
X10236D01*
X10536D01*
X10636Y2762D01*
Y2862D01*
X10536Y2962D01*
X10236D01*
X10836D02*
Y2462D01*
X10936Y2362D01*
X11136D01*
X11236Y2462D01*
Y2962D01*
X11436D02*
X11836D01*
Y2862D01*
X11436Y2462D01*
Y2362D01*
X11836D01*
X28553Y12087D02*
X27953D01*
Y11787D01*
X28053Y11687D01*
X28453D01*
X28553Y11787D01*
Y12087D01*
Y11087D02*
Y11487D01*
X27953D01*
Y11087D01*
X28253Y11487D02*
Y11287D01*
X28553Y10887D02*
Y10487D01*
Y10687D01*
X27953D01*
Y10287D02*
Y10087D01*
Y10187D01*
X28553D01*
X28453Y10287D01*
X75836Y5906D02*
X75236D01*
Y5606D01*
X75336Y5506D01*
X75736D01*
X75836Y5606D01*
Y5906D01*
Y4906D02*
Y5306D01*
X75236D01*
Y4906D01*
X75536Y5306D02*
Y5106D01*
X75836Y4706D02*
Y4306D01*
Y4506D01*
X75236D01*
X75736Y4106D02*
X75836Y4006D01*
Y3806D01*
X75736Y3706D01*
X75636D01*
X75536Y3806D01*
Y3906D01*
Y3806D01*
X75436Y3706D01*
X75336D01*
X75236Y3806D01*
Y4006D01*
X75336Y4106D01*
X75679Y17402D02*
X75079D01*
Y17102D01*
X75179Y17002D01*
X75579D01*
X75679Y17102D01*
Y17402D01*
Y16402D02*
Y16802D01*
X75079D01*
Y16402D01*
X75379Y16802D02*
Y16602D01*
X75679Y16202D02*
Y15802D01*
Y16002D01*
X75079D01*
Y15202D02*
Y15602D01*
X75479Y15202D01*
X75579D01*
X75679Y15302D01*
Y15502D01*
X75579Y15602D01*
X51981Y17696D02*
X52147D01*
X52064D01*
Y18196D01*
X51981Y18112D01*
X52730Y18196D02*
X52564Y18112D01*
X52397Y17946D01*
Y17779D01*
X52481Y17696D01*
X52647D01*
X52730Y17779D01*
Y17862D01*
X52647Y17946D01*
X52397D01*
X37181Y17696D02*
X37347D01*
X37264D01*
Y18196D01*
X37181Y18112D01*
D46*
X30843Y18488D02*
G03*
X30843Y18488I-118J0D01*
G01*
D47*
X29923Y18866D02*
G03*
X29923Y18866I-49J0D01*
G01*
X12077Y17185D02*
G03*
X12077Y17185I-49J0D01*
G01*
D48*
X31124Y18882D02*
G03*
X31624Y18882I250J0D01*
G01*
X18890Y12303D02*
G03*
X18890Y12303I-1181J0D01*
G01*
X15205Y10827D02*
G03*
X15205Y10827I-2000J0D01*
G01*
X6358Y6049D02*
G03*
X6358Y6549I0J250D01*
G01*
X15197Y2638D02*
G03*
X15197Y2638I-1575J0D01*
G01*
X2228Y1728D02*
Y2028D01*
Y1728D02*
X4228D01*
Y2328D01*
X2228D02*
X4228D01*
X2228Y2028D02*
Y2328D01*
X4228Y2028D02*
X4318D01*
X2138D02*
X2228D01*
X64189Y3858D02*
Y4158D01*
X62189D02*
X64189D01*
X62189Y3558D02*
Y4158D01*
Y3558D02*
X64189D01*
Y3858D01*
X62099D02*
X62189D01*
X64189D02*
X64279D01*
X71441Y12102D02*
Y12402D01*
Y12102D02*
X73441D01*
Y12702D01*
X71441D02*
X73441D01*
X71441Y12402D02*
Y12702D01*
X73441Y12402D02*
X73531D01*
X71351D02*
X71441D01*
X17402Y9154D02*
X20394D01*
X17402Y10138D02*
X20394D01*
Y9154D02*
Y10138D01*
X17402Y9154D02*
Y10138D01*
X70945Y10925D02*
X73937D01*
X70945Y11909D02*
X73937D01*
Y10925D02*
Y11909D01*
X70945Y10925D02*
Y11909D01*
X17402Y8169D02*
X20394D01*
X17402Y7185D02*
X20394D01*
X17402D02*
Y8169D01*
X20394Y7185D02*
Y8169D01*
X74882Y18799D02*
X77874D01*
X74882Y19783D02*
X77874D01*
Y18799D02*
Y19783D01*
X74882Y18799D02*
Y19783D01*
X67402Y1575D02*
X70394D01*
X67402Y2559D02*
X70394D01*
Y1575D02*
Y2559D01*
X67402Y1575D02*
Y2559D01*
X69685Y2933D02*
Y5925D01*
X68701Y2933D02*
Y5925D01*
X69685D01*
X68701Y2933D02*
X69685D01*
X23484Y12492D02*
X24484D01*
Y9492D02*
Y12492D01*
X23484Y9492D02*
X24484D01*
X23484D02*
Y12492D01*
X70760Y17823D02*
X71760D01*
Y14823D02*
Y17823D01*
X70760Y14823D02*
X71760D01*
X70760D02*
Y17823D01*
Y6437D02*
X71760D01*
Y3437D02*
Y6437D01*
X70760Y3437D02*
X71760D01*
X70760D02*
Y6437D01*
X30610Y9921D02*
Y12913D01*
X31595Y9921D02*
Y12913D01*
X30610Y9921D02*
X31595D01*
X30610Y12913D02*
X31595D01*
X30331Y14827D02*
X32417D01*
X31624Y18882D02*
X32417D01*
X30331D02*
X31124D01*
X32417Y14827D02*
Y18882D01*
X30331Y14827D02*
Y18882D01*
X65917Y1567D02*
Y2567D01*
X60917Y1567D02*
X65917D01*
X60917Y2567D02*
X65917D01*
X60917Y1567D02*
Y2567D01*
X30828Y2607D02*
Y4607D01*
X29828D02*
X30828D01*
X29828Y2607D02*
Y4607D01*
Y2607D02*
X30828D01*
X31378D02*
Y4607D01*
Y2607D02*
X32378D01*
Y4607D01*
X31378D02*
X32378D01*
X30828Y5657D02*
Y7657D01*
X29828D02*
X30828D01*
X29828Y5657D02*
Y7657D01*
Y5657D02*
X30828D01*
X32378D02*
Y7657D01*
X31378D02*
X32378D01*
X31378Y5657D02*
Y7657D01*
Y5657D02*
X32378D01*
X80767Y17567D02*
X84646D01*
X76543D02*
X80226D01*
X76543Y11567D02*
Y17567D01*
Y11567D02*
X80226D01*
X80767D02*
X84646D01*
Y17567D01*
X18205Y11473D02*
Y11873D01*
X18005Y11673D02*
X18405D01*
X14891Y13878D02*
X17883D01*
X14891Y14862D02*
X17883D01*
Y13878D02*
Y14862D01*
X14891Y13878D02*
Y14862D01*
X12005Y11575D02*
X12405D01*
X12205Y11375D02*
Y11775D01*
X11772Y13268D02*
X13701D01*
X11772Y17441D02*
X13701D01*
X11772Y13268D02*
Y17441D01*
X13701Y13268D02*
Y17441D01*
X13504Y13268D02*
Y17441D01*
X14891Y16835D02*
X17883D01*
X14891Y15851D02*
X17883D01*
X14891D02*
Y16835D01*
X17883Y15851D02*
Y16835D01*
X19925Y17717D02*
X20925D01*
X25925D02*
X26925D01*
X25925Y16917D02*
Y18517D01*
X20925D02*
X25925D01*
X20925Y16917D02*
Y18517D01*
Y16917D02*
X25925D01*
X78781Y4144D02*
Y10144D01*
X79781Y4144D02*
Y10144D01*
X78781D02*
X79781D01*
X78781Y4144D02*
X79781D01*
X-3132Y2806D02*
X747D01*
X1288D02*
X4970D01*
Y8806D01*
X1288D02*
X4970D01*
X-3132D02*
X747D01*
X-3132Y2806D02*
Y8806D01*
X6358Y7343D02*
X15689D01*
X6358Y5256D02*
X15689D01*
Y7343D01*
X6358Y6549D02*
Y7343D01*
Y5256D02*
Y6049D01*
X21220Y12850D02*
Y12940D01*
Y10760D02*
Y10850D01*
Y12850D02*
X21520D01*
Y10850D02*
Y12850D01*
X20920Y10850D02*
X21520D01*
X20920D02*
Y12850D01*
X21220D01*
X69382Y19488D02*
X69472D01*
X71472D02*
X71562D01*
X69472D02*
Y19788D01*
X71472D01*
Y19188D02*
Y19788D01*
X69472Y19188D02*
X71472D01*
X69472D02*
Y19488D01*
X77165Y2453D02*
Y2543D01*
Y4543D02*
Y4633D01*
X76865Y2543D02*
X77165D01*
X76865D02*
Y4543D01*
X77465D01*
Y2543D02*
Y4543D01*
X77165Y2543D02*
X77465D01*
D49*
X51831Y18746D02*
G03*
X52531Y18746I350J0D01*
G01*
X50831D02*
G03*
X51531Y18746I350J0D01*
G01*
X49831D02*
G03*
X50531Y18746I350J0D01*
G01*
X48831D02*
G03*
X49531Y18746I350J0D01*
G01*
X47831D02*
G03*
X48531Y18746I350J0D01*
G01*
X46831D02*
G03*
X47531Y18746I350J0D01*
G01*
X45831D02*
G03*
X46531Y18746I350J0D01*
G01*
X44831D02*
G03*
X45531Y18746I350J0D01*
G01*
X43831D02*
G03*
X44531Y18746I350J0D01*
G01*
X42831D02*
G03*
X43531Y18746I350J0D01*
G01*
X41831D02*
G03*
X42531Y18746I350J0D01*
G01*
X40831D02*
G03*
X41531Y18746I350J0D01*
G01*
X39831D02*
G03*
X40531Y18746I350J0D01*
G01*
X38831D02*
G03*
X39531Y18746I350J0D01*
G01*
X37831D02*
G03*
X38531Y18746I350J0D01*
G01*
X36831D02*
G03*
X37531Y18746I350J0D01*
G01*
X52531Y18746D02*
Y19983D01*
X51831Y18746D02*
Y19993D01*
X51531Y18746D02*
Y19993D01*
X50831Y18746D02*
Y19993D01*
X50531Y18746D02*
Y19993D01*
X49831Y18746D02*
Y20011D01*
X49531Y18746D02*
Y20003D01*
X48831Y18746D02*
Y20003D01*
X48531Y18746D02*
Y20013D01*
X47831Y18746D02*
Y20003D01*
X47531Y18746D02*
Y20013D01*
X46831Y18746D02*
Y20003D01*
X46531Y18746D02*
Y20003D01*
X45831Y18746D02*
Y20003D01*
X45531Y18746D02*
Y20003D01*
X44831Y18746D02*
Y20003D01*
X44531Y18746D02*
Y20011D01*
X43831Y18746D02*
Y20013D01*
X43531Y18746D02*
Y20013D01*
X42831Y18746D02*
Y20003D01*
X42531Y18746D02*
Y19993D01*
X41831Y18746D02*
Y20013D01*
X41531Y18746D02*
Y20013D01*
X40831Y18746D02*
Y20013D01*
X40531Y18746D02*
Y20003D01*
X39831Y18746D02*
Y20003D01*
X39531Y18746D02*
Y20003D01*
X38831Y18746D02*
Y20003D01*
X38531Y18746D02*
Y20003D01*
X37831Y18746D02*
Y19993D01*
X37531Y18746D02*
Y20003D01*
X36831Y18746D02*
Y20013D01*
X36232Y15613D02*
X61626D01*
Y10180D02*
Y15613D01*
X36232Y10180D02*
X61626D01*
X36232D02*
Y15613D01*
X33982Y5544D02*
Y20013D01*
Y20012D02*
X65773D01*
Y5544D02*
Y20012D01*
X33982Y5544D02*
X65773D01*
X34331Y16489D02*
Y17546D01*
Y17596D02*
X34581Y17096D01*
X34081D02*
X34331Y17596D01*
D50*
X-0Y21654D02*
X81496D01*
X-0Y0D02*
Y21654D01*
X81496Y0D02*
Y21654D01*
X-0Y0D02*
X81496D01*
D51*
X13533Y18868D02*
Y19098D01*
X13992Y19085D02*
X14400D01*
X13536Y19098D02*
X13986Y19328D01*
X13533Y19091D02*
Y19321D01*
X13033Y19091D02*
X13533D01*
X13536Y19098D02*
X13986Y18868D01*
Y19328D01*
X6486Y14222D02*
X6716D01*
X6703Y13356D02*
Y13764D01*
X6716Y14220D02*
X6946Y13770D01*
X6709Y14222D02*
X6939D01*
X6709D02*
Y14722D01*
X6486Y13770D02*
X6716Y14220D01*
X6486Y13770D02*
X6946D01*
D52*
X54993Y19780D02*
Y19031D01*
X55493D01*
X56243Y19656D02*
X56118Y19780D01*
X55868D01*
X55743Y19656D01*
Y19156D01*
X55868Y19031D01*
X56118D01*
X56243Y19156D01*
X56493Y19780D02*
Y19031D01*
X56868D01*
X56993Y19156D01*
Y19656D01*
X56868Y19780D01*
X56493D01*
X57992Y19031D02*
X58242D01*
X58117D01*
Y19780D01*
X57992Y19656D01*
X59117Y19780D02*
X58867Y19656D01*
X58617Y19406D01*
Y19156D01*
X58742Y19031D01*
X58992D01*
X59117Y19156D01*
Y19281D01*
X58992Y19406D01*
X58617D01*
X59367Y19780D02*
X59867Y19031D01*
Y19780D02*
X59367Y19031D01*
X60616D02*
X60117D01*
X60616Y19531D01*
Y19656D01*
X60492Y19780D01*
X60242D01*
X60117Y19656D01*
X60866Y19406D02*
X61366D01*
X61616Y19031D02*
Y19531D01*
X61866Y19780D01*
X62116Y19531D01*
Y19031D01*
Y19406D01*
X61616D01*
D53*
X12733Y19095D02*
D03*
D54*
X11853Y19082D02*
D03*
D55*
X15717Y19063D02*
D03*
D56*
X6714Y15025D02*
D03*
D57*
X6699Y15900D02*
D03*
D58*
X6681Y12039D02*
D03*
M02*
