%FSLAX24Y24*%
%MOIN*%
G70*
G01*
G75*
G04 Layer_Physical_Order=2*
G04 Layer_Color=16711680*
%ADD10C,0.0315*%
%ADD11C,0.0276*%
%ADD12O,0.0787X0.0394*%
%ADD13C,0.0650*%
%ADD14C,0.0709*%
%ADD15R,0.0709X0.0709*%
%ADD16R,0.0709X0.0709*%
%ADD17C,0.2756*%
%ADD18C,0.0787*%
G36*
X72047Y12083D02*
Y8390D01*
X71275Y8236D01*
X71051Y8777D01*
X70260Y9105D01*
X69469Y8777D01*
Y8777D01*
D01*
D01*
X69320Y9083D01*
X69320D01*
X69320Y9083D01*
X69320Y9083D01*
X69320D01*
X68495Y9908D01*
X68680Y10356D01*
X69054Y10730D01*
X69054Y10730D01*
X69228Y11152D01*
X69228D01*
X69228Y11152D01*
X69469Y11695D01*
D01*
D01*
X69469D01*
D01*
X70260Y11368D01*
X71051Y11695D01*
X71275Y12236D01*
X72047Y12083D01*
D02*
G37*
G36*
X54961Y11347D02*
X54915Y11236D01*
X54922Y11221D01*
X54764Y10984D01*
X54764D01*
Y10332D01*
X54158Y9727D01*
X48607D01*
X48306Y10454D01*
X48306D01*
X48650Y10799D01*
X48650D01*
X48825Y11220D01*
X48825Y11220D01*
X48825Y11220D01*
X48825Y11220D01*
Y11220D01*
Y12002D01*
X54524D01*
X54961Y11347D01*
D02*
G37*
G36*
X37821Y12015D02*
X38010Y11557D01*
X38010D01*
Y11557D01*
X38583Y11320D01*
X38647Y11347D01*
X39085Y10692D01*
X38161Y9768D01*
X38159Y9764D01*
X38010Y9702D01*
X37773Y9130D01*
X37773Y9130D01*
X37773Y9130D01*
X37714Y9041D01*
X24192D01*
X23890Y9769D01*
X26144Y12022D01*
X26378Y12140D01*
D01*
X26606Y12234D01*
X26981Y12389D01*
X27004Y12445D01*
X37391D01*
X37821Y12015D01*
D02*
G37*
G36*
X47632Y11827D02*
Y11468D01*
X47072Y10908D01*
X42559D01*
X42405Y11680D01*
X42473Y11708D01*
X42745Y11980D01*
X42745D01*
X42761Y12009D01*
X42857Y12049D01*
X42996Y12384D01*
X43783D01*
X43869Y12177D01*
X44291Y12002D01*
X46260D01*
X46682Y12177D01*
X46682Y12177D01*
X46682Y12177D01*
X46768Y12384D01*
X47075D01*
X47632Y11827D01*
D02*
G37*
G36*
X65996Y12727D02*
X65843Y11954D01*
X65436Y11786D01*
X63900Y13322D01*
X64069Y13729D01*
X64841Y13882D01*
X65996Y12727D01*
D02*
G37*
G36*
X24075Y11641D02*
X22404Y9971D01*
X22168D01*
X21712Y10160D01*
X20384Y11487D01*
X20686Y12214D01*
X23441D01*
X23638Y12296D01*
X24075Y11641D01*
D02*
G37*
G36*
X-3504Y11224D02*
Y11063D01*
X-2008D01*
Y11214D01*
X-72D01*
X1159Y10705D01*
X1384Y10161D01*
X1396Y10132D01*
D01*
Y10132D01*
D01*
X1969Y9895D01*
X2078Y9940D01*
D01*
X2483Y10108D01*
X4097D01*
X5693Y8513D01*
Y4311D01*
X5868Y3889D01*
X7816Y1940D01*
X8238Y1766D01*
X8238Y1766D01*
X64547D01*
X64969Y1940D01*
X69320Y6291D01*
X69320Y6291D01*
X69448Y6601D01*
X70176Y6903D01*
X70260Y6868D01*
X71051Y7195D01*
X71275Y7736D01*
X72047Y7583D01*
Y3819D01*
X71393Y3381D01*
X70079Y3926D01*
X68723Y3364D01*
X68161Y2008D01*
X68722Y655D01*
X68284Y0D01*
X4708D01*
X4270Y655D01*
X4831Y2008D01*
X4269Y3364D01*
X2913Y3926D01*
X1557Y3364D01*
X996Y2008D01*
X1556Y655D01*
X1119Y0D01*
X0D01*
Y10236D01*
X-4188D01*
X-4625Y10891D01*
X-4467Y11273D01*
X-3781Y11409D01*
X-3504Y11224D01*
D02*
G37*
G36*
X16211Y3483D02*
X15861Y2959D01*
X14175D01*
X13655Y3174D01*
X13808Y3947D01*
X14455D01*
X14877Y4121D01*
X14932Y4177D01*
X15840D01*
X16211Y3483D01*
D02*
G37*
G36*
X67784Y7369D02*
X67938Y6597D01*
X64300Y2959D01*
X61032D01*
X60731Y3686D01*
X62217Y5172D01*
X62444Y5266D01*
D01*
D01*
D01*
X62444Y5266D01*
Y5266D01*
D01*
D01*
X62532Y5303D01*
D01*
D01*
D01*
X62781Y5906D01*
D01*
D01*
D01*
X62745Y5994D01*
Y5994D01*
D01*
D01*
Y5994D01*
D01*
D01*
D01*
D01*
X62745D01*
D01*
D01*
X62578Y6396D01*
X63016Y7051D01*
X66921D01*
X67343Y7226D01*
X67574Y7456D01*
X67784Y7369D01*
D02*
G37*
G36*
X20415Y9769D02*
X20114Y9041D01*
X11192D01*
X10129Y10104D01*
X10138Y10127D01*
X10138Y10127D01*
X10138Y10127D01*
X10184Y10236D01*
X9968Y10757D01*
X10406Y11411D01*
X18773D01*
X20415Y9769D01*
D02*
G37*
G36*
X61280Y6396D02*
X61077Y5906D01*
X61113Y5817D01*
Y5817D01*
X61113D01*
X61131Y5774D01*
X59241Y3884D01*
X22486D01*
Y4203D01*
X22312Y4625D01*
X22312Y4625D01*
X21955Y4981D01*
X22109Y5753D01*
X22226Y5802D01*
Y5802D01*
X22463Y6374D01*
X22454Y6396D01*
X22891Y7051D01*
X60843D01*
X61280Y6396D01*
D02*
G37*
G36*
X61243Y13394D02*
X61077Y12992D01*
X61326Y12389D01*
X61929Y12140D01*
Y12140D01*
X61929D01*
D01*
X62152Y12232D01*
X62532Y12389D01*
X62534Y12396D01*
X63139D01*
X64224Y11310D01*
X63923Y10583D01*
X62534D01*
X62532Y10589D01*
X61994Y10812D01*
X61929Y10838D01*
X61929Y10838D01*
X61929Y10838D01*
X61326Y10589D01*
X61077Y9986D01*
X61197Y9696D01*
X60760Y9041D01*
X57661D01*
X57507Y9814D01*
X57508Y9814D01*
X58655Y10961D01*
X58661Y10959D01*
X59264Y11208D01*
X59514Y11811D01*
X59301Y12325D01*
X59301D01*
X59264Y12414D01*
X58661Y12663D01*
X58573Y12627D01*
Y12627D01*
X58446Y12574D01*
X57791Y13012D01*
Y14049D01*
X60806D01*
X61243Y13394D01*
D02*
G37*
G36*
X23200Y16901D02*
X23200Y16901D01*
X23619Y16727D01*
X23622Y16713D01*
X23622Y15912D01*
X23013Y15412D01*
X22422Y15530D01*
X22250Y15944D01*
Y16398D01*
X22250Y16398D01*
X22075Y16819D01*
X21917Y16978D01*
X21999Y17176D01*
X22771Y17330D01*
X23200Y16901D01*
D02*
G37*
G36*
X12596Y15871D02*
X11672Y14947D01*
X10333D01*
X10054Y15364D01*
X10054Y15364D01*
X10054D01*
X9841Y15879D01*
Y16458D01*
X9981Y16598D01*
X12295D01*
X12596Y15871D01*
D02*
G37*
G36*
X21057Y16151D02*
Y15944D01*
X20844Y15429D01*
X20878Y15346D01*
X20441Y14691D01*
X18200D01*
X17658Y15233D01*
X17739Y15429D01*
X17739Y15429D01*
X17739Y15429D01*
X18049Y15893D01*
X18832Y15816D01*
X18860Y15749D01*
X18923Y15708D01*
X18941Y15664D01*
X18950Y15643D01*
D01*
D01*
D01*
D01*
X18961Y15617D01*
X18966Y15604D01*
D01*
D01*
D01*
D01*
Y15604D01*
D01*
D01*
D01*
D01*
D01*
D01*
D01*
D01*
D01*
D01*
D01*
X19111Y15544D01*
X19241Y15490D01*
Y15929D01*
X19341D01*
Y15490D01*
X19616Y15604D01*
D01*
D01*
D01*
D01*
D01*
D01*
Y15604D01*
D01*
D01*
D01*
D01*
X19666Y15724D01*
X19703Y15749D01*
X19757Y15879D01*
D01*
D01*
Y15879D01*
X19757D01*
X19757D01*
Y15879D01*
D01*
D01*
X19878Y16171D01*
Y16333D01*
D01*
X19878Y16333D01*
X19878Y16333D01*
X19933Y16414D01*
X20716Y16491D01*
X21057Y16151D01*
D02*
G37*
G36*
X13889Y18788D02*
X14017Y18479D01*
X13789Y17929D01*
X13789Y17929D01*
X13789Y17929D01*
X13697Y17791D01*
X9734D01*
X9312Y17617D01*
X9312Y17617D01*
X8822Y17127D01*
X8458Y17277D01*
X8424Y17312D01*
X8002Y17486D01*
X7194D01*
X6892Y18214D01*
X7895Y19216D01*
X13461D01*
X13889Y18788D01*
D02*
G37*
G36*
X27925Y18082D02*
X27925Y18082D01*
X28346Y17907D01*
X57506D01*
X57943Y17253D01*
X57809Y16929D01*
X57809Y16929D01*
X57809Y16929D01*
X57458Y16404D01*
X27558D01*
X27121Y17058D01*
X27230Y17323D01*
X26981Y17925D01*
X26378Y18175D01*
X26378Y18175D01*
X26378Y18175D01*
X26313Y18148D01*
X25775Y17925D01*
X25773Y17919D01*
X23869D01*
X23300Y18489D01*
X23601Y19216D01*
X26790D01*
X27925Y18082D01*
D02*
G37*
G36*
X15993Y15618D02*
X16119Y15429D01*
X16119Y15429D01*
X16119D01*
X16201Y15233D01*
X15255Y14288D01*
X13729D01*
X13573Y14664D01*
X14010Y15319D01*
X14587D01*
X15008Y15494D01*
X15210Y15695D01*
X15993Y15618D01*
D02*
G37*
G36*
X41782Y13159D02*
X41757Y13148D01*
X41720Y13058D01*
X40992Y12757D01*
X40551Y12940D01*
X40037Y12727D01*
X39097D01*
X38584Y12939D01*
X38319Y13204D01*
X38621Y13931D01*
X41629D01*
X41782Y13159D01*
D02*
G37*
G36*
X68591Y20999D02*
X68161Y19961D01*
X68723Y18605D01*
X70079Y18043D01*
X71393Y18587D01*
X72047Y18150D01*
Y12890D01*
X71275Y12736D01*
X71051Y13277D01*
X70260Y13605D01*
X69883Y13449D01*
X69228Y13886D01*
Y14045D01*
X69054Y14467D01*
X66170Y17351D01*
X65748Y17526D01*
X63081D01*
X62643Y18180D01*
X62781Y18514D01*
X62532Y19116D01*
X61929Y19366D01*
X61326Y19116D01*
X61320Y19101D01*
X28594D01*
X27459Y20235D01*
X27037Y20410D01*
X7648D01*
X7648Y20410D01*
X7226Y20235D01*
X5159Y18168D01*
X4387Y18322D01*
X4269Y18605D01*
X4831Y19961D01*
X4401Y20999D01*
X4838Y21654D01*
X68154D01*
X68591Y20999D01*
D02*
G37*
G36*
X44151Y13421D02*
X43652Y12813D01*
X43384D01*
X42884Y13421D01*
X42986Y13931D01*
X44050D01*
X44151Y13421D01*
D02*
G37*
G36*
X1426Y20999D02*
X996Y19961D01*
X1533Y18665D01*
X1506Y18653D01*
X1462Y18635D01*
X1396Y18608D01*
D01*
D01*
X1396D01*
X1159Y18035D01*
D01*
D01*
D01*
X1204Y17926D01*
D01*
X1204D01*
X1204Y17926D01*
X1204D01*
D01*
D01*
D01*
D01*
D01*
X1204D01*
X1396Y17463D01*
X1910Y17250D01*
X2259Y16901D01*
X2681Y16726D01*
X4912D01*
X5349Y16072D01*
X5309Y15974D01*
Y14273D01*
X4444Y13408D01*
X3495D01*
X2778Y13705D01*
X2541Y14277D01*
D01*
Y14463D01*
X2541D01*
X2778Y15035D01*
X2778Y15035D01*
Y15035D01*
X2733Y15145D01*
X2733Y15145D01*
X2733D01*
X2541Y15608D01*
X1969Y15845D01*
X1969Y15845D01*
X1969Y15845D01*
X1905Y15819D01*
X1396Y15608D01*
X1375Y15557D01*
X-2603D01*
X-2756Y15621D01*
X-3270Y15408D01*
X-3319D01*
X-3741Y15233D01*
X-3741Y15233D01*
X-3836Y15137D01*
X-4608Y15291D01*
X-4724Y15571D01*
Y21654D01*
X988D01*
X1426Y20999D01*
D02*
G37*
G36*
X56443Y13705D02*
X56390Y13165D01*
X55944Y12867D01*
X55512Y13046D01*
X55511Y13045D01*
X55510Y13046D01*
X55150Y13195D01*
X49114D01*
X48614Y13804D01*
X48661Y14039D01*
X56342D01*
X56443Y13705D01*
D02*
G37*
D10*
X22451Y13789D02*
X24469Y15807D01*
X18258Y13789D02*
X22451D01*
X16929Y15118D02*
X18258Y13789D01*
X5157Y17323D02*
X7648Y19813D01*
X2681Y17323D02*
X5157D01*
X1969Y18035D02*
X2681Y17323D01*
X-3986Y14144D02*
X-3319Y14811D01*
X-3986Y12561D02*
X-3236Y11811D01*
X-2756D01*
X-3986Y13061D02*
X-3959Y13033D01*
X-3594D01*
X-3371Y12811D01*
X-2756D01*
X-3959Y13589D02*
X-3594D01*
X-3371Y13811D01*
X-2756D01*
Y14961D02*
X1894D01*
X-3319Y14811D02*
X-2756D01*
X7648Y19813D02*
X27037D01*
X68898Y6713D02*
Y8661D01*
X64547Y2362D02*
X68898Y6713D01*
X59488Y3287D02*
X61811Y5610D01*
Y5906D01*
X37638Y13041D02*
X38549Y12130D01*
X40551D01*
X38583Y9130D02*
Y9346D01*
X39547Y10311D01*
X27037Y19813D02*
X28346Y18504D01*
X23622Y17323D02*
X26378D01*
X64921Y14646D02*
X66760Y12807D01*
X56437Y14646D02*
X64921D01*
X56624Y14636D02*
X57195Y14065D01*
X47707Y14636D02*
X56624D01*
X46260Y13189D02*
X47707Y14636D01*
X44921Y14528D02*
X46260Y13189D01*
X25157Y14528D02*
X44921D01*
X57195Y12313D02*
Y14065D01*
X56118Y11236D02*
X57195Y12313D01*
X65229Y15807D02*
X67760Y13276D01*
X24469Y15807D02*
X65229D01*
X65748Y16929D02*
X68632Y14045D01*
Y11152D02*
Y14045D01*
X67967Y10486D02*
X68632Y11152D01*
X66760Y11986D02*
Y12807D01*
X4344Y10705D02*
X6289Y8760D01*
X1969Y10705D02*
X4344D01*
X6374Y10236D02*
Y10348D01*
X4911Y11811D02*
X6374Y10348D01*
X-2756Y11811D02*
X4911D01*
X1862Y13811D02*
X1969Y13705D01*
X-2756Y13811D02*
X1862D01*
X68073Y9486D02*
X68898Y8661D01*
X67760Y9486D02*
X68073D01*
X1894Y14961D02*
X1969Y15035D01*
X42323Y12402D02*
Y12598D01*
X42051Y12130D02*
X42323Y12402D01*
X40551Y12130D02*
X42051D01*
X19291Y6496D02*
X21654D01*
X67760Y11486D02*
Y13276D01*
X66616Y9843D02*
X66760Y9986D01*
X62455D02*
X66760D01*
X58661Y16929D02*
X65748D01*
X46260Y12598D02*
Y13189D01*
X44291Y12598D02*
X46260D01*
X48228Y12598D02*
X55150D01*
X55512Y12236D01*
X39547Y10311D02*
X47319D01*
X48228Y11220D01*
Y12598D01*
X40551Y9130D02*
X54406D01*
X55512Y10236D01*
X46260Y13189D02*
Y13189D01*
X67760Y10486D02*
X67967D01*
X61929Y12992D02*
X63386D01*
X65392Y10986D01*
X66760D01*
X55512Y10236D02*
X57087D01*
X58661Y11811D01*
X55512Y11236D02*
X56118D01*
X28346Y18504D02*
X61929D01*
X16929Y15118D02*
Y15823D01*
X7244Y14744D02*
Y15364D01*
X5906Y14026D02*
Y15974D01*
X21654Y15823D02*
Y16398D01*
X8244Y15043D02*
Y15364D01*
Y16648D01*
X5906Y15974D02*
X6821Y16890D01*
X8002D01*
X8244Y16648D01*
X7244Y14744D02*
X8297Y13691D01*
X15502D01*
X16870Y15059D01*
X9244Y15364D02*
Y16705D01*
X6289Y4311D02*
Y8760D01*
Y4311D02*
X8238Y2362D01*
X64547D01*
X16837Y4022D02*
X16939D01*
X17200Y3784D02*
X17697Y3287D01*
X4803Y12923D02*
X5906Y14026D01*
X14685Y4774D02*
X19045D01*
X19291Y4528D01*
X14455Y4543D02*
X14685Y4774D01*
X9244Y5904D02*
X9833Y5315D01*
X9244Y5904D02*
Y6683D01*
X21890Y3465D02*
X22028Y3327D01*
X17697Y3287D02*
X59488D01*
X9833Y5315D02*
X20778D01*
X21890Y4203D01*
Y3465D02*
Y4203D01*
X66219Y8445D02*
X66760Y8986D01*
X66921Y7648D02*
X67760Y8486D01*
X16939Y7022D02*
Y7618D01*
X16969Y7648D01*
X15709D02*
X16969D01*
X66921D01*
X14705Y6644D02*
X15709Y7648D01*
X14222Y6644D02*
X14705D01*
X8455Y9488D02*
Y10817D01*
Y9488D02*
X10512Y7431D01*
X13435D01*
X14222Y6644D01*
X9374Y10016D02*
Y10236D01*
Y10016D02*
X10945Y8445D01*
X66219D01*
X8244Y5594D02*
Y6683D01*
Y5594D02*
X9295Y4543D01*
X14455D01*
X-2756Y12811D02*
X6526D01*
X23441D02*
X25157Y14528D01*
X6526Y12811D02*
X23441D01*
X8455Y10817D02*
X9646Y12008D01*
X19020D01*
X21654Y9374D01*
X8219Y6594D02*
Y7628D01*
X7579Y8268D02*
X8219Y7628D01*
X7579Y8268D02*
Y11758D01*
X6526Y12811D02*
X7579Y11758D01*
X21654Y9374D02*
X22652D01*
X26319Y13041D01*
X37638D01*
X14567Y18110D02*
X14961Y18504D01*
X16683D01*
X16939Y18553D02*
Y18833D01*
X17102Y18996D01*
X21358D01*
X21532Y18823D01*
X22643Y18302D02*
X23622Y17323D01*
X21532Y18508D02*
Y18823D01*
Y18508D02*
X21737Y18302D01*
X22643D01*
X8244Y15043D02*
X8937Y14350D01*
X14587Y15915D02*
X15236Y16565D01*
X19049D01*
X19282Y16333D01*
X8937Y14350D02*
X11919D01*
X13484Y15915D01*
X14587D01*
X19282Y16171D02*
Y16333D01*
X9244Y16705D02*
X9734Y17195D01*
X19222D01*
X19291D02*
Y17929D01*
Y17195D02*
X20856D01*
X21654Y16398D01*
D11*
X12077Y5906D02*
X18701D01*
X19291Y6496D01*
X11841Y6142D02*
X12077Y5906D01*
X11841Y6142D02*
Y6348D01*
X7244Y5000D02*
Y6683D01*
Y5000D02*
X8671Y3573D01*
X11860D01*
D12*
X-3986Y12561D02*
D03*
Y13061D02*
D03*
Y13561D02*
D03*
Y14061D02*
D03*
D13*
X19311Y4522D02*
D03*
Y6522D02*
D03*
X46244Y12598D02*
D03*
X48244D02*
D03*
X42307D02*
D03*
X44307D02*
D03*
X19291Y15929D02*
D03*
Y17929D02*
D03*
X14567D02*
D03*
Y15929D02*
D03*
Y6522D02*
D03*
Y4522D02*
D03*
D14*
X16939Y4022D02*
D03*
Y7022D02*
D03*
X6374Y10236D02*
D03*
X9374D02*
D03*
X7244Y6683D02*
D03*
X8244D02*
D03*
X9244Y15364D02*
D03*
X8244D02*
D03*
X55512Y12236D02*
D03*
Y11236D02*
D03*
X1969Y15035D02*
D03*
Y18035D02*
D03*
Y13705D02*
D03*
Y10705D02*
D03*
X70260Y12486D02*
D03*
Y7986D02*
D03*
X67760Y9486D02*
D03*
Y10486D02*
D03*
X66760Y9986D02*
D03*
Y10986D02*
D03*
X67760Y11486D02*
D03*
X66760Y8986D02*
D03*
Y11986D02*
D03*
X21654Y18429D02*
D03*
Y15429D02*
D03*
X16929D02*
D03*
Y18429D02*
D03*
X21654Y9374D02*
D03*
Y6374D02*
D03*
X38583Y12130D02*
D03*
Y9130D02*
D03*
X40551D02*
D03*
Y12130D02*
D03*
X-2756Y12811D02*
D03*
Y13811D02*
D03*
Y14811D02*
D03*
D15*
X9244Y6683D02*
D03*
X7244Y15364D02*
D03*
D16*
X55512Y10236D02*
D03*
X67760Y8486D02*
D03*
X-2756Y11811D02*
D03*
D17*
X2913Y2008D02*
D03*
Y19961D02*
D03*
X70079D02*
D03*
Y2008D02*
D03*
D18*
X61929Y12992D02*
D03*
Y18514D02*
D03*
Y9986D02*
D03*
Y5906D02*
D03*
X58661Y16929D02*
D03*
X26378Y17323D02*
D03*
Y12992D02*
D03*
X58661Y11811D02*
D03*
X11841Y6348D02*
D03*
Y3573D02*
D03*
M02*
