M48
;Layer_Color=9474304
;FILE_FORMAT=2:4
INCH,LZ
;TYPE=PLATED
T1F00S00C0.0295
T2F00S00C0.0335
T3F00S00C0.0354
T4F00S00C0.0394
T5F00S00C0.1575
;TYPE=NON_PLATED
T6F00S00C0.1280
%
T01
X-003986Y012561
Y013061
Y013561
Y014061
T02
X001969Y010705
Y013705
Y015035
Y018035
X006374Y010236
X009374
X016939Y007022
Y004022
X021654Y006374
Y009374
X021654Y015429
Y018429
X016929
Y015429
X038583Y01213
X040551
Y00913
X038583
T03
X-002756Y011811
Y012811
Y013811
Y014811
X007244Y015364
X008244
X009244
Y006683
X008244
X007244
X055512Y010236
Y011236
Y012236
X06676Y011986
Y010986
Y009986
Y008986
X06776Y009486
Y010486
Y011486
Y008486
T04
X011841Y003573
Y006348
X014567Y006522
Y004522
X019311
Y006522
X019291Y015929
Y017929
X014567
Y015929
X026378Y017323
Y012992
X042307Y012598
X044307
X046244
X048244
X058661Y011811
Y016929
X061929Y018514
Y012992
Y009986
Y005906
T05
X070079Y002008
X002913
X070079Y019961
X002913
T06
X07026Y007986
Y012486
M30
