%FSLAX24Y24*%
%MOIN*%
G70*
G01*
G75*
G04 Layer_Physical_Order=2*
G04 Layer_Color=16711680*
%ADD10C,0.0236*%
%ADD11C,0.0157*%
%ADD12C,0.0591*%
%ADD13C,0.0197*%
%ADD14C,0.0394*%
%ADD15C,0.0709*%
%ADD16C,0.0315*%
%ADD17R,0.7480X0.4724*%
%ADD18R,0.3533X0.6102*%
%ADD19C,0.1378*%
%ADD20C,0.0787*%
%ADD21R,0.0591X0.0591*%
%ADD22C,0.0591*%
%ADD23C,0.0551*%
%ADD24C,0.1181*%
%ADD25O,0.0787X0.1575*%
G04:AMPARAMS|DCode=26|XSize=60mil|YSize=90.6mil|CornerRadius=0mil|HoleSize=0mil|Usage=FLASHONLY|Rotation=0.000|XOffset=0mil|YOffset=0mil|HoleType=Round|Shape=Octagon|*
%AMOCTAGOND26*
4,1,8,-0.0150,0.0453,0.0150,0.0453,0.0300,0.0303,0.0300,-0.0303,0.0150,-0.0453,-0.0150,-0.0453,-0.0300,-0.0303,-0.0300,0.0303,-0.0150,0.0453,0.0*
%
%ADD26OCTAGOND26*%

%ADD27O,0.0600X0.0906*%
%ADD28C,0.0650*%
%ADD29C,0.0591*%
%ADD30R,0.0591X0.0591*%
%ADD31C,0.0630*%
%ADD32C,0.1161*%
%ADD33O,0.1000X0.0600*%
G04:AMPARAMS|DCode=34|XSize=100mil|YSize=60mil|CornerRadius=0mil|HoleSize=0mil|Usage=FLASHONLY|Rotation=180.000|XOffset=0mil|YOffset=0mil|HoleType=Round|Shape=Octagon|*
%AMOCTAGOND34*
4,1,8,-0.0500,0.0150,-0.0500,-0.0150,-0.0350,-0.0300,0.0350,-0.0300,0.0500,-0.0150,0.0500,0.0150,0.0350,0.0300,-0.0350,0.0300,-0.0500,0.0150,0.0*
%
%ADD34OCTAGOND34*%

G04:AMPARAMS|DCode=35|XSize=80mil|YSize=60mil|CornerRadius=0mil|HoleSize=0mil|Usage=FLASHONLY|Rotation=90.000|XOffset=0mil|YOffset=0mil|HoleType=Round|Shape=Octagon|*
%AMOCTAGOND35*
4,1,8,0.0150,0.0400,-0.0150,0.0400,-0.0300,0.0250,-0.0300,-0.0250,-0.0150,-0.0400,0.0150,-0.0400,0.0300,-0.0250,0.0300,0.0250,0.0150,0.0400,0.0*
%
%ADD35OCTAGOND35*%

%ADD36C,0.0630*%
%ADD37R,0.0630X0.0630*%
%ADD38R,0.0591X0.0591*%
%ADD39R,0.1181X0.1181*%
%ADD40C,0.0709*%
%ADD41R,0.0630X0.0630*%
%ADD42O,0.1772X0.1378*%
%ADD43C,0.0866*%
%ADD44R,0.0866X0.0866*%
%ADD45C,0.1969*%
%ADD46R,0.0669X0.0984*%
%ADD47O,0.0669X0.0984*%
%ADD48R,0.0984X0.0984*%
%ADD49C,0.0984*%
%ADD50O,0.1575X0.0787*%
G04:AMPARAMS|DCode=51|XSize=60mil|YSize=90.6mil|CornerRadius=0mil|HoleSize=0mil|Usage=FLASHONLY|Rotation=90.000|XOffset=0mil|YOffset=0mil|HoleType=Round|Shape=Octagon|*
%AMOCTAGOND51*
4,1,8,-0.0453,-0.0150,-0.0453,0.0150,-0.0303,0.0300,0.0303,0.0300,0.0453,0.0150,0.0453,-0.0150,0.0303,-0.0300,-0.0303,-0.0300,-0.0453,-0.0150,0.0*
%
%ADD51OCTAGOND51*%

%ADD52O,0.0906X0.0600*%
%ADD53O,0.1400X0.0900*%
G04:AMPARAMS|DCode=54|XSize=118.1mil|YSize=118.1mil|CornerRadius=29.5mil|HoleSize=0mil|Usage=FLASHONLY|Rotation=270.000|XOffset=0mil|YOffset=0mil|HoleType=Round|Shape=RoundedRectangle|*
%AMROUNDEDRECTD54*
21,1,0.1181,0.0591,0,0,270.0*
21,1,0.0591,0.1181,0,0,270.0*
1,1,0.0591,-0.0295,-0.0295*
1,1,0.0591,-0.0295,0.0295*
1,1,0.0591,0.0295,0.0295*
1,1,0.0591,0.0295,-0.0295*
%
%ADD54ROUNDEDRECTD54*%
%ADD55O,0.1378X0.1772*%
%ADD56C,0.0500*%
%ADD57C,0.0472*%
G36*
X10045Y14218D02*
X10155Y13899D01*
D01*
X10155D01*
Y13899D01*
D01*
D01*
Y13899D01*
D01*
X10630Y13657D01*
X10645Y13612D01*
X10186Y12972D01*
X9085D01*
Y11358D01*
X9180D01*
Y8999D01*
X6407D01*
X6016Y8837D01*
X4003Y6824D01*
X3618Y6901D01*
X3478Y6936D01*
X3388Y7385D01*
X7832Y11829D01*
X7832D01*
X8026Y12296D01*
X8026Y12296D01*
X8026Y12296D01*
X8026Y12296D01*
Y12296D01*
Y14218D01*
X8993D01*
Y14047D01*
X9404Y14218D01*
X10045D01*
D01*
D02*
G37*
G36*
X20046Y16175D02*
X19827Y15419D01*
X19022D01*
X19009Y15438D01*
X18725Y16123D01*
X18759Y16152D01*
X19559Y16484D01*
X20046Y16175D01*
D02*
G37*
G36*
X15585Y12423D02*
X15756D01*
X16313Y11866D01*
Y11308D01*
X15658Y10870D01*
X15419Y10969D01*
X14910Y11478D01*
X14797Y11525D01*
Y11872D01*
D01*
Y11872D01*
X15348Y12423D01*
X15585D01*
Y12423D01*
D02*
G37*
G36*
X24504Y12377D02*
Y12233D01*
X24504Y12233D01*
X24504D01*
X24504D01*
X24928Y11970D01*
X24894Y11796D01*
X24774Y11506D01*
X24816Y11404D01*
X24777Y11207D01*
X24157Y10950D01*
X23705Y11137D01*
X23705Y11137D01*
X23705D01*
X23705D01*
D01*
X23705Y11137D01*
X23202Y10971D01*
X23423Y11506D01*
X23391Y11583D01*
D01*
D01*
X23391D01*
D01*
X23636Y12175D01*
D01*
Y12175D01*
D01*
X23636D01*
D01*
X24479Y12402D01*
X24504Y12377D01*
D02*
G37*
G36*
X14470Y15565D02*
X14704Y14999D01*
X14679Y14941D01*
X14679Y14941D01*
Y14625D01*
Y14276D01*
X14577Y14234D01*
X13774D01*
Y13057D01*
X13239Y12951D01*
X12800Y13389D01*
X12800Y13389D01*
X12486Y13519D01*
X12409Y14303D01*
X12530Y14384D01*
X12530Y14384D01*
Y14384D01*
X12890Y14533D01*
X12890Y14533D01*
X13042Y14596D01*
X13254Y15108D01*
X13238Y15146D01*
X13553Y15663D01*
X13553D01*
Y15663D01*
D01*
D01*
Y15663D01*
X13892Y15804D01*
X14470Y15565D01*
D02*
G37*
G36*
X14408Y21161D02*
X14408Y21161D01*
X14408D01*
X14595Y20709D01*
D01*
D01*
X14595Y20709D01*
X14404Y20472D01*
X14404Y20472D01*
X14414Y20462D01*
X14414Y20462D01*
X14414D01*
X14433Y20444D01*
X14408Y20226D01*
X14408Y20226D01*
X14488Y20034D01*
X14117Y19339D01*
X13857Y19288D01*
X13494Y19730D01*
Y20226D01*
D01*
D01*
Y20226D01*
X13494D01*
X13228Y20870D01*
X13228D01*
Y20912D01*
X13669Y21542D01*
X14153D01*
X14408Y21161D01*
D02*
G37*
G36*
X9649Y22374D02*
X9968Y21778D01*
X9885Y21577D01*
X9963Y21389D01*
X9939Y21365D01*
X9979Y21348D01*
X9935Y21187D01*
X9935D01*
X9935Y21187D01*
X9935Y21187D01*
D01*
Y19967D01*
D01*
Y19967D01*
X9814Y19845D01*
X9520D01*
X9128Y19683D01*
X8627Y19182D01*
X8465Y18790D01*
Y18769D01*
X7890Y18523D01*
X7890D01*
D01*
D01*
X7890D01*
Y18523D01*
Y18523D01*
D01*
D01*
Y18523D01*
X7425Y18431D01*
X6804Y19052D01*
X7755Y20003D01*
X8012Y20110D01*
X8111Y20348D01*
X8152Y20365D01*
X8152Y20365D01*
X8757Y20970D01*
D01*
X8757D01*
D01*
D01*
Y20970D01*
X8757Y20970D01*
D01*
D01*
X8757Y20970D01*
X9008Y21577D01*
X8874D01*
D01*
X8848Y21640D01*
Y21640D01*
X8757Y21860D01*
Y21970D01*
X8757Y21970D01*
X8867Y22235D01*
X9263Y22494D01*
X9649Y22374D01*
D02*
G37*
G36*
X17924Y19627D02*
X16739Y19137D01*
X16598D01*
X16562Y19190D01*
X16494Y19354D01*
Y19478D01*
X17051Y20035D01*
X17706D01*
X17924Y19627D01*
D02*
G37*
G36*
X32550Y21938D02*
D01*
D01*
D01*
D01*
D01*
Y21938D01*
D01*
D01*
D01*
X32488Y21790D01*
X32298Y21331D01*
X32319Y21282D01*
Y21282D01*
X32437Y20996D01*
X32401Y20910D01*
X31949Y20359D01*
X31569Y20435D01*
X31198Y21129D01*
X31281Y21331D01*
X31261Y21380D01*
X31281Y21430D01*
X31228Y21557D01*
X31338Y21721D01*
X31338D01*
Y22720D01*
X32550D01*
Y21938D01*
D02*
G37*
G36*
X11227Y596D02*
X11035Y131D01*
X10251Y54D01*
X10023Y397D01*
X10324Y1124D01*
X10728Y1205D01*
X11227Y596D01*
D02*
G37*
G36*
X2592Y6589D02*
D01*
D01*
D01*
D01*
D01*
D01*
D01*
D01*
X3055Y6427D01*
D01*
D01*
X3055D01*
D01*
X3205Y6360D01*
X3434Y5807D01*
D01*
Y5217D01*
X3224Y4903D01*
X2644D01*
X2361Y4785D01*
X2361Y4785D01*
X2361Y4785D01*
X2177Y4709D01*
X2136Y4610D01*
X1913Y4566D01*
X1440Y4954D01*
X1327Y5324D01*
X2592Y6589D01*
D01*
D02*
G37*
G36*
X3682Y2031D02*
X3682Y1289D01*
Y1289D01*
D01*
D01*
D01*
Y1289D01*
D01*
X3728Y1178D01*
X3789Y1029D01*
X3869Y838D01*
D01*
D01*
D01*
D01*
D01*
D01*
X3869D01*
Y838D01*
Y838D01*
Y838D01*
D01*
D01*
D01*
D01*
X3869D01*
D01*
X4073Y726D01*
X4214Y585D01*
X3971Y0D01*
X2414D01*
X2261Y772D01*
X2343Y806D01*
X2661Y1575D01*
X2513Y1933D01*
X2718Y2239D01*
X3406Y2307D01*
X3682Y2031D01*
D02*
G37*
G36*
X7614Y1072D02*
X7915Y345D01*
X7685Y0D01*
X6923D01*
X6811Y564D01*
X7368Y1121D01*
X7614Y1072D01*
D02*
G37*
G36*
X18192Y6694D02*
X18388Y6221D01*
X17944Y5801D01*
X17732Y5720D01*
X17603Y5782D01*
X17603Y5782D01*
X17603Y5782D01*
D01*
X17090Y6295D01*
X17408Y6771D01*
X18192Y6694D01*
D02*
G37*
G36*
X20309Y12423D02*
Y12423D01*
D01*
D01*
D01*
D01*
D01*
D01*
D01*
D01*
X20326Y12405D01*
X20326Y12405D01*
X20326Y12109D01*
X20326D01*
Y11986D01*
X20326D01*
X20413Y12022D01*
D01*
X20460Y12041D01*
X20623Y12109D01*
X20623D01*
D01*
X20856Y11506D01*
X20856Y11506D01*
X20856D01*
X21175Y10738D01*
Y10738D01*
D01*
D01*
Y10738D01*
D01*
Y10503D01*
X21175D01*
X21175D01*
D01*
D01*
D01*
X20856Y9734D01*
X20309Y9509D01*
X20309Y9509D01*
X20309Y9509D01*
X18505D01*
X17762Y10253D01*
Y12423D01*
X18498D01*
Y12423D01*
X20309D01*
D01*
D02*
G37*
G36*
X28422Y12541D02*
X28422Y12541D01*
X28761Y12401D01*
Y12401D01*
X28761Y12401D01*
X28808Y12381D01*
X29110Y11654D01*
X28922Y11201D01*
Y10921D01*
X28150Y10767D01*
X28074Y10950D01*
X27817Y11057D01*
Y11057D01*
X27817D01*
X27622Y11137D01*
X27622D01*
X27119Y10971D01*
X27341Y11506D01*
X27309Y11583D01*
X27309D01*
D01*
X27554Y12175D01*
X27554D01*
Y12175D01*
X27596Y12543D01*
X28352Y12650D01*
X28422Y12541D01*
D02*
G37*
G36*
X13759Y10061D02*
X13774Y9509D01*
Y9509D01*
X13774D01*
Y7698D01*
X15585D01*
Y7726D01*
X16312Y8027D01*
X16910Y7430D01*
X16473Y6775D01*
X16240Y6871D01*
X16240Y6871D01*
X15472D01*
X15257Y6782D01*
X15152Y6826D01*
X15059D01*
X14902Y6891D01*
X12395D01*
Y8386D01*
X12361Y8467D01*
X12395Y8547D01*
Y10061D01*
X12986D01*
Y10061D01*
X13759D01*
D01*
D02*
G37*
G36*
X11074Y8166D02*
Y6679D01*
X10465Y6179D01*
X10051Y6262D01*
X9822Y6816D01*
X9236Y7058D01*
X8736D01*
X8151Y6816D01*
X7908Y6230D01*
X7908Y6230D01*
X7908Y6230D01*
X7646Y5838D01*
X7213D01*
X7213Y5838D01*
X6746Y5644D01*
X6746Y5644D01*
D01*
D01*
Y5644D01*
Y5644D01*
X6746D01*
X6073Y4972D01*
X5346Y5273D01*
Y5807D01*
D01*
X5575Y6360D01*
X5725Y6427D01*
X5725D01*
D01*
Y6427D01*
D01*
D01*
X5725D01*
X5725Y6427D01*
X5725Y6427D01*
X5725D01*
X6637Y7891D01*
X9557D01*
X9692Y7947D01*
X9734Y7930D01*
X10224Y8132D01*
Y8132D01*
D01*
X10301Y8320D01*
X10301Y8320D01*
X11074Y8166D01*
D02*
G37*
G36*
X35433Y23121D02*
Y2414D01*
X34661Y2261D01*
X34627Y2343D01*
X33858Y2661D01*
X33090Y2343D01*
X32772Y1575D01*
X33068Y859D01*
X32606Y222D01*
X30774Y365D01*
X30691Y448D01*
D01*
Y489D01*
Y677D01*
Y677D01*
D01*
X30691D01*
X30691D01*
Y698D01*
X30291D01*
Y748D01*
X30241D01*
Y1248D01*
X30091Y1248D01*
D01*
X30091D01*
D01*
X30091Y1248D01*
X29906Y1156D01*
D01*
D01*
X29906Y1156D01*
X29599Y1463D01*
X28984D01*
X28676Y1156D01*
Y557D01*
X28676Y557D01*
X28676D01*
X28676Y341D01*
D01*
X28336Y0D01*
X25546D01*
X25244Y727D01*
X26973Y2456D01*
X27166Y2923D01*
X27166Y2923D01*
Y3364D01*
X27166D01*
X27677Y3705D01*
D01*
X28370Y3992D01*
Y3992D01*
D01*
X28380Y4016D01*
X28380D01*
Y4016D01*
D01*
D01*
X28647Y4661D01*
D01*
D01*
D01*
X28647D01*
Y4661D01*
D01*
D01*
X28657Y4685D01*
D01*
D01*
D01*
X28370Y5378D01*
D01*
D01*
D01*
X28346Y5388D01*
D01*
X28346Y5388D01*
D01*
D01*
D01*
D01*
Y5388D01*
D01*
D01*
X27693Y5659D01*
X27663Y5730D01*
X27663D01*
Y5730D01*
X27663Y5730D01*
Y5730D01*
D01*
D01*
D01*
D01*
D01*
Y5730D01*
X27503Y6710D01*
X27513Y6735D01*
Y6735D01*
X27563Y6854D01*
X28055D01*
X28197Y6913D01*
X28208D01*
X28500Y7034D01*
X29155Y6597D01*
Y6526D01*
X29689D01*
Y6476D01*
X29739D01*
Y5548D01*
X30103D01*
Y5098D01*
X30273Y4687D01*
X30273Y4687D01*
X30273D01*
X30294Y4637D01*
X29993Y3910D01*
X29783Y3823D01*
X29496Y3130D01*
X29783Y2437D01*
X30476Y2150D01*
X31169Y2437D01*
X31457Y3130D01*
X31169Y3823D01*
X31169D01*
D01*
Y3823D01*
X31358Y4195D01*
D01*
X31804Y4380D01*
X31804Y4380D01*
X31804Y4380D01*
X32067Y4489D01*
D01*
D01*
Y4489D01*
X32103Y4576D01*
X32108Y4578D01*
X32111Y4579D01*
D01*
D01*
Y4579D01*
X32249Y4913D01*
X32249Y4913D01*
X32165Y5443D01*
X32467Y5746D01*
Y5746D01*
X32790Y6069D01*
X32904Y6116D01*
X32904Y6116D01*
X33227Y6439D01*
X33340Y6486D01*
X33307Y6519D01*
D01*
X33307Y6519D01*
Y6519D01*
X33178Y6648D01*
X33178Y6648D01*
X33324Y6795D01*
X33324Y6795D01*
X33324Y6795D01*
X33324D01*
X33461Y7126D01*
Y14469D01*
X33364Y14703D01*
X33324Y14800D01*
X31837Y16286D01*
X31506Y16423D01*
X31488D01*
X31388Y16574D01*
X31388Y16574D01*
X31388D01*
X31213Y16995D01*
X31515Y17723D01*
X31838Y17857D01*
X32452Y17243D01*
X32783Y17105D01*
X32727Y16540D01*
X32727D01*
X32727Y16540D01*
D01*
D01*
D01*
D01*
D01*
D01*
X32727Y16540D01*
D01*
X32985Y16433D01*
X33333Y16288D01*
X33338Y16289D01*
X33338D01*
X33443Y16310D01*
X33453Y16284D01*
X33459Y16271D01*
D01*
D01*
Y16271D01*
D01*
D01*
D01*
D01*
D01*
D01*
D01*
D01*
D01*
D01*
D01*
D01*
X33595Y16215D01*
X33711Y16167D01*
Y16574D01*
X33761D01*
Y16624D01*
X34168D01*
X34100Y16789D01*
X34098Y16794D01*
D01*
X34228Y17107D01*
Y17107D01*
X34422Y17574D01*
X34422Y17574D01*
Y17574D01*
X34345Y17758D01*
X34345Y17758D01*
X34345Y17758D01*
X34228Y18041D01*
Y18041D01*
D01*
D01*
Y18041D01*
D01*
Y18107D01*
X34228D01*
X34228D01*
X34422Y18574D01*
X34228Y19041D01*
X33947Y19158D01*
Y19945D01*
X34290Y20087D01*
X34290Y20087D01*
X34290D01*
D01*
D01*
X34290Y20087D01*
X34368Y20119D01*
X34345Y20142D01*
X34345D01*
X34212Y20275D01*
X34064Y20634D01*
X34228Y20864D01*
X34228Y20864D01*
X34422Y21331D01*
X34422Y21331D01*
Y21331D01*
X34345Y21515D01*
X34345Y21515D01*
X34345Y21515D01*
X34228Y21798D01*
Y21798D01*
D01*
D01*
Y21798D01*
D01*
Y21864D01*
X34228D01*
X34228D01*
X34422Y22331D01*
X34422D01*
X34228Y22798D01*
X34306Y22986D01*
X35033Y23287D01*
X35433Y23121D01*
D02*
G37*
G36*
X11981Y35275D02*
Y35275D01*
X12094Y35173D01*
X11841Y34512D01*
X11754Y34438D01*
X9447D01*
Y34866D01*
X9447D01*
Y35932D01*
X11324D01*
X11981Y35275D01*
D02*
G37*
G36*
X18986Y36561D02*
X19179Y36271D01*
X18808Y35577D01*
X18170D01*
X17950Y36108D01*
X18298Y36629D01*
X18986Y36561D01*
D02*
G37*
G36*
X26332Y34167D02*
X26332Y34167D01*
Y34167D01*
X26498Y34098D01*
X26663Y34029D01*
X28564D01*
X29134Y33793D01*
X29081Y33008D01*
X29031Y32994D01*
X29031Y32994D01*
Y32994D01*
X28564Y32801D01*
X28370Y32334D01*
X28370Y32334D01*
X28370Y32334D01*
X28346Y32146D01*
X27898Y31888D01*
X26607D01*
Y32944D01*
X26556D01*
X25271Y33476D01*
X25169Y33722D01*
X25473Y34290D01*
X25898Y34430D01*
X26332Y34167D01*
D02*
G37*
G36*
X19060Y31650D02*
X19005Y31518D01*
X18488Y31002D01*
X17834Y31439D01*
X17989Y31815D01*
X17989Y31815D01*
Y31815D01*
X17989Y31815D01*
X17989Y31815D01*
Y31815D01*
X18155Y32052D01*
X18615Y32243D01*
X18615D01*
X18653Y32259D01*
X19060Y31650D01*
D02*
G37*
G36*
X6618Y32532D02*
D01*
X6618D01*
X6618D01*
X6618Y32532D01*
X6618D01*
X6920Y32135D01*
X6559Y31774D01*
X5837Y31845D01*
X5696Y32056D01*
X5850Y32828D01*
X6133Y33017D01*
X6618Y32532D01*
D02*
G37*
G36*
X29448Y38648D02*
X29360Y38437D01*
X29360D01*
X29360Y38437D01*
X29321Y38342D01*
X29321Y38342D01*
X29321Y38245D01*
X29321D01*
X29321Y38245D01*
Y38239D01*
X29754D01*
Y38189D01*
X29804D01*
Y37616D01*
X29944Y37650D01*
X30564Y37165D01*
Y36835D01*
X29909Y36398D01*
X29754Y36462D01*
Y36462D01*
D01*
X29754D01*
D01*
D01*
D01*
X29400Y36851D01*
X29400D01*
X29400Y36907D01*
D01*
Y36907D01*
X29400D01*
D01*
D01*
X29400D01*
D01*
Y36907D01*
D01*
X29337Y37223D01*
X29704Y37590D01*
Y38139D01*
X29309D01*
X28885Y37856D01*
X28599Y37737D01*
X28465Y37793D01*
Y37793D01*
X28465Y37793D01*
X28392Y37823D01*
Y37823D01*
X27955Y37428D01*
X27955D01*
D01*
D01*
D01*
D01*
D01*
X27624Y37565D01*
X26285D01*
X26204Y37762D01*
X26204D01*
X26204Y37762D01*
Y38577D01*
X26138Y38643D01*
X26439Y39370D01*
X29149D01*
X29448Y38648D01*
D02*
G37*
G36*
X11586Y38707D02*
D01*
D01*
X11284Y37976D01*
X11400Y37695D01*
X11220Y37426D01*
X10433D01*
X10253Y37695D01*
X10370Y37976D01*
X10067Y38707D01*
Y38707D01*
Y38707D01*
X10342Y39370D01*
X11312D01*
X11586Y38707D01*
D02*
G37*
G36*
X20039Y38643D02*
X19974Y38577D01*
Y37785D01*
X18114D01*
X18080Y37771D01*
X17850Y37976D01*
Y37976D01*
X17850D01*
D01*
Y37976D01*
X17850D01*
X17548Y38707D01*
Y38707D01*
Y38707D01*
X17822Y39370D01*
X19738D01*
X20039Y38643D01*
D02*
G37*
G36*
X8606Y38707D02*
D01*
D01*
X8303Y37976D01*
X8420Y37695D01*
X7982Y37040D01*
X6575D01*
X6206Y36888D01*
X5650Y37444D01*
X5870Y37976D01*
X5567Y38707D01*
Y38707D01*
Y38707D01*
X5842Y39370D01*
X8331D01*
X8606Y38707D01*
D02*
G37*
G36*
X16086D02*
D01*
D01*
X15784Y37976D01*
X16086Y37246D01*
Y37246D01*
Y37246D01*
X15891Y36774D01*
X15607Y36656D01*
Y36656D01*
X15644Y36461D01*
X15317Y36158D01*
Y36158D01*
X15317Y36158D01*
D01*
X15317D01*
X15317D01*
D01*
Y36158D01*
D01*
X15317D01*
X15048Y36047D01*
X14321Y36348D01*
X14270Y36471D01*
D01*
X14243Y36537D01*
X14211Y36613D01*
D01*
D01*
D01*
X14211D01*
Y36613D01*
D01*
D01*
X14180Y36625D01*
X14019Y36692D01*
Y36692D01*
D01*
D01*
Y36692D01*
Y36692D01*
X14019D01*
D01*
Y36692D01*
X14019Y36692D01*
X13367Y36661D01*
X13048Y37246D01*
X13350Y37976D01*
X13048Y38707D01*
Y38707D01*
Y38707D01*
X13322Y39370D01*
X15812D01*
X16086Y38707D01*
D02*
G37*
G36*
X4106D02*
D01*
D01*
X3803Y37976D01*
X4106Y37246D01*
X4529Y37070D01*
X4800Y36416D01*
X4788Y36241D01*
X4788D01*
X4788Y36241D01*
Y36241D01*
X4861Y36221D01*
X5100Y36157D01*
X5100Y36157D01*
D01*
D01*
X5233Y35562D01*
X5233D01*
X5233Y35562D01*
X5337Y35137D01*
D01*
X4870Y34943D01*
X4870D01*
X4676Y34476D01*
X4870Y34009D01*
Y34009D01*
X4870D01*
X4870D01*
X4870Y34009D01*
X4870D01*
X4961Y33496D01*
X4730Y33265D01*
X4730D01*
X4730Y33265D01*
X4782Y33207D01*
X4713Y33041D01*
X4044Y32764D01*
X4044Y32764D01*
X4020Y32754D01*
X3733Y32061D01*
X3743Y32036D01*
D01*
X3901Y31656D01*
X3868Y31607D01*
X3476Y31445D01*
X2709Y30677D01*
X2546Y30285D01*
X2077Y30265D01*
X2077Y30265D01*
X1625Y30078D01*
X1534Y30040D01*
D01*
D01*
X1534D01*
D01*
D01*
D01*
X1310Y29498D01*
X1364Y29367D01*
Y29367D01*
D01*
D01*
D01*
Y29367D01*
X1364Y29367D01*
D01*
X1416Y29241D01*
Y19990D01*
X1416Y19990D01*
X1610Y19523D01*
X2631Y18501D01*
X2243Y17920D01*
X2130Y17873D01*
X2101Y17885D01*
Y16782D01*
X3204D01*
X3045Y17165D01*
X3382Y17979D01*
X3404Y18011D01*
X5976D01*
X6704Y17283D01*
Y14878D01*
Y12570D01*
X727Y6593D01*
X0Y6894D01*
Y36956D01*
X772Y37109D01*
X806Y37027D01*
X1575Y36709D01*
X2343Y37027D01*
X2661Y37795D01*
X2343Y38564D01*
X2261Y38598D01*
X2414Y39370D01*
X3831D01*
X4106Y38707D01*
D02*
G37*
G36*
X23935Y26368D02*
X23781Y25596D01*
X23576Y25511D01*
X23576Y25511D01*
D01*
D01*
D01*
X23183Y25348D01*
X22456Y25650D01*
X22203Y26259D01*
X22217Y26265D01*
X22193Y26289D01*
X22271Y26476D01*
X22271D01*
Y26476D01*
D01*
X22228Y26580D01*
X22217Y26605D01*
X22589Y27300D01*
X22935Y27368D01*
X23935Y26368D01*
D02*
G37*
G36*
X35433Y29118D02*
Y27292D01*
X34706Y26991D01*
X34045Y27651D01*
X33714Y27789D01*
Y27789D01*
X33714Y27789D01*
X33343Y27858D01*
X32909Y28292D01*
X32865Y28715D01*
X32900Y28729D01*
X33175Y28843D01*
Y28843D01*
X33285D01*
D01*
Y28843D01*
X33561Y28729D01*
X33737Y28656D01*
Y28656D01*
X33737Y28656D01*
Y28656D01*
X33995Y28762D01*
X33995Y28762D01*
Y28762D01*
X34189Y28843D01*
X34189Y28843D01*
X34377Y29295D01*
X34377Y29295D01*
X34377Y29295D01*
Y29295D01*
X34485Y29451D01*
X34920Y29631D01*
X35433Y29118D01*
D02*
G37*
G36*
X7480Y29185D02*
Y29185D01*
X8585D01*
X8585Y28533D01*
X8585D01*
Y28533D01*
X9064Y28731D01*
X9064Y28731D01*
X9719Y28294D01*
Y28234D01*
X9719Y28234D01*
X9719D01*
Y28205D01*
Y28205D01*
Y27982D01*
X9162Y27426D01*
X8280D01*
Y26166D01*
X8280D01*
X8399Y26108D01*
X8339Y25553D01*
X8339D01*
X8357Y25466D01*
X7850Y25051D01*
X7545D01*
D01*
D01*
X7545D01*
Y25051D01*
X6836Y24757D01*
D01*
X6288D01*
X6267Y24777D01*
D01*
X6043Y25320D01*
Y25320D01*
D01*
D01*
Y25320D01*
D01*
Y25613D01*
X6043D01*
X6043D01*
X6267Y26155D01*
Y26943D01*
X6043Y27485D01*
Y27485D01*
D01*
D01*
Y27485D01*
D01*
Y27778D01*
X6043D01*
X6043D01*
X6267Y28320D01*
Y29108D01*
X6475Y29418D01*
X7261Y29455D01*
X7480Y29185D01*
D02*
G37*
G36*
X28023Y28013D02*
X28380Y27344D01*
X28370Y27320D01*
X28564Y26853D01*
Y26853D01*
Y26853D01*
X28275Y26156D01*
X27328D01*
X27218Y26229D01*
Y27550D01*
X27738Y28069D01*
X28023Y28013D01*
D02*
G37*
G36*
X15945Y23220D02*
X15945Y23220D01*
Y23220D01*
D01*
D01*
Y23220D01*
X16337Y23058D01*
X17135D01*
X17209Y23028D01*
X17332Y22742D01*
X17422Y22286D01*
X17348Y22255D01*
X17348D01*
X17348Y22255D01*
X16354Y21261D01*
X16026Y21326D01*
X15655Y22021D01*
X15686Y22096D01*
X15499Y22548D01*
Y22548D01*
D01*
D01*
Y22548D01*
D01*
Y22580D01*
X15499D01*
X15499D01*
X15686Y23031D01*
D01*
X15919Y23235D01*
X15945Y23220D01*
D02*
G37*
G36*
X33172Y38598D02*
X33090Y38564D01*
X32772Y37795D01*
X33090Y37027D01*
X33858Y36709D01*
X34627Y37027D01*
X34661Y37109D01*
X35433Y36956D01*
Y30597D01*
X34761Y30318D01*
X34761D01*
X34334Y30142D01*
X34069Y30442D01*
Y30442D01*
X34069Y30442D01*
Y30442D01*
Y30442D01*
D01*
X33615Y30896D01*
X33768Y31669D01*
X33995Y31762D01*
Y31762D01*
X34189Y31843D01*
X34377Y32295D01*
D01*
D01*
X34189Y32747D01*
X33995Y32828D01*
Y32828D01*
X33737Y32934D01*
X33737Y32934D01*
X33737Y32934D01*
X33333Y32767D01*
X32678Y33204D01*
Y34034D01*
X32541Y34365D01*
X31604Y35302D01*
X31505Y35343D01*
X31491Y35416D01*
X31491Y35416D01*
X31491Y35416D01*
Y36336D01*
X31188Y36639D01*
Y37426D01*
X31491Y37729D01*
Y38649D01*
X31491Y38649D01*
X32212Y39370D01*
X33019D01*
X33172Y38598D01*
D02*
G37*
G36*
X16329Y31154D02*
X16796Y31348D01*
X16796D01*
D01*
D01*
X16862D01*
Y31348D01*
Y31348D01*
X16862D01*
X16862D01*
X17329Y31154D01*
X17612Y31272D01*
X17612Y31272D01*
X17612Y31272D01*
X17705Y31310D01*
X18142Y30655D01*
X17592Y30105D01*
X17454Y29774D01*
Y29559D01*
X17329Y29475D01*
X17329Y29475D01*
Y29475D01*
X16862Y29282D01*
X16862D01*
D01*
X16796D01*
D01*
Y29282D01*
D01*
D01*
D01*
X16329Y29475D01*
Y29475D01*
X16329Y29475D01*
D01*
D01*
D01*
X15935Y30027D01*
Y30027D01*
D01*
D01*
D01*
D01*
D01*
D01*
D01*
D01*
D01*
D01*
X15826Y30072D01*
X15329Y30278D01*
X15280Y30258D01*
X15280D01*
X14763Y30044D01*
X14660Y30146D01*
X14329Y30284D01*
X11610D01*
X11483Y30589D01*
X11639Y30963D01*
X11976Y31301D01*
X12329Y31154D01*
Y31154D01*
X12329Y31154D01*
Y31154D01*
X12505Y31228D01*
X12796Y31348D01*
Y31348D01*
X12862D01*
D01*
Y31348D01*
D01*
D01*
D01*
X13329Y31154D01*
D01*
D01*
D01*
D01*
D01*
D01*
X13762Y31334D01*
X13796Y31348D01*
D01*
Y31348D01*
D01*
X13862D01*
D01*
Y31348D01*
D01*
D01*
D01*
X14329Y31154D01*
D01*
D01*
D01*
D01*
D01*
D01*
X14762Y31334D01*
X14796Y31348D01*
D01*
Y31348D01*
D01*
X14862D01*
D01*
Y31348D01*
X15152Y31228D01*
X15329Y31154D01*
Y31154D01*
X15329Y31154D01*
Y31154D01*
X15516Y31232D01*
X15540Y31208D01*
X15557Y31249D01*
X15796Y31348D01*
X15796D01*
D01*
D01*
X15796D01*
D01*
X15862D01*
Y31348D01*
Y31348D01*
D01*
D01*
D01*
X16329Y31154D01*
D02*
G37*
%LPC*%
G36*
X30341Y1248D02*
Y798D01*
X30691D01*
Y819D01*
D01*
D01*
D01*
X30691Y819D01*
X30691D01*
X30691Y1048D01*
D01*
D01*
D01*
X30491Y1248D01*
X30491D01*
X30491D01*
Y1248D01*
Y1248D01*
X30341Y1248D01*
D02*
G37*
G36*
X2001Y17885D02*
X1221Y17562D01*
X898Y16782D01*
X2001D01*
Y17885D01*
D02*
G37*
G36*
Y16682D02*
X898D01*
X1221Y15902D01*
X2001Y15579D01*
Y16682D01*
D02*
G37*
G36*
X4685Y14342D02*
X4094D01*
X3627Y14148D01*
X3434Y13681D01*
Y13091D01*
X3627Y12624D01*
X4094Y12430D01*
X4685D01*
X5152Y12624D01*
X5346Y13091D01*
Y13681D01*
X5152Y14148D01*
X4685Y14342D01*
D02*
G37*
G36*
X3204Y16682D02*
X2101D01*
Y15579D01*
X2881Y15902D01*
X3204Y16682D01*
D02*
G37*
G36*
X29639Y6426D02*
X29155D01*
Y6083D01*
X29295Y5743D01*
D01*
X29295D01*
X29295Y5743D01*
X29295D01*
X29295D01*
X29311Y5705D01*
D01*
D01*
X29396Y5670D01*
X29639Y5569D01*
Y6426D01*
D02*
G37*
G36*
X34168Y16524D02*
X33811D01*
Y16167D01*
X34035Y16259D01*
X34064Y16271D01*
D01*
D01*
D01*
D01*
D01*
D01*
D01*
Y16271D01*
D01*
D01*
D01*
D01*
X34139Y16454D01*
X34155Y16492D01*
X34155D01*
D01*
X34168Y16524D01*
D02*
G37*
%LPD*%
D10*
X29027Y21128D02*
G03*
X28715Y20999I0J-441D01*
G01*
X19926Y34001D02*
G03*
X19630Y34124I-296J-296D01*
G01*
X23492Y33333D02*
G03*
X23331Y32943I390J-390D01*
G01*
X18440Y28208D02*
G03*
X18444Y28583I-315J191D01*
G01*
X18376Y28886D02*
G03*
X18646Y28233I923J0D01*
G01*
X18440Y28208D02*
G03*
X18444Y28583I-315J191D01*
G01*
X11323Y26523D02*
G03*
X11416Y26297I318J0D01*
G01*
X11416Y26297D02*
G03*
X11191Y26391I-225J-225D01*
G01*
X22426Y25005D02*
G03*
X22313Y24732I273J-273D01*
G01*
X22593Y24838D02*
G03*
X22313Y24161I677J-677D01*
G01*
X22382Y24473D02*
G03*
X22385Y24867I-345J199D01*
G01*
X22382Y24473D02*
G03*
X22385Y24867I-345J199D01*
G01*
X23210Y34208D02*
G03*
X23435Y34301I0J318D01*
G01*
X23435Y34301D02*
G03*
X23342Y34076I225J-225D01*
G01*
X21226Y20881D02*
G03*
X21001Y20974I-225J-225D01*
G01*
D02*
G03*
X21226Y21067I0J318D01*
G01*
X17823D02*
G03*
X18048Y20974I225J225D01*
G01*
D02*
G03*
X17823Y20881I0J-318D01*
G01*
X24101Y21967D02*
G03*
X23922Y21534I433J-433D01*
G01*
X27949Y24213D02*
G03*
X27724Y24306I-225J-225D01*
G01*
D02*
G03*
X27949Y24399I0J318D01*
G01*
X32108Y19094D02*
G03*
X32015Y19319I-318J0D01*
G01*
X32015Y19319D02*
G03*
X32240Y19226I225J225D01*
G01*
X15116Y17531D02*
G03*
X14891Y17624I-225J-225D01*
G01*
D02*
G03*
X15116Y17717I0J318D01*
G01*
X17993Y25731D02*
G03*
X17900Y25505I225J-225D01*
G01*
D02*
G03*
X17806Y25731I-318J0D01*
G01*
X22280Y29278D02*
G03*
X22505Y29371I0J318D01*
G01*
X22505Y29371D02*
G03*
X22412Y29146I225J-225D01*
G01*
X18379Y21839D02*
G03*
X18153Y21930I-222J-228D01*
G01*
X18153Y21930D02*
G03*
X18377Y22026I-4J318D01*
G01*
X26603Y17941D02*
G03*
X26510Y17715I225J-225D01*
G01*
D02*
G03*
X26416Y17941I-318J0D01*
G01*
X27623D02*
G03*
X27530Y17715I225J-225D01*
G01*
D02*
G03*
X27436Y17941I-318J0D01*
G01*
X29010Y18946D02*
G03*
X29235Y19039I0J318D01*
G01*
X29235Y19039D02*
G03*
X29142Y18814I225J-225D01*
G01*
X20390Y18552D02*
G03*
X20165Y18459I0J-318D01*
G01*
X20165Y18459D02*
G03*
X20258Y18684I-225J225D01*
G01*
X19982Y21607D02*
G03*
X20207Y21514I225J225D01*
G01*
D02*
G03*
X19982Y21421I0J-318D01*
G01*
X26043Y25767D02*
G03*
X26268Y25674I225J225D01*
G01*
D02*
G03*
X26043Y25581I0J-318D01*
G01*
X12205Y18356D02*
G03*
X12316Y18087I380J0D01*
G01*
D02*
G03*
X12047Y18199I-269J-269D01*
G01*
X33636Y17449D02*
G03*
X33333Y17574I-302J-302D01*
G01*
D02*
G03*
X33636Y17699I0J428D01*
G01*
X28153Y17426D02*
G03*
X28042Y17157I269J-269D01*
G01*
D02*
G03*
X27931Y17426I-380J0D01*
G01*
X26122Y24431D02*
G03*
X26425Y24306I302J302D01*
G01*
D02*
G03*
X26122Y24181I0J-428D01*
G01*
X27929Y8831D02*
G03*
X28055Y9130I-289J298D01*
G01*
D02*
G03*
X28182Y8831I415J0D01*
G01*
X27733Y10387D02*
G03*
X27563Y9975I411J-411D01*
G01*
X24107Y20537D02*
G03*
X24219Y20269I380J0D01*
G01*
D02*
G03*
X23950Y20380I-269J-269D01*
G01*
X24383Y18201D02*
G03*
X24107Y17537I664J-664D01*
G01*
X33761Y21154D02*
G03*
X33459Y21029I0J-428D01*
G01*
X33459Y21029D02*
G03*
X33584Y21331I-302J302D01*
G01*
X23980Y8829D02*
G03*
X24108Y9140I-311J311D01*
G01*
D02*
G03*
X24237Y8829I439J0D01*
G01*
X23816Y10387D02*
G03*
X23705Y10118I269J-269D01*
G01*
D02*
G03*
X23593Y10387I-380J0D01*
G01*
X24862Y17649D02*
G03*
X24973Y17918I-269J269D01*
G01*
D02*
G03*
X25084Y17649I380J0D01*
G01*
X29156Y27445D02*
G03*
X29459Y27320I302J302D01*
G01*
D02*
G03*
X29156Y27195I0J-428D01*
G01*
X25839Y20537D02*
G03*
X25727Y20806I-380J0D01*
G01*
D02*
G03*
X25996Y20695I269J269D01*
G01*
X29094Y13652D02*
G03*
X29689Y13406I595J595D01*
G01*
X28691Y14055D02*
G03*
X29689Y13642I998J998D01*
G01*
X29419Y13309D02*
G03*
X29205Y13535I-292J-62D01*
G01*
X29205Y13535D02*
G03*
X29532Y13592I102J380D01*
G01*
X29654Y13347D02*
G03*
X29070Y13808I-829J-451D01*
G01*
X29654Y13347D02*
G03*
X29070Y13808I-829J-451D01*
G01*
X29419Y13309D02*
G03*
X29205Y13535I-292J-62D01*
G01*
X29205Y13535D02*
G03*
X29532Y13592I102J380D01*
G01*
X31549Y6298D02*
G03*
X30903Y5864I201J-997D01*
G01*
X30870Y5453D02*
G03*
X31636Y5770I0J1084D01*
G01*
X30870Y5689D02*
G03*
X32040Y6173I0J1654D01*
G01*
X30870Y5925D02*
G03*
X32443Y6577I0J2224D01*
G01*
X30870Y6161D02*
G03*
X32846Y6980I0J2794D01*
G01*
X31549Y6298D02*
G03*
X30903Y5864I201J-997D01*
G01*
X31135Y5963D02*
G03*
X31379Y5825I192J56D01*
G01*
X31011Y6123D02*
G03*
X31416Y6065I273J460D01*
G01*
X31594Y6111D02*
G03*
X31107Y5745I197J-771D01*
G01*
X30963Y6145D02*
G03*
X31294Y6209I112J313D01*
G01*
X31294Y6209D02*
G03*
X31146Y5884I290J-329D01*
G01*
X31011Y6123D02*
G03*
X31416Y6065I273J460D01*
G01*
X31594Y6111D02*
G03*
X31107Y5745I197J-771D01*
G01*
X31135Y5963D02*
G03*
X31379Y5825I192J56D01*
G01*
X31084Y5666D02*
G03*
X31348Y5581I198J162D01*
G01*
X31348Y5581D02*
G03*
X31124Y5385I87J-326D01*
G01*
X31084Y5666D02*
G03*
X31348Y5581I198J162D01*
G01*
X31348Y5581D02*
G03*
X31124Y5385I87J-326D01*
G01*
X31106Y5635D02*
G03*
X31358Y5492I252J152D01*
G01*
D02*
G03*
X31106Y5350I0J-295D01*
G01*
X31065Y7852D02*
G03*
X31535Y7658I470J470D01*
G01*
D02*
G03*
X31065Y7463I0J-665D01*
G01*
X33584Y25088D02*
G03*
X33459Y25391I-428J0D01*
G01*
X33459Y25391D02*
G03*
X33761Y25265I302J302D01*
G01*
X9107Y26796D02*
G03*
X9246Y26460I475J0D01*
G01*
D02*
G03*
X8910Y26599I-336J-336D01*
G01*
X13248Y26958D02*
G03*
X13311Y27126I-88J128D01*
G01*
X13311D02*
G03*
X13440Y26976I222J60D01*
G01*
X13399Y26796D02*
G03*
X13168Y27353I-789J0D01*
G01*
X13163Y26796D02*
G03*
X12765Y27757I-1359J-0D01*
G01*
X13248Y26958D02*
G03*
X13311Y27126I-88J128D01*
G01*
X13311D02*
G03*
X13440Y26976I222J60D01*
G01*
X13251Y26960D02*
G03*
X13360Y27162I-133J202D01*
G01*
D02*
G03*
X13468Y26960I242J0D01*
G01*
X13082Y27098D02*
G03*
X13340Y26762I535J143D01*
G01*
X13082Y27098D02*
G03*
X13340Y26762I535J143D01*
G01*
X15521Y26656D02*
G03*
X15185Y26796I-336J-336D01*
G01*
D02*
G03*
X15521Y26935I0J475D01*
G01*
X16463Y26796D02*
G03*
X16324Y27132I-475J0D01*
G01*
D02*
G03*
X16660Y26993I336J336D01*
G01*
X29156Y31459D02*
G03*
X29459Y31334I302J302D01*
G01*
D02*
G03*
X29156Y31209I0J-428D01*
G01*
X12205Y20226D02*
G03*
X12316Y19958I380J0D01*
G01*
D02*
G03*
X12047Y20069I-269J-269D01*
G01*
X21379Y17697D02*
G03*
X21648Y17585I269J269D01*
G01*
D02*
G03*
X21379Y17474I0J-380D01*
G01*
X15047Y19449D02*
G03*
X15316Y19560I0J380D01*
G01*
D02*
G03*
X15205Y19291I269J-269D01*
G01*
X17203Y31940D02*
G03*
X17329Y32243I-302J302D01*
G01*
D02*
G03*
X17454Y31940I428J0D01*
G01*
X15329Y31992D02*
G03*
X15850Y32208I0J737D01*
G01*
X14329Y31992D02*
G03*
X14631Y32117I0J428D01*
G01*
X14631Y32117D02*
G03*
X14506Y31815I302J-302D01*
G01*
X12152D02*
G03*
X12026Y32117I-428J0D01*
G01*
X12026Y32117D02*
G03*
X12329Y31992I302J302D01*
G01*
X15152Y28815D02*
G03*
X15026Y29117I-428J0D01*
G01*
X15026Y29117D02*
G03*
X15329Y28992I302J302D01*
G01*
X14506Y28815D02*
G03*
X14631Y28513I428J0D01*
G01*
X14631Y28513D02*
G03*
X14329Y28638I-302J-302D01*
G01*
X13497Y28761D02*
G03*
X13611Y28291I441J-142D01*
G01*
X13270Y28815D02*
G03*
X13498Y28264I779J0D01*
G01*
X13506Y28815D02*
G03*
X13901Y27861I1350J0D01*
G01*
X13443Y28680D02*
G03*
X13329Y28433I209J-247D01*
G01*
D02*
G03*
X13214Y28680I-323J0D01*
G01*
X13564Y28598D02*
G03*
X13358Y28866I-427J-114D01*
G01*
X13712Y28047D02*
G03*
X13240Y28662I-978J-262D01*
G01*
X13564Y28598D02*
G03*
X13358Y28866I-427J-114D01*
G01*
X13712Y28047D02*
G03*
X13240Y28662I-978J-262D01*
G01*
X12454Y28690D02*
G03*
X12329Y28387I302J-302D01*
G01*
D02*
G03*
X12203Y28690I-428J0D01*
G01*
X11454D02*
G03*
X11329Y28387I302J-302D01*
G01*
D02*
G03*
X11203Y28690I-428J0D01*
G01*
X8249Y29954D02*
G03*
X8585Y29815I336J336D01*
G01*
D02*
G03*
X8249Y29676I0J-475D01*
G01*
X19935Y24990D02*
G03*
X20245Y24861I311J311D01*
G01*
D02*
G03*
X19935Y24733I0J-439D01*
G01*
Y26974D02*
G03*
X20245Y26846I311J311D01*
G01*
D02*
G03*
X19935Y26717I0J-439D01*
G01*
X5514Y34476D02*
G03*
X5639Y34174I428J0D01*
G01*
X5639Y34174D02*
G03*
X5337Y34299I-302J-302D01*
G01*
X32612Y29406D02*
G03*
X32723Y29675I-269J269D01*
G01*
D02*
G03*
X32835Y29406I380J0D01*
G01*
X11936Y23855D02*
G03*
X11667Y23967I-269J-269D01*
G01*
D02*
G03*
X11936Y24078I0J380D01*
G01*
X33626Y29406D02*
G03*
X33737Y29675I-269J269D01*
G01*
D02*
G03*
X33849Y29406I380J0D01*
G01*
X14890Y23032D02*
G03*
X14778Y23300I-380J0D01*
G01*
D02*
G03*
X15047Y23189I269J269D01*
G01*
X7545Y22754D02*
G03*
X7848Y22879I0J428D01*
G01*
X7848Y22879D02*
G03*
X7722Y22577I302J-302D01*
G01*
X7545Y22400D02*
G03*
X7243Y22274I0J-428D01*
G01*
X7243Y22274D02*
G03*
X7368Y22577I-302J302D01*
G01*
X7545Y21754D02*
G03*
X7848Y21879I0J428D01*
G01*
X7848Y21879D02*
G03*
X7722Y21577I302J-302D01*
G01*
X7545Y21400D02*
G03*
X7243Y21274I0J-428D01*
G01*
X7243Y21274D02*
G03*
X7368Y21577I-302J302D01*
G01*
X10722Y22577D02*
G03*
X10848Y22274I428J0D01*
G01*
X10848Y22274D02*
G03*
X10545Y22400I-302J-302D01*
G01*
X5695Y22413D02*
G03*
X6166Y22218I470J470D01*
G01*
D02*
G03*
X5695Y22023I0J-665D01*
G01*
X4514Y22614D02*
G03*
X4319Y22143I470J-470D01*
G01*
D02*
G03*
X4124Y22614I-665J0D01*
G01*
X11936Y21985D02*
G03*
X11667Y22096I-269J-269D01*
G01*
D02*
G03*
X11936Y22208I0J380D01*
G01*
X19855Y35775D02*
G03*
X20124Y35663I269J269D01*
G01*
D02*
G03*
X19855Y35552I0J-380D01*
G01*
X24610Y22299D02*
G03*
X24308Y22174I0J-428D01*
G01*
X24308Y22174D02*
G03*
X24433Y22476I-302J302D01*
G01*
X24787Y23476D02*
G03*
X24913Y23174I428J0D01*
G01*
X24913Y23174D02*
G03*
X24610Y23299I-302J-302D01*
G01*
X24485Y23351D02*
G03*
X24183Y23476I-302J-302D01*
G01*
D02*
G03*
X24485Y23602I0J428D01*
G01*
X24610Y24654D02*
G03*
X24913Y24779I0J428D01*
G01*
X24913Y24779D02*
G03*
X24787Y24476I302J-302D01*
G01*
X24485Y24351D02*
G03*
X24183Y24476I-302J-302D01*
G01*
D02*
G03*
X24485Y24602I0J428D01*
G01*
X24787Y25482D02*
G03*
X24947Y25216I320J11D01*
G01*
X24833Y25282D02*
G03*
X24656Y25305I-116J-202D01*
G01*
X25256Y25301D02*
G03*
X24690Y25318I-299J-518D01*
G01*
X24568Y25435D02*
G03*
X25121Y25206I553J553D01*
G01*
X24736Y25602D02*
G03*
X25692Y25206I956J956D01*
G01*
X25256Y25301D02*
G03*
X24690Y25318I-299J-518D01*
G01*
X24787Y25482D02*
G03*
X24947Y25216I320J11D01*
G01*
X24833Y25282D02*
G03*
X24656Y25305I-116J-202D01*
G01*
X24610Y31299D02*
G03*
X24308Y31174I0J-428D01*
G01*
X24308Y31174D02*
G03*
X24433Y31476I-302J302D01*
G01*
X24485Y33351D02*
G03*
X24183Y33476I-302J-302D01*
G01*
D02*
G03*
X24485Y33602I0J428D01*
G01*
X24610Y35299D02*
G03*
X24308Y35174I0J-428D01*
G01*
X24308Y35174D02*
G03*
X24433Y35476I-302J302D01*
G01*
X20945Y26378D02*
G03*
X21485Y26602I0J764D01*
G01*
X21610Y27299D02*
G03*
X21308Y27174I0J-428D01*
G01*
X21308Y27174D02*
G03*
X21433Y27476I-302J302D01*
G01*
Y29476D02*
G03*
X21308Y29779I-428J0D01*
G01*
X21308Y29779D02*
G03*
X21610Y29654I302J302D01*
G01*
Y30654D02*
G03*
X21913Y30779I0J428D01*
G01*
X21913Y30779D02*
G03*
X21787Y30476I302J-302D01*
G01*
X21610Y31654D02*
G03*
X21913Y31779I0J428D01*
G01*
X21913Y31779D02*
G03*
X21787Y31476I302J-302D01*
G01*
X21485Y32351D02*
G03*
X21183Y32476I-302J-302D01*
G01*
D02*
G03*
X21485Y32602I0J428D01*
G01*
X21433Y33476D02*
G03*
X21237Y33950I-670J0D01*
G01*
X21662Y34504D02*
G03*
X21405Y34708I-364J-194D01*
G01*
X21662Y34504D02*
G03*
X21405Y34708I-364J-194D01*
G01*
X20982Y34914D02*
G03*
X21610Y34654I628J628D01*
G01*
Y35654D02*
G03*
X21913Y35779I0J428D01*
G01*
X21913Y35779D02*
G03*
X21787Y35476I302J-302D01*
G01*
X21485Y35351D02*
G03*
X21002Y35551I-483J-483D01*
G01*
X28116Y36270D02*
G03*
X27880Y36841I-808J0D01*
G01*
X28022Y36698D02*
G03*
X28392Y36545I370J370D01*
G01*
X27996Y36719D02*
G03*
X28402Y36308I564J151D01*
G01*
X27996Y36719D02*
G03*
X28402Y36308I564J151D01*
G01*
X29027Y21128D02*
G03*
X28715Y20999I0J-441D01*
G01*
X19926Y34001D02*
G03*
X19630Y34124I-296J-296D01*
G01*
X23492Y33333D02*
G03*
X23331Y32943I390J-390D01*
G01*
X18376Y28886D02*
G03*
X18646Y28233I923J0D01*
G01*
X18440Y28208D02*
G03*
X18444Y28583I-315J191D01*
G01*
X11323Y26523D02*
G03*
X11416Y26297I318J0D01*
G01*
X11416Y26297D02*
G03*
X11191Y26391I-225J-225D01*
G01*
X22426Y25005D02*
G03*
X22313Y24732I273J-273D01*
G01*
X22593Y24838D02*
G03*
X22313Y24161I677J-677D01*
G01*
X22382Y24473D02*
G03*
X22385Y24867I-345J199D01*
G01*
X23210Y34208D02*
G03*
X23435Y34301I0J318D01*
G01*
X23435Y34301D02*
G03*
X23342Y34076I225J-225D01*
G01*
X21226Y20881D02*
G03*
X21001Y20974I-225J-225D01*
G01*
D02*
G03*
X21226Y21067I0J318D01*
G01*
X17823D02*
G03*
X18048Y20974I225J225D01*
G01*
D02*
G03*
X17823Y20881I0J-318D01*
G01*
X24101Y21967D02*
G03*
X23922Y21534I433J-433D01*
G01*
X27949Y24213D02*
G03*
X27724Y24306I-225J-225D01*
G01*
D02*
G03*
X27949Y24399I0J318D01*
G01*
X32108Y19094D02*
G03*
X32015Y19319I-318J0D01*
G01*
X32015Y19319D02*
G03*
X32240Y19226I225J225D01*
G01*
X15116Y17531D02*
G03*
X14891Y17624I-225J-225D01*
G01*
D02*
G03*
X15116Y17717I0J318D01*
G01*
X17993Y25731D02*
G03*
X17900Y25505I225J-225D01*
G01*
D02*
G03*
X17806Y25731I-318J0D01*
G01*
X22280Y29278D02*
G03*
X22505Y29371I0J318D01*
G01*
X22505Y29371D02*
G03*
X22412Y29146I225J-225D01*
G01*
X18379Y21839D02*
G03*
X18153Y21930I-222J-228D01*
G01*
X18153Y21930D02*
G03*
X18377Y22026I-4J318D01*
G01*
X26603Y17941D02*
G03*
X26510Y17715I225J-225D01*
G01*
D02*
G03*
X26416Y17941I-318J0D01*
G01*
X27623D02*
G03*
X27530Y17715I225J-225D01*
G01*
D02*
G03*
X27436Y17941I-318J0D01*
G01*
X29010Y18946D02*
G03*
X29235Y19039I0J318D01*
G01*
X29235Y19039D02*
G03*
X29142Y18814I225J-225D01*
G01*
X20390Y18552D02*
G03*
X20165Y18459I0J-318D01*
G01*
X20165Y18459D02*
G03*
X20258Y18684I-225J225D01*
G01*
X19982Y21607D02*
G03*
X20207Y21514I225J225D01*
G01*
D02*
G03*
X19982Y21421I0J-318D01*
G01*
X26043Y25767D02*
G03*
X26268Y25674I225J225D01*
G01*
D02*
G03*
X26043Y25581I0J-318D01*
G01*
X12205Y18356D02*
G03*
X12316Y18087I380J0D01*
G01*
D02*
G03*
X12047Y18199I-269J-269D01*
G01*
X33636Y17449D02*
G03*
X33333Y17574I-302J-302D01*
G01*
D02*
G03*
X33636Y17699I0J428D01*
G01*
X28153Y17426D02*
G03*
X28042Y17157I269J-269D01*
G01*
D02*
G03*
X27931Y17426I-380J0D01*
G01*
X26122Y24431D02*
G03*
X26425Y24306I302J302D01*
G01*
D02*
G03*
X26122Y24181I0J-428D01*
G01*
X27929Y8831D02*
G03*
X28055Y9130I-289J298D01*
G01*
D02*
G03*
X28182Y8831I415J0D01*
G01*
X27733Y10387D02*
G03*
X27563Y9975I411J-411D01*
G01*
X24107Y20537D02*
G03*
X24219Y20269I380J0D01*
G01*
D02*
G03*
X23950Y20380I-269J-269D01*
G01*
X24383Y18201D02*
G03*
X24107Y17537I664J-664D01*
G01*
X33761Y21154D02*
G03*
X33459Y21029I0J-428D01*
G01*
X33459Y21029D02*
G03*
X33584Y21331I-302J302D01*
G01*
X23980Y8829D02*
G03*
X24108Y9140I-311J311D01*
G01*
D02*
G03*
X24237Y8829I439J0D01*
G01*
X23816Y10387D02*
G03*
X23705Y10118I269J-269D01*
G01*
D02*
G03*
X23593Y10387I-380J0D01*
G01*
X24862Y17649D02*
G03*
X24973Y17918I-269J269D01*
G01*
D02*
G03*
X25084Y17649I380J0D01*
G01*
X29156Y27445D02*
G03*
X29459Y27320I302J302D01*
G01*
D02*
G03*
X29156Y27195I0J-428D01*
G01*
X25839Y20537D02*
G03*
X25727Y20806I-380J0D01*
G01*
D02*
G03*
X25996Y20695I269J269D01*
G01*
X29094Y13652D02*
G03*
X29689Y13406I595J595D01*
G01*
X28691Y14055D02*
G03*
X29689Y13642I998J998D01*
G01*
X29654Y13347D02*
G03*
X29070Y13808I-829J-451D01*
G01*
X29419Y13309D02*
G03*
X29205Y13535I-292J-62D01*
G01*
X29205Y13535D02*
G03*
X29532Y13592I102J380D01*
G01*
X30870Y5453D02*
G03*
X31636Y5770I0J1084D01*
G01*
X30870Y5689D02*
G03*
X32040Y6173I0J1654D01*
G01*
X30870Y5925D02*
G03*
X32443Y6577I0J2224D01*
G01*
X30870Y6161D02*
G03*
X32846Y6980I0J2794D01*
G01*
X31549Y6298D02*
G03*
X30903Y5864I201J-997D01*
G01*
X31011Y6123D02*
G03*
X31416Y6065I273J460D01*
G01*
X31594Y6111D02*
G03*
X31107Y5745I197J-771D01*
G01*
X31135Y5963D02*
G03*
X31379Y5825I192J56D01*
G01*
X31084Y5666D02*
G03*
X31348Y5581I198J162D01*
G01*
X31348Y5581D02*
G03*
X31124Y5385I87J-326D01*
G01*
X31106Y5635D02*
G03*
X31358Y5492I252J152D01*
G01*
D02*
G03*
X31106Y5350I0J-295D01*
G01*
X31065Y7852D02*
G03*
X31535Y7658I470J470D01*
G01*
D02*
G03*
X31065Y7463I0J-665D01*
G01*
X33584Y25088D02*
G03*
X33459Y25391I-428J0D01*
G01*
X33459Y25391D02*
G03*
X33761Y25265I302J302D01*
G01*
X9107Y26796D02*
G03*
X9246Y26460I475J0D01*
G01*
D02*
G03*
X8910Y26599I-336J-336D01*
G01*
X13399Y26796D02*
G03*
X13168Y27353I-789J0D01*
G01*
X13163Y26796D02*
G03*
X12765Y27757I-1359J-0D01*
G01*
X13248Y26958D02*
G03*
X13311Y27126I-88J128D01*
G01*
X13311D02*
G03*
X13440Y26976I222J60D01*
G01*
X13251Y26960D02*
G03*
X13360Y27162I-133J202D01*
G01*
D02*
G03*
X13468Y26960I242J0D01*
G01*
X13082Y27098D02*
G03*
X13340Y26762I535J143D01*
G01*
X15521Y26656D02*
G03*
X15185Y26796I-336J-336D01*
G01*
D02*
G03*
X15521Y26935I0J475D01*
G01*
X16463Y26796D02*
G03*
X16324Y27132I-475J0D01*
G01*
D02*
G03*
X16660Y26993I336J336D01*
G01*
X29156Y31459D02*
G03*
X29459Y31334I302J302D01*
G01*
D02*
G03*
X29156Y31209I0J-428D01*
G01*
X12205Y20226D02*
G03*
X12316Y19958I380J0D01*
G01*
D02*
G03*
X12047Y20069I-269J-269D01*
G01*
X21379Y17697D02*
G03*
X21648Y17585I269J269D01*
G01*
D02*
G03*
X21379Y17474I0J-380D01*
G01*
X15047Y19449D02*
G03*
X15316Y19560I0J380D01*
G01*
D02*
G03*
X15205Y19291I269J-269D01*
G01*
X17203Y31940D02*
G03*
X17329Y32243I-302J302D01*
G01*
D02*
G03*
X17454Y31940I428J0D01*
G01*
X15329Y31992D02*
G03*
X15850Y32208I0J737D01*
G01*
X14329Y31992D02*
G03*
X14631Y32117I0J428D01*
G01*
X14631Y32117D02*
G03*
X14506Y31815I302J-302D01*
G01*
X12152D02*
G03*
X12026Y32117I-428J0D01*
G01*
X12026Y32117D02*
G03*
X12329Y31992I302J302D01*
G01*
X15152Y28815D02*
G03*
X15026Y29117I-428J0D01*
G01*
X15026Y29117D02*
G03*
X15329Y28992I302J302D01*
G01*
X14506Y28815D02*
G03*
X14631Y28513I428J0D01*
G01*
X14631Y28513D02*
G03*
X14329Y28638I-302J-302D01*
G01*
X13270Y28815D02*
G03*
X13498Y28264I779J0D01*
G01*
X13506Y28815D02*
G03*
X13901Y27861I1350J0D01*
G01*
X13443Y28680D02*
G03*
X13329Y28433I209J-247D01*
G01*
D02*
G03*
X13214Y28680I-323J0D01*
G01*
X13564Y28598D02*
G03*
X13358Y28866I-427J-114D01*
G01*
X13712Y28047D02*
G03*
X13240Y28662I-978J-262D01*
G01*
X12454Y28690D02*
G03*
X12329Y28387I302J-302D01*
G01*
D02*
G03*
X12203Y28690I-428J0D01*
G01*
X11454D02*
G03*
X11329Y28387I302J-302D01*
G01*
D02*
G03*
X11203Y28690I-428J0D01*
G01*
X8249Y29954D02*
G03*
X8585Y29815I336J336D01*
G01*
D02*
G03*
X8249Y29676I0J-475D01*
G01*
X19935Y24990D02*
G03*
X20245Y24861I311J311D01*
G01*
D02*
G03*
X19935Y24733I0J-439D01*
G01*
Y26974D02*
G03*
X20245Y26846I311J311D01*
G01*
D02*
G03*
X19935Y26717I0J-439D01*
G01*
X5514Y34476D02*
G03*
X5639Y34174I428J0D01*
G01*
X5639Y34174D02*
G03*
X5337Y34299I-302J-302D01*
G01*
X32612Y29406D02*
G03*
X32723Y29675I-269J269D01*
G01*
D02*
G03*
X32835Y29406I380J0D01*
G01*
X11936Y23855D02*
G03*
X11667Y23967I-269J-269D01*
G01*
D02*
G03*
X11936Y24078I0J380D01*
G01*
X33626Y29406D02*
G03*
X33737Y29675I-269J269D01*
G01*
D02*
G03*
X33849Y29406I380J0D01*
G01*
X14890Y23032D02*
G03*
X14778Y23300I-380J0D01*
G01*
D02*
G03*
X15047Y23189I269J269D01*
G01*
X7545Y22754D02*
G03*
X7848Y22879I0J428D01*
G01*
X7848Y22879D02*
G03*
X7722Y22577I302J-302D01*
G01*
X7545Y22400D02*
G03*
X7243Y22274I0J-428D01*
G01*
X7243Y22274D02*
G03*
X7368Y22577I-302J302D01*
G01*
X7545Y21754D02*
G03*
X7848Y21879I0J428D01*
G01*
X7848Y21879D02*
G03*
X7722Y21577I302J-302D01*
G01*
X7545Y21400D02*
G03*
X7243Y21274I0J-428D01*
G01*
X7243Y21274D02*
G03*
X7368Y21577I-302J302D01*
G01*
X10722Y22577D02*
G03*
X10848Y22274I428J0D01*
G01*
X10848Y22274D02*
G03*
X10545Y22400I-302J-302D01*
G01*
X5695Y22413D02*
G03*
X6166Y22218I470J470D01*
G01*
D02*
G03*
X5695Y22023I0J-665D01*
G01*
X4514Y22614D02*
G03*
X4319Y22143I470J-470D01*
G01*
D02*
G03*
X4124Y22614I-665J0D01*
G01*
X11936Y21985D02*
G03*
X11667Y22096I-269J-269D01*
G01*
D02*
G03*
X11936Y22208I0J380D01*
G01*
X19855Y35775D02*
G03*
X20124Y35663I269J269D01*
G01*
D02*
G03*
X19855Y35552I0J-380D01*
G01*
X24610Y22299D02*
G03*
X24308Y22174I0J-428D01*
G01*
X24308Y22174D02*
G03*
X24433Y22476I-302J302D01*
G01*
X24787Y23476D02*
G03*
X24913Y23174I428J0D01*
G01*
X24913Y23174D02*
G03*
X24610Y23299I-302J-302D01*
G01*
X24485Y23351D02*
G03*
X24183Y23476I-302J-302D01*
G01*
D02*
G03*
X24485Y23602I0J428D01*
G01*
X24610Y24654D02*
G03*
X24913Y24779I0J428D01*
G01*
X24913Y24779D02*
G03*
X24787Y24476I302J-302D01*
G01*
X24485Y24351D02*
G03*
X24183Y24476I-302J-302D01*
G01*
D02*
G03*
X24485Y24602I0J428D01*
G01*
X24568Y25435D02*
G03*
X25121Y25206I553J553D01*
G01*
X24736Y25602D02*
G03*
X25692Y25206I956J956D01*
G01*
X25256Y25301D02*
G03*
X24690Y25318I-299J-518D01*
G01*
X24787Y25482D02*
G03*
X24947Y25216I320J11D01*
G01*
X24833Y25282D02*
G03*
X24656Y25305I-116J-202D01*
G01*
X24610Y31299D02*
G03*
X24308Y31174I0J-428D01*
G01*
X24308Y31174D02*
G03*
X24433Y31476I-302J302D01*
G01*
X24485Y33351D02*
G03*
X24183Y33476I-302J-302D01*
G01*
D02*
G03*
X24485Y33602I0J428D01*
G01*
X24610Y35299D02*
G03*
X24308Y35174I0J-428D01*
G01*
X24308Y35174D02*
G03*
X24433Y35476I-302J302D01*
G01*
X20945Y26378D02*
G03*
X21485Y26602I0J764D01*
G01*
X21610Y27299D02*
G03*
X21308Y27174I0J-428D01*
G01*
X21308Y27174D02*
G03*
X21433Y27476I-302J302D01*
G01*
Y29476D02*
G03*
X21308Y29779I-428J0D01*
G01*
X21308Y29779D02*
G03*
X21610Y29654I302J302D01*
G01*
Y30654D02*
G03*
X21913Y30779I0J428D01*
G01*
X21913Y30779D02*
G03*
X21787Y30476I302J-302D01*
G01*
X21610Y31654D02*
G03*
X21913Y31779I0J428D01*
G01*
X21913Y31779D02*
G03*
X21787Y31476I302J-302D01*
G01*
X21485Y32351D02*
G03*
X21183Y32476I-302J-302D01*
G01*
D02*
G03*
X21485Y32602I0J428D01*
G01*
X21433Y33476D02*
G03*
X21237Y33950I-670J0D01*
G01*
X21662Y34504D02*
G03*
X21405Y34708I-364J-194D01*
G01*
X20982Y34914D02*
G03*
X21610Y34654I628J628D01*
G01*
Y35654D02*
G03*
X21913Y35779I0J428D01*
G01*
X21913Y35779D02*
G03*
X21787Y35476I302J-302D01*
G01*
X21485Y35351D02*
G03*
X21002Y35551I-483J-483D01*
G01*
X28116Y36270D02*
G03*
X27880Y36841I-808J0D01*
G01*
X28022Y36698D02*
G03*
X28392Y36545I370J370D01*
G01*
X27996Y36719D02*
G03*
X28402Y36308I564J151D01*
G01*
X12316Y18087D02*
G03*
X12047Y18199I-269J-269D01*
G01*
X12205Y18356D02*
G03*
X12316Y18087I380J0D01*
G01*
X33333Y17574D02*
G03*
X33636Y17699I0J428D01*
G01*
Y17449D02*
G03*
X33333Y17574I-302J-302D01*
G01*
X28042Y17157D02*
G03*
X27931Y17426I-380J0D01*
G01*
X28153D02*
G03*
X28042Y17157I269J-269D01*
G01*
X26425Y24306D02*
G03*
X26122Y24181I0J-428D01*
G01*
Y24431D02*
G03*
X26425Y24306I302J302D01*
G01*
X24219Y20269D02*
G03*
X23950Y20380I-269J-269D01*
G01*
X24107Y20537D02*
G03*
X24219Y20269I380J0D01*
G01*
X24383Y18201D02*
G03*
X24107Y17537I664J-664D01*
G01*
X33459Y21029D02*
G03*
X33584Y21331I-302J302D01*
G01*
X33761Y21154D02*
G03*
X33459Y21029I0J-428D01*
G01*
X24973Y17918D02*
G03*
X25084Y17649I380J0D01*
G01*
X24862D02*
G03*
X24973Y17918I-269J269D01*
G01*
X29459Y27320D02*
G03*
X29156Y27195I0J-428D01*
G01*
Y27445D02*
G03*
X29459Y27320I302J302D01*
G01*
X25727Y20806D02*
G03*
X25996Y20695I269J269D01*
G01*
X25839Y20537D02*
G03*
X25727Y20806I-380J0D01*
G01*
X28691Y14055D02*
G03*
X29689Y13642I998J998D01*
G01*
X29094Y13652D02*
G03*
X29689Y13406I595J595D01*
G01*
X31358Y5492D02*
G03*
X31106Y5350I0J-295D01*
G01*
Y5635D02*
G03*
X31358Y5492I252J152D01*
G01*
X30870Y6161D02*
G03*
X32846Y6980I0J2794D01*
G01*
X30870Y5925D02*
G03*
X32443Y6577I0J2224D01*
G01*
X30870Y5689D02*
G03*
X32040Y6173I0J1654D01*
G01*
X30870Y5453D02*
G03*
X31636Y5770I0J1084D01*
G01*
X31535Y7658D02*
G03*
X31065Y7463I0J-665D01*
G01*
Y7852D02*
G03*
X31535Y7658I470J470D01*
G01*
X33459Y25391D02*
G03*
X33761Y25265I302J302D01*
G01*
X33584Y25088D02*
G03*
X33459Y25391I-428J0D01*
G01*
X9246Y26460D02*
G03*
X8910Y26599I-336J-336D01*
G01*
X9107Y26796D02*
G03*
X9246Y26460I475J0D01*
G01*
X13360Y27162D02*
G03*
X13468Y26960I242J0D01*
G01*
X13251D02*
G03*
X13360Y27162I-133J202D01*
G01*
X13163Y26796D02*
G03*
X12765Y27757I-1359J-0D01*
G01*
X13399Y26796D02*
G03*
X13168Y27353I-789J0D01*
G01*
X15185Y26796D02*
G03*
X15521Y26935I0J475D01*
G01*
Y26656D02*
G03*
X15185Y26796I-336J-336D01*
G01*
X16324Y27132D02*
G03*
X16660Y26993I336J336D01*
G01*
X16463Y26796D02*
G03*
X16324Y27132I-475J0D01*
G01*
X29459Y31334D02*
G03*
X29156Y31209I0J-428D01*
G01*
Y31459D02*
G03*
X29459Y31334I302J302D01*
G01*
X12316Y19958D02*
G03*
X12047Y20069I-269J-269D01*
G01*
X12205Y20226D02*
G03*
X12316Y19958I380J0D01*
G01*
X21648Y17585D02*
G03*
X21379Y17474I0J-380D01*
G01*
Y17697D02*
G03*
X21648Y17585I269J269D01*
G01*
X15316Y19560D02*
G03*
X15205Y19291I269J-269D01*
G01*
X15047Y19449D02*
G03*
X15316Y19560I0J380D01*
G01*
X17329Y32243D02*
G03*
X17454Y31940I428J0D01*
G01*
X17203D02*
G03*
X17329Y32243I-302J302D01*
G01*
X15329Y31992D02*
G03*
X15850Y32208I0J737D01*
G01*
X14631Y32117D02*
G03*
X14506Y31815I302J-302D01*
G01*
X14329Y31992D02*
G03*
X14631Y32117I0J428D01*
G01*
X12026D02*
G03*
X12329Y31992I302J302D01*
G01*
X12152Y31815D02*
G03*
X12026Y32117I-428J0D01*
G01*
X15026Y29117D02*
G03*
X15329Y28992I302J302D01*
G01*
X15152Y28815D02*
G03*
X15026Y29117I-428J0D01*
G01*
X14631Y28513D02*
G03*
X14329Y28638I-302J-302D01*
G01*
X14506Y28815D02*
G03*
X14631Y28513I428J0D01*
G01*
X13329Y28433D02*
G03*
X13214Y28680I-323J0D01*
G01*
X13443D02*
G03*
X13329Y28433I209J-247D01*
G01*
X13506Y28815D02*
G03*
X13901Y27861I1350J0D01*
G01*
X13270Y28815D02*
G03*
X13498Y28264I779J0D01*
G01*
X12329Y28387D02*
G03*
X12203Y28690I-428J0D01*
G01*
X12454D02*
G03*
X12329Y28387I302J-302D01*
G01*
X11329D02*
G03*
X11203Y28690I-428J0D01*
G01*
X11454D02*
G03*
X11329Y28387I302J-302D01*
G01*
X8585Y29815D02*
G03*
X8249Y29676I0J-475D01*
G01*
Y29954D02*
G03*
X8585Y29815I336J336D01*
G01*
X20245Y24861D02*
G03*
X19935Y24733I0J-439D01*
G01*
Y24990D02*
G03*
X20245Y24861I311J311D01*
G01*
Y26846D02*
G03*
X19935Y26717I0J-439D01*
G01*
Y26974D02*
G03*
X20245Y26846I311J311D01*
G01*
X5639Y34174D02*
G03*
X5337Y34299I-302J-302D01*
G01*
X5514Y34476D02*
G03*
X5639Y34174I428J0D01*
G01*
X32723Y29675D02*
G03*
X32835Y29406I380J0D01*
G01*
X32612D02*
G03*
X32723Y29675I-269J269D01*
G01*
X11667Y23967D02*
G03*
X11936Y24078I0J380D01*
G01*
Y23855D02*
G03*
X11667Y23967I-269J-269D01*
G01*
X33737Y29675D02*
G03*
X33849Y29406I380J0D01*
G01*
X33626D02*
G03*
X33737Y29675I-269J269D01*
G01*
X14778Y23300D02*
G03*
X15047Y23189I269J269D01*
G01*
X14890Y23032D02*
G03*
X14778Y23300I-380J0D01*
G01*
X7243Y22274D02*
G03*
X7368Y22577I-302J302D01*
G01*
X7545Y22400D02*
G03*
X7243Y22274I0J-428D01*
G01*
X7848Y22879D02*
G03*
X7722Y22577I302J-302D01*
G01*
X7545Y22754D02*
G03*
X7848Y22879I0J428D01*
G01*
X7243Y21274D02*
G03*
X7368Y21577I-302J302D01*
G01*
X7545Y21400D02*
G03*
X7243Y21274I0J-428D01*
G01*
X7848Y21879D02*
G03*
X7722Y21577I302J-302D01*
G01*
X7545Y21754D02*
G03*
X7848Y21879I0J428D01*
G01*
X10848Y22274D02*
G03*
X10545Y22400I-302J-302D01*
G01*
X10722Y22577D02*
G03*
X10848Y22274I428J0D01*
G01*
X6166Y22218D02*
G03*
X5695Y22023I0J-665D01*
G01*
Y22413D02*
G03*
X6166Y22218I470J470D01*
G01*
X4319Y22143D02*
G03*
X4124Y22614I-665J0D01*
G01*
X4514D02*
G03*
X4319Y22143I470J-470D01*
G01*
X11667Y22096D02*
G03*
X11936Y22208I0J380D01*
G01*
Y21985D02*
G03*
X11667Y22096I-269J-269D01*
G01*
X20124Y35663D02*
G03*
X19855Y35552I0J-380D01*
G01*
Y35775D02*
G03*
X20124Y35663I269J269D01*
G01*
X24308Y22174D02*
G03*
X24433Y22476I-302J302D01*
G01*
X24610Y22299D02*
G03*
X24308Y22174I0J-428D01*
G01*
X24183Y23476D02*
G03*
X24485Y23602I0J428D01*
G01*
Y23351D02*
G03*
X24183Y23476I-302J-302D01*
G01*
X24913Y23174D02*
G03*
X24610Y23299I-302J-302D01*
G01*
X24787Y23476D02*
G03*
X24913Y23174I428J0D01*
G01*
X24183Y24476D02*
G03*
X24485Y24602I0J428D01*
G01*
Y24351D02*
G03*
X24183Y24476I-302J-302D01*
G01*
X24913Y24779D02*
G03*
X24787Y24476I302J-302D01*
G01*
X24610Y24654D02*
G03*
X24913Y24779I0J428D01*
G01*
X24736Y25602D02*
G03*
X25692Y25206I956J956D01*
G01*
X24568Y25435D02*
G03*
X25121Y25206I553J553D01*
G01*
X24308Y31174D02*
G03*
X24433Y31476I-302J302D01*
G01*
X24610Y31299D02*
G03*
X24308Y31174I0J-428D01*
G01*
X24183Y33476D02*
G03*
X24485Y33602I0J428D01*
G01*
Y33351D02*
G03*
X24183Y33476I-302J-302D01*
G01*
X24308Y35174D02*
G03*
X24433Y35476I-302J302D01*
G01*
X24610Y35299D02*
G03*
X24308Y35174I0J-428D01*
G01*
X20945Y26378D02*
G03*
X21485Y26602I0J764D01*
G01*
X21308Y27174D02*
G03*
X21433Y27476I-302J302D01*
G01*
X21610Y27299D02*
G03*
X21308Y27174I0J-428D01*
G01*
Y29779D02*
G03*
X21610Y29654I302J302D01*
G01*
X21433Y29476D02*
G03*
X21308Y29779I-428J0D01*
G01*
X21913Y30779D02*
G03*
X21787Y30476I302J-302D01*
G01*
X21610Y30654D02*
G03*
X21913Y30779I0J428D01*
G01*
X21913Y31779D02*
G03*
X21787Y31476I302J-302D01*
G01*
X21610Y31654D02*
G03*
X21913Y31779I0J428D01*
G01*
X21183Y32476D02*
G03*
X21485Y32602I0J428D01*
G01*
Y32351D02*
G03*
X21183Y32476I-302J-302D01*
G01*
X21433Y33476D02*
G03*
X21237Y33950I-670J0D01*
G01*
X20982Y34914D02*
G03*
X21610Y34654I628J628D01*
G01*
X21485Y35351D02*
G03*
X21002Y35551I-483J-483D01*
G01*
X21913Y35779D02*
G03*
X21787Y35476I302J-302D01*
G01*
X21610Y35654D02*
G03*
X21913Y35779I0J428D01*
G01*
X28022Y36698D02*
G03*
X28392Y36545I370J370D01*
G01*
X28116Y36270D02*
G03*
X27880Y36841I-808J0D01*
G01*
X29027Y21128D02*
G03*
X28715Y20999I0J-441D01*
G01*
X19926Y34001D02*
G03*
X19630Y34124I-296J-296D01*
G01*
X23492Y33333D02*
G03*
X23331Y32943I390J-390D01*
G01*
X18376Y28886D02*
G03*
X18646Y28233I923J0D01*
G01*
X11416Y26297D02*
G03*
X11191Y26391I-225J-225D01*
G01*
X11323Y26523D02*
G03*
X11416Y26297I318J0D01*
G01*
X22593Y24838D02*
G03*
X22313Y24161I677J-677D01*
G01*
X22426Y25005D02*
G03*
X22313Y24732I273J-273D01*
G01*
X23435Y34301D02*
G03*
X23342Y34076I225J-225D01*
G01*
X23210Y34208D02*
G03*
X23435Y34301I0J318D01*
G01*
X21001Y20974D02*
G03*
X21226Y21067I0J318D01*
G01*
Y20881D02*
G03*
X21001Y20974I-225J-225D01*
G01*
X18048D02*
G03*
X17823Y20881I0J-318D01*
G01*
Y21067D02*
G03*
X18048Y20974I225J225D01*
G01*
X24101Y21967D02*
G03*
X23922Y21534I433J-433D01*
G01*
X27724Y24306D02*
G03*
X27949Y24399I0J318D01*
G01*
Y24213D02*
G03*
X27724Y24306I-225J-225D01*
G01*
X32015Y19319D02*
G03*
X32240Y19226I225J225D01*
G01*
X32108Y19094D02*
G03*
X32015Y19319I-318J0D01*
G01*
X14891Y17624D02*
G03*
X15116Y17717I0J318D01*
G01*
Y17531D02*
G03*
X14891Y17624I-225J-225D01*
G01*
X17900Y25505D02*
G03*
X17806Y25731I-318J0D01*
G01*
X17993D02*
G03*
X17900Y25505I225J-225D01*
G01*
X22505Y29371D02*
G03*
X22412Y29146I225J-225D01*
G01*
X22280Y29278D02*
G03*
X22505Y29371I0J318D01*
G01*
X18153Y21930D02*
G03*
X18377Y22026I-4J318D01*
G01*
X18379Y21839D02*
G03*
X18153Y21930I-222J-228D01*
G01*
X26510Y17715D02*
G03*
X26416Y17941I-318J0D01*
G01*
X26603D02*
G03*
X26510Y17715I225J-225D01*
G01*
X27530D02*
G03*
X27436Y17941I-318J0D01*
G01*
X27623D02*
G03*
X27530Y17715I225J-225D01*
G01*
X29235Y19039D02*
G03*
X29142Y18814I225J-225D01*
G01*
X29010Y18946D02*
G03*
X29235Y19039I0J318D01*
G01*
X20165Y18459D02*
G03*
X20258Y18684I-225J225D01*
G01*
X20390Y18552D02*
G03*
X20165Y18459I0J-318D01*
G01*
X20207Y21514D02*
G03*
X19982Y21421I0J-318D01*
G01*
Y21607D02*
G03*
X20207Y21514I225J225D01*
G01*
X26268Y25674D02*
G03*
X26043Y25581I0J-318D01*
G01*
Y25767D02*
G03*
X26268Y25674I225J225D01*
G01*
X27563Y9622D02*
Y10498D01*
X28055Y8701D02*
Y9130D01*
X27563Y9622D02*
X28055Y9130D01*
X27563Y10498D02*
X27622D01*
X24108Y8701D02*
Y9413D01*
X23705Y9817D02*
X24108Y9413D01*
X23705Y9817D02*
Y10498D01*
X22327Y7579D02*
X22805D01*
X19744Y35663D02*
X20580D01*
X8110Y29815D02*
X14329D01*
X15329Y28815D01*
X11280Y32864D02*
X12329Y31815D01*
X6949Y32864D02*
X11280D01*
X5337Y34476D02*
X6949Y32864D01*
X4319Y21984D02*
Y23202D01*
X16122Y27334D02*
X16660Y26796D01*
X15810Y27334D02*
X16122D01*
X14329Y28815D02*
X15810Y27334D01*
X24610Y25476D02*
X24881Y25206D01*
X26847D01*
X27328Y25687D01*
X29129D01*
X30206Y26764D01*
X32086D01*
X33761Y25088D01*
X21268Y17585D02*
X22651D01*
X29031Y31334D02*
X30640D01*
X32210Y29764D01*
X24610Y23476D02*
X25300Y22787D01*
X19790Y18084D02*
X20390Y18684D01*
X32783Y17574D02*
X33761D01*
X27530Y17104D02*
Y18034D01*
X26520Y16094D02*
X27530Y17104D01*
X21030Y16094D02*
X26520D01*
X19040Y18084D02*
X21030Y16094D01*
X17680Y21924D02*
X18471Y21934D01*
X11427Y23967D02*
X12047D01*
X10545Y22577D02*
X11026Y22096D01*
X12047D01*
X22280Y29146D02*
X24610Y31476D01*
X33737Y29295D02*
Y30111D01*
X32210Y31638D02*
X33737Y30111D01*
X32210Y31638D02*
Y34034D01*
X12047Y20226D02*
X14650Y17624D01*
X15210D01*
X25997Y24306D02*
X28042D01*
X23790Y21534D02*
Y21656D01*
X24610Y22476D01*
Y24476D02*
X25003Y24869D01*
X29031Y27320D02*
X33714D01*
X17730Y20974D02*
X21320D01*
X23210Y34076D02*
X24610Y35476D01*
X19040Y18084D02*
X19790D01*
X15047Y19291D02*
X16260Y20504D01*
X17680Y21924D01*
X28042Y14704D02*
Y17537D01*
Y14704D02*
X29689Y13057D01*
Y12972D02*
Y13057D01*
X22450Y17084D02*
X22752Y16782D01*
X26510Y17120D02*
Y18034D01*
X26171Y16782D02*
X26510Y17120D01*
X22752Y16782D02*
X26171D01*
X32223Y19793D02*
X33761Y21331D01*
X32016Y19793D02*
X32223D01*
X27873Y18622D02*
X28550Y17946D01*
X24973Y17537D02*
Y17945D01*
X25650Y18622D01*
X27873D01*
X23870Y23476D02*
X24610D01*
X22313Y24931D02*
X22500D01*
X21339Y21880D02*
X22006D01*
X23709Y24476D02*
X24610D01*
X22006Y21880D02*
X22313Y22187D01*
Y24931D01*
X23406Y20713D02*
X23756Y21063D01*
X25470D01*
X25996Y20537D01*
X23406Y19911D02*
Y20713D01*
Y19911D02*
X23858Y19459D01*
X23950Y20537D02*
X24625Y19862D01*
X28348D01*
X20748Y22470D02*
X21339Y21880D01*
X17900Y25073D02*
Y25824D01*
X20748Y22470D02*
Y23455D01*
X17900Y25073D02*
X18819Y24154D01*
X20049D01*
X20748Y23455D01*
X17346Y18084D02*
X19040D01*
X20522Y17303D02*
X20741Y17084D01*
X22450D01*
X20522Y17303D02*
Y17864D01*
X20741Y18084D01*
X21903D01*
X22047Y18228D01*
X16260Y20504D02*
X21209D01*
X22047Y19665D01*
Y18228D02*
Y19665D01*
X4319Y21984D02*
X5181Y21122D01*
X7091D01*
X7545Y21577D01*
X5500Y22218D02*
X7187D01*
X7545Y22577D01*
X30870Y5492D02*
X31358D01*
X30870Y7658D02*
X31555D01*
X31358Y5492D02*
X32992Y7126D01*
X31555Y7658D02*
X32392Y8494D01*
X32992Y7126D02*
Y14469D01*
X32392Y8494D02*
Y14508D01*
X31289Y15610D02*
X32392Y14508D01*
X30344Y15955D02*
X31506D01*
X32992Y14469D01*
X29941Y16339D02*
Y17963D01*
Y16339D02*
X30335Y15945D01*
X30538Y15609D02*
X30540Y15610D01*
X31289D01*
X30139Y15609D02*
X30538D01*
X30335Y15945D02*
X30344Y15955D01*
X29537Y16211D02*
X30139Y15609D01*
X29537Y16211D02*
Y16762D01*
X29256Y17044D02*
X29537Y16762D01*
X28550Y17267D02*
Y17946D01*
Y17267D02*
X28773Y17044D01*
X29256D01*
X29655Y18248D02*
X29941Y17963D01*
X27992Y19075D02*
X28819Y18248D01*
X29655D01*
X23950Y17537D02*
Y17769D01*
X25256Y19075D01*
X27992D01*
X28348Y19862D02*
X28543Y20057D01*
Y20827D01*
X28880Y21164D01*
X25300Y21905D02*
Y22787D01*
X33714Y27320D02*
X34606Y26427D01*
Y23986D02*
Y26427D01*
X30207Y28947D02*
X30360Y28794D01*
X26750Y27744D02*
X27953Y28947D01*
X30207D01*
X32210Y28991D02*
Y29764D01*
X32012Y28794D02*
X32210Y28991D01*
X30360Y28794D02*
X32012D01*
X30350Y32436D02*
Y34014D01*
Y32436D02*
X32723Y30062D01*
Y29295D02*
Y30062D01*
X31273Y34970D02*
X32210Y34034D01*
X29865Y34498D02*
X30350Y34014D01*
X26791Y34970D02*
X31273D01*
X25276Y36486D02*
X26791Y34970D01*
X23652Y36083D02*
X25079D01*
X26663Y34498D01*
X29865D01*
X22651Y17585D02*
X23041Y17975D01*
Y22648D01*
X23870Y23476D01*
X22687Y23455D02*
X23709Y24476D01*
X19889Y21514D02*
X22272D01*
X22687Y21929D01*
Y23455D01*
X20373Y24861D02*
X20600Y25089D01*
X19606Y24861D02*
X20373D01*
X20600Y25089D02*
Y26132D01*
X20846Y26378D01*
X21512D01*
X21610Y26476D01*
X19606Y26846D02*
X20320D01*
X20581Y27106D01*
X21240D01*
X21610Y27476D01*
X7545Y22577D02*
X10380Y25412D01*
X12667D01*
X15047Y23032D01*
X11513Y26201D02*
X17527D01*
X11191Y26523D02*
X11513Y26201D01*
X10620Y26644D02*
Y27057D01*
X8910Y26796D02*
X9465Y26240D01*
X10217D01*
X10620Y26644D01*
X11329Y27766D02*
Y28815D01*
X10620Y27057D02*
X11329Y27766D01*
X21419Y34476D02*
X21610D01*
X17329Y31815D02*
Y32752D01*
X15329Y31815D02*
X15457D01*
X20626Y32476D02*
X21610D01*
X17527Y26201D02*
X17923Y26597D01*
Y29774D01*
X20626Y32476D01*
X18376Y28317D02*
X18553Y28140D01*
X18376Y28317D02*
Y29341D01*
X19045Y30010D01*
X21077D01*
X21610Y29476D01*
X7545Y21577D02*
X10211Y24242D01*
X11151D01*
X11427Y23967D01*
X12047Y18356D02*
X13307Y17096D01*
X16358D01*
X17346Y18084D01*
X21610Y35476D02*
X23004Y36870D01*
X24252D01*
X24478Y37096D01*
X27624D01*
X28392Y36329D01*
X23327Y36486D02*
X25276D01*
X21610Y31476D02*
X22283Y32150D01*
Y35443D01*
X23327Y36486D01*
X12329Y28193D02*
Y28815D01*
Y28193D02*
X13360Y27162D01*
Y26796D02*
Y27162D01*
X14966Y26796D02*
X15660D01*
X13329Y28433D02*
X14966Y26796D01*
X13329Y28433D02*
Y28815D01*
X23635Y33476D02*
X24610D01*
X23199Y33040D02*
X23635Y33476D01*
X23199Y32943D02*
Y33040D01*
X21610Y30476D02*
X22697Y31563D01*
Y35128D01*
X23652Y36083D01*
X14329Y31815D02*
X17622Y35108D01*
X20787D01*
X21419Y34476D01*
X20580Y35663D02*
X20692Y35551D01*
X21535D01*
X21610Y35476D01*
X15457Y31815D02*
X18228Y34587D01*
X20600D01*
X21610Y33577D01*
Y33476D02*
Y33577D01*
X17329Y32752D02*
X18701Y34124D01*
X20108D01*
X26750Y25913D02*
Y27744D01*
X26510Y25674D02*
X26750Y25913D01*
X25950Y25674D02*
X26510D01*
X28880Y21164D02*
X29050D01*
X29027Y21186D02*
X29050Y21164D01*
X29027Y21186D02*
Y21260D01*
X29793Y20434D02*
Y21156D01*
X29221Y21728D02*
X29793Y21156D01*
X25300Y21905D02*
X25477Y21728D01*
X29221D01*
X29010Y18814D02*
X29320Y19124D01*
X31233D01*
X32783Y17574D01*
X23858Y19459D02*
X29179D01*
X29181Y19460D01*
X29793Y20434D02*
X30431Y19796D01*
X32013D01*
X29181Y19460D02*
X31873D01*
X32240Y19094D01*
X32013Y19796D02*
X32016Y19793D01*
X33809Y23189D02*
X34606Y23986D01*
X30100Y23719D02*
X30630Y23189D01*
X33809D01*
X25003Y24869D02*
X29491D01*
X30100Y24261D01*
Y23719D02*
Y24261D01*
D12*
X26394Y5446D02*
G03*
X26446Y5028I522J-147D01*
G01*
X25843Y5656D02*
G03*
X25873Y5504I130J-52D01*
G01*
X26391Y5436D02*
G03*
X26506Y4872I485J-195D01*
G01*
X26394Y5446D02*
G03*
X26446Y5028I522J-147D01*
G01*
X26506Y4736D02*
G03*
X26230Y5403I-943J0D01*
G01*
X26506Y4837D02*
G03*
X26238Y5396I-715J0D01*
G01*
X20260Y4216D02*
G03*
X20064Y3834I363J-429D01*
G01*
X20561Y3996D02*
G03*
X20681Y4379I-306J306D01*
G01*
X19764Y3199D02*
G03*
X20100Y4274I-859J859D01*
G01*
X5464Y1429D02*
G03*
X5824Y1280I360J360D01*
G01*
X5128Y1289D02*
G03*
X4891Y1861I-808J0D01*
G01*
X11604Y12732D02*
G03*
X11762Y12351I539J0D01*
G01*
X8993Y14878D02*
G03*
X10457Y15485I0J2070D01*
G01*
X10518Y15254D02*
G03*
X9921Y15176I-204J-760D01*
G01*
X10518Y15254D02*
G03*
X9921Y15176I-204J-760D01*
G01*
X10111Y15254D02*
G03*
X10431Y15450I0J360D01*
G01*
X22615Y8044D02*
G03*
X23739Y7579I1124J1124D01*
G01*
X12511Y16346D02*
G03*
X11594Y16726I-917J-917D01*
G01*
X25843Y5656D02*
G03*
X25873Y5504I130J-52D01*
G01*
X26391Y5436D02*
G03*
X26506Y4872I485J-195D01*
G01*
X26394Y5446D02*
G03*
X26446Y5028I522J-147D01*
G01*
X26506Y4736D02*
G03*
X26230Y5403I-943J0D01*
G01*
X26506Y4837D02*
G03*
X26238Y5396I-715J0D01*
G01*
X20561Y3996D02*
G03*
X20681Y4379I-306J306D01*
G01*
X19764Y3199D02*
G03*
X20100Y4274I-859J859D01*
G01*
X5464Y1429D02*
G03*
X5824Y1280I360J360D01*
G01*
X5128Y1289D02*
G03*
X4891Y1861I-808J0D01*
G01*
X11604Y12732D02*
G03*
X11762Y12351I539J0D01*
G01*
X8993Y14878D02*
G03*
X10457Y15485I0J2070D01*
G01*
X10518Y15254D02*
G03*
X9921Y15176I-204J-760D01*
G01*
X22615Y8044D02*
G03*
X23739Y7579I1124J1124D01*
G01*
X12511Y16346D02*
G03*
X11594Y16726I-917J-917D01*
G01*
X26506Y4837D02*
G03*
X26238Y5396I-715J0D01*
G01*
X26506Y4736D02*
G03*
X26230Y5403I-943J0D01*
G01*
X26391Y5436D02*
G03*
X26506Y4872I485J-195D01*
G01*
X20568Y4003D02*
G03*
X20689Y4312I-291J291D01*
G01*
X8993Y14878D02*
G03*
X10457Y15485I0J2070D01*
G01*
X11734Y8547D02*
Y12165D01*
X17697Y3199D02*
X19764D01*
X17136Y3760D02*
X17697Y3199D01*
X11772Y1171D02*
X24754D01*
X10758Y2185D02*
X11772Y1171D01*
X24754D02*
X26506Y2923D01*
X19764Y3199D02*
X20669Y4104D01*
X11734Y6376D02*
X11880Y6230D01*
X11734Y6376D02*
Y8386D01*
X11604Y15439D02*
X12553Y16388D01*
X11604Y12295D02*
Y15439D01*
Y12295D02*
X11734Y12165D01*
X5325Y3289D02*
X7213Y5177D01*
X10827D02*
X11880Y6230D01*
X7213Y5177D02*
X10827D01*
X11880Y6230D02*
X14902D01*
X7365Y12296D02*
Y14878D01*
X644Y5575D02*
X7365Y12296D01*
X644Y4242D02*
Y5575D01*
X3504Y3248D02*
X5325Y1427D01*
X1638Y3248D02*
X3504D01*
X644Y4242D02*
X1638Y3248D01*
X7305Y2185D02*
X10758D01*
X6400Y1280D02*
X7305Y2185D01*
X5325Y1289D02*
Y1427D01*
X4372Y4242D02*
X5325Y3289D01*
X2644Y4242D02*
X4372D01*
X5217Y1280D02*
X6400D01*
X26506Y2923D02*
Y4872D01*
X22805Y7579D02*
X24108D01*
X12215Y16726D02*
X12553Y16388D01*
X10554Y16726D02*
X12215D01*
X20591Y4291D02*
X22756D01*
X7365Y14878D02*
X10045D01*
X10554Y15387D01*
X25906Y5472D02*
X26506Y4872D01*
X15472Y6211D02*
X16240D01*
X17136Y5315D01*
Y3760D02*
Y5315D01*
X7365Y14878D02*
Y17556D01*
X6250Y18671D02*
X7365Y17556D01*
X2077Y19990D02*
Y29498D01*
Y19990D02*
X3396Y18671D01*
X6250D01*
D14*
X15068Y18432D02*
G03*
X15409Y18477I116J434D01*
G01*
X15784Y18583D02*
G03*
X15103Y18301I0J-963D01*
G01*
X15068Y18432D02*
G03*
X15409Y18477I116J434D01*
G01*
X28961Y22236D02*
G03*
X28515Y22421I-447J-447D01*
G01*
X28726Y22372D02*
G03*
X28973Y22385I114J197D01*
G01*
X29116Y22355D02*
G03*
X29457Y22093I487J281D01*
G01*
X29811Y21884D02*
G03*
X29031Y22207I-781J-781D01*
G01*
X29116Y22355D02*
G03*
X29457Y22093I487J281D01*
G01*
X28726Y22372D02*
G03*
X28973Y22385I114J197D01*
G01*
X4119Y5798D02*
G03*
X4390Y6427I-596J629D01*
G01*
D02*
G03*
X4661Y5798I867J0D01*
G01*
X8998Y8445D02*
G03*
X9644Y8713I0J914D01*
G01*
X29940Y21756D02*
G03*
X30727Y21430I788J788D01*
G01*
X30642Y21282D02*
G03*
X30301Y21544I-487J-281D01*
G01*
X30642Y21282D02*
G03*
X30301Y21544I-487J-281D01*
G01*
X8851Y17562D02*
G03*
X9019Y17966I-403J403D01*
G01*
D02*
G03*
X9186Y17562I570J0D01*
G01*
X31083Y24843D02*
G03*
X30727Y24990I-355J-355D01*
G01*
X28637Y30596D02*
G03*
X29031Y30432I394J394D01*
G01*
X15641Y15220D02*
G03*
X15886Y15118I245J245D01*
G01*
X15933D02*
G03*
X15641Y14997I0J-414D01*
G01*
X14956Y13608D02*
G03*
X15342Y13506I282J284D01*
G01*
X15342Y13506D02*
G03*
X15059Y13225I104J-387D01*
G01*
X15468Y13933D02*
G03*
X14679Y13328I336J-1254D01*
G01*
X14679Y13328D02*
G03*
X15616Y13716I0J1325D01*
G01*
X14679Y13722D02*
G03*
X16288Y14388I0J2275D01*
G01*
X13104Y35903D02*
G03*
X13366Y35562I543J146D01*
G01*
X13219Y35476D02*
G03*
X12915Y36209I-1036J-0D01*
G01*
X13104Y35903D02*
G03*
X13366Y35562I543J146D01*
G01*
X8593Y30668D02*
G03*
X8151Y30704I-259J-449D01*
G01*
X8193Y30898D02*
G03*
X8913Y30600I720J720D01*
G01*
X8593Y30668D02*
G03*
X8151Y30704I-259J-449D01*
G01*
X6197Y36108D02*
G03*
X5935Y35476I632J-632D01*
G01*
X5787Y35562D02*
G03*
X6049Y35903I-281J487D01*
G01*
X5787Y35562D02*
G03*
X6049Y35903I-281J487D01*
G01*
X31347Y29416D02*
G03*
X31689Y29371I225J390D01*
G01*
X31653Y29239D02*
G03*
X30981Y29518I-672J-672D01*
G01*
X31347Y29416D02*
G03*
X31689Y29371I225J390D01*
G01*
X29018Y35522D02*
G03*
X29681Y35796I0J937D01*
G01*
X29400Y35522D02*
G03*
X29652Y35739I0J255D01*
G01*
X29722Y35625D02*
G03*
X29311Y35582I-158J-482D01*
G01*
X29733Y35622D02*
G03*
X29400Y35522I-73J-361D01*
G01*
X29722Y35625D02*
G03*
X29311Y35582I-158J-482D01*
G01*
X4458Y30231D02*
G03*
X4898Y30049I440J440D01*
G01*
X4178Y27396D02*
G03*
X3855Y27533I-323J-313D01*
G01*
D02*
G03*
X4178Y27670I0J450D01*
G01*
X4460Y27713D02*
G03*
X4098Y27612I-92J-372D01*
G01*
X4366Y27331D02*
G03*
X3604Y27118I-192J-782D01*
G01*
X4272Y26948D02*
G03*
X3110Y26624I-293J-1193D01*
G01*
X3874Y27514D02*
G03*
X4583Y27398I435J435D01*
G01*
X3487Y27901D02*
G03*
X4407Y27751I564J564D01*
G01*
X3100Y28287D02*
G03*
X4232Y28103I694J694D01*
G01*
X27010Y36329D02*
G03*
X26531Y36130I0J-677D01*
G01*
X15784Y18583D02*
G03*
X15103Y18301I0J-963D01*
G01*
X15068Y18432D02*
G03*
X15409Y18477I116J434D01*
G01*
X28961Y22236D02*
G03*
X28515Y22421I-447J-447D01*
G01*
X29811Y21884D02*
G03*
X29031Y22207I-781J-781D01*
G01*
X29116Y22355D02*
G03*
X29457Y22093I487J281D01*
G01*
X28726Y22372D02*
G03*
X28973Y22385I114J197D01*
G01*
X4119Y5798D02*
G03*
X4390Y6427I-596J629D01*
G01*
D02*
G03*
X4661Y5798I867J0D01*
G01*
X29940Y21756D02*
G03*
X30727Y21430I788J788D01*
G01*
X30642Y21282D02*
G03*
X30301Y21544I-487J-281D01*
G01*
X8851Y17562D02*
G03*
X9019Y17966I-403J403D01*
G01*
D02*
G03*
X9186Y17562I570J0D01*
G01*
X31083Y24843D02*
G03*
X30727Y24990I-355J-355D01*
G01*
X28637Y30596D02*
G03*
X29031Y30432I394J394D01*
G01*
X15641Y15220D02*
G03*
X15886Y15118I245J245D01*
G01*
X15933D02*
G03*
X15641Y14997I0J-414D01*
G01*
X14679Y13328D02*
G03*
X15616Y13716I0J1325D01*
G01*
X14679Y13722D02*
G03*
X16288Y14388I0J2275D01*
G01*
X13219Y35476D02*
G03*
X12915Y36209I-1036J-0D01*
G01*
X13104Y35903D02*
G03*
X13366Y35562I543J146D01*
G01*
X8193Y30898D02*
G03*
X8913Y30600I720J720D01*
G01*
X8593Y30668D02*
G03*
X8151Y30704I-259J-449D01*
G01*
X6197Y36108D02*
G03*
X5935Y35476I632J-632D01*
G01*
X5787Y35562D02*
G03*
X6049Y35903I-281J487D01*
G01*
X31653Y29239D02*
G03*
X30981Y29518I-672J-672D01*
G01*
X31347Y29416D02*
G03*
X31689Y29371I225J390D01*
G01*
X29018Y35522D02*
G03*
X29681Y35796I0J937D01*
G01*
X29400Y35522D02*
G03*
X29652Y35739I0J255D01*
G01*
X29733Y35622D02*
G03*
X29400Y35522I-73J-361D01*
G01*
X29722Y35625D02*
G03*
X29311Y35582I-158J-482D01*
G01*
X4458Y30231D02*
G03*
X4898Y30049I440J440D01*
G01*
X4178Y27396D02*
G03*
X3855Y27533I-323J-313D01*
G01*
D02*
G03*
X4178Y27670I0J450D01*
G01*
X4460Y27713D02*
G03*
X4098Y27612I-92J-372D01*
G01*
X4366Y27331D02*
G03*
X3604Y27118I-192J-782D01*
G01*
X4272Y26948D02*
G03*
X3110Y26624I-293J-1193D01*
G01*
X3874Y27514D02*
G03*
X4583Y27398I435J435D01*
G01*
X3487Y27901D02*
G03*
X4407Y27751I564J564D01*
G01*
X3100Y28287D02*
G03*
X4232Y28103I694J694D01*
G01*
X27010Y36329D02*
G03*
X26531Y36130I0J-677D01*
G01*
X15784Y18583D02*
G03*
X15103Y18301I0J-963D01*
G01*
X29811Y21884D02*
G03*
X29031Y22207I-781J-781D01*
G01*
X28961Y22236D02*
G03*
X28515Y22421I-447J-447D01*
G01*
X29940Y21756D02*
G03*
X30727Y21430I788J788D01*
G01*
X9019Y17966D02*
G03*
X9186Y17562I570J0D01*
G01*
X8851D02*
G03*
X9019Y17966I-403J403D01*
G01*
X31083Y24843D02*
G03*
X30727Y24990I-355J-355D01*
G01*
X28637Y30596D02*
G03*
X29031Y30432I394J394D01*
G01*
X13219Y35476D02*
G03*
X12915Y36209I-1036J-0D01*
G01*
X8193Y30898D02*
G03*
X8913Y30600I720J720D01*
G01*
X6197Y36108D02*
G03*
X5935Y35476I632J-632D01*
G01*
X31653Y29239D02*
G03*
X30981Y29518I-672J-672D01*
G01*
X29733Y35622D02*
G03*
X29400Y35522I-73J-361D01*
G01*
X29400Y35522D02*
G03*
X29652Y35739I0J255D01*
G01*
X29018Y35522D02*
G03*
X29681Y35796I0J937D01*
G01*
X4458Y30231D02*
G03*
X4898Y30049I440J440D01*
G01*
X3855Y27533D02*
G03*
X4178Y27670I0J450D01*
G01*
Y27396D02*
G03*
X3855Y27533I-323J-313D01*
G01*
X4272Y26948D02*
G03*
X3110Y26624I-293J-1193D01*
G01*
X4366Y27331D02*
G03*
X3604Y27118I-192J-782D01*
G01*
X4460Y27713D02*
G03*
X4098Y27612I-92J-372D01*
G01*
X3100Y28287D02*
G03*
X4232Y28103I694J694D01*
G01*
X3487Y27901D02*
G03*
X4407Y27751I564J564D01*
G01*
X3874Y27514D02*
G03*
X4583Y27398I435J435D01*
G01*
X27010Y36329D02*
G03*
X26531Y36130I0J-677D01*
G01*
X6407Y8445D02*
X9557D01*
X9734Y8622D01*
Y12165D01*
X4390Y6427D02*
X6407Y8445D01*
X4390Y5512D02*
Y6427D01*
X9734Y12165D02*
X9734Y12165D01*
X16589Y15118D02*
Y16260D01*
Y14689D02*
Y15118D01*
X15530Y15108D02*
X15539Y15118D01*
X16589D01*
X15228Y13328D02*
X16589Y14689D01*
X29031Y22306D02*
X29390D01*
X30364Y21331D01*
X30727D01*
X15224Y33884D02*
X15817Y34476D01*
X8929Y33884D02*
X15224D01*
X8337Y34476D02*
X8929Y33884D01*
X25300Y28166D02*
Y28764D01*
X24610Y27476D02*
X25300Y28166D01*
X9520Y19291D02*
X12047D01*
X9019Y18790D02*
X9520Y19291D01*
X9019Y17395D02*
Y18790D01*
X24589Y37794D02*
Y38425D01*
X7451Y31815D02*
X10329D01*
X15047Y18356D02*
X15274Y18583D01*
X18268D01*
X19390D02*
X20768Y19961D01*
X18268Y18583D02*
X19390D01*
X12982Y22096D02*
X15047D01*
X12047Y23032D02*
X12982Y22096D01*
X24610Y26476D02*
X25454Y27320D01*
X21610Y28476D02*
X22610D01*
X24610Y26476D01*
X20106Y28996D02*
X20625Y28476D01*
X21610D01*
X4319Y27037D02*
Y27533D01*
X3855D02*
X4019D01*
X4319D01*
X3110Y20108D02*
Y26624D01*
X4019Y27533D01*
X3100Y28287D02*
X3855Y27533D01*
X3100Y28287D02*
Y30285D01*
X3110Y20108D02*
X3829Y19390D01*
X6358D01*
X7545Y20577D01*
X25997Y31334D02*
X27898D01*
X28898Y30334D01*
X29031D01*
X25997Y23306D02*
X26882Y22421D01*
X28915D01*
X29031Y22306D01*
X5837Y35476D02*
Y35748D01*
X13317Y35476D02*
Y35807D01*
X7470Y30815D02*
X8110D01*
X4319Y29698D02*
Y30049D01*
X6705D01*
X7470Y30815D01*
X20106Y22596D02*
Y23162D01*
X15047Y24902D02*
X16337Y23612D01*
X19656D01*
X20106Y23162D01*
X30727Y25088D02*
X30837D01*
X31837Y24088D01*
X33761D01*
X25300Y28764D02*
X26054Y29518D01*
X31486D01*
X31709Y29295D01*
X3100Y30285D02*
X3868Y31053D01*
X6689D01*
X7451Y31815D01*
X8110Y30815D02*
X8324Y30600D01*
X10114D01*
X11329Y31815D01*
X27822Y35522D02*
X29400D01*
X29754Y35876D01*
X26392Y36329D02*
X27015D01*
X27822Y35522D01*
X5837Y35748D02*
X6575Y36486D01*
X12638D01*
X13317Y35807D01*
D15*
X8691Y3878D02*
G03*
X9263Y3642I571J571D01*
G01*
D02*
G03*
X8691Y3405I0J-808D01*
G01*
X10187D02*
G03*
X9615Y3642I-571J-571D01*
G01*
D02*
G03*
X10187Y3878I0J808D01*
G01*
X14498Y3445D02*
G03*
X14763Y2806I903J0D01*
G01*
X14667Y2901D02*
G03*
X14163Y3110I-504J-504D01*
G01*
X13927Y3405D02*
G03*
X13355Y3642I-571J-571D01*
G01*
D02*
G03*
X13927Y3878I0J808D01*
G01*
X12432D02*
G03*
X13003Y3642I571J571D01*
G01*
D02*
G03*
X12432Y3405I0J-808D01*
G01*
X26294Y9498D02*
G03*
X26057Y8926I571J-571D01*
G01*
D02*
G03*
X25820Y9498I-808J0D01*
G01*
X25034Y6580D02*
G03*
X25526Y7766I-1186J1186D01*
G01*
X26491Y8002D02*
G03*
X27513Y7579I1023J1023D01*
G01*
X25820Y8002D02*
G03*
X26057Y8574I-571J571D01*
G01*
D02*
G03*
X26294Y8002I808J0D01*
G01*
X25820Y11743D02*
G03*
X26024Y12233I-490J490D01*
G01*
Y12395D02*
G03*
X26294Y11743I922J0D01*
G01*
X25526Y13474D02*
G03*
X25247Y14146I-950J0D01*
G01*
X25390Y14004D02*
G03*
X25860Y13809I470J470D01*
G01*
X26294Y13238D02*
G03*
X26024Y12586I652J-652D01*
G01*
Y12747D02*
G03*
X25820Y13238I-694J0D01*
G01*
X26491Y13711D02*
G03*
X27005Y13498I514J514D01*
G01*
X27119D02*
G03*
X26491Y13238I0J-889D01*
G01*
X24347Y5893D02*
G03*
X24173Y5472I420J-420D01*
G01*
X21507Y6044D02*
G03*
X21399Y5121I530J-530D01*
G01*
X22140Y6677D02*
G03*
X22002Y5493I679J-679D01*
G01*
X22376Y9498D02*
G03*
X22140Y8926I571J-571D01*
G01*
D02*
G03*
X21903Y9498I-808J0D01*
G01*
Y8002D02*
G03*
X22140Y8574I-571J571D01*
G01*
D02*
G03*
X22376Y8002I808J0D01*
G01*
Y7529D02*
G03*
X22140Y6958I571J-571D01*
G01*
D02*
G03*
X21903Y7529I-808J0D01*
G01*
Y11743D02*
G03*
X22140Y12314I-571J571D01*
G01*
D02*
G03*
X22376Y11743I808J0D01*
G01*
X21706Y13238D02*
G03*
X21135Y13474I-571J-571D01*
G01*
D02*
G03*
X21706Y13711I0J808D01*
G01*
X22376Y13238D02*
G03*
X22140Y12666I571J-571D01*
G01*
D02*
G03*
X21903Y13238I-808J0D01*
G01*
X22573Y13711D02*
G03*
X23088Y13498I514J514D01*
G01*
X23202D02*
G03*
X22573Y13238I0J-889D01*
G01*
X19237Y8437D02*
G03*
X18715Y8653I-522J-522D01*
G01*
X15159Y10205D02*
G03*
X13892Y10730I-1267J-1267D01*
G01*
X14096Y11084D02*
G03*
X14916Y10456I1169J675D01*
G01*
X20326Y13474D02*
G03*
X19571Y13161I0J-1069D01*
G01*
X8691Y3878D02*
G03*
X9263Y3642I571J571D01*
G01*
D02*
G03*
X8691Y3405I0J-808D01*
G01*
X10187D02*
G03*
X9615Y3642I-571J-571D01*
G01*
D02*
G03*
X10187Y3878I0J808D01*
G01*
X14498Y3445D02*
G03*
X14763Y2806I903J0D01*
G01*
X14667Y2901D02*
G03*
X14163Y3110I-504J-504D01*
G01*
X13927Y3405D02*
G03*
X13355Y3642I-571J-571D01*
G01*
D02*
G03*
X13927Y3878I0J808D01*
G01*
X12432D02*
G03*
X13003Y3642I571J571D01*
G01*
D02*
G03*
X12432Y3405I0J-808D01*
G01*
X26294Y9498D02*
G03*
X26057Y8926I571J-571D01*
G01*
D02*
G03*
X25820Y9498I-808J0D01*
G01*
X25034Y6580D02*
G03*
X25526Y7766I-1186J1186D01*
G01*
X26491Y8002D02*
G03*
X27513Y7579I1023J1023D01*
G01*
X25820Y8002D02*
G03*
X26057Y8574I-571J571D01*
G01*
D02*
G03*
X26294Y8002I808J0D01*
G01*
X25820Y11743D02*
G03*
X26024Y12233I-490J490D01*
G01*
Y12395D02*
G03*
X26294Y11743I922J0D01*
G01*
X25526Y13474D02*
G03*
X25247Y14146I-950J0D01*
G01*
X25390Y14004D02*
G03*
X25860Y13809I470J470D01*
G01*
X26294Y13238D02*
G03*
X26024Y12586I652J-652D01*
G01*
Y12747D02*
G03*
X25820Y13238I-694J0D01*
G01*
X26491Y13711D02*
G03*
X27005Y13498I514J514D01*
G01*
X27119D02*
G03*
X26491Y13238I0J-889D01*
G01*
X24347Y5893D02*
G03*
X24173Y5472I420J-420D01*
G01*
X21507Y6044D02*
G03*
X21399Y5121I530J-530D01*
G01*
X22140Y6677D02*
G03*
X22002Y5493I679J-679D01*
G01*
X22376Y9498D02*
G03*
X22140Y8926I571J-571D01*
G01*
D02*
G03*
X21903Y9498I-808J0D01*
G01*
Y8002D02*
G03*
X22140Y8574I-571J571D01*
G01*
D02*
G03*
X22376Y8002I808J0D01*
G01*
Y7529D02*
G03*
X22140Y6958I571J-571D01*
G01*
D02*
G03*
X21903Y7529I-808J0D01*
G01*
Y11743D02*
G03*
X22140Y12314I-571J571D01*
G01*
D02*
G03*
X22376Y11743I808J0D01*
G01*
X21706Y13238D02*
G03*
X21135Y13474I-571J-571D01*
G01*
D02*
G03*
X21706Y13711I0J808D01*
G01*
X22376Y13238D02*
G03*
X22140Y12666I571J-571D01*
G01*
D02*
G03*
X21903Y13238I-808J0D01*
G01*
X22573Y13711D02*
G03*
X23088Y13498I514J514D01*
G01*
X23202D02*
G03*
X22573Y13238I0J-889D01*
G01*
X19237Y8437D02*
G03*
X18715Y8653I-522J-522D01*
G01*
X15159Y10205D02*
G03*
X13892Y10730I-1267J-1267D01*
G01*
X20326Y13474D02*
G03*
X19571Y13161I0J-1069D01*
G01*
X9263Y3642D02*
G03*
X8691Y3405I0J-808D01*
G01*
Y3878D02*
G03*
X9263Y3642I571J571D01*
G01*
X9615D02*
G03*
X10187Y3878I0J808D01*
G01*
Y3405D02*
G03*
X9615Y3642I-571J-571D01*
G01*
X13355D02*
G03*
X13927Y3878I0J808D01*
G01*
Y3405D02*
G03*
X13355Y3642I-571J-571D01*
G01*
X14667Y2901D02*
G03*
X14163Y3110I-504J-504D01*
G01*
X14498Y3445D02*
G03*
X14763Y2806I903J0D01*
G01*
X13003Y3642D02*
G03*
X12432Y3405I0J-808D01*
G01*
Y3878D02*
G03*
X13003Y3642I571J571D01*
G01*
X26244Y7579D02*
X28055D01*
X26024Y11417D02*
Y13417D01*
X25539Y13902D02*
X26024Y13417D01*
X26057Y13474D02*
X26081Y13498D01*
X27622D01*
X22140Y13474D02*
X22163Y13498D01*
X23705D01*
X22140Y7766D02*
X22327Y7579D01*
X19404Y13328D02*
X19550Y13474D01*
X22140D01*
Y7766D02*
Y9734D01*
Y11506D02*
Y13474D01*
X26057Y7766D02*
Y9734D01*
X21575Y5472D02*
Y6112D01*
X22140Y6677D01*
Y7766D01*
X23740Y5472D02*
X23927D01*
X25945Y7490D01*
X17795Y14694D02*
X24699D01*
X17037Y13937D02*
X17795Y14694D01*
X18415Y7559D02*
X19409Y6565D01*
X17805Y7559D02*
X18415D01*
X14398Y10966D02*
X17805Y7559D01*
X18337Y8653D02*
X19354D01*
X19404Y8604D01*
X17037Y9953D02*
X18337Y8653D01*
X19409Y5472D02*
Y6565D01*
X13892Y10966D02*
X14398D01*
X17037Y9953D02*
Y13937D01*
X24699Y14694D02*
X25752Y13641D01*
X8455Y3642D02*
X10423D01*
X12195D02*
X14439D01*
X24921Y3465D02*
Y4291D01*
X14163Y3406D02*
Y3642D01*
X23661Y2205D02*
X24921Y3465D01*
X14163Y3406D02*
X15364Y2205D01*
X23661D01*
D16*
X25900Y27222D02*
G03*
X25664Y27320I-235J-235D01*
G01*
D02*
G03*
X25900Y27417I0J333D01*
G01*
X16317Y35614D02*
G03*
X16552Y35712I0J333D01*
G01*
D02*
G03*
X16455Y35476I235J-235D01*
G01*
X24660Y37946D02*
G03*
X24281Y37452I407J-705D01*
G01*
X24660Y37946D02*
G03*
X24281Y37452I407J-705D01*
G01*
X24362Y37648D02*
G03*
X24453Y38026I-263J263D01*
G01*
X24150Y37356D02*
G03*
X24446Y38069I-714J714D01*
G01*
X14929Y24902D02*
G03*
X14846Y25103I-285J0D01*
G01*
X14846Y25103D02*
G03*
X15047Y25020I202J202D01*
G01*
X7545Y23715D02*
G03*
X7781Y23812I0J333D01*
G01*
D02*
G03*
X7683Y23577I235J-235D01*
G01*
X25900Y27222D02*
G03*
X25664Y27320I-235J-235D01*
G01*
D02*
G03*
X25900Y27417I0J333D01*
G01*
X16317Y35614D02*
G03*
X16552Y35712I0J333D01*
G01*
D02*
G03*
X16455Y35476I235J-235D01*
G01*
X24660Y37946D02*
G03*
X24281Y37452I407J-705D01*
G01*
X24150Y37356D02*
G03*
X24446Y38069I-714J714D01*
G01*
X14929Y24902D02*
G03*
X14846Y25103I-285J0D01*
G01*
X14846Y25103D02*
G03*
X15047Y25020I202J202D01*
G01*
X7545Y23715D02*
G03*
X7781Y23812I0J333D01*
G01*
D02*
G03*
X7683Y23577I235J-235D01*
G01*
X25664Y27320D02*
G03*
X25900Y27417I0J333D01*
G01*
Y27222D02*
G03*
X25664Y27320I-235J-235D01*
G01*
X16552Y35712D02*
G03*
X16455Y35476I235J-235D01*
G01*
X16317Y35614D02*
G03*
X16552Y35712I0J333D01*
G01*
X24150Y37356D02*
G03*
X24446Y38069I-714J714D01*
G01*
X14846Y25103D02*
G03*
X15047Y25020I202J202D01*
G01*
X14929Y24902D02*
G03*
X14846Y25103I-285J0D01*
G01*
X7781Y23812D02*
G03*
X7683Y23577I235J-235D01*
G01*
X7545Y23715D02*
G03*
X7781Y23812I0J333D01*
G01*
X25454Y27320D02*
X25997D01*
X7545Y23577D02*
X9756Y25787D01*
X14161D01*
X15047Y24902D01*
X16317Y35476D02*
X18114Y37274D01*
X24068D01*
X24589Y37794D01*
D19*
X33858Y37795D02*
D03*
Y1575D02*
D03*
X1575D02*
D03*
Y37795D02*
D03*
D20*
X28392Y36270D02*
D03*
X26392D02*
D03*
X2077Y29498D02*
D03*
D21*
X21610Y35476D02*
D03*
X10545Y20577D02*
D03*
D22*
X21610Y34476D02*
D03*
Y33476D02*
D03*
Y32476D02*
D03*
Y31476D02*
D03*
Y30476D02*
D03*
Y29476D02*
D03*
Y28476D02*
D03*
Y27476D02*
D03*
Y26476D02*
D03*
Y25476D02*
D03*
Y24476D02*
D03*
Y23476D02*
D03*
Y22476D02*
D03*
X24610Y35476D02*
D03*
Y34476D02*
D03*
Y33476D02*
D03*
Y32476D02*
D03*
Y31476D02*
D03*
Y30476D02*
D03*
Y29476D02*
D03*
Y28476D02*
D03*
Y27476D02*
D03*
Y26476D02*
D03*
Y25476D02*
D03*
Y24476D02*
D03*
Y23476D02*
D03*
Y22476D02*
D03*
X10545Y21577D02*
D03*
Y22577D02*
D03*
Y23577D02*
D03*
X7545Y20577D02*
D03*
Y21577D02*
D03*
Y22577D02*
D03*
Y23577D02*
D03*
D23*
X19744Y35663D02*
D03*
Y32663D02*
D03*
X15047Y22096D02*
D03*
X12047D02*
D03*
X15047Y23032D02*
D03*
X12047D02*
D03*
X33737Y32295D02*
D03*
Y29295D02*
D03*
X12047Y23967D02*
D03*
X15047D02*
D03*
X32723Y32295D02*
D03*
Y29295D02*
D03*
X31709Y32295D02*
D03*
Y29295D02*
D03*
X15047Y24902D02*
D03*
X12047D02*
D03*
X15047Y21161D02*
D03*
X12047D02*
D03*
X15047Y19291D02*
D03*
X12047D02*
D03*
X21268Y17585D02*
D03*
X18268D02*
D03*
X21268Y16588D02*
D03*
X18268D02*
D03*
X21268Y15591D02*
D03*
X18268D02*
D03*
X21268Y18583D02*
D03*
X18268D02*
D03*
X12047Y20226D02*
D03*
X15047D02*
D03*
X27019Y17537D02*
D03*
Y20537D02*
D03*
X25996Y17537D02*
D03*
Y20537D02*
D03*
X24973Y17537D02*
D03*
Y20537D02*
D03*
X23705Y10498D02*
D03*
Y13498D02*
D03*
X23950Y17537D02*
D03*
Y20537D02*
D03*
X27622Y10498D02*
D03*
Y13498D02*
D03*
X28042Y17537D02*
D03*
Y20537D02*
D03*
X29065D02*
D03*
Y17537D02*
D03*
X15047Y18356D02*
D03*
X12047D02*
D03*
D24*
X4713Y32061D02*
D03*
Y20446D02*
D03*
X30476Y3130D02*
D03*
Y14744D02*
D03*
X16063Y4685D02*
D03*
X27677D02*
D03*
D25*
X4319Y23202D02*
D03*
Y25368D02*
D03*
Y27533D02*
D03*
Y29698D02*
D03*
X5500Y28714D02*
D03*
Y26549D02*
D03*
Y24383D02*
D03*
Y22218D02*
D03*
X30870Y11988D02*
D03*
Y9823D02*
D03*
Y7658D02*
D03*
Y5492D02*
D03*
X29689Y6476D02*
D03*
Y8642D02*
D03*
Y10807D02*
D03*
Y12972D02*
D03*
D26*
X30876Y38189D02*
D03*
Y35876D02*
D03*
Y33563D02*
D03*
X16589Y16260D02*
D03*
D27*
X29754Y38189D02*
D03*
Y35876D02*
D03*
Y33563D02*
D03*
X15467Y16260D02*
D03*
D28*
X20106Y28996D02*
D03*
X19106D02*
D03*
X20106Y22596D02*
D03*
X19106D02*
D03*
X18768Y19961D02*
D03*
X20768D02*
D03*
X9734Y8622D02*
D03*
X11734D02*
D03*
X2644Y4242D02*
D03*
X644D02*
D03*
D29*
X5337Y34476D02*
D03*
X8337D02*
D03*
X5837Y35476D02*
D03*
X6337Y34476D02*
D03*
X7337D02*
D03*
X6837Y35476D02*
D03*
X11329Y28815D02*
D03*
X12329D02*
D03*
X13329D02*
D03*
X14329D02*
D03*
X15329D02*
D03*
X16329D02*
D03*
X17329D02*
D03*
X10329Y31815D02*
D03*
X11329D02*
D03*
X12329D02*
D03*
X13329D02*
D03*
X14329D02*
D03*
X15329D02*
D03*
X16329D02*
D03*
X17329D02*
D03*
X12817Y34476D02*
D03*
X15817D02*
D03*
X13317Y35476D02*
D03*
X13817Y34476D02*
D03*
X14817D02*
D03*
X14317Y35476D02*
D03*
X25997Y30334D02*
D03*
Y31334D02*
D03*
X29031Y30334D02*
D03*
Y31334D02*
D03*
Y32334D02*
D03*
X30727Y24088D02*
D03*
Y25088D02*
D03*
X33761Y24088D02*
D03*
Y25088D02*
D03*
Y26088D02*
D03*
X25997Y26320D02*
D03*
Y27320D02*
D03*
X29031Y26320D02*
D03*
Y27320D02*
D03*
Y28320D02*
D03*
X30727Y20331D02*
D03*
Y21331D02*
D03*
X33761Y20331D02*
D03*
Y21331D02*
D03*
Y22331D02*
D03*
X25997Y22306D02*
D03*
Y23306D02*
D03*
X29031Y22306D02*
D03*
Y23306D02*
D03*
Y24306D02*
D03*
X33761Y18574D02*
D03*
Y17574D02*
D03*
Y16574D02*
D03*
X30727Y17574D02*
D03*
Y16574D02*
D03*
D30*
X8837Y35476D02*
D03*
X16317D02*
D03*
X25997Y32334D02*
D03*
X30727Y26088D02*
D03*
X25997Y28320D02*
D03*
X30727Y22331D02*
D03*
X25997Y24306D02*
D03*
X30727Y18574D02*
D03*
D31*
X7837Y35476D02*
D03*
X15317D02*
D03*
D32*
X9337Y37976D02*
D03*
X4837D02*
D03*
X16817D02*
D03*
X12317D02*
D03*
D33*
X19606Y26846D02*
D03*
D34*
Y24861D02*
D03*
D35*
X20589Y38169D02*
D03*
X21589D02*
D03*
X22589D02*
D03*
X23589D02*
D03*
X25589D02*
D03*
X24589D02*
D03*
X29291Y748D02*
D03*
X30291D02*
D03*
D36*
X8110Y30815D02*
D03*
X16660Y26796D02*
D03*
X13360D02*
D03*
X9910D02*
D03*
D37*
X8110Y29815D02*
D03*
D38*
X10329Y28815D02*
D03*
D39*
X14679Y13328D02*
D03*
X19404D02*
D03*
X14679Y8604D02*
D03*
X13892Y10966D02*
D03*
X19404Y8604D02*
D03*
D40*
X15530Y15108D02*
D03*
X12530D02*
D03*
X14553Y16388D02*
D03*
X12553D02*
D03*
X13553D02*
D03*
D41*
X15660Y26796D02*
D03*
X12360D02*
D03*
X8910D02*
D03*
D42*
X22140Y13474D02*
D03*
Y11506D02*
D03*
Y7766D02*
D03*
Y9734D02*
D03*
X26057Y13474D02*
D03*
Y11506D02*
D03*
Y7766D02*
D03*
Y9734D02*
D03*
D43*
X10554Y16726D02*
D03*
Y18065D02*
D03*
X9019Y16057D02*
D03*
Y17395D02*
D03*
D44*
X10554Y15387D02*
D03*
D45*
X2051Y16732D02*
D03*
D46*
X9734Y12165D02*
D03*
D47*
X11734D02*
D03*
D48*
X5325Y1289D02*
D03*
D49*
Y3289D02*
D03*
D50*
X24921Y4291D02*
D03*
X22756D02*
D03*
X20591D02*
D03*
X18425D02*
D03*
X19409Y5472D02*
D03*
X21575D02*
D03*
X23740D02*
D03*
X25906D02*
D03*
D51*
X24108Y8701D02*
D03*
X28055Y8701D02*
D03*
D52*
X24108Y7579D02*
D03*
X28055Y7579D02*
D03*
D53*
X14902Y6230D02*
D03*
X8986D02*
D03*
Y1171D02*
D03*
X14902D02*
D03*
D54*
X4390Y13386D02*
D03*
Y5512D02*
D03*
D55*
X12195Y3642D02*
D03*
X14163D02*
D03*
X10423D02*
D03*
X8455D02*
D03*
D56*
X25950Y25674D02*
D03*
X19889Y21514D02*
D03*
X20390Y18684D02*
D03*
X29010Y18814D02*
D03*
X27530Y18034D02*
D03*
X26510D02*
D03*
X18471Y21934D02*
D03*
X22280Y29146D02*
D03*
X17900Y25824D02*
D03*
X15210Y17624D02*
D03*
X32240Y19094D02*
D03*
X28042Y24306D02*
D03*
X23790Y21534D02*
D03*
X17730Y20974D02*
D03*
X21320D02*
D03*
X23210Y34076D02*
D03*
X22500Y24931D02*
D03*
X11191Y26523D02*
D03*
X18553Y28140D02*
D03*
X23199Y32943D02*
D03*
X20020Y34094D02*
D03*
X29027Y21260D02*
D03*
D57*
X16605Y16474D02*
G03*
X16882Y16511I94J352D01*
G01*
X16596Y16476D02*
G03*
X16917Y16588I44J388D01*
G01*
X16605Y16474D02*
G03*
X16882Y16511I94J352D01*
G01*
X16917Y16588D02*
G03*
X16649Y16393I0J-281D01*
G01*
X17166Y16588D02*
G03*
X16634Y16367I0J-753D01*
G01*
X16596Y16476D02*
G03*
X16917Y16588I44J388D01*
G01*
X16605Y16474D02*
G03*
X16882Y16511I94J352D01*
G01*
X16917Y16588D02*
G03*
X16649Y16393I0J-281D01*
G01*
X17166Y16588D02*
G03*
X16634Y16367I0J-753D01*
G01*
X17166Y16588D02*
G03*
X16634Y16367I0J-753D01*
G01*
X16917Y16588D02*
G03*
X16649Y16393I0J-281D01*
G01*
X16596Y16476D02*
G03*
X16917Y16588I44J388D01*
G01*
X16589Y16260D02*
X16917Y16588D01*
X18268D01*
M02*
