M48
;Layer_Color=9474304
;FILE_FORMAT=2:4
INCH,LZ
;TYPE=PLATED
T1F00S00C0.0280
T2F00S00C0.0315
T3F00S00C0.0335
T4F00S00C0.0354
T5F00S00C0.0394
T6F00S00C0.0400
T7F00S00C0.0472
T9F00S00C0.0551
T10F00S00C0.0600
T11F00S00C0.0630
T12F00S00C0.1063
T13F00S00C0.1181
T14F00S00C0.1378
;TYPE=NON_PLATED
T15F00S00C0.1280
%
T01
X02651Y018034
X02753
X02901Y018814
X03224Y019094
X02039Y018684
X02132Y020974
X01773
X01521Y017624
X018471Y021934
X019889Y021514
X0225Y024931
X02228Y029146
X023199Y032943
X02321Y034076
X02002Y034094
X018553Y02814
X0179Y025824
X011191Y026523
X02595Y025674
X028042Y024306
X029027Y02126
X02379Y021534
T02
X012553Y016388
X013553
X014553
X00811Y029815
Y030815
X00891Y026796
X00991
X01236
X01336
X01566
X01666
X019606Y026846
Y024861
T03
X027622Y010498
Y013498
X028042Y017537
X027019
X025996
X024973
X02395
Y020537
X024973
X025996
X027019
X028042
X029065
Y017537
X021268Y017585
Y016588
Y015591
Y018583
X018268
Y017585
Y016588
Y015591
X015047Y018356
Y019291
Y020226
X012047
Y019291
Y018356
X023705Y013498
Y010498
X015047Y021161
Y022096
Y023032
Y023967
Y024902
X012047
Y023967
Y023032
Y022096
Y021161
X019744Y032663
Y035663
X031709Y032295
X032723
X033737
Y029295
X032723
X031709
T04
X005325Y001289
Y003289
X030727Y016574
Y017574
Y018574
Y020331
X033761
Y018574
Y017574
Y016574
X011734Y012165
X009734
X010545Y020577
X007545
Y021577
Y022577
Y023577
X007337Y034476
X006337
X005337
X005837Y035476
X006837
X007837
X008837
X008337Y034476
X012817
X013817
X014817
X015817
X016317Y035476
X015317
X014317
X013317
X013329Y031815
X012329
X011329
X010329
Y028815
X011329
X012329
X013329
X014329
X015329
X016329
X017329
Y031815
X016329
X015329
X014329
X02161Y031476
Y032476
Y033476
Y034476
Y035476
Y030476
Y029476
Y028476
Y027476
Y026476
Y025476
Y024476
Y023476
Y022476
X010545Y022577
Y021577
Y023577
X02461Y023476
Y024476
Y025476
Y026476
Y027476
Y028476
Y029476
Y030476
Y031476
Y032476
Y033476
Y034476
Y035476
X025997Y032334
Y031334
Y030334
Y02832
Y02732
Y02632
Y024306
Y023306
Y022306
X02461Y022476
X029031Y022306
Y023306
Y024306
X030727Y024088
Y025088
Y026088
X029031Y02632
Y02732
Y02832
Y030334
Y031334
Y032334
X033761Y026088
Y025088
Y024088
Y022331
Y021331
X030727
Y022331
T05
X000644Y004242
X002644
X009734Y008622
X011734
X01253Y015108
X01553
X018768Y019961
X020768
X002077Y029498
X019106Y028996
X020106
Y022596
X019106
X026392Y03627
X028392
T06
X029291Y000748
X030291
X028055Y007579
Y008701
X024108Y008701
Y007579
X016589Y01626
X015467
X029754Y033563
X030876
Y035876
X029754
Y038189
X030876
X025589Y038169
X024589
X023589
X022589
X021589
X020589
T07
X009019Y016057
Y017395
X010554Y018065
Y016726
Y015387
T09
X014679Y008604
X013892Y010966
X014679Y013328
X019404
X019404Y008604
T10
X008986Y001171
X014902
Y00623
X008986
T11
X00439Y005512
Y013386
T12
X008455Y003642
X010423
X012195
X014163
X026057Y007766
Y009734
Y011506
Y013474
X02214
Y011506
Y009734
Y007766
T13
X016063Y004685
X027677
X030476Y00313
Y014744
X004713Y020446
Y032061
T14
X001575Y001575
X033858
X002051Y016732
X033858Y037795
X001575
T15
X009337Y037976
X012317
X016817
X004837
M30
