%FSLAX24Y24*%
%MOIN*%
G70*
G01*
G75*
G04 Layer_Physical_Order=1*
G04 Layer_Color=255*
%ADD10C,0.0787*%
%ADD11C,0.0197*%
%ADD12C,0.0276*%
%ADD13C,0.0394*%
%ADD14C,0.0472*%
%ADD15C,0.0315*%
%ADD16C,0.0551*%
%ADD17C,0.2362*%
%ADD18C,0.0650*%
%ADD19C,0.0591*%
%ADD20R,0.0591X0.0591*%
%ADD21R,0.0591X0.0591*%
%ADD22C,0.1161*%
%ADD23C,0.0630*%
%ADD24C,0.0591*%
%ADD25R,0.0591X0.0591*%
%ADD26R,0.0630X0.0630*%
%ADD27C,0.0630*%
%ADD28C,0.1181*%
%ADD29R,0.1181X0.1181*%
%ADD30C,0.0669*%
%ADD31R,0.0669X0.0669*%
%ADD32O,0.0984X0.0551*%
%ADD33R,0.0984X0.0551*%
%ADD34O,0.1400X0.0900*%
%ADD35O,0.0900X0.1400*%
%ADD36O,0.1969X0.1378*%
%ADD37C,0.1969*%
%ADD38O,0.0600X0.1200*%
G04:AMPARAMS|DCode=39|XSize=120mil|YSize=60mil|CornerRadius=0mil|HoleSize=0mil|Usage=FLASHONLY|Rotation=90.000|XOffset=0mil|YOffset=0mil|HoleType=Round|Shape=Octagon|*
%AMOCTAGOND39*
4,1,8,0.0150,0.0600,-0.0150,0.0600,-0.0300,0.0450,-0.0300,-0.0450,-0.0150,-0.0600,0.0150,-0.0600,0.0300,-0.0450,0.0300,0.0450,0.0150,0.0600,0.0*
%
%ADD39OCTAGOND39*%

%ADD40C,0.0787*%
%ADD41C,0.0600*%
%ADD42R,0.0591X0.0591*%
%ADD43C,0.0620*%
%ADD44C,0.0500*%
G36*
X3166Y11637D02*
X3460Y11343D01*
Y10406D01*
X2859D01*
X2640Y10734D01*
X2712Y10906D01*
X1985D01*
Y11006D01*
X2712D01*
X2620Y11227D01*
X3052Y11660D01*
X3166Y11637D01*
D02*
G37*
G36*
X57503Y4025D02*
Y2675D01*
X57139Y2525D01*
X57072Y2591D01*
X56921Y2654D01*
X56586D01*
X55955Y3286D01*
X56105Y3650D01*
X56358D01*
X56510Y3713D01*
X56870Y4073D01*
X56873Y4080D01*
X57249Y4194D01*
X57503Y4025D01*
D02*
G37*
G36*
X68075Y10714D02*
X68013Y10402D01*
X67620Y10371D01*
X67618Y10378D01*
Y10378D01*
X66788D01*
Y10378D01*
X66399Y10378D01*
X66181Y10705D01*
X66207Y10768D01*
X65800D01*
Y10868D01*
X66207D01*
X66102Y11121D01*
X66101Y11121D01*
Y11515D01*
X66102Y11516D01*
X66227Y11818D01*
X66227Y11818D01*
X66102Y12121D01*
X66129Y12185D01*
X66464Y12324D01*
X68075Y10714D01*
D02*
G37*
G36*
X10496Y18154D02*
Y16724D01*
X10591Y16497D01*
X10928Y16160D01*
X11186Y15536D01*
X10979Y15330D01*
X10904Y15148D01*
Y14183D01*
X10979Y14001D01*
X11147Y13834D01*
X11329Y13758D01*
X12082D01*
X12094Y13728D01*
X12320Y13635D01*
Y11336D01*
X12255Y11271D01*
Y10877D01*
X12649D01*
X12795Y11023D01*
X12836Y11122D01*
X12877Y11220D01*
Y13635D01*
X13048Y13706D01*
D01*
D01*
X13048D01*
Y13706D01*
Y13706D01*
X13048D01*
D01*
X13102Y13728D01*
D01*
D01*
X13102D01*
X13201Y13966D01*
X12598D01*
Y14066D01*
X13201D01*
X13199Y14070D01*
D01*
D01*
Y14070D01*
D01*
D01*
Y14070D01*
D01*
D01*
X13199Y14070D01*
D01*
D01*
X13102Y14303D01*
Y14303D01*
D01*
D01*
Y14303D01*
D01*
Y14398D01*
X13102D01*
X13102D01*
X13221Y14685D01*
X13102Y14973D01*
Y14973D01*
D01*
D01*
Y14973D01*
D01*
Y15067D01*
X13102D01*
X13102D01*
X13201Y15304D01*
X12598D01*
Y15404D01*
X13201D01*
X13102Y15642D01*
Y15642D01*
D01*
D01*
Y15642D01*
D01*
Y15736D01*
X13102D01*
X13102D01*
X13213Y16002D01*
X13536Y16066D01*
X13841Y15817D01*
Y11084D01*
X13743Y10849D01*
X13743D01*
X13734Y10827D01*
X13872Y10494D01*
X13894Y10485D01*
Y10485D01*
X13935Y10468D01*
X13977Y10254D01*
X13728Y9949D01*
X12528D01*
X12376Y9886D01*
X11366Y8876D01*
X11303Y8724D01*
Y8414D01*
X11024Y8227D01*
D01*
X10721Y8102D01*
X10721Y8102D01*
X10720Y8100D01*
X10396D01*
X10256Y8416D01*
X10244Y8469D01*
X10279Y8507D01*
X10279D01*
X10279Y8507D01*
X12155Y10383D01*
Y10777D01*
X11761D01*
X10636Y9652D01*
X10309Y9871D01*
X10367Y10011D01*
X10117Y10615D01*
X9752Y10766D01*
Y11225D01*
X10117Y11376D01*
X10367Y11980D01*
X10117Y12584D01*
X9674Y12767D01*
Y13161D01*
X10117Y13345D01*
X10367Y13948D01*
X10117Y14552D01*
X9752Y14703D01*
Y15162D01*
X10117Y15313D01*
X10367Y15917D01*
X10117Y16521D01*
X9513Y16771D01*
X9208D01*
X9058Y17135D01*
X10080Y18157D01*
X10110Y18231D01*
X10496Y18154D01*
D02*
G37*
G36*
X38603Y4002D02*
Y2385D01*
X38274Y2319D01*
X38203Y2341D01*
X38032Y2753D01*
Y4008D01*
X38312Y4157D01*
X38603Y4002D01*
D02*
G37*
G36*
X31163Y3124D02*
Y2559D01*
X30859Y2309D01*
X30754Y2330D01*
X30716Y2422D01*
Y2422D01*
X30716Y2422D01*
X30716Y2422D01*
X30716Y2422D01*
X30716D01*
X30610Y2774D01*
X30631Y2805D01*
X30631Y2805D01*
X30631Y2805D01*
X30715Y3008D01*
X31079Y3159D01*
X31163Y3124D01*
D02*
G37*
G36*
X42191Y11078D02*
X42293Y11036D01*
X42369Y10650D01*
X41947Y10227D01*
X41583Y10378D01*
Y10990D01*
X41796Y11078D01*
X41796Y11080D01*
X42190D01*
X42191Y11078D01*
D02*
G37*
G36*
X23556Y9992D02*
Y9992D01*
X23556Y9992D01*
X23664Y9733D01*
Y9733D01*
X23682Y9690D01*
X23984Y9564D01*
X24028Y9582D01*
X24028D01*
X24287Y9690D01*
X24287D01*
X24287D01*
X24625Y9549D01*
X26951Y7224D01*
Y6523D01*
X26611Y6382D01*
X26324Y6501D01*
X26036Y6382D01*
X26036Y6382D01*
X26036Y6382D01*
X26036D01*
X26031Y6371D01*
X25769Y6382D01*
D01*
X25482Y6501D01*
X25428Y6479D01*
X25428Y6479D01*
X25194Y6382D01*
X25194Y6382D01*
X25194Y6382D01*
X25194D01*
X25189Y6371D01*
X24927Y6382D01*
D01*
X24640Y6501D01*
X24586Y6479D01*
X24586Y6479D01*
X24352Y6382D01*
X24352Y6382D01*
X24352Y6382D01*
X24352D01*
X24347Y6371D01*
X24086Y6382D01*
D01*
X23798Y6501D01*
X23744Y6479D01*
X23744Y6479D01*
X23511Y6382D01*
X23511Y6382D01*
X23511Y6382D01*
X23511D01*
X23505Y6371D01*
X23244Y6382D01*
D01*
X22956Y6501D01*
D01*
D01*
X22688Y6390D01*
X22360Y6609D01*
Y6793D01*
X22542Y6868D01*
D01*
X22610Y6897D01*
X22721Y7164D01*
X22693Y7232D01*
Y7232D01*
X22638Y7365D01*
D01*
X22610Y7432D01*
X22342Y7543D01*
X22275Y7515D01*
X22275D01*
X22074Y7432D01*
X22074Y7432D01*
X22074Y7432D01*
X22074D01*
X22068Y7417D01*
X21963Y7164D01*
X21985Y7111D01*
X21345Y6471D01*
X21273Y6501D01*
X20985Y6382D01*
Y6382D01*
X20724Y6371D01*
X20718Y6382D01*
X20718D01*
X20718Y6382D01*
X20718Y6382D01*
X20431Y6501D01*
X20143Y6382D01*
X20143Y6382D01*
X20143Y6382D01*
X20143D01*
X20138Y6371D01*
X19876Y6382D01*
D01*
X19589Y6501D01*
X19535Y6479D01*
X19535Y6479D01*
X19301Y6382D01*
X19301Y6382D01*
X19301Y6382D01*
X19301D01*
X19296Y6371D01*
X19035Y6382D01*
D01*
X18747Y6501D01*
X18693Y6479D01*
X18693Y6479D01*
X18460Y6382D01*
X18460Y6382D01*
X18460Y6382D01*
X18460D01*
X18454Y6371D01*
X18193Y6382D01*
Y6382D01*
X17948Y6484D01*
X18025Y6870D01*
X18338D01*
X18490Y6933D01*
X19128Y7571D01*
X19514Y7494D01*
X19561Y7379D01*
X19561D01*
X19573Y7352D01*
X19898Y7217D01*
X19925Y7229D01*
D01*
X20223Y7352D01*
X20346Y7650D01*
D01*
X20357Y7677D01*
X20223Y8002D01*
X20195Y8014D01*
Y8014D01*
X20081Y8061D01*
X20004Y8447D01*
X20687Y9130D01*
X22088D01*
X22240Y9193D01*
X23191Y10144D01*
X23556Y9992D01*
D02*
G37*
G36*
X68203Y9514D02*
X68246Y9532D01*
X68453Y9393D01*
Y9000D01*
X68246Y8861D01*
X68048Y8943D01*
X67780Y8832D01*
X67445Y8971D01*
X67231Y9184D01*
X67382Y9548D01*
X67618D01*
Y9548D01*
X67651Y9641D01*
X67885Y9646D01*
D01*
X67885Y9646D01*
D01*
D01*
D01*
X68203Y9514D01*
D02*
G37*
G36*
X22164Y9887D02*
X21945Y9559D01*
X21301D01*
X21224Y9945D01*
X21508Y10063D01*
X21530Y10117D01*
X21530D01*
X21530Y10117D01*
X21538Y10136D01*
X22061D01*
X22164Y9887D01*
D02*
G37*
G36*
X8319Y13345D02*
X8762Y13161D01*
Y12767D01*
X8319Y12584D01*
X8068Y11980D01*
X8319Y11376D01*
X8683Y11225D01*
Y10766D01*
X8319Y10615D01*
X8068Y10011D01*
X8319Y9408D01*
X8463Y9348D01*
X8386Y8962D01*
X6638D01*
X6456Y8886D01*
X5116Y7546D01*
X5040Y7364D01*
X5040D01*
X5040D01*
D01*
X4822Y7354D01*
X4820Y7358D01*
X4518Y7484D01*
X4474Y7466D01*
X4474D01*
X4240Y7369D01*
X3913Y7588D01*
Y7951D01*
X3426D01*
X2403Y8974D01*
X2554Y9338D01*
X5135D01*
X5513Y9494D01*
X5866Y9847D01*
X5911Y9957D01*
X6022Y10224D01*
Y10239D01*
X6272Y10343D01*
X6693Y10168D01*
X7114Y10343D01*
X7288Y10764D01*
Y11264D01*
X7114Y11685D01*
X6699Y11857D01*
X6622Y12243D01*
X7793Y13414D01*
X8290D01*
X8319Y13345D01*
D02*
G37*
G36*
X51493Y10953D02*
X51581Y10989D01*
X52363Y10207D01*
Y7920D01*
X52045Y7153D01*
X51720Y7018D01*
X51382Y6991D01*
X51377Y7001D01*
X51370Y7018D01*
D01*
D01*
D01*
X51095Y7132D01*
Y6693D01*
Y6254D01*
X51370Y6368D01*
D01*
D01*
D01*
X51377Y6385D01*
X51382Y6395D01*
X51720Y6368D01*
D01*
X51894Y6296D01*
X51970Y5910D01*
X51566Y5505D01*
X51503Y5353D01*
Y5261D01*
X51219Y5071D01*
X51219Y5071D01*
Y5071D01*
X50959Y4963D01*
X50959Y4963D01*
Y4963D01*
X50916Y4945D01*
X50915Y4944D01*
X50522D01*
X50521Y4945D01*
X50241Y5062D01*
X50164Y5448D01*
X50978Y6261D01*
X50995Y6254D01*
Y6693D01*
Y7132D01*
X50978Y7125D01*
X50416Y7687D01*
Y8308D01*
X50483Y8336D01*
X50597Y8611D01*
X50158D01*
Y8661D01*
X50108D01*
Y9100D01*
X49833Y8987D01*
Y8987D01*
X49504Y8955D01*
X49483Y8987D01*
D01*
X49483Y8987D01*
Y8987D01*
D01*
D01*
D01*
X49158Y9121D01*
Y9121D01*
D01*
X49158D01*
Y9121D01*
X49136Y9136D01*
X49070Y9235D01*
X49184Y9612D01*
X49750Y9847D01*
X50018Y9736D01*
X50286Y9847D01*
X50286Y9847D01*
D01*
D01*
X50318Y9924D01*
X50397Y10114D01*
X50375Y10168D01*
X51140Y10933D01*
X51199Y11075D01*
X51493Y10953D01*
D02*
G37*
G36*
X49405Y10718D02*
X49481Y10604D01*
X49481Y10604D01*
X48689Y9811D01*
X48586Y9853D01*
X48510Y10239D01*
X49085Y10815D01*
X49405Y10718D01*
D02*
G37*
G36*
X65372Y12818D02*
X65372Y12818D01*
X65372D01*
X65497Y12516D01*
X65499Y12515D01*
Y12121D01*
X65497Y12121D01*
X65372Y11818D01*
X65372Y11818D01*
X65497Y11516D01*
X65499Y11515D01*
Y11121D01*
X65497Y11121D01*
X65433Y10966D01*
X65047Y10889D01*
X64460Y11476D01*
X64308Y11539D01*
X63414D01*
X63227Y11818D01*
X63227Y11818D01*
X63227D01*
X63120Y12077D01*
X63120Y12077D01*
X63120D01*
X63102Y12121D01*
X63101Y12121D01*
Y12515D01*
X63102Y12516D01*
X63120Y12559D01*
X63120Y12559D01*
X63120D01*
X63227Y12818D01*
X63931Y13110D01*
X65177D01*
X65372Y12818D01*
D02*
G37*
G36*
X61733Y13291D02*
Y12328D01*
X61387Y12185D01*
D01*
D01*
X61084Y12310D01*
X60907Y12237D01*
X60628Y12515D01*
X60707Y12704D01*
X60685Y12758D01*
X61369Y13442D01*
X61733Y13291D01*
D02*
G37*
G36*
X49783Y14910D02*
Y12033D01*
X49492Y11877D01*
X49202Y12032D01*
Y14796D01*
X49530Y15015D01*
X49783Y14910D01*
D02*
G37*
G36*
X39773Y15350D02*
Y13964D01*
X37581Y11772D01*
X37493Y11809D01*
X37360Y11753D01*
X37032Y11972D01*
Y13124D01*
X39409Y15500D01*
X39773Y15350D01*
D02*
G37*
G36*
X8137Y15751D02*
X8319Y15313D01*
X8683Y15162D01*
Y14703D01*
X8319Y14552D01*
X8290Y14483D01*
X7572D01*
X7305Y14372D01*
X7194Y14326D01*
X5252Y12384D01*
X4911Y12525D01*
X4835Y12912D01*
X7751Y15828D01*
X8137Y15751D01*
D02*
G37*
G36*
X69103Y13165D02*
Y10807D01*
X68739Y10657D01*
X67345Y12051D01*
X67495Y12415D01*
X67567D01*
D01*
X67615Y12415D01*
X67618D01*
D01*
D01*
D01*
X67877Y12522D01*
X67885Y12512D01*
X67885Y12512D01*
X68203Y12381D01*
X68520Y12512D01*
X68652Y12830D01*
X68520Y13147D01*
X68203Y13279D01*
X68100Y13236D01*
X67610Y13726D01*
X67761Y14090D01*
X68179D01*
X69103Y13165D01*
D02*
G37*
G36*
X59373Y14765D02*
Y12503D01*
X59250Y12421D01*
X59132Y12372D01*
X58805Y12591D01*
Y14758D01*
X59095Y14913D01*
X59373Y14765D01*
D02*
G37*
G36*
X47543Y16974D02*
X47796Y17078D01*
X47796Y17080D01*
X47932D01*
X48210Y16801D01*
Y16339D01*
X46341Y14470D01*
X46279Y14318D01*
Y11720D01*
X46191Y11683D01*
X46190Y11682D01*
X46029D01*
X45751Y11960D01*
Y15274D01*
X47443Y16967D01*
Y17381D01*
X47543D01*
Y16974D01*
D02*
G37*
G36*
X45543Y10974D02*
X45796Y11078D01*
X45796Y11080D01*
X46000D01*
X46279Y10801D01*
Y5003D01*
X45849Y4574D01*
X45686Y4642D01*
X45309Y4485D01*
X45152Y4107D01*
X45169Y4067D01*
X44950Y3739D01*
X44454D01*
X44241Y4057D01*
X43204D01*
X43340Y3730D01*
X43468Y3676D01*
Y3283D01*
X43250Y3192D01*
X43139Y2924D01*
X43139Y2924D01*
X43139Y2924D01*
X42982Y2689D01*
X42487D01*
X42082Y3093D01*
Y4865D01*
X42446Y5015D01*
X43233Y4228D01*
X43204Y4157D01*
X43668D01*
Y4621D01*
X43597Y4592D01*
X42649Y5540D01*
Y8308D01*
X42717Y8336D01*
X42717Y8336D01*
X42717Y8336D01*
D01*
X42916Y8637D01*
X42943Y8634D01*
D01*
X42943D01*
X43067Y8336D01*
X42943Y8634D01*
D01*
X42943D01*
X43067Y8336D01*
X43364Y8213D01*
D01*
X43392Y8202D01*
X43717Y8336D01*
D01*
D01*
X43852Y8661D01*
D01*
D01*
D01*
D01*
D01*
X43717Y8987D01*
D01*
D01*
D01*
X43690Y8998D01*
X43690D01*
Y8998D01*
X43690Y8998D01*
Y8998D01*
D01*
D01*
Y8998D01*
D01*
D01*
X43607Y9032D01*
Y9875D01*
X43645Y9914D01*
X43708Y10066D01*
Y11042D01*
X43753Y11060D01*
X43753Y11060D01*
Y11060D01*
X43796Y11078D01*
X43796Y11080D01*
X44190D01*
X44191Y11078D01*
X44493Y10953D01*
X44796Y11078D01*
X44796Y11080D01*
X45190D01*
X45191Y11078D01*
X45443Y10974D01*
Y11381D01*
X45543D01*
Y10974D01*
D02*
G37*
G36*
X55191Y11078D02*
X55228Y11063D01*
X55320Y10680D01*
X54572Y9808D01*
X54202Y9945D01*
Y10759D01*
X54493Y10953D01*
X54493Y10953D01*
Y10953D01*
X54796Y11078D01*
X54796Y11080D01*
X55190D01*
X55191Y11078D01*
D02*
G37*
G36*
X38191D02*
X38244Y11056D01*
X38339Y10674D01*
X37666Y9857D01*
D01*
X37666Y9857D01*
X37666D01*
X37603Y9705D01*
Y5318D01*
X37312Y5162D01*
X37032Y5312D01*
Y10789D01*
X37360Y11008D01*
X37493Y10953D01*
X37493Y10953D01*
X37796Y11078D01*
X37796Y11080D01*
X38190D01*
X38191Y11078D01*
D02*
G37*
G36*
X51639Y12931D02*
X51639D01*
X51639Y12931D01*
X51639D01*
X52337Y12087D01*
X52242Y11705D01*
X52191Y11683D01*
X52190Y11682D01*
X51796D01*
X51796Y11683D01*
X51753Y11701D01*
X51753Y11701D01*
Y11701D01*
X51493Y11809D01*
X51493Y11809D01*
X51493Y11809D01*
X51202Y12003D01*
Y12977D01*
X51589Y13054D01*
X51639Y12931D01*
D02*
G37*
G36*
X42696Y13908D02*
X42730Y13827D01*
X42783Y13805D01*
Y12508D01*
X42493Y11809D01*
X42191Y11683D01*
X42191Y11683D01*
X42190Y11682D01*
X41796D01*
X41796Y11683D01*
X41493Y11809D01*
X41234Y11701D01*
X41234Y11701D01*
Y11701D01*
X41191Y11683D01*
X41190Y11682D01*
X40796D01*
X40796Y11683D01*
X40567Y11778D01*
X40490Y12164D01*
X42310Y13985D01*
X42696Y13908D01*
D02*
G37*
G36*
X60782Y11580D02*
X61084Y11455D01*
X61341Y11561D01*
X61560Y11234D01*
X60864Y10537D01*
X60189D01*
X60167Y10590D01*
X59900Y10701D01*
X59900Y10701D01*
X59900Y10701D01*
X59506Y10716D01*
X59740Y11066D01*
X59740Y11066D01*
X59802Y11218D01*
Y11266D01*
X60084Y11455D01*
X60084Y11455D01*
Y11455D01*
X60387Y11580D01*
X60387Y11581D01*
X60781D01*
X60782Y11580D01*
D02*
G37*
G36*
X65156Y10173D02*
X65308Y10110D01*
Y10110D01*
X65372Y9818D01*
Y9818D01*
D01*
D01*
D01*
X65497Y9516D01*
D01*
D01*
D01*
X65540Y9498D01*
D01*
D01*
D01*
X65540Y9498D01*
D01*
D01*
D01*
D01*
Y9498D01*
D01*
D01*
X65595Y9475D01*
X65648Y9348D01*
X67120Y7875D01*
X66970Y7511D01*
X66788D01*
Y6985D01*
X66006Y6203D01*
X65679Y6422D01*
X65776Y6656D01*
X65432Y7486D01*
X64602Y7830D01*
X63772Y7486D01*
X63428Y6656D01*
X63494Y6498D01*
X63167Y6279D01*
X62492Y6953D01*
Y9423D01*
X63195D01*
Y10213D01*
X63102D01*
Y10516D01*
X63102Y10516D01*
X63102Y10516D01*
Y10516D01*
X62864Y10277D01*
X63102Y10516D01*
X63102Y10516D01*
X63120Y10559D01*
X63120Y10559D01*
X63120D01*
X63227Y10818D01*
X63227Y10818D01*
X63227Y10818D01*
X63422Y11110D01*
X64219D01*
X65156Y10173D01*
D02*
G37*
G36*
X18460Y5807D02*
X18460D01*
X18460Y5807D01*
X18460Y5807D01*
X18747Y5688D01*
X19035Y5807D01*
Y5807D01*
X19296Y5818D01*
X19301Y5807D01*
X19301D01*
X19301Y5807D01*
X19301Y5807D01*
X19589Y5688D01*
X19662Y5718D01*
X20367Y5013D01*
X20519Y4950D01*
X26498D01*
X26748Y4645D01*
X26715Y4477D01*
X26649D01*
X26497Y4414D01*
X25554Y3471D01*
X25482Y3501D01*
X25482Y3501D01*
X25248Y3404D01*
X24873D01*
X24640Y3501D01*
X24599Y3484D01*
X24406Y3404D01*
X24032D01*
X23798Y3501D01*
X23744Y3479D01*
X23744D01*
X23565Y3404D01*
D01*
D01*
X23565D01*
Y3404D01*
Y3404D01*
X23190D01*
X22956Y3501D01*
X22915Y3484D01*
X22723Y3404D01*
X22348D01*
X22114Y3501D01*
X22060Y3479D01*
X22060D01*
X21881Y3404D01*
D01*
D01*
X21881D01*
Y3404D01*
Y3404D01*
X21506D01*
X21273Y3501D01*
X21232Y3484D01*
X20985Y3382D01*
X20985Y3382D01*
X20985Y3382D01*
X20961Y3372D01*
X20718Y3382D01*
D01*
X20431Y3501D01*
X20377Y3479D01*
X20377Y3479D01*
X20143Y3382D01*
X20143Y3382D01*
X20143Y3382D01*
X20143D01*
X20138Y3371D01*
X19876Y3382D01*
Y3382D01*
X19589Y3501D01*
X19301Y3382D01*
X19301Y3382D01*
X19301Y3382D01*
X19301D01*
X19296Y3371D01*
X19035Y3382D01*
D01*
X18747Y3501D01*
X18693Y3479D01*
X18693Y3479D01*
X18460Y3382D01*
X18460Y3382D01*
X18460Y3382D01*
X18460D01*
X18454Y3371D01*
X18193Y3382D01*
Y3382D01*
X17959Y3479D01*
X17959Y3479D01*
X17905Y3501D01*
X17618Y3382D01*
D01*
X17351Y3382D01*
X17351Y3382D01*
X17226Y3434D01*
X17149Y3820D01*
X17215Y3887D01*
X17278Y4038D01*
Y5666D01*
X17618Y5807D01*
X17905Y5688D01*
X18193Y5807D01*
Y5807D01*
X18454Y5818D01*
X18460Y5807D01*
D02*
G37*
G36*
X48413Y4632D02*
Y1374D01*
X48360Y1352D01*
X48273Y1143D01*
X48249Y1084D01*
D01*
Y1084D01*
X48249D01*
X48277Y1017D01*
X48058Y689D01*
X43365D01*
X42081Y1973D01*
X42299Y2300D01*
X42398Y2260D01*
X44250D01*
X44402Y2323D01*
X44539Y2460D01*
X44702Y2392D01*
X45080Y2549D01*
X45237Y2926D01*
X45237Y2926D01*
X45237Y2926D01*
X45266Y3153D01*
D01*
X45418Y3090D01*
X45418D01*
X46268D01*
X46420Y3153D01*
X48049Y4782D01*
X48413Y4632D01*
D02*
G37*
G36*
X56889Y10985D02*
X56889D01*
X56941Y10933D01*
Y7771D01*
X56566Y7396D01*
X56503Y7244D01*
X56251Y7007D01*
D01*
D01*
D01*
D01*
X55937Y7137D01*
X55623Y7007D01*
X55493Y6693D01*
X55623Y6379D01*
X55722Y6338D01*
Y5216D01*
X55395Y4998D01*
X55219Y5071D01*
X54990Y4976D01*
X54662Y5195D01*
Y9246D01*
X56402Y10985D01*
X56889D01*
D01*
D02*
G37*
G36*
X33751Y6933D02*
Y6933D01*
X33751Y6933D01*
X33806Y6910D01*
X33819Y6905D01*
X33882Y6879D01*
X33970Y6666D01*
D01*
X34313Y5836D01*
X35143Y5493D01*
X35973Y5836D01*
X36217Y6425D01*
X36603Y6348D01*
Y5275D01*
X36322Y5088D01*
X36322Y5088D01*
Y5088D01*
X36020Y4962D01*
X35915Y4710D01*
X36322D01*
Y4610D01*
X35908D01*
X35306Y4007D01*
X34663Y3364D01*
X32273D01*
Y3502D01*
X32181D01*
Y3805D01*
X32181Y3805D01*
X32181Y3805D01*
X32306Y4107D01*
X32306Y4107D01*
Y4107D01*
X32199Y4366D01*
X32199Y4366D01*
X32199D01*
X32181Y4410D01*
X32181Y4410D01*
X31878Y4535D01*
X31592Y5224D01*
Y5538D01*
X31878Y5729D01*
X31878Y5729D01*
Y5729D01*
X32181Y5855D01*
X32285Y6107D01*
X31878D01*
Y6207D01*
X32285D01*
X32199Y6416D01*
X32199Y6416D01*
X32199D01*
X32181Y6460D01*
X32181Y6460D01*
X31952Y6688D01*
Y6688D01*
X32181Y6460D01*
Y6460D01*
X32181Y6460D01*
X32181Y6460D01*
Y6762D01*
X32273D01*
Y6942D01*
X33728D01*
X33751Y6933D01*
D02*
G37*
G36*
X20431Y2688D02*
X20503Y2718D01*
X20760Y2462D01*
X20912Y2399D01*
X29707D01*
X29926Y2071D01*
X29863Y1921D01*
X20225D01*
X19746Y2399D01*
X19792Y2626D01*
X20143Y2807D01*
D01*
X20143D01*
Y2807D01*
D01*
D01*
X20431Y2688D01*
D02*
G37*
G36*
X54233Y6029D02*
Y5614D01*
X54042Y5486D01*
X53665Y5601D01*
X53643Y5653D01*
Y6028D01*
X53940Y6186D01*
X54233Y6029D01*
D02*
G37*
G36*
X12046Y7316D02*
X12315Y6668D01*
Y5930D01*
X12024Y5227D01*
X11721Y5102D01*
X11721Y5102D01*
X11720Y5100D01*
X11327D01*
X11326Y5102D01*
X11024Y5227D01*
X11024Y5227D01*
X10721Y5102D01*
X10720Y5100D01*
X10327D01*
X10326Y5102D01*
X10024Y5227D01*
X9721Y5102D01*
X9720Y5100D01*
X9327D01*
X9326Y5102D01*
X9217Y5147D01*
X9140Y5533D01*
X10197Y6590D01*
X10768D01*
X10920Y6653D01*
X11660Y7393D01*
X12046Y7316D01*
D02*
G37*
G36*
X27936Y5403D02*
X28012Y5017D01*
X27574Y4579D01*
X27198Y4694D01*
X27164Y4863D01*
X27178Y4868D01*
X27178Y4868D01*
Y4868D01*
X27246Y4897D01*
X27246Y4897D01*
X27357Y5164D01*
X27349Y5182D01*
X27494Y5400D01*
X27646Y5463D01*
X27689Y5506D01*
X27936Y5403D01*
D02*
G37*
G36*
X30071Y5676D02*
Y4502D01*
X29933D01*
Y4157D01*
X30328D01*
Y4057D01*
X29933D01*
Y3726D01*
D01*
X29933Y3712D01*
X30048Y3433D01*
X30026Y3410D01*
X30026Y3410D01*
X29900Y3107D01*
X29227Y2828D01*
X28262D01*
X28112Y3192D01*
X29530Y4610D01*
X29592Y4762D01*
Y5891D01*
X29766Y5926D01*
X30071Y5676D01*
D02*
G37*
G36*
X39593Y10713D02*
X39630Y10623D01*
X38666Y9659D01*
X38603Y9507D01*
Y5318D01*
X38312Y5162D01*
X38032Y5312D01*
Y9616D01*
X39206Y10790D01*
X39593Y10713D01*
D02*
G37*
G36*
X40283Y10154D02*
Y834D01*
X40230Y812D01*
X40119Y544D01*
X40209Y327D01*
X39990Y0D01*
X0D01*
Y3071D01*
X386Y3148D01*
X452Y2990D01*
X1018Y2755D01*
X1186Y2825D01*
X1246Y2785D01*
X1441Y2315D01*
X1322Y2028D01*
D01*
D01*
D01*
X1344Y1974D01*
Y1974D01*
D01*
D01*
D01*
Y1974D01*
D01*
D01*
X1344Y1974D01*
D01*
D01*
X1441Y1740D01*
X1728Y1621D01*
X2016Y1740D01*
X2113Y1974D01*
X2113D01*
Y1974D01*
X2135Y2028D01*
X2016Y2315D01*
X2324Y3058D01*
X3430Y4164D01*
X3518Y4128D01*
X3820Y4253D01*
X3820D01*
X3820D01*
X4047Y4159D01*
X4069Y4106D01*
X4518D01*
Y4006D01*
X4111D01*
X4215Y3753D01*
X4260Y3735D01*
Y2238D01*
X4327Y2078D01*
X5142D01*
X5480Y2415D01*
X5555Y2597D01*
Y7258D01*
X6243Y7945D01*
X6596Y7799D01*
X6721Y7497D01*
X7024Y7371D01*
X7326Y7497D01*
X7327Y7498D01*
X7720D01*
X7721Y7497D01*
X8024Y7371D01*
X8024Y7371D01*
X8326Y7497D01*
X8327Y7498D01*
X8720D01*
X8721Y7497D01*
X9024Y7371D01*
X9024Y7371D01*
X9326Y7497D01*
X9327Y7498D01*
X9720D01*
X9721Y7497D01*
X10016Y7375D01*
Y6981D01*
X9956Y6956D01*
X8376Y5376D01*
X8313Y5224D01*
X8205Y5152D01*
X8024Y5227D01*
X7721Y5102D01*
X7721Y5102D01*
Y5102D01*
X7489Y4799D01*
X7419Y5194D01*
Y5194D01*
X6628D01*
Y4404D01*
X7115D01*
X7783Y3736D01*
X7935Y3673D01*
X8026D01*
X8103Y3287D01*
X7287Y2949D01*
X6881Y1969D01*
X7287Y988D01*
X8268Y582D01*
X9248Y988D01*
X9654Y1969D01*
X9426Y2519D01*
X9754Y2738D01*
X11969Y523D01*
X12121Y460D01*
X38268D01*
X38420Y523D01*
X38970Y1073D01*
X39032Y1224D01*
X39119Y1282D01*
X39322Y1198D01*
X39581Y1306D01*
Y1306D01*
X39625Y1323D01*
X39750Y1626D01*
D01*
D01*
D01*
D01*
D01*
X39625Y1929D01*
D01*
D01*
D01*
X39581Y1946D01*
D01*
X39581Y1946D01*
D01*
D01*
D01*
D01*
Y1946D01*
D01*
D01*
X39537Y1965D01*
Y4265D01*
X39717D01*
Y5055D01*
X39032D01*
Y9418D01*
X39919Y10304D01*
X40283Y10154D01*
D02*
G37*
G36*
X57503Y5693D02*
Y5298D01*
X57217Y5145D01*
X56932Y5297D01*
Y5811D01*
X57176Y5912D01*
X57503Y5693D01*
D02*
G37*
G36*
X3122Y7647D02*
Y7196D01*
X3122Y7196D01*
X3122Y7196D01*
X3122Y7161D01*
D01*
D01*
D01*
X3235Y6888D01*
X3200Y6874D01*
Y6874D01*
X3200Y6874D01*
X3200Y6873D01*
X3069Y6556D01*
X3200Y6238D01*
X3200D01*
X3252Y5889D01*
X3215Y5858D01*
X3215D01*
X3215Y5858D01*
X3090Y5556D01*
Y5556D01*
X3090Y5556D01*
X3215Y5253D01*
X3217Y5253D01*
Y4859D01*
X3215Y4858D01*
X3090Y4556D01*
X3090D01*
X3108Y4513D01*
X3108Y4513D01*
X3108D01*
X3126Y4468D01*
X2185Y3527D01*
X1799Y3604D01*
X1584Y4122D01*
X1018Y4357D01*
X452Y4122D01*
X386Y3964D01*
X0Y4041D01*
Y7571D01*
X386Y7648D01*
X452Y7490D01*
X1018Y7255D01*
X1584Y7490D01*
X1818Y8056D01*
X1637Y8493D01*
X1721Y8619D01*
X2113Y8657D01*
X3122Y7647D01*
D02*
G37*
G36*
X26413Y11242D02*
Y8884D01*
X26049Y8733D01*
X24854Y9928D01*
X24931Y10314D01*
X25000Y10343D01*
X26049Y11392D01*
X26413Y11242D01*
D02*
G37*
G36*
X37603Y4002D02*
Y2732D01*
X37519Y2529D01*
X37125D01*
X37032Y2753D01*
Y4008D01*
X37312Y4157D01*
X37603Y4002D01*
D02*
G37*
G36*
X53413Y10157D02*
Y9181D01*
X53216Y8706D01*
X53066Y8625D01*
X52792Y8808D01*
Y10263D01*
X53156Y10414D01*
X53413Y10157D01*
D02*
G37*
G36*
X62285Y11037D02*
X62323Y10646D01*
X62126Y10448D01*
X62063Y10296D01*
Y9667D01*
X61699Y9517D01*
X61420Y9796D01*
X61268Y9859D01*
X61268Y10334D01*
X62097Y11163D01*
X62285Y11037D01*
D02*
G37*
G36*
X43279Y10437D02*
D01*
X43240Y10116D01*
D01*
X43177Y9964D01*
Y9032D01*
X43094Y8998D01*
X43094Y8998D01*
Y8998D01*
X43067Y8987D01*
D01*
D01*
D01*
D01*
X42717Y8987D01*
X42717Y8987D01*
X42392Y9121D01*
D01*
X42082Y9328D01*
Y9755D01*
X42915Y10588D01*
X43279Y10437D01*
D02*
G37*
G36*
X47191Y11078D02*
X47493Y10953D01*
X47796Y11078D01*
X47796Y11080D01*
X48190D01*
X48191Y11078D01*
X48252Y11053D01*
X48329Y10667D01*
X47958Y10296D01*
X47895Y10144D01*
Y9203D01*
X47568Y8984D01*
X47276Y9105D01*
X47035Y9006D01*
X46708Y9224D01*
Y11042D01*
X46796Y11078D01*
X46796Y11080D01*
X47190D01*
X47191Y11078D01*
D02*
G37*
G36*
X60689Y8453D02*
X60689D01*
X60703D01*
X60703D01*
D01*
X60869D01*
X60869Y8453D01*
Y5720D01*
X58471Y3321D01*
X58418Y3343D01*
X58260Y3278D01*
X57932Y3497D01*
Y3525D01*
X58218Y4215D01*
X58521Y4340D01*
Y4340D01*
D01*
X58539Y4384D01*
X58539Y4384D01*
X58539D01*
X58646Y4643D01*
X58539Y4902D01*
X58539Y4902D01*
X58539D01*
X58521Y4945D01*
X58521Y4945D01*
X58218Y5071D01*
X57932Y5761D01*
Y5844D01*
X57883Y5963D01*
X58034Y6327D01*
X58132Y6368D01*
X58144Y6395D01*
D01*
X58132Y6368D01*
X58144Y6395D01*
D01*
X58445Y6424D01*
X58482Y6368D01*
D01*
X58482Y6368D01*
X58482Y6368D01*
X58757Y6254D01*
Y6693D01*
X58807D01*
Y6743D01*
X59246D01*
X59144Y6991D01*
X59144Y6991D01*
X59144D01*
X59132Y7018D01*
X59132Y7018D01*
X58807Y7153D01*
X58765Y7254D01*
Y7650D01*
X59084Y8421D01*
X59387Y8546D01*
X59387Y8548D01*
X59781D01*
X59782Y8546D01*
X60084Y8421D01*
X60387Y8546D01*
Y8546D01*
Y8546D01*
Y8546D01*
Y8546D01*
X60399Y8574D01*
D01*
X60689Y8453D01*
D02*
G37*
G36*
X52510Y3992D02*
Y2775D01*
X52415Y2546D01*
X52022D01*
X51932Y2761D01*
Y3989D01*
X52225Y4145D01*
X52510Y3992D01*
D02*
G37*
G36*
X14809Y9757D02*
Y8138D01*
X14764Y8120D01*
X14764Y8120D01*
Y8120D01*
X14721Y8102D01*
X14720Y8100D01*
X14327D01*
X14326Y8102D01*
X14024Y8227D01*
X14024Y8227D01*
X13721Y8102D01*
X13720Y8100D01*
X13327D01*
X13326Y8102D01*
X13024Y8227D01*
X12721Y8102D01*
X12720Y8100D01*
X12327D01*
X12326Y8102D01*
X12326Y8102D01*
X12024Y8227D01*
D01*
X11862Y8335D01*
X11824Y8727D01*
X12617Y9520D01*
X13968D01*
X14120Y9583D01*
X14445Y9908D01*
X14809Y9757D01*
D02*
G37*
G36*
X14721Y7497D02*
X15024Y7371D01*
X15024Y7371D01*
D01*
X15111Y7408D01*
X15523Y6996D01*
Y5374D01*
X15196Y5156D01*
X15074Y5206D01*
Y4799D01*
Y4392D01*
X15196Y4443D01*
X15484Y4250D01*
X15523Y3858D01*
X14709Y3044D01*
X14606Y3087D01*
X14321Y2969D01*
X14321D01*
X14289Y2955D01*
X14157Y2638D01*
X14171Y2605D01*
D01*
X14242Y2432D01*
X14024Y2105D01*
X13220D01*
X13002Y2432D01*
X13073Y2605D01*
D01*
X13087Y2638D01*
X12955Y2955D01*
X12923Y2969D01*
X12923D01*
X12744Y3043D01*
Y3697D01*
X13024Y4371D01*
X13326Y4497D01*
Y4497D01*
D01*
X13327Y4498D01*
X13720D01*
X13721Y4497D01*
X14024Y4371D01*
X14326Y4497D01*
X14327Y4498D01*
X14720D01*
X14721Y4497D01*
X14974Y4392D01*
Y4799D01*
Y5206D01*
X14721Y5102D01*
X14720Y5100D01*
X14327D01*
X14326Y5102D01*
X14024Y5227D01*
X13721Y5102D01*
X13720Y5100D01*
X13327D01*
X13326Y5102D01*
X13326Y5102D01*
X13024Y5227D01*
X12744Y5901D01*
Y6697D01*
X13024Y7371D01*
X13326Y7497D01*
X13327Y7498D01*
X13720D01*
X13721Y7497D01*
X14024Y7371D01*
X14024Y7371D01*
X14326Y7497D01*
X14327Y7498D01*
X14720D01*
X14721Y7497D01*
D02*
G37*
G36*
X665Y9065D02*
X588Y8679D01*
X452Y8622D01*
X386Y8464D01*
X0Y8541D01*
Y9215D01*
X364Y9366D01*
X665Y9065D01*
D02*
G37*
G36*
X49901Y8284D02*
Y7580D01*
X49976Y7398D01*
X50484Y6890D01*
Y6496D01*
X49496Y5507D01*
X49420Y5325D01*
Y1414D01*
X49496Y1232D01*
X49675Y1053D01*
X49559Y773D01*
X49167Y734D01*
X48978Y1017D01*
X49007Y1084D01*
X49007D01*
Y1084D01*
D01*
X48982Y1143D01*
X48896Y1352D01*
X48842Y1374D01*
Y7991D01*
X49158Y8202D01*
X49158Y8202D01*
X49158D01*
D01*
D01*
X49483Y8336D01*
Y8336D01*
X49483Y8336D01*
X49483Y8336D01*
D01*
X49524Y8397D01*
X49901Y8284D01*
D02*
G37*
G36*
X47895Y8120D02*
Y5236D01*
X46548Y3888D01*
X46340Y4027D01*
X46302Y4419D01*
X46645Y4762D01*
X46708Y4914D01*
Y8098D01*
X47035Y8317D01*
X47276Y8218D01*
X47568Y8339D01*
X47895Y8120D01*
D02*
G37*
G36*
X70053Y18104D02*
Y17417D01*
X69695Y17254D01*
X69436Y17478D01*
X69276Y17867D01*
X69387Y18134D01*
X69387Y18134D01*
X69387Y18134D01*
X69387D01*
X69323Y18288D01*
X69650Y18507D01*
X70053Y18104D01*
D02*
G37*
G36*
X41191Y17078D02*
D01*
X41191Y17078D01*
X41493Y16953D01*
X41783Y16254D01*
Y14974D01*
X40566Y13757D01*
X40202Y13908D01*
Y16759D01*
X40493Y16953D01*
X40493Y16953D01*
Y16953D01*
X40796Y17078D01*
X40796Y17080D01*
X41190D01*
X41191Y17078D01*
D02*
G37*
G36*
X67607Y19810D02*
D01*
D01*
D01*
D01*
D01*
Y19810D01*
D01*
D01*
X67501Y19554D01*
X67913D01*
Y19454D01*
X67499D01*
X67021Y18975D01*
X66945Y18793D01*
Y16111D01*
X66788D01*
Y15746D01*
X67203D01*
Y15646D01*
X66788D01*
Y15502D01*
X66429Y15354D01*
X66150Y15632D01*
X66227Y15818D01*
X66120Y16077D01*
X66120Y16077D01*
X66120D01*
X66102Y16121D01*
X66101Y16121D01*
Y16515D01*
X66102Y16516D01*
X66227Y16818D01*
X66227Y16818D01*
Y16818D01*
X66120Y17077D01*
D01*
X66120D01*
D01*
Y17077D01*
X66120D01*
X66102Y17121D01*
D01*
D01*
D01*
X65800Y17246D01*
D01*
D01*
D01*
X65756Y17228D01*
Y17228D01*
Y17228D01*
Y17228D01*
X65756D01*
D01*
D01*
X65756D01*
D01*
Y17228D01*
X65712Y17210D01*
X65299Y17622D01*
X65376Y18008D01*
X65432Y18031D01*
X65776Y18861D01*
X65432Y19691D01*
X65184Y19793D01*
X65261Y20180D01*
X67454D01*
X67607Y19810D01*
D02*
G37*
G36*
X81496Y17345D02*
X81110Y17268D01*
X81062Y17383D01*
X80496Y17618D01*
X79930Y17383D01*
X79695Y16817D01*
X79930Y16251D01*
X80496Y16016D01*
X81062Y16251D01*
X81110Y16366D01*
X81496Y16289D01*
Y12845D01*
X81110Y12768D01*
X81062Y12883D01*
X80496Y13118D01*
X79930Y12883D01*
X79695Y12317D01*
X79930Y11751D01*
X80496Y11516D01*
X81062Y11751D01*
X81110Y11866D01*
X81496Y11789D01*
Y0D01*
X73879D01*
X73728Y364D01*
X74700Y1335D01*
X74740Y1432D01*
X75133D01*
X75133D01*
X75133D01*
X75133D01*
X75234Y1189D01*
X75502Y1078D01*
X75770Y1189D01*
X75881Y1457D01*
X75881D01*
Y1457D01*
D01*
X75856Y1515D01*
X75770Y1725D01*
X75717Y1747D01*
Y4232D01*
X76313Y4829D01*
X76848D01*
X76856Y4810D01*
D01*
D01*
Y4810D01*
X76856D01*
X76856D01*
Y4810D01*
D01*
D01*
X76878Y4756D01*
D01*
D01*
Y4756D01*
X77165Y4637D01*
D01*
D01*
D01*
X77219Y4659D01*
D01*
D01*
X77219D01*
D01*
D01*
X77219D01*
D01*
D01*
X77219Y4659D01*
D01*
D01*
X77399Y4734D01*
Y4734D01*
X77453Y4756D01*
X77572Y5043D01*
D01*
D01*
X77453Y5331D01*
X77399Y5353D01*
Y5353D01*
X77219Y5428D01*
D01*
X77219Y5428D01*
X77219D01*
D01*
X77219D01*
X77165Y5450D01*
D01*
D01*
D01*
X76878Y5331D01*
Y5331D01*
D01*
D01*
X76856Y5277D01*
D01*
X76856D01*
X76856D01*
Y5277D01*
D01*
D01*
D01*
D01*
D01*
X76848Y5258D01*
X76224D01*
X76073Y5195D01*
X75350Y4473D01*
X75287Y4321D01*
Y1801D01*
X74983Y1551D01*
X74762Y1595D01*
Y10344D01*
X75126Y10494D01*
X78889Y6731D01*
X78871Y6687D01*
X78871D01*
X78871Y6687D01*
X78853Y6644D01*
Y6644D01*
X78853Y6644D01*
X78978Y6341D01*
X78980Y6341D01*
Y5947D01*
X78978Y5946D01*
X78853Y5644D01*
X78853D01*
X78978Y5341D01*
X78980Y5341D01*
Y4947D01*
X78978Y4946D01*
X78874Y4694D01*
X79688D01*
X79583Y4946D01*
X79582Y4947D01*
Y5341D01*
X79583Y5341D01*
X79709Y5644D01*
X79709Y5644D01*
X79583Y5946D01*
X79582Y5947D01*
Y6341D01*
X79583Y6341D01*
X79709Y6644D01*
X79601Y6903D01*
X79601Y6903D01*
X79601D01*
X79583Y6946D01*
X79582Y6947D01*
Y7341D01*
X79583Y7341D01*
X79709Y7644D01*
X79709Y7644D01*
X79583Y7946D01*
X79582Y7947D01*
Y8341D01*
X79583Y8341D01*
X79709Y8644D01*
D01*
D01*
D01*
D01*
X79583Y8946D01*
X79583Y8946D01*
X79556Y8958D01*
X79676Y9248D01*
X79676Y9262D01*
X79676Y9262D01*
X79676D01*
Y10039D01*
X79189D01*
X78211Y11017D01*
Y12422D01*
X78391D01*
Y13177D01*
X78391Y13177D01*
X78391Y13177D01*
X78391Y13212D01*
D01*
D01*
D01*
X78278Y13485D01*
X78314Y13499D01*
Y13499D01*
X78314Y13499D01*
X78314Y13499D01*
X78445Y13817D01*
X78314Y14135D01*
X78314D01*
X78262Y14484D01*
X78299Y14514D01*
X78299D01*
X78299Y14514D01*
X78424Y14817D01*
X78424D01*
X78299Y15119D01*
X78297Y15120D01*
Y15514D01*
X78299Y15514D01*
X78403Y15767D01*
X77996D01*
Y15817D01*
X77946D01*
Y16224D01*
X77719Y16130D01*
X77501Y16458D01*
X77560Y16517D01*
X77635Y16699D01*
Y18640D01*
X77963Y18859D01*
X78116Y18795D01*
X78153Y18705D01*
X79134Y18298D01*
X80114Y18705D01*
X80521Y19685D01*
X80114Y20666D01*
X79134Y21072D01*
X78153Y20666D01*
X77747Y19685D01*
X77747Y19685D01*
X77747D01*
X77642Y19642D01*
X77428Y19730D01*
Y19291D01*
X77378D01*
Y19241D01*
X76939D01*
X77053Y18966D01*
X77121Y18938D01*
Y17045D01*
X76996Y16745D01*
X76694Y16619D01*
D01*
X75874Y16959D01*
X71335Y21288D01*
X71481Y21654D01*
X81496D01*
Y17345D01*
D02*
G37*
G36*
X23486Y19557D02*
Y14101D01*
X23549Y13949D01*
X23561Y13938D01*
X23539Y13884D01*
X23592Y13757D01*
X23373Y13429D01*
X22747D01*
X20700Y15476D01*
X20548Y15539D01*
X17564D01*
X17488Y15925D01*
X17712Y16018D01*
X17846Y16343D01*
X17712Y16668D01*
X17387Y16803D01*
X17061Y16668D01*
X16938Y16371D01*
D01*
X16927Y16343D01*
X17061Y16018D01*
X17089Y16007D01*
Y16007D01*
X17286Y15925D01*
X17286Y15925D01*
X17209Y15539D01*
X16898D01*
X16746Y15476D01*
X16146Y14876D01*
X16083Y14724D01*
X16083Y14724D01*
X16083Y14724D01*
X16042Y14663D01*
X15857Y14681D01*
X15644Y14745D01*
Y15990D01*
X15712Y16018D01*
X15826Y16293D01*
X14948D01*
X15061Y16018D01*
X15129Y15990D01*
Y14723D01*
X15061Y14695D01*
X14955Y14438D01*
X14569Y14514D01*
Y15987D01*
X14569Y15987D01*
X14462Y16245D01*
D01*
X14462D01*
D01*
D01*
X14462Y16245D01*
D01*
D01*
D01*
X14462Y16245D01*
X13757Y16950D01*
X13499Y17057D01*
X13191D01*
Y17069D01*
X12006D01*
Y16505D01*
X11643Y16354D01*
X11139Y16858D01*
Y18505D01*
X11498Y18654D01*
X11672Y19075D01*
X11498Y19496D01*
X11077Y19670D01*
X10577D01*
X10507Y19641D01*
X10307Y19724D01*
X10224Y19925D01*
D01*
X10196Y19992D01*
X9928Y20103D01*
X9860Y20075D01*
D01*
X9804Y20052D01*
X9440Y20203D01*
X9248Y20666D01*
Y20666D01*
Y20666D01*
X9321Y21030D01*
X22013D01*
X23486Y19557D01*
D02*
G37*
G36*
X7149Y21290D02*
X5823Y19964D01*
X5761Y19812D01*
Y17974D01*
X5257Y17470D01*
X4809D01*
X4679Y17784D01*
X4529Y17846D01*
Y18240D01*
X4679Y18302D01*
X4877Y18780D01*
X3424D01*
X3515Y18559D01*
X2796Y17840D01*
X2552Y17760D01*
X2514Y17784D01*
X2514Y17784D01*
X2514Y17784D01*
X2364Y17846D01*
Y18240D01*
X2514Y18302D01*
X2732Y18830D01*
X2514Y19359D01*
X1985Y19578D01*
X1457Y19359D01*
X1238Y18830D01*
X1457Y18302D01*
X1606Y18240D01*
Y17846D01*
X1457Y17784D01*
X1238Y17256D01*
X1457Y16727D01*
X1606Y16665D01*
Y16271D01*
X1457Y16209D01*
X1238Y15681D01*
X1457Y15152D01*
X1606Y15090D01*
Y14696D01*
X1457Y14634D01*
X1238Y14106D01*
X1368Y13792D01*
X364Y12788D01*
X0Y12939D01*
Y21654D01*
X6999D01*
X7149Y21290D01*
D02*
G37*
G36*
X43191Y17078D02*
X43493Y16953D01*
X43796Y17078D01*
X43796Y17080D01*
X44190D01*
X44191Y17078D01*
X44291Y17036D01*
X44368Y16650D01*
X42576Y14858D01*
X42212Y15009D01*
Y16765D01*
X42493Y16953D01*
X42493Y16953D01*
Y16953D01*
X42796Y17078D01*
X42796Y17080D01*
X43190D01*
X43191Y17078D01*
D02*
G37*
G36*
X39279Y16801D02*
Y15977D01*
X38566Y15265D01*
X38202Y15416D01*
Y16759D01*
X38493Y16953D01*
X38493Y16953D01*
Y16953D01*
X38796Y17078D01*
X38796Y17080D01*
X39000D01*
X39279Y16801D01*
D02*
G37*
G36*
X50191Y17078D02*
X50234Y17060D01*
X50234Y17060D01*
Y17060D01*
X50315Y17027D01*
X50392Y16641D01*
X48836Y15084D01*
X48773Y14933D01*
Y11995D01*
X48493Y11809D01*
X48493Y11809D01*
Y11809D01*
X48191Y11683D01*
X48190Y11682D01*
X47796D01*
X47796Y11683D01*
X47493Y11809D01*
X47191Y11683D01*
X47190Y11682D01*
X46986D01*
X46708Y11960D01*
Y14229D01*
X48577Y16098D01*
X48640Y16250D01*
Y17014D01*
X48796Y17078D01*
X48796Y17080D01*
X49190D01*
X49191Y17078D01*
X49234Y17060D01*
X49234Y17060D01*
Y17060D01*
X49493Y16953D01*
X49493Y16953D01*
X49796Y17078D01*
X49796Y17080D01*
X50190D01*
X50191Y17078D01*
D02*
G37*
G36*
X68753Y17625D02*
X68793Y17575D01*
Y17575D01*
X68793Y17575D01*
X68856Y17423D01*
X70868Y15411D01*
X70832Y15323D01*
X70957Y15020D01*
X71045Y14984D01*
Y13059D01*
X70941Y12808D01*
X70941D01*
X70941Y12808D01*
X70653Y12689D01*
X70534Y12402D01*
X70631Y12168D01*
X70631D01*
X70653Y12114D01*
X70941Y11995D01*
X70995Y12017D01*
X70995Y12017D01*
X71001Y12020D01*
X71116Y11742D01*
X71105Y11715D01*
X71105D01*
X71105Y11715D01*
X71002Y11467D01*
X71881D01*
X71873Y11485D01*
X71980Y11592D01*
X72055Y11774D01*
Y15785D01*
X71980Y15967D01*
X71701Y16246D01*
X71806Y16500D01*
X71879Y16610D01*
X72654D01*
X73726Y15537D01*
Y12719D01*
X73707Y12711D01*
D01*
D01*
X73707D01*
Y12711D01*
Y12711D01*
X73653Y12689D01*
X73534Y12402D01*
X73534D01*
X73653Y12114D01*
X73582Y11941D01*
X73441Y11877D01*
X73441Y11877D01*
X73116Y11742D01*
X73116Y11742D01*
X73105Y11715D01*
X73105D01*
X73105Y11715D01*
X72992Y11445D01*
D01*
X72981Y11417D01*
X73116Y11092D01*
X73143Y11081D01*
Y11081D01*
X73441Y10958D01*
X73766Y11092D01*
X73884Y11376D01*
X74247Y11527D01*
X74333Y11491D01*
Y1576D01*
X73446Y689D01*
X63858D01*
X63707Y1053D01*
X64330Y1675D01*
X64374Y1657D01*
Y1657D01*
X64374Y1657D01*
X64417Y1639D01*
X64417Y1639D01*
X64720Y1764D01*
X64720Y1766D01*
X65114D01*
X65115Y1764D01*
X65367Y1660D01*
Y2067D01*
Y2474D01*
X65115Y2369D01*
X65114Y2368D01*
X64720D01*
X64720Y2369D01*
X64417Y2495D01*
X64417Y2495D01*
X64417Y2495D01*
X64417Y2495D01*
X64417Y2495D01*
X64115Y2369D01*
X64114Y2368D01*
X63720D01*
X63720Y2369D01*
X63417Y2495D01*
X63115Y2369D01*
X63114Y2368D01*
X62720D01*
X62720Y2369D01*
X62417Y2495D01*
X62417Y2495D01*
X62115Y2369D01*
X62115Y2369D01*
X62103Y2342D01*
X61813Y2462D01*
X61799Y2462D01*
X61799Y2462D01*
Y2462D01*
X61022D01*
Y1672D01*
X61799D01*
X61799Y1672D01*
Y1672D01*
X61813Y1672D01*
X62103Y1792D01*
X62103D01*
X62115Y1764D01*
Y1764D01*
Y1764D01*
Y1764D01*
Y1764D01*
X62417Y1639D01*
X62720Y1764D01*
X62720Y1766D01*
X63114D01*
X63115Y1764D01*
X63211Y1725D01*
X63317Y1345D01*
X63114Y1067D01*
X58982D01*
X58927Y1149D01*
Y2235D01*
X61740Y5048D01*
X61802Y5200D01*
Y6521D01*
X62166Y6672D01*
X63526Y5313D01*
X63678Y5250D01*
X65571D01*
X65723Y5313D01*
X67092Y6682D01*
X67567D01*
D01*
X67615Y6682D01*
X67618D01*
D01*
D01*
D01*
X67877Y6789D01*
X67885Y6779D01*
X67885Y6779D01*
X68203Y6647D01*
X68520Y6779D01*
X68520Y6779D01*
Y6779D01*
X68536Y6782D01*
X69110Y6209D01*
X69033Y5823D01*
X68895Y5766D01*
D01*
Y5766D01*
Y5766D01*
X68895Y5766D01*
Y5766D01*
X68868Y5754D01*
D01*
D01*
D01*
X68754Y5479D01*
X69193D01*
Y5429D01*
X69243D01*
Y4990D01*
X69356Y5037D01*
X69683Y4818D01*
Y4040D01*
X69356Y3822D01*
X69220Y3878D01*
X69220Y3878D01*
X69220Y3878D01*
X69193Y3889D01*
X69172Y3880D01*
X68845Y4099D01*
Y4717D01*
X69125Y4997D01*
X69143Y4990D01*
Y5379D01*
X68754D01*
X68761Y5361D01*
X68406Y5006D01*
X68330Y4824D01*
Y2864D01*
X67965Y2499D01*
X67948Y2506D01*
Y2117D01*
X68337D01*
X68329Y2135D01*
X68770Y2575D01*
X68845Y2757D01*
Y2759D01*
X69172Y2978D01*
X69193Y2969D01*
X69356Y3037D01*
X69683Y2818D01*
Y2438D01*
X69600Y2403D01*
D01*
Y2403D01*
Y2403D01*
X69600Y2403D01*
Y2403D01*
X69573Y2392D01*
D01*
D01*
D01*
X69438Y2067D01*
D01*
D01*
D01*
D01*
D01*
X69573Y1742D01*
X69600Y1730D01*
X69600Y1730D01*
X69870Y1618D01*
D01*
X69898Y1607D01*
X70223Y1742D01*
D01*
D01*
X70357Y2067D01*
D01*
D01*
D01*
D01*
D01*
X70223Y2392D01*
D01*
D01*
D01*
X70195Y2403D01*
X70195D01*
Y2403D01*
X70195Y2403D01*
Y2403D01*
D01*
D01*
Y2403D01*
D01*
D01*
X70112Y2438D01*
Y5724D01*
X70050Y5876D01*
X68677Y7248D01*
X68571Y7293D01*
X68534Y7381D01*
Y7381D01*
X68534D01*
D01*
Y7381D01*
X68534D01*
X68520Y7414D01*
D01*
D01*
D01*
X68203Y7546D01*
D01*
D01*
D01*
X68170Y7532D01*
Y7532D01*
X68170Y7532D01*
Y7532D01*
D01*
D01*
D01*
D01*
D01*
Y7532D01*
X68100Y7503D01*
X67770Y7886D01*
X67947Y8130D01*
X68048Y8186D01*
D01*
X68316Y8297D01*
X68368Y8422D01*
X68731Y8573D01*
X68788Y8550D01*
X70118D01*
X70270Y8613D01*
X70515Y8858D01*
X70568Y8836D01*
X70836Y8947D01*
X70947Y9214D01*
X70836Y9482D01*
X70568Y9593D01*
X70300Y9482D01*
X70189Y9214D01*
X70211Y9161D01*
X70143Y9094D01*
X69751Y9132D01*
X69697Y9214D01*
X69697Y9214D01*
X69697D01*
X69586Y9482D01*
X69532Y9504D01*
Y13254D01*
X69470Y13406D01*
X68420Y14456D01*
X68268Y14519D01*
X67844D01*
X67693Y14883D01*
X68100Y15290D01*
X68170Y15261D01*
Y15261D01*
D01*
D01*
X68170Y15261D01*
D01*
D01*
D01*
X68170D01*
X68203Y15247D01*
D01*
D01*
D01*
X68520Y15379D01*
D01*
D01*
D01*
D01*
D01*
X68652Y15696D01*
D01*
D01*
X68520Y16014D01*
X68488Y16028D01*
X68488D01*
X68235Y16132D01*
D01*
X68203Y16146D01*
X67885Y16014D01*
X67885Y16014D01*
X67877Y16004D01*
X67618Y16111D01*
X67571Y16111D01*
X67571D01*
X67460D01*
Y16904D01*
X67787Y17123D01*
X67873Y17088D01*
D01*
X67913Y17071D01*
X68220Y17198D01*
X68236Y17239D01*
X68236D01*
X68346Y17504D01*
X68341Y17518D01*
X68543Y17637D01*
X68753Y17625D01*
D02*
G37*
G36*
X28053Y16875D02*
Y8187D01*
X27689Y8037D01*
X26842Y8883D01*
Y16856D01*
X27170Y17075D01*
X27425Y16969D01*
X27726Y17094D01*
X28053Y16875D01*
D02*
G37*
G36*
X64020Y19793D02*
X63772Y19691D01*
X63428Y18861D01*
X63723Y18151D01*
X63504Y17823D01*
X61689D01*
X61537Y17761D01*
X61436Y17659D01*
X61373Y17507D01*
Y15812D01*
X60875D01*
X60802Y15921D01*
Y17835D01*
X61084Y18023D01*
X61084Y18023D01*
Y18023D01*
X61387Y18148D01*
X61512Y18451D01*
X61387Y18753D01*
X61084Y18879D01*
X61084Y18879D01*
X61084Y18879D01*
X60802Y19067D01*
Y19857D01*
X61130Y20076D01*
X61276Y20016D01*
X61544Y20127D01*
X61566Y20180D01*
X63943D01*
X64020Y19793D01*
D02*
G37*
G36*
X60099Y21290D02*
X56581Y17772D01*
X56537Y17791D01*
Y17791D01*
X56537Y17791D01*
X56493Y17809D01*
X56493Y17809D01*
X56191Y17683D01*
X56190Y17682D01*
X55796D01*
X55796Y17683D01*
X55493Y17809D01*
X55191Y17683D01*
X55190Y17682D01*
X54796D01*
X54796Y17683D01*
X54493Y17809D01*
X54191Y17683D01*
X54190Y17682D01*
X53796D01*
X53796Y17683D01*
X53493Y17809D01*
X53493Y17809D01*
X53493Y17809D01*
X53493Y17809D01*
X53493Y17809D01*
X53191Y17683D01*
X53190Y17682D01*
X52796D01*
X52796Y17683D01*
X52493Y17809D01*
X52493Y17809D01*
X52450Y17791D01*
X52450Y17791D01*
Y17791D01*
X52406Y17772D01*
X52151Y18026D01*
X52000Y18089D01*
X51288D01*
X51211Y18475D01*
X51487Y18590D01*
X51487Y18590D01*
Y18590D01*
X51748Y18896D01*
D01*
D01*
X51875Y18590D01*
X52181Y18463D01*
X52487Y18590D01*
X52614Y18896D01*
Y19496D01*
X52487Y19802D01*
X52181Y19929D01*
X51875Y19802D01*
Y19802D01*
X51533Y19748D01*
X51487Y19802D01*
Y19802D01*
X51487Y19802D01*
X51181Y19929D01*
X51064Y19880D01*
X50894Y19994D01*
X50831Y20146D01*
X49711Y21266D01*
X49708Y21267D01*
X49785Y21654D01*
X59948D01*
X60099Y21290D01*
D02*
G37*
G36*
X9721Y4497D02*
X10024Y4371D01*
X10326Y4497D01*
X10327Y4498D01*
X10720D01*
X10721Y4497D01*
X11024Y4371D01*
X11024Y4371D01*
X11326Y4497D01*
X11327Y4498D01*
X11530D01*
X11809Y4220D01*
Y2225D01*
X11872Y2073D01*
X12207Y1738D01*
X12359Y1675D01*
X15943D01*
X16095Y1738D01*
X16444Y2087D01*
X17073Y1827D01*
X17647Y1253D01*
X17496Y889D01*
X12210D01*
X9065Y4034D01*
X9072Y4070D01*
X9233Y4458D01*
X9326Y4497D01*
X9327Y4498D01*
X9720D01*
X9721Y4497D01*
D02*
G37*
G36*
X18747Y2688D02*
X18820Y2718D01*
X19550Y1988D01*
X19400Y1624D01*
X18812D01*
X18165Y2271D01*
X18187Y2324D01*
X18076Y2592D01*
D01*
X18112Y2659D01*
X18465Y2805D01*
X18747Y2688D01*
D02*
G37*
G36*
X31928Y2712D02*
X32273D01*
Y2850D01*
X34769D01*
X34903Y2905D01*
X35230Y2686D01*
Y2017D01*
X35220Y2012D01*
X35109Y1744D01*
X35109Y1744D01*
X35109Y1744D01*
X35105Y1723D01*
X34923Y1624D01*
X31632D01*
X31482Y1988D01*
X31530Y2036D01*
X31592Y2188D01*
Y2712D01*
X31828D01*
Y3107D01*
X31928D01*
Y2712D01*
D02*
G37*
G36*
X71822Y20187D02*
X71746Y19801D01*
X71739Y19798D01*
D01*
X71685Y19776D01*
X71566Y19488D01*
D01*
D01*
D01*
D01*
D01*
X71685Y19201D01*
X71685D01*
D01*
D01*
X71739Y19178D01*
D01*
X71739D01*
D01*
Y19178D01*
Y19178D01*
X71739D01*
D01*
D01*
D01*
D01*
D01*
X71758Y19171D01*
Y18124D01*
X71351Y17718D01*
X70865D01*
Y17718D01*
X70761D01*
X70482Y17996D01*
Y18193D01*
X70420Y18345D01*
X69349Y19416D01*
X69379Y19488D01*
X69282Y19722D01*
X69282D01*
X69260Y19776D01*
X68972Y19895D01*
X68919Y19872D01*
X68919Y19872D01*
X68685Y19776D01*
D01*
X68570Y19896D01*
Y19896D01*
X68570Y19896D01*
X67920Y20546D01*
X67768Y20609D01*
X61876D01*
X61658Y20937D01*
X61703Y21045D01*
X70964D01*
X71822Y20187D01*
D02*
G37*
G36*
X28053Y19485D02*
Y18558D01*
X27726Y18340D01*
X27425Y18464D01*
X27170Y18358D01*
X26842Y18577D01*
Y18985D01*
X27520Y19663D01*
X27573Y19641D01*
X27726Y19704D01*
X28053Y19485D01*
D02*
G37*
G36*
X41153Y10930D02*
Y2382D01*
X41216Y2230D01*
X43083Y364D01*
X42932Y0D01*
X41005D01*
X40787Y327D01*
X40877Y544D01*
X40766Y812D01*
X40712Y834D01*
Y10758D01*
X41040Y10977D01*
X41153Y10930D01*
D02*
G37*
G36*
X29475Y20536D02*
X28846Y19907D01*
X28725Y19957D01*
X28575Y20321D01*
X28625Y20441D01*
X28647Y20494D01*
D01*
D01*
Y20494D01*
Y20494D01*
X28647D01*
X28614Y20572D01*
X28833Y20900D01*
X29325D01*
X29475Y20536D01*
D02*
G37*
G36*
X42875Y18590D02*
X43181Y18463D01*
X43487Y18590D01*
Y18590D01*
X43829Y18643D01*
X43875Y18590D01*
Y18590D01*
X43875Y18590D01*
X44181Y18463D01*
X44487Y18590D01*
Y18590D01*
X44829Y18643D01*
X44875Y18590D01*
Y18590D01*
X44875Y18590D01*
X44918Y18572D01*
X44994Y18186D01*
X44581Y17772D01*
X44537Y17791D01*
Y17791D01*
X44537Y17791D01*
X44493Y17809D01*
X44493Y17809D01*
X44191Y17683D01*
X44190Y17682D01*
X43796D01*
X43796Y17683D01*
X43493Y17809D01*
X43191Y17683D01*
X43190Y17682D01*
X42796D01*
X42796Y17683D01*
X42796Y17683D01*
X42493Y17809D01*
D01*
X42212Y17996D01*
Y18312D01*
X42251Y18492D01*
X42487Y18590D01*
X42487Y18590D01*
Y18590D01*
X42748Y18896D01*
D01*
D01*
X42875Y18590D01*
D02*
G37*
G36*
X40875D02*
X41181Y18463D01*
X41181Y18463D01*
X41181Y18463D01*
X41464Y18273D01*
Y17797D01*
X41191Y17683D01*
X41190Y17682D01*
X40796D01*
X40796Y17683D01*
X40493Y17809D01*
X40493Y17809D01*
X40493Y17809D01*
X40202Y18003D01*
Y18472D01*
X40487Y18590D01*
X40487Y18590D01*
Y18590D01*
X40748Y18896D01*
D01*
D01*
X40875Y18590D01*
D02*
G37*
G36*
X47928Y20069D02*
X47881Y19835D01*
X47511Y19798D01*
X47487Y19802D01*
Y19802D01*
X47181Y19929D01*
X47140Y19912D01*
D01*
X46875Y19802D01*
X46875Y19802D01*
Y19802D01*
X46829Y19748D01*
X46487Y19802D01*
Y19802D01*
X46181Y19929D01*
X46140Y19912D01*
D01*
X45875Y19802D01*
X45875Y19802D01*
Y19802D01*
X45829Y19748D01*
X45487Y19802D01*
Y19802D01*
X45181Y19929D01*
X45140Y19912D01*
D01*
X44875Y19802D01*
X44875Y19802D01*
Y19802D01*
X44829Y19748D01*
X44487Y19802D01*
Y19802D01*
X44181Y19929D01*
X44140Y19912D01*
D01*
X43875Y19802D01*
X43875Y19802D01*
Y19802D01*
X43829Y19748D01*
X43487Y19802D01*
Y19802D01*
X43181Y19929D01*
X42875Y19802D01*
Y19802D01*
X42533Y19748D01*
X42487Y19802D01*
Y19802D01*
X42487Y19802D01*
X42181Y19929D01*
X42032Y19867D01*
X41754Y20146D01*
X41848Y20373D01*
X47678D01*
X47928Y20069D01*
D02*
G37*
G36*
X60286Y20407D02*
X60320Y20327D01*
X60373Y20305D01*
Y19072D01*
X60084Y18879D01*
X60084Y18879D01*
Y18879D01*
X59825Y18771D01*
X59825Y18771D01*
Y18771D01*
X59782Y18753D01*
X59781Y18752D01*
X59387D01*
X59387Y18753D01*
X59134Y18858D01*
Y18451D01*
X59084D01*
Y18401D01*
X58670D01*
X58366Y18096D01*
X58290Y17914D01*
Y12419D01*
X58366Y12237D01*
X58523Y12079D01*
Y11686D01*
X58326Y11488D01*
X58250Y11306D01*
Y7323D01*
X57994Y7152D01*
X57618Y7267D01*
X57552Y7426D01*
X57308Y7527D01*
D01*
X57307Y7530D01*
X57370Y7682D01*
D01*
X57370Y7682D01*
X57370Y7682D01*
Y11742D01*
X57307Y11894D01*
X57075Y12126D01*
X56923Y12189D01*
X54238D01*
X54086Y12126D01*
X53836Y11876D01*
X53773Y11724D01*
X53744Y11705D01*
X53493Y11809D01*
X53406Y11772D01*
X52006Y13172D01*
Y14649D01*
X52455Y15098D01*
X52508Y15076D01*
X52776Y15187D01*
X52858Y15387D01*
Y15387D01*
X52887Y15454D01*
X52776Y15722D01*
X52708Y15750D01*
D01*
X52653Y15773D01*
X52576Y16159D01*
X53406Y16989D01*
X53493Y16953D01*
X53796Y17078D01*
X53796Y17080D01*
X54190D01*
X54191Y17078D01*
X54493Y16953D01*
X54796Y17078D01*
X54796Y17080D01*
X55190D01*
X55191Y17078D01*
X55493Y16953D01*
X55493Y16953D01*
X55796Y17078D01*
X55796Y17080D01*
X56190D01*
X56191Y17078D01*
X56493Y16953D01*
X56493Y16953D01*
X56753Y17060D01*
D01*
Y17060D01*
D01*
X56753D01*
Y17060D01*
D01*
D01*
X56796Y17078D01*
D01*
D01*
D01*
X56921Y17381D01*
D01*
D01*
D01*
X56903Y17424D01*
D01*
D01*
X56903Y17424D01*
X56903D01*
X56903D01*
Y17424D01*
D01*
D01*
Y17424D01*
D01*
X56903D01*
X56885Y17468D01*
X59900Y20484D01*
X60286Y20407D01*
D02*
G37*
G36*
X50114Y20255D02*
X50038Y19869D01*
X49875Y19802D01*
X49875Y19802D01*
Y19802D01*
X49829Y19748D01*
X49487Y19802D01*
Y19802D01*
X49181Y19929D01*
X49140Y19912D01*
D01*
X48875Y19802D01*
X48875D01*
D01*
X48865D01*
X48834Y19876D01*
X48175Y20536D01*
X48325Y20900D01*
X49470D01*
X50114Y20255D01*
D02*
G37*
G36*
X53952Y3047D02*
X54104Y2984D01*
X55067D01*
X55743Y2308D01*
X55592Y1944D01*
X55522D01*
X55521Y1945D01*
X55219Y2071D01*
X55219Y2071D01*
X55175Y2053D01*
X55175Y2053D01*
Y2053D01*
X54972Y1969D01*
X54932Y1995D01*
X54870Y2147D01*
X54720Y2296D01*
X54568Y2359D01*
X54018D01*
X53866Y2296D01*
X53593Y2023D01*
X53206Y2100D01*
X52940Y2744D01*
Y3545D01*
X53303Y3696D01*
X53952Y3047D01*
D02*
G37*
G36*
X17021Y14598D02*
X16938Y14397D01*
X16938D01*
D01*
D01*
X16938Y14397D01*
D01*
Y14397D01*
D01*
D01*
X16927Y14370D01*
D01*
D01*
D01*
X17061Y14045D01*
D01*
D01*
D01*
X17089Y14034D01*
D01*
D01*
D01*
Y14034D01*
X17089Y14034D01*
Y14034D01*
D01*
D01*
Y14034D01*
D01*
D01*
X17172Y13999D01*
Y13511D01*
X17057Y13396D01*
X16994Y13244D01*
Y12932D01*
X16667Y12714D01*
X16512Y12778D01*
Y14521D01*
X16860Y14706D01*
X17021Y14598D01*
D02*
G37*
G36*
X6098Y17179D02*
Y16679D01*
X6272Y16258D01*
X6693Y16084D01*
X6967Y16197D01*
X7185Y15870D01*
X5687Y14371D01*
X5323Y14522D01*
Y14723D01*
X5260Y14875D01*
X4768Y15367D01*
X4898Y15681D01*
X4679Y16209D01*
X4529Y16271D01*
Y16665D01*
X4679Y16727D01*
X4809Y17041D01*
X5346D01*
X5498Y17104D01*
X5727Y17333D01*
X6098Y17179D01*
D02*
G37*
G36*
X11837Y15029D02*
X12010Y14770D01*
X11975Y14685D01*
X12010Y14600D01*
X11821Y14318D01*
X11706Y14306D01*
X11419Y14393D01*
Y14977D01*
X11651Y15047D01*
X11837Y15029D01*
D02*
G37*
G36*
X76605Y15405D02*
X76568Y15317D01*
X76694Y15014D01*
X76695Y15014D01*
Y14620D01*
X76694Y14619D01*
X76568Y14317D01*
X76568D01*
X76694Y14014D01*
X76695Y14014D01*
Y13620D01*
X76694Y13619D01*
X76568Y13317D01*
X76568D01*
X76694Y13014D01*
X76996Y12889D01*
X77273Y13004D01*
X77601Y12785D01*
Y12422D01*
X77781D01*
Y10928D01*
X77844Y10776D01*
X78885Y9735D01*
Y9262D01*
X78885Y9262D01*
X78885D01*
X78885Y9248D01*
X79006Y8958D01*
X78978Y8946D01*
X78978Y8946D01*
X78853Y8644D01*
X78853D01*
X78978Y8341D01*
X78980Y8341D01*
Y7990D01*
X78761Y7895D01*
X78592Y7858D01*
X75322Y10906D01*
Y14775D01*
X75376Y14797D01*
X75458Y14997D01*
D01*
X75487Y15064D01*
X75376Y15332D01*
X75308Y15360D01*
D01*
X75108Y15443D01*
X75090Y15436D01*
X74762Y15655D01*
Y16043D01*
X74700Y16195D01*
X73420Y17475D01*
X73268Y17538D01*
X72268D01*
X72124Y17884D01*
X72187Y18035D01*
Y19171D01*
X72260Y19201D01*
X72285Y19261D01*
X72671Y19338D01*
X76605Y15405D01*
D02*
G37*
G36*
X37114Y17264D02*
X37191Y17078D01*
X37493Y16953D01*
X37493Y16953D01*
X37493Y16953D01*
X37773Y16766D01*
Y15423D01*
X37241Y14891D01*
X37188Y14913D01*
X36964Y14821D01*
X36920Y14802D01*
X36920Y14802D01*
X36920Y14802D01*
X36837Y14602D01*
Y14602D01*
X36809Y14534D01*
X36920Y14267D01*
X36988Y14238D01*
D01*
X37051Y14212D01*
X37127Y13826D01*
X36666Y13365D01*
X36603Y13213D01*
X36493D01*
X36215Y13491D01*
Y16829D01*
X36728Y17341D01*
X37114Y17264D01*
D02*
G37*
G36*
X25965Y21267D02*
X25963Y21266D01*
X24376Y19680D01*
X24313Y19528D01*
Y14454D01*
X24263Y14420D01*
X23916Y14606D01*
Y19646D01*
X23853Y19798D01*
X22360Y21290D01*
X22511Y21654D01*
X25888D01*
X25965Y21267D01*
D02*
G37*
G36*
X45894Y16146D02*
X45311Y15563D01*
X45236Y15381D01*
Y11702D01*
X45191Y11683D01*
X45190Y11682D01*
X44796D01*
X44796Y11683D01*
X44493Y11809D01*
X44191Y11683D01*
X44190Y11682D01*
X43796D01*
X43796Y11683D01*
X43493Y11809D01*
X43493Y11809D01*
X43493Y11809D01*
X43212Y11996D01*
Y13805D01*
X43266Y13827D01*
X43348Y14027D01*
D01*
X43377Y14094D01*
X43266Y14362D01*
X43198Y14390D01*
D01*
X43184Y14396D01*
X43107Y14782D01*
X44835Y16510D01*
X45744D01*
X45894Y16146D01*
D02*
G37*
G36*
X65372Y14818D02*
X65497Y14516D01*
X65497Y14516D01*
X65499Y14515D01*
Y14121D01*
X65497Y14121D01*
X65372Y13818D01*
X65372Y13818D01*
X65372Y13818D01*
X65185Y13539D01*
X63901D01*
X63227Y13818D01*
X63102Y14121D01*
D01*
D01*
X63101Y14121D01*
Y14515D01*
X63102Y14516D01*
D01*
D01*
X63227Y14818D01*
X63907Y15100D01*
X64692D01*
X65372Y14818D01*
D02*
G37*
G36*
X34060Y19944D02*
X34273Y19613D01*
X33970Y18881D01*
X34313Y18051D01*
X35143Y17707D01*
X35973Y18051D01*
X36317Y18881D01*
X36043Y19542D01*
X36267Y19865D01*
X36624Y19853D01*
X36781Y19696D01*
Y19246D01*
X37181D01*
Y19146D01*
X36781D01*
Y18696D01*
X36923Y18553D01*
Y18265D01*
X35776Y17117D01*
X35700Y16935D01*
Y13495D01*
X35314Y13418D01*
X35218Y13650D01*
X35108Y13695D01*
Y16335D01*
X35045Y16487D01*
X33266Y18267D01*
X33302Y18354D01*
X33177Y18657D01*
X32874Y18782D01*
X32571Y18657D01*
X32446Y18354D01*
Y18354D01*
X32446Y18354D01*
X32571Y18052D01*
X32573Y18051D01*
Y17657D01*
X32571Y17657D01*
X32446Y17354D01*
X32446Y17354D01*
X32571Y17052D01*
X32573Y17051D01*
Y16657D01*
X32571Y16657D01*
X32446Y16354D01*
X32446D01*
X32410Y16069D01*
X32410Y16069D01*
X32258Y16006D01*
X32166Y15914D01*
X32141Y15854D01*
X31755Y15777D01*
X30266Y17267D01*
X30302Y17354D01*
X30194Y17614D01*
X30194Y17614D01*
X30194D01*
X30177Y17657D01*
X30177Y17657D01*
X29947Y17886D01*
D01*
X30177Y17657D01*
Y17959D01*
X30269D01*
Y18750D01*
X29592D01*
Y19345D01*
X30324Y20076D01*
X34060Y19944D01*
D02*
G37*
G36*
X15437Y13931D02*
X15712Y14045D01*
X15712D01*
X15712D01*
X16083Y13891D01*
Y12153D01*
X15328Y11399D01*
X14896Y11220D01*
X14569Y11438D01*
Y14226D01*
X14955Y14303D01*
X15050Y14072D01*
X15050D01*
X15061Y14045D01*
X15337Y13931D01*
Y14370D01*
X15437D01*
Y13931D01*
D02*
G37*
G36*
X21516Y14053D02*
X21297Y13725D01*
X21274Y13735D01*
X21274Y13735D01*
X21220Y13757D01*
X20933Y13638D01*
X20911Y13584D01*
X20911D01*
X20814Y13350D01*
X20844Y13278D01*
X19746Y12179D01*
X19683Y12028D01*
Y10017D01*
X19600Y9982D01*
D01*
Y9982D01*
Y9982D01*
X19600Y9982D01*
Y9982D01*
X19573Y9971D01*
D01*
D01*
D01*
X19438Y9646D01*
D01*
D01*
D01*
D01*
D01*
X19573Y9321D01*
X19600Y9309D01*
X19600Y9309D01*
X19738Y9252D01*
X19815Y8866D01*
X18687Y7737D01*
X18301Y7814D01*
X18223Y8002D01*
X18195Y8014D01*
Y8014D01*
X18195Y8014D01*
X18155Y8030D01*
Y9293D01*
X18223Y9321D01*
X18337Y9596D01*
X17459D01*
X17573Y9321D01*
X17640Y9293D01*
Y8030D01*
X17600Y8014D01*
D01*
Y8014D01*
Y8014D01*
X17600Y8014D01*
Y8014D01*
X17573Y8002D01*
D01*
D01*
D01*
X17459Y7727D01*
X17898D01*
Y7627D01*
X17459D01*
X17573Y7352D01*
Y7352D01*
X17268Y7299D01*
X17268Y7299D01*
Y7299D01*
D01*
D01*
X17268Y7299D01*
X17116Y7236D01*
X16317Y6437D01*
X15953Y6588D01*
Y7085D01*
X15890Y7236D01*
X15415Y7711D01*
X15434Y7756D01*
X15434D01*
Y7756D01*
Y7756D01*
X15434D01*
D01*
D01*
Y7756D01*
X15451Y7799D01*
D01*
D01*
D01*
X15326Y8102D01*
D01*
D01*
D01*
X15283Y8120D01*
D01*
X15283Y8120D01*
D01*
D01*
D01*
D01*
Y8120D01*
D01*
D01*
X15238Y8138D01*
Y10029D01*
X17106Y11897D01*
X17209Y11854D01*
X17526Y11986D01*
X17526Y11986D01*
X17526Y11986D01*
X17526D01*
X17531Y11997D01*
X17794Y11888D01*
D01*
X17794D01*
X17794D01*
X17794Y11888D01*
X17840Y11888D01*
D01*
D01*
X17951D01*
X17951Y11888D01*
Y10235D01*
X17898Y10105D01*
X17573Y9971D01*
X17573Y9971D01*
X17561Y9944D01*
X17561D01*
X17561Y9944D01*
X17459Y9696D01*
X18337D01*
X18329Y9713D01*
X18391Y9775D01*
X18466Y9957D01*
Y11888D01*
X18624D01*
Y12253D01*
X18209D01*
Y12303D01*
X18159D01*
Y12718D01*
X17840D01*
X17840Y12718D01*
Y12718D01*
X17794Y12718D01*
D01*
Y12718D01*
X17794D01*
D01*
X17649Y12771D01*
X17423Y12996D01*
Y13155D01*
X17538Y13270D01*
X17601Y13422D01*
Y13999D01*
X17684Y14034D01*
D01*
Y14034D01*
Y14034D01*
X17684Y14034D01*
Y14034D01*
D01*
D01*
X17712Y14045D01*
D01*
D01*
D01*
X17846Y14370D01*
D01*
D01*
D01*
D01*
D01*
X17712Y14695D01*
X17684Y14707D01*
X17684Y14707D01*
X17643Y14724D01*
X17720Y15110D01*
X20459D01*
X21516Y14053D01*
D02*
G37*
G36*
X27751Y20826D02*
X27778Y20763D01*
X27710Y20540D01*
X27588Y20392D01*
X27573Y20399D01*
X27305Y20288D01*
X27305Y20288D01*
X27305Y20288D01*
X27305D01*
X27299Y20273D01*
X27194Y20020D01*
X27216Y19967D01*
X26476Y19226D01*
X26413Y19074D01*
Y18642D01*
X26086Y18423D01*
X26038Y18443D01*
X25770Y18332D01*
X25659Y18064D01*
X25770Y17797D01*
X25823Y17775D01*
Y11773D01*
X24884Y10834D01*
X24492Y10873D01*
X24412Y10992D01*
X24412Y10992D01*
Y10992D01*
D01*
D01*
X24287Y11295D01*
X24287Y11295D01*
X24287D01*
D01*
X24287D01*
D01*
X24262Y11314D01*
X24380Y11597D01*
X24380Y11611D01*
X24380Y11611D01*
X24380D01*
Y12387D01*
X23589D01*
Y11901D01*
X22254Y10565D01*
X21538D01*
X21530Y10584D01*
D01*
D01*
Y10584D01*
X21530D01*
X21530D01*
X21508Y10638D01*
D01*
D01*
Y10638D01*
X21220Y10757D01*
D01*
D01*
D01*
X21167Y10735D01*
X21167D01*
D01*
D01*
X21167D01*
D01*
D01*
X21167Y10735D01*
D01*
D01*
X20933Y10638D01*
X20814Y10350D01*
X20933Y10063D01*
X21167Y9966D01*
Y9966D01*
X21167D01*
X21217Y9945D01*
X21140Y9559D01*
X20598D01*
X20598Y9559D01*
X20598Y9559D01*
X20357Y9646D01*
X20357D01*
X20223Y9971D01*
X20195Y9982D01*
Y9982D01*
X20195Y9982D01*
X20112Y10017D01*
Y11939D01*
X21148Y12974D01*
X21220Y12944D01*
X21454Y13041D01*
Y13041D01*
X21508Y13063D01*
X21627Y13350D01*
X21605Y13404D01*
X21605Y13404D01*
X21595Y13427D01*
X21923Y13646D01*
X22506Y13063D01*
X22658Y13000D01*
X24018D01*
X24170Y13063D01*
X24680Y13573D01*
X24742Y13724D01*
Y19439D01*
X26203Y20900D01*
X27702D01*
X27751Y20826D01*
D02*
G37*
G36*
X52210Y17002D02*
X51880Y16206D01*
X50836Y15027D01*
D01*
X50836Y15027D01*
X50836D01*
X50773Y14875D01*
Y12039D01*
X50492Y11889D01*
X50212Y12039D01*
Y15248D01*
X51645Y16681D01*
X51708Y16833D01*
Y17042D01*
X51796Y17078D01*
X51796Y17080D01*
X52175D01*
X52210Y17002D01*
D02*
G37*
G36*
X60373Y17711D02*
Y16542D01*
X60203Y16132D01*
X60128Y16109D01*
X59802Y16174D01*
Y17343D01*
X59965Y17736D01*
X60076Y17770D01*
X60373Y17711D01*
D02*
G37*
G36*
X59201Y17741D02*
X59373Y17326D01*
Y16070D01*
X59095Y15921D01*
X58805Y16076D01*
Y17247D01*
X59004Y17727D01*
X59136Y17754D01*
X59201Y17741D01*
D02*
G37*
G36*
X16078Y3291D02*
Y2328D01*
X15854Y2105D01*
X15189D01*
X14970Y2432D01*
X15055Y2638D01*
X15013Y2741D01*
X15714Y3442D01*
X16078Y3291D01*
D02*
G37*
G36*
X33873Y16931D02*
X33812Y16543D01*
X33610Y16459D01*
X33186Y16635D01*
X33177Y16657D01*
X33175Y16657D01*
Y17051D01*
X33177Y17052D01*
X33177Y17052D01*
X33198Y17067D01*
X33317Y17122D01*
X33576Y17185D01*
X33873Y16931D01*
D02*
G37*
G36*
X36532Y4092D02*
X36603Y4044D01*
Y2732D01*
X36353Y2129D01*
X35976Y2015D01*
X35745Y2169D01*
Y3719D01*
X36239Y4213D01*
X36532Y4092D01*
D02*
G37*
G36*
X7010Y19997D02*
X6881Y19685D01*
X7287Y18705D01*
X8268Y18298D01*
X9248Y18705D01*
X9327Y18894D01*
X9713Y18817D01*
Y18397D01*
X7502Y16187D01*
X7175Y16405D01*
X7288Y16679D01*
Y17179D01*
X7114Y17600D01*
X6693Y17774D01*
X6575Y17725D01*
X6331Y17827D01*
X6190Y17921D01*
Y19723D01*
X6683Y20216D01*
X7010Y19997D01*
D02*
G37*
G36*
X60387Y15115D02*
X60387D01*
X60387Y15115D01*
X60387Y15115D01*
X60689D01*
Y15022D01*
X61373D01*
Y14053D01*
X60381Y13061D01*
X60328Y13083D01*
X60130Y13001D01*
X59802Y13220D01*
Y14801D01*
X60084Y14989D01*
X60084Y14989D01*
Y14989D01*
X60343Y15097D01*
X60343Y15097D01*
Y15097D01*
X60387Y15115D01*
X60387Y15115D01*
X60623Y15351D01*
X60387Y15115D01*
D02*
G37*
G36*
X31653Y15272D02*
Y14714D01*
X31600Y14692D01*
X31513Y14483D01*
X31489Y14424D01*
D01*
Y14424D01*
X31489D01*
X31572Y14224D01*
X31572Y14224D01*
X31572D01*
X31600Y14157D01*
D01*
Y14157D01*
X31868Y14046D01*
X32103Y13478D01*
Y8683D01*
X31489Y8069D01*
X31125Y8220D01*
Y9967D01*
X31427Y10092D01*
X31541Y10367D01*
X30663D01*
X30675Y10339D01*
X30610Y10183D01*
Y7552D01*
X29933D01*
Y7552D01*
X29871D01*
X29592Y7831D01*
Y10604D01*
X30992Y12003D01*
X31075Y11969D01*
Y11969D01*
D01*
D01*
X31075Y11969D01*
D01*
D01*
D01*
X31075D01*
X31102Y11958D01*
D01*
D01*
D01*
X31427Y12092D01*
D01*
D01*
D01*
X31439Y12119D01*
D01*
Y12119D01*
D01*
D01*
X31439D01*
X31439Y12119D01*
X31439D01*
D01*
D01*
X31439D01*
D01*
D01*
X31551Y12390D01*
D01*
X31562Y12417D01*
X31427Y12742D01*
D01*
D01*
X31102Y12877D01*
X31075Y12866D01*
D01*
X30805Y12754D01*
D01*
Y12754D01*
Y12754D01*
X30805Y12754D01*
Y12754D01*
X30777Y12742D01*
D01*
D01*
D01*
X30643Y12417D01*
D01*
D01*
D01*
X30654Y12390D01*
D01*
X30654D01*
X30654Y12390D01*
X30654D01*
D01*
D01*
D01*
D01*
D01*
X30654D01*
X30688Y12307D01*
X29416Y11035D01*
X29052Y11186D01*
Y15358D01*
X29130Y15390D01*
X29494Y15239D01*
X29571Y15052D01*
X29874Y14926D01*
X30177Y15052D01*
X30302Y15354D01*
X30302D01*
X30177Y15657D01*
X30175Y15657D01*
Y16051D01*
X30177Y16052D01*
X30194Y16095D01*
X30194Y16095D01*
X30194D01*
X30245Y16217D01*
X30631Y16294D01*
X31653Y15272D01*
D02*
G37*
G36*
X34679Y16011D02*
Y13695D01*
X34568Y13650D01*
X34433Y13324D01*
X34568Y12999D01*
X34866Y12876D01*
D01*
X34893Y12865D01*
X35218Y12999D01*
X35230Y13027D01*
X35230D01*
X35314Y13230D01*
X35700Y13154D01*
Y12495D01*
X34961Y11756D01*
X34943Y11763D01*
Y11374D01*
X35332D01*
X35325Y11392D01*
X36140Y12207D01*
X36215Y12389D01*
X36325D01*
X36603Y12110D01*
Y6985D01*
X36217Y6908D01*
X35973Y7496D01*
X35143Y7840D01*
X34313Y7496D01*
X34313D01*
D01*
D01*
X34313Y7496D01*
D01*
D01*
Y7496D01*
X34096Y7529D01*
X34087Y7551D01*
X33887Y7634D01*
Y7634D01*
X33887D01*
X33887D01*
Y7634D01*
D01*
X33819Y7662D01*
D01*
D01*
D01*
X33551Y7551D01*
Y7551D01*
D01*
D01*
X33523Y7484D01*
Y7484D01*
D01*
D01*
Y7484D01*
D01*
D01*
Y7484D01*
X33523Y7484D01*
X33477Y7372D01*
X32273D01*
Y7552D01*
X32094D01*
X31943Y7916D01*
X32470Y8443D01*
X32532Y8594D01*
Y11619D01*
X32896Y11769D01*
X33523Y11142D01*
X33705Y11067D01*
X34540D01*
X34557Y11027D01*
D01*
X34557D01*
X34557D01*
X34557Y11027D01*
X34557D01*
D01*
Y11027D01*
D01*
X34568Y10999D01*
D01*
D01*
D01*
X34843Y10885D01*
Y11324D01*
Y11763D01*
X34568Y11650D01*
D01*
D01*
D01*
X34557Y11622D01*
D01*
D01*
X34557D01*
X34557Y11622D01*
X34557D01*
D01*
D01*
X34557D01*
D01*
D01*
X34540Y11582D01*
X33812D01*
X33131Y12262D01*
Y15033D01*
X33177Y15052D01*
X33281Y15304D01*
X32874D01*
Y15404D01*
X33281D01*
X33254Y15470D01*
X33368Y15640D01*
X33520Y15703D01*
X33702Y15885D01*
X33810Y15840D01*
Y15840D01*
X33810D01*
X33810D01*
Y15840D01*
D01*
D01*
X33810D01*
X33878Y15812D01*
D01*
D01*
D01*
X34146Y15923D01*
Y15923D01*
D01*
D01*
X34174Y15991D01*
X34174D01*
D01*
D01*
D01*
Y15991D01*
D01*
Y15991D01*
D01*
D01*
Y15991D01*
D01*
X34174Y15991D01*
X34256Y16188D01*
X34372Y16216D01*
X34679Y16011D01*
D02*
G37*
G36*
X65408Y15906D02*
X65372Y15818D01*
X65372Y15818D01*
X65372Y15818D01*
X65179Y15529D01*
X63925D01*
X63227Y15818D01*
X63102Y16121D01*
X63101Y16121D01*
Y16515D01*
X63102Y16516D01*
X63120Y16559D01*
X63120Y16559D01*
X63120D01*
X63227Y16818D01*
X63227Y16818D01*
X63227Y16818D01*
X63414Y17097D01*
X64217D01*
X65408Y15906D01*
D02*
G37*
%LPC*%
G36*
X61689Y4265D02*
X61402Y4146D01*
X61282Y3858D01*
X61402Y3571D01*
X61689Y3452D01*
X61976Y3571D01*
X62096Y3858D01*
X61976Y4146D01*
X61689Y4265D01*
D02*
G37*
G36*
X64689D02*
X64402Y4146D01*
X64282Y3858D01*
X64402Y3571D01*
X64689Y3452D01*
X64976Y3571D01*
X65096Y3858D01*
X64976Y4146D01*
X64689Y4265D01*
D02*
G37*
G36*
X79134Y3355D02*
X78153Y2949D01*
X77872Y2270D01*
X77478D01*
X77475Y2277D01*
X77475D01*
X77453Y2331D01*
X77165Y2450D01*
X77111Y2428D01*
X77111Y2428D01*
X76878Y2331D01*
X76759Y2043D01*
X76856Y1810D01*
X76856D01*
X76878Y1756D01*
X77165Y1637D01*
X77219Y1659D01*
X77219Y1659D01*
X77453Y1756D01*
X77915Y1565D01*
X78153Y988D01*
X79134Y582D01*
X80114Y988D01*
X80521Y1969D01*
X80114Y2949D01*
X79134Y3355D01*
D02*
G37*
G36*
X5114Y1978D02*
X4778D01*
Y1642D01*
X5016Y1740D01*
X5016Y1740D01*
D01*
D01*
X5049Y1821D01*
X5114Y1978D01*
D02*
G37*
G36*
X65467Y2474D02*
Y2117D01*
X65824D01*
X65720Y2369D01*
X65467Y2474D01*
D02*
G37*
G36*
X67848Y2506D02*
X67573Y2392D01*
D01*
D01*
D01*
X67561Y2365D01*
D01*
D01*
X67561D01*
X67561Y2365D01*
X67561D01*
D01*
D01*
X67561D01*
D01*
D01*
X67459Y2117D01*
X67848D01*
Y2506D01*
D02*
G37*
G36*
X4678Y1978D02*
X4343D01*
X4441Y1740D01*
X4678Y1642D01*
Y1978D01*
D02*
G37*
G36*
X67848Y2017D02*
X67459D01*
X67573Y1742D01*
X67600Y1730D01*
Y1730D01*
X67848Y1628D01*
Y2017D01*
D02*
G37*
G36*
X68337D02*
X67948D01*
Y1628D01*
X68195Y1730D01*
D01*
Y1730D01*
Y1730D01*
X68195Y1730D01*
Y1730D01*
D01*
D01*
X68223Y1742D01*
D01*
D01*
D01*
X68337Y2017D01*
D02*
G37*
G36*
X65824D02*
X65467D01*
Y1660D01*
X65720Y1764D01*
X65824Y2017D01*
D02*
G37*
G36*
X71667Y4887D02*
X70853D01*
X70957Y4634D01*
X70959Y4634D01*
Y4240D01*
X70957Y4240D01*
X70832Y3937D01*
X70832D01*
X70957Y3634D01*
X71260Y3509D01*
X71562Y3634D01*
X71688Y3937D01*
X71688D01*
X71562Y4240D01*
X71561Y4240D01*
Y4634D01*
X71562Y4634D01*
X71667Y4887D01*
D02*
G37*
G36*
X19425Y18464D02*
X18897Y18245D01*
X18678Y17717D01*
X18897Y17188D01*
X19425Y16969D01*
X19954Y17188D01*
X20173Y17717D01*
X19954Y18245D01*
X19425Y18464D01*
D02*
G37*
G36*
X30177Y17657D02*
Y17657D01*
X30177Y17657D01*
X30177Y17657D01*
D02*
G37*
G36*
X59034Y18858D02*
X58825Y18771D01*
D01*
Y18771D01*
D01*
X58825D01*
Y18771D01*
X58782Y18753D01*
D01*
D01*
D01*
X58677Y18501D01*
X59034D01*
Y18858D01*
D02*
G37*
G36*
X78046Y16224D02*
Y15867D01*
X78403D01*
X78299Y16119D01*
X78046Y16224D01*
D02*
G37*
G36*
X15337Y16782D02*
X15061Y16668D01*
X14948Y16393D01*
X15337D01*
Y16782D01*
D02*
G37*
G36*
X17567Y19025D02*
X15918D01*
X16071Y18654D01*
X16485Y18483D01*
Y17805D01*
X15454Y16775D01*
X15437Y16782D01*
Y16393D01*
X15826D01*
X15818Y16411D01*
X16924Y17517D01*
X17000Y17699D01*
Y18483D01*
X17413Y18654D01*
X17567Y19025D01*
D02*
G37*
G36*
X16692Y19670D02*
X16492D01*
X16071Y19496D01*
X15918Y19125D01*
X16692D01*
Y19670D01*
D02*
G37*
G36*
X16992D02*
X16792D01*
Y19125D01*
X17567D01*
X17413Y19496D01*
X16992Y19670D01*
D02*
G37*
G36*
X77328Y19730D02*
X77053Y19616D01*
X77042Y19589D01*
X77042D01*
X76939Y19341D01*
X77328D01*
Y19730D01*
D02*
G37*
G36*
X75378Y19751D02*
X75053Y19616D01*
X74918Y19291D01*
X75053Y18966D01*
X75378Y18832D01*
X75703Y18966D01*
X75838Y19291D01*
X75703Y19616D01*
X75378Y19751D01*
D02*
G37*
G36*
X4100Y19557D02*
X3622Y19359D01*
X3424Y18880D01*
X4100D01*
Y19557D01*
D02*
G37*
G36*
X4200D02*
Y18880D01*
X4877D01*
X4679Y19359D01*
X4200Y19557D01*
D02*
G37*
G36*
X18624Y12718D02*
X18259D01*
Y12353D01*
X18624D01*
Y12718D01*
D02*
G37*
G36*
X71925Y11367D02*
X71002D01*
X71105Y11120D01*
X71105Y11119D01*
X71105D01*
X71116Y11092D01*
X71441Y10958D01*
X71540Y10718D01*
Y6332D01*
X70865D01*
Y5555D01*
D01*
X70865Y5542D01*
X70979Y5265D01*
X70957Y5240D01*
X70957D01*
X70853Y4987D01*
X71674D01*
X71980Y5293D01*
X72055Y5475D01*
Y11061D01*
X71980Y11243D01*
X71980Y11243D01*
X71980Y11243D01*
X71925Y11367D01*
D02*
G37*
G36*
X59246Y6643D02*
X58857D01*
Y6254D01*
X59132Y6368D01*
X59246Y6643D01*
D02*
G37*
G36*
X45276Y9105D02*
X44962Y8975D01*
X44832Y8661D01*
X44962Y8348D01*
X45276Y8218D01*
X45589Y8348D01*
X45719Y8661D01*
X45589Y8975D01*
X45276Y9105D01*
D02*
G37*
G36*
X43768Y4621D02*
Y4157D01*
X44232D01*
X44096Y4485D01*
X43768Y4621D01*
D02*
G37*
G36*
X79231Y4594D02*
X78874D01*
X78978Y4341D01*
X79231Y4237D01*
Y4594D01*
D02*
G37*
G36*
X79688D02*
X79331D01*
Y4237D01*
X79583Y4341D01*
X79688Y4594D01*
D02*
G37*
G36*
X31152Y10856D02*
Y10467D01*
X31541D01*
X31427Y10742D01*
X31152Y10856D01*
D02*
G37*
G36*
X12155Y11261D02*
X11770D01*
Y10877D01*
X12155D01*
Y11261D01*
D02*
G37*
G36*
X35332Y11274D02*
X34943D01*
Y10885D01*
X35218Y10999D01*
X35230Y11027D01*
X35230Y11027D01*
X35332Y11274D01*
D02*
G37*
G36*
X50208Y9100D02*
Y8711D01*
X50597D01*
X50483Y8987D01*
X50208Y9100D01*
D02*
G37*
G36*
X12639Y10777D02*
X12255D01*
Y10392D01*
X12639D01*
Y10777D01*
D02*
G37*
G36*
X31052Y10856D02*
X30777Y10742D01*
X30663Y10467D01*
X31052D01*
Y10856D01*
D02*
G37*
%LPD*%
D10*
X9218Y13948D02*
Y15917D01*
Y10011D02*
Y11980D01*
X1253Y9872D02*
X5135D01*
X5488Y10224D01*
Y11864D01*
X7572Y13948D01*
X9218D01*
X901Y11447D02*
X1985Y12531D01*
X901Y10224D02*
Y11447D01*
Y10224D02*
X1253Y9872D01*
D11*
X43392Y8661D02*
Y9964D01*
X43493Y10066D01*
Y11381D01*
X29874Y16354D02*
Y17354D01*
X17209Y12303D02*
Y13244D01*
X17387Y13422D01*
Y14370D01*
X39322Y1626D02*
Y4660D01*
X68203Y7096D02*
X68526D01*
X69898Y5724D01*
Y2067D02*
Y5724D01*
X54448Y9335D02*
X56493Y11381D01*
X54448Y4872D02*
Y9335D01*
X54219Y4643D02*
X54448Y4872D01*
X37493Y11381D02*
X39988Y13875D01*
Y18894D01*
X40181D02*
Y19196D01*
X77996Y10928D02*
X79281Y9644D01*
X77996Y10928D02*
Y12817D01*
X10818Y19075D02*
X10827D01*
X1728Y2767D02*
X3518Y4556D01*
X1728Y2028D02*
Y2767D01*
X15024Y10118D02*
X17209Y12303D01*
X15024Y7799D02*
Y10118D01*
X9928Y18308D02*
Y19724D01*
X62800Y14818D02*
X63296Y15314D01*
X66158D01*
X66498Y14974D01*
X67481D01*
X68203Y15696D01*
X21220Y10350D02*
X22343D01*
X23984Y11992D01*
X60084Y15417D02*
X60588Y15921D01*
Y20594D01*
X48181Y18474D02*
Y19196D01*
X55219Y4643D02*
X55997Y3864D01*
X56358D01*
X56718Y4224D01*
Y7244D01*
X53988Y11724D02*
X54238Y11974D01*
X53988Y6744D02*
Y11724D01*
X29378Y10693D02*
X31102Y12417D01*
X20519Y5164D02*
X26978D01*
X19589Y6095D02*
X20519Y5164D01*
X67548Y8564D02*
X68048D01*
X66488Y9624D02*
X67548Y8564D01*
X66488Y9624D02*
Y9974D01*
X66138Y10324D02*
X66488Y9974D01*
X65308Y10324D02*
X66138D01*
X64308Y11324D02*
X65308Y10324D01*
X62298Y16818D02*
X62800D01*
X65009Y17609D02*
X65800Y16818D01*
X61689Y17609D02*
X65009D01*
X61588Y17507D02*
X61689Y17609D01*
X61588Y13964D02*
Y17507D01*
X60328Y12704D02*
X61588Y13964D01*
X69008Y17575D02*
X71260Y15323D01*
X69008Y17575D02*
Y18134D01*
X68972Y19488D02*
X70268Y18193D01*
Y17324D02*
Y18193D01*
Y17324D02*
X70768Y16824D01*
X50219Y4643D02*
X50468Y4394D01*
Y2984D02*
Y4394D01*
X52218Y1643D02*
X52725Y2149D01*
X53070Y5137D02*
X53429Y5495D01*
Y7204D01*
X53628Y7404D01*
Y10246D01*
X52493Y11381D02*
X53628Y10246D01*
X53132Y8188D02*
X53178Y8234D01*
X53132Y5840D02*
Y8188D01*
X56718Y1364D02*
X56933Y1149D01*
X58712D01*
Y2324D01*
X61588Y5200D01*
Y9324D01*
X61268Y9644D02*
X61588Y9324D01*
X59759Y9644D02*
X61268D01*
X59179Y10224D02*
X59759Y9644D01*
X59179Y10224D02*
Y10809D01*
X59588Y11218D01*
Y17954D01*
X60084Y18451D01*
X63203Y852D02*
X64417Y2067D01*
X55310Y852D02*
X63203D01*
X54718Y1444D02*
X55310Y852D01*
X53718Y1844D02*
X54018Y2144D01*
X50718Y2104D02*
X50948Y2334D01*
Y4372D01*
X51219Y4643D01*
X30878Y3657D02*
Y5614D01*
X53718Y4194D02*
Y5094D01*
Y4194D02*
X54268Y3644D01*
X21273Y6095D02*
X22342Y7164D01*
X20431Y3095D02*
X20912Y2613D01*
X29989D01*
X30448Y2154D01*
X58418Y2964D02*
X61084Y5631D01*
Y8849D01*
X70941Y12402D02*
X71260Y12720D01*
Y15323D01*
X51718Y2142D02*
Y5353D01*
X51219Y1643D02*
X51718Y2142D01*
X64306Y17312D02*
X65800Y15818D01*
X62183Y17312D02*
X64306D01*
X61948Y17076D02*
X62183Y17312D01*
X65800Y14818D02*
X66313Y14304D01*
X68268D01*
X69318Y13254D01*
Y9214D02*
Y13254D01*
X36322Y1626D02*
X36818Y2122D01*
Y13213D01*
X39493Y15888D01*
Y17381D01*
X17808Y2324D02*
X18723Y1409D01*
X34923D01*
X35038Y1294D01*
X35990D01*
X36322Y1626D01*
X37818Y9705D02*
X39493Y11381D01*
X37818Y2122D02*
Y9705D01*
X37322Y1626D02*
X37818Y2122D01*
X17063Y4038D02*
Y6095D01*
X16589Y3564D02*
X17063Y4038D01*
X16589Y2614D02*
Y3564D01*
Y2614D02*
X18229Y974D01*
X36670D01*
X37322Y1626D01*
X30328Y3107D02*
X30878Y3657D01*
X57284Y6278D02*
Y7158D01*
Y6278D02*
X57718Y5844D01*
Y2144D02*
Y5844D01*
Y2144D02*
X58218Y1643D01*
X31878Y7157D02*
X33830D01*
X75108Y10817D02*
X79281Y6644D01*
X75108Y10817D02*
Y15064D01*
X65800Y12818D02*
X66274D01*
X68788Y10304D01*
Y8764D02*
Y10304D01*
Y8764D02*
X70118D01*
X70568Y9214D01*
X41181Y19196D02*
Y19791D01*
X40479Y19994D02*
X40682Y19791D01*
X38952Y19994D02*
X40479D01*
X38682Y19724D02*
X38952Y19994D01*
X38682Y18397D02*
Y19724D01*
X38201Y18397D02*
X38682D01*
X37493Y17690D02*
X38201Y18397D01*
X37493Y17381D02*
Y17690D01*
X41998Y18334D02*
X42181Y19196D01*
X41998Y14885D02*
Y18334D01*
X38493Y11381D02*
X41998Y14885D01*
X12024Y2225D02*
Y4799D01*
X16293Y2239D02*
Y6109D01*
X17268Y7084D01*
X18338D01*
X20598Y9344D01*
X22088D01*
X23238Y10494D01*
X24848D01*
X26038Y11684D01*
Y18064D01*
X50988Y14875D02*
X53493Y17381D01*
X50988Y11084D02*
Y14875D01*
X50018Y10114D02*
X50988Y11084D01*
X52000Y17874D02*
X52493Y17381D01*
X51268Y17874D02*
X52000D01*
X50988Y17594D02*
X51268Y17874D01*
X45418Y3304D02*
X46268D01*
X45198Y3524D02*
X45418Y3304D01*
X44118Y3524D02*
X45198D01*
X43518Y2924D02*
X44118Y3524D01*
X51493Y16833D02*
Y17381D01*
X49998Y15337D02*
X51493Y16833D01*
X49998Y10816D02*
Y15337D01*
X48628Y9446D02*
X49998Y10816D01*
X48628Y1084D02*
Y9446D01*
X50493Y17381D02*
X50688Y17575D01*
X50679Y17963D02*
X50688Y17575D01*
X50679Y17963D02*
Y19994D01*
X49559Y21114D02*
X50679Y19994D01*
X24018Y13214D02*
X24528Y13724D01*
X22658Y13214D02*
X24018D01*
X20548Y15324D02*
X22658Y13214D01*
X16898Y15324D02*
X20548D01*
X16298Y14724D02*
X16898Y15324D01*
X16298Y12064D02*
Y14724D01*
X13968Y9734D02*
X16298Y12064D01*
X12528Y9734D02*
X13968D01*
X11518Y8724D02*
X12528Y9734D01*
X11518Y7554D02*
Y8724D01*
X10768Y6804D02*
X11518Y7554D01*
X10108Y6804D02*
X10768D01*
X8528Y5224D02*
X10108Y6804D01*
X8528Y4799D02*
Y5224D01*
X8024Y4799D02*
X8528D01*
X38268Y674D02*
X38818Y1224D01*
X45748Y16724D02*
X45998Y16974D01*
Y17604D01*
X46268Y17874D01*
X49000D01*
X49493Y17381D01*
X40493Y11381D02*
X40498Y11376D01*
Y544D02*
Y11376D01*
X71260Y17323D02*
X71972Y18035D01*
Y19488D01*
X73268Y17323D02*
X74548Y16043D01*
X71260Y17323D02*
X73268D01*
X26324Y6095D02*
X26804Y5614D01*
X26628Y8794D02*
X27648Y7774D01*
X26628Y8794D02*
Y19074D01*
X61276Y20394D02*
X67768D01*
X68418Y19744D01*
Y18008D02*
Y19744D01*
X67913Y17504D02*
X68418Y18008D01*
X28268Y4969D02*
Y20494D01*
X31378Y7654D02*
X32318Y8594D01*
X31378Y2188D02*
Y7654D01*
X30896Y1706D02*
X31378Y2188D01*
X20136Y1706D02*
X30896D01*
X18747Y3095D02*
X20136Y1706D01*
X47819Y20588D02*
X48682Y19724D01*
X29831Y20588D02*
X47819D01*
X28838Y19594D02*
X29831Y20588D01*
X28838Y4945D02*
Y19594D01*
X39181Y18447D02*
Y19196D01*
X38768Y18034D02*
X39181Y18447D01*
X38268Y18034D02*
X38768D01*
X37988Y17754D02*
X38268Y18034D01*
X37988Y15334D02*
Y17754D01*
X37188Y14534D02*
X37988Y15334D01*
X42998Y10974D02*
Y14094D01*
X41868Y9844D02*
X42998Y10974D01*
X41868Y3004D02*
Y9844D01*
Y3004D02*
X42398Y2474D01*
X44250D01*
X44702Y2926D01*
X62278Y10296D02*
X62800Y10818D01*
X62278Y6864D02*
Y10296D01*
Y6864D02*
X63678Y5464D01*
X65571D01*
X67203Y7096D01*
X62800Y13818D02*
X63293Y13324D01*
X66298D01*
X66630Y13657D01*
X67376D01*
X68203Y12830D01*
X55937Y4924D02*
X56219Y4643D01*
X55937Y4924D02*
Y6693D01*
X29378Y15851D02*
X29874Y15354D01*
X29378Y15851D02*
Y19434D01*
X30235Y20291D01*
X41112D01*
X41679Y19724D01*
Y17567D02*
Y19724D01*
X41493Y17381D02*
X41679Y17567D01*
X31868Y14424D02*
Y15361D01*
X29874Y17354D02*
X31868Y15361D01*
X34893Y13324D02*
Y16335D01*
X32874Y18354D02*
X34893Y16335D01*
X19898Y9646D02*
Y12028D01*
X21220Y13350D01*
X73441Y11417D02*
X73941Y11917D01*
Y12402D01*
X65800Y9500D02*
Y9818D01*
Y9500D02*
X68203Y7096D01*
X45686Y4107D02*
X46493Y4914D01*
Y11381D01*
X40682Y19791D02*
X41181D01*
X39988Y18894D02*
X40181D01*
X4150Y12531D02*
X9928Y18308D01*
X76224Y5043D02*
X77165D01*
X75502Y4321D02*
X76224Y5043D01*
X75502Y1457D02*
Y4321D01*
X73535Y474D02*
X74548Y1487D01*
Y16043D01*
X54268Y3644D02*
X55293D01*
X56497Y2440D01*
X56921D01*
X56718Y1364D02*
Y1963D01*
X56544Y2137D02*
X56718Y1963D01*
X56218Y2137D02*
X56544D01*
X57087Y1775D02*
X57218Y1643D01*
X57087Y1775D02*
Y2274D01*
X56921Y2440D02*
X57087Y2274D01*
X55156Y3199D02*
X56218Y2137D01*
X53218Y4085D02*
Y4643D01*
Y4085D02*
X54104Y3199D01*
X55156D01*
X52725Y2149D02*
Y4979D01*
X52883Y5137D01*
X53070D01*
X52420Y5128D02*
X53132Y5840D01*
X52218Y4643D02*
X52420Y4844D01*
Y5128D01*
X26628Y19074D02*
X27573Y20020D01*
X23984Y9992D02*
X24486D01*
X27165Y7313D01*
Y6095D02*
Y7313D01*
X33819Y7169D02*
X33830Y7157D01*
X33819Y7169D02*
Y7283D01*
X62298Y11521D02*
Y16818D01*
Y11521D02*
X62494Y11324D01*
X64308D01*
X59900Y10323D02*
X60952D01*
X61948Y11318D01*
Y17076D01*
X53937Y6693D02*
X53988Y6744D01*
X56718Y7244D02*
X57156Y7682D01*
X54238Y11974D02*
X56923D01*
X57156Y11742D01*
Y7682D02*
Y11742D01*
X27648Y5768D02*
Y7774D01*
X27494Y5614D02*
X27648Y5768D01*
X26804Y5614D02*
X27494D01*
X27165Y3095D02*
X27711D01*
X29378Y4762D01*
Y10693D01*
X26324Y3095D02*
X27028Y3799D01*
X27692D01*
X28838Y4945D01*
X25482Y3095D02*
X26649Y4262D01*
X27561D01*
X28268Y4969D01*
X39998Y11976D02*
X44746Y16724D01*
X45748D01*
X41368Y11256D02*
X41493Y11381D01*
X41368Y2382D02*
Y11256D01*
Y2382D02*
X43276Y474D01*
X73535D01*
X46268Y3304D02*
X48110Y5147D01*
Y10144D01*
X48988Y11021D01*
X70768Y16824D02*
X72743D01*
X73941Y15626D01*
Y12402D02*
Y15626D01*
X4150Y17256D02*
X5346D01*
X5975Y17885D01*
Y19812D01*
X998Y9035D02*
X2038D01*
X3518Y7556D01*
X295Y9738D02*
X998Y9035D01*
X295Y9738D02*
Y12416D01*
X1985Y14106D01*
X51791Y14738D02*
X52508Y15454D01*
X38818Y1224D02*
Y9507D01*
X39998Y10687D01*
Y11976D01*
X33368Y15854D02*
X33704Y16191D01*
X33878D01*
X32318Y8594D02*
Y15763D01*
X32410Y15854D01*
X33368D01*
X3318Y13273D02*
X4150Y14106D01*
X3318Y11789D02*
X4150Y10956D01*
X3318Y11789D02*
Y13273D01*
X5108Y13489D02*
Y14723D01*
X4150Y15681D02*
X5108Y14723D01*
X12024Y2225D02*
X12359Y1890D01*
X15943D01*
X16293Y2239D01*
X12530Y2638D02*
X12638D01*
X12530D02*
Y7293D01*
X12024Y7799D02*
X12530Y7293D01*
X14606Y2638D02*
X15738Y3770D01*
Y7085D01*
X15024Y7799D02*
X15738Y7085D01*
X48425Y17313D02*
X48493Y17381D01*
X56493D02*
X60372Y21260D01*
X71053D01*
X76996Y15317D01*
X48988Y11021D02*
Y14933D01*
X50988Y16933D01*
Y17594D01*
X51791Y13083D02*
Y14738D01*
Y13083D02*
X53493Y11381D01*
X44493Y17381D02*
X45370Y18258D01*
X47964D01*
X48181Y18474D01*
X48682Y18641D02*
Y19724D01*
Y18641D02*
X49448Y17874D01*
X49998D01*
X5975Y19812D02*
X7408Y21244D01*
X46493Y11381D02*
Y14318D01*
X48425Y16250D01*
Y17313D01*
X7408Y21244D02*
X22102D01*
X50718Y1320D02*
X50888Y1149D01*
X50718Y1320D02*
Y2104D01*
X53718Y1277D02*
Y1844D01*
X53590Y1149D02*
X53718Y1277D01*
X50888Y1149D02*
X53590D01*
X54018Y2144D02*
X54568D01*
X54718Y1995D01*
Y1444D02*
Y1995D01*
X23701Y14101D02*
X23918Y13884D01*
X23701Y14101D02*
Y19646D01*
X22102Y21244D02*
X23701Y19646D01*
X24528Y13724D02*
Y19528D01*
X26114Y21114D01*
X49559D01*
X7024Y4799D02*
X7935Y3888D01*
X8907D01*
X12121Y674D01*
X38268D01*
X51493Y11381D02*
X52578Y10296D01*
X51718Y5353D02*
X52578Y6213D01*
Y10296D01*
D12*
X15387Y14370D02*
Y16343D01*
X17898Y7677D02*
Y9646D01*
X30328Y4107D02*
Y6157D01*
X71441Y11417D02*
X71798Y11061D01*
Y5475D02*
Y11061D01*
X71260Y4937D02*
X71798Y5475D01*
X71441Y11417D02*
X71798Y11774D01*
Y15785D01*
X71260Y16323D02*
X71798Y15785D01*
X30868Y10183D02*
X31102Y10417D01*
X30868Y6697D02*
Y10183D01*
X30328Y6157D02*
X30868Y6697D01*
X67203Y18793D02*
X67913Y19504D01*
X67203Y15696D02*
Y18793D01*
X31878Y3107D02*
X34769D01*
X54219Y983D02*
Y1643D01*
X54048Y813D02*
X54219Y983D01*
X50279Y813D02*
X54048D01*
X49678Y1414D02*
X50279Y813D01*
X49678Y1414D02*
Y5325D01*
X51045Y6693D01*
X35488Y1744D02*
Y3825D01*
X15387Y16343D02*
X16742Y17699D01*
Y19075D01*
X17898Y9646D02*
X18209Y9957D01*
Y12303D01*
X4518Y2238D02*
X4728Y2028D01*
X4518Y2238D02*
Y4056D01*
X6638Y8704D02*
X10082D01*
X5298Y7364D02*
X6638Y8704D01*
X5298Y2597D02*
Y7364D01*
X4728Y2028D02*
X5298Y2597D01*
X37181Y18158D02*
Y19196D01*
X35958Y16935D02*
X37181Y18158D01*
X35958Y12389D02*
Y16935D01*
X34893Y11324D02*
X35958Y12389D01*
X76996Y16317D02*
X77378Y16699D01*
Y19291D01*
X68588Y4824D02*
X69193Y5429D01*
X68588Y2757D02*
Y4824D01*
X67898Y2067D02*
X68588Y2757D01*
X42392Y5434D02*
X43718Y4107D01*
X42392Y5434D02*
Y8661D01*
X45493Y11381D02*
Y15381D01*
X47493Y17381D01*
X50158Y7580D02*
X51045Y6693D01*
X50158Y7580D02*
Y8661D01*
X58508Y6992D02*
X58807Y6693D01*
X58508Y6992D02*
Y11306D01*
X59084Y11882D01*
X58548Y12419D02*
X59084Y11882D01*
X58548Y12419D02*
Y17914D01*
X59084Y18451D01*
X34769Y3107D02*
X35488Y3825D01*
X36322Y4660D01*
X11161Y14183D02*
X11329Y14016D01*
X12598D01*
X11368Y15354D02*
X12598D01*
X11161Y15148D02*
X11368Y15354D01*
X11161Y14183D02*
Y15148D01*
X2978Y17658D02*
X4150Y18830D01*
X1985Y10956D02*
X2978Y11949D01*
Y17658D01*
X32874Y12156D02*
Y15354D01*
Y12156D02*
X33705Y11324D01*
X34893D01*
D13*
X10818Y16724D02*
X11518Y16024D01*
X12598D01*
X10818Y16724D02*
Y19075D01*
D14*
X14205Y10827D02*
Y15987D01*
X13499Y16693D02*
X14205Y15987D01*
X12598Y16693D02*
X13499D01*
D15*
X12205Y10827D02*
X12598Y11220D01*
Y14016D01*
X10082Y8704D02*
X12205Y10827D01*
D16*
X1728Y2028D02*
D03*
X4728D02*
D03*
X27165Y6095D02*
D03*
Y3095D02*
D03*
X64689Y3858D02*
D03*
X61689D02*
D03*
X70941Y12402D02*
D03*
X73941D02*
D03*
X17063Y6095D02*
D03*
Y3095D02*
D03*
X17905Y6095D02*
D03*
Y3095D02*
D03*
X18747Y6095D02*
D03*
Y3095D02*
D03*
X19589Y6095D02*
D03*
Y3095D02*
D03*
X20431Y6095D02*
D03*
Y3095D02*
D03*
X21273Y6095D02*
D03*
Y3095D02*
D03*
X22114Y6095D02*
D03*
Y3095D02*
D03*
X22956Y6095D02*
D03*
Y3095D02*
D03*
X23798D02*
D03*
Y6095D02*
D03*
X24640Y3095D02*
D03*
Y6095D02*
D03*
X26324Y3095D02*
D03*
Y6095D02*
D03*
X25482Y3095D02*
D03*
Y6095D02*
D03*
X21220Y10350D02*
D03*
Y13350D02*
D03*
X71972Y19488D02*
D03*
X68972D02*
D03*
X77165Y5043D02*
D03*
Y2043D02*
D03*
D17*
X79134Y19685D02*
D03*
Y1969D02*
D03*
X8268D02*
D03*
Y19685D02*
D03*
D18*
X17898Y9646D02*
D03*
X19898D02*
D03*
X71441Y11417D02*
D03*
X73441D02*
D03*
X19898Y7677D02*
D03*
X17898D02*
D03*
X75378Y19291D02*
D03*
X77378D02*
D03*
X67898Y2067D02*
D03*
X69898D02*
D03*
X69193Y3429D02*
D03*
Y5429D02*
D03*
X31102Y12417D02*
D03*
Y10417D02*
D03*
X15387Y14370D02*
D03*
X17387D02*
D03*
Y16343D02*
D03*
X15387D02*
D03*
X43392Y8661D02*
D03*
X42392D02*
D03*
X50158D02*
D03*
X49158D02*
D03*
X34893Y13324D02*
D03*
Y11324D02*
D03*
X58807Y6693D02*
D03*
X57807D02*
D03*
X52045D02*
D03*
X51045D02*
D03*
D19*
X23984Y9992D02*
D03*
Y10992D02*
D03*
X71260Y15323D02*
D03*
Y16323D02*
D03*
Y3937D02*
D03*
Y4937D02*
D03*
X32874Y15354D02*
D03*
Y16354D02*
D03*
Y17354D02*
D03*
Y18354D02*
D03*
X29874Y15354D02*
D03*
Y16354D02*
D03*
Y17354D02*
D03*
X62417Y2067D02*
D03*
X63417D02*
D03*
X64417D02*
D03*
X65417D02*
D03*
X30328Y3107D02*
D03*
X31878Y4107D02*
D03*
X30328Y6157D02*
D03*
X31878D02*
D03*
X79281Y4644D02*
D03*
Y5644D02*
D03*
Y6644D02*
D03*
Y7644D02*
D03*
Y8644D02*
D03*
X55493Y11381D02*
D03*
X54493D02*
D03*
X53493D02*
D03*
X52493D02*
D03*
X51493D02*
D03*
X50493D02*
D03*
X49493D02*
D03*
X48493D02*
D03*
X47493D02*
D03*
X46493D02*
D03*
X45493D02*
D03*
X44493D02*
D03*
X43493D02*
D03*
X42493D02*
D03*
X41493D02*
D03*
X40493D02*
D03*
X39493D02*
D03*
X38493D02*
D03*
X37493D02*
D03*
X56493Y17381D02*
D03*
X55493D02*
D03*
X54493D02*
D03*
X53493D02*
D03*
X52493D02*
D03*
X51493D02*
D03*
X50493D02*
D03*
X49493D02*
D03*
X48493D02*
D03*
X47493D02*
D03*
X46493D02*
D03*
X45493D02*
D03*
X44493D02*
D03*
X43493D02*
D03*
X42493D02*
D03*
X41493D02*
D03*
X40493D02*
D03*
X39493D02*
D03*
X38493D02*
D03*
X37493D02*
D03*
X57218Y1643D02*
D03*
X56219D02*
D03*
X55219D02*
D03*
X54219D02*
D03*
X53218D02*
D03*
X52218D02*
D03*
X51219D02*
D03*
X50219D02*
D03*
X58218Y4643D02*
D03*
X57218D02*
D03*
X56219D02*
D03*
X55219D02*
D03*
X54219D02*
D03*
X53218D02*
D03*
X52218D02*
D03*
X51219D02*
D03*
X50219D02*
D03*
D20*
X23984Y11992D02*
D03*
X71260Y17323D02*
D03*
Y5937D02*
D03*
X30328Y4107D02*
D03*
X31878Y3107D02*
D03*
X30328Y7157D02*
D03*
X31878D02*
D03*
X79281Y9644D02*
D03*
X56493Y11381D02*
D03*
X58218Y1643D02*
D03*
D21*
X29874Y18354D02*
D03*
X61417Y2067D02*
D03*
D22*
X80496Y16817D02*
D03*
Y12317D02*
D03*
X1018Y3556D02*
D03*
Y8056D02*
D03*
D23*
X77996Y13817D02*
D03*
X3518Y6556D02*
D03*
D24*
X77996Y14817D02*
D03*
X76996Y14317D02*
D03*
Y15317D02*
D03*
X77996Y15817D02*
D03*
X76996Y13317D02*
D03*
Y16317D02*
D03*
X3518Y5556D02*
D03*
X4518Y6056D02*
D03*
Y5056D02*
D03*
X3518Y4556D02*
D03*
X4518Y7056D02*
D03*
Y4056D02*
D03*
X36322Y1626D02*
D03*
X37322D02*
D03*
X38322D02*
D03*
X39322D02*
D03*
X36322Y4660D02*
D03*
X37322D02*
D03*
X38322D02*
D03*
X61084Y11882D02*
D03*
X60084D02*
D03*
X59084D02*
D03*
X60084Y8849D02*
D03*
X59084D02*
D03*
X61084Y18451D02*
D03*
X60084D02*
D03*
X59084D02*
D03*
X60084Y15417D02*
D03*
X59084D02*
D03*
X15024Y7799D02*
D03*
X14024D02*
D03*
X13024D02*
D03*
X12024D02*
D03*
X11024D02*
D03*
X10024D02*
D03*
X9024D02*
D03*
X8024D02*
D03*
X7024D02*
D03*
X15024Y4799D02*
D03*
X14024D02*
D03*
X13024D02*
D03*
X12024D02*
D03*
X11024D02*
D03*
X10024D02*
D03*
X9024D02*
D03*
X8024D02*
D03*
X65800Y16818D02*
D03*
Y15818D02*
D03*
Y14818D02*
D03*
Y13818D02*
D03*
Y12818D02*
D03*
Y11818D02*
D03*
Y10818D02*
D03*
Y9818D02*
D03*
X62800Y16818D02*
D03*
Y15818D02*
D03*
Y14818D02*
D03*
Y13818D02*
D03*
Y12818D02*
D03*
Y11818D02*
D03*
Y10818D02*
D03*
D25*
X77996Y12817D02*
D03*
X3518Y7556D02*
D03*
X39322Y4660D02*
D03*
X61084Y8849D02*
D03*
Y15417D02*
D03*
X7024Y4799D02*
D03*
D26*
X18209Y12303D02*
D03*
X67203Y9963D02*
D03*
Y7096D02*
D03*
Y12830D02*
D03*
Y15696D02*
D03*
D27*
X17209Y12303D02*
D03*
X68203Y9963D02*
D03*
Y7096D02*
D03*
Y12830D02*
D03*
Y15696D02*
D03*
X14606Y2638D02*
D03*
X12638D02*
D03*
D28*
X4150Y18830D02*
D03*
Y17256D02*
D03*
Y15681D02*
D03*
Y14106D02*
D03*
Y12531D02*
D03*
X1985Y18830D02*
D03*
Y17256D02*
D03*
Y15681D02*
D03*
Y14106D02*
D03*
Y12531D02*
D03*
Y10956D02*
D03*
X27425Y17717D02*
D03*
X19425D02*
D03*
D29*
X4150Y10956D02*
D03*
D30*
X14205Y10827D02*
D03*
D31*
X12205D02*
D03*
D32*
X12598Y14016D02*
D03*
Y14685D02*
D03*
Y15354D02*
D03*
Y16024D02*
D03*
D33*
Y16693D02*
D03*
D34*
X10827Y19075D02*
D03*
X16742D02*
D03*
D35*
X6693Y16929D02*
D03*
Y11014D02*
D03*
D36*
X9218Y13948D02*
D03*
Y15917D02*
D03*
Y11980D02*
D03*
Y10011D02*
D03*
D37*
X64602Y6656D02*
D03*
X35143Y18881D02*
D03*
Y6666D02*
D03*
X64602Y18861D02*
D03*
D38*
X52181Y19196D02*
D03*
X51181D02*
D03*
X50181D02*
D03*
X49181D02*
D03*
X48181D02*
D03*
X47181D02*
D03*
X46181D02*
D03*
X45181D02*
D03*
X44181D02*
D03*
X43181D02*
D03*
X42181D02*
D03*
X41181D02*
D03*
X40181D02*
D03*
X39181D02*
D03*
X38181D02*
D03*
D39*
X37181D02*
D03*
D40*
X44702Y2926D02*
D03*
X45686Y4107D02*
D03*
X43718D02*
D03*
D41*
X67913Y18504D02*
D03*
Y19504D02*
D03*
Y17504D02*
D03*
D42*
X62800Y9818D02*
D03*
D43*
X55937Y6693D02*
D03*
X53937D02*
D03*
X47276Y8661D02*
D03*
X45276D02*
D03*
D44*
X9928Y19724D02*
D03*
X60588Y20594D02*
D03*
X26978Y5164D02*
D03*
X35488Y1744D02*
D03*
X68048Y8564D02*
D03*
X60328Y12704D02*
D03*
X69008Y18134D02*
D03*
X50468Y2984D02*
D03*
X53178Y8234D02*
D03*
X53718Y5094D02*
D03*
X22342Y7164D02*
D03*
X30448Y2154D02*
D03*
X58418Y2964D02*
D03*
X59900Y10323D02*
D03*
X69318Y9214D02*
D03*
X23918Y13884D02*
D03*
X17808Y2324D02*
D03*
X30878Y5614D02*
D03*
X57284Y7158D02*
D03*
X75108Y15064D02*
D03*
X70568Y9214D02*
D03*
X26038Y18064D02*
D03*
X50018Y10114D02*
D03*
X43518Y2924D02*
D03*
X48628Y1084D02*
D03*
X40498Y544D02*
D03*
X61276Y20394D02*
D03*
X28268Y20494D02*
D03*
X49998Y17874D02*
D03*
X37188Y14534D02*
D03*
X42998Y14094D02*
D03*
X52508Y15454D02*
D03*
X31868Y14424D02*
D03*
X75502Y1457D02*
D03*
X27573Y20020D02*
D03*
X33819Y7283D02*
D03*
X33878Y16191D02*
D03*
M02*
