%FSLAX24Y24*%
%MOIN*%
G70*
G01*
G75*
%ADD10C,0.0354*%
%ADD11C,0.0551*%
%ADD12R,0.0787X0.0787*%
%ADD13C,0.0787*%
%ADD14O,0.0591X0.0787*%
%ADD15C,0.2756*%
%ADD16C,0.0591*%
%ADD17R,0.0591X0.0591*%
%ADD18C,0.0630*%
%ADD19C,0.1161*%
%ADD20C,0.0079*%
%ADD21C,0.0100*%
%ADD22C,0.0030*%
%ADD23C,0.0039*%
%ADD24C,0.0631*%
%ADD25R,0.0867X0.0867*%
%ADD26C,0.0867*%
%ADD27O,0.0671X0.0867*%
%ADD28C,0.2836*%
%ADD29C,0.0671*%
%ADD30R,0.0671X0.0671*%
%ADD31C,0.0710*%
%ADD32C,0.1241*%
%ADD33C,0.0050*%
%ADD34C,0.0067*%
D33*
X25866Y9876D02*
X26201D01*
X26033Y9709D02*
Y10044D01*
X25866Y12876D02*
X26201D01*
X26033Y12709D02*
Y13044D01*
X47136Y10589D02*
X47451D01*
X47293Y10431D02*
Y10746D01*
X47136Y12557D02*
X47451D01*
X47293Y12400D02*
Y12715D01*
X58107Y10874D02*
X58507D01*
X58307Y10674D02*
Y11074D01*
X58107Y11898D02*
X58507D01*
X58307Y11698D02*
Y12098D01*
X12832Y16780D02*
X13232D01*
X13032Y16580D02*
Y16980D01*
X12832Y17803D02*
X13232D01*
X13032Y17603D02*
Y18003D01*
X74065Y1967D02*
X75640D01*
X74852Y1179D02*
Y2754D01*
X74065Y19920D02*
X75640D01*
X74852Y19132D02*
Y20707D01*
X7018Y19920D02*
X8593D01*
X7805Y19132D02*
Y20707D01*
X7018Y1967D02*
X8593D01*
X7805Y1179D02*
Y2754D01*
X71415Y12803D02*
X71770D01*
X71593Y12626D02*
Y12980D01*
X71415Y9803D02*
X71770D01*
X71593Y9626D02*
Y9980D01*
X72415Y9303D02*
X72770D01*
X72593Y9126D02*
Y9480D01*
X72415Y12303D02*
X72770D01*
X72593Y12126D02*
Y12480D01*
X71415Y11803D02*
X71770D01*
X71593Y11626D02*
Y11980D01*
X71415Y10803D02*
X71770D01*
X71593Y10626D02*
Y10980D01*
X72415Y11303D02*
X72770D01*
X72593Y11126D02*
Y11480D01*
X72415Y10303D02*
X72770D01*
X72593Y10126D02*
Y10480D01*
X74453Y8803D02*
X75732D01*
X75093Y8163D02*
Y9443D01*
X74453Y13303D02*
X75732D01*
X75093Y12663D02*
Y13943D01*
X23898Y12876D02*
X24232D01*
X24065Y12709D02*
Y13044D01*
X23898Y9876D02*
X24232D01*
X24065Y9709D02*
Y10044D01*
X27835Y9876D02*
X28169D01*
X28002Y9709D02*
Y10044D01*
X27835Y12876D02*
X28169D01*
X28002Y12709D02*
Y13044D01*
X12832Y5205D02*
X13232D01*
X13032Y5005D02*
Y5405D01*
X12832Y4181D02*
X13232D01*
X13032Y3981D02*
Y4381D01*
M02*
