M48
;Layer_Color=9474304
;FILE_FORMAT=2:4
INCH,LZ
;TYPE=PLATED
T1F00S00C0.0315
T2F00S00C0.0335
T3F00S00C0.0354
T4F00S00C0.0400
T5F00S00C0.1575
;TYPE=NON_PLATED
T6F00S00C0.1280
%
T01
X047293Y010589
Y012557
T02
X024065Y009876
X026033
X028002
Y012876
X026033
X024065
T03
X071593Y009803
Y010803
Y011803
Y012803
X072593Y012303
Y011303
Y010303
Y009303
T04
X013032Y004181
Y005205
Y01678
Y017803
X058307Y011898
Y010874
T05
X074852Y001967
X007805
X074852Y01992
X007805
T06
X075093Y008803
Y013303
M30
