%FSLAX24Y24*%
%MOIN*%
G70*
G01*
G75*
G04 Layer_Physical_Order=2*
G04 Layer_Color=16711680*
%ADD10C,0.0354*%
%ADD11C,0.0551*%
%ADD12R,0.0787X0.0787*%
%ADD13C,0.0787*%
%ADD14O,0.0591X0.0787*%
%ADD15C,0.2756*%
%ADD16C,0.0591*%
%ADD17R,0.0591X0.0591*%
%ADD18C,0.0630*%
%ADD19C,0.1161*%
G36*
X56167Y10322D02*
X55865Y9594D01*
X48297D01*
X48081Y9811D01*
Y11114D01*
X55374D01*
X56167Y10322D01*
D02*
G37*
G36*
X74302Y12512D02*
X75093Y12185D01*
X75883Y12512D01*
X76029Y12863D01*
X76801Y12710D01*
Y9397D01*
X76029Y9243D01*
X75883Y9594D01*
X75093Y9922D01*
X74302Y9594D01*
X74054Y8996D01*
X73281Y9150D01*
Y9992D01*
X73281D01*
X73250Y10039D01*
X73360Y10303D01*
X73142Y10829D01*
X73338Y11303D01*
X73131Y11803D01*
X73338Y12303D01*
X73250Y12516D01*
X73621Y13210D01*
X73983Y13282D01*
X74302Y12512D01*
D02*
G37*
G36*
X27093Y7801D02*
X27530Y7620D01*
X28198D01*
X28499Y6893D01*
X26406Y4799D01*
X22859D01*
X22558Y5527D01*
X25135Y8104D01*
X26305Y8589D01*
X27093Y7801D01*
D02*
G37*
G36*
X70535Y11406D02*
Y11269D01*
X70075Y10160D01*
X69510Y9594D01*
X60501D01*
X60063Y10249D01*
X60136Y10423D01*
Y13189D01*
X59955Y13626D01*
X59109Y14472D01*
X59410Y15199D01*
X66742D01*
X70535Y11406D01*
D02*
G37*
G36*
X73357Y20938D02*
X72935Y19920D01*
X73496Y18564D01*
X74852Y18002D01*
X76147Y18538D01*
X76801Y18100D01*
Y13897D01*
X76029Y13743D01*
X75883Y14094D01*
X75093Y14422D01*
X74302Y14094D01*
X73980Y13317D01*
X73192D01*
X73029Y13711D01*
X69413Y17327D01*
X68976Y17508D01*
X33829D01*
X33392Y17327D01*
X29608Y13543D01*
X29275Y13405D01*
X28620Y13842D01*
Y14646D01*
X28439Y15083D01*
X25358Y18163D01*
X24922Y18344D01*
X13594D01*
X13559Y18429D01*
X13032Y18648D01*
X12504Y18429D01*
X12286Y17902D01*
Y17705D01*
X12457Y17292D01*
X12307Y16929D01*
X10774Y15396D01*
X10593Y14959D01*
Y5640D01*
X10774Y5203D01*
X12137Y3839D01*
X12438Y3715D01*
X12446Y3697D01*
D01*
X12446D01*
X12446D01*
X12446Y3697D01*
X12446D01*
D01*
D01*
Y3697D01*
X12504Y3556D01*
D01*
D01*
Y3556D01*
X13032Y3337D01*
D01*
D01*
D01*
X13173Y3396D01*
D01*
D01*
X13173D01*
D01*
D01*
X13173D01*
D01*
D01*
X13173Y3396D01*
D01*
D01*
X13559Y3556D01*
X13562Y3563D01*
X26662D01*
X27099Y3744D01*
X35294Y11939D01*
X44090D01*
X45042Y11545D01*
Y9252D01*
X45223Y8815D01*
X46984Y7053D01*
X47421Y6872D01*
X70780D01*
X71216Y7053D01*
X72777Y8614D01*
X73281D01*
Y8614D01*
X74052D01*
X74302Y8012D01*
X75093Y7685D01*
X75883Y8012D01*
X76029Y8363D01*
X76801Y8210D01*
Y3786D01*
X76147Y3348D01*
X74852Y3884D01*
X73496Y3323D01*
X72935Y1967D01*
X73478Y655D01*
X73041Y0D01*
X9617D01*
X9179Y655D01*
X9723Y1967D01*
X9161Y3323D01*
X7805Y3884D01*
X6449Y3323D01*
X5888Y1967D01*
X6431Y655D01*
X5994Y0D01*
X557D01*
X0Y557D01*
X0Y21593D01*
X5872D01*
X6309Y20938D01*
X5888Y19920D01*
X6449Y18564D01*
X7805Y18002D01*
X9161Y18564D01*
X9723Y19920D01*
X9301Y20938D01*
X9738Y21593D01*
X72919D01*
X73357Y20938D01*
D02*
G37*
G36*
X70868Y14124D02*
X70896Y14056D01*
X70339Y13499D01*
X70083Y13605D01*
X68144Y15544D01*
X68255Y15811D01*
X69027Y15965D01*
X70868Y14124D01*
D02*
G37*
G36*
X27384Y14390D02*
Y13383D01*
X26612Y13229D01*
X26546Y13388D01*
X26033Y13601D01*
X25521Y13388D01*
X25443Y13199D01*
X24656D01*
X24640Y13236D01*
X24640D01*
X24577Y13388D01*
X24065Y13601D01*
X23913Y13538D01*
X23913D01*
X23705Y13451D01*
X23705D01*
Y13451D01*
Y13451D01*
D01*
D01*
X23553Y13388D01*
D01*
D01*
X23553D01*
X23341Y12876D01*
D01*
D01*
D01*
X23404Y12724D01*
Y12724D01*
Y12724D01*
Y12724D01*
X23404D01*
D01*
D01*
D01*
D01*
X23404D01*
X23447Y12619D01*
Y11801D01*
X23628Y11364D01*
X23795Y11197D01*
X23641Y10425D01*
X23553Y10388D01*
X23341Y9876D01*
X23341Y9876D01*
X23553Y9364D01*
X23672Y9315D01*
X23826Y8542D01*
X21106Y5823D01*
X13562D01*
X13559Y5831D01*
X13173Y5990D01*
Y5990D01*
X13173D01*
X13032Y6049D01*
X12504Y5831D01*
X11829Y6111D01*
Y14703D01*
X13082Y15957D01*
X13559Y16154D01*
X13777Y16681D01*
Y16878D01*
X13931Y17108D01*
X24666D01*
X27384Y14390D01*
D02*
G37*
D10*
X72593Y12303D02*
Y13274D01*
X68976Y16890D02*
X72593Y13274D01*
X33829Y16890D02*
X68976D01*
X71012Y11803D02*
X71593D01*
X66998Y15817D02*
X71012Y11803D01*
X33943Y15817D02*
X66998D01*
X27461Y11270D02*
X28209D01*
X26033Y12697D02*
X27461Y11270D01*
X26033Y12697D02*
Y12876D01*
X28209Y11270D02*
X33829Y16890D01*
X59518Y10423D02*
Y13189D01*
X58819Y9724D02*
X59518Y10423D01*
X57638Y9724D02*
X58819D01*
X55630Y11732D02*
X57638Y9724D01*
X69766Y8976D02*
X71593Y10803D01*
X48041Y8976D02*
X69766D01*
X47293Y9724D02*
X48041Y8976D01*
X70028Y8238D02*
X71593Y9803D01*
X47618Y8238D02*
X70028D01*
X46378Y9478D02*
X47618Y8238D01*
X70780Y7490D02*
X72593Y9303D01*
X47421Y7490D02*
X70780D01*
X45659Y9252D02*
X47421Y7490D01*
X47293Y9724D02*
Y10589D01*
X57844Y14862D02*
X59518Y13189D01*
X46890Y11732D02*
X55630D01*
X46378Y9478D02*
Y11220D01*
X46890Y11732D01*
X45659Y11545D02*
X46671Y12557D01*
X45659Y9252D02*
Y11545D01*
X46671Y12557D02*
X47293D01*
X34400Y14862D02*
X57844D01*
X56858Y13750D02*
X58307Y12301D01*
X34606Y13750D02*
X56858D01*
X29094Y8238D02*
X34606Y13750D01*
X35038Y12557D02*
X47293D01*
X26662Y4181D02*
X35038Y12557D01*
X13032Y4181D02*
X26662D01*
X27530Y8238D02*
X29094D01*
X28612Y9075D02*
X34400Y14862D01*
X28002Y9876D02*
X33943Y15817D01*
X27687Y9075D02*
X28612D01*
X26742Y9026D02*
X27530Y8238D01*
X28002Y12876D02*
Y14646D01*
X24922Y17726D02*
X28002Y14646D01*
X13032Y17726D02*
X24922D01*
X27382Y9380D02*
X27687Y9075D01*
X27382Y9380D02*
Y10394D01*
X26348Y11427D02*
X27382Y10394D01*
X24439Y11427D02*
X26348D01*
X24065Y11801D02*
X24439Y11427D01*
X26191Y10679D02*
X26742Y10128D01*
X24868Y10679D02*
X26191D01*
X24065Y9876D02*
X24868Y10679D01*
X24065Y11801D02*
Y12876D01*
X26742Y9026D02*
Y10128D01*
X12574Y4276D02*
X13032D01*
X11211Y5640D02*
X12574Y4276D01*
X11211Y5640D02*
Y14959D01*
X21362Y5205D02*
X26033Y9876D01*
X13032Y5205D02*
X21362D01*
X11211Y14959D02*
X13032Y16780D01*
X57942Y10976D02*
X58307D01*
Y11898D02*
Y12301D01*
X13032Y17726D02*
Y17803D01*
X58307Y10874D02*
Y10976D01*
X56361Y12557D02*
X57942Y10976D01*
X47293Y12557D02*
X56361D01*
D11*
X26033Y9876D02*
D03*
Y12876D02*
D03*
X24065D02*
D03*
Y9876D02*
D03*
X28002D02*
D03*
Y12876D02*
D03*
D12*
X47293Y10589D02*
D03*
D13*
Y12557D02*
D03*
D14*
X58307Y10874D02*
D03*
Y11898D02*
D03*
X13032Y16780D02*
D03*
Y17803D02*
D03*
Y5205D02*
D03*
Y4181D02*
D03*
D15*
X74852Y1967D02*
D03*
Y19920D02*
D03*
X7805D02*
D03*
Y1967D02*
D03*
D16*
X71593Y12803D02*
D03*
Y9803D02*
D03*
X72593Y12303D02*
D03*
X71593Y11803D02*
D03*
Y10803D02*
D03*
X72593Y11303D02*
D03*
D17*
Y9303D02*
D03*
D18*
Y10303D02*
D03*
D19*
X75093Y8803D02*
D03*
Y13303D02*
D03*
M02*
