%FSLAX24Y24*%
%MOIN*%
G70*
G01*
G75*
G04 Layer_Color=2752767*
%ADD10C,0.0354*%
%ADD11C,0.0551*%
%ADD12R,0.0787X0.0787*%
%ADD13C,0.0787*%
%ADD14O,0.0591X0.0787*%
%ADD15C,0.2756*%
%ADD16C,0.0591*%
%ADD17R,0.0591X0.0591*%
%ADD18C,0.0630*%
%ADD19C,0.1161*%
%ADD20C,0.0079*%
%ADD21C,0.0100*%
%ADD22C,0.0030*%
%ADD23C,0.0039*%
%ADD24C,0.0631*%
%ADD25R,0.0867X0.0867*%
%ADD26C,0.0867*%
%ADD27O,0.0671X0.0867*%
%ADD28C,0.2836*%
%ADD29C,0.0671*%
%ADD30R,0.0671X0.0671*%
%ADD31C,0.0710*%
%ADD32C,0.1241*%
%ADD33C,0.0050*%
%ADD34C,0.0067*%
D33*
X25833Y9676D02*
Y10076D01*
X26233D01*
Y9676D01*
X25833D01*
Y12676D02*
Y13076D01*
X26233D01*
Y12676D01*
X25833D01*
X58307Y10674D02*
X58107Y11074D01*
X58507D01*
X58307Y10674D01*
Y11698D02*
X58107Y12098D01*
X58507D01*
X58307Y11698D01*
X13032Y16580D02*
X12832Y16980D01*
X13232D01*
X13032Y16580D01*
Y17603D02*
X12832Y18003D01*
X13232D01*
X13032Y17603D01*
X74852Y1767D02*
X74952Y1867D01*
X75052D01*
X74952Y1967D01*
X75052Y2067D01*
X74952D01*
X74852Y2167D01*
X74752Y2067D01*
X74652D01*
X74752Y1967D01*
X74652Y1867D01*
X74752D01*
X74852Y1767D01*
Y19720D02*
X74952Y19820D01*
X75052D01*
X74952Y19920D01*
X75052Y20020D01*
X74952D01*
X74852Y20120D01*
X74752Y20020D01*
X74652D01*
X74752Y19920D01*
X74652Y19820D01*
X74752D01*
X74852Y19720D01*
X7805D02*
X7905Y19820D01*
X8005D01*
X7905Y19920D01*
X8005Y20020D01*
X7905D01*
X7805Y20120D01*
X7705Y20020D01*
X7605D01*
X7705Y19920D01*
X7605Y19820D01*
X7705D01*
X7805Y19720D01*
Y1767D02*
X7905Y1867D01*
X8005D01*
X7905Y1967D01*
X8005Y2067D01*
X7905D01*
X7805Y2167D01*
X7705Y2067D01*
X7605D01*
X7705Y1967D01*
X7605Y1867D01*
X7705D01*
X7805Y1767D01*
X71393Y12603D02*
X71493Y12803D01*
X71393Y13003D01*
X71593Y12903D01*
X71793Y13003D01*
X71693Y12803D01*
X71793Y12603D01*
X71593Y12703D01*
X71393Y12603D01*
Y9603D02*
X71493Y9803D01*
X71393Y10003D01*
X71593Y9903D01*
X71793Y10003D01*
X71693Y9803D01*
X71793Y9603D01*
X71593Y9703D01*
X71393Y9603D01*
X72393Y9103D02*
X72493Y9303D01*
X72393Y9503D01*
X72593Y9403D01*
X72793Y9503D01*
X72693Y9303D01*
X72793Y9103D01*
X72593Y9203D01*
X72393Y9103D01*
Y12103D02*
X72493Y12303D01*
X72393Y12503D01*
X72593Y12403D01*
X72793Y12503D01*
X72693Y12303D01*
X72793Y12103D01*
X72593Y12203D01*
X72393Y12103D01*
X71393Y11603D02*
X71493Y11803D01*
X71393Y12003D01*
X71593Y11903D01*
X71793Y12003D01*
X71693Y11803D01*
X71793Y11603D01*
X71593Y11703D01*
X71393Y11603D01*
Y10603D02*
X71493Y10803D01*
X71393Y11003D01*
X71593Y10903D01*
X71793Y11003D01*
X71693Y10803D01*
X71793Y10603D01*
X71593Y10703D01*
X71393Y10603D01*
X72393Y11103D02*
X72493Y11303D01*
X72393Y11503D01*
X72593Y11403D01*
X72793Y11503D01*
X72693Y11303D01*
X72793Y11103D01*
X72593Y11203D01*
X72393Y11103D01*
Y10103D02*
X72493Y10303D01*
X72393Y10503D01*
X72593Y10403D01*
X72793Y10503D01*
X72693Y10303D01*
X72793Y10103D01*
X72593Y10203D01*
X72393Y10103D01*
X74993Y8703D02*
Y8603D01*
X75193D01*
Y8703D01*
X75293D01*
Y8903D01*
X75193D01*
Y9003D01*
X74993D01*
Y8903D01*
X74893D01*
Y8703D01*
X74993D01*
Y13203D02*
Y13103D01*
X75193D01*
Y13203D01*
X75293D01*
Y13403D01*
X75193D01*
Y13503D01*
X74993D01*
Y13403D01*
X74893D01*
Y13203D01*
X74993D01*
X23865Y12676D02*
Y13076D01*
X24265D01*
Y12676D01*
X23865D01*
Y9676D02*
Y10076D01*
X24265D01*
Y9676D01*
X23865D01*
X27802D02*
Y10076D01*
X28202D01*
Y9676D01*
X27802D01*
Y12676D02*
Y13076D01*
X28202D01*
Y12676D01*
X27802D01*
X13032Y5005D02*
X12832Y5405D01*
X13232D01*
X13032Y5005D01*
Y3981D02*
X12832Y4381D01*
X13232D01*
X13032Y3981D01*
D34*
X47493Y10589D02*
G03*
X47493Y10589I-200J0D01*
G01*
Y12557D02*
G03*
X47493Y12557I-200J0D01*
G01*
M02*
