M48
;Layer_Color=9474304
;FILE_FORMAT=2:4
INCH,LZ
;TYPE=PLATED
T8F00S00C0.0472
;TYPE=NON_PLATED
%
G90
G05
T08
G00X018307Y004291
M15
G01X018543
M16
G00X020472Y004291
M15
G01X020709
M16
G00X022638Y004291
M15
G01X022874
M16
G00X024803Y004291
M15
G01X025039
M16
G00X025787Y005472
M15
G01X026024
M16
G00X029689Y006358
M15
G01Y006595
M16
G00X029689Y008524
M15
G01Y00876
M16
G00X03087Y007539
M15
G01Y007776
M16
G00X03087Y009705
M15
G01Y009941
M16
G00X03087Y01187
M15
G01Y012106
M16
G00X029689Y012854
M15
G01Y013091
M16
G00X029689Y010689
M15
G01Y010925
M16
G00X03087Y005374
M15
G01Y00561
M16
G00X023622Y005472
M15
G01X023858
M16
G00X021457Y005472
M15
G01X021693
M16
G00X019291Y005472
M15
G01X019528
M16
G00X0055Y022336
M15
G01Y0221
M16
G00X0055Y024502
M15
G01Y024265
M16
G00X0055Y026667
M15
G01Y026431
M16
G00X0055Y028832
M15
G01Y028596
M16
G00X004319Y029817
M15
G01Y02958
M16
G00X004319Y027651
M15
G01Y027415
M16
G00X004319Y025486
M15
G01Y02525
M16
G00X004319Y02332
M15
G01Y023084
M16
M17
M30
