%FSLAX24Y24*%
%MOIN*%
G70*
G01*
G75*
G04 Layer_Color=2752767*
%ADD10C,0.0276*%
%ADD11C,0.0394*%
%ADD12R,0.0669X0.0669*%
%ADD13C,0.0669*%
%ADD14C,0.2756*%
%ADD15C,0.0709*%
%ADD16R,0.0709X0.0709*%
%ADD17C,0.1161*%
%ADD18C,0.0787*%
%ADD19C,0.0079*%
%ADD20C,0.0100*%
%ADD21C,0.0039*%
%ADD22C,0.0030*%
%ADD23R,0.0749X0.0749*%
%ADD24C,0.0749*%
%ADD25C,0.2836*%
%ADD26C,0.0789*%
%ADD27R,0.0789X0.0789*%
%ADD28C,0.1241*%
%ADD29C,0.0867*%
%ADD30C,0.0050*%
%ADD31C,0.0067*%
D30*
X35190Y8595D02*
Y8995D01*
X35590D01*
Y8595D01*
X35190D01*
X36190D02*
Y8995D01*
X36590D01*
Y8595D01*
X36190D01*
X37190D02*
Y8995D01*
X37590D01*
Y8595D01*
X37190D01*
X38190D02*
Y8995D01*
X38590D01*
Y8595D01*
X38190D01*
X39190D02*
Y8995D01*
X39590D01*
Y8595D01*
X39190D01*
X40190D02*
Y8995D01*
X40590D01*
Y8595D01*
X40190D01*
X41190D02*
Y8995D01*
X41590D01*
Y8595D01*
X41190D01*
X42190D02*
Y8995D01*
X42590D01*
Y8595D01*
X42190D01*
X43190D02*
Y8995D01*
X43590D01*
Y8595D01*
X43190D01*
X35190Y11595D02*
Y11995D01*
X35590D01*
Y11595D01*
X35190D01*
X36190D02*
Y11995D01*
X36590D01*
Y11595D01*
X36190D01*
X37190D02*
Y11995D01*
X37590D01*
Y11595D01*
X37190D01*
X38190D02*
Y11995D01*
X38590D01*
Y11595D01*
X38190D01*
X39190D02*
Y11995D01*
X39590D01*
Y11595D01*
X39190D01*
X40190D02*
Y11995D01*
X40590D01*
Y11595D01*
X40190D01*
X41190D02*
Y11995D01*
X41590D01*
Y11595D01*
X41190D01*
X42190D02*
Y11995D01*
X42590D01*
Y11595D01*
X42190D01*
X43190D02*
Y11995D01*
X43590D01*
Y11595D01*
X43190D01*
X5107Y11889D02*
Y12289D01*
X5507D01*
Y11889D01*
X5107D01*
Y14889D02*
Y15289D01*
X5507D01*
Y14889D01*
X5107D01*
X4107Y15389D02*
Y15789D01*
X4507D01*
Y15389D01*
X4107D01*
Y12389D02*
Y12789D01*
X4507D01*
Y12389D01*
X4107D01*
X5107Y12889D02*
Y13289D01*
X5507D01*
Y12889D01*
X5107D01*
Y13889D02*
Y14289D01*
X5507D01*
Y13889D01*
X5107D01*
X4107Y13389D02*
Y13789D01*
X4507D01*
Y13389D01*
X4107D01*
Y14389D02*
Y14789D01*
X4507D01*
Y14389D01*
X4107D01*
X1807Y15889D02*
X1607Y16289D01*
X2007D01*
X1807Y15889D01*
Y11389D02*
X1607Y11789D01*
X2007D01*
X1807Y11389D01*
X7500Y10808D02*
X7600Y10908D01*
X7700D01*
X7600Y11008D01*
X7700Y11108D01*
X7600D01*
X7500Y11208D01*
X7400Y11108D01*
X7300D01*
X7400Y11008D01*
X7300Y10908D01*
X7400D01*
X7500Y10808D01*
Y7808D02*
X7600Y7908D01*
X7700D01*
X7600Y8008D01*
X7700Y8108D01*
X7600D01*
X7500Y8208D01*
X7400Y8108D01*
X7300D01*
X7400Y8008D01*
X7300Y7908D01*
X7400D01*
X7500Y7808D01*
Y13396D02*
X7600Y13496D01*
X7700D01*
X7600Y13596D01*
X7700Y13696D01*
X7600D01*
X7500Y13796D01*
X7400Y13696D01*
X7300D01*
X7400Y13596D01*
X7300Y13496D01*
X7400D01*
X7500Y13396D01*
Y16396D02*
X7600Y16496D01*
X7700D01*
X7600Y16596D01*
X7700Y16696D01*
X7600D01*
X7500Y16796D01*
X7400Y16696D01*
X7300D01*
X7400Y16596D01*
X7300Y16496D01*
X7400D01*
X7500Y16396D01*
X58097Y10755D02*
X58197Y10955D01*
X58097Y11155D01*
X58297Y11055D01*
X58497Y11155D01*
X58397Y10955D01*
X58497Y10755D01*
X58297Y10855D01*
X58097Y10755D01*
Y11778D02*
X58197Y11978D01*
X58097Y12178D01*
X58297Y12078D01*
X58497Y12178D01*
X58397Y11978D01*
X58497Y11778D01*
X58297Y11878D01*
X58097Y11778D01*
X12822Y4062D02*
X12922Y4262D01*
X12822Y4462D01*
X13022Y4362D01*
X13222Y4462D01*
X13122Y4262D01*
X13222Y4062D01*
X13022Y4162D01*
X12822Y4062D01*
Y5085D02*
X12922Y5285D01*
X12822Y5485D01*
X13022Y5385D01*
X13222Y5485D01*
X13122Y5285D01*
X13222Y5085D01*
X13022Y5185D01*
X12822Y5085D01*
X12822Y16660D02*
X12922Y16860D01*
X12822Y17060D01*
X13022Y16960D01*
X13222Y17060D01*
X13122Y16860D01*
X13222Y16660D01*
X13022Y16760D01*
X12822Y16660D01*
Y17684D02*
X12922Y17884D01*
X12822Y18084D01*
X13022Y17984D01*
X13222Y18084D01*
X13122Y17884D01*
X13222Y17684D01*
X13022Y17784D01*
X12822Y17684D01*
X71698Y12239D02*
Y12639D01*
X72098D01*
Y12239D01*
X71698D01*
Y9239D02*
Y9639D01*
X72098D01*
Y9239D01*
X71698D01*
X72698Y8739D02*
Y9139D01*
X73098D01*
Y8739D01*
X72698D01*
Y11739D02*
Y12139D01*
X73098D01*
Y11739D01*
X72698D01*
X71698Y11239D02*
Y11639D01*
X72098D01*
Y11239D01*
X71698D01*
Y10239D02*
Y10639D01*
X72098D01*
Y10239D01*
X71698D01*
X72698Y10739D02*
Y11139D01*
X73098D01*
Y10739D01*
X72698D01*
Y9739D02*
Y10139D01*
X73098D01*
Y9739D01*
X72698D01*
X75398Y8239D02*
X75198Y8639D01*
X75598D01*
X75398Y8239D01*
Y12739D02*
X75198Y13139D01*
X75598D01*
X75398Y12739D01*
X52307Y10095D02*
X52407Y10195D01*
X52507D01*
X52407Y10295D01*
X52507Y10395D01*
X52407D01*
X52307Y10495D01*
X52207Y10395D01*
X52107D01*
X52207Y10295D01*
X52107Y10195D01*
X52207D01*
X52307Y10095D01*
X49307D02*
X49407Y10195D01*
X49507D01*
X49407Y10295D01*
X49507Y10395D01*
X49407D01*
X49307Y10495D01*
X49207Y10395D01*
X49107D01*
X49207Y10295D01*
X49107Y10195D01*
X49207D01*
X49307Y10095D01*
X63087Y11670D02*
X63187Y11770D01*
X63287D01*
X63187Y11870D01*
X63287Y11970D01*
X63187D01*
X63087Y12070D01*
X62987Y11970D01*
X62887D01*
X62987Y11870D01*
X62887Y11770D01*
X62987D01*
X63087Y11670D01*
X66087D02*
X66187Y11770D01*
X66287D01*
X66187Y11870D01*
X66287Y11970D01*
X66187D01*
X66087Y12070D01*
X65987Y11970D01*
X65887D01*
X65987Y11870D01*
X65887Y11770D01*
X65987D01*
X66087Y11670D01*
X26691Y6258D02*
Y6158D01*
X26891D01*
Y6258D01*
X26991D01*
Y6458D01*
X26891D01*
Y6558D01*
X26691D01*
Y6458D01*
X26591D01*
Y6258D01*
X26691D01*
Y8227D02*
Y8127D01*
X26891D01*
Y8227D01*
X26991D01*
Y8427D01*
X26891D01*
Y8527D01*
X26691D01*
Y8427D01*
X26591D01*
Y8227D01*
X26691D01*
X8896Y15884D02*
Y15784D01*
X9096D01*
Y15884D01*
X9196D01*
Y16084D01*
X9096D01*
Y16184D01*
X8896D01*
Y16084D01*
X8796D01*
Y15884D01*
X8896D01*
Y14054D02*
Y13954D01*
X9096D01*
Y14054D01*
X9196D01*
Y14254D01*
X9096D01*
Y14354D01*
X8896D01*
Y14254D01*
X8796D01*
Y14054D01*
X8896D01*
D31*
X74236Y2067D02*
G03*
X74236Y2067I-200J0D01*
G01*
Y20020D02*
G03*
X74236Y20020I-200J0D01*
G01*
X2858D02*
G03*
X2858Y20020I-200J0D01*
G01*
Y2067D02*
G03*
X2858Y2067I-200J0D01*
G01*
M02*
