%FSLAX24Y24*%
%MOIN*%
G70*
G01*
G75*
G04 Layer_Color=61183*
%ADD10C,0.0276*%
%ADD11C,0.0394*%
%ADD12R,0.0669X0.0669*%
%ADD13C,0.0669*%
%ADD14C,0.2756*%
%ADD15C,0.0709*%
%ADD16R,0.0709X0.0709*%
%ADD17C,0.1161*%
%ADD18C,0.0787*%
%ADD19C,0.0079*%
%ADD20C,0.0100*%
%ADD21C,0.0039*%
%ADD22C,0.0030*%
G36*
X3512Y5846D02*
X3367D01*
Y5992D01*
X3512D01*
Y5846D01*
D02*
G37*
G36*
X2842Y6617D02*
X2854D01*
X2866Y6615D01*
X2881Y6613D01*
X2899Y6612D01*
X2916Y6609D01*
X2934Y6605D01*
X2974Y6596D01*
X3013Y6584D01*
X3032Y6576D01*
X3052Y6567D01*
X3053D01*
X3057Y6565D01*
X3061Y6561D01*
X3069Y6558D01*
X3077Y6552D01*
X3087Y6546D01*
X3110Y6530D01*
X3134Y6509D01*
X3160Y6485D01*
X3185Y6456D01*
X3206Y6423D01*
X3208Y6422D01*
X3209Y6418D01*
X3211Y6414D01*
X3215Y6407D01*
X3219Y6398D01*
X3224Y6387D01*
X3228Y6376D01*
X3234Y6363D01*
X3239Y6348D01*
X3243Y6332D01*
X3253Y6297D01*
X3258Y6259D01*
X3261Y6240D01*
Y6219D01*
Y6218D01*
Y6213D01*
Y6206D01*
X3259Y6197D01*
X3258Y6185D01*
X3256Y6172D01*
X3254Y6157D01*
X3250Y6139D01*
X3246Y6121D01*
X3241Y6102D01*
X3234Y6083D01*
X3226Y6062D01*
X3217Y6041D01*
X3205Y6021D01*
X3194Y6001D01*
X3179Y5980D01*
X3178Y5979D01*
X3174Y5974D01*
X3168Y5968D01*
X3160Y5959D01*
X3150Y5949D01*
X3138Y5938D01*
X3125Y5926D01*
X3108Y5913D01*
X3090Y5901D01*
X3070Y5889D01*
X3050Y5878D01*
X3027Y5867D01*
X3001Y5859D01*
X2975Y5852D01*
X2947Y5848D01*
X2918Y5846D01*
X2911D01*
X2903Y5848D01*
X2894Y5849D01*
X2873Y5853D01*
X2863Y5857D01*
X2854Y5861D01*
X2852Y5863D01*
X2850Y5864D01*
X2847Y5867D01*
X2842Y5873D01*
X2837Y5879D01*
X2832Y5887D01*
X2828Y5895D01*
X2825Y5905D01*
X2824Y5904D01*
X2822Y5903D01*
X2819Y5899D01*
X2814Y5896D01*
X2809Y5891D01*
X2802Y5887D01*
X2784Y5876D01*
X2764Y5865D01*
X2739Y5856D01*
X2713Y5849D01*
X2699Y5848D01*
X2684Y5846D01*
X2676D01*
X2670Y5848D01*
X2662Y5849D01*
X2654Y5850D01*
X2635Y5853D01*
X2612Y5860D01*
X2588Y5872D01*
X2577Y5878D01*
X2564Y5886D01*
X2553Y5895D01*
X2542Y5905D01*
X2541Y5906D01*
X2540Y5908D01*
X2538Y5911D01*
X2533Y5916D01*
X2530Y5921D01*
X2525Y5929D01*
X2519Y5938D01*
X2515Y5947D01*
X2504Y5970D01*
X2495Y5996D01*
X2488Y6027D01*
X2487Y6044D01*
X2486Y6062D01*
Y6063D01*
Y6068D01*
Y6074D01*
X2487Y6083D01*
X2488Y6093D01*
X2489Y6106D01*
X2492Y6120D01*
X2494Y6135D01*
X2499Y6152D01*
X2502Y6169D01*
X2508Y6188D01*
X2515Y6206D01*
X2523Y6226D01*
X2532Y6245D01*
X2542Y6265D01*
X2554Y6283D01*
X2555Y6285D01*
X2557Y6289D01*
X2562Y6295D01*
X2569Y6303D01*
X2577Y6312D01*
X2586Y6323D01*
X2598Y6333D01*
X2612Y6345D01*
X2625Y6356D01*
X2641Y6366D01*
X2659Y6377D01*
X2677Y6386D01*
X2698Y6394D01*
X2719Y6400D01*
X2742Y6405D01*
X2765Y6406D01*
X2774D01*
X2780Y6405D01*
X2788Y6403D01*
X2796Y6402D01*
X2817Y6396D01*
X2839Y6388D01*
X2850Y6383D01*
X2862Y6376D01*
X2872Y6368D01*
X2882Y6357D01*
X2892Y6347D01*
X2901Y6334D01*
X2914Y6393D01*
X3050D01*
X2972Y6022D01*
Y6021D01*
X2971Y6016D01*
X2970Y6010D01*
X2969Y6003D01*
X2967Y5988D01*
X2965Y5981D01*
Y5977D01*
Y5974D01*
X2967Y5970D01*
X2968Y5963D01*
X2971Y5957D01*
X2972Y5956D01*
X2975Y5955D01*
X2979Y5953D01*
X2985Y5951D01*
X2990D01*
X2994Y5953D01*
X3002Y5955D01*
X3012Y5958D01*
X3022Y5964D01*
X3035Y5971D01*
X3048Y5981D01*
X3050D01*
X3051Y5984D01*
X3058Y5988D01*
X3067Y5997D01*
X3080Y6009D01*
X3092Y6024D01*
X3107Y6042D01*
X3121Y6063D01*
X3134Y6086D01*
Y6087D01*
X3135Y6090D01*
X3137Y6093D01*
X3140Y6098D01*
X3142Y6104D01*
X3144Y6112D01*
X3151Y6129D01*
X3157Y6150D01*
X3163Y6173D01*
X3166Y6197D01*
X3167Y6223D01*
Y6225D01*
Y6229D01*
Y6236D01*
X3166Y6245D01*
X3165Y6256D01*
X3163Y6268D01*
X3159Y6282D01*
X3156Y6298D01*
X3151Y6315D01*
X3145Y6332D01*
X3137Y6349D01*
X3128Y6368D01*
X3118Y6385D01*
X3105Y6403D01*
X3091Y6421D01*
X3075Y6437D01*
X3074Y6438D01*
X3070Y6440D01*
X3066Y6445D01*
X3058Y6451D01*
X3048Y6456D01*
X3037Y6464D01*
X3024Y6473D01*
X3008Y6481D01*
X2991Y6489D01*
X2971Y6496D01*
X2950Y6504D01*
X2927Y6509D01*
X2903Y6515D01*
X2877Y6520D01*
X2848Y6522D01*
X2818Y6523D01*
X2804D01*
X2795Y6522D01*
X2782D01*
X2768Y6520D01*
X2753Y6519D01*
X2736Y6516D01*
X2699Y6509D01*
X2659Y6499D01*
X2639Y6492D01*
X2618Y6485D01*
X2599Y6476D01*
X2580Y6466D01*
X2579Y6464D01*
X2576Y6463D01*
X2571Y6460D01*
X2564Y6455D01*
X2556Y6449D01*
X2547Y6441D01*
X2537Y6433D01*
X2526Y6424D01*
X2515Y6413D01*
X2502Y6401D01*
X2490Y6387D01*
X2478Y6373D01*
X2455Y6341D01*
X2434Y6304D01*
Y6303D01*
X2432Y6300D01*
X2429Y6294D01*
X2426Y6286D01*
X2422Y6277D01*
X2419Y6265D01*
X2414Y6252D01*
X2410Y6238D01*
X2405Y6222D01*
X2401Y6206D01*
X2394Y6169D01*
X2388Y6130D01*
X2386Y6089D01*
Y6087D01*
Y6084D01*
Y6078D01*
X2387Y6070D01*
Y6061D01*
X2389Y6049D01*
X2390Y6037D01*
X2392Y6023D01*
X2399Y5992D01*
X2409Y5958D01*
X2422Y5925D01*
X2430Y5908D01*
X2440Y5890D01*
X2441Y5889D01*
X2442Y5887D01*
X2445Y5882D01*
X2450Y5875D01*
X2456Y5868D01*
X2463Y5860D01*
X2471Y5851D01*
X2480Y5841D01*
X2490Y5830D01*
X2502Y5820D01*
X2528Y5798D01*
X2560Y5777D01*
X2594Y5760D01*
X2595D01*
X2599Y5758D01*
X2605Y5757D01*
X2612Y5753D01*
X2621Y5751D01*
X2632Y5747D01*
X2645Y5743D01*
X2660Y5739D01*
X2676Y5736D01*
X2693Y5731D01*
X2712Y5728D01*
X2731Y5725D01*
X2775Y5721D01*
X2821Y5718D01*
X2833D01*
X2842Y5720D01*
X2852D01*
X2865Y5721D01*
X2879Y5722D01*
X2894Y5723D01*
X2927Y5727D01*
X2963Y5733D01*
X2999Y5742D01*
X3034Y5753D01*
X3035D01*
X3037Y5754D01*
X3042Y5757D01*
X3048Y5760D01*
X3055Y5763D01*
X3065Y5768D01*
X3085Y5780D01*
X3107Y5793D01*
X3132Y5812D01*
X3156Y5833D01*
X3178Y5857D01*
X3288D01*
Y5856D01*
X3286Y5852D01*
X3283Y5846D01*
X3279Y5840D01*
X3273Y5830D01*
X3266Y5821D01*
X3258Y5810D01*
X3249Y5797D01*
X3239Y5784D01*
X3227Y5770D01*
X3213Y5758D01*
X3200Y5744D01*
X3183Y5730D01*
X3167Y5717D01*
X3149Y5705D01*
X3129Y5693D01*
X3128Y5692D01*
X3123Y5690D01*
X3117Y5686D01*
X3107Y5683D01*
X3096Y5677D01*
X3081Y5671D01*
X3065Y5665D01*
X3046Y5659D01*
X3025Y5652D01*
X3002Y5646D01*
X2978Y5640D01*
X2952Y5634D01*
X2924Y5631D01*
X2894Y5627D01*
X2863Y5625D01*
X2831Y5624D01*
X2814D01*
X2802Y5625D01*
X2787Y5626D01*
X2771Y5627D01*
X2751Y5629D01*
X2730Y5631D01*
X2707Y5634D01*
X2683Y5638D01*
X2635Y5648D01*
X2609Y5655D01*
X2584Y5663D01*
X2560Y5671D01*
X2535Y5682D01*
X2534Y5683D01*
X2530Y5684D01*
X2524Y5687D01*
X2516Y5692D01*
X2505Y5699D01*
X2493Y5706D01*
X2480Y5714D01*
X2466Y5724D01*
X2451Y5736D01*
X2436Y5748D01*
X2421Y5762D01*
X2406Y5777D01*
X2391Y5793D01*
X2377Y5812D01*
X2364Y5830D01*
X2352Y5851D01*
X2351Y5852D01*
X2350Y5856D01*
X2346Y5863D01*
X2343Y5871D01*
X2338Y5881D01*
X2334Y5894D01*
X2328Y5908D01*
X2322Y5924D01*
X2316Y5941D01*
X2311Y5959D01*
X2306Y5980D01*
X2301Y6001D01*
X2294Y6047D01*
X2293Y6071D01*
X2292Y6095D01*
Y6097D01*
Y6102D01*
Y6109D01*
X2293Y6120D01*
X2294Y6134D01*
X2296Y6149D01*
X2298Y6165D01*
X2300Y6184D01*
X2305Y6204D01*
X2308Y6226D01*
X2314Y6248D01*
X2321Y6271D01*
X2329Y6295D01*
X2338Y6319D01*
X2349Y6342D01*
X2360Y6366D01*
X2361Y6368D01*
X2364Y6372D01*
X2367Y6378D01*
X2373Y6387D01*
X2380Y6398D01*
X2388Y6409D01*
X2398Y6423D01*
X2410Y6437D01*
X2422Y6452D01*
X2436Y6468D01*
X2452Y6483D01*
X2469Y6499D01*
X2487Y6514D01*
X2505Y6529D01*
X2526Y6542D01*
X2548Y6554D01*
X2549Y6556D01*
X2554Y6557D01*
X2560Y6560D01*
X2569Y6565D01*
X2580Y6569D01*
X2594Y6574D01*
X2609Y6580D01*
X2626Y6587D01*
X2646Y6592D01*
X2667Y6598D01*
X2689Y6603D01*
X2713Y6607D01*
X2738Y6612D01*
X2765Y6615D01*
X2791Y6617D01*
X2820Y6618D01*
X2833D01*
X2842Y6617D01*
D02*
G37*
G36*
X1885Y6603D02*
X1906Y6602D01*
X1930Y6601D01*
X1953Y6598D01*
X1976Y6594D01*
X1997Y6589D01*
X1998D01*
X2000Y6588D01*
X2004Y6587D01*
X2008Y6586D01*
X2020Y6580D01*
X2036Y6573D01*
X2053Y6564D01*
X2072Y6551D01*
X2092Y6536D01*
X2110Y6519D01*
X2111D01*
X2112Y6516D01*
X2118Y6509D01*
X2126Y6499D01*
X2138Y6485D01*
X2149Y6467D01*
X2161Y6446D01*
X2172Y6423D01*
X2183Y6396D01*
Y6395D01*
X2184Y6393D01*
X2185Y6390D01*
X2186Y6384D01*
X2188Y6377D01*
X2191Y6368D01*
X2193Y6358D01*
X2195Y6347D01*
X2198Y6334D01*
X2200Y6321D01*
X2204Y6290D01*
X2207Y6256D01*
X2208Y6218D01*
Y6217D01*
Y6213D01*
Y6208D01*
Y6202D01*
X2207Y6194D01*
Y6184D01*
X2204Y6162D01*
X2202Y6137D01*
X2198Y6110D01*
X2192Y6083D01*
X2184Y6056D01*
Y6055D01*
X2183Y6053D01*
X2181Y6048D01*
X2179Y6042D01*
X2176Y6036D01*
X2172Y6027D01*
X2163Y6009D01*
X2151Y5987D01*
X2138Y5965D01*
X2121Y5943D01*
X2103Y5923D01*
X2101Y5921D01*
X2096Y5916D01*
X2087Y5909D01*
X2075Y5901D01*
X2059Y5890D01*
X2041Y5880D01*
X2020Y5871D01*
X1996Y5861D01*
X1993Y5860D01*
X1987Y5859D01*
X1976Y5857D01*
X1960Y5855D01*
X1942Y5851D01*
X1919Y5849D01*
X1891Y5848D01*
X1861Y5846D01*
X1575D01*
Y6604D01*
X1876D01*
X1885Y6603D01*
D02*
G37*
%LPC*%
G36*
X1829Y6476D02*
X1728D01*
Y5974D01*
X1863D01*
X1877Y5976D01*
X1891D01*
X1907Y5978D01*
X1921Y5979D01*
X1932Y5981D01*
X1934D01*
X1939Y5984D01*
X1946Y5986D01*
X1954Y5988D01*
X1975Y5999D01*
X1985Y6004D01*
X1995Y6012D01*
X1996Y6014D01*
X1999Y6017D01*
X2003Y6022D01*
X2008Y6030D01*
X2015Y6040D01*
X2021Y6053D01*
X2028Y6068D01*
X2034Y6085D01*
Y6086D01*
X2035Y6087D01*
Y6091D01*
X2036Y6094D01*
X2038Y6106D01*
X2042Y6122D01*
X2045Y6142D01*
X2048Y6166D01*
X2049Y6194D01*
X2050Y6225D01*
Y6226D01*
Y6228D01*
Y6233D01*
Y6240D01*
Y6247D01*
X2049Y6255D01*
X2048Y6274D01*
X2047Y6296D01*
X2043Y6318D01*
X2040Y6340D01*
X2034Y6358D01*
X2033Y6361D01*
X2032Y6366D01*
X2028Y6375D01*
X2023Y6385D01*
X2017Y6398D01*
X2010Y6409D01*
X2002Y6422D01*
X1991Y6432D01*
X1990Y6433D01*
X1987Y6437D01*
X1980Y6441D01*
X1972Y6447D01*
X1962Y6453D01*
X1950Y6459D01*
X1936Y6463D01*
X1921Y6468D01*
X1920D01*
X1914Y6469D01*
X1906Y6470D01*
X1893Y6473D01*
X1885D01*
X1876Y6474D01*
X1867D01*
X1855Y6475D01*
X1842D01*
X1829Y6476D01*
D02*
G37*
G36*
X2778Y6312D02*
X2769D01*
X2761Y6310D01*
X2750Y6308D01*
X2737Y6304D01*
X2723Y6297D01*
X2710Y6289D01*
X2695Y6278D01*
X2693Y6277D01*
X2689Y6271D01*
X2682Y6264D01*
X2674Y6252D01*
X2665Y6238D01*
X2655Y6222D01*
X2646Y6202D01*
X2638Y6180D01*
Y6179D01*
X2637Y6177D01*
Y6174D01*
X2636Y6169D01*
X2632Y6157D01*
X2629Y6142D01*
X2625Y6124D01*
X2623Y6106D01*
X2621Y6086D01*
X2620Y6068D01*
Y6067D01*
Y6066D01*
Y6062D01*
Y6057D01*
X2621Y6046D01*
X2623Y6031D01*
X2626Y6015D01*
X2631Y6000D01*
X2637Y5984D01*
X2646Y5971D01*
X2647Y5970D01*
X2651Y5966D01*
X2656Y5962D01*
X2665Y5956D01*
X2674Y5950D01*
X2685Y5946D01*
X2698Y5942D01*
X2712Y5941D01*
X2716D01*
X2722Y5942D01*
X2729Y5943D01*
X2738Y5944D01*
X2748Y5947D01*
X2757Y5950D01*
X2767Y5955D01*
X2768D01*
X2771Y5957D01*
X2774Y5959D01*
X2780Y5963D01*
X2791Y5973D01*
X2805Y5987D01*
X2806Y5988D01*
X2810Y5993D01*
X2816Y6000D01*
X2821Y6010D01*
X2829Y6023D01*
X2836Y6039D01*
X2844Y6057D01*
X2852Y6078D01*
Y6079D01*
X2854Y6081D01*
X2855Y6084D01*
X2856Y6089D01*
X2859Y6100D01*
X2863Y6115D01*
X2866Y6132D01*
X2870Y6152D01*
X2872Y6172D01*
X2873Y6191D01*
Y6192D01*
Y6194D01*
Y6200D01*
X2872Y6211D01*
X2870Y6223D01*
X2866Y6238D01*
X2862Y6253D01*
X2855Y6267D01*
X2846Y6280D01*
X2844Y6281D01*
X2841Y6285D01*
X2835Y6290D01*
X2827Y6296D01*
X2817Y6302D01*
X2805Y6308D01*
X2793Y6311D01*
X2778Y6312D01*
D02*
G37*
%LPD*%
D10*
X8996Y14724D02*
Y15384D01*
X26791Y6998D02*
Y7697D01*
D19*
X34725Y10045D02*
G03*
X34725Y10545I0J250D01*
G01*
X34725Y9252D02*
Y10045D01*
Y10545D02*
Y11339D01*
X44055Y9252D02*
Y11339D01*
X34725Y9252D02*
X44055D01*
X34725Y11339D02*
X44055D01*
X-2342Y10839D02*
Y16839D01*
X1537D01*
X2078D02*
X5760D01*
Y10839D02*
Y16839D01*
X2078Y10839D02*
X5760D01*
X-2342D02*
X1537D01*
X7200Y10508D02*
X7500D01*
X7200Y8508D02*
Y10508D01*
Y8508D02*
X7800D01*
Y10508D01*
X7500D02*
X7800D01*
X7500Y8418D02*
Y8508D01*
Y10508D02*
Y10598D01*
Y14096D02*
X7800D01*
Y16096D01*
X7200D02*
X7800D01*
X7200Y14096D02*
Y16096D01*
Y14096D02*
X7500D01*
Y16096D02*
Y16186D01*
Y14006D02*
Y14096D01*
X79547Y7689D02*
Y13689D01*
X75668Y7689D02*
X79547D01*
X71445D02*
X75127D01*
X71445D02*
Y13689D01*
X75127D01*
X75668D02*
X79547D01*
X49717Y10295D02*
X49807D01*
X51807D02*
X51897D01*
X49807D02*
Y10595D01*
X51807D01*
Y9995D02*
Y10595D01*
X49807Y9995D02*
X51807D01*
X49807D02*
Y10295D01*
X65587Y11870D02*
X65677D01*
X63497D02*
X63587D01*
X65587Y11570D02*
Y11870D01*
X63587Y11570D02*
X65587D01*
X63587D02*
Y12170D01*
X65587D01*
Y11870D02*
Y12170D01*
D20*
X15925Y17500D02*
G03*
X15925Y17500I-2953J0D01*
G01*
X15965Y4815D02*
G03*
X15965Y4815I-2953J0D01*
G01*
X18406Y11201D02*
G03*
X18406Y11201I-2953J0D01*
G01*
X61162Y11358D02*
G03*
X61162Y11358I-2953J0D01*
G01*
X58746Y10280D02*
G03*
X57818Y10282I-462J1159D01*
G01*
X13471Y3587D02*
G03*
X12543Y3589I-462J1159D01*
G01*
X13471Y16186D02*
G03*
X12543Y16187I-462J1159D01*
G01*
X67106Y11476D02*
G03*
X67106Y11476I-2953J0D01*
G01*
X57835Y10276D02*
X58730D01*
X57654Y12775D02*
X57854D01*
X58054D01*
X57854Y12575D02*
Y12975D01*
X12559Y3583D02*
X13455D01*
X12379Y6083D02*
X12579D01*
X12779D01*
X12579Y5883D02*
Y6283D01*
X12559Y16181D02*
X13455D01*
X12379Y18681D02*
X12579D01*
X12779D01*
X12579Y18481D02*
Y18881D01*
X34789Y13026D02*
Y12526D01*
X34889Y12426D01*
X35089D01*
X35189Y12526D01*
Y13026D01*
X35389D02*
X35788D01*
Y12926D01*
X35389Y12526D01*
Y12426D01*
X7894Y11697D02*
X7294D01*
Y11997D01*
X7394Y12097D01*
X7594D01*
X7694Y11997D01*
Y11697D01*
Y11897D02*
X7894Y12097D01*
Y12297D02*
Y12497D01*
Y12397D01*
X7294D01*
X7394Y12297D01*
X7894Y13196D02*
Y12796D01*
X7494Y13196D01*
X7394D01*
X7294Y13096D01*
Y12896D01*
X7394Y12796D01*
X7894Y6358D02*
X7294D01*
Y6658D01*
X7394Y6758D01*
X7594D01*
X7694Y6658D01*
Y6358D01*
Y6558D02*
X7894Y6758D01*
Y6958D02*
Y7158D01*
Y7058D01*
X7294D01*
X7394Y6958D01*
X7894Y7458D02*
Y7658D01*
Y7558D01*
X7294D01*
X7394Y7458D01*
X6525Y12651D02*
Y12851D01*
Y12751D01*
X6025D01*
X5925Y12851D01*
Y12951D01*
X6025Y13051D01*
X6425Y12052D02*
X6525Y12151D01*
Y12351D01*
X6425Y12451D01*
X6025D01*
X5925Y12351D01*
Y12151D01*
X6025Y12052D01*
X5925Y11452D02*
Y11852D01*
X6325Y11452D01*
X6425D01*
X6525Y11552D01*
Y11752D01*
X6425Y11852D01*
X70503Y8154D02*
Y7954D01*
Y8054D01*
X71002D01*
X71102Y7954D01*
Y7854D01*
X71002Y7754D01*
X70603Y8754D02*
X70503Y8654D01*
Y8454D01*
X70603Y8354D01*
X71002D01*
X71102Y8454D01*
Y8654D01*
X71002Y8754D01*
X71102Y8954D02*
Y9154D01*
Y9054D01*
X70503D01*
X70603Y8954D01*
X10995Y16909D02*
X11595D01*
Y17209D01*
X11495Y17309D01*
X11095D01*
X10995Y17209D01*
Y16909D01*
X11095Y17509D02*
X10995Y17609D01*
Y17809D01*
X11095Y17909D01*
X11195D01*
X11295Y17809D01*
Y17709D01*
Y17809D01*
X11395Y17909D01*
X11495D01*
X11595Y17809D01*
Y17609D01*
X11495Y17509D01*
X10995Y4272D02*
X11595D01*
Y4572D01*
X11495Y4672D01*
X11095D01*
X10995Y4572D01*
Y4272D01*
X11595Y5271D02*
Y4871D01*
X11195Y5271D01*
X11095D01*
X10995Y5171D01*
Y4971D01*
X11095Y4871D01*
X60305Y11696D02*
X59705D01*
Y11396D01*
X59805Y11296D01*
X60205D01*
X60305Y11396D01*
Y11696D01*
X59705Y11096D02*
Y10896D01*
Y10996D01*
X60305D01*
X60205Y11096D01*
X49014Y10986D02*
Y11586D01*
X49314D01*
X49414Y11486D01*
Y11286D01*
X49314Y11186D01*
X49014D01*
X49214D02*
X49414Y10986D01*
X49614D02*
X49814D01*
X49714D01*
Y11586D01*
X49614Y11486D01*
X50114D02*
X50214Y11586D01*
X50414D01*
X50514Y11486D01*
Y11386D01*
X50414Y11286D01*
X50314D01*
X50414D01*
X50514Y11186D01*
Y11086D01*
X50414Y10986D01*
X50214D01*
X50114Y11086D01*
X62792Y12569D02*
Y13168D01*
X63092D01*
X63192Y13068D01*
Y12868D01*
X63092Y12768D01*
X62792D01*
X62992D02*
X63192Y12569D01*
X63392D02*
X63592D01*
X63492D01*
Y13168D01*
X63392Y13068D01*
X63891D02*
X63991Y13168D01*
X64191D01*
X64291Y13068D01*
Y12668D01*
X64191Y12569D01*
X63991D01*
X63891Y12668D01*
Y13068D01*
X18515Y9941D02*
X19114D01*
Y10241D01*
X19014Y10341D01*
X18614D01*
X18515Y10241D01*
Y9941D01*
Y10941D02*
Y10541D01*
X19114D01*
Y10941D01*
X18814Y10541D02*
Y10741D01*
X18515Y11141D02*
Y11540D01*
Y11340D01*
X19114D01*
X18515Y12140D02*
Y11740D01*
X18814D01*
X18714Y11940D01*
Y12040D01*
X18814Y12140D01*
X19014D01*
X19114Y12040D01*
Y11840D01*
X19014Y11740D01*
X59971Y6791D02*
X60571D01*
Y7091D01*
X60471Y7191D01*
X60071D01*
X59971Y7091D01*
Y6791D01*
Y7791D02*
Y7391D01*
X60571D01*
Y7791D01*
X60271Y7391D02*
Y7591D01*
X59971Y7991D02*
Y8391D01*
Y8191D01*
X60571D01*
Y8891D02*
X59971D01*
X60271Y8591D01*
Y8991D01*
D21*
X76821Y20D02*
Y21763D01*
X76801Y-0D02*
X76821Y20D01*
X20Y-0D02*
X76801D01*
X20D02*
Y21764D01*
X30Y21772D02*
X76811D01*
D22*
X24739Y11416D02*
Y14536D01*
X24769Y11356D02*
Y14566D01*
X24799Y11296D02*
Y14626D01*
X24829Y11236D02*
Y14656D01*
X24859Y11206D02*
Y14686D01*
X24889Y11176D02*
Y14716D01*
X24919Y11146D02*
Y14746D01*
X24949Y11116D02*
Y14746D01*
X24979Y11116D02*
Y11446D01*
Y12196D02*
Y12496D01*
Y12766D02*
Y12796D01*
Y14386D02*
Y14776D01*
X25009Y11086D02*
Y11386D01*
Y12196D02*
Y12526D01*
Y14356D02*
Y14776D01*
X25039Y11086D02*
Y11356D01*
Y12196D02*
Y12556D01*
Y14326D02*
Y14776D01*
X25069Y11086D02*
Y11326D01*
Y12196D02*
Y12586D01*
Y14296D02*
Y14776D01*
X25099Y11086D02*
Y11326D01*
Y12196D02*
Y12616D01*
Y14266D02*
Y14776D01*
X25129Y11086D02*
Y11296D01*
Y12196D02*
Y12646D01*
Y14236D02*
Y14776D01*
X25159Y11086D02*
Y11296D01*
Y12196D02*
Y12676D01*
Y14206D02*
Y14776D01*
X25189Y11086D02*
Y11296D01*
Y12196D02*
Y12706D01*
Y14176D02*
Y14776D01*
X25219Y11086D02*
Y11296D01*
Y12196D02*
Y12736D01*
Y14146D02*
Y14776D01*
X25249Y11086D02*
Y11296D01*
Y12196D02*
Y12766D01*
Y14116D02*
Y14776D01*
X25279Y11086D02*
Y11296D01*
Y12196D02*
Y12796D01*
Y14086D02*
Y14776D01*
X25309Y11086D02*
Y11296D01*
Y12196D02*
Y12826D01*
Y14056D02*
Y14776D01*
X25339Y11086D02*
Y11296D01*
Y12196D02*
Y12856D01*
Y14026D02*
Y14776D01*
X25369Y11086D02*
Y11296D01*
Y12196D02*
Y12886D01*
Y13996D02*
Y14776D01*
X25399Y11086D02*
Y11296D01*
Y12196D02*
Y12916D01*
Y13966D02*
Y14776D01*
X25429Y11086D02*
Y11296D01*
Y12196D02*
Y12946D01*
Y13966D02*
Y14776D01*
X25459Y11086D02*
Y11296D01*
Y12196D02*
Y12976D01*
Y13936D02*
Y14776D01*
X25489Y11086D02*
Y11296D01*
Y12196D02*
Y13006D01*
Y13906D02*
Y14776D01*
X25519Y11086D02*
Y11296D01*
Y12196D02*
Y13036D01*
Y13876D02*
Y14776D01*
X25549Y11086D02*
Y11296D01*
Y12196D02*
Y13066D01*
Y13846D02*
Y14776D01*
X25579Y11086D02*
Y11296D01*
Y12196D02*
Y13096D01*
Y13816D02*
Y14776D01*
X25609Y11086D02*
Y11296D01*
Y12226D02*
Y13126D01*
Y13786D02*
Y14776D01*
X25639Y11086D02*
Y11296D01*
Y12256D02*
Y13156D01*
Y13756D02*
Y14776D01*
X25669Y11086D02*
Y11296D01*
Y12016D02*
Y12136D01*
Y12286D02*
Y13186D01*
Y13726D02*
Y14776D01*
X25699Y11086D02*
Y11296D01*
Y11956D02*
Y12166D01*
Y12316D02*
Y13216D01*
Y13696D02*
Y14776D01*
X25729Y11086D02*
Y11296D01*
Y11866D02*
Y12196D01*
Y12316D02*
Y13246D01*
Y13666D02*
Y14776D01*
X25759Y11086D02*
Y11296D01*
Y11836D02*
Y12226D01*
Y12376D02*
Y13276D01*
Y13636D02*
Y14776D01*
X25789Y11086D02*
Y11296D01*
Y11776D02*
Y12256D01*
Y12406D02*
Y13306D01*
Y13606D02*
Y14776D01*
X25819Y11086D02*
Y11296D01*
Y11746D02*
Y12286D01*
Y12436D02*
Y13336D01*
Y13576D02*
Y14776D01*
X25849Y11086D02*
Y11296D01*
Y11716D02*
Y12316D01*
Y12466D02*
Y13366D01*
Y13546D02*
Y14776D01*
X25879Y11086D02*
Y11296D01*
Y11686D02*
Y12346D01*
Y12496D02*
Y13396D01*
Y13516D02*
Y14776D01*
X25909Y11086D02*
Y11296D01*
Y11656D02*
Y12376D01*
Y12526D02*
Y13426D01*
Y13486D02*
Y14776D01*
X25939Y11086D02*
Y11296D01*
Y11626D02*
Y12406D01*
Y12556D02*
Y14776D01*
X25969Y11086D02*
Y11296D01*
Y11596D02*
Y12436D01*
Y12586D02*
Y14776D01*
X25999Y11086D02*
Y11296D01*
Y11596D02*
Y12466D01*
Y12616D02*
Y14776D01*
X26029Y11086D02*
Y11296D01*
Y11566D02*
Y12496D01*
Y12646D02*
Y14776D01*
X26059Y11086D02*
Y11296D01*
Y11536D02*
Y12526D01*
Y12676D02*
Y14776D01*
X26089Y11086D02*
Y11296D01*
Y11536D02*
Y12556D01*
Y12706D02*
Y14776D01*
X26119Y11086D02*
Y11296D01*
Y11506D02*
Y12586D01*
Y12736D02*
Y14776D01*
X26149Y11086D02*
Y11296D01*
Y11506D02*
Y12616D01*
Y12766D02*
Y14776D01*
X26179Y11086D02*
Y11296D01*
Y11506D02*
Y12646D01*
Y12796D02*
Y14776D01*
X26209Y11086D02*
Y11296D01*
Y11476D02*
Y12676D01*
Y12826D02*
Y14776D01*
X26239Y11086D02*
Y11296D01*
Y11476D02*
Y12706D01*
Y12856D02*
Y14056D01*
Y14086D02*
Y14776D01*
X26269Y11086D02*
Y11296D01*
Y11476D02*
Y12226D01*
Y12886D02*
Y14026D01*
Y14086D02*
Y14776D01*
X26299Y11086D02*
Y11296D01*
Y11476D02*
Y12166D01*
Y12916D02*
Y13996D01*
Y14086D02*
Y14776D01*
X26329Y11086D02*
Y11296D01*
Y11476D02*
Y12136D01*
Y12976D02*
Y13966D01*
Y14086D02*
Y14776D01*
X26359Y11086D02*
Y11296D01*
Y11476D02*
Y12106D01*
Y13006D02*
Y13936D01*
Y14086D02*
Y14776D01*
X26389Y11086D02*
Y11296D01*
Y11446D02*
Y12106D01*
Y13036D02*
Y13906D01*
Y14086D02*
Y14776D01*
X26419Y11086D02*
Y11296D01*
Y11446D02*
Y12106D01*
Y13066D02*
Y13876D01*
Y14086D02*
Y14776D01*
X26449Y11086D02*
Y11296D01*
Y11446D02*
Y12106D01*
Y13096D02*
Y13846D01*
Y14086D02*
Y14776D01*
X26479Y11086D02*
Y11296D01*
Y11476D02*
Y12106D01*
Y13126D02*
Y13816D01*
Y14086D02*
Y14776D01*
X26509Y11086D02*
Y11296D01*
Y11476D02*
Y12136D01*
Y14086D02*
Y14776D01*
X26539Y11086D02*
Y11296D01*
Y11476D02*
Y12166D01*
Y14086D02*
Y14776D01*
X26569Y11086D02*
Y11296D01*
Y11476D02*
Y12196D01*
Y14086D02*
Y14776D01*
X26599Y11086D02*
Y11296D01*
Y11476D02*
Y13366D01*
Y14086D02*
Y14776D01*
X26629Y11086D02*
Y11296D01*
Y11476D02*
Y13486D01*
Y14086D02*
Y14776D01*
X26659Y11086D02*
Y11296D01*
Y11506D02*
Y13546D01*
Y14086D02*
Y14776D01*
X26689Y11086D02*
Y11296D01*
Y11506D02*
Y13606D01*
Y14086D02*
Y14776D01*
X26719Y11086D02*
Y11296D01*
Y11506D02*
Y13666D01*
Y14086D02*
Y14776D01*
X26749Y11086D02*
Y11296D01*
Y11536D02*
Y13696D01*
Y14086D02*
Y14776D01*
X26779Y11086D02*
Y11296D01*
Y11536D02*
Y13726D01*
Y14086D02*
Y14776D01*
X26809Y11086D02*
Y11296D01*
Y11566D02*
Y13756D01*
Y14086D02*
Y14776D01*
X26839Y11086D02*
Y11296D01*
Y11566D02*
Y13786D01*
Y14086D02*
Y14776D01*
X26869Y11086D02*
Y11296D01*
Y11596D02*
Y13816D01*
Y14086D02*
Y14776D01*
X26899Y11086D02*
Y11296D01*
Y11626D02*
Y13846D01*
Y14086D02*
Y14776D01*
X26929Y11086D02*
Y11296D01*
Y11626D02*
Y13876D01*
Y14086D02*
Y14776D01*
X26959Y11086D02*
Y11296D01*
Y11656D02*
Y13876D01*
Y14086D02*
Y14776D01*
X26989Y11086D02*
Y11296D01*
Y11686D02*
Y13906D01*
Y14086D02*
Y14776D01*
X27019Y11086D02*
Y11296D01*
Y11716D02*
Y13906D01*
Y14086D02*
Y14776D01*
X27049Y11086D02*
Y11296D01*
Y11746D02*
Y13936D01*
Y14086D02*
Y14776D01*
X27079Y11086D02*
Y11296D01*
Y11806D02*
Y13936D01*
Y14086D02*
Y14776D01*
X27109Y11086D02*
Y11296D01*
Y11836D02*
Y13966D01*
Y14086D02*
Y14776D01*
X27139Y11086D02*
Y11296D01*
Y11896D02*
Y13966D01*
Y14086D02*
Y14776D01*
X27169Y11086D02*
Y11296D01*
Y11956D02*
Y13966D01*
Y14086D02*
Y14776D01*
X27199Y11086D02*
Y11296D01*
Y12046D02*
Y13966D01*
Y14086D02*
Y14776D01*
X27229Y11086D02*
Y11296D01*
Y12136D02*
Y12166D01*
Y13276D02*
Y13996D01*
Y14086D02*
Y14776D01*
X27259Y11086D02*
Y11296D01*
Y13306D02*
Y13996D01*
Y14086D02*
Y14776D01*
X27289Y11086D02*
Y11296D01*
Y13336D02*
Y13996D01*
Y14086D02*
Y14776D01*
X27319Y11086D02*
Y11296D01*
Y13366D02*
Y13996D01*
Y14086D02*
Y14776D01*
X27349Y11086D02*
Y11296D01*
Y13366D02*
Y13996D01*
Y14086D02*
Y14776D01*
X27379Y11086D02*
Y11296D01*
Y13366D02*
Y13996D01*
Y14086D02*
Y14776D01*
X27409Y11086D02*
Y11296D01*
Y13366D02*
Y13996D01*
Y14086D02*
Y14776D01*
X27439Y11086D02*
Y11296D01*
Y13336D02*
Y13996D01*
Y14086D02*
Y14776D01*
X27469Y11086D02*
Y11296D01*
Y13306D02*
Y13996D01*
Y14086D02*
Y14776D01*
X27499Y11086D02*
Y11296D01*
Y12856D02*
Y12886D01*
Y13276D02*
Y13996D01*
Y14086D02*
Y14776D01*
X27529Y11086D02*
Y13966D01*
Y14086D02*
Y14776D01*
X27559Y11086D02*
Y13966D01*
Y14086D02*
Y14776D01*
X27589Y11086D02*
Y13966D01*
Y14086D02*
Y14776D01*
X27619Y11086D02*
Y13966D01*
Y14086D02*
Y14776D01*
X27649Y11086D02*
Y13936D01*
Y14086D02*
Y14776D01*
X27679Y11086D02*
Y13936D01*
Y14086D02*
Y14776D01*
X27709Y11086D02*
Y13906D01*
Y14086D02*
Y14776D01*
X27739Y11086D02*
Y13906D01*
Y14086D02*
Y14776D01*
X27769Y11086D02*
Y13876D01*
Y14086D02*
Y14776D01*
X27799Y11086D02*
Y13876D01*
Y14086D02*
Y14776D01*
X27829Y11086D02*
Y13846D01*
Y14086D02*
Y14776D01*
X27859Y11086D02*
Y13816D01*
Y14086D02*
Y14776D01*
X27889Y11086D02*
Y13786D01*
Y14086D02*
Y14776D01*
X27919Y11086D02*
Y13756D01*
Y14086D02*
Y14776D01*
X27949Y11086D02*
Y13726D01*
Y14086D02*
Y14776D01*
X27979Y11086D02*
Y13696D01*
Y14086D02*
Y14776D01*
X28009Y11086D02*
Y13636D01*
Y14086D02*
Y14776D01*
X28039Y11086D02*
Y13606D01*
Y14086D02*
Y14776D01*
X28069Y11086D02*
Y13546D01*
Y14086D02*
Y14776D01*
X28099Y11086D02*
Y13486D01*
Y14086D02*
Y14776D01*
X28129Y11086D02*
Y13366D01*
Y14086D02*
Y14776D01*
X28159Y11086D02*
Y11296D01*
Y14566D02*
Y14776D01*
X28189Y11086D02*
Y11296D01*
Y14566D02*
Y14776D01*
X28219Y11086D02*
Y11326D01*
Y14566D02*
Y14776D01*
X28249Y11086D02*
Y11326D01*
Y14536D02*
Y14776D01*
X28279Y11086D02*
Y11386D01*
Y14506D02*
Y14776D01*
X28309Y11086D02*
Y14746D01*
X28339Y11116D02*
Y14716D01*
X28369Y11146D02*
Y14716D01*
X28399Y11146D02*
Y14686D01*
X28429Y11176D02*
Y14656D01*
Y15946D02*
Y16096D01*
X28459Y11236D02*
Y14596D01*
Y15916D02*
Y15976D01*
Y16066D02*
Y16126D01*
X28489Y11326D02*
Y14536D01*
Y15886D02*
Y15916D01*
Y15946D02*
Y16066D01*
Y16126D02*
Y16156D01*
X28519Y15856D02*
Y15886D01*
Y15946D02*
Y15976D01*
Y16066D02*
Y16096D01*
Y16156D02*
Y16186D01*
X28549Y15856D02*
Y15886D01*
Y15946D02*
Y15976D01*
Y16066D02*
Y16096D01*
Y16156D02*
Y16186D01*
X28579Y15856D02*
Y15886D01*
Y15946D02*
Y15976D01*
Y16036D02*
Y16096D01*
Y16156D02*
Y16186D01*
X28609Y15856D02*
Y15886D01*
Y15946D02*
Y16066D01*
Y16156D02*
Y16186D01*
X28639Y15856D02*
Y15886D01*
Y15946D02*
Y15976D01*
Y16036D02*
Y16066D01*
Y16156D02*
Y16186D01*
X28669Y15856D02*
Y15916D01*
Y15946D02*
Y15976D01*
Y16066D02*
Y16096D01*
Y16126D02*
Y16186D01*
X28699Y15886D02*
Y15916D01*
Y15946D02*
Y15976D01*
Y16066D02*
Y16156D01*
X28729Y15916D02*
Y15976D01*
Y16066D02*
Y16126D01*
X28759Y15976D02*
Y16066D01*
X28819Y13756D02*
Y13936D01*
X28849Y13636D02*
Y14056D01*
Y15586D02*
Y15796D01*
X28879Y13546D02*
Y14116D01*
Y15496D02*
Y15796D01*
X28909Y10336D02*
Y10606D01*
Y11326D02*
Y11596D01*
Y11716D02*
Y11866D01*
Y12766D02*
Y12946D01*
Y13066D02*
Y13246D01*
Y13486D02*
Y14146D01*
Y15436D02*
Y15796D01*
X28939Y10336D02*
Y10606D01*
Y11296D02*
Y11566D01*
Y11686D02*
Y11866D01*
Y12766D02*
Y12946D01*
Y13066D02*
Y13246D01*
Y13456D02*
Y14176D01*
Y15406D02*
Y15766D01*
Y15856D02*
Y16096D01*
X28969Y10336D02*
Y10606D01*
Y11296D02*
Y11566D01*
Y11686D02*
Y11866D01*
Y12766D02*
Y12946D01*
Y13066D02*
Y13216D01*
Y13426D02*
Y14206D01*
Y15406D02*
Y15766D01*
Y15826D02*
Y16096D01*
X28999Y10336D02*
Y10636D01*
Y11266D02*
Y11566D01*
Y11686D02*
Y11866D01*
Y12766D02*
Y12916D01*
Y13066D02*
Y13216D01*
Y13396D02*
Y14236D01*
Y15376D02*
Y15766D01*
Y15826D02*
Y16066D01*
X29029Y10306D02*
Y10636D01*
Y11236D02*
Y11566D01*
Y11686D02*
Y11836D01*
Y12766D02*
Y12916D01*
Y13036D02*
Y13216D01*
Y13366D02*
Y14236D01*
Y15376D02*
Y15766D01*
Y15826D02*
Y16066D01*
X29059Y10306D02*
Y10636D01*
Y11236D02*
Y11536D01*
Y11686D02*
Y11836D01*
Y12766D02*
Y12916D01*
Y13036D02*
Y13216D01*
Y13366D02*
Y13666D01*
Y13906D02*
Y14236D01*
Y15346D02*
Y15616D01*
Y15826D02*
Y16066D01*
X29089Y10306D02*
Y10636D01*
Y11206D02*
Y11536D01*
Y13036D02*
Y13216D01*
Y13336D02*
Y13606D01*
Y13966D02*
Y14266D01*
Y15346D02*
Y15616D01*
Y15826D02*
Y16066D01*
X29119Y10306D02*
Y10636D01*
Y11206D02*
Y11536D01*
Y13036D02*
Y13186D01*
Y13336D02*
Y13576D01*
Y13996D02*
Y14266D01*
Y15346D02*
Y15586D01*
Y15796D02*
Y16066D01*
X29149Y10306D02*
Y10636D01*
Y11176D02*
Y11536D01*
Y13006D02*
Y13186D01*
Y13306D02*
Y13576D01*
Y13996D02*
Y14266D01*
Y14686D02*
Y14866D01*
Y15346D02*
Y15586D01*
Y15796D02*
Y16036D01*
X29179Y10276D02*
Y10456D01*
Y10486D02*
Y10636D01*
Y11176D02*
Y11326D01*
Y11356D02*
Y11536D01*
Y13006D02*
Y13186D01*
Y13306D02*
Y13546D01*
Y13996D02*
Y14266D01*
Y14566D02*
Y14986D01*
Y15226D02*
Y16186D01*
X29209Y10276D02*
Y10456D01*
Y10486D02*
Y10666D01*
Y11146D02*
Y11326D01*
Y11356D02*
Y11506D01*
Y13006D02*
Y13186D01*
Y13306D02*
Y13546D01*
Y13996D02*
Y14266D01*
Y14506D02*
Y15046D01*
Y15196D02*
Y16186D01*
X29239Y10276D02*
Y10456D01*
Y10486D02*
Y10666D01*
Y11116D02*
Y11296D01*
Y11326D02*
Y11506D01*
Y11626D02*
Y11806D01*
Y11836D02*
Y12016D01*
Y12496D02*
Y12676D01*
Y12706D02*
Y12886D01*
Y13006D02*
Y13156D01*
Y13306D02*
Y13546D01*
Y14446D02*
Y15076D01*
Y15196D02*
Y16186D01*
X29269Y10276D02*
Y10426D01*
Y10486D02*
Y10666D01*
Y11116D02*
Y11266D01*
Y11326D02*
Y11506D01*
Y11626D02*
Y11806D01*
Y11836D02*
Y12016D01*
Y12496D02*
Y12676D01*
Y12706D02*
Y12856D01*
Y13006D02*
Y13156D01*
Y13306D02*
Y13576D01*
Y14416D02*
Y15106D01*
Y15196D02*
Y16186D01*
X29299Y10246D02*
Y10426D01*
Y10486D02*
Y10666D01*
Y11086D02*
Y11266D01*
Y11326D02*
Y11506D01*
Y11626D02*
Y11776D01*
Y11836D02*
Y12016D01*
Y12466D02*
Y12646D01*
Y12706D02*
Y12856D01*
Y12976D02*
Y13156D01*
Y13306D02*
Y13636D01*
Y14386D02*
Y15106D01*
Y15196D02*
Y16156D01*
X29329Y10246D02*
Y10426D01*
Y10486D02*
Y10666D01*
Y11086D02*
Y11236D01*
Y11326D02*
Y11476D01*
Y11626D02*
Y11776D01*
Y11836D02*
Y12016D01*
Y12436D02*
Y12646D01*
Y12676D02*
Y12856D01*
Y12976D02*
Y13156D01*
Y13306D02*
Y13726D01*
Y14356D02*
Y15136D01*
Y15166D02*
Y16156D01*
X29359Y10246D02*
Y10426D01*
Y10516D02*
Y10666D01*
Y11056D02*
Y11236D01*
Y11296D02*
Y11476D01*
Y11596D02*
Y11776D01*
Y11836D02*
Y12016D01*
Y12436D02*
Y12616D01*
Y12676D02*
Y12856D01*
Y12976D02*
Y13156D01*
Y13306D02*
Y13846D01*
Y14326D02*
Y14686D01*
Y14806D02*
Y15136D01*
Y15196D02*
Y16156D01*
X29389Y10246D02*
Y10426D01*
Y10516D02*
Y10666D01*
Y11056D02*
Y11206D01*
Y11296D02*
Y11476D01*
Y11596D02*
Y11776D01*
Y11836D02*
Y12046D01*
Y12406D02*
Y12586D01*
Y12676D02*
Y12856D01*
Y12976D02*
Y13126D01*
Y13306D02*
Y13966D01*
Y14326D02*
Y14626D01*
Y14866D02*
Y15136D01*
Y15286D02*
Y15556D01*
Y15766D02*
Y16006D01*
X29419Y10246D02*
Y10396D01*
Y10516D02*
Y10666D01*
Y11026D02*
Y11206D01*
Y11296D02*
Y11476D01*
Y11596D02*
Y11776D01*
Y11866D02*
Y12046D01*
Y12406D02*
Y12586D01*
Y12676D02*
Y12826D01*
Y12946D02*
Y13126D01*
Y13336D02*
Y14056D01*
Y14296D02*
Y14566D01*
Y14866D02*
Y15166D01*
Y15286D02*
Y15526D01*
Y15766D02*
Y16006D01*
X29449Y10216D02*
Y10396D01*
Y10516D02*
Y10696D01*
Y10996D02*
Y11176D01*
Y11296D02*
Y11476D01*
Y11596D02*
Y11746D01*
Y11866D02*
Y12046D01*
Y12376D02*
Y12556D01*
Y12646D02*
Y12826D01*
Y12946D02*
Y13126D01*
Y13366D02*
Y14116D01*
Y14296D02*
Y14566D01*
Y14896D02*
Y15166D01*
Y15286D02*
Y15526D01*
Y15736D02*
Y16006D01*
X29479Y10216D02*
Y10396D01*
Y10516D02*
Y10696D01*
Y10996D02*
Y11146D01*
Y11266D02*
Y11446D01*
Y11566D02*
Y11746D01*
Y11866D02*
Y12046D01*
Y12376D02*
Y12526D01*
Y12646D02*
Y12826D01*
Y12946D02*
Y13126D01*
Y13396D02*
Y14146D01*
Y14266D02*
Y14536D01*
Y14896D02*
Y15166D01*
Y15286D02*
Y15526D01*
Y15736D02*
Y15976D01*
X29509Y10216D02*
Y10396D01*
Y10516D02*
Y10696D01*
Y10966D02*
Y11146D01*
Y11266D02*
Y11446D01*
Y11566D02*
Y11746D01*
Y11866D02*
Y12046D01*
Y12346D02*
Y12526D01*
Y12646D02*
Y12826D01*
Y12946D02*
Y13096D01*
Y13426D02*
Y14176D01*
Y14266D02*
Y14506D01*
Y14896D02*
Y15166D01*
Y15286D02*
Y15526D01*
Y15736D02*
Y15976D01*
X29539Y10216D02*
Y10396D01*
Y10516D02*
Y10696D01*
Y10966D02*
Y11116D01*
Y11266D02*
Y11446D01*
Y11566D02*
Y11746D01*
Y11866D02*
Y12046D01*
Y12316D02*
Y12496D01*
Y12646D02*
Y12796D01*
Y12946D02*
Y13096D01*
Y13516D02*
Y14176D01*
Y14236D02*
Y14506D01*
Y14896D02*
Y15166D01*
Y15256D02*
Y15526D01*
Y15736D02*
Y15976D01*
X29569Y10186D02*
Y10366D01*
Y10546D02*
Y10696D01*
Y10936D02*
Y11116D01*
Y11266D02*
Y11446D01*
Y11566D02*
Y11716D01*
Y11866D02*
Y12046D01*
Y12316D02*
Y12496D01*
Y12646D02*
Y12796D01*
Y12916D02*
Y13096D01*
Y13636D02*
Y14206D01*
Y14236D02*
Y14506D01*
Y14896D02*
Y15166D01*
Y15256D02*
Y15526D01*
Y15736D02*
Y15976D01*
X29599Y10186D02*
Y10366D01*
Y10546D02*
Y10696D01*
Y10936D02*
Y11086D01*
Y11266D02*
Y11416D01*
Y11566D02*
Y11716D01*
Y11896D02*
Y12046D01*
Y12286D02*
Y12466D01*
Y12616D02*
Y12796D01*
Y12916D02*
Y13096D01*
Y13756D02*
Y14206D01*
Y14236D02*
Y14476D01*
Y14896D02*
Y15166D01*
Y15256D02*
Y15496D01*
Y15706D02*
Y15976D01*
X29629Y10186D02*
Y10366D01*
Y10546D02*
Y10696D01*
Y10906D02*
Y11056D01*
Y11236D02*
Y11416D01*
Y11536D02*
Y11716D01*
Y11896D02*
Y12076D01*
Y12286D02*
Y12436D01*
Y12616D02*
Y12796D01*
Y12916D02*
Y13096D01*
Y13846D02*
Y14476D01*
Y14896D02*
Y15166D01*
Y15256D02*
Y15496D01*
Y15706D02*
Y15946D01*
X29659Y10186D02*
Y10366D01*
Y10546D02*
Y10726D01*
Y10876D02*
Y11056D01*
Y11236D02*
Y11416D01*
Y11536D02*
Y11716D01*
Y11896D02*
Y12076D01*
Y12256D02*
Y12436D01*
Y12616D02*
Y12796D01*
Y12916D02*
Y13066D01*
Y13906D02*
Y14476D01*
Y14896D02*
Y15166D01*
Y15256D02*
Y15496D01*
Y15706D02*
Y15946D01*
X29689Y10186D02*
Y10336D01*
Y10546D02*
Y10726D01*
Y10876D02*
Y11026D01*
Y11236D02*
Y11416D01*
Y11536D02*
Y11716D01*
Y11896D02*
Y12076D01*
Y12226D02*
Y12406D01*
Y12616D02*
Y12766D01*
Y12886D02*
Y13066D01*
Y13936D02*
Y14476D01*
Y14896D02*
Y15136D01*
Y15256D02*
Y15496D01*
Y15706D02*
Y15946D01*
X29719Y10156D02*
Y10336D01*
Y10546D02*
Y10726D01*
Y10846D02*
Y11026D01*
Y11236D02*
Y11416D01*
Y11536D02*
Y11686D01*
Y11896D02*
Y12076D01*
Y12226D02*
Y12376D01*
Y12586D02*
Y12766D01*
Y12886D02*
Y13066D01*
Y13186D02*
Y13456D01*
Y13936D02*
Y14476D01*
Y14866D02*
Y15136D01*
Y15226D02*
Y15496D01*
Y15706D02*
Y15946D01*
X29749Y10156D02*
Y10336D01*
Y10546D02*
Y10726D01*
Y10846D02*
Y10996D01*
Y11206D02*
Y11386D01*
Y11506D02*
Y11686D01*
Y11896D02*
Y12076D01*
Y12196D02*
Y12376D01*
Y12586D02*
Y12766D01*
Y12886D02*
Y13066D01*
Y13186D02*
Y13456D01*
Y13936D02*
Y14476D01*
Y14866D02*
Y15136D01*
Y15226D02*
Y15466D01*
Y15676D02*
Y15946D01*
X29779Y10156D02*
Y10336D01*
Y10546D02*
Y10726D01*
Y10816D02*
Y10996D01*
Y11206D02*
Y11386D01*
Y11506D02*
Y11686D01*
Y11896D02*
Y12076D01*
Y12196D02*
Y12346D01*
Y12586D02*
Y12766D01*
Y12886D02*
Y13036D01*
Y13186D02*
Y13456D01*
Y13936D02*
Y14176D01*
Y14206D02*
Y14476D01*
Y14836D02*
Y15106D01*
Y15226D02*
Y15466D01*
Y15676D02*
Y15916D01*
X29809Y10156D02*
Y10336D01*
Y10576D02*
Y10726D01*
Y10786D02*
Y10966D01*
Y11206D02*
Y11386D01*
Y11506D02*
Y11686D01*
Y11926D02*
Y12076D01*
Y12166D02*
Y12346D01*
Y12586D02*
Y12766D01*
Y12886D02*
Y13036D01*
Y13186D02*
Y13456D01*
Y13906D02*
Y14176D01*
Y14206D02*
Y14476D01*
Y14836D02*
Y15106D01*
Y15226D02*
Y15466D01*
Y15676D02*
Y15916D01*
X29839Y10126D02*
Y10306D01*
Y10576D02*
Y10726D01*
Y10786D02*
Y10936D01*
Y11206D02*
Y11386D01*
Y11506D02*
Y11686D01*
Y11926D02*
Y12076D01*
Y12166D02*
Y12316D01*
Y12586D02*
Y12736D01*
Y12856D02*
Y13036D01*
Y13186D02*
Y13486D01*
Y13876D02*
Y14176D01*
Y14206D02*
Y14506D01*
Y14806D02*
Y15076D01*
Y15226D02*
Y15466D01*
Y15676D02*
Y15916D01*
X29869Y10126D02*
Y10306D01*
Y10576D02*
Y10726D01*
Y10756D02*
Y10936D01*
Y11206D02*
Y11356D01*
Y11506D02*
Y11656D01*
Y11926D02*
Y12106D01*
Y12136D02*
Y12286D01*
Y12556D02*
Y12736D01*
Y12856D02*
Y13036D01*
Y13186D02*
Y13516D01*
Y13846D02*
Y14146D01*
Y14236D02*
Y14506D01*
Y14776D02*
Y15076D01*
Y15196D02*
Y15466D01*
Y15676D02*
Y15916D01*
X29899Y10126D02*
Y10306D01*
Y10576D02*
Y10906D01*
Y11176D02*
Y11356D01*
Y11476D02*
Y11656D01*
Y11926D02*
Y12286D01*
Y12556D02*
Y12736D01*
Y12856D02*
Y13036D01*
Y13186D02*
Y14116D01*
Y14236D02*
Y14566D01*
Y14716D02*
Y15046D01*
Y15196D02*
Y15466D01*
Y15676D02*
Y15916D01*
X29929Y10126D02*
Y10306D01*
Y10576D02*
Y10906D01*
Y11176D02*
Y11356D01*
Y11476D02*
Y11656D01*
Y11926D02*
Y12256D01*
Y12556D02*
Y12736D01*
Y12856D02*
Y13006D01*
Y13216D02*
Y14116D01*
Y14236D02*
Y15016D01*
Y15196D02*
Y15436D01*
Y15646D02*
Y16036D01*
X29959Y10126D02*
Y10276D01*
Y10576D02*
Y10876D01*
Y11176D02*
Y11356D01*
Y11476D02*
Y11656D01*
Y11926D02*
Y12256D01*
Y12556D02*
Y12706D01*
Y12826D02*
Y13006D01*
Y13216D02*
Y14086D01*
Y14266D02*
Y14986D01*
Y15196D02*
Y15436D01*
Y15646D02*
Y16036D01*
X29989Y10096D02*
Y10276D01*
Y10576D02*
Y10876D01*
Y11176D02*
Y11356D01*
Y11476D02*
Y11626D01*
Y11956D02*
Y12226D01*
Y12526D02*
Y12706D01*
Y12826D02*
Y13006D01*
Y13246D02*
Y14056D01*
Y14266D02*
Y14956D01*
Y15196D02*
Y15436D01*
Y15646D02*
Y16036D01*
X30019Y10096D02*
Y10276D01*
Y10606D02*
Y10846D01*
Y11146D02*
Y11326D01*
Y11446D02*
Y11626D01*
Y11956D02*
Y12196D01*
Y12526D02*
Y12706D01*
Y12826D02*
Y13006D01*
Y13276D02*
Y13996D01*
Y14296D02*
Y14926D01*
Y15196D02*
Y15436D01*
Y15676D02*
Y16036D01*
X30049Y10096D02*
Y10276D01*
Y10606D02*
Y10816D01*
Y11146D02*
Y11326D01*
Y11446D02*
Y11626D01*
Y11956D02*
Y12196D01*
Y12526D02*
Y12706D01*
Y12826D02*
Y12976D01*
Y13336D02*
Y13966D01*
Y14326D02*
Y14896D01*
Y15166D02*
Y15436D01*
Y15676D02*
Y16036D01*
X30079Y10096D02*
Y10276D01*
Y10606D02*
Y10816D01*
Y11146D02*
Y11326D01*
Y11446D02*
Y11626D01*
Y11956D02*
Y12166D01*
Y12526D02*
Y12706D01*
Y12826D02*
Y12976D01*
Y13396D02*
Y13876D01*
Y14386D02*
Y14836D01*
Y15166D02*
Y15406D01*
Y15736D02*
Y16036D01*
X30109Y10096D02*
Y10246D01*
Y10606D02*
Y10786D01*
Y11146D02*
Y11326D01*
Y11446D02*
Y11596D01*
Y11956D02*
Y12136D01*
Y12526D02*
Y12676D01*
Y12826D02*
Y12976D01*
Y13486D02*
Y13786D01*
Y14476D02*
Y14716D01*
M02*
