%FSLAX24Y24*%
%MOIN*%
G70*
G01*
G75*
%ADD10C,0.0315*%
%ADD11C,0.0276*%
%ADD12O,0.0787X0.0394*%
%ADD13C,0.0650*%
%ADD14C,0.0709*%
%ADD15R,0.0709X0.0709*%
%ADD16R,0.0709X0.0709*%
%ADD17C,0.2756*%
%ADD18C,0.0787*%
%ADD19C,0.0100*%
%ADD20C,0.0079*%
%ADD21C,0.0039*%
%ADD22C,0.0030*%
%ADD23O,0.0867X0.0474*%
%ADD24C,0.0730*%
%ADD25C,0.0789*%
%ADD26R,0.0789X0.0789*%
%ADD27R,0.0789X0.0789*%
%ADD28C,0.2836*%
%ADD29C,0.0867*%
%ADD30C,0.0050*%
%ADD31C,0.0067*%
D30*
X-4134Y12561D02*
X-3839D01*
X-3986Y12413D02*
Y12709D01*
X-4134Y13061D02*
X-3839D01*
X-3986Y12913D02*
Y13209D01*
X-4134Y13561D02*
X-3839D01*
X-3986Y13413D02*
Y13709D01*
X-4134Y14061D02*
X-3839D01*
X-3986Y13913D02*
Y14209D01*
X19114Y4522D02*
X19508D01*
X19311Y4325D02*
Y4719D01*
X19114Y6522D02*
X19508D01*
X19311Y6325D02*
Y6719D01*
X16772Y4022D02*
X17106D01*
X16939Y3854D02*
Y4189D01*
X16772Y7022D02*
X17106D01*
X16939Y6854D02*
Y7189D01*
X6207Y10236D02*
X6541D01*
X6374Y10069D02*
Y10404D01*
X9207Y10236D02*
X9541D01*
X9374Y10069D02*
Y10404D01*
X7067Y6683D02*
X7421D01*
X7244Y6506D02*
Y6860D01*
X8067Y6683D02*
X8421D01*
X8244Y6506D02*
Y6860D01*
X9067Y6683D02*
X9421D01*
X9244Y6506D02*
Y6860D01*
X9067Y15364D02*
X9421D01*
X9244Y15187D02*
Y15541D01*
X8067Y15364D02*
X8421D01*
X8244Y15187D02*
Y15541D01*
X7067Y15364D02*
X7421D01*
X7244Y15187D02*
Y15541D01*
X55335Y12236D02*
X55689D01*
X55512Y12059D02*
Y12413D01*
X55335Y11236D02*
X55689D01*
X55512Y11059D02*
Y11413D01*
X55335Y10236D02*
X55689D01*
X55512Y10059D02*
Y10413D01*
X46047Y12598D02*
X46441D01*
X46244Y12402D02*
Y12795D01*
X48047Y12598D02*
X48441D01*
X48244Y12402D02*
Y12795D01*
X42110Y12598D02*
X42504D01*
X42307Y12402D02*
Y12795D01*
X44110Y12598D02*
X44504D01*
X44307Y12402D02*
Y12795D01*
X1801Y15035D02*
X2136D01*
X1969Y14868D02*
Y15203D01*
X1801Y18035D02*
X2136D01*
X1969Y17868D02*
Y18203D01*
X1801Y13705D02*
X2136D01*
X1969Y13537D02*
Y13872D01*
X1801Y10705D02*
X2136D01*
X1969Y10537D02*
Y10872D01*
X19095Y15929D02*
X19488D01*
X19291Y15732D02*
Y16126D01*
X19095Y17929D02*
X19488D01*
X19291Y17732D02*
Y18126D01*
X14370Y17929D02*
X14764D01*
X14567Y17732D02*
Y18126D01*
X14370Y15929D02*
X14764D01*
X14567Y15732D02*
Y16126D01*
X14370Y6522D02*
X14764D01*
X14567Y6325D02*
Y6719D01*
X14370Y4522D02*
X14764D01*
X14567Y4325D02*
Y4719D01*
X69620Y12486D02*
X70900D01*
X70260Y11846D02*
Y13126D01*
X69620Y7986D02*
X70900D01*
X70260Y7346D02*
Y8626D01*
X67583Y9486D02*
X67937D01*
X67760Y9309D02*
Y9663D01*
X67583Y10486D02*
X67937D01*
X67760Y10309D02*
Y10663D01*
X66583Y9986D02*
X66937D01*
X66760Y9809D02*
Y10163D01*
X66583Y10986D02*
X66937D01*
X66760Y10809D02*
Y11163D01*
X67583Y11486D02*
X67937D01*
X67760Y11309D02*
Y11663D01*
X67583Y8486D02*
X67937D01*
X67760Y8309D02*
Y8663D01*
X66583Y8986D02*
X66937D01*
X66760Y8809D02*
Y9163D01*
X66583Y11986D02*
X66937D01*
X66760Y11809D02*
Y12163D01*
X2126Y2008D02*
X3701D01*
X2913Y1220D02*
Y2795D01*
X2126Y19961D02*
X3701D01*
X2913Y19173D02*
Y20748D01*
X69291Y19961D02*
X70866D01*
X70079Y19173D02*
Y20748D01*
X69291Y2008D02*
X70866D01*
X70079Y1220D02*
Y2795D01*
X21486Y18429D02*
X21821D01*
X21654Y18262D02*
Y18596D01*
X21486Y15429D02*
X21821D01*
X21654Y15262D02*
Y15596D01*
X16762Y15429D02*
X17096D01*
X16929Y15262D02*
Y15596D01*
X16762Y18429D02*
X17096D01*
X16929Y18262D02*
Y18596D01*
X21486Y9374D02*
X21821D01*
X21654Y9207D02*
Y9541D01*
X21486Y6374D02*
X21821D01*
X21654Y6207D02*
Y6541D01*
X38415Y12130D02*
X38750D01*
X38583Y11963D02*
Y12297D01*
X38415Y9130D02*
X38750D01*
X38583Y8963D02*
Y9297D01*
X40384Y9130D02*
X40719D01*
X40551Y8963D02*
Y9297D01*
X40384Y12130D02*
X40719D01*
X40551Y11963D02*
Y12297D01*
X-2933Y11811D02*
X-2579D01*
X-2756Y11634D02*
Y11988D01*
X-2933Y12811D02*
X-2579D01*
X-2756Y12634D02*
Y12988D01*
X-2933Y13811D02*
X-2579D01*
X-2756Y13634D02*
Y13988D01*
X-2933Y14811D02*
X-2579D01*
X-2756Y14634D02*
Y14988D01*
X61732Y12992D02*
X62126D01*
X61929Y12795D02*
Y13189D01*
X61732Y18514D02*
X62126D01*
X61929Y18317D02*
Y18711D01*
X61732Y9986D02*
X62126D01*
X61929Y9789D02*
Y10183D01*
X61732Y5906D02*
X62126D01*
X61929Y5709D02*
Y6102D01*
X58465Y16929D02*
X58858D01*
X58661Y16732D02*
Y17126D01*
X26181Y17323D02*
X26575D01*
X26378Y17126D02*
Y17520D01*
X26181Y12992D02*
X26575D01*
X26378Y12795D02*
Y13189D01*
X58465Y11811D02*
X58858D01*
X58661Y11614D02*
Y12008D01*
X11644Y6348D02*
X12037D01*
X11841Y6152D02*
Y6545D01*
X11644Y3573D02*
X12037D01*
X11841Y3376D02*
Y3770D01*
M02*
