%FSLAX24Y24*%
%MOIN*%
G70*
G01*
G75*
G04 Layer_Color=61183*
%ADD10C,0.0315*%
%ADD11C,0.0276*%
%ADD12O,0.0787X0.0394*%
%ADD13C,0.0650*%
%ADD14C,0.0709*%
%ADD15R,0.0709X0.0709*%
%ADD16R,0.0709X0.0709*%
%ADD17C,0.2756*%
%ADD18C,0.0787*%
%ADD19C,0.0100*%
%ADD20C,0.0079*%
%ADD21C,0.0039*%
%ADD22C,0.0030*%
D10*
X61939Y9419D02*
X61949Y6486D01*
X58652Y16289D02*
X58661Y12451D01*
X61919Y13661D02*
Y17864D01*
X26368Y13593D02*
Y16683D01*
X11841Y4252D02*
X11841Y5719D01*
D19*
X56417Y11299D02*
G03*
X56417Y11299I-2953J0D01*
G01*
X11220Y4756D02*
G03*
X11220Y4756I-2953J0D01*
G01*
Y17323D02*
G03*
X11220Y17323I-2953J0D01*
G01*
X-4173Y14559D02*
X-3573D01*
Y14859D01*
X-3673Y14959D01*
X-4073D01*
X-4173Y14859D01*
Y14559D01*
X-3573Y15159D02*
X-4173D01*
Y15459D01*
X-4073Y15559D01*
X-3873D01*
X-3773Y15459D01*
Y15159D01*
Y15359D02*
X-3573Y15559D01*
X-4073Y16159D02*
X-4173Y16059D01*
Y15859D01*
X-4073Y15759D01*
X-3673D01*
X-3573Y15859D01*
Y16059D01*
X-3673Y16159D01*
X-3873D01*
Y15959D01*
X-4173Y16358D02*
X-3573D01*
Y16658D01*
X-3673Y16758D01*
X-3773D01*
X-3873Y16658D01*
Y16358D01*
Y16658D01*
X-3973Y16758D01*
X-4073D01*
X-4173Y16658D01*
Y16358D01*
X-3573Y17358D02*
Y16958D01*
X-3973Y17358D01*
X-4073D01*
X-4173Y17258D01*
Y17058D01*
X-4073Y16958D01*
X66620Y14497D02*
X66420D01*
X66520D01*
Y13998D01*
X66420Y13898D01*
X66320D01*
X66220Y13998D01*
X67220Y14397D02*
X67120Y14497D01*
X66920D01*
X66820Y14397D01*
Y13998D01*
X66920Y13898D01*
X67120D01*
X67220Y13998D01*
X67820Y13898D02*
X67420D01*
X67820Y14298D01*
Y14397D01*
X67720Y14497D01*
X67520D01*
X67420Y14397D01*
X54892Y10915D02*
X54292D01*
Y11215D01*
X54392Y11315D01*
X54592D01*
X54692Y11215D01*
Y10915D01*
X54892Y11815D02*
X54292D01*
X54592Y11515D01*
Y11915D01*
X7579Y5295D02*
Y5895D01*
X7879D01*
X7979Y5795D01*
Y5595D01*
X7879Y5495D01*
X7579D01*
X8578Y5895D02*
X8179D01*
Y5595D01*
X8378Y5695D01*
X8478D01*
X8578Y5595D01*
Y5395D01*
X8478Y5295D01*
X8279D01*
X8179Y5395D01*
X7825Y15984D02*
Y16584D01*
X8125D01*
X8225Y16484D01*
Y16284D01*
X8125Y16184D01*
X7825D01*
X8824Y16584D02*
X8625Y16484D01*
X8425Y16284D01*
Y16084D01*
X8525Y15984D01*
X8725D01*
X8824Y16084D01*
Y16184D01*
X8725Y16284D01*
X8425D01*
X40316Y12745D02*
Y13345D01*
X40616D01*
X40716Y13245D01*
Y13045D01*
X40616Y12945D01*
X40316D01*
X40516D02*
X40716Y12745D01*
X40916D02*
X41116D01*
X41016D01*
Y13345D01*
X40916Y13245D01*
X38348Y12744D02*
Y13343D01*
X38647D01*
X38747Y13243D01*
Y13043D01*
X38647Y12943D01*
X38348D01*
X38547D02*
X38747Y12744D01*
X39347D02*
X38947D01*
X39347Y13143D01*
Y13243D01*
X39247Y13343D01*
X39047D01*
X38947Y13243D01*
X16555Y7667D02*
Y8267D01*
X16855D01*
X16955Y8167D01*
Y7967D01*
X16855Y7867D01*
X16555D01*
X16755D02*
X16955Y7667D01*
X17155Y8167D02*
X17255Y8267D01*
X17455D01*
X17555Y8167D01*
Y8067D01*
X17455Y7967D01*
X17355D01*
X17455D01*
X17555Y7867D01*
Y7767D01*
X17455Y7667D01*
X17255D01*
X17155Y7767D01*
X21359Y10073D02*
Y10673D01*
X21659D01*
X21759Y10573D01*
Y10373D01*
X21659Y10273D01*
X21359D01*
X21559D02*
X21759Y10073D01*
X22258D02*
Y10673D01*
X21958Y10373D01*
X22358D01*
X16694Y19044D02*
Y19644D01*
X16994D01*
X17094Y19544D01*
Y19344D01*
X16994Y19244D01*
X16694D01*
X16894D02*
X17094Y19044D01*
X17694Y19644D02*
X17294D01*
Y19344D01*
X17494Y19444D01*
X17594D01*
X17694Y19344D01*
Y19144D01*
X17594Y19044D01*
X17394D01*
X17294Y19144D01*
X21412Y19044D02*
Y19644D01*
X21712D01*
X21812Y19544D01*
Y19344D01*
X21712Y19244D01*
X21412D01*
X21612D02*
X21812Y19044D01*
X22412Y19644D02*
X22212Y19544D01*
X22012Y19344D01*
Y19144D01*
X22112Y19044D01*
X22312D01*
X22412Y19144D01*
Y19244D01*
X22312Y19344D01*
X22012D01*
X512Y17746D02*
Y18346D01*
X812D01*
X912Y18246D01*
Y18046D01*
X812Y17946D01*
X512D01*
X712D02*
X912Y17746D01*
X1112Y18346D02*
X1511D01*
Y18246D01*
X1112Y17846D01*
Y17746D01*
X512Y10463D02*
Y11062D01*
X812D01*
X912Y10962D01*
Y10763D01*
X812Y10663D01*
X512D01*
X712D02*
X912Y10463D01*
X1112Y10962D02*
X1212Y11062D01*
X1412D01*
X1511Y10962D01*
Y10862D01*
X1412Y10763D01*
X1511Y10663D01*
Y10563D01*
X1412Y10463D01*
X1212D01*
X1112Y10563D01*
Y10663D01*
X1212Y10763D01*
X1112Y10862D01*
Y10962D01*
X1212Y10763D02*
X1412D01*
X7559Y10728D02*
Y11328D01*
X7859D01*
X7959Y11228D01*
Y11028D01*
X7859Y10928D01*
X7559D01*
X7759D02*
X7959Y10728D01*
X8159Y10828D02*
X8259Y10728D01*
X8459D01*
X8559Y10828D01*
Y11228D01*
X8459Y11328D01*
X8259D01*
X8159Y11228D01*
Y11128D01*
X8259Y11028D01*
X8559D01*
X42319Y13699D02*
X42219Y13799D01*
X42019D01*
X41919Y13699D01*
Y13299D01*
X42019Y13199D01*
X42219D01*
X42319Y13299D01*
X42519Y13199D02*
X42719D01*
X42619D01*
Y13799D01*
X42519Y13699D01*
X46177Y13679D02*
X46077Y13779D01*
X45878D01*
X45778Y13679D01*
Y13279D01*
X45878Y13179D01*
X46077D01*
X46177Y13279D01*
X46777Y13179D02*
X46377D01*
X46777Y13579D01*
Y13679D01*
X46677Y13779D01*
X46477D01*
X46377Y13679D01*
X14405Y8167D02*
X14305Y8267D01*
X14105D01*
X14005Y8167D01*
Y7767D01*
X14105Y7667D01*
X14305D01*
X14405Y7767D01*
X14605Y8167D02*
X14705Y8267D01*
X14905D01*
X15005Y8167D01*
Y8067D01*
X14905Y7967D01*
X14805D01*
X14905D01*
X15005Y7867D01*
Y7767D01*
X14905Y7667D01*
X14705D01*
X14605Y7767D01*
X19268Y8167D02*
X19168Y8267D01*
X18968D01*
X18868Y8167D01*
Y7767D01*
X18968Y7667D01*
X19168D01*
X19268Y7767D01*
X19768Y7667D02*
Y8267D01*
X19468Y7967D01*
X19868D01*
X14237Y19544D02*
X14137Y19644D01*
X13938D01*
X13838Y19544D01*
Y19144D01*
X13938Y19044D01*
X14137D01*
X14237Y19144D01*
X14837Y19644D02*
X14437D01*
Y19344D01*
X14637Y19444D01*
X14737D01*
X14837Y19344D01*
Y19144D01*
X14737Y19044D01*
X14537D01*
X14437Y19144D01*
X18969Y19544D02*
X18869Y19644D01*
X18669D01*
X18569Y19544D01*
Y19144D01*
X18669Y19044D01*
X18869D01*
X18969Y19144D01*
X19568Y19644D02*
X19368Y19544D01*
X19168Y19344D01*
Y19144D01*
X19268Y19044D01*
X19468D01*
X19568Y19144D01*
Y19244D01*
X19468Y19344D01*
X19168D01*
X-1929Y12096D02*
X-1329D01*
Y12396D01*
X-1429Y12496D01*
X-1829D01*
X-1929Y12396D01*
Y12096D01*
X-1329Y12696D02*
X-1929D01*
Y12996D01*
X-1829Y13096D01*
X-1629D01*
X-1529Y12996D01*
Y12696D01*
Y12896D02*
X-1329Y13096D01*
X-1829Y13696D02*
X-1929Y13596D01*
Y13396D01*
X-1829Y13296D01*
X-1429D01*
X-1329Y13396D01*
Y13596D01*
X-1429Y13696D01*
X-1629D01*
Y13496D01*
X-1929Y13896D02*
X-1329D01*
Y14196D01*
X-1429Y14296D01*
X-1529D01*
X-1629Y14196D01*
Y13896D01*
Y14196D01*
X-1729Y14296D01*
X-1829D01*
X-1929Y14196D01*
Y13896D01*
X52481Y10069D02*
X53081D01*
Y10369D01*
X52981Y10469D01*
X52581D01*
X52481Y10369D01*
Y10069D01*
Y11069D02*
Y10669D01*
X53081D01*
Y11069D01*
X52781Y10669D02*
Y10869D01*
X52481Y11269D02*
Y11668D01*
Y11468D01*
X53081D01*
Y12168D02*
X52481D01*
X52781Y11868D01*
Y12268D01*
D20*
X18819Y7018D02*
X19803D01*
X18819Y4026D02*
X19803D01*
Y7018D01*
X18819Y4026D02*
Y7018D01*
X16939Y6522D02*
Y6612D01*
Y4432D02*
Y4522D01*
Y6522D02*
X17239D01*
Y4522D02*
Y6522D01*
X16639Y4522D02*
X17239D01*
X16639D02*
Y6522D01*
X16939D01*
X8874Y10236D02*
X8964D01*
X6784D02*
X6874D01*
X8874Y9936D02*
Y10236D01*
X6874Y9936D02*
X8874D01*
X6874D02*
Y10536D01*
X8874D01*
Y10236D02*
Y10536D01*
X9744Y6183D02*
Y7183D01*
X6744Y6183D02*
X9744D01*
X6744D02*
Y7183D01*
X9744D01*
X6744Y14864D02*
Y15864D01*
X9744D01*
Y14864D02*
Y15864D01*
X6744Y14864D02*
X9744D01*
X55012Y9736D02*
X56012D01*
X55012D02*
Y12736D01*
X56012D01*
Y9736D02*
Y12736D01*
X48740Y12106D02*
Y13091D01*
X45748Y12106D02*
Y13091D01*
Y12106D02*
X48740D01*
X45748Y13091D02*
X48740D01*
X44803Y12106D02*
Y13091D01*
X41811Y12106D02*
Y13091D01*
Y12106D02*
X44803D01*
X41811Y13091D02*
X44803D01*
X1969Y17535D02*
Y17625D01*
Y15445D02*
Y15535D01*
Y17535D02*
X2269D01*
Y15535D02*
Y17535D01*
X1669Y15535D02*
X2269D01*
X1669D02*
Y17535D01*
X1969D01*
Y11115D02*
Y11205D01*
Y13205D02*
Y13295D01*
X1669Y11205D02*
X1969D01*
X1669D02*
Y13205D01*
X2269D01*
Y11205D02*
Y13205D01*
X1969Y11205D02*
X2269D01*
X18799Y18425D02*
X19783D01*
X18799Y15433D02*
X19783D01*
Y18425D01*
X18799Y15433D02*
Y18425D01*
X14075Y15433D02*
X15059D01*
X14075Y18425D02*
X15059D01*
X14075Y15433D02*
Y18425D01*
X15059Y15433D02*
Y18425D01*
X14075Y4026D02*
X15059D01*
X14075Y7018D02*
X15059D01*
X14075Y4026D02*
Y7018D01*
X15059Y4026D02*
Y7018D01*
X70530Y13236D02*
X74409D01*
X66307D02*
X69989D01*
X66307Y7236D02*
Y13236D01*
Y7236D02*
X69989D01*
X70530D02*
X74409D01*
Y13236D01*
X21654Y15839D02*
Y15929D01*
Y17929D02*
Y18019D01*
X21354Y15929D02*
X21654D01*
X21354D02*
Y17929D01*
X21954D01*
Y15929D02*
Y17929D01*
X21654Y15929D02*
X21954D01*
X16929Y17929D02*
Y18019D01*
Y15839D02*
Y15929D01*
Y17929D02*
X17229D01*
Y15929D02*
Y17929D01*
X16629Y15929D02*
X17229D01*
X16629D02*
Y17929D01*
X16929D01*
X21654Y6784D02*
Y6874D01*
Y8874D02*
Y8964D01*
X21354Y6874D02*
X21654D01*
X21354D02*
Y8874D01*
X21954D01*
Y6874D02*
Y8874D01*
X21654Y6874D02*
X21954D01*
X38583Y9540D02*
Y9630D01*
Y11630D02*
Y11720D01*
X38283Y9630D02*
X38583D01*
X38283D02*
Y11630D01*
X38883D01*
Y9630D02*
Y11630D01*
X38583Y9630D02*
X38883D01*
X40551Y11630D02*
Y11720D01*
Y9540D02*
Y9630D01*
Y11630D02*
X40851D01*
Y9630D02*
Y11630D01*
X40251Y9630D02*
X40851D01*
X40251D02*
Y11630D01*
X40551D01*
X-3256Y15311D02*
X-2256D01*
Y11311D02*
Y15311D01*
X-3256Y11311D02*
Y15311D01*
Y11311D02*
X-2256D01*
D21*
X72047Y0D02*
Y21654D01*
X0Y0D02*
X72047D01*
X0D02*
Y10236D01*
X-4724D02*
X0D01*
X-4724D02*
Y21654D01*
X72047D01*
D22*
X29867Y9181D02*
Y12301D01*
X29897Y9121D02*
Y12331D01*
X29927Y9061D02*
Y12391D01*
X29957Y9001D02*
Y12421D01*
X29987Y8971D02*
Y12451D01*
X30017Y8941D02*
Y12481D01*
X30047Y8911D02*
Y12511D01*
X30077Y8881D02*
Y12511D01*
X30107Y8881D02*
Y9211D01*
Y9961D02*
Y10261D01*
Y10531D02*
Y10561D01*
Y12151D02*
Y12541D01*
X30137Y8851D02*
Y9151D01*
Y9961D02*
Y10291D01*
Y12121D02*
Y12541D01*
X30167Y8851D02*
Y9121D01*
Y9961D02*
Y10321D01*
Y12091D02*
Y12541D01*
X30197Y8851D02*
Y9091D01*
Y9961D02*
Y10351D01*
Y12061D02*
Y12541D01*
X30227Y8851D02*
Y9091D01*
Y9961D02*
Y10381D01*
Y12031D02*
Y12541D01*
X30257Y8851D02*
Y9061D01*
Y9961D02*
Y10411D01*
Y12001D02*
Y12541D01*
X30287Y8851D02*
Y9061D01*
Y9961D02*
Y10441D01*
Y11971D02*
Y12541D01*
X30317Y8851D02*
Y9061D01*
Y9961D02*
Y10471D01*
Y11941D02*
Y12541D01*
X30347Y8851D02*
Y9061D01*
Y9961D02*
Y10501D01*
Y11911D02*
Y12541D01*
X30377Y8851D02*
Y9061D01*
Y9961D02*
Y10531D01*
Y11881D02*
Y12541D01*
X30407Y8851D02*
Y9061D01*
Y9961D02*
Y10561D01*
Y11851D02*
Y12541D01*
X30437Y8851D02*
Y9061D01*
Y9961D02*
Y10591D01*
Y11821D02*
Y12541D01*
X30467Y8851D02*
Y9061D01*
Y9961D02*
Y10621D01*
Y11791D02*
Y12541D01*
X30497Y8851D02*
Y9061D01*
Y9961D02*
Y10651D01*
Y11761D02*
Y12541D01*
X30527Y8851D02*
Y9061D01*
Y9961D02*
Y10681D01*
Y11731D02*
Y12541D01*
X30557Y8851D02*
Y9061D01*
Y9961D02*
Y10711D01*
Y11731D02*
Y12541D01*
X30587Y8851D02*
Y9061D01*
Y9961D02*
Y10741D01*
Y11701D02*
Y12541D01*
X30617Y8851D02*
Y9061D01*
Y9961D02*
Y10771D01*
Y11671D02*
Y12541D01*
X30647Y8851D02*
Y9061D01*
Y9961D02*
Y10801D01*
Y11641D02*
Y12541D01*
X30677Y8851D02*
Y9061D01*
Y9961D02*
Y10831D01*
Y11611D02*
Y12541D01*
X30707Y8851D02*
Y9061D01*
Y9961D02*
Y10861D01*
Y11581D02*
Y12541D01*
X30737Y8851D02*
Y9061D01*
Y9991D02*
Y10891D01*
Y11551D02*
Y12541D01*
X30767Y8851D02*
Y9061D01*
Y10021D02*
Y10921D01*
Y11521D02*
Y12541D01*
X30797Y8851D02*
Y9061D01*
Y9781D02*
Y9901D01*
Y10051D02*
Y10951D01*
Y11491D02*
Y12541D01*
X30827Y8851D02*
Y9061D01*
Y9721D02*
Y9931D01*
Y10081D02*
Y10981D01*
Y11461D02*
Y12541D01*
X30857Y8851D02*
Y9061D01*
Y9631D02*
Y9961D01*
Y10081D02*
Y11011D01*
Y11431D02*
Y12541D01*
X30887Y8851D02*
Y9061D01*
Y9601D02*
Y9991D01*
Y10141D02*
Y11041D01*
Y11401D02*
Y12541D01*
X30917Y8851D02*
Y9061D01*
Y9541D02*
Y10021D01*
Y10171D02*
Y11071D01*
Y11371D02*
Y12541D01*
X30947Y8851D02*
Y9061D01*
Y9511D02*
Y10051D01*
Y10201D02*
Y11101D01*
Y11341D02*
Y12541D01*
X30977Y8851D02*
Y9061D01*
Y9481D02*
Y10081D01*
Y10231D02*
Y11131D01*
Y11311D02*
Y12541D01*
X31007Y8851D02*
Y9061D01*
Y9451D02*
Y10111D01*
Y10261D02*
Y11161D01*
Y11281D02*
Y12541D01*
X31037Y8851D02*
Y9061D01*
Y9421D02*
Y10141D01*
Y10291D02*
Y11191D01*
Y11251D02*
Y12541D01*
X31067Y8851D02*
Y9061D01*
Y9391D02*
Y10171D01*
Y10321D02*
Y12541D01*
X31097Y8851D02*
Y9061D01*
Y9361D02*
Y10201D01*
Y10351D02*
Y12541D01*
X31127Y8851D02*
Y9061D01*
Y9361D02*
Y10231D01*
Y10381D02*
Y12541D01*
X31157Y8851D02*
Y9061D01*
Y9331D02*
Y10261D01*
Y10411D02*
Y12541D01*
X31187Y8851D02*
Y9061D01*
Y9301D02*
Y10291D01*
Y10441D02*
Y12541D01*
X31217Y8851D02*
Y9061D01*
Y9301D02*
Y10321D01*
Y10471D02*
Y12541D01*
X31247Y8851D02*
Y9061D01*
Y9271D02*
Y10351D01*
Y10501D02*
Y12541D01*
X31277Y8851D02*
Y9061D01*
Y9271D02*
Y10381D01*
Y10531D02*
Y12541D01*
X31307Y8851D02*
Y9061D01*
Y9271D02*
Y10411D01*
Y10561D02*
Y12541D01*
X31337Y8851D02*
Y9061D01*
Y9241D02*
Y10441D01*
Y10591D02*
Y12541D01*
X31367Y8851D02*
Y9061D01*
Y9241D02*
Y10471D01*
Y10621D02*
Y11821D01*
Y11851D02*
Y12541D01*
X31397Y8851D02*
Y9061D01*
Y9241D02*
Y9991D01*
Y10651D02*
Y11791D01*
Y11851D02*
Y12541D01*
X31427Y8851D02*
Y9061D01*
Y9241D02*
Y9931D01*
Y10681D02*
Y11761D01*
Y11851D02*
Y12541D01*
X31457Y8851D02*
Y9061D01*
Y9241D02*
Y9901D01*
Y10741D02*
Y11731D01*
Y11851D02*
Y12541D01*
X31487Y8851D02*
Y9061D01*
Y9241D02*
Y9871D01*
Y10771D02*
Y11701D01*
Y11851D02*
Y12541D01*
X31517Y8851D02*
Y9061D01*
Y9211D02*
Y9871D01*
Y10801D02*
Y11671D01*
Y11851D02*
Y12541D01*
X31547Y8851D02*
Y9061D01*
Y9211D02*
Y9871D01*
Y10831D02*
Y11641D01*
Y11851D02*
Y12541D01*
X31577Y8851D02*
Y9061D01*
Y9211D02*
Y9871D01*
Y10861D02*
Y11611D01*
Y11851D02*
Y12541D01*
X31607Y8851D02*
Y9061D01*
Y9241D02*
Y9871D01*
Y10891D02*
Y11581D01*
Y11851D02*
Y12541D01*
X31637Y8851D02*
Y9061D01*
Y9241D02*
Y9901D01*
Y11851D02*
Y12541D01*
X31667Y8851D02*
Y9061D01*
Y9241D02*
Y9931D01*
Y11851D02*
Y12541D01*
X31697Y8851D02*
Y9061D01*
Y9241D02*
Y9961D01*
Y11851D02*
Y12541D01*
X31727Y8851D02*
Y9061D01*
Y9241D02*
Y11131D01*
Y11851D02*
Y12541D01*
X31757Y8851D02*
Y9061D01*
Y9241D02*
Y11251D01*
Y11851D02*
Y12541D01*
X31787Y8851D02*
Y9061D01*
Y9271D02*
Y11311D01*
Y11851D02*
Y12541D01*
X31817Y8851D02*
Y9061D01*
Y9271D02*
Y11371D01*
Y11851D02*
Y12541D01*
X31847Y8851D02*
Y9061D01*
Y9271D02*
Y11431D01*
Y11851D02*
Y12541D01*
X31877Y8851D02*
Y9061D01*
Y9301D02*
Y11461D01*
Y11851D02*
Y12541D01*
X31907Y8851D02*
Y9061D01*
Y9301D02*
Y11491D01*
Y11851D02*
Y12541D01*
X31937Y8851D02*
Y9061D01*
Y9331D02*
Y11521D01*
Y11851D02*
Y12541D01*
X31967Y8851D02*
Y9061D01*
Y9331D02*
Y11551D01*
Y11851D02*
Y12541D01*
X31997Y8851D02*
Y9061D01*
Y9361D02*
Y11581D01*
Y11851D02*
Y12541D01*
X32027Y8851D02*
Y9061D01*
Y9391D02*
Y11611D01*
Y11851D02*
Y12541D01*
X32057Y8851D02*
Y9061D01*
Y9391D02*
Y11641D01*
Y11851D02*
Y12541D01*
X32087Y8851D02*
Y9061D01*
Y9421D02*
Y11641D01*
Y11851D02*
Y12541D01*
X32117Y8851D02*
Y9061D01*
Y9451D02*
Y11671D01*
Y11851D02*
Y12541D01*
X32147Y8851D02*
Y9061D01*
Y9481D02*
Y11671D01*
Y11851D02*
Y12541D01*
X32177Y8851D02*
Y9061D01*
Y9511D02*
Y11701D01*
Y11851D02*
Y12541D01*
X32207Y8851D02*
Y9061D01*
Y9571D02*
Y11701D01*
Y11851D02*
Y12541D01*
X32237Y8851D02*
Y9061D01*
Y9601D02*
Y11731D01*
Y11851D02*
Y12541D01*
X32267Y8851D02*
Y9061D01*
Y9661D02*
Y11731D01*
Y11851D02*
Y12541D01*
X32297Y8851D02*
Y9061D01*
Y9721D02*
Y11731D01*
Y11851D02*
Y12541D01*
X32327Y8851D02*
Y9061D01*
Y9811D02*
Y11731D01*
Y11851D02*
Y12541D01*
X32357Y8851D02*
Y9061D01*
Y9901D02*
Y9931D01*
Y11041D02*
Y11761D01*
Y11851D02*
Y12541D01*
X32387Y8851D02*
Y9061D01*
Y11071D02*
Y11761D01*
Y11851D02*
Y12541D01*
X32417Y8851D02*
Y9061D01*
Y11101D02*
Y11761D01*
Y11851D02*
Y12541D01*
X32447Y8851D02*
Y9061D01*
Y11131D02*
Y11761D01*
Y11851D02*
Y12541D01*
X32477Y8851D02*
Y9061D01*
Y11131D02*
Y11761D01*
Y11851D02*
Y12541D01*
X32507Y8851D02*
Y9061D01*
Y11131D02*
Y11761D01*
Y11851D02*
Y12541D01*
X32537Y8851D02*
Y9061D01*
Y11131D02*
Y11761D01*
Y11851D02*
Y12541D01*
X32567Y8851D02*
Y9061D01*
Y11101D02*
Y11761D01*
Y11851D02*
Y12541D01*
X32597Y8851D02*
Y9061D01*
Y11071D02*
Y11761D01*
Y11851D02*
Y12541D01*
X32627Y8851D02*
Y9061D01*
Y10621D02*
Y10651D01*
Y11041D02*
Y11761D01*
Y11851D02*
Y12541D01*
X32657Y8851D02*
Y11731D01*
Y11851D02*
Y12541D01*
X32687Y8851D02*
Y11731D01*
Y11851D02*
Y12541D01*
X32717Y8851D02*
Y11731D01*
Y11851D02*
Y12541D01*
X32747Y8851D02*
Y11731D01*
Y11851D02*
Y12541D01*
X32777Y8851D02*
Y11701D01*
Y11851D02*
Y12541D01*
X32807Y8851D02*
Y11701D01*
Y11851D02*
Y12541D01*
X32837Y8851D02*
Y11671D01*
Y11851D02*
Y12541D01*
X32867Y8851D02*
Y11671D01*
Y11851D02*
Y12541D01*
X32897Y8851D02*
Y11641D01*
Y11851D02*
Y12541D01*
X32927Y8851D02*
Y11641D01*
Y11851D02*
Y12541D01*
X32957Y8851D02*
Y11611D01*
Y11851D02*
Y12541D01*
X32987Y8851D02*
Y11581D01*
Y11851D02*
Y12541D01*
X33017Y8851D02*
Y11551D01*
Y11851D02*
Y12541D01*
X33047Y8851D02*
Y11521D01*
Y11851D02*
Y12541D01*
X33077Y8851D02*
Y11491D01*
Y11851D02*
Y12541D01*
X33107Y8851D02*
Y11461D01*
Y11851D02*
Y12541D01*
X33137Y8851D02*
Y11401D01*
Y11851D02*
Y12541D01*
X33167Y8851D02*
Y11371D01*
Y11851D02*
Y12541D01*
X33197Y8851D02*
Y11311D01*
Y11851D02*
Y12541D01*
X33227Y8851D02*
Y11251D01*
Y11851D02*
Y12541D01*
X33257Y8851D02*
Y11131D01*
Y11851D02*
Y12541D01*
X33287Y8851D02*
Y9061D01*
Y12331D02*
Y12541D01*
X33317Y8851D02*
Y9061D01*
Y12331D02*
Y12541D01*
X33347Y8851D02*
Y9091D01*
Y12331D02*
Y12541D01*
X33377Y8851D02*
Y9091D01*
Y12301D02*
Y12541D01*
X33407Y8851D02*
Y9151D01*
Y12271D02*
Y12541D01*
X33437Y8851D02*
Y12511D01*
X33467Y8881D02*
Y12481D01*
X33497Y8911D02*
Y12481D01*
X33527Y8911D02*
Y12451D01*
X33557Y8941D02*
Y12421D01*
Y13711D02*
Y13861D01*
X33587Y9001D02*
Y12361D01*
Y13681D02*
Y13741D01*
Y13831D02*
Y13891D01*
X33617Y9091D02*
Y12301D01*
Y13651D02*
Y13681D01*
Y13711D02*
Y13831D01*
Y13891D02*
Y13921D01*
X33647Y13621D02*
Y13651D01*
Y13711D02*
Y13741D01*
Y13831D02*
Y13861D01*
Y13921D02*
Y13951D01*
X33677Y13621D02*
Y13651D01*
Y13711D02*
Y13741D01*
Y13831D02*
Y13861D01*
Y13921D02*
Y13951D01*
X33707Y13621D02*
Y13651D01*
Y13711D02*
Y13741D01*
Y13801D02*
Y13861D01*
Y13921D02*
Y13951D01*
X33737Y13621D02*
Y13651D01*
Y13711D02*
Y13831D01*
Y13921D02*
Y13951D01*
X33767Y13621D02*
Y13651D01*
Y13711D02*
Y13741D01*
Y13801D02*
Y13831D01*
Y13921D02*
Y13951D01*
X33797Y13621D02*
Y13681D01*
Y13711D02*
Y13741D01*
Y13831D02*
Y13861D01*
Y13891D02*
Y13951D01*
X33827Y13651D02*
Y13681D01*
Y13711D02*
Y13741D01*
Y13831D02*
Y13921D01*
X33857Y13681D02*
Y13741D01*
Y13831D02*
Y13891D01*
X33887Y13741D02*
Y13831D01*
X33947Y11521D02*
Y11701D01*
X33977Y11401D02*
Y11821D01*
Y13351D02*
Y13561D01*
X34007Y11311D02*
Y11881D01*
Y13261D02*
Y13561D01*
X34037Y8101D02*
Y8371D01*
Y9091D02*
Y9361D01*
Y9481D02*
Y9631D01*
Y10531D02*
Y10711D01*
Y10831D02*
Y11011D01*
Y11251D02*
Y11911D01*
Y13201D02*
Y13561D01*
X34067Y8101D02*
Y8371D01*
Y9061D02*
Y9331D01*
Y9451D02*
Y9631D01*
Y10531D02*
Y10711D01*
Y10831D02*
Y11011D01*
Y11221D02*
Y11941D01*
Y13171D02*
Y13531D01*
Y13621D02*
Y13861D01*
X34097Y8101D02*
Y8371D01*
Y9061D02*
Y9331D01*
Y9451D02*
Y9631D01*
Y10531D02*
Y10711D01*
Y10831D02*
Y10981D01*
Y11191D02*
Y11971D01*
Y13171D02*
Y13531D01*
Y13591D02*
Y13861D01*
X34127Y8101D02*
Y8401D01*
Y9031D02*
Y9331D01*
Y9451D02*
Y9631D01*
Y10531D02*
Y10681D01*
Y10831D02*
Y10981D01*
Y11161D02*
Y12001D01*
Y13141D02*
Y13531D01*
Y13591D02*
Y13831D01*
X34157Y8071D02*
Y8401D01*
Y9001D02*
Y9331D01*
Y9451D02*
Y9601D01*
Y10531D02*
Y10681D01*
Y10801D02*
Y10981D01*
Y11131D02*
Y12001D01*
Y13141D02*
Y13531D01*
Y13591D02*
Y13831D01*
X34187Y8071D02*
Y8401D01*
Y9001D02*
Y9301D01*
Y9451D02*
Y9601D01*
Y10531D02*
Y10681D01*
Y10801D02*
Y10981D01*
Y11131D02*
Y11431D01*
Y11671D02*
Y12001D01*
Y13111D02*
Y13381D01*
Y13591D02*
Y13831D01*
X34217Y8071D02*
Y8401D01*
Y8971D02*
Y9301D01*
Y10801D02*
Y10981D01*
Y11101D02*
Y11371D01*
Y11731D02*
Y12031D01*
Y13111D02*
Y13381D01*
Y13591D02*
Y13831D01*
X34247Y8071D02*
Y8401D01*
Y8971D02*
Y9301D01*
Y10801D02*
Y10951D01*
Y11101D02*
Y11341D01*
Y11761D02*
Y12031D01*
Y13111D02*
Y13351D01*
Y13561D02*
Y13831D01*
X34277Y8071D02*
Y8401D01*
Y8941D02*
Y9301D01*
Y10771D02*
Y10951D01*
Y11071D02*
Y11341D01*
Y11761D02*
Y12031D01*
Y12451D02*
Y12631D01*
Y13111D02*
Y13351D01*
Y13561D02*
Y13801D01*
X34307Y8041D02*
Y8221D01*
Y8251D02*
Y8401D01*
Y8941D02*
Y9091D01*
Y9121D02*
Y9301D01*
Y10771D02*
Y10951D01*
Y11071D02*
Y11311D01*
Y11761D02*
Y12031D01*
Y12331D02*
Y12751D01*
Y12991D02*
Y13951D01*
X34337Y8041D02*
Y8221D01*
Y8251D02*
Y8431D01*
Y8911D02*
Y9091D01*
Y9121D02*
Y9271D01*
Y10771D02*
Y10951D01*
Y11071D02*
Y11311D01*
Y11761D02*
Y12031D01*
Y12271D02*
Y12811D01*
Y12961D02*
Y13951D01*
X34367Y8041D02*
Y8221D01*
Y8251D02*
Y8431D01*
Y8881D02*
Y9061D01*
Y9091D02*
Y9271D01*
Y9391D02*
Y9571D01*
Y9601D02*
Y9781D01*
Y10261D02*
Y10441D01*
Y10471D02*
Y10651D01*
Y10771D02*
Y10921D01*
Y11071D02*
Y11311D01*
Y12211D02*
Y12841D01*
Y12961D02*
Y13951D01*
X34397Y8041D02*
Y8191D01*
Y8251D02*
Y8431D01*
Y8881D02*
Y9031D01*
Y9091D02*
Y9271D01*
Y9391D02*
Y9571D01*
Y9601D02*
Y9781D01*
Y10261D02*
Y10441D01*
Y10471D02*
Y10621D01*
Y10771D02*
Y10921D01*
Y11071D02*
Y11341D01*
Y12181D02*
Y12871D01*
Y12961D02*
Y13951D01*
X34427Y8011D02*
Y8191D01*
Y8251D02*
Y8431D01*
Y8851D02*
Y9031D01*
Y9091D02*
Y9271D01*
Y9391D02*
Y9541D01*
Y9601D02*
Y9781D01*
Y10231D02*
Y10411D01*
Y10471D02*
Y10621D01*
Y10741D02*
Y10921D01*
Y11071D02*
Y11401D01*
Y12151D02*
Y12871D01*
Y12961D02*
Y13921D01*
X34457Y8011D02*
Y8191D01*
Y8251D02*
Y8431D01*
Y8851D02*
Y9001D01*
Y9091D02*
Y9241D01*
Y9391D02*
Y9541D01*
Y9601D02*
Y9781D01*
Y10201D02*
Y10411D01*
Y10441D02*
Y10621D01*
Y10741D02*
Y10921D01*
Y11071D02*
Y11491D01*
Y12121D02*
Y12901D01*
Y12931D02*
Y13921D01*
X34487Y8011D02*
Y8191D01*
Y8281D02*
Y8431D01*
Y8821D02*
Y9001D01*
Y9061D02*
Y9241D01*
Y9361D02*
Y9541D01*
Y9601D02*
Y9781D01*
Y10201D02*
Y10381D01*
Y10441D02*
Y10621D01*
Y10741D02*
Y10921D01*
Y11071D02*
Y11611D01*
Y12091D02*
Y12451D01*
Y12571D02*
Y12901D01*
Y12961D02*
Y13921D01*
X34517Y8011D02*
Y8191D01*
Y8281D02*
Y8431D01*
Y8821D02*
Y8971D01*
Y9061D02*
Y9241D01*
Y9361D02*
Y9541D01*
Y9601D02*
Y9811D01*
Y10171D02*
Y10351D01*
Y10441D02*
Y10621D01*
Y10741D02*
Y10891D01*
Y11071D02*
Y11731D01*
Y12091D02*
Y12391D01*
Y12631D02*
Y12901D01*
Y13051D02*
Y13321D01*
Y13531D02*
Y13771D01*
X34547Y8011D02*
Y8161D01*
Y8281D02*
Y8431D01*
Y8791D02*
Y8971D01*
Y9061D02*
Y9241D01*
Y9361D02*
Y9541D01*
Y9631D02*
Y9811D01*
Y10171D02*
Y10351D01*
Y10441D02*
Y10591D01*
Y10711D02*
Y10891D01*
Y11101D02*
Y11821D01*
Y12061D02*
Y12331D01*
Y12631D02*
Y12931D01*
Y13051D02*
Y13291D01*
Y13531D02*
Y13771D01*
X34577Y7981D02*
Y8161D01*
Y8281D02*
Y8461D01*
Y8761D02*
Y8941D01*
Y9061D02*
Y9241D01*
Y9361D02*
Y9511D01*
Y9631D02*
Y9811D01*
Y10141D02*
Y10321D01*
Y10411D02*
Y10591D01*
Y10711D02*
Y10891D01*
Y11131D02*
Y11881D01*
Y12061D02*
Y12331D01*
Y12661D02*
Y12931D01*
Y13051D02*
Y13291D01*
Y13501D02*
Y13771D01*
X34607Y7981D02*
Y8161D01*
Y8281D02*
Y8461D01*
Y8761D02*
Y8911D01*
Y9031D02*
Y9211D01*
Y9331D02*
Y9511D01*
Y9631D02*
Y9811D01*
Y10141D02*
Y10291D01*
Y10411D02*
Y10591D01*
Y10711D02*
Y10891D01*
Y11161D02*
Y11911D01*
Y12031D02*
Y12301D01*
Y12661D02*
Y12931D01*
Y13051D02*
Y13291D01*
Y13501D02*
Y13741D01*
X34637Y7981D02*
Y8161D01*
Y8281D02*
Y8461D01*
Y8731D02*
Y8911D01*
Y9031D02*
Y9211D01*
Y9331D02*
Y9511D01*
Y9631D02*
Y9811D01*
Y10111D02*
Y10291D01*
Y10411D02*
Y10591D01*
Y10711D02*
Y10861D01*
Y11191D02*
Y11941D01*
Y12031D02*
Y12271D01*
Y12661D02*
Y12931D01*
Y13051D02*
Y13291D01*
Y13501D02*
Y13741D01*
X34667Y7981D02*
Y8161D01*
Y8281D02*
Y8461D01*
Y8731D02*
Y8881D01*
Y9031D02*
Y9211D01*
Y9331D02*
Y9511D01*
Y9631D02*
Y9811D01*
Y10081D02*
Y10261D01*
Y10411D02*
Y10561D01*
Y10711D02*
Y10861D01*
Y11281D02*
Y11941D01*
Y12001D02*
Y12271D01*
Y12661D02*
Y12931D01*
Y13021D02*
Y13291D01*
Y13501D02*
Y13741D01*
X34697Y7951D02*
Y8131D01*
Y8311D02*
Y8461D01*
Y8701D02*
Y8881D01*
Y9031D02*
Y9211D01*
Y9331D02*
Y9481D01*
Y9631D02*
Y9811D01*
Y10081D02*
Y10261D01*
Y10411D02*
Y10561D01*
Y10681D02*
Y10861D01*
Y11401D02*
Y11971D01*
Y12001D02*
Y12271D01*
Y12661D02*
Y12931D01*
Y13021D02*
Y13291D01*
Y13501D02*
Y13741D01*
X34727Y7951D02*
Y8131D01*
Y8311D02*
Y8461D01*
Y8701D02*
Y8851D01*
Y9031D02*
Y9181D01*
Y9331D02*
Y9481D01*
Y9661D02*
Y9811D01*
Y10051D02*
Y10231D01*
Y10381D02*
Y10561D01*
Y10681D02*
Y10861D01*
Y11521D02*
Y11971D01*
Y12001D02*
Y12241D01*
Y12661D02*
Y12931D01*
Y13021D02*
Y13261D01*
Y13471D02*
Y13741D01*
X34757Y7951D02*
Y8131D01*
Y8311D02*
Y8461D01*
Y8671D02*
Y8821D01*
Y9001D02*
Y9181D01*
Y9301D02*
Y9481D01*
Y9661D02*
Y9841D01*
Y10051D02*
Y10201D01*
Y10381D02*
Y10561D01*
Y10681D02*
Y10861D01*
Y11611D02*
Y12241D01*
Y12661D02*
Y12931D01*
Y13021D02*
Y13261D01*
Y13471D02*
Y13711D01*
X34787Y7951D02*
Y8131D01*
Y8311D02*
Y8491D01*
Y8641D02*
Y8821D01*
Y9001D02*
Y9181D01*
Y9301D02*
Y9481D01*
Y9661D02*
Y9841D01*
Y10021D02*
Y10201D01*
Y10381D02*
Y10561D01*
Y10681D02*
Y10831D01*
Y11671D02*
Y12241D01*
Y12661D02*
Y12931D01*
Y13021D02*
Y13261D01*
Y13471D02*
Y13711D01*
X34817Y7951D02*
Y8101D01*
Y8311D02*
Y8491D01*
Y8641D02*
Y8791D01*
Y9001D02*
Y9181D01*
Y9301D02*
Y9481D01*
Y9661D02*
Y9841D01*
Y9991D02*
Y10171D01*
Y10381D02*
Y10531D01*
Y10651D02*
Y10831D01*
Y11701D02*
Y12241D01*
Y12661D02*
Y12901D01*
Y13021D02*
Y13261D01*
Y13471D02*
Y13711D01*
X34847Y7921D02*
Y8101D01*
Y8311D02*
Y8491D01*
Y8611D02*
Y8791D01*
Y9001D02*
Y9181D01*
Y9301D02*
Y9451D01*
Y9661D02*
Y9841D01*
Y9991D02*
Y10141D01*
Y10351D02*
Y10531D01*
Y10651D02*
Y10831D01*
Y10951D02*
Y11221D01*
Y11701D02*
Y12241D01*
Y12631D02*
Y12901D01*
Y12991D02*
Y13261D01*
Y13471D02*
Y13711D01*
X34877Y7921D02*
Y8101D01*
Y8311D02*
Y8491D01*
Y8611D02*
Y8761D01*
Y8971D02*
Y9151D01*
Y9271D02*
Y9451D01*
Y9661D02*
Y9841D01*
Y9961D02*
Y10141D01*
Y10351D02*
Y10531D01*
Y10651D02*
Y10831D01*
Y10951D02*
Y11221D01*
Y11701D02*
Y12241D01*
Y12631D02*
Y12901D01*
Y12991D02*
Y13231D01*
Y13441D02*
Y13711D01*
X34907Y7921D02*
Y8101D01*
Y8311D02*
Y8491D01*
Y8581D02*
Y8761D01*
Y8971D02*
Y9151D01*
Y9271D02*
Y9451D01*
Y9661D02*
Y9841D01*
Y9961D02*
Y10111D01*
Y10351D02*
Y10531D01*
Y10651D02*
Y10801D01*
Y10951D02*
Y11221D01*
Y11701D02*
Y11941D01*
Y11971D02*
Y12241D01*
Y12601D02*
Y12871D01*
Y12991D02*
Y13231D01*
Y13441D02*
Y13681D01*
X34937Y7921D02*
Y8101D01*
Y8341D02*
Y8491D01*
Y8551D02*
Y8731D01*
Y8971D02*
Y9151D01*
Y9271D02*
Y9451D01*
Y9691D02*
Y9841D01*
Y9931D02*
Y10111D01*
Y10351D02*
Y10531D01*
Y10651D02*
Y10801D01*
Y10951D02*
Y11221D01*
Y11671D02*
Y11941D01*
Y11971D02*
Y12241D01*
Y12601D02*
Y12871D01*
Y12991D02*
Y13231D01*
Y13441D02*
Y13681D01*
X34967Y7891D02*
Y8071D01*
Y8341D02*
Y8491D01*
Y8551D02*
Y8701D01*
Y8971D02*
Y9151D01*
Y9271D02*
Y9451D01*
Y9691D02*
Y9841D01*
Y9931D02*
Y10081D01*
Y10351D02*
Y10501D01*
Y10621D02*
Y10801D01*
Y10951D02*
Y11251D01*
Y11641D02*
Y11941D01*
Y11971D02*
Y12271D01*
Y12571D02*
Y12841D01*
Y12991D02*
Y13231D01*
Y13441D02*
Y13681D01*
X34997Y7891D02*
Y8071D01*
Y8341D02*
Y8491D01*
Y8521D02*
Y8701D01*
Y8971D02*
Y9121D01*
Y9271D02*
Y9421D01*
Y9691D02*
Y9871D01*
Y9901D02*
Y10051D01*
Y10321D02*
Y10501D01*
Y10621D02*
Y10801D01*
Y10951D02*
Y11281D01*
Y11611D02*
Y11911D01*
Y12001D02*
Y12271D01*
Y12541D02*
Y12841D01*
Y12961D02*
Y13231D01*
Y13441D02*
Y13681D01*
X35027Y7891D02*
Y8071D01*
Y8341D02*
Y8671D01*
Y8941D02*
Y9121D01*
Y9241D02*
Y9421D01*
Y9691D02*
Y10051D01*
Y10321D02*
Y10501D01*
Y10621D02*
Y10801D01*
Y10951D02*
Y11881D01*
Y12001D02*
Y12331D01*
Y12481D02*
Y12811D01*
Y12961D02*
Y13231D01*
Y13441D02*
Y13681D01*
X35057Y7891D02*
Y8071D01*
Y8341D02*
Y8671D01*
Y8941D02*
Y9121D01*
Y9241D02*
Y9421D01*
Y9691D02*
Y10021D01*
Y10321D02*
Y10501D01*
Y10621D02*
Y10771D01*
Y10981D02*
Y11881D01*
Y12001D02*
Y12781D01*
Y12961D02*
Y13201D01*
Y13411D02*
Y13801D01*
X35087Y7891D02*
Y8041D01*
Y8341D02*
Y8641D01*
Y8941D02*
Y9121D01*
Y9241D02*
Y9421D01*
Y9691D02*
Y10021D01*
Y10321D02*
Y10471D01*
Y10591D02*
Y10771D01*
Y10981D02*
Y11851D01*
Y12031D02*
Y12751D01*
Y12961D02*
Y13201D01*
Y13411D02*
Y13801D01*
X35117Y7861D02*
Y8041D01*
Y8341D02*
Y8641D01*
Y8941D02*
Y9121D01*
Y9241D02*
Y9391D01*
Y9721D02*
Y9991D01*
Y10291D02*
Y10471D01*
Y10591D02*
Y10771D01*
Y11011D02*
Y11821D01*
Y12031D02*
Y12721D01*
Y12961D02*
Y13201D01*
Y13411D02*
Y13801D01*
X35147Y7861D02*
Y8041D01*
Y8371D02*
Y8611D01*
Y8911D02*
Y9091D01*
Y9211D02*
Y9391D01*
Y9721D02*
Y9961D01*
Y10291D02*
Y10471D01*
Y10591D02*
Y10771D01*
Y11041D02*
Y11761D01*
Y12061D02*
Y12691D01*
Y12961D02*
Y13201D01*
Y13441D02*
Y13801D01*
X35177Y7861D02*
Y8041D01*
Y8371D02*
Y8581D01*
Y8911D02*
Y9091D01*
Y9211D02*
Y9391D01*
Y9721D02*
Y9961D01*
Y10291D02*
Y10471D01*
Y10591D02*
Y10741D01*
Y11101D02*
Y11731D01*
Y12091D02*
Y12661D01*
Y12931D02*
Y13201D01*
Y13441D02*
Y13801D01*
X35207Y7861D02*
Y8041D01*
Y8371D02*
Y8581D01*
Y8911D02*
Y9091D01*
Y9211D02*
Y9391D01*
Y9721D02*
Y9931D01*
Y10291D02*
Y10471D01*
Y10591D02*
Y10741D01*
Y11161D02*
Y11641D01*
Y12151D02*
Y12601D01*
Y12931D02*
Y13171D01*
Y13501D02*
Y13801D01*
X35237Y7861D02*
Y8011D01*
Y8371D02*
Y8551D01*
Y8911D02*
Y9091D01*
Y9211D02*
Y9361D01*
Y9721D02*
Y9901D01*
Y10291D02*
Y10441D01*
Y10591D02*
Y10741D01*
Y11251D02*
Y11551D01*
Y12241D02*
Y12481D01*
M02*
