M48
;Layer_Color=9474304
;FILE_FORMAT=2:4
INCH,LZ
;TYPE=PLATED
T1F00S00C0.0280
T2F00S00C0.0315
T3F00S00C0.0335
T4F00S00C0.0354
T5F00S00C0.0394
T6F00S00C0.0472
T7F00S00C0.0591
T8F00S00C0.0600
T9F00S00C0.0630
T10F00S00C0.1378
T11F00S00C0.1575
;TYPE=NON_PLATED
T12F00S00C0.1280
%
T01
X06673Y003622
X067913Y009134
X06936Y009144
X068711Y016407
X066742
X063576Y016196
X059557Y012057
X056654Y014624
T02
X044448Y016571
X046448
X052288
X054288
X016734Y014958
X007784Y014938
X015354Y017628
Y018628
T03
X064088Y008201
Y009758
Y011315
Y012871
X067088
Y011315
Y009758
Y008201
X045272Y006405
X043872
Y003405
X045272
X042471
X041071
X03967
X03827
X036869
X035469
X034069
X032668
X031268
Y006405
X032668
X034069
X035469
X036869
X03827
X03967
X041071
X042471
T04
X059068Y008031
X060068
X061068
Y014031
X060068
X059068
X061088Y015731
Y016731
X066742Y014764
X067742
X068742
X071484Y014441
Y015441
X072484Y014941
Y013941
Y012941
Y011941
X071484Y012441
Y013441
X072648Y007951
Y006951
Y005951
Y004951
X068742Y006683
X067742
X066742
X058068Y008031
X057068
X056068
X055068
X054068
X053068
X052068
X051068
X050068
X049068
X048068
X047068
X046068
X045068
X044068
Y014031
X045068
X046068
X047068
X048068
X049068
X050068
X051068
X052068
X053068
X054068
X055068
X056068
X057068
X058068
X058088Y015731
Y016731
X052294Y003823
Y002823
X050737
Y003823
X04918
Y002823
X047624
Y003823
X043068Y008031
X042068
X039224Y008441
X038224
X037224
Y011475
X038224
X039224
Y014483
X038224
X037224
X042068Y014031
X043068
X018472Y011904
Y010904
Y009904
X020433Y005659
Y003659
X005937Y004411
Y005411
Y006411
Y007411
X004937Y007911
Y006911
Y005911
Y004911
X037224Y017517
X038224
X039224
X058088Y017731
Y018731
X061088
Y017731
T05
X059643Y002421
Y004196
Y005971
X061643
Y004196
Y002421
X067726Y004508
X063318Y015191
X056338Y016071
Y017071
X050368
Y016071
X048498
Y017071
X054767Y004141
Y002421
X056767
Y004141
X042508Y016071
Y017071
X034048Y016824
Y014824
Y011564
Y009564
X030444Y009541
Y011541
Y014784
Y016784
X063318Y017191
T06
X018367Y016
X019903Y01667
Y018008
X018367Y018678
Y017339
T07
X003002Y011427
Y013081
Y014734
Y016388
X005167
Y014734
Y013081
Y011427
Y018041
X003002
T08
X015217Y011722
X026476Y013593
Y007677
X009301Y011722
T09
X016196Y006211
X008322
T10
X02687Y017333
T11
X073622Y00188
X007977Y001821
X007887Y019615
X073622Y019596
T12
X074984Y011441
Y015941
X002437Y008411
Y003911
M30
