%FSLAX24Y24*%
%MOIN*%
G70*
G01*
G75*
G04 Layer_Physical_Order=1*
G04 Layer_Color=255*
%ADD10C,0.0472*%
%ADD11C,0.0315*%
%ADD12C,0.0591*%
%ADD13R,0.7480X0.4724*%
%ADD14C,0.1181*%
%ADD15R,0.1181X0.1181*%
%ADD16C,0.1969*%
%ADD17C,0.0866*%
%ADD18R,0.0866X0.0866*%
%ADD19C,0.0669*%
%ADD20R,0.0669X0.0669*%
%ADD21C,0.0591*%
%ADD22R,0.0591X0.0591*%
%ADD23C,0.0650*%
%ADD24O,0.0900X0.1400*%
%ADD25O,0.1400X0.0900*%
G04:AMPARAMS|DCode=26|XSize=118.1mil|YSize=118.1mil|CornerRadius=29.5mil|HoleSize=0mil|Usage=FLASHONLY|Rotation=0.000|XOffset=0mil|YOffset=0mil|HoleType=Round|Shape=RoundedRectangle|*
%AMROUNDEDRECTD26*
21,1,0.1181,0.0591,0,0,0.0*
21,1,0.0591,0.1181,0,0,0.0*
1,1,0.0591,0.0295,-0.0295*
1,1,0.0591,-0.0295,-0.0295*
1,1,0.0591,-0.0295,0.0295*
1,1,0.0591,0.0295,0.0295*
%
%ADD26ROUNDEDRECTD26*%
%ADD27C,0.1000*%
%ADD28R,0.0669X0.0984*%
%ADD29C,0.0984*%
%ADD30C,0.1161*%
%ADD31R,0.0591X0.0591*%
%ADD32R,0.0669X0.0669*%
%ADD33C,0.2362*%
%ADD34C,0.0620*%
%ADD35C,0.0591*%
%ADD36C,0.0630*%
%ADD37C,0.0500*%
%ADD38C,0.0787*%
G36*
X63406Y10349D02*
Y10015D01*
X63300Y9758D01*
X63406Y9501D01*
Y8459D01*
X63300Y8201D01*
X63528Y7650D01*
X63140Y7390D01*
X62482Y7604D01*
X62022Y7794D01*
X61857Y8031D01*
Y8031D01*
X61857Y8031D01*
X61857Y8031D01*
X61626Y8589D01*
X61626Y8589D01*
X61281Y8732D01*
X61127Y9504D01*
X62168Y10545D01*
X62752Y10786D01*
X63406Y10349D01*
D02*
G37*
G36*
X65786Y9061D02*
X65844Y9119D01*
X65916Y9070D01*
X66256Y8320D01*
D01*
X66178Y8114D01*
X66094Y7911D01*
X66098Y7902D01*
X66095Y7892D01*
X66121Y7086D01*
X65954Y6683D01*
X66134Y6249D01*
Y3864D01*
X66034Y3622D01*
Y3622D01*
X66034Y3622D01*
X66238Y3129D01*
X66353Y3081D01*
X66200Y2309D01*
X64125D01*
X63530Y2905D01*
Y6309D01*
X63355Y6731D01*
X63099Y6987D01*
X63536Y7642D01*
X63968Y7463D01*
X63968Y7463D01*
X64088Y7413D01*
X64646Y7644D01*
X64695Y7764D01*
D01*
X64877Y8201D01*
X64770Y8459D01*
Y9496D01*
X65076Y9557D01*
X65581D01*
X65786Y9061D01*
D02*
G37*
G36*
X33173Y8604D02*
X33386Y8090D01*
X32914Y7618D01*
X32728Y7169D01*
X32668Y7194D01*
X32245Y7018D01*
X31550Y7390D01*
X31464Y7821D01*
X32401Y8758D01*
X33173Y8604D01*
D02*
G37*
G36*
X59068Y7243D02*
X59068Y7243D01*
Y7243D01*
X59275Y6743D01*
X59086Y6529D01*
X59086Y6529D01*
X58855Y5971D01*
X58961Y5714D01*
Y4454D01*
X58855Y4196D01*
X58961Y3939D01*
Y2679D01*
X58876Y2473D01*
X58148Y2171D01*
X57544Y2421D01*
Y2421D01*
X57544Y2421D01*
X57449Y2653D01*
Y3910D01*
X57544Y4141D01*
X57449Y4373D01*
Y5113D01*
X57249Y5595D01*
X56239Y6605D01*
X56298Y6903D01*
X56993Y7274D01*
X57068Y7243D01*
X57568Y7450D01*
X58068Y7243D01*
X58568Y7450D01*
X59068Y7243D01*
D02*
G37*
G36*
X1162Y10945D02*
X1644Y10745D01*
X2219D01*
X2249Y10674D01*
X2781Y10453D01*
Y9976D01*
X2460Y9528D01*
X2437Y9529D01*
X2437Y9529D01*
X2437Y9529D01*
X1646Y9202D01*
X1318Y8411D01*
X1646Y7620D01*
X2437Y7292D01*
X3228Y7620D01*
X3433Y8115D01*
X3639Y8156D01*
X4248Y7657D01*
Y7222D01*
X4248D01*
X4279Y7175D01*
X4170Y6911D01*
X4388Y6385D01*
X4191Y5911D01*
X4398Y5411D01*
X4250Y5052D01*
Y5052D01*
X4191Y4911D01*
X4410Y4384D01*
D01*
D01*
X4937Y4165D01*
D01*
X5367Y3987D01*
X5367D01*
X5410Y3884D01*
X5937Y3665D01*
X5937Y3665D01*
X6079Y3724D01*
X6079D01*
Y3724D01*
X6464Y3884D01*
X6605Y4224D01*
X7027Y4308D01*
X7584Y3751D01*
X7500Y3329D01*
X6771Y3027D01*
X6272Y1821D01*
X6755Y655D01*
X6318Y0D01*
X0D01*
Y11078D01*
X727Y11379D01*
X1162Y10945D01*
D02*
G37*
G36*
X71756Y11213D02*
Y11213D01*
X71879D01*
X72181Y10485D01*
X71472Y9776D01*
X70744Y10077D01*
Y11250D01*
X71399Y11688D01*
X71756Y11213D01*
D02*
G37*
G36*
X28537Y7732D02*
Y3504D01*
X28647Y3238D01*
X28195Y2594D01*
X21770Y2889D01*
X21348Y3553D01*
X21392Y3659D01*
Y3659D01*
X21386Y3679D01*
X21457Y3914D01*
X21856Y4079D01*
X24957Y7180D01*
X25729Y7026D01*
X25831Y6781D01*
X26419Y6538D01*
X26419D01*
X26476Y6514D01*
X27122Y6781D01*
X27146Y6839D01*
D01*
X27390Y7427D01*
X27474Y7462D01*
X27488Y7448D01*
X27529Y7547D01*
X28256Y7848D01*
X28537Y7732D01*
D02*
G37*
G36*
X43171Y11783D02*
X43593Y11608D01*
X47371D01*
X49004Y9975D01*
X49275Y9320D01*
X49068Y8820D01*
X48568Y8613D01*
X48068Y8820D01*
X47568Y8613D01*
X47068Y8820D01*
X46568Y8613D01*
X46068Y8820D01*
X45568Y8613D01*
X45068Y8820D01*
X44568Y8613D01*
X44068Y8820D01*
X43568Y8613D01*
X43068Y8820D01*
X42568Y8613D01*
X42188Y8770D01*
X42188Y8770D01*
X42188D01*
X42068Y8820D01*
X41877Y8741D01*
X41440Y9395D01*
X41440D01*
X41760Y9716D01*
X41760Y9716D01*
X41935Y10138D01*
Y11990D01*
X42663Y12291D01*
X43171Y11783D01*
D02*
G37*
G36*
X46381Y3055D02*
X46381Y3055D01*
X46383Y3053D01*
Y3053D01*
D01*
X46383D01*
Y3053D01*
X46383D01*
X46835Y2823D01*
X46835Y2823D01*
X46835Y2823D01*
X47053Y2297D01*
X47066Y2266D01*
D01*
Y2266D01*
D01*
X47624Y2035D01*
X47744Y2084D01*
D01*
X48181Y2266D01*
X48181D01*
D01*
D01*
X48181D01*
D01*
X48623D01*
D01*
X48623Y2266D01*
D01*
D01*
X49180Y2035D01*
X49180Y2035D01*
Y2035D01*
X49180Y2035D01*
X49438Y1928D01*
X49529Y1709D01*
X50439Y799D01*
X50439Y799D01*
X50503Y772D01*
X50349Y0D01*
X9635D01*
X9198Y655D01*
X9681Y1821D01*
X9470Y2331D01*
X9907Y2986D01*
X17469D01*
X18929Y1527D01*
X19350Y1352D01*
X39559D01*
X39981Y1527D01*
X40825Y2372D01*
X40897Y2545D01*
X40897D01*
X41071Y2617D01*
D01*
X41628Y2848D01*
Y2848D01*
D01*
X41628Y2848D01*
X41761Y3040D01*
X41864Y2968D01*
X41628Y2848D01*
X41628Y2848D01*
X41628Y2848D01*
X41628Y2848D01*
X41872Y2949D01*
X41883Y2922D01*
X41914Y2848D01*
D01*
D01*
Y2848D01*
X42471Y2617D01*
D01*
D01*
D01*
X42591Y2667D01*
X42591D01*
D01*
Y2667D01*
X42591Y2667D01*
D01*
D01*
X43029Y2848D01*
D01*
D01*
X43029D01*
D01*
X43314D01*
Y2848D01*
Y2848D01*
D01*
D01*
D01*
X43872Y2617D01*
X44429Y2848D01*
X44429D01*
D01*
D01*
X44429D01*
D01*
X44715D01*
Y2848D01*
Y2848D01*
D01*
D01*
D01*
X45152Y2667D01*
X45152Y2667D01*
X45272Y2617D01*
X45829Y2848D01*
X45830Y2849D01*
X46367Y3071D01*
X46381Y3055D01*
D02*
G37*
G36*
X69470Y5955D02*
X69470D01*
X69551Y5874D01*
Y3151D01*
X68710Y2309D01*
X67261D01*
X67107Y3081D01*
X67223Y3129D01*
X67427Y3622D01*
X67427Y3622D01*
D01*
X67726Y3656D01*
X67726Y3656D01*
D01*
D01*
D01*
X68329Y3905D01*
D01*
D01*
D01*
X68366Y3993D01*
Y3993D01*
D01*
D01*
D01*
X68366D01*
X68366Y3993D01*
D01*
D01*
D01*
D01*
D01*
D01*
X68579Y4508D01*
X68394Y4953D01*
Y5955D01*
X69470D01*
D01*
D02*
G37*
G36*
X71875Y1982D02*
X71918Y1880D01*
Y1880D01*
X72417Y675D01*
Y675D01*
Y675D01*
X72137Y0D01*
X69882D01*
X69728Y772D01*
X69792Y799D01*
X71239Y2245D01*
D01*
X71239D01*
X71239D01*
X71875Y1982D01*
D02*
G37*
G36*
X73299Y3451D02*
X72417Y3085D01*
X72186Y2528D01*
X71414Y2681D01*
Y4223D01*
X71920D01*
Y4223D01*
X73146D01*
X73299Y3451D01*
D02*
G37*
G36*
X25595Y13919D02*
X25563Y13843D01*
Y13343D01*
X25731Y12938D01*
Y10063D01*
X22015Y6347D01*
X21976Y6355D01*
X21474Y6858D01*
X21304Y7266D01*
X21304Y7266D01*
Y7266D01*
X20752D01*
X20613Y7324D01*
Y10600D01*
X20444Y11008D01*
X20642Y11486D01*
Y14407D01*
X20715Y14515D01*
X22734D01*
X22875Y14574D01*
X25157D01*
X25595Y13919D01*
D02*
G37*
G36*
X18472Y9115D02*
X18595Y9166D01*
X19249Y8728D01*
Y7266D01*
X19088D01*
X19249Y6878D01*
Y6161D01*
X19249Y6161D01*
X19249Y6161D01*
X19249Y6126D01*
X19182D01*
X19232Y6007D01*
X18794Y5352D01*
X18597D01*
X17237Y5915D01*
Y6506D01*
X17237Y6506D01*
X17237Y6506D01*
D01*
X17125Y6845D01*
X17183Y6869D01*
D01*
X17659Y7066D01*
D01*
D01*
X17659D01*
D01*
D01*
D01*
D01*
D01*
X17596Y7220D01*
X17582Y7254D01*
X17577Y7265D01*
D01*
D01*
D01*
D01*
X17481Y7496D01*
Y7496D01*
D01*
D01*
X17481D01*
D01*
D01*
X17146Y7997D01*
Y8171D01*
D01*
X17345Y8653D01*
Y8873D01*
X18000Y9311D01*
X18472Y9115D01*
D02*
G37*
G36*
X55439Y5476D02*
X55002Y4822D01*
X54892Y4867D01*
Y4867D01*
X54892Y4867D01*
X54767Y4919D01*
X54767D01*
X54239Y4737D01*
X54146Y4961D01*
Y5741D01*
X54874Y6042D01*
X55439Y5476D01*
D02*
G37*
G36*
X38270Y5617D02*
X38827Y5848D01*
X38827D01*
D01*
D01*
X39113D01*
D01*
X39113Y5848D01*
D01*
D01*
X39670Y5617D01*
X39670D01*
Y5617D01*
X39670Y5617D01*
X39807Y5526D01*
Y4524D01*
X39670Y4194D01*
X39113Y3963D01*
X39113D01*
X38827D01*
X38827Y3963D01*
Y3963D01*
X38270Y4194D01*
X37712Y3963D01*
X37712D01*
D01*
D01*
X37712D01*
D01*
X37427D01*
X37427Y3963D01*
Y3963D01*
X37427D01*
D01*
X36869Y4194D01*
X36312Y3963D01*
X36312D01*
D01*
D01*
X36312D01*
D01*
X36026D01*
X36026Y3963D01*
Y3963D01*
X36026D01*
D01*
X35469Y4194D01*
X34912Y3963D01*
X34912D01*
D01*
D01*
X34912D01*
D01*
X34635D01*
X34120Y4478D01*
Y5062D01*
X34650Y5039D01*
X34650D01*
D01*
D01*
D01*
X34650D01*
D01*
D01*
Y5039D01*
X34650Y5039D01*
X35783D01*
X36205Y5214D01*
X36488Y5496D01*
D01*
X36488Y5496D01*
X36488Y5496D01*
X36488D01*
X36586Y5734D01*
X36586Y5734D01*
X36869Y5617D01*
X37427Y5848D01*
X37427D01*
D01*
D01*
X37427D01*
D01*
X37712D01*
Y5848D01*
Y5848D01*
D01*
D01*
D01*
X38270Y5617D01*
D02*
G37*
G36*
X76772Y11038D02*
Y0D01*
X75107D01*
X74827Y675D01*
D01*
D01*
X75327Y1880D01*
X74827Y3085D01*
X73622Y3584D01*
X73527Y3831D01*
X73950Y4254D01*
X73950D01*
X73950D01*
X73950D01*
X73950Y4254D01*
X74239Y4951D01*
X74239Y4951D01*
X74164Y5133D01*
X74164Y5133D01*
X74020Y5480D01*
X74020D01*
X74359Y5818D01*
X74359Y5818D01*
X74534Y6240D01*
Y10021D01*
X74984Y10322D01*
X74984Y10322D01*
Y10322D01*
X75775Y10650D01*
X75999Y11191D01*
X76772Y11038D01*
D02*
G37*
G36*
X53719Y17568D02*
X53488Y17011D01*
X52977D01*
X52478Y17620D01*
X52569Y18079D01*
X53299D01*
X53719Y17568D01*
D02*
G37*
G36*
X58246Y20672D02*
X58246Y20672D01*
D01*
X57824Y20498D01*
X56654Y19328D01*
X56479Y18906D01*
Y17943D01*
X56338Y17849D01*
X56338Y17849D01*
X56338D01*
D01*
D01*
X55788Y17621D01*
X55788Y17621D01*
Y17621D01*
D01*
D01*
D01*
X55626Y17589D01*
X54118Y19098D01*
X53696Y19272D01*
X41656D01*
X41234Y19098D01*
X40216Y18080D01*
X39913Y18206D01*
Y18206D01*
X39913Y18206D01*
X38535D01*
Y18206D01*
X38468Y18161D01*
X38224Y18262D01*
X38224Y18262D01*
X38224Y18262D01*
X37983Y18287D01*
X37983Y18287D01*
Y18287D01*
D01*
Y18287D01*
X37724Y18055D01*
D01*
X37224Y18262D01*
X36696Y18044D01*
X36696Y18044D01*
Y18044D01*
X36385Y17982D01*
X35540Y18827D01*
X35118Y19002D01*
X32766D01*
X32766Y19002D01*
X32344Y18827D01*
X31202Y17686D01*
X31202Y17686D01*
Y17686D01*
X31001Y17341D01*
D01*
D01*
Y17341D01*
X30444Y17572D01*
X30444Y17572D01*
X30444Y17572D01*
X30244Y17706D01*
Y19783D01*
X30089Y20156D01*
X30025Y20311D01*
X29607Y20729D01*
X29908Y21457D01*
X58246D01*
Y20672D01*
D02*
G37*
G36*
X66045Y16407D02*
X66045Y16407D01*
X66045D01*
X66146Y16166D01*
Y15562D01*
X66041Y15492D01*
X66014D01*
Y15492D01*
X65422Y15492D01*
X64984Y16147D01*
X65135Y16510D01*
X65977D01*
X66045Y16407D01*
D02*
G37*
G36*
X76772Y16344D02*
X75999Y16191D01*
X75775Y16732D01*
X74984Y17060D01*
X74193Y16732D01*
X74193Y16732D01*
Y16732D01*
X73902Y16674D01*
X73347Y17228D01*
X73622Y17892D01*
X74827Y18391D01*
X75327Y19596D01*
X74827Y20802D01*
Y20802D01*
Y20802D01*
X75099Y21457D01*
X76772D01*
Y16344D01*
D02*
G37*
G36*
X20216Y20729D02*
X19375Y19889D01*
X19306Y19720D01*
X18533Y19566D01*
X17886Y20213D01*
X17359Y20432D01*
X14755D01*
X14227Y20213D01*
X13262Y19248D01*
X13044Y18720D01*
Y12244D01*
X13262Y11717D01*
X13262Y11717D01*
X13262Y11717D01*
X13185Y11640D01*
X13448Y11531D01*
X13784Y11195D01*
X14311Y10977D01*
X14562D01*
X14967Y10809D01*
X15467D01*
X15982Y10465D01*
Y8936D01*
X15714Y8668D01*
X15514Y8186D01*
Y8100D01*
X15340Y7926D01*
D01*
X14910Y7496D01*
Y7496D01*
X14732Y7066D01*
X14910D01*
Y7066D01*
X15340D01*
X15155Y6506D01*
D01*
X15155Y6506D01*
Y6506D01*
D01*
D01*
X15155D01*
Y5915D01*
X13795Y5352D01*
X10509D01*
X10156Y5880D01*
Y6211D01*
D01*
D01*
Y6211D01*
D01*
X10156Y6211D01*
X9914Y6795D01*
X9914Y6795D01*
X9914Y6795D01*
Y6795D01*
X9914Y6795D01*
X9868Y6771D01*
X9144Y7033D01*
Y7033D01*
X8617Y7252D01*
X8027D01*
X7499Y7033D01*
D01*
X6693Y7367D01*
X6683Y7411D01*
X6683Y7411D01*
X6464Y7938D01*
X6464Y7938D01*
X6323Y7997D01*
Y7997D01*
D01*
D01*
D01*
X5937Y8157D01*
Y8157D01*
D01*
X5937D01*
Y8157D01*
X5626Y8364D01*
Y8600D01*
X5578D01*
X5419Y8984D01*
X4687Y9715D01*
X4989Y10443D01*
X6152D01*
Y12411D01*
X6152D01*
X6030Y12593D01*
X6233Y13081D01*
X5921Y13834D01*
Y13834D01*
D01*
D01*
Y13834D01*
D01*
Y13981D01*
X5921D01*
X5921D01*
X6173Y14591D01*
X6876D01*
D01*
X6961D01*
X7087Y14285D01*
D01*
X7100Y14254D01*
X7784Y13971D01*
X7815Y13984D01*
X7815D01*
X8468Y14254D01*
X8751Y14938D01*
X8468Y15622D01*
X7784Y15906D01*
X7100Y15622D01*
X6876Y15082D01*
X6400D01*
X5963Y15737D01*
X6233Y16388D01*
X5921Y17141D01*
Y17141D01*
D01*
D01*
Y17141D01*
D01*
Y17288D01*
X5921D01*
X5921D01*
X6233Y18041D01*
X6168Y18197D01*
X6681Y18409D01*
X6681D01*
D01*
Y18409D01*
X7887Y17910D01*
X9092Y18409D01*
X9591Y19615D01*
X9099Y20802D01*
X9537Y21457D01*
X19915D01*
X20216Y20729D01*
D02*
G37*
G36*
X6674Y20802D02*
X6260Y19803D01*
X5488Y19650D01*
X5167Y19970D01*
X4685Y20170D01*
X1998D01*
X1516Y19970D01*
X727Y19182D01*
X0Y19483D01*
Y21457D01*
X0Y21457D01*
X6236D01*
X6674Y20802D01*
D02*
G37*
G36*
X70287Y18601D02*
X69986Y17873D01*
X63575D01*
X63318Y17980D01*
X63318Y17980D01*
X63318Y17980D01*
X63040Y18165D01*
X62887Y18938D01*
X63249Y19479D01*
X69409D01*
X70287Y18601D01*
D02*
G37*
G36*
X72417Y20802D02*
D01*
D01*
X71918Y19596D01*
X71254Y19322D01*
X70078Y20498D01*
X69656Y20672D01*
Y20900D01*
X70213Y21457D01*
X72145D01*
X72417Y20802D01*
D02*
G37*
G36*
X18367Y14309D02*
D01*
Y14309D01*
X18624Y14415D01*
X19279Y13978D01*
Y12632D01*
X19201D01*
Y12632D01*
X17744D01*
D01*
X17744D01*
X17345Y13031D01*
Y13358D01*
X17146Y13840D01*
X17203Y14132D01*
X17898Y14503D01*
X18367Y14309D01*
D02*
G37*
G36*
X49068Y13243D02*
X49068Y13243D01*
X49068Y13243D01*
X49359Y13049D01*
X49281Y12265D01*
X48659Y12008D01*
X48113Y12553D01*
X48192Y12947D01*
X48886Y13318D01*
X49068Y13243D01*
D02*
G37*
G36*
X29375Y12957D02*
Y12170D01*
X29022Y12023D01*
X27950Y10951D01*
X27222Y11253D01*
Y12847D01*
X28474D01*
X29002Y13065D01*
X29035Y13098D01*
X29375Y12957D01*
D02*
G37*
G36*
X54068Y13243D02*
X54568Y13450D01*
X54568Y13450D01*
D01*
X54646Y13319D01*
Y13319D01*
X54646Y13319D01*
X55513Y12453D01*
X55211Y11725D01*
X54331D01*
X53849Y11525D01*
X53376Y11053D01*
X52589D01*
X51750Y11891D01*
Y13030D01*
X52068Y13243D01*
X52068Y13243D01*
Y13243D01*
X52568Y13450D01*
X53068Y13243D01*
X53568Y13450D01*
X54068Y13243D01*
D02*
G37*
G36*
X76772Y15538D02*
Y11844D01*
X75999Y11691D01*
X75775Y12232D01*
X74984Y12560D01*
X74984Y12560D01*
X74984Y12560D01*
X74534Y12861D01*
Y14521D01*
X74984Y14822D01*
X74984Y14822D01*
Y14822D01*
X75775Y15150D01*
X75999Y15691D01*
X76772Y15538D01*
D02*
G37*
G36*
X70258Y16431D02*
X70481Y15893D01*
X69924Y15336D01*
X69619Y15463D01*
X69317Y16190D01*
X69407Y16407D01*
X69407Y16407D01*
X69407Y16407D01*
X69474Y16508D01*
X70258Y16431D01*
D02*
G37*
G36*
X53731Y16014D02*
X54288Y15783D01*
X54355Y15811D01*
X54596Y15650D01*
Y14862D01*
X54355Y14701D01*
X54068Y14820D01*
X53568Y14613D01*
X53068Y14820D01*
X53068Y14820D01*
X53068Y14820D01*
X52789Y14807D01*
X52765Y15333D01*
D01*
D01*
D01*
X52765D01*
X52765D01*
X52734Y15408D01*
X52766Y15580D01*
X52985Y16132D01*
X53682D01*
X53731Y16014D01*
D02*
G37*
%LPC*%
G36*
X9551Y12636D02*
X9051D01*
X8405Y12368D01*
X8138Y11722D01*
X8405Y11077D01*
X9051Y10809D01*
X9551D01*
X10197Y11077D01*
X10464Y11722D01*
X10197Y12368D01*
X9551Y12636D01*
D02*
G37*
G36*
X2437Y5029D02*
X1646Y4702D01*
X1318Y3911D01*
X1646Y3120D01*
X2437Y2792D01*
X3228Y3120D01*
X3556Y3911D01*
X3228Y4702D01*
X2437Y5029D01*
D02*
G37*
%LPD*%
D10*
X67713Y4921D02*
G03*
X67838Y4619I427J0D01*
G01*
X23529Y18037D02*
G03*
X21071Y16269I-139J-2400D01*
G01*
X22059Y15197D02*
G03*
X24197Y17327I0J2138D01*
G01*
X21584Y15197D02*
G03*
X23725Y17329I0J2140D01*
G01*
X21110Y15197D02*
G03*
X23252Y17330I0J2142D01*
G01*
X20636Y15197D02*
G03*
X22780Y17332I0J2144D01*
G01*
X20161Y15197D02*
G03*
X22307Y17334I0J2146D01*
G01*
X19687Y15197D02*
G03*
X21835Y17336I0J2148D01*
G01*
X19213Y15197D02*
G03*
X21363Y17338I0J2150D01*
G01*
X60662Y18519D02*
G03*
X61003Y18781I-146J543D01*
G01*
X61088Y18633D02*
G03*
X60039Y18198I-0J-1484D01*
G01*
X60662Y18519D02*
G03*
X61003Y18781I-146J543D01*
G01*
X71484Y15343D02*
G03*
X70745Y15036I0J-1046D01*
G01*
X71058Y15228D02*
G03*
X71399Y15490I-146J543D01*
G01*
X20128Y5624D02*
G03*
X20571Y5469I311J180D01*
G01*
X19854Y6097D02*
G03*
X20397Y5908I380J219D01*
G01*
X20338Y5842D02*
G03*
X20282Y6269I-543J146D01*
G01*
X19996Y6096D02*
G03*
X20433Y5915I437J437D01*
G01*
X20128Y5624D02*
G03*
X20571Y5469I311J180D01*
G01*
X19854Y6097D02*
G03*
X20397Y5908I380J219D01*
G01*
X20338Y5842D02*
G03*
X20282Y6269I-543J146D01*
G01*
X19931Y6126D02*
G03*
X20169Y5552I811J0D01*
G01*
X19931Y7266D02*
G03*
X20503Y5887I1951J0D01*
G01*
X60970Y14031D02*
G03*
X60790Y14466I-615J0D01*
G01*
X61503Y13753D02*
G03*
X61068Y13933I-435J-435D01*
G01*
X50219Y14483D02*
G03*
X50163Y14057I487J-281D01*
G01*
X50219Y14483D02*
G03*
X50163Y14057I487J-281D01*
G01*
X49999Y14101D02*
G03*
X50368Y14993I-892J892D01*
G01*
X53281Y7605D02*
G03*
X53019Y7946I-543J-146D01*
G01*
X53167Y8031D02*
G03*
X53610Y6961I1514J0D01*
G01*
X53281Y7605D02*
G03*
X53019Y7946I-543J-146D01*
G01*
X15945Y6461D02*
G03*
X16196Y7066I-605J605D01*
G01*
D02*
G03*
X16446Y6461I855J0D01*
G01*
X26450Y8487D02*
G03*
X26218Y7927I560J-560D01*
G01*
X27256Y9294D02*
G03*
X26690Y7927I1366J-1366D01*
G01*
X26369Y8112D02*
G03*
X26938Y8854I-611J1058D01*
G01*
X26369Y8112D02*
G03*
X26938Y8854I-611J1058D01*
G01*
X26816Y8559D02*
G03*
X26680Y7993I395J-395D01*
G01*
X26325Y8078D02*
G03*
X26476Y8443I-365J365D01*
G01*
D02*
G03*
X26628Y8078I516J0D01*
G01*
X18507Y17200D02*
G03*
X18367Y16864I336J-336D01*
G01*
D02*
G03*
X18228Y17200I-475J0D01*
G01*
X18564Y16000D02*
G03*
X18703Y15664I475J0D01*
G01*
X18703Y15664D02*
G03*
X18367Y15804I-336J-336D01*
G01*
X18228Y16140D02*
G03*
X18367Y16476I-336J336D01*
G01*
D02*
G03*
X18507Y16140I475J0D01*
G01*
X4917Y18292D02*
G03*
X5167Y18897I-605J605D01*
G01*
D02*
G03*
X5418Y18292I855J0D01*
G01*
X2751Y14484D02*
G03*
X2147Y14734I-605J-605D01*
G01*
D02*
G03*
X2751Y14985I0J855D01*
G01*
Y11177D02*
G03*
X2147Y11427I-605J-605D01*
G01*
D02*
G03*
X2751Y11678I0J855D01*
G01*
X3273Y11199D02*
G03*
X3280Y10592I357J-300D01*
G01*
X3350Y11358D02*
G03*
X3463Y10986I405J-80D01*
G01*
X3463Y10986D02*
G03*
X3094Y11085I-270J-270D01*
G01*
X3463Y10787D02*
G03*
X3067Y11525I-887J0D01*
G01*
X3463Y9905D02*
G03*
X2805Y11132I-1476J0D01*
G01*
X67713Y4921D02*
G03*
X67838Y4619I427J0D01*
G01*
X22059Y15197D02*
G03*
X24197Y17327I0J2138D01*
G01*
X21584Y15197D02*
G03*
X23725Y17329I0J2140D01*
G01*
X21110Y15197D02*
G03*
X23252Y17330I0J2142D01*
G01*
X20636Y15197D02*
G03*
X22780Y17332I0J2144D01*
G01*
X20161Y15197D02*
G03*
X22307Y17334I0J2146D01*
G01*
X19687Y15197D02*
G03*
X21835Y17336I0J2148D01*
G01*
X19213Y15197D02*
G03*
X21363Y17338I0J2150D01*
G01*
X61088Y18633D02*
G03*
X60039Y18198I-0J-1484D01*
G01*
X60662Y18519D02*
G03*
X61003Y18781I-146J543D01*
G01*
X71484Y15343D02*
G03*
X70745Y15036I0J-1046D01*
G01*
X19996Y6096D02*
G03*
X20433Y5915I437J437D01*
G01*
X20128Y5624D02*
G03*
X20571Y5469I311J180D01*
G01*
X19854Y6097D02*
G03*
X20397Y5908I380J219D01*
G01*
X20338Y5842D02*
G03*
X20282Y6269I-543J146D01*
G01*
X19931Y6126D02*
G03*
X20169Y5552I811J0D01*
G01*
X19931Y7266D02*
G03*
X20503Y5887I1951J0D01*
G01*
X60970Y14031D02*
G03*
X60790Y14466I-615J0D01*
G01*
X61503Y13753D02*
G03*
X61068Y13933I-435J-435D01*
G01*
X50219Y14483D02*
G03*
X50163Y14057I487J-281D01*
G01*
X49999Y14101D02*
G03*
X50368Y14993I-892J892D01*
G01*
X53167Y8031D02*
G03*
X53610Y6961I1514J0D01*
G01*
X53281Y7605D02*
G03*
X53019Y7946I-543J-146D01*
G01*
X15945Y6461D02*
G03*
X16196Y7066I-605J605D01*
G01*
D02*
G03*
X16446Y6461I855J0D01*
G01*
X26450Y8487D02*
G03*
X26218Y7927I560J-560D01*
G01*
X27256Y9294D02*
G03*
X26690Y7927I1366J-1366D01*
G01*
X26369Y8112D02*
G03*
X26938Y8854I-611J1058D01*
G01*
X26325Y8078D02*
G03*
X26476Y8443I-365J365D01*
G01*
D02*
G03*
X26628Y8078I516J0D01*
G01*
X18507Y17200D02*
G03*
X18367Y16864I336J-336D01*
G01*
D02*
G03*
X18228Y17200I-475J0D01*
G01*
X18564Y16000D02*
G03*
X18703Y15664I475J0D01*
G01*
X18703Y15664D02*
G03*
X18367Y15804I-336J-336D01*
G01*
X18228Y16140D02*
G03*
X18367Y16476I-336J336D01*
G01*
D02*
G03*
X18507Y16140I475J0D01*
G01*
X4917Y18292D02*
G03*
X5167Y18897I-605J605D01*
G01*
D02*
G03*
X5418Y18292I855J0D01*
G01*
X2751Y14484D02*
G03*
X2147Y14734I-605J-605D01*
G01*
D02*
G03*
X2751Y14985I0J855D01*
G01*
Y11177D02*
G03*
X2147Y11427I-605J-605D01*
G01*
D02*
G03*
X2751Y11678I0J855D01*
G01*
X3350Y11358D02*
G03*
X3463Y10986I405J-80D01*
G01*
X3463Y10986D02*
G03*
X3094Y11085I-270J-270D01*
G01*
X3463Y10787D02*
G03*
X3067Y11525I-887J0D01*
G01*
X3463Y9905D02*
G03*
X2805Y11132I-1476J0D01*
G01*
X61088Y18633D02*
G03*
X60039Y18198I-0J-1484D01*
G01*
X19996Y6096D02*
G03*
X20433Y5915I437J437D01*
G01*
X19931Y6126D02*
G03*
X20169Y5552I811J0D01*
G01*
X19931Y7266D02*
G03*
X20503Y5887I1951J0D01*
G01*
X60970Y14031D02*
G03*
X60790Y14466I-615J0D01*
G01*
X61503Y13753D02*
G03*
X61068Y13933I-435J-435D01*
G01*
X49999Y14101D02*
G03*
X50368Y14993I-892J892D01*
G01*
X53167Y8031D02*
G03*
X53610Y6961I1514J0D01*
G01*
X15945Y6461D02*
G03*
X16196Y7066I-605J605D01*
G01*
D02*
G03*
X16446Y6461I855J0D01*
G01*
X26450Y8487D02*
G03*
X26218Y7927I560J-560D01*
G01*
X27256Y9294D02*
G03*
X26690Y7927I1366J-1366D01*
G01*
X26325Y8078D02*
G03*
X26476Y8443I-365J365D01*
G01*
D02*
G03*
X26628Y8078I516J0D01*
G01*
X18507Y17200D02*
G03*
X18367Y16864I336J-336D01*
G01*
D02*
G03*
X18228Y17200I-475J0D01*
G01*
X18564Y16000D02*
G03*
X18703Y15664I475J0D01*
G01*
X18703Y15664D02*
G03*
X18367Y15804I-336J-336D01*
G01*
X18228Y16140D02*
G03*
X18367Y16476I-336J336D01*
G01*
D02*
G03*
X18507Y16140I475J0D01*
G01*
X71150Y15441D02*
X71484D01*
X68632Y12923D02*
X71150Y15441D01*
X68632Y8248D02*
Y12923D01*
X67742Y13823D02*
X68632Y12933D01*
X67742Y13823D02*
Y14764D01*
X71484Y15441D02*
Y16469D01*
X70761Y17191D02*
X71484Y16469D01*
X63318Y17191D02*
X70761D01*
X67713Y7329D02*
X68632Y8248D01*
X67713Y4522D02*
Y7329D01*
Y4522D02*
X67726Y4508D01*
X18367Y16000D02*
X19961Y14407D01*
X38524Y9823D02*
X39449Y10748D01*
X37224Y9764D02*
Y10475D01*
Y8441D02*
Y9764D01*
X37283Y9823D01*
X38524D01*
X29504Y11541D02*
X30444D01*
X26476Y8514D02*
X29504Y11541D01*
X26476Y7677D02*
Y8514D01*
X15581Y14441D02*
X16663Y13358D01*
Y8653D02*
Y13358D01*
X16196Y8186D02*
X16663Y8653D01*
X54331Y11043D02*
X60177D01*
X53068Y9781D02*
X54331Y11043D01*
X53068Y8031D02*
Y9781D01*
X53465Y3278D02*
Y5882D01*
X53010Y2823D02*
X53465Y3278D01*
X52294Y2823D02*
X53010D01*
X52068Y7278D02*
X53465Y5882D01*
X60572Y18731D02*
X61088D01*
X59941Y18100D02*
X60572Y18731D01*
X59941Y15315D02*
Y18100D01*
Y15315D02*
X61756Y13500D01*
Y12622D02*
Y13500D01*
X60177Y11043D02*
X61756Y12622D01*
X53068Y8031D02*
Y9609D01*
X51068Y11609D02*
X53068Y9609D01*
X51068Y11609D02*
Y14031D01*
X50068Y11024D02*
Y14031D01*
Y11024D02*
X52068Y9024D01*
Y8031D02*
Y9024D01*
X56767Y4141D02*
Y5113D01*
X55020Y6860D02*
X56767Y5113D01*
X53711Y6860D02*
X55020D01*
X53091Y7480D02*
X53711Y6860D01*
X53091Y7480D02*
Y7785D01*
X40354Y11004D02*
Y15571D01*
X40098Y10748D02*
X40354Y11004D01*
X39449Y10748D02*
X40098D01*
X40354Y15571D02*
X41855Y17071D01*
X42508D01*
X34048Y16824D02*
X34911Y15960D01*
Y8651D02*
Y15960D01*
X33396Y7136D02*
X34911Y8651D01*
X19628Y10904D02*
X19931Y10600D01*
Y6161D02*
Y10600D01*
Y6161D02*
X20433Y5659D01*
X19961Y11486D02*
Y14407D01*
X19378Y10904D02*
X19961Y11486D01*
X18472Y10904D02*
X19378D01*
X18472D02*
X19628D01*
X16407Y16877D02*
Y18179D01*
X15959Y18628D02*
X16407Y18179D01*
X15354Y18628D02*
X15959D01*
X15581Y16051D02*
X16407Y16877D01*
X15581Y14441D02*
Y16051D01*
X37224Y10475D02*
X38224Y11475D01*
X37224Y14483D02*
X38224Y13483D01*
Y11475D02*
Y13483D01*
X50368Y14331D02*
Y16071D01*
X50068Y14031D02*
X50368Y14331D01*
X41071Y4806D02*
Y6405D01*
Y4806D02*
X42471Y3405D01*
X53066Y8031D02*
X53068D01*
X33396Y4078D02*
X34069Y3405D01*
X33396Y4078D02*
Y7136D01*
X52068Y7278D02*
Y8031D01*
X3463Y9976D02*
X4937Y8501D01*
X16196Y6211D02*
Y8186D01*
X56767Y2421D02*
Y4141D01*
X61643Y4196D02*
Y5971D01*
X64088Y9758D02*
Y11315D01*
Y8201D02*
Y9758D01*
X59643Y2421D02*
Y4196D01*
Y5971D01*
X54767Y2421D02*
Y4141D01*
X18367Y16000D02*
Y17339D01*
X34048Y11564D02*
Y14824D01*
X30444Y11541D02*
Y14784D01*
X4937Y7911D02*
Y8501D01*
X3021Y11428D02*
X3463Y10986D01*
Y9976D02*
Y10986D01*
X984Y18474D02*
X1998Y19488D01*
X4685D01*
X5167Y19006D01*
Y18041D02*
Y19006D01*
X1644Y11427D02*
X3002D01*
X1663Y14734D02*
X3002D01*
X945Y12126D02*
X1644Y11427D01*
X945Y12126D02*
Y14016D01*
X1663Y14734D01*
X984Y15413D02*
Y18474D01*
Y15413D02*
X1663Y14734D01*
X22734Y15197D02*
X24867Y17330D01*
X19213Y15197D02*
X22734D01*
D11*
X59492Y11992D02*
G03*
X59262Y12087I-229J-229D01*
G01*
X6034Y6508D02*
G03*
X6270Y6411I235J235D01*
G01*
D02*
G03*
X6034Y6313I0J-333D01*
G01*
X38224Y6945D02*
G03*
X38395Y6531I586J0D01*
G01*
X36744D02*
G03*
X36869Y6833I-302J302D01*
G01*
D02*
G03*
X36995Y6531I428J0D01*
G01*
X31896Y5968D02*
G03*
X31268Y6228I-628J-628D01*
G01*
X52196Y3920D02*
G03*
X52294Y4156I-235J235D01*
G01*
D02*
G03*
X52391Y3920I333J0D01*
G01*
X50639D02*
G03*
X50737Y4156I-235J235D01*
G01*
D02*
G03*
X50834Y3920I333J0D01*
G01*
X44556Y16464D02*
G03*
X44448Y16203I260J-260D01*
G01*
D02*
G03*
X44340Y16464I-368J0D01*
G01*
X46556D02*
G03*
X46448Y16203I260J-260D01*
G01*
D02*
G03*
X46340Y16464I-368J0D01*
G01*
X57963Y16857D02*
G03*
X58088Y17159I-302J302D01*
G01*
D02*
G03*
X58213Y16857I428J0D01*
G01*
Y17606D02*
G03*
X58088Y17304I302J-302D01*
G01*
D02*
G03*
X57963Y17606I-428J0D01*
G01*
X58088Y18909D02*
G03*
X58391Y19034I0J428D01*
G01*
X58391Y19034D02*
G03*
X58265Y18731I302J-302D01*
G01*
X67057Y8027D02*
G03*
X66691Y7911I-72J-410D01*
G01*
X64088Y13049D02*
G03*
X64391Y13174I0J428D01*
G01*
X64391Y13174D02*
G03*
X64265Y12871I302J-302D01*
G01*
X30569Y9667D02*
G03*
X30872Y9541I302J302D01*
G01*
D02*
G03*
X30569Y9416I0J-428D01*
G01*
X63880Y14791D02*
G03*
X63318Y15024I-562J-562D01*
G01*
X68617Y14889D02*
G03*
X68711Y15115I-226J226D01*
G01*
Y15268D02*
G03*
X68867Y14889I535J0D01*
G01*
X66617D02*
G03*
X66742Y15191I-302J302D01*
G01*
D02*
G03*
X66867Y14889I428J0D01*
G01*
X66867Y14639D02*
G03*
X66722Y14289I350J-350D01*
G01*
Y14384D02*
G03*
X66617Y14639I-360J0D01*
G01*
X66867Y6558D02*
G03*
X66730Y6227I331J-331D01*
G01*
Y6284D02*
G03*
X66617Y6558I-387J0D01*
G01*
X66613Y6804D02*
G03*
X66718Y7082I-283J265D01*
G01*
X66716Y7139D02*
G03*
X66863Y6812I468J15D01*
G01*
X68691Y7234D02*
G03*
X68867Y6808I602J0D01*
G01*
X47486Y3823D02*
G03*
X47388Y4058I-333J0D01*
G01*
D02*
G03*
X47624Y3961I235J235D01*
G01*
X49083Y3920D02*
G03*
X49180Y4156I-235J235D01*
G01*
D02*
G03*
X49278Y3920I333J0D01*
G01*
X72610Y13066D02*
G03*
X72912Y12941I302J302D01*
G01*
D02*
G03*
X72610Y12816I0J-428D01*
G01*
X71484Y14264D02*
G03*
X71182Y14139I0J-428D01*
G01*
X71182Y14139D02*
G03*
X71307Y14441I-302J302D01*
G01*
X34246Y6405D02*
G03*
X34504Y5781I883J0D01*
G01*
X66911Y9758D02*
G03*
X66786Y10061I-428J0D01*
G01*
X66786Y10061D02*
G03*
X67088Y9935I302J302D01*
G01*
X67265Y11315D02*
G03*
X67391Y11012I428J0D01*
G01*
X67391Y11012D02*
G03*
X67088Y11138I-302J-302D01*
G01*
X58943Y14157D02*
G03*
X59068Y14459I-302J302D01*
G01*
D02*
G03*
X59193Y14157I428J0D01*
G01*
X57910Y14111D02*
G03*
X57827Y14624I-396J199D01*
G01*
X57963Y14174D02*
G03*
X58068Y14383I-154J209D01*
G01*
D02*
G03*
X58173Y14174I259J0D01*
G01*
X55891Y14031D02*
G03*
X55766Y14334I-428J0D01*
G01*
X55766Y14334D02*
G03*
X56068Y14209I302J302D01*
G01*
X55245Y14031D02*
G03*
X55576Y13233I1129J0D01*
G01*
X51891Y14031D02*
G03*
X51766Y14334I-428J0D01*
G01*
X51766Y14334D02*
G03*
X52068Y14209I302J302D01*
G01*
X47943Y14157D02*
G03*
X48068Y14459I-302J302D01*
G01*
D02*
G03*
X48193Y14157I428J0D01*
G01*
X46891Y14031D02*
G03*
X46766Y14334I-428J0D01*
G01*
X46766Y14334D02*
G03*
X47068Y14209I302J302D01*
G01*
X45891Y14031D02*
G03*
X45766Y14334I-428J0D01*
G01*
X45766Y14334D02*
G03*
X46068Y14209I302J302D01*
G01*
X44891Y14031D02*
G03*
X44766Y14334I-428J0D01*
G01*
X44766Y14334D02*
G03*
X45068Y14209I302J302D01*
G01*
X43193Y13906D02*
G03*
X43068Y13604I302J-302D01*
G01*
D02*
G03*
X42943Y13906I-428J0D01*
G01*
X61193Y7906D02*
G03*
X61068Y7604I302J-302D01*
G01*
D02*
G03*
X60943Y7906I-428J0D01*
G01*
X56943Y8157D02*
G03*
X57068Y8459I-302J302D01*
G01*
D02*
G03*
X57193Y8157I428J0D01*
G01*
X53943D02*
G03*
X54068Y8459I-302J302D01*
G01*
D02*
G03*
X54193Y8157I428J0D01*
G01*
X50943D02*
G03*
X51068Y8459I-302J302D01*
G01*
D02*
G03*
X51193Y8157I428J0D01*
G01*
X48930Y8031D02*
G03*
X49127Y7556I673J0D01*
G01*
X49245Y8031D02*
G03*
X49665Y7018I1433J0D01*
G01*
X49451Y7264D02*
G03*
X48980Y7878I-978J-262D01*
G01*
X49237Y7977D02*
G03*
X49350Y7508I440J-142D01*
G01*
X49451Y7264D02*
G03*
X48980Y7878I-978J-262D01*
G01*
X49191Y7904D02*
G03*
X49068Y7615I278J-289D01*
G01*
D02*
G03*
X48945Y7904I-401J0D01*
G01*
X47930Y8031D02*
G03*
X48158Y7482I777J0D01*
G01*
X48245Y8031D02*
G03*
X48696Y6944I1538J0D01*
G01*
X48451Y7264D02*
G03*
X47980Y7878I-978J-262D01*
G01*
X48237Y7977D02*
G03*
X48350Y7508I441J-142D01*
G01*
X48451Y7264D02*
G03*
X47980Y7878I-978J-262D01*
G01*
X48193Y7906D02*
G03*
X48068Y7604I302J-302D01*
G01*
D02*
G03*
X47943Y7906I-428J0D01*
G01*
X45193D02*
G03*
X45068Y7604I302J-302D01*
G01*
D02*
G03*
X44943Y7906I-428J0D01*
G01*
X44193D02*
G03*
X44068Y7604I302J-302D01*
G01*
D02*
G03*
X43943Y7906I-428J0D01*
G01*
X43193D02*
G03*
X43068Y7604I302J-302D01*
G01*
D02*
G03*
X42943Y7906I-428J0D01*
G01*
X35344Y6531D02*
G03*
X35551Y7032I-501J501D01*
G01*
X42471Y6583D02*
G03*
X42774Y6708I0J428D01*
G01*
X42774Y6708D02*
G03*
X42648Y6405I302J-302D01*
G01*
X42596Y6280D02*
G03*
X42471Y5978I302J-302D01*
G01*
D02*
G03*
X42346Y6280I-428J0D01*
G01*
X50368Y16904D02*
G03*
X50083Y16786I0J-404D01*
G01*
D02*
G03*
X50201Y17071I-286J286D01*
G01*
X38583Y8977D02*
G03*
X38361Y8441I536J-536D01*
G01*
X38321Y8344D02*
G03*
X38224Y8109I235J-235D01*
G01*
D02*
G03*
X38126Y8344I-333J0D01*
G01*
X37976Y15103D02*
G03*
X38302Y14596I775J140D01*
G01*
X38099Y14542D02*
G03*
X38053Y14890I-294J139D01*
G01*
X38400Y14468D02*
G03*
X38266Y14834I-462J38D01*
G01*
X38086Y14494D02*
G03*
X37785Y15315I-1036J86D01*
G01*
X37976Y15103D02*
G03*
X38302Y14596I775J140D01*
G01*
X38126Y14580D02*
G03*
X38224Y14816I-235J235D01*
G01*
D02*
G03*
X38321Y14580I333J0D01*
G01*
X39224Y17379D02*
G03*
X38988Y17281I0J-333D01*
G01*
D02*
G03*
X39086Y17517I-235J235D01*
G01*
X72648Y5129D02*
G03*
X72951Y5254I0J428D01*
G01*
X72951Y5254D02*
G03*
X72825Y4951I302J-302D01*
G01*
X59492Y11992D02*
G03*
X59262Y12087I-229J-229D01*
G01*
X6034Y6508D02*
G03*
X6270Y6411I235J235D01*
G01*
D02*
G03*
X6034Y6313I0J-333D01*
G01*
X38224Y6945D02*
G03*
X38395Y6531I586J0D01*
G01*
X36744D02*
G03*
X36869Y6833I-302J302D01*
G01*
D02*
G03*
X36995Y6531I428J0D01*
G01*
X31896Y5968D02*
G03*
X31268Y6228I-628J-628D01*
G01*
X52196Y3920D02*
G03*
X52294Y4156I-235J235D01*
G01*
D02*
G03*
X52391Y3920I333J0D01*
G01*
X50639D02*
G03*
X50737Y4156I-235J235D01*
G01*
D02*
G03*
X50834Y3920I333J0D01*
G01*
X44556Y16464D02*
G03*
X44448Y16203I260J-260D01*
G01*
D02*
G03*
X44340Y16464I-368J0D01*
G01*
X46556D02*
G03*
X46448Y16203I260J-260D01*
G01*
D02*
G03*
X46340Y16464I-368J0D01*
G01*
X57963Y16857D02*
G03*
X58088Y17159I-302J302D01*
G01*
D02*
G03*
X58213Y16857I428J0D01*
G01*
Y17606D02*
G03*
X58088Y17304I302J-302D01*
G01*
D02*
G03*
X57963Y17606I-428J0D01*
G01*
X58088Y18909D02*
G03*
X58391Y19034I0J428D01*
G01*
X58391Y19034D02*
G03*
X58265Y18731I302J-302D01*
G01*
X67057Y8027D02*
G03*
X66691Y7911I-72J-410D01*
G01*
X30569Y9667D02*
G03*
X30872Y9541I302J302D01*
G01*
D02*
G03*
X30569Y9416I0J-428D01*
G01*
X68617Y14889D02*
G03*
X68711Y15115I-226J226D01*
G01*
Y15268D02*
G03*
X68867Y14889I535J0D01*
G01*
X66617D02*
G03*
X66742Y15191I-302J302D01*
G01*
D02*
G03*
X66867Y14889I428J0D01*
G01*
X66867Y14639D02*
G03*
X66722Y14289I350J-350D01*
G01*
Y14384D02*
G03*
X66617Y14639I-360J0D01*
G01*
X66867Y6558D02*
G03*
X66730Y6227I331J-331D01*
G01*
Y6284D02*
G03*
X66617Y6558I-387J0D01*
G01*
X66613Y6804D02*
G03*
X66718Y7082I-283J265D01*
G01*
X66716Y7139D02*
G03*
X66863Y6812I468J15D01*
G01*
X68691Y7234D02*
G03*
X68867Y6808I602J0D01*
G01*
X47486Y3823D02*
G03*
X47388Y4058I-333J0D01*
G01*
D02*
G03*
X47624Y3961I235J235D01*
G01*
X49083Y3920D02*
G03*
X49180Y4156I-235J235D01*
G01*
D02*
G03*
X49278Y3920I333J0D01*
G01*
X72610Y13066D02*
G03*
X72912Y12941I302J302D01*
G01*
D02*
G03*
X72610Y12816I0J-428D01*
G01*
X71484Y14264D02*
G03*
X71182Y14139I0J-428D01*
G01*
X71182Y14139D02*
G03*
X71307Y14441I-302J302D01*
G01*
X34246Y6405D02*
G03*
X34504Y5781I883J0D01*
G01*
X66911Y9758D02*
G03*
X66786Y10061I-428J0D01*
G01*
X66786Y10061D02*
G03*
X67088Y9935I302J302D01*
G01*
X67265Y11315D02*
G03*
X67391Y11012I428J0D01*
G01*
X67391Y11012D02*
G03*
X67088Y11138I-302J-302D01*
G01*
X58943Y14157D02*
G03*
X59068Y14459I-302J302D01*
G01*
D02*
G03*
X59193Y14157I428J0D01*
G01*
X57910Y14111D02*
G03*
X57827Y14624I-396J199D01*
G01*
X57963Y14174D02*
G03*
X58068Y14383I-154J209D01*
G01*
D02*
G03*
X58173Y14174I259J0D01*
G01*
X55891Y14031D02*
G03*
X55766Y14334I-428J0D01*
G01*
X55766Y14334D02*
G03*
X56068Y14209I302J302D01*
G01*
X55245Y14031D02*
G03*
X55576Y13233I1129J0D01*
G01*
X51891Y14031D02*
G03*
X51766Y14334I-428J0D01*
G01*
X51766Y14334D02*
G03*
X52068Y14209I302J302D01*
G01*
X47943Y14157D02*
G03*
X48068Y14459I-302J302D01*
G01*
D02*
G03*
X48193Y14157I428J0D01*
G01*
X46891Y14031D02*
G03*
X46766Y14334I-428J0D01*
G01*
X46766Y14334D02*
G03*
X47068Y14209I302J302D01*
G01*
X45891Y14031D02*
G03*
X45766Y14334I-428J0D01*
G01*
X45766Y14334D02*
G03*
X46068Y14209I302J302D01*
G01*
X44891Y14031D02*
G03*
X44766Y14334I-428J0D01*
G01*
X44766Y14334D02*
G03*
X45068Y14209I302J302D01*
G01*
X43193Y13906D02*
G03*
X43068Y13604I302J-302D01*
G01*
D02*
G03*
X42943Y13906I-428J0D01*
G01*
X61193Y7906D02*
G03*
X61068Y7604I302J-302D01*
G01*
D02*
G03*
X60943Y7906I-428J0D01*
G01*
X56943Y8157D02*
G03*
X57068Y8459I-302J302D01*
G01*
D02*
G03*
X57193Y8157I428J0D01*
G01*
X53943D02*
G03*
X54068Y8459I-302J302D01*
G01*
D02*
G03*
X54193Y8157I428J0D01*
G01*
X50943D02*
G03*
X51068Y8459I-302J302D01*
G01*
D02*
G03*
X51193Y8157I428J0D01*
G01*
X48930Y8031D02*
G03*
X49127Y7556I673J0D01*
G01*
X49245Y8031D02*
G03*
X49665Y7018I1433J0D01*
G01*
X49451Y7264D02*
G03*
X48980Y7878I-978J-262D01*
G01*
X49191Y7904D02*
G03*
X49068Y7615I278J-289D01*
G01*
D02*
G03*
X48945Y7904I-401J0D01*
G01*
X47930Y8031D02*
G03*
X48158Y7482I777J0D01*
G01*
X48245Y8031D02*
G03*
X48696Y6944I1538J0D01*
G01*
X48451Y7264D02*
G03*
X47980Y7878I-978J-262D01*
G01*
X48193Y7906D02*
G03*
X48068Y7604I302J-302D01*
G01*
D02*
G03*
X47943Y7906I-428J0D01*
G01*
X45193D02*
G03*
X45068Y7604I302J-302D01*
G01*
D02*
G03*
X44943Y7906I-428J0D01*
G01*
X44193D02*
G03*
X44068Y7604I302J-302D01*
G01*
D02*
G03*
X43943Y7906I-428J0D01*
G01*
X43193D02*
G03*
X43068Y7604I302J-302D01*
G01*
D02*
G03*
X42943Y7906I-428J0D01*
G01*
X35344Y6531D02*
G03*
X35551Y7032I-501J501D01*
G01*
X42471Y6583D02*
G03*
X42774Y6708I0J428D01*
G01*
X42774Y6708D02*
G03*
X42648Y6405I302J-302D01*
G01*
X42596Y6280D02*
G03*
X42471Y5978I302J-302D01*
G01*
D02*
G03*
X42346Y6280I-428J0D01*
G01*
X50368Y16904D02*
G03*
X50083Y16786I0J-404D01*
G01*
D02*
G03*
X50201Y17071I-286J286D01*
G01*
X38583Y8977D02*
G03*
X38361Y8441I536J-536D01*
G01*
X38321Y8344D02*
G03*
X38224Y8109I235J-235D01*
G01*
D02*
G03*
X38126Y8344I-333J0D01*
G01*
X38400Y14468D02*
G03*
X38266Y14834I-462J38D01*
G01*
X38086Y14494D02*
G03*
X37785Y15315I-1036J86D01*
G01*
X37976Y15103D02*
G03*
X38302Y14596I775J140D01*
G01*
X38126Y14580D02*
G03*
X38224Y14816I-235J235D01*
G01*
D02*
G03*
X38321Y14580I333J0D01*
G01*
X39224Y17379D02*
G03*
X38988Y17281I0J-333D01*
G01*
D02*
G03*
X39086Y17517I-235J235D01*
G01*
X72648Y5129D02*
G03*
X72951Y5254I0J428D01*
G01*
X72951Y5254D02*
G03*
X72825Y4951I302J-302D01*
G01*
X38224Y6945D02*
G03*
X38395Y6531I586J0D01*
G01*
X36744D02*
G03*
X36869Y6833I-302J302D01*
G01*
D02*
G03*
X36995Y6531I428J0D01*
G01*
X31896Y5968D02*
G03*
X31268Y6228I-628J-628D01*
G01*
X52196Y3920D02*
G03*
X52294Y4156I-235J235D01*
G01*
D02*
G03*
X52391Y3920I333J0D01*
G01*
X50639D02*
G03*
X50737Y4156I-235J235D01*
G01*
D02*
G03*
X50834Y3920I333J0D01*
G01*
X44556Y16464D02*
G03*
X44448Y16203I260J-260D01*
G01*
D02*
G03*
X44340Y16464I-368J0D01*
G01*
X46556D02*
G03*
X46448Y16203I260J-260D01*
G01*
D02*
G03*
X46340Y16464I-368J0D01*
G01*
X57963Y16857D02*
G03*
X58088Y17159I-302J302D01*
G01*
D02*
G03*
X58213Y16857I428J0D01*
G01*
Y17606D02*
G03*
X58088Y17304I302J-302D01*
G01*
D02*
G03*
X57963Y17606I-428J0D01*
G01*
X58088Y18909D02*
G03*
X58391Y19034I0J428D01*
G01*
X58391Y19034D02*
G03*
X58265Y18731I302J-302D01*
G01*
X30569Y9667D02*
G03*
X30872Y9541I302J302D01*
G01*
D02*
G03*
X30569Y9416I0J-428D01*
G01*
X47486Y3823D02*
G03*
X47388Y4058I-333J0D01*
G01*
D02*
G03*
X47624Y3961I235J235D01*
G01*
X49083Y3920D02*
G03*
X49180Y4156I-235J235D01*
G01*
D02*
G03*
X49278Y3920I333J0D01*
G01*
X72610Y13066D02*
G03*
X72912Y12941I302J302D01*
G01*
D02*
G03*
X72610Y12816I0J-428D01*
G01*
X71484Y14264D02*
G03*
X71182Y14139I0J-428D01*
G01*
X71182Y14139D02*
G03*
X71307Y14441I-302J302D01*
G01*
X34246Y6405D02*
G03*
X34504Y5781I883J0D01*
G01*
X66911Y9758D02*
G03*
X66786Y10061I-428J0D01*
G01*
X66786Y10061D02*
G03*
X67088Y9935I302J302D01*
G01*
X67265Y11315D02*
G03*
X67391Y11012I428J0D01*
G01*
X67391Y11012D02*
G03*
X67088Y11138I-302J-302D01*
G01*
X58943Y14157D02*
G03*
X59068Y14459I-302J302D01*
G01*
D02*
G03*
X59193Y14157I428J0D01*
G01*
X57910Y14111D02*
G03*
X57827Y14624I-396J199D01*
G01*
X57963Y14174D02*
G03*
X58068Y14383I-154J209D01*
G01*
D02*
G03*
X58173Y14174I259J0D01*
G01*
X55891Y14031D02*
G03*
X55766Y14334I-428J0D01*
G01*
X55766Y14334D02*
G03*
X56068Y14209I302J302D01*
G01*
X51891Y14031D02*
G03*
X51766Y14334I-428J0D01*
G01*
X51766Y14334D02*
G03*
X52068Y14209I302J302D01*
G01*
X47943Y14157D02*
G03*
X48068Y14459I-302J302D01*
G01*
D02*
G03*
X48193Y14157I428J0D01*
G01*
X46891Y14031D02*
G03*
X46766Y14334I-428J0D01*
G01*
X46766Y14334D02*
G03*
X47068Y14209I302J302D01*
G01*
X45891Y14031D02*
G03*
X45766Y14334I-428J0D01*
G01*
X45766Y14334D02*
G03*
X46068Y14209I302J302D01*
G01*
X44891Y14031D02*
G03*
X44766Y14334I-428J0D01*
G01*
X44766Y14334D02*
G03*
X45068Y14209I302J302D01*
G01*
X43193Y13906D02*
G03*
X43068Y13604I302J-302D01*
G01*
D02*
G03*
X42943Y13906I-428J0D01*
G01*
X61193Y7906D02*
G03*
X61068Y7604I302J-302D01*
G01*
D02*
G03*
X60943Y7906I-428J0D01*
G01*
X56943Y8157D02*
G03*
X57068Y8459I-302J302D01*
G01*
D02*
G03*
X57193Y8157I428J0D01*
G01*
X53943D02*
G03*
X54068Y8459I-302J302D01*
G01*
D02*
G03*
X54193Y8157I428J0D01*
G01*
X50943D02*
G03*
X51068Y8459I-302J302D01*
G01*
D02*
G03*
X51193Y8157I428J0D01*
G01*
X48930Y8031D02*
G03*
X49127Y7556I673J0D01*
G01*
X49245Y8031D02*
G03*
X49665Y7018I1433J0D01*
G01*
X49191Y7904D02*
G03*
X49068Y7615I278J-289D01*
G01*
D02*
G03*
X48945Y7904I-401J0D01*
G01*
X47930Y8031D02*
G03*
X48158Y7482I777J0D01*
G01*
X48245Y8031D02*
G03*
X48696Y6944I1538J0D01*
G01*
X48193Y7906D02*
G03*
X48068Y7604I302J-302D01*
G01*
D02*
G03*
X47943Y7906I-428J0D01*
G01*
X45193D02*
G03*
X45068Y7604I302J-302D01*
G01*
D02*
G03*
X44943Y7906I-428J0D01*
G01*
X44193D02*
G03*
X44068Y7604I302J-302D01*
G01*
D02*
G03*
X43943Y7906I-428J0D01*
G01*
X43193D02*
G03*
X43068Y7604I302J-302D01*
G01*
D02*
G03*
X42943Y7906I-428J0D01*
G01*
X35344Y6531D02*
G03*
X35551Y7032I-501J501D01*
G01*
X42471Y6583D02*
G03*
X42774Y6708I0J428D01*
G01*
X42774Y6708D02*
G03*
X42648Y6405I302J-302D01*
G01*
X42596Y6280D02*
G03*
X42471Y5978I302J-302D01*
G01*
D02*
G03*
X42346Y6280I-428J0D01*
G01*
X50368Y16904D02*
G03*
X50083Y16786I0J-404D01*
G01*
D02*
G03*
X50201Y17071I-286J286D01*
G01*
X38583Y8977D02*
G03*
X38361Y8441I536J-536D01*
G01*
X38321Y8344D02*
G03*
X38224Y8109I235J-235D01*
G01*
D02*
G03*
X38126Y8344I-333J0D01*
G01*
X38400Y14468D02*
G03*
X38266Y14834I-462J38D01*
G01*
X38086Y14494D02*
G03*
X37785Y15315I-1036J86D01*
G01*
X38126Y14580D02*
G03*
X38224Y14816I-235J235D01*
G01*
D02*
G03*
X38321Y14580I333J0D01*
G01*
X39224Y17379D02*
G03*
X38988Y17281I0J-333D01*
G01*
D02*
G03*
X39086Y17517I-235J235D01*
G01*
X72648Y5129D02*
G03*
X72951Y5254I0J428D01*
G01*
X72951Y5254D02*
G03*
X72825Y4951I302J-302D01*
G01*
X64088Y12871D02*
X64439Y13222D01*
Y14232D01*
X63480Y15191D02*
X64439Y14232D01*
X63318Y15191D02*
X63480D01*
X70817Y2667D02*
Y8278D01*
X69370Y1220D02*
X70817Y2667D01*
X50861Y1220D02*
X69370D01*
X49951Y2131D02*
X50861Y1220D01*
X68957Y1713D02*
X70148Y2904D01*
X63878Y1713D02*
X68957D01*
X62933Y2657D02*
X63878Y1713D01*
X68711Y14795D02*
X68742Y14764D01*
X68711Y14795D02*
Y16407D01*
X66673D02*
X66742Y16339D01*
Y14764D02*
Y16339D01*
X66722Y14744D02*
X66742Y14764D01*
X66722Y14035D02*
Y14744D01*
X66093Y13406D02*
X66722Y14035D01*
X69360Y7982D02*
Y9144D01*
X68691Y7313D02*
X69360Y7982D01*
X68691Y6683D02*
Y7313D01*
X66691Y7911D02*
X66730Y6683D01*
X66691Y7911D02*
X66981Y8201D01*
X67088D01*
X66730Y3622D02*
Y6683D01*
X56722Y12087D02*
X59439D01*
X55068Y13741D02*
X56722Y12087D01*
X55068Y13741D02*
Y14031D01*
X70148Y13104D02*
X71484Y14441D01*
X70148Y2904D02*
Y13104D01*
X67913Y9134D02*
Y10490D01*
X70817Y8278D02*
X73346Y10807D01*
X32382Y10837D02*
Y16992D01*
X31087Y9541D02*
X32382Y10837D01*
X30444Y9541D02*
X31087D01*
X47549Y7057D02*
X49951Y4656D01*
X45522Y7057D02*
X47549D01*
X45068Y7511D02*
X45522Y7057D01*
X31459Y6405D02*
X32037Y5827D01*
Y2992D02*
Y5827D01*
X31631Y2586D02*
X32037Y2992D01*
X62421Y6821D02*
X62933Y6309D01*
X61535Y6821D02*
X62421D01*
X61068Y7288D02*
X61535Y6821D01*
X61068Y7288D02*
Y8031D01*
X48268Y5374D02*
X49180Y4462D01*
X45089Y5374D02*
X48268D01*
X44616Y5846D02*
X45089Y5374D01*
X46801Y4646D02*
X47624Y3823D01*
X43730Y4646D02*
X46801D01*
X42471Y5905D02*
X43730Y4646D01*
X42471Y5905D02*
Y6405D01*
X44616Y5846D02*
Y6673D01*
X44068Y7221D02*
X44616Y6673D01*
X44068Y7221D02*
Y8031D01*
X49180Y3823D02*
Y4462D01*
X49951Y2131D02*
Y4656D01*
X73346Y10807D02*
Y12608D01*
X73014Y12941D02*
X73346Y12608D01*
X72484Y12941D02*
X73014D01*
X69656Y20076D02*
X73937Y15795D01*
Y6240D02*
Y15795D01*
X72648Y4951D02*
X73937Y6240D01*
X57835Y9794D02*
X60573D01*
X57068Y9027D02*
X57835Y9794D01*
X57068Y8031D02*
Y9027D01*
X55197Y10335D02*
X60284D01*
X54068Y9206D02*
X55197Y10335D01*
X54068Y8031D02*
Y9206D01*
X57411Y15079D02*
X58602D01*
X57076Y15414D02*
X57411Y15079D01*
X57076Y15414D02*
Y18906D01*
X58068Y14031D02*
Y14383D01*
X57827Y14624D02*
X58068Y14383D01*
X56654Y14624D02*
X57827D01*
X58602Y15079D02*
X59068Y14613D01*
Y14031D02*
Y14613D01*
X60284Y10335D02*
X62362Y12412D01*
X47618Y12205D02*
X51068Y8755D01*
X43593Y12205D02*
X47618D01*
X43068Y12729D02*
X43593Y12205D01*
X51068Y8031D02*
Y8755D01*
X50737Y3823D02*
Y4903D01*
X48068Y7572D02*
X50737Y4903D01*
X48068Y7572D02*
Y8031D01*
X52294Y3823D02*
Y4390D01*
X49068Y7615D02*
X52294Y4390D01*
X49068Y7615D02*
Y8031D01*
X43068Y12729D02*
Y14031D01*
X40404Y9203D02*
X41339Y10138D01*
X40404Y2793D02*
Y9203D01*
X39559Y1949D02*
X40404Y2793D01*
X41339Y10138D02*
Y14459D01*
X44198Y14902D02*
X45068Y14031D01*
X41782Y14902D02*
X44198D01*
X41339Y14459D02*
X41782Y14902D01*
X43051Y15423D02*
X43486Y15858D01*
X41368Y15423D02*
X43051D01*
X40924Y14979D02*
X41368Y15423D01*
X40924Y10579D02*
Y14979D01*
X40460Y10116D02*
X40924Y10579D01*
X39722Y10116D02*
X40460D01*
X43486Y15858D02*
Y16636D01*
X38224Y8617D02*
X39722Y10116D01*
X38224Y8441D02*
Y8617D01*
X36565Y15000D02*
X36880Y15315D01*
X36565Y7297D02*
Y15000D01*
Y7297D02*
X36869Y6992D01*
X36880Y15315D02*
X37785D01*
X38224Y14877D01*
X36565Y15846D02*
X38827D01*
X36066Y15347D02*
X36565Y15846D01*
X36066Y5918D02*
Y15347D01*
X35004Y17496D02*
X35551Y16949D01*
Y6488D02*
Y16949D01*
X35469Y6405D02*
X35551Y6488D01*
X34650Y5636D02*
X35783D01*
X34069Y6217D02*
X34650Y5636D01*
X34069Y6217D02*
Y6405D01*
X35783Y5636D02*
X36066Y5918D01*
X32886Y17496D02*
X35004D01*
X37018Y16506D02*
X38213D01*
X35118Y18406D02*
X37018Y16506D01*
X32766Y18406D02*
X35118D01*
X38213Y16506D02*
X39224Y17517D01*
X31624Y17264D02*
X32766Y18406D01*
X30052Y2586D02*
X31631D01*
X38224Y14483D02*
Y14877D01*
X38827Y15846D02*
X41656Y18676D01*
X31624Y11142D02*
Y17264D01*
X31004Y10522D02*
X31624Y11142D01*
X30128Y10522D02*
X31004D01*
X32382Y16992D02*
X32886Y17496D01*
X31268Y6405D02*
X31459D01*
X38224Y6452D02*
X38270Y6405D01*
X45068Y7511D02*
Y8031D01*
X57076Y18906D02*
X58246Y20076D01*
X69656D01*
X43068Y7003D02*
Y8031D01*
X42471Y6405D02*
X43068Y7003D01*
X46448Y14651D02*
Y16571D01*
Y14651D02*
X47068Y14031D01*
X62362Y12412D02*
Y18470D01*
X61406Y19426D02*
X62362Y18470D01*
X58783Y19426D02*
X61406D01*
X58088Y18731D02*
X58783Y19426D01*
X43486Y16636D02*
X44504Y17654D01*
X50946D01*
X51316Y17284D01*
Y14784D02*
Y17284D01*
Y14784D02*
X52068Y14031D01*
X44448Y15651D02*
Y16571D01*
Y15651D02*
X46068Y14031D01*
X66093Y10754D02*
X67088Y9758D01*
X36869Y6405D02*
Y6992D01*
X55606Y14494D02*
X56068Y14031D01*
X55606Y14494D02*
Y16766D01*
X53696Y18676D02*
X55606Y16766D01*
X41656Y18676D02*
X53696D01*
X48068Y14771D02*
X50368Y17071D01*
X48068Y14031D02*
Y14771D01*
X38224Y6452D02*
Y8441D01*
X58088Y16731D02*
Y17731D01*
X63576Y16196D02*
X65069Y14703D01*
X60573Y9794D02*
X62876Y12096D01*
X64616D01*
X65069Y12549D01*
Y14703D01*
X66093Y10754D02*
Y13406D01*
X5937Y6411D02*
X6778D01*
X29134Y3504D02*
X30052Y2586D01*
X29134Y3504D02*
Y9528D01*
X30128Y10522D01*
X19350Y1949D02*
X39559D01*
X17717Y3583D02*
X19350Y1949D01*
X9016Y3583D02*
X17717D01*
X7087Y5512D02*
X9016Y3583D01*
X7087Y5512D02*
Y6102D01*
X6778Y6411D02*
X7087Y6102D01*
X62933Y2657D02*
Y6309D01*
X67088Y11315D02*
X67913Y10490D01*
D12*
X30263Y3861D02*
G03*
X31268Y3445I1005J1005D01*
G01*
X8617Y6211D02*
G03*
X8826Y5707I713J0D01*
G01*
X8826Y5707D02*
G03*
X8322Y5915I-504J-504D01*
G01*
X14847Y11624D02*
G03*
X14250Y11942I-682J-562D01*
G01*
X14847Y11624D02*
G03*
X14250Y11942I-682J-562D01*
G01*
X13789Y12244D02*
G03*
X14941Y11875I934J934D01*
G01*
X30263Y3861D02*
G03*
X31268Y3445I1005J1005D01*
G01*
X8617Y6211D02*
G03*
X8826Y5707I713J0D01*
G01*
X8826Y5707D02*
G03*
X8322Y5915I-504J-504D01*
G01*
X14847Y11624D02*
G03*
X14250Y11942I-682J-562D01*
G01*
X13789Y12244D02*
G03*
X14941Y11875I934J934D01*
G01*
X30263Y3861D02*
G03*
X31268Y3445I1005J1005D01*
G01*
X8617Y6211D02*
G03*
X8826Y5707I713J0D01*
G01*
X8826Y5707D02*
G03*
X8322Y5915I-504J-504D01*
G01*
X13789Y12244D02*
G03*
X14941Y11875I934J934D01*
G01*
X30128Y7539D02*
X32152Y9564D01*
X30128Y3996D02*
Y7539D01*
Y3996D02*
X30719Y3405D01*
X26476Y9754D02*
Y13593D01*
X21329Y4606D02*
X26476Y9754D01*
X9926Y4606D02*
X21329D01*
X8322Y6211D02*
X9926Y4606D01*
X29026Y20256D02*
X29498Y19783D01*
X20797Y20256D02*
X29026D01*
X19903Y19361D02*
X20797Y20256D01*
X19903Y18008D02*
Y19361D01*
X29498Y14616D02*
Y19783D01*
X28474Y13593D02*
X29498Y14616D01*
X26476Y13593D02*
X28474D01*
X32152Y9564D02*
X34048D01*
X30719Y3405D02*
X31268D01*
X14311Y11722D02*
X15217D01*
X13789Y12244D02*
X14311Y11722D01*
X13789Y12244D02*
Y18720D01*
X14755Y19686D02*
X17359D01*
X13789Y18720D02*
X14755Y19686D01*
X17359D02*
X18367Y18678D01*
D13*
X24867Y17330D02*
D03*
D14*
X3002Y11427D02*
D03*
Y13081D02*
D03*
Y14734D02*
D03*
Y16388D02*
D03*
X5167Y13081D02*
D03*
Y14734D02*
D03*
Y16388D02*
D03*
Y18041D02*
D03*
X3002D02*
D03*
D15*
X5167Y11427D02*
D03*
D16*
X26870Y17333D02*
D03*
D17*
X19903Y16670D02*
D03*
Y18008D02*
D03*
X18367Y16000D02*
D03*
Y17339D02*
D03*
D18*
Y18678D02*
D03*
D19*
X72648Y7951D02*
D03*
Y6951D02*
D03*
Y5951D02*
D03*
X42471Y3405D02*
D03*
Y6405D02*
D03*
X39670Y3405D02*
D03*
Y6405D02*
D03*
X35469Y3405D02*
D03*
Y6405D02*
D03*
X42068Y8031D02*
D03*
X43068D02*
D03*
X44068D02*
D03*
X45068D02*
D03*
X46068D02*
D03*
X47068D02*
D03*
X48068D02*
D03*
X49068D02*
D03*
X50068D02*
D03*
X51068D02*
D03*
X52068D02*
D03*
X53068D02*
D03*
X54068D02*
D03*
X55068D02*
D03*
X56068D02*
D03*
X57068D02*
D03*
X58068D02*
D03*
X59068D02*
D03*
X60068D02*
D03*
X61068D02*
D03*
X42068Y14031D02*
D03*
X43068D02*
D03*
X44068D02*
D03*
X45068D02*
D03*
X46068D02*
D03*
X47068D02*
D03*
X48068D02*
D03*
X49068D02*
D03*
X50068D02*
D03*
X51068D02*
D03*
X52068D02*
D03*
X53068D02*
D03*
X54068D02*
D03*
X55068D02*
D03*
X56068D02*
D03*
X57068D02*
D03*
X58068D02*
D03*
X59068D02*
D03*
X60068D02*
D03*
X64088Y11315D02*
D03*
X67088D02*
D03*
X64088Y9758D02*
D03*
X67088D02*
D03*
X34069Y3405D02*
D03*
Y6405D02*
D03*
X15354Y18628D02*
D03*
X71484Y15441D02*
D03*
Y12441D02*
D03*
X72484Y14941D02*
D03*
X71484Y14441D02*
D03*
Y13441D02*
D03*
X72484Y13941D02*
D03*
Y12941D02*
D03*
X49180Y2823D02*
D03*
X47624D02*
D03*
X54767Y2421D02*
D03*
X67742Y6683D02*
D03*
X66742D02*
D03*
X67742Y14764D02*
D03*
X68742D02*
D03*
X18472Y10904D02*
D03*
Y9904D02*
D03*
X59643Y2421D02*
D03*
X61643D02*
D03*
Y4196D02*
D03*
X59643D02*
D03*
X63318Y17191D02*
D03*
X30444Y11541D02*
D03*
Y9541D02*
D03*
X61643Y5971D02*
D03*
X59643D02*
D03*
X30444Y16784D02*
D03*
Y14784D02*
D03*
X67088Y12871D02*
D03*
X64088D02*
D03*
Y8201D02*
D03*
X67088D02*
D03*
X45272Y6405D02*
D03*
Y3405D02*
D03*
X52288Y16571D02*
D03*
X54288D02*
D03*
X34048Y11564D02*
D03*
Y9564D02*
D03*
Y16824D02*
D03*
Y14824D02*
D03*
X58088Y17731D02*
D03*
Y16731D02*
D03*
Y15731D02*
D03*
X61088Y18731D02*
D03*
Y17731D02*
D03*
Y16731D02*
D03*
Y15731D02*
D03*
X31268Y6405D02*
D03*
Y3405D02*
D03*
X32668Y6405D02*
D03*
Y3405D02*
D03*
X36869D02*
D03*
Y6405D02*
D03*
X38270Y3405D02*
D03*
Y6405D02*
D03*
X41071D02*
D03*
Y3405D02*
D03*
X43872Y6405D02*
D03*
Y3405D02*
D03*
D20*
X72648Y4951D02*
D03*
X61068Y14031D02*
D03*
X15354Y17628D02*
D03*
X72484Y11941D02*
D03*
X18472Y11904D02*
D03*
D21*
X37224Y17517D02*
D03*
X38224D02*
D03*
X37224Y14483D02*
D03*
X38224D02*
D03*
X39224D02*
D03*
X37224Y11475D02*
D03*
X38224D02*
D03*
X37224Y8441D02*
D03*
X38224D02*
D03*
X39224D02*
D03*
X5937Y4411D02*
D03*
Y7411D02*
D03*
X4937Y4911D02*
D03*
X5937Y5411D02*
D03*
Y6411D02*
D03*
X4937Y5911D02*
D03*
D22*
X39224Y17517D02*
D03*
Y11475D02*
D03*
X4937Y7911D02*
D03*
D23*
X54767Y4141D02*
D03*
X56767D02*
D03*
X48498Y17071D02*
D03*
Y16071D02*
D03*
X56338Y17071D02*
D03*
Y16071D02*
D03*
X50368D02*
D03*
Y17071D02*
D03*
X56767Y2421D02*
D03*
X63318Y15191D02*
D03*
X42508Y17071D02*
D03*
Y16071D02*
D03*
D24*
X26476Y7677D02*
D03*
Y13593D02*
D03*
D25*
X9301Y11722D02*
D03*
X15217D02*
D03*
D26*
X8322Y6211D02*
D03*
X16196D02*
D03*
D27*
X7784Y14938D02*
D03*
X16734Y14958D02*
D03*
D28*
X20433Y5659D02*
D03*
D29*
Y3659D02*
D03*
D30*
X74984Y11441D02*
D03*
Y15941D02*
D03*
X2437Y8411D02*
D03*
Y3911D02*
D03*
D31*
X49180Y3823D02*
D03*
X47624D02*
D03*
X50737D02*
D03*
X52294D02*
D03*
D32*
X68742Y6683D02*
D03*
X66742Y14764D02*
D03*
X58088Y18731D02*
D03*
D33*
X7887Y19615D02*
D03*
X7977Y1821D02*
D03*
X73622Y1880D02*
D03*
Y19596D02*
D03*
D34*
X46448Y16571D02*
D03*
X44448D02*
D03*
D35*
X50737Y2823D02*
D03*
X52294D02*
D03*
D36*
X4937Y6911D02*
D03*
D37*
X68711Y16407D02*
D03*
X66742D02*
D03*
X69360Y9144D02*
D03*
X67913Y9134D02*
D03*
X66730Y3622D02*
D03*
X59557Y12057D02*
D03*
X56654Y14624D02*
D03*
X63576Y16196D02*
D03*
D38*
X67726Y4508D02*
D03*
M02*
