%FSLAX24Y24*%
%MOIN*%
G70*
G01*
G75*
G04 Layer_Color=8388736*
%ADD10C,0.0472*%
%ADD11C,0.0315*%
%ADD12C,0.0591*%
%ADD13R,0.7480X0.4724*%
%ADD14C,0.1181*%
%ADD15R,0.1181X0.1181*%
%ADD16C,0.1969*%
%ADD17C,0.0866*%
%ADD18R,0.0866X0.0866*%
%ADD19C,0.0669*%
%ADD20R,0.0669X0.0669*%
%ADD21C,0.0591*%
%ADD22R,0.0591X0.0591*%
%ADD23C,0.0650*%
%ADD24O,0.0900X0.1400*%
%ADD25O,0.1400X0.0900*%
G04:AMPARAMS|DCode=26|XSize=118.1mil|YSize=118.1mil|CornerRadius=29.5mil|HoleSize=0mil|Usage=FLASHONLY|Rotation=0.000|XOffset=0mil|YOffset=0mil|HoleType=Round|Shape=RoundedRectangle|*
%AMROUNDEDRECTD26*
21,1,0.1181,0.0591,0,0,0.0*
21,1,0.0591,0.1181,0,0,0.0*
1,1,0.0591,0.0295,-0.0295*
1,1,0.0591,-0.0295,-0.0295*
1,1,0.0591,-0.0295,0.0295*
1,1,0.0591,0.0295,0.0295*
%
%ADD26ROUNDEDRECTD26*%
%ADD27C,0.1000*%
%ADD28R,0.0669X0.0984*%
%ADD29C,0.0984*%
%ADD30C,0.1161*%
%ADD31R,0.0591X0.0591*%
%ADD32R,0.0669X0.0669*%
%ADD33C,0.2362*%
%ADD34C,0.0620*%
%ADD35C,0.0591*%
%ADD36C,0.0630*%
%ADD37C,0.0500*%
%ADD38C,0.0787*%
%ADD39C,0.0236*%
%ADD40C,0.0709*%
%ADD41C,0.0197*%
%ADD42C,0.0079*%
%ADD43C,0.0039*%
%ADD44C,0.0098*%
%ADD45C,0.0100*%
%ADD46C,0.0060*%
%ADD47C,0.0120*%
%ADD48C,0.0030*%
%ADD49C,0.0080*%
%ADD50R,0.0300X0.0219*%
%ADD51R,0.0300X0.0252*%
%ADD52R,0.2008X0.0300*%
%ADD53R,0.0219X0.0300*%
%ADD54R,0.0252X0.0300*%
%ADD55R,0.0300X0.2008*%
%ADD56R,0.7560X0.4804*%
%ADD57C,0.1261*%
%ADD58R,0.1261X0.1261*%
%ADD59C,0.2049*%
%ADD60C,0.0946*%
%ADD61R,0.0946X0.0946*%
%ADD62C,0.0749*%
%ADD63R,0.0749X0.0749*%
%ADD64C,0.0671*%
%ADD65R,0.0671X0.0671*%
%ADD66C,0.0730*%
%ADD67O,0.0980X0.1480*%
%ADD68O,0.1480X0.0980*%
G04:AMPARAMS|DCode=69|XSize=126.1mil|YSize=126.1mil|CornerRadius=33.5mil|HoleSize=0mil|Usage=FLASHONLY|Rotation=0.000|XOffset=0mil|YOffset=0mil|HoleType=Round|Shape=RoundedRectangle|*
%AMROUNDEDRECTD69*
21,1,0.1261,0.0591,0,0,0.0*
21,1,0.0591,0.1261,0,0,0.0*
1,1,0.0671,0.0295,-0.0295*
1,1,0.0671,-0.0295,-0.0295*
1,1,0.0671,-0.0295,0.0295*
1,1,0.0671,0.0295,0.0295*
%
%ADD69ROUNDEDRECTD69*%
%ADD70C,0.1080*%
%ADD71R,0.0749X0.1064*%
%ADD72C,0.1064*%
%ADD73C,0.1241*%
%ADD74R,0.0671X0.0671*%
%ADD75R,0.0749X0.0749*%
%ADD76C,0.2442*%
%ADD77C,0.0700*%
%ADD78C,0.0671*%
%ADD79C,0.0710*%
%ADD80C,0.0580*%
%ADD81C,0.0867*%
D56*
X24867Y17330D02*
D03*
D57*
X3002Y11427D02*
D03*
Y13081D02*
D03*
Y14734D02*
D03*
Y16388D02*
D03*
X5167Y13081D02*
D03*
Y14734D02*
D03*
Y16388D02*
D03*
Y18041D02*
D03*
X3002D02*
D03*
D58*
X5167Y11427D02*
D03*
D59*
X26870Y17333D02*
D03*
D60*
X19903Y16670D02*
D03*
Y18008D02*
D03*
X18367Y16000D02*
D03*
Y17339D02*
D03*
D61*
Y18678D02*
D03*
D62*
X72648Y7951D02*
D03*
Y6951D02*
D03*
Y5951D02*
D03*
X42471Y3405D02*
D03*
Y6405D02*
D03*
X39670Y3405D02*
D03*
Y6405D02*
D03*
X35469Y3405D02*
D03*
Y6405D02*
D03*
X42068Y8031D02*
D03*
X43068D02*
D03*
X44068D02*
D03*
X45068D02*
D03*
X46068D02*
D03*
X47068D02*
D03*
X48068D02*
D03*
X49068D02*
D03*
X50068D02*
D03*
X51068D02*
D03*
X52068D02*
D03*
X53068D02*
D03*
X54068D02*
D03*
X55068D02*
D03*
X56068D02*
D03*
X57068D02*
D03*
X58068D02*
D03*
X59068D02*
D03*
X60068D02*
D03*
X61068D02*
D03*
X42068Y14031D02*
D03*
X43068D02*
D03*
X44068D02*
D03*
X45068D02*
D03*
X46068D02*
D03*
X47068D02*
D03*
X48068D02*
D03*
X49068D02*
D03*
X50068D02*
D03*
X51068D02*
D03*
X52068D02*
D03*
X53068D02*
D03*
X54068D02*
D03*
X55068D02*
D03*
X56068D02*
D03*
X57068D02*
D03*
X58068D02*
D03*
X59068D02*
D03*
X60068D02*
D03*
X64088Y11315D02*
D03*
X67088D02*
D03*
X64088Y9758D02*
D03*
X67088D02*
D03*
X34069Y3405D02*
D03*
Y6405D02*
D03*
X15354Y18628D02*
D03*
X71484Y15441D02*
D03*
Y12441D02*
D03*
X72484Y14941D02*
D03*
X71484Y14441D02*
D03*
Y13441D02*
D03*
X72484Y13941D02*
D03*
Y12941D02*
D03*
X49180Y2823D02*
D03*
X47624D02*
D03*
X54767Y2421D02*
D03*
X67742Y6683D02*
D03*
X66742D02*
D03*
X67742Y14764D02*
D03*
X68742D02*
D03*
X18472Y10904D02*
D03*
Y9904D02*
D03*
X59643Y2421D02*
D03*
X61643D02*
D03*
Y4196D02*
D03*
X59643D02*
D03*
X63318Y17191D02*
D03*
X30444Y11541D02*
D03*
Y9541D02*
D03*
X61643Y5971D02*
D03*
X59643D02*
D03*
X30444Y16784D02*
D03*
Y14784D02*
D03*
X67088Y12871D02*
D03*
X64088D02*
D03*
Y8201D02*
D03*
X67088D02*
D03*
X45272Y6405D02*
D03*
Y3405D02*
D03*
X52288Y16571D02*
D03*
X54288D02*
D03*
X34048Y11564D02*
D03*
Y9564D02*
D03*
Y16824D02*
D03*
Y14824D02*
D03*
X58088Y17731D02*
D03*
Y16731D02*
D03*
Y15731D02*
D03*
X61088Y18731D02*
D03*
Y17731D02*
D03*
Y16731D02*
D03*
Y15731D02*
D03*
X31268Y6405D02*
D03*
Y3405D02*
D03*
X32668Y6405D02*
D03*
Y3405D02*
D03*
X36869D02*
D03*
Y6405D02*
D03*
X38270Y3405D02*
D03*
Y6405D02*
D03*
X41071D02*
D03*
Y3405D02*
D03*
X43872Y6405D02*
D03*
Y3405D02*
D03*
D63*
X72648Y4951D02*
D03*
X61068Y14031D02*
D03*
X15354Y17628D02*
D03*
X72484Y11941D02*
D03*
X18472Y11904D02*
D03*
D64*
X37224Y17517D02*
D03*
X38224D02*
D03*
X37224Y14483D02*
D03*
X38224D02*
D03*
X39224D02*
D03*
X37224Y11475D02*
D03*
X38224D02*
D03*
X37224Y8441D02*
D03*
X38224D02*
D03*
X39224D02*
D03*
X5937Y4411D02*
D03*
Y7411D02*
D03*
X4937Y4911D02*
D03*
X5937Y5411D02*
D03*
Y6411D02*
D03*
X4937Y5911D02*
D03*
D65*
X39224Y17517D02*
D03*
Y11475D02*
D03*
X4937Y7911D02*
D03*
D66*
X54767Y4141D02*
D03*
X56767D02*
D03*
X48498Y17071D02*
D03*
Y16071D02*
D03*
X56338Y17071D02*
D03*
Y16071D02*
D03*
X50368D02*
D03*
Y17071D02*
D03*
X56767Y2421D02*
D03*
X63318Y15191D02*
D03*
X42508Y17071D02*
D03*
Y16071D02*
D03*
D67*
X26476Y7677D02*
D03*
Y13593D02*
D03*
D68*
X9301Y11722D02*
D03*
X15217D02*
D03*
D69*
X8322Y6211D02*
D03*
X16196D02*
D03*
D70*
X7784Y14938D02*
D03*
X16734Y14958D02*
D03*
D71*
X20433Y5659D02*
D03*
D72*
Y3659D02*
D03*
D73*
X74984Y11441D02*
D03*
Y15941D02*
D03*
X2437Y8411D02*
D03*
Y3911D02*
D03*
D74*
X49180Y3823D02*
D03*
X47624D02*
D03*
X50737D02*
D03*
X52294D02*
D03*
D75*
X68742Y6683D02*
D03*
X66742Y14764D02*
D03*
X58088Y18731D02*
D03*
D76*
X7887Y19615D02*
D03*
X7977Y1821D02*
D03*
X73622Y1880D02*
D03*
Y19596D02*
D03*
D77*
X46448Y16571D02*
D03*
X44448D02*
D03*
D78*
X50737Y2823D02*
D03*
X52294D02*
D03*
D79*
X4937Y6911D02*
D03*
D80*
X68711Y16407D02*
D03*
X66742D02*
D03*
X69360Y9144D02*
D03*
X67913Y9134D02*
D03*
X66730Y3622D02*
D03*
X59557Y12057D02*
D03*
X56654Y14624D02*
D03*
X63576Y16196D02*
D03*
D81*
X67726Y4508D02*
D03*
M02*
