%FSLAX24Y24*%
%MOIN*%
G70*
G01*
G75*
G04 Layer_Color=2752767*
%ADD10C,0.0472*%
%ADD11C,0.0315*%
%ADD12C,0.0591*%
%ADD13R,0.7480X0.4724*%
%ADD14C,0.1181*%
%ADD15R,0.1181X0.1181*%
%ADD16C,0.1969*%
%ADD17C,0.0866*%
%ADD18R,0.0866X0.0866*%
%ADD19C,0.0669*%
%ADD20R,0.0669X0.0669*%
%ADD21C,0.0591*%
%ADD22R,0.0591X0.0591*%
%ADD23C,0.0650*%
%ADD24O,0.0900X0.1400*%
%ADD25O,0.1400X0.0900*%
G04:AMPARAMS|DCode=26|XSize=118.1mil|YSize=118.1mil|CornerRadius=29.5mil|HoleSize=0mil|Usage=FLASHONLY|Rotation=0.000|XOffset=0mil|YOffset=0mil|HoleType=Round|Shape=RoundedRectangle|*
%AMROUNDEDRECTD26*
21,1,0.1181,0.0591,0,0,0.0*
21,1,0.0591,0.1181,0,0,0.0*
1,1,0.0591,0.0295,-0.0295*
1,1,0.0591,-0.0295,-0.0295*
1,1,0.0591,-0.0295,0.0295*
1,1,0.0591,0.0295,0.0295*
%
%ADD26ROUNDEDRECTD26*%
%ADD27C,0.1000*%
%ADD28R,0.0669X0.0984*%
%ADD29C,0.0984*%
%ADD30C,0.1161*%
%ADD31R,0.0591X0.0591*%
%ADD32R,0.0669X0.0669*%
%ADD33C,0.2362*%
%ADD34C,0.0620*%
%ADD35C,0.0591*%
%ADD36C,0.0630*%
%ADD37C,0.0500*%
%ADD38C,0.0787*%
%ADD39C,0.0236*%
%ADD40C,0.0709*%
%ADD41C,0.0197*%
%ADD42C,0.0079*%
%ADD43C,0.0039*%
%ADD44C,0.0098*%
%ADD45C,0.0100*%
%ADD46C,0.0060*%
%ADD47C,0.0120*%
%ADD48C,0.0030*%
%ADD49C,0.0080*%
%ADD50R,0.0300X0.0219*%
%ADD51R,0.0300X0.0252*%
%ADD52R,0.2008X0.0300*%
%ADD53R,0.0219X0.0300*%
%ADD54R,0.0252X0.0300*%
%ADD55R,0.0300X0.2008*%
%ADD56R,0.7560X0.4804*%
%ADD57C,0.1261*%
%ADD58R,0.1261X0.1261*%
%ADD59C,0.2049*%
%ADD60C,0.0946*%
%ADD61R,0.0946X0.0946*%
%ADD62C,0.0749*%
%ADD63R,0.0749X0.0749*%
%ADD64C,0.0671*%
%ADD65R,0.0671X0.0671*%
%ADD66C,0.0730*%
%ADD67O,0.0980X0.1480*%
%ADD68O,0.1480X0.0980*%
G04:AMPARAMS|DCode=69|XSize=126.1mil|YSize=126.1mil|CornerRadius=33.5mil|HoleSize=0mil|Usage=FLASHONLY|Rotation=0.000|XOffset=0mil|YOffset=0mil|HoleType=Round|Shape=RoundedRectangle|*
%AMROUNDEDRECTD69*
21,1,0.1261,0.0591,0,0,0.0*
21,1,0.0591,0.1261,0,0,0.0*
1,1,0.0671,0.0295,-0.0295*
1,1,0.0671,-0.0295,-0.0295*
1,1,0.0671,-0.0295,0.0295*
1,1,0.0671,0.0295,0.0295*
%
%ADD69ROUNDEDRECTD69*%
%ADD70C,0.1080*%
%ADD71R,0.0749X0.1064*%
%ADD72C,0.1064*%
%ADD73C,0.1241*%
%ADD74R,0.0671X0.0671*%
%ADD75R,0.0749X0.0749*%
%ADD76C,0.2442*%
%ADD77C,0.0700*%
%ADD78C,0.0671*%
%ADD79C,0.0710*%
%ADD80C,0.0580*%
%ADD81C,0.0867*%
%ADD82C,0.0050*%
%ADD83C,0.0067*%
%ADD84C,0.0040*%
D82*
X2802Y11227D02*
Y11627D01*
X3202D01*
Y11227D01*
X2802D01*
Y12881D02*
Y13281D01*
X3202D01*
Y12881D01*
X2802D01*
Y14534D02*
Y14934D01*
X3202D01*
Y14534D01*
X2802D01*
Y16188D02*
Y16588D01*
X3202D01*
Y16188D01*
X2802D01*
X4967Y11227D02*
Y11627D01*
X5367D01*
Y11227D01*
X4967D01*
Y12881D02*
Y13281D01*
X5367D01*
Y12881D01*
X4967D01*
Y14534D02*
Y14934D01*
X5367D01*
Y14534D01*
X4967D01*
Y16188D02*
Y16588D01*
X5367D01*
Y16188D01*
X4967D01*
Y17841D02*
Y18241D01*
X5367D01*
Y17841D01*
X4967D01*
X2802D02*
Y18241D01*
X3202D01*
Y17841D01*
X2802D01*
X19903Y16470D02*
X19703Y16870D01*
X20103D01*
X19903Y16470D01*
Y17808D02*
X19703Y18208D01*
X20103D01*
X19903Y17808D01*
X18367Y18478D02*
X18167Y18878D01*
X18567D01*
X18367Y18478D01*
Y15800D02*
X18167Y16200D01*
X18567D01*
X18367Y15800D01*
Y17139D02*
X18167Y17539D01*
X18567D01*
X18367Y17139D01*
X72648Y7751D02*
X72748Y7851D01*
X72848D01*
X72748Y7951D01*
X72848Y8051D01*
X72748D01*
X72648Y8151D01*
X72548Y8051D01*
X72448D01*
X72548Y7951D01*
X72448Y7851D01*
X72548D01*
X72648Y7751D01*
Y6751D02*
X72748Y6851D01*
X72848D01*
X72748Y6951D01*
X72848Y7051D01*
X72748D01*
X72648Y7151D01*
X72548Y7051D01*
X72448D01*
X72548Y6951D01*
X72448Y6851D01*
X72548D01*
X72648Y6751D01*
Y5751D02*
X72748Y5851D01*
X72848D01*
X72748Y5951D01*
X72848Y6051D01*
X72748D01*
X72648Y6151D01*
X72548Y6051D01*
X72448D01*
X72548Y5951D01*
X72448Y5851D01*
X72548D01*
X72648Y5751D01*
Y4751D02*
X72748Y4851D01*
X72848D01*
X72748Y4951D01*
X72848Y5051D01*
X72748D01*
X72648Y5151D01*
X72548Y5051D01*
X72448D01*
X72548Y4951D01*
X72448Y4851D01*
X72548D01*
X72648Y4751D01*
X37224Y17317D02*
X37324Y17417D01*
X37424D01*
X37324Y17517D01*
X37424Y17617D01*
X37324D01*
X37224Y17717D01*
X37124Y17617D01*
X37024D01*
X37124Y17517D01*
X37024Y17417D01*
X37124D01*
X37224Y17317D01*
X38224D02*
X38324Y17417D01*
X38424D01*
X38324Y17517D01*
X38424Y17617D01*
X38324D01*
X38224Y17717D01*
X38124Y17617D01*
X38024D01*
X38124Y17517D01*
X38024Y17417D01*
X38124D01*
X38224Y17317D01*
X39224D02*
X39324Y17417D01*
X39424D01*
X39324Y17517D01*
X39424Y17617D01*
X39324D01*
X39224Y17717D01*
X39124Y17617D01*
X39024D01*
X39124Y17517D01*
X39024Y17417D01*
X39124D01*
X39224Y17317D01*
X37224Y14283D02*
X37324Y14383D01*
X37424D01*
X37324Y14483D01*
X37424Y14583D01*
X37324D01*
X37224Y14683D01*
X37124Y14583D01*
X37024D01*
X37124Y14483D01*
X37024Y14383D01*
X37124D01*
X37224Y14283D01*
X38224D02*
X38324Y14383D01*
X38424D01*
X38324Y14483D01*
X38424Y14583D01*
X38324D01*
X38224Y14683D01*
X38124Y14583D01*
X38024D01*
X38124Y14483D01*
X38024Y14383D01*
X38124D01*
X38224Y14283D01*
X39224D02*
X39324Y14383D01*
X39424D01*
X39324Y14483D01*
X39424Y14583D01*
X39324D01*
X39224Y14683D01*
X39124Y14583D01*
X39024D01*
X39124Y14483D01*
X39024Y14383D01*
X39124D01*
X39224Y14283D01*
X37224Y11275D02*
X37324Y11375D01*
X37424D01*
X37324Y11475D01*
X37424Y11575D01*
X37324D01*
X37224Y11675D01*
X37124Y11575D01*
X37024D01*
X37124Y11475D01*
X37024Y11375D01*
X37124D01*
X37224Y11275D01*
X38224D02*
X38324Y11375D01*
X38424D01*
X38324Y11475D01*
X38424Y11575D01*
X38324D01*
X38224Y11675D01*
X38124Y11575D01*
X38024D01*
X38124Y11475D01*
X38024Y11375D01*
X38124D01*
X38224Y11275D01*
X39224D02*
X39324Y11375D01*
X39424D01*
X39324Y11475D01*
X39424Y11575D01*
X39324D01*
X39224Y11675D01*
X39124Y11575D01*
X39024D01*
X39124Y11475D01*
X39024Y11375D01*
X39124D01*
X39224Y11275D01*
X37224Y8241D02*
X37324Y8341D01*
X37424D01*
X37324Y8441D01*
X37424Y8541D01*
X37324D01*
X37224Y8641D01*
X37124Y8541D01*
X37024D01*
X37124Y8441D01*
X37024Y8341D01*
X37124D01*
X37224Y8241D01*
X38224D02*
X38324Y8341D01*
X38424D01*
X38324Y8441D01*
X38424Y8541D01*
X38324D01*
X38224Y8641D01*
X38124Y8541D01*
X38024D01*
X38124Y8441D01*
X38024Y8341D01*
X38124D01*
X38224Y8241D01*
X39224D02*
X39324Y8341D01*
X39424D01*
X39324Y8441D01*
X39424Y8541D01*
X39324D01*
X39224Y8641D01*
X39124Y8541D01*
X39024D01*
X39124Y8441D01*
X39024Y8341D01*
X39124D01*
X39224Y8241D01*
X54567Y3941D02*
X54667Y4141D01*
X54567Y4341D01*
X54767Y4241D01*
X54967Y4341D01*
X54867Y4141D01*
X54967Y3941D01*
X54767Y4041D01*
X54567Y3941D01*
X56567D02*
X56667Y4141D01*
X56567Y4341D01*
X56767Y4241D01*
X56967Y4341D01*
X56867Y4141D01*
X56967Y3941D01*
X56767Y4041D01*
X56567Y3941D01*
X48298Y16871D02*
X48398Y17071D01*
X48298Y17271D01*
X48498Y17171D01*
X48698Y17271D01*
X48598Y17071D01*
X48698Y16871D01*
X48498Y16971D01*
X48298Y16871D01*
Y15871D02*
X48398Y16071D01*
X48298Y16271D01*
X48498Y16171D01*
X48698Y16271D01*
X48598Y16071D01*
X48698Y15871D01*
X48498Y15971D01*
X48298Y15871D01*
X56138Y16871D02*
X56238Y17071D01*
X56138Y17271D01*
X56338Y17171D01*
X56538Y17271D01*
X56438Y17071D01*
X56538Y16871D01*
X56338Y16971D01*
X56138Y16871D01*
Y15871D02*
X56238Y16071D01*
X56138Y16271D01*
X56338Y16171D01*
X56538Y16271D01*
X56438Y16071D01*
X56538Y15871D01*
X56338Y15971D01*
X56138Y15871D01*
X50168D02*
X50268Y16071D01*
X50168Y16271D01*
X50368Y16171D01*
X50568Y16271D01*
X50468Y16071D01*
X50568Y15871D01*
X50368Y15971D01*
X50168Y15871D01*
Y16871D02*
X50268Y17071D01*
X50168Y17271D01*
X50368Y17171D01*
X50568Y17271D01*
X50468Y17071D01*
X50568Y16871D01*
X50368Y16971D01*
X50168Y16871D01*
X42371Y3305D02*
Y3205D01*
X42571D01*
Y3305D01*
X42671D01*
Y3505D01*
X42571D01*
Y3605D01*
X42371D01*
Y3505D01*
X42271D01*
Y3305D01*
X42371D01*
Y6305D02*
Y6205D01*
X42571D01*
Y6305D01*
X42671D01*
Y6505D01*
X42571D01*
Y6605D01*
X42371D01*
Y6505D01*
X42271D01*
Y6305D01*
X42371D01*
X39570Y3305D02*
Y3205D01*
X39770D01*
Y3305D01*
X39870D01*
Y3505D01*
X39770D01*
Y3605D01*
X39570D01*
Y3505D01*
X39470D01*
Y3305D01*
X39570D01*
Y6305D02*
Y6205D01*
X39770D01*
Y6305D01*
X39870D01*
Y6505D01*
X39770D01*
Y6605D01*
X39570D01*
Y6505D01*
X39470D01*
Y6305D01*
X39570D01*
X35369Y3305D02*
Y3205D01*
X35569D01*
Y3305D01*
X35669D01*
Y3505D01*
X35569D01*
Y3605D01*
X35369D01*
Y3505D01*
X35269D01*
Y3305D01*
X35369D01*
Y6305D02*
Y6205D01*
X35569D01*
Y6305D01*
X35669D01*
Y6505D01*
X35569D01*
Y6605D01*
X35369D01*
Y6505D01*
X35269D01*
Y6305D01*
X35369D01*
X26276Y7477D02*
X26376D01*
X26476Y7577D01*
X26576Y7477D01*
X26676D01*
Y7577D01*
X26576Y7677D01*
X26676Y7777D01*
Y7877D01*
X26576D01*
X26476Y7777D01*
X26376Y7877D01*
X26276D01*
Y7777D01*
X26376Y7677D01*
X26276Y7577D01*
Y7477D01*
Y13393D02*
X26376D01*
X26476Y13493D01*
X26576Y13393D01*
X26676D01*
Y13493D01*
X26576Y13593D01*
X26676Y13693D01*
Y13793D01*
X26576D01*
X26476Y13693D01*
X26376Y13793D01*
X26276D01*
Y13693D01*
X26376Y13593D01*
X26276Y13493D01*
Y13393D01*
X9101Y11522D02*
X9201D01*
X9301Y11622D01*
X9401Y11522D01*
X9501D01*
Y11622D01*
X9401Y11722D01*
X9501Y11822D01*
Y11922D01*
X9401D01*
X9301Y11822D01*
X9201Y11922D01*
X9101D01*
Y11822D01*
X9201Y11722D01*
X9101Y11622D01*
Y11522D01*
X15017D02*
X15117D01*
X15217Y11622D01*
X15317Y11522D01*
X15417D01*
Y11622D01*
X15317Y11722D01*
X15417Y11822D01*
Y11922D01*
X15317D01*
X15217Y11822D01*
X15117Y11922D01*
X15017D01*
Y11822D01*
X15117Y11722D01*
X15017Y11622D01*
Y11522D01*
X8122Y6211D02*
X8322Y6411D01*
X8522Y6211D01*
X8322Y6011D01*
X8122Y6211D01*
X15996D02*
X16196Y6411D01*
X16396Y6211D01*
X16196Y6011D01*
X15996Y6211D01*
X42068Y7831D02*
X42168Y7931D01*
X42268D01*
X42168Y8031D01*
X42268Y8131D01*
X42168D01*
X42068Y8231D01*
X41968Y8131D01*
X41868D01*
X41968Y8031D01*
X41868Y7931D01*
X41968D01*
X42068Y7831D01*
X43068D02*
X43168Y7931D01*
X43268D01*
X43168Y8031D01*
X43268Y8131D01*
X43168D01*
X43068Y8231D01*
X42968Y8131D01*
X42868D01*
X42968Y8031D01*
X42868Y7931D01*
X42968D01*
X43068Y7831D01*
X44068D02*
X44168Y7931D01*
X44268D01*
X44168Y8031D01*
X44268Y8131D01*
X44168D01*
X44068Y8231D01*
X43968Y8131D01*
X43868D01*
X43968Y8031D01*
X43868Y7931D01*
X43968D01*
X44068Y7831D01*
X45068D02*
X45168Y7931D01*
X45268D01*
X45168Y8031D01*
X45268Y8131D01*
X45168D01*
X45068Y8231D01*
X44968Y8131D01*
X44868D01*
X44968Y8031D01*
X44868Y7931D01*
X44968D01*
X45068Y7831D01*
X46068D02*
X46168Y7931D01*
X46268D01*
X46168Y8031D01*
X46268Y8131D01*
X46168D01*
X46068Y8231D01*
X45968Y8131D01*
X45868D01*
X45968Y8031D01*
X45868Y7931D01*
X45968D01*
X46068Y7831D01*
X47068D02*
X47168Y7931D01*
X47268D01*
X47168Y8031D01*
X47268Y8131D01*
X47168D01*
X47068Y8231D01*
X46968Y8131D01*
X46868D01*
X46968Y8031D01*
X46868Y7931D01*
X46968D01*
X47068Y7831D01*
X48068D02*
X48168Y7931D01*
X48268D01*
X48168Y8031D01*
X48268Y8131D01*
X48168D01*
X48068Y8231D01*
X47968Y8131D01*
X47868D01*
X47968Y8031D01*
X47868Y7931D01*
X47968D01*
X48068Y7831D01*
X49068D02*
X49168Y7931D01*
X49268D01*
X49168Y8031D01*
X49268Y8131D01*
X49168D01*
X49068Y8231D01*
X48968Y8131D01*
X48868D01*
X48968Y8031D01*
X48868Y7931D01*
X48968D01*
X49068Y7831D01*
X50068D02*
X50168Y7931D01*
X50268D01*
X50168Y8031D01*
X50268Y8131D01*
X50168D01*
X50068Y8231D01*
X49968Y8131D01*
X49868D01*
X49968Y8031D01*
X49868Y7931D01*
X49968D01*
X50068Y7831D01*
X51068D02*
X51168Y7931D01*
X51268D01*
X51168Y8031D01*
X51268Y8131D01*
X51168D01*
X51068Y8231D01*
X50968Y8131D01*
X50868D01*
X50968Y8031D01*
X50868Y7931D01*
X50968D01*
X51068Y7831D01*
X52068D02*
X52168Y7931D01*
X52268D01*
X52168Y8031D01*
X52268Y8131D01*
X52168D01*
X52068Y8231D01*
X51968Y8131D01*
X51868D01*
X51968Y8031D01*
X51868Y7931D01*
X51968D01*
X52068Y7831D01*
X53068D02*
X53168Y7931D01*
X53268D01*
X53168Y8031D01*
X53268Y8131D01*
X53168D01*
X53068Y8231D01*
X52968Y8131D01*
X52868D01*
X52968Y8031D01*
X52868Y7931D01*
X52968D01*
X53068Y7831D01*
X54068D02*
X54168Y7931D01*
X54268D01*
X54168Y8031D01*
X54268Y8131D01*
X54168D01*
X54068Y8231D01*
X53968Y8131D01*
X53868D01*
X53968Y8031D01*
X53868Y7931D01*
X53968D01*
X54068Y7831D01*
X55068D02*
X55168Y7931D01*
X55268D01*
X55168Y8031D01*
X55268Y8131D01*
X55168D01*
X55068Y8231D01*
X54968Y8131D01*
X54868D01*
X54968Y8031D01*
X54868Y7931D01*
X54968D01*
X55068Y7831D01*
X56068D02*
X56168Y7931D01*
X56268D01*
X56168Y8031D01*
X56268Y8131D01*
X56168D01*
X56068Y8231D01*
X55968Y8131D01*
X55868D01*
X55968Y8031D01*
X55868Y7931D01*
X55968D01*
X56068Y7831D01*
X57068D02*
X57168Y7931D01*
X57268D01*
X57168Y8031D01*
X57268Y8131D01*
X57168D01*
X57068Y8231D01*
X56968Y8131D01*
X56868D01*
X56968Y8031D01*
X56868Y7931D01*
X56968D01*
X57068Y7831D01*
X58068D02*
X58168Y7931D01*
X58268D01*
X58168Y8031D01*
X58268Y8131D01*
X58168D01*
X58068Y8231D01*
X57968Y8131D01*
X57868D01*
X57968Y8031D01*
X57868Y7931D01*
X57968D01*
X58068Y7831D01*
X59068D02*
X59168Y7931D01*
X59268D01*
X59168Y8031D01*
X59268Y8131D01*
X59168D01*
X59068Y8231D01*
X58968Y8131D01*
X58868D01*
X58968Y8031D01*
X58868Y7931D01*
X58968D01*
X59068Y7831D01*
X60068D02*
X60168Y7931D01*
X60268D01*
X60168Y8031D01*
X60268Y8131D01*
X60168D01*
X60068Y8231D01*
X59968Y8131D01*
X59868D01*
X59968Y8031D01*
X59868Y7931D01*
X59968D01*
X60068Y7831D01*
X61068D02*
X61168Y7931D01*
X61268D01*
X61168Y8031D01*
X61268Y8131D01*
X61168D01*
X61068Y8231D01*
X60968Y8131D01*
X60868D01*
X60968Y8031D01*
X60868Y7931D01*
X60968D01*
X61068Y7831D01*
X42068Y13831D02*
X42168Y13931D01*
X42268D01*
X42168Y14031D01*
X42268Y14131D01*
X42168D01*
X42068Y14231D01*
X41968Y14131D01*
X41868D01*
X41968Y14031D01*
X41868Y13931D01*
X41968D01*
X42068Y13831D01*
X43068D02*
X43168Y13931D01*
X43268D01*
X43168Y14031D01*
X43268Y14131D01*
X43168D01*
X43068Y14231D01*
X42968Y14131D01*
X42868D01*
X42968Y14031D01*
X42868Y13931D01*
X42968D01*
X43068Y13831D01*
X44068D02*
X44168Y13931D01*
X44268D01*
X44168Y14031D01*
X44268Y14131D01*
X44168D01*
X44068Y14231D01*
X43968Y14131D01*
X43868D01*
X43968Y14031D01*
X43868Y13931D01*
X43968D01*
X44068Y13831D01*
X45068D02*
X45168Y13931D01*
X45268D01*
X45168Y14031D01*
X45268Y14131D01*
X45168D01*
X45068Y14231D01*
X44968Y14131D01*
X44868D01*
X44968Y14031D01*
X44868Y13931D01*
X44968D01*
X45068Y13831D01*
X46068D02*
X46168Y13931D01*
X46268D01*
X46168Y14031D01*
X46268Y14131D01*
X46168D01*
X46068Y14231D01*
X45968Y14131D01*
X45868D01*
X45968Y14031D01*
X45868Y13931D01*
X45968D01*
X46068Y13831D01*
X47068D02*
X47168Y13931D01*
X47268D01*
X47168Y14031D01*
X47268Y14131D01*
X47168D01*
X47068Y14231D01*
X46968Y14131D01*
X46868D01*
X46968Y14031D01*
X46868Y13931D01*
X46968D01*
X47068Y13831D01*
X48068D02*
X48168Y13931D01*
X48268D01*
X48168Y14031D01*
X48268Y14131D01*
X48168D01*
X48068Y14231D01*
X47968Y14131D01*
X47868D01*
X47968Y14031D01*
X47868Y13931D01*
X47968D01*
X48068Y13831D01*
X49068D02*
X49168Y13931D01*
X49268D01*
X49168Y14031D01*
X49268Y14131D01*
X49168D01*
X49068Y14231D01*
X48968Y14131D01*
X48868D01*
X48968Y14031D01*
X48868Y13931D01*
X48968D01*
X49068Y13831D01*
X50068D02*
X50168Y13931D01*
X50268D01*
X50168Y14031D01*
X50268Y14131D01*
X50168D01*
X50068Y14231D01*
X49968Y14131D01*
X49868D01*
X49968Y14031D01*
X49868Y13931D01*
X49968D01*
X50068Y13831D01*
X51068D02*
X51168Y13931D01*
X51268D01*
X51168Y14031D01*
X51268Y14131D01*
X51168D01*
X51068Y14231D01*
X50968Y14131D01*
X50868D01*
X50968Y14031D01*
X50868Y13931D01*
X50968D01*
X51068Y13831D01*
X52068D02*
X52168Y13931D01*
X52268D01*
X52168Y14031D01*
X52268Y14131D01*
X52168D01*
X52068Y14231D01*
X51968Y14131D01*
X51868D01*
X51968Y14031D01*
X51868Y13931D01*
X51968D01*
X52068Y13831D01*
X53068D02*
X53168Y13931D01*
X53268D01*
X53168Y14031D01*
X53268Y14131D01*
X53168D01*
X53068Y14231D01*
X52968Y14131D01*
X52868D01*
X52968Y14031D01*
X52868Y13931D01*
X52968D01*
X53068Y13831D01*
X54068D02*
X54168Y13931D01*
X54268D01*
X54168Y14031D01*
X54268Y14131D01*
X54168D01*
X54068Y14231D01*
X53968Y14131D01*
X53868D01*
X53968Y14031D01*
X53868Y13931D01*
X53968D01*
X54068Y13831D01*
X55068D02*
X55168Y13931D01*
X55268D01*
X55168Y14031D01*
X55268Y14131D01*
X55168D01*
X55068Y14231D01*
X54968Y14131D01*
X54868D01*
X54968Y14031D01*
X54868Y13931D01*
X54968D01*
X55068Y13831D01*
X56068D02*
X56168Y13931D01*
X56268D01*
X56168Y14031D01*
X56268Y14131D01*
X56168D01*
X56068Y14231D01*
X55968Y14131D01*
X55868D01*
X55968Y14031D01*
X55868Y13931D01*
X55968D01*
X56068Y13831D01*
X57068D02*
X57168Y13931D01*
X57268D01*
X57168Y14031D01*
X57268Y14131D01*
X57168D01*
X57068Y14231D01*
X56968Y14131D01*
X56868D01*
X56968Y14031D01*
X56868Y13931D01*
X56968D01*
X57068Y13831D01*
X58068D02*
X58168Y13931D01*
X58268D01*
X58168Y14031D01*
X58268Y14131D01*
X58168D01*
X58068Y14231D01*
X57968Y14131D01*
X57868D01*
X57968Y14031D01*
X57868Y13931D01*
X57968D01*
X58068Y13831D01*
X59068D02*
X59168Y13931D01*
X59268D01*
X59168Y14031D01*
X59268Y14131D01*
X59168D01*
X59068Y14231D01*
X58968Y14131D01*
X58868D01*
X58968Y14031D01*
X58868Y13931D01*
X58968D01*
X59068Y13831D01*
X60068D02*
X60168Y13931D01*
X60268D01*
X60168Y14031D01*
X60268Y14131D01*
X60168D01*
X60068Y14231D01*
X59968Y14131D01*
X59868D01*
X59968Y14031D01*
X59868Y13931D01*
X59968D01*
X60068Y13831D01*
X61068D02*
X61168Y13931D01*
X61268D01*
X61168Y14031D01*
X61268Y14131D01*
X61168D01*
X61068Y14231D01*
X60968Y14131D01*
X60868D01*
X60968Y14031D01*
X60868Y13931D01*
X60968D01*
X61068Y13831D01*
X7584Y14738D02*
Y15138D01*
X7984D01*
Y14738D01*
X7584D01*
X7664Y14818D02*
Y15058D01*
X7904D01*
Y14818D01*
X7664D01*
X16534Y14758D02*
Y15158D01*
X16934D01*
Y14758D01*
X16534D01*
X16614Y14838D02*
Y15078D01*
X16854D01*
Y14838D01*
X16614D01*
X63988Y11215D02*
Y11115D01*
X64188D01*
Y11215D01*
X64288D01*
Y11415D01*
X64188D01*
Y11515D01*
X63988D01*
Y11415D01*
X63888D01*
Y11215D01*
X63988D01*
X66988D02*
Y11115D01*
X67188D01*
Y11215D01*
X67288D01*
Y11415D01*
X67188D01*
Y11515D01*
X66988D01*
Y11415D01*
X66888D01*
Y11215D01*
X66988D01*
X63988Y9658D02*
Y9558D01*
X64188D01*
Y9658D01*
X64288D01*
Y9858D01*
X64188D01*
Y9958D01*
X63988D01*
Y9858D01*
X63888D01*
Y9658D01*
X63988D01*
X66988D02*
Y9558D01*
X67188D01*
Y9658D01*
X67288D01*
Y9858D01*
X67188D01*
Y9958D01*
X66988D01*
Y9858D01*
X66888D01*
Y9658D01*
X66988D01*
X33969Y3305D02*
Y3205D01*
X34169D01*
Y3305D01*
X34269D01*
Y3505D01*
X34169D01*
Y3605D01*
X33969D01*
Y3505D01*
X33869D01*
Y3305D01*
X33969D01*
Y6305D02*
Y6205D01*
X34169D01*
Y6305D01*
X34269D01*
Y6505D01*
X34169D01*
Y6605D01*
X33969D01*
Y6505D01*
X33869D01*
Y6305D01*
X33969D01*
X20433Y5459D02*
X20533Y5559D01*
X20633D01*
X20533Y5659D01*
X20633Y5759D01*
X20533D01*
X20433Y5859D01*
X20333Y5759D01*
X20233D01*
X20333Y5659D01*
X20233Y5559D01*
X20333D01*
X20433Y5459D01*
Y3459D02*
X20533Y3559D01*
X20633D01*
X20533Y3659D01*
X20633Y3759D01*
X20533D01*
X20433Y3859D01*
X20333Y3759D01*
X20233D01*
X20333Y3659D01*
X20233Y3559D01*
X20333D01*
X20433Y3459D01*
X15154Y18428D02*
Y18828D01*
X15554D01*
Y18428D01*
X15154D01*
X15234Y18508D02*
Y18748D01*
X15474D01*
Y18508D01*
X15234D01*
X15154Y17428D02*
Y17828D01*
X15554D01*
Y17428D01*
X15154D01*
X15234Y17508D02*
Y17748D01*
X15474D01*
Y17508D01*
X15234D01*
X71484Y15241D02*
X71584Y15341D01*
X71684D01*
X71584Y15441D01*
X71684Y15541D01*
X71584D01*
X71484Y15641D01*
X71384Y15541D01*
X71284D01*
X71384Y15441D01*
X71284Y15341D01*
X71384D01*
X71484Y15241D01*
Y12241D02*
X71584Y12341D01*
X71684D01*
X71584Y12441D01*
X71684Y12541D01*
X71584D01*
X71484Y12641D01*
X71384Y12541D01*
X71284D01*
X71384Y12441D01*
X71284Y12341D01*
X71384D01*
X71484Y12241D01*
X72484Y11741D02*
X72584Y11841D01*
X72684D01*
X72584Y11941D01*
X72684Y12041D01*
X72584D01*
X72484Y12141D01*
X72384Y12041D01*
X72284D01*
X72384Y11941D01*
X72284Y11841D01*
X72384D01*
X72484Y11741D01*
Y14741D02*
X72584Y14841D01*
X72684D01*
X72584Y14941D01*
X72684Y15041D01*
X72584D01*
X72484Y15141D01*
X72384Y15041D01*
X72284D01*
X72384Y14941D01*
X72284Y14841D01*
X72384D01*
X72484Y14741D01*
X71484Y14241D02*
X71584Y14341D01*
X71684D01*
X71584Y14441D01*
X71684Y14541D01*
X71584D01*
X71484Y14641D01*
X71384Y14541D01*
X71284D01*
X71384Y14441D01*
X71284Y14341D01*
X71384D01*
X71484Y14241D01*
Y13241D02*
X71584Y13341D01*
X71684D01*
X71584Y13441D01*
X71684Y13541D01*
X71584D01*
X71484Y13641D01*
X71384Y13541D01*
X71284D01*
X71384Y13441D01*
X71284Y13341D01*
X71384D01*
X71484Y13241D01*
X72484Y13741D02*
X72584Y13841D01*
X72684D01*
X72584Y13941D01*
X72684Y14041D01*
X72584D01*
X72484Y14141D01*
X72384Y14041D01*
X72284D01*
X72384Y13941D01*
X72284Y13841D01*
X72384D01*
X72484Y13741D01*
Y12741D02*
X72584Y12841D01*
X72684D01*
X72584Y12941D01*
X72684Y13041D01*
X72584D01*
X72484Y13141D01*
X72384Y13041D01*
X72284D01*
X72384Y12941D01*
X72284Y12841D01*
X72384D01*
X72484Y12741D01*
X49180Y3623D02*
X49280Y3723D01*
X49380D01*
X49280Y3823D01*
X49380Y3923D01*
X49280D01*
X49180Y4023D01*
X49080Y3923D01*
X48980D01*
X49080Y3823D01*
X48980Y3723D01*
X49080D01*
X49180Y3623D01*
Y2623D02*
X49280Y2723D01*
X49380D01*
X49280Y2823D01*
X49380Y2923D01*
X49280D01*
X49180Y3023D01*
X49080Y2923D01*
X48980D01*
X49080Y2823D01*
X48980Y2723D01*
X49080D01*
X49180Y2623D01*
X47624Y3623D02*
X47724Y3723D01*
X47824D01*
X47724Y3823D01*
X47824Y3923D01*
X47724D01*
X47624Y4023D01*
X47524Y3923D01*
X47424D01*
X47524Y3823D01*
X47424Y3723D01*
X47524D01*
X47624Y3623D01*
Y2623D02*
X47724Y2723D01*
X47824D01*
X47724Y2823D01*
X47824Y2923D01*
X47724D01*
X47624Y3023D01*
X47524Y2923D01*
X47424D01*
X47524Y2823D01*
X47424Y2723D01*
X47524D01*
X47624Y2623D01*
X54567Y2221D02*
X54667Y2421D01*
X54567Y2621D01*
X54767Y2521D01*
X54967Y2621D01*
X54867Y2421D01*
X54967Y2221D01*
X54767Y2321D01*
X54567Y2221D01*
X56567D02*
X56667Y2421D01*
X56567Y2621D01*
X56767Y2521D01*
X56967Y2621D01*
X56867Y2421D01*
X56967Y2221D01*
X56767Y2321D01*
X56567Y2221D01*
X68742Y6483D02*
X68842Y6583D01*
X68942D01*
X68842Y6683D01*
X68942Y6783D01*
X68842D01*
X68742Y6883D01*
X68642Y6783D01*
X68542D01*
X68642Y6683D01*
X68542Y6583D01*
X68642D01*
X68742Y6483D01*
X67742D02*
X67842Y6583D01*
X67942D01*
X67842Y6683D01*
X67942Y6783D01*
X67842D01*
X67742Y6883D01*
X67642Y6783D01*
X67542D01*
X67642Y6683D01*
X67542Y6583D01*
X67642D01*
X67742Y6483D01*
X66742D02*
X66842Y6583D01*
X66942D01*
X66842Y6683D01*
X66942Y6783D01*
X66842D01*
X66742Y6883D01*
X66642Y6783D01*
X66542D01*
X66642Y6683D01*
X66542Y6583D01*
X66642D01*
X66742Y6483D01*
Y14564D02*
X66842Y14664D01*
X66942D01*
X66842Y14764D01*
X66942Y14864D01*
X66842D01*
X66742Y14964D01*
X66642Y14864D01*
X66542D01*
X66642Y14764D01*
X66542Y14664D01*
X66642D01*
X66742Y14564D01*
X67742D02*
X67842Y14664D01*
X67942D01*
X67842Y14764D01*
X67942Y14864D01*
X67842D01*
X67742Y14964D01*
X67642Y14864D01*
X67542D01*
X67642Y14764D01*
X67542Y14664D01*
X67642D01*
X67742Y14564D01*
X68742D02*
X68842Y14664D01*
X68942D01*
X68842Y14764D01*
X68942Y14864D01*
X68842D01*
X68742Y14964D01*
X68642Y14864D01*
X68542D01*
X68642Y14764D01*
X68542Y14664D01*
X68642D01*
X68742Y14564D01*
X18472Y11704D02*
X18572Y11804D01*
X18672D01*
X18572Y11904D01*
X18672Y12004D01*
X18572D01*
X18472Y12104D01*
X18372Y12004D01*
X18272D01*
X18372Y11904D01*
X18272Y11804D01*
X18372D01*
X18472Y11704D01*
Y10704D02*
X18572Y10804D01*
X18672D01*
X18572Y10904D01*
X18672Y11004D01*
X18572D01*
X18472Y11104D01*
X18372Y11004D01*
X18272D01*
X18372Y10904D01*
X18272Y10804D01*
X18372D01*
X18472Y10704D01*
Y9704D02*
X18572Y9804D01*
X18672D01*
X18572Y9904D01*
X18672Y10004D01*
X18572D01*
X18472Y10104D01*
X18372Y10004D01*
X18272D01*
X18372Y9904D01*
X18272Y9804D01*
X18372D01*
X18472Y9704D01*
X59443Y2221D02*
X59543Y2421D01*
X59443Y2621D01*
X59643Y2521D01*
X59843Y2621D01*
X59743Y2421D01*
X59843Y2221D01*
X59643Y2321D01*
X59443Y2221D01*
X61443D02*
X61543Y2421D01*
X61443Y2621D01*
X61643Y2521D01*
X61843Y2621D01*
X61743Y2421D01*
X61843Y2221D01*
X61643Y2321D01*
X61443Y2221D01*
Y3996D02*
X61543Y4196D01*
X61443Y4396D01*
X61643Y4296D01*
X61843Y4396D01*
X61743Y4196D01*
X61843Y3996D01*
X61643Y4096D01*
X61443Y3996D01*
X59443D02*
X59543Y4196D01*
X59443Y4396D01*
X59643Y4296D01*
X59843Y4396D01*
X59743Y4196D01*
X59843Y3996D01*
X59643Y4096D01*
X59443Y3996D01*
X63118Y16991D02*
X63218Y17191D01*
X63118Y17391D01*
X63318Y17291D01*
X63518Y17391D01*
X63418Y17191D01*
X63518Y16991D01*
X63318Y17091D01*
X63118Y16991D01*
Y14991D02*
X63218Y15191D01*
X63118Y15391D01*
X63318Y15291D01*
X63518Y15391D01*
X63418Y15191D01*
X63518Y14991D01*
X63318Y15091D01*
X63118Y14991D01*
X30244Y11341D02*
X30344Y11541D01*
X30244Y11741D01*
X30444Y11641D01*
X30644Y11741D01*
X30544Y11541D01*
X30644Y11341D01*
X30444Y11441D01*
X30244Y11341D01*
Y9341D02*
X30344Y9541D01*
X30244Y9741D01*
X30444Y9641D01*
X30644Y9741D01*
X30544Y9541D01*
X30644Y9341D01*
X30444Y9441D01*
X30244Y9341D01*
X61443Y5771D02*
X61543Y5971D01*
X61443Y6171D01*
X61643Y6071D01*
X61843Y6171D01*
X61743Y5971D01*
X61843Y5771D01*
X61643Y5871D01*
X61443Y5771D01*
X59443D02*
X59543Y5971D01*
X59443Y6171D01*
X59643Y6071D01*
X59843Y6171D01*
X59743Y5971D01*
X59843Y5771D01*
X59643Y5871D01*
X59443Y5771D01*
X30244Y16584D02*
X30344Y16784D01*
X30244Y16984D01*
X30444Y16884D01*
X30644Y16984D01*
X30544Y16784D01*
X30644Y16584D01*
X30444Y16684D01*
X30244Y16584D01*
Y14584D02*
X30344Y14784D01*
X30244Y14984D01*
X30444Y14884D01*
X30644Y14984D01*
X30544Y14784D01*
X30644Y14584D01*
X30444Y14684D01*
X30244Y14584D01*
X66988Y12771D02*
Y12671D01*
X67188D01*
Y12771D01*
X67288D01*
Y12971D01*
X67188D01*
Y13071D01*
X66988D01*
Y12971D01*
X66888D01*
Y12771D01*
X66988D01*
X63988D02*
Y12671D01*
X64188D01*
Y12771D01*
X64288D01*
Y12971D01*
X64188D01*
Y13071D01*
X63988D01*
Y12971D01*
X63888D01*
Y12771D01*
X63988D01*
Y8101D02*
Y8001D01*
X64188D01*
Y8101D01*
X64288D01*
Y8301D01*
X64188D01*
Y8401D01*
X63988D01*
Y8301D01*
X63888D01*
Y8101D01*
X63988D01*
X66988D02*
Y8001D01*
X67188D01*
Y8101D01*
X67288D01*
Y8301D01*
X67188D01*
Y8401D01*
X66988D01*
Y8301D01*
X66888D01*
Y8101D01*
X66988D01*
X7887Y19415D02*
X7687Y19815D01*
X8087D01*
X7887Y19415D01*
Y19495D02*
X7767Y19735D01*
X8007D01*
X7887Y19495D01*
X7977Y1621D02*
X7777Y2021D01*
X8177D01*
X7977Y1621D01*
Y1701D02*
X7857Y1941D01*
X8097D01*
X7977Y1701D01*
X73622Y1680D02*
X73422Y2080D01*
X73822D01*
X73622Y1680D01*
Y1760D02*
X73502Y2000D01*
X73742D01*
X73622Y1760D01*
Y19396D02*
X73422Y19796D01*
X73822D01*
X73622Y19396D01*
Y19476D02*
X73502Y19716D01*
X73742D01*
X73622Y19476D01*
X45172Y6305D02*
Y6205D01*
X45372D01*
Y6305D01*
X45472D01*
Y6505D01*
X45372D01*
Y6605D01*
X45172D01*
Y6505D01*
X45072D01*
Y6305D01*
X45172D01*
Y3305D02*
Y3205D01*
X45372D01*
Y3305D01*
X45472D01*
Y3505D01*
X45372D01*
Y3605D01*
X45172D01*
Y3505D01*
X45072D01*
Y3305D01*
X45172D01*
X52088Y16371D02*
Y16771D01*
X52488D01*
Y16371D01*
X52088D01*
X52168Y16451D02*
Y16691D01*
X52408D01*
Y16451D01*
X52168D01*
X54088Y16371D02*
Y16771D01*
X54488D01*
Y16371D01*
X54088D01*
X54168Y16451D02*
Y16691D01*
X54408D01*
Y16451D01*
X54168D01*
X33848Y11364D02*
X33948Y11564D01*
X33848Y11764D01*
X34048Y11664D01*
X34248Y11764D01*
X34148Y11564D01*
X34248Y11364D01*
X34048Y11464D01*
X33848Y11364D01*
Y9364D02*
X33948Y9564D01*
X33848Y9764D01*
X34048Y9664D01*
X34248Y9764D01*
X34148Y9564D01*
X34248Y9364D01*
X34048Y9464D01*
X33848Y9364D01*
Y16624D02*
X33948Y16824D01*
X33848Y17024D01*
X34048Y16924D01*
X34248Y17024D01*
X34148Y16824D01*
X34248Y16624D01*
X34048Y16724D01*
X33848Y16624D01*
Y14624D02*
X33948Y14824D01*
X33848Y15024D01*
X34048Y14924D01*
X34248Y15024D01*
X34148Y14824D01*
X34248Y14624D01*
X34048Y14724D01*
X33848Y14624D01*
X58088Y18531D02*
X58188Y18631D01*
X58288D01*
X58188Y18731D01*
X58288Y18831D01*
X58188D01*
X58088Y18931D01*
X57988Y18831D01*
X57888D01*
X57988Y18731D01*
X57888Y18631D01*
X57988D01*
X58088Y18531D01*
Y17531D02*
X58188Y17631D01*
X58288D01*
X58188Y17731D01*
X58288Y17831D01*
X58188D01*
X58088Y17931D01*
X57988Y17831D01*
X57888D01*
X57988Y17731D01*
X57888Y17631D01*
X57988D01*
X58088Y17531D01*
Y16531D02*
X58188Y16631D01*
X58288D01*
X58188Y16731D01*
X58288Y16831D01*
X58188D01*
X58088Y16931D01*
X57988Y16831D01*
X57888D01*
X57988Y16731D01*
X57888Y16631D01*
X57988D01*
X58088Y16531D01*
Y15531D02*
X58188Y15631D01*
X58288D01*
X58188Y15731D01*
X58288Y15831D01*
X58188D01*
X58088Y15931D01*
X57988Y15831D01*
X57888D01*
X57988Y15731D01*
X57888Y15631D01*
X57988D01*
X58088Y15531D01*
X61088Y18531D02*
X61188Y18631D01*
X61288D01*
X61188Y18731D01*
X61288Y18831D01*
X61188D01*
X61088Y18931D01*
X60988Y18831D01*
X60888D01*
X60988Y18731D01*
X60888Y18631D01*
X60988D01*
X61088Y18531D01*
Y17531D02*
X61188Y17631D01*
X61288D01*
X61188Y17731D01*
X61288Y17831D01*
X61188D01*
X61088Y17931D01*
X60988Y17831D01*
X60888D01*
X60988Y17731D01*
X60888Y17631D01*
X60988D01*
X61088Y17531D01*
Y16531D02*
X61188Y16631D01*
X61288D01*
X61188Y16731D01*
X61288Y16831D01*
X61188D01*
X61088Y16931D01*
X60988Y16831D01*
X60888D01*
X60988Y16731D01*
X60888Y16631D01*
X60988D01*
X61088Y16531D01*
Y15531D02*
X61188Y15631D01*
X61288D01*
X61188Y15731D01*
X61288Y15831D01*
X61188D01*
X61088Y15931D01*
X60988Y15831D01*
X60888D01*
X60988Y15731D01*
X60888Y15631D01*
X60988D01*
X61088Y15531D01*
X46248Y16371D02*
Y16771D01*
X46648D01*
Y16371D01*
X46248D01*
X46328Y16451D02*
Y16691D01*
X46568D01*
Y16451D01*
X46328D01*
X44248Y16371D02*
Y16771D01*
X44648D01*
Y16371D01*
X44248D01*
X44328Y16451D02*
Y16691D01*
X44568D01*
Y16451D01*
X44328D01*
X42308Y16871D02*
X42408Y17071D01*
X42308Y17271D01*
X42508Y17171D01*
X42708Y17271D01*
X42608Y17071D01*
X42708Y16871D01*
X42508Y16971D01*
X42308Y16871D01*
Y15871D02*
X42408Y16071D01*
X42308Y16271D01*
X42508Y16171D01*
X42708Y16271D01*
X42608Y16071D01*
X42708Y15871D01*
X42508Y15971D01*
X42308Y15871D01*
X50737Y3623D02*
X50837Y3723D01*
X50937D01*
X50837Y3823D01*
X50937Y3923D01*
X50837D01*
X50737Y4023D01*
X50637Y3923D01*
X50537D01*
X50637Y3823D01*
X50537Y3723D01*
X50637D01*
X50737Y3623D01*
Y2623D02*
X50837Y2723D01*
X50937D01*
X50837Y2823D01*
X50937Y2923D01*
X50837D01*
X50737Y3023D01*
X50637Y2923D01*
X50537D01*
X50637Y2823D01*
X50537Y2723D01*
X50637D01*
X50737Y2623D01*
X52294Y3623D02*
X52394Y3723D01*
X52494D01*
X52394Y3823D01*
X52494Y3923D01*
X52394D01*
X52294Y4023D01*
X52194Y3923D01*
X52094D01*
X52194Y3823D01*
X52094Y3723D01*
X52194D01*
X52294Y3623D01*
Y2623D02*
X52394Y2723D01*
X52494D01*
X52394Y2823D01*
X52494Y2923D01*
X52394D01*
X52294Y3023D01*
X52194Y2923D01*
X52094D01*
X52194Y2823D01*
X52094Y2723D01*
X52194D01*
X52294Y2623D01*
X31168Y6305D02*
Y6205D01*
X31368D01*
Y6305D01*
X31468D01*
Y6505D01*
X31368D01*
Y6605D01*
X31168D01*
Y6505D01*
X31068D01*
Y6305D01*
X31168D01*
Y3305D02*
Y3205D01*
X31368D01*
Y3305D01*
X31468D01*
Y3505D01*
X31368D01*
Y3605D01*
X31168D01*
Y3505D01*
X31068D01*
Y3305D01*
X31168D01*
X32568Y6305D02*
Y6205D01*
X32768D01*
Y6305D01*
X32868D01*
Y6505D01*
X32768D01*
Y6605D01*
X32568D01*
Y6505D01*
X32468D01*
Y6305D01*
X32568D01*
Y3305D02*
Y3205D01*
X32768D01*
Y3305D01*
X32868D01*
Y3505D01*
X32768D01*
Y3605D01*
X32568D01*
Y3505D01*
X32468D01*
Y3305D01*
X32568D01*
X36769D02*
Y3205D01*
X36969D01*
Y3305D01*
X37069D01*
Y3505D01*
X36969D01*
Y3605D01*
X36769D01*
Y3505D01*
X36669D01*
Y3305D01*
X36769D01*
Y6305D02*
Y6205D01*
X36969D01*
Y6305D01*
X37069D01*
Y6505D01*
X36969D01*
Y6605D01*
X36769D01*
Y6505D01*
X36669D01*
Y6305D01*
X36769D01*
X38170Y3305D02*
Y3205D01*
X38370D01*
Y3305D01*
X38470D01*
Y3505D01*
X38370D01*
Y3605D01*
X38170D01*
Y3505D01*
X38070D01*
Y3305D01*
X38170D01*
Y6305D02*
Y6205D01*
X38370D01*
Y6305D01*
X38470D01*
Y6505D01*
X38370D01*
Y6605D01*
X38170D01*
Y6505D01*
X38070D01*
Y6305D01*
X38170D01*
X40971D02*
Y6205D01*
X41171D01*
Y6305D01*
X41271D01*
Y6505D01*
X41171D01*
Y6605D01*
X40971D01*
Y6505D01*
X40871D01*
Y6305D01*
X40971D01*
Y3305D02*
Y3205D01*
X41171D01*
Y3305D01*
X41271D01*
Y3505D01*
X41171D01*
Y3605D01*
X40971D01*
Y3505D01*
X40871D01*
Y3305D01*
X40971D01*
X43772Y6305D02*
Y6205D01*
X43972D01*
Y6305D01*
X44072D01*
Y6505D01*
X43972D01*
Y6605D01*
X43772D01*
Y6505D01*
X43672D01*
Y6305D01*
X43772D01*
Y3305D02*
Y3205D01*
X43972D01*
Y3305D01*
X44072D01*
Y3505D01*
X43972D01*
Y3605D01*
X43772D01*
Y3505D01*
X43672D01*
Y3305D01*
X43772D01*
X5937Y4211D02*
X6037Y4311D01*
X6137D01*
X6037Y4411D01*
X6137Y4511D01*
X6037D01*
X5937Y4611D01*
X5837Y4511D01*
X5737D01*
X5837Y4411D01*
X5737Y4311D01*
X5837D01*
X5937Y4211D01*
Y7211D02*
X6037Y7311D01*
X6137D01*
X6037Y7411D01*
X6137Y7511D01*
X6037D01*
X5937Y7611D01*
X5837Y7511D01*
X5737D01*
X5837Y7411D01*
X5737Y7311D01*
X5837D01*
X5937Y7211D01*
X4937Y7711D02*
X5037Y7811D01*
X5137D01*
X5037Y7911D01*
X5137Y8011D01*
X5037D01*
X4937Y8111D01*
X4837Y8011D01*
X4737D01*
X4837Y7911D01*
X4737Y7811D01*
X4837D01*
X4937Y7711D01*
Y4711D02*
X5037Y4811D01*
X5137D01*
X5037Y4911D01*
X5137Y5011D01*
X5037D01*
X4937Y5111D01*
X4837Y5011D01*
X4737D01*
X4837Y4911D01*
X4737Y4811D01*
X4837D01*
X4937Y4711D01*
X5937Y5211D02*
X6037Y5311D01*
X6137D01*
X6037Y5411D01*
X6137Y5511D01*
X6037D01*
X5937Y5611D01*
X5837Y5511D01*
X5737D01*
X5837Y5411D01*
X5737Y5311D01*
X5837D01*
X5937Y5211D01*
Y6211D02*
X6037Y6311D01*
X6137D01*
X6037Y6411D01*
X6137Y6511D01*
X6037D01*
X5937Y6611D01*
X5837Y6511D01*
X5737D01*
X5837Y6411D01*
X5737Y6311D01*
X5837D01*
X5937Y6211D01*
X4937Y5711D02*
X5037Y5811D01*
X5137D01*
X5037Y5911D01*
X5137Y6011D01*
X5037D01*
X4937Y6111D01*
X4837Y6011D01*
X4737D01*
X4837Y5911D01*
X4737Y5811D01*
X4837D01*
X4937Y5711D01*
Y6711D02*
X5037Y6811D01*
X5137D01*
X5037Y6911D01*
X5137Y7011D01*
X5037D01*
X4937Y7111D01*
X4837Y7011D01*
X4737D01*
X4837Y6911D01*
X4737Y6811D01*
X4837D01*
X4937Y6711D01*
X68711Y16207D02*
X68811Y16307D01*
X68911D01*
X68811Y16407D01*
X68911Y16507D01*
X68811D01*
X68711Y16607D01*
X68611Y16507D01*
X68511D01*
X68611Y16407D01*
X68511Y16307D01*
X68611D01*
X68711Y16207D01*
Y16287D02*
X68771Y16347D01*
X68831D01*
X68771Y16407D01*
X68831Y16467D01*
X68771D01*
X68711Y16527D01*
X68651Y16467D01*
X68591D01*
X68651Y16407D01*
X68591Y16347D01*
X68651D01*
X68711Y16287D01*
X66742Y16207D02*
X66842Y16307D01*
X66942D01*
X66842Y16407D01*
X66942Y16507D01*
X66842D01*
X66742Y16607D01*
X66642Y16507D01*
X66542D01*
X66642Y16407D01*
X66542Y16307D01*
X66642D01*
X66742Y16207D01*
Y16287D02*
X66802Y16347D01*
X66862D01*
X66802Y16407D01*
X66862Y16467D01*
X66802D01*
X66742Y16527D01*
X66682Y16467D01*
X66622D01*
X66682Y16407D01*
X66622Y16347D01*
X66682D01*
X66742Y16287D01*
X69360Y8944D02*
X69460Y9044D01*
X69560D01*
X69460Y9144D01*
X69560Y9244D01*
X69460D01*
X69360Y9344D01*
X69260Y9244D01*
X69160D01*
X69260Y9144D01*
X69160Y9044D01*
X69260D01*
X69360Y8944D01*
Y9024D02*
X69420Y9084D01*
X69480D01*
X69420Y9144D01*
X69480Y9204D01*
X69420D01*
X69360Y9264D01*
X69300Y9204D01*
X69240D01*
X69300Y9144D01*
X69240Y9084D01*
X69300D01*
X69360Y9024D01*
X67913Y8934D02*
X68013Y9034D01*
X68113D01*
X68013Y9134D01*
X68113Y9234D01*
X68013D01*
X67913Y9334D01*
X67813Y9234D01*
X67713D01*
X67813Y9134D01*
X67713Y9034D01*
X67813D01*
X67913Y8934D01*
Y9014D02*
X67973Y9074D01*
X68033D01*
X67973Y9134D01*
X68033Y9194D01*
X67973D01*
X67913Y9254D01*
X67853Y9194D01*
X67793D01*
X67853Y9134D01*
X67793Y9074D01*
X67853D01*
X67913Y9014D01*
X66730Y3422D02*
X66830Y3522D01*
X66930D01*
X66830Y3622D01*
X66930Y3722D01*
X66830D01*
X66730Y3822D01*
X66630Y3722D01*
X66530D01*
X66630Y3622D01*
X66530Y3522D01*
X66630D01*
X66730Y3422D01*
Y3502D02*
X66790Y3562D01*
X66850D01*
X66790Y3622D01*
X66850Y3682D01*
X66790D01*
X66730Y3742D01*
X66670Y3682D01*
X66610D01*
X66670Y3622D01*
X66610Y3562D01*
X66670D01*
X66730Y3502D01*
X59557Y11857D02*
X59657Y11957D01*
X59757D01*
X59657Y12057D01*
X59757Y12157D01*
X59657D01*
X59557Y12257D01*
X59457Y12157D01*
X59357D01*
X59457Y12057D01*
X59357Y11957D01*
X59457D01*
X59557Y11857D01*
Y11937D02*
X59617Y11997D01*
X59677D01*
X59617Y12057D01*
X59677Y12117D01*
X59617D01*
X59557Y12177D01*
X59497Y12117D01*
X59437D01*
X59497Y12057D01*
X59437Y11997D01*
X59497D01*
X59557Y11937D01*
X67526Y4308D02*
X67626Y4508D01*
X67526Y4708D01*
X67726Y4608D01*
X67926Y4708D01*
X67826Y4508D01*
X67926Y4308D01*
X67726Y4408D01*
X67526Y4308D01*
X56654Y14424D02*
X56754Y14524D01*
X56854D01*
X56754Y14624D01*
X56854Y14724D01*
X56754D01*
X56654Y14824D01*
X56554Y14724D01*
X56454D01*
X56554Y14624D01*
X56454Y14524D01*
X56554D01*
X56654Y14424D01*
Y14504D02*
X56714Y14564D01*
X56774D01*
X56714Y14624D01*
X56774Y14684D01*
X56714D01*
X56654Y14744D01*
X56594Y14684D01*
X56534D01*
X56594Y14624D01*
X56534Y14564D01*
X56594D01*
X56654Y14504D01*
X63576Y15996D02*
X63676Y16096D01*
X63776D01*
X63676Y16196D01*
X63776Y16296D01*
X63676D01*
X63576Y16396D01*
X63476Y16296D01*
X63376D01*
X63476Y16196D01*
X63376Y16096D01*
X63476D01*
X63576Y15996D01*
Y16076D02*
X63636Y16136D01*
X63696D01*
X63636Y16196D01*
X63696Y16256D01*
X63636D01*
X63576Y16316D01*
X63516Y16256D01*
X63456D01*
X63516Y16196D01*
X63456Y16136D01*
X63516D01*
X63576Y16076D01*
D83*
X27070Y17333D02*
G03*
X27070Y17333I-200J0D01*
G01*
X75184Y11441D02*
G03*
X75184Y11441I-200J0D01*
G01*
Y15941D02*
G03*
X75184Y15941I-200J0D01*
G01*
X2637Y8411D02*
G03*
X2637Y8411I-200J0D01*
G01*
Y3911D02*
G03*
X2637Y3911I-200J0D01*
G01*
D84*
X75104Y11441D02*
G03*
X75104Y11441I-120J0D01*
G01*
Y15941D02*
G03*
X75104Y15941I-120J0D01*
G01*
X2557Y8411D02*
G03*
X2557Y8411I-120J0D01*
G01*
Y3911D02*
G03*
X2557Y3911I-120J0D01*
G01*
M02*
