%FSLAX24Y24*%
%MOIN*%
G70*
G01*
G75*
G04 Layer_Color=61183*
%ADD10C,0.0472*%
%ADD11C,0.0315*%
%ADD12C,0.0591*%
%ADD13R,0.7480X0.4724*%
%ADD14C,0.1181*%
%ADD15R,0.1181X0.1181*%
%ADD16C,0.1969*%
%ADD17C,0.0866*%
%ADD18R,0.0866X0.0866*%
%ADD19C,0.0669*%
%ADD20R,0.0669X0.0669*%
%ADD21C,0.0591*%
%ADD22R,0.0591X0.0591*%
%ADD23C,0.0650*%
%ADD24O,0.0900X0.1400*%
%ADD25O,0.1400X0.0900*%
G04:AMPARAMS|DCode=26|XSize=118.1mil|YSize=118.1mil|CornerRadius=29.5mil|HoleSize=0mil|Usage=FLASHONLY|Rotation=0.000|XOffset=0mil|YOffset=0mil|HoleType=Round|Shape=RoundedRectangle|*
%AMROUNDEDRECTD26*
21,1,0.1181,0.0591,0,0,0.0*
21,1,0.0591,0.1181,0,0,0.0*
1,1,0.0591,0.0295,-0.0295*
1,1,0.0591,-0.0295,-0.0295*
1,1,0.0591,-0.0295,0.0295*
1,1,0.0591,0.0295,0.0295*
%
%ADD26ROUNDEDRECTD26*%
%ADD27C,0.1000*%
%ADD28R,0.0669X0.0984*%
%ADD29C,0.0984*%
%ADD30C,0.1161*%
%ADD31R,0.0591X0.0591*%
%ADD32R,0.0669X0.0669*%
%ADD33C,0.2362*%
%ADD34C,0.0620*%
%ADD35C,0.0591*%
%ADD36C,0.0630*%
%ADD37C,0.0500*%
%ADD38C,0.0787*%
%ADD39C,0.0236*%
%ADD40C,0.0709*%
%ADD41C,0.0197*%
%ADD42C,0.0079*%
%ADD43C,0.0039*%
%ADD44C,0.0098*%
%ADD45C,0.0100*%
%ADD46C,0.0060*%
%ADD47C,0.0120*%
%ADD48C,0.0030*%
%ADD49C,0.0080*%
%ADD50R,0.0300X0.0219*%
%ADD51R,0.0300X0.0252*%
%ADD52R,0.2008X0.0300*%
%ADD53R,0.0219X0.0300*%
%ADD54R,0.0252X0.0300*%
%ADD55R,0.0300X0.2008*%
G36*
X3364Y1781D02*
X3219D01*
Y1927D01*
X3364D01*
Y1781D01*
D02*
G37*
G36*
X2694Y2552D02*
X2706D01*
X2719Y2551D01*
X2734Y2548D01*
X2751Y2547D01*
X2768Y2544D01*
X2787Y2540D01*
X2826Y2531D01*
X2865Y2519D01*
X2885Y2511D01*
X2904Y2502D01*
X2905D01*
X2909Y2500D01*
X2913Y2496D01*
X2921Y2493D01*
X2930Y2487D01*
X2939Y2481D01*
X2962Y2465D01*
X2986Y2444D01*
X3013Y2420D01*
X3037Y2391D01*
X3059Y2358D01*
X3060Y2357D01*
X3061Y2353D01*
X3063Y2349D01*
X3067Y2342D01*
X3071Y2333D01*
X3076Y2322D01*
X3081Y2311D01*
X3086Y2298D01*
X3091Y2283D01*
X3096Y2267D01*
X3105Y2232D01*
X3111Y2194D01*
X3113Y2175D01*
Y2154D01*
Y2153D01*
Y2148D01*
Y2141D01*
X3112Y2132D01*
X3111Y2120D01*
X3108Y2107D01*
X3106Y2092D01*
X3102Y2074D01*
X3098Y2056D01*
X3093Y2037D01*
X3086Y2018D01*
X3078Y1997D01*
X3069Y1976D01*
X3058Y1956D01*
X3046Y1936D01*
X3031Y1915D01*
X3030Y1914D01*
X3026Y1909D01*
X3021Y1903D01*
X3013Y1894D01*
X3002Y1884D01*
X2991Y1873D01*
X2977Y1861D01*
X2961Y1848D01*
X2942Y1836D01*
X2923Y1824D01*
X2902Y1813D01*
X2879Y1802D01*
X2853Y1794D01*
X2827Y1787D01*
X2799Y1783D01*
X2770Y1781D01*
X2763D01*
X2755Y1783D01*
X2746Y1784D01*
X2725Y1788D01*
X2715Y1792D01*
X2706Y1796D01*
X2705Y1798D01*
X2702Y1799D01*
X2699Y1802D01*
X2694Y1808D01*
X2690Y1814D01*
X2684Y1822D01*
X2680Y1830D01*
X2677Y1840D01*
X2676Y1839D01*
X2675Y1838D01*
X2671Y1835D01*
X2667Y1831D01*
X2661Y1826D01*
X2654Y1822D01*
X2637Y1811D01*
X2616Y1800D01*
X2592Y1791D01*
X2565Y1784D01*
X2551Y1783D01*
X2536Y1781D01*
X2528D01*
X2523Y1783D01*
X2514Y1784D01*
X2506Y1785D01*
X2487Y1788D01*
X2464Y1795D01*
X2441Y1807D01*
X2429Y1813D01*
X2416Y1821D01*
X2405Y1830D01*
X2395Y1840D01*
X2393Y1841D01*
X2392Y1843D01*
X2390Y1846D01*
X2385Y1851D01*
X2382Y1856D01*
X2377Y1865D01*
X2371Y1873D01*
X2367Y1882D01*
X2356Y1905D01*
X2347Y1931D01*
X2340Y1963D01*
X2339Y1979D01*
X2338Y1997D01*
Y1998D01*
Y2003D01*
Y2009D01*
X2339Y2018D01*
X2340Y2028D01*
X2341Y2041D01*
X2344Y2055D01*
X2346Y2070D01*
X2351Y2087D01*
X2354Y2104D01*
X2360Y2123D01*
X2367Y2141D01*
X2375Y2161D01*
X2384Y2180D01*
X2395Y2200D01*
X2406Y2218D01*
X2407Y2220D01*
X2410Y2224D01*
X2414Y2230D01*
X2421Y2238D01*
X2429Y2247D01*
X2438Y2258D01*
X2450Y2268D01*
X2464Y2280D01*
X2478Y2291D01*
X2494Y2301D01*
X2511Y2312D01*
X2529Y2321D01*
X2550Y2329D01*
X2571Y2335D01*
X2594Y2340D01*
X2617Y2341D01*
X2626D01*
X2632Y2340D01*
X2640Y2338D01*
X2648Y2337D01*
X2669Y2331D01*
X2691Y2323D01*
X2702Y2318D01*
X2714Y2311D01*
X2724Y2303D01*
X2735Y2292D01*
X2744Y2282D01*
X2753Y2269D01*
X2766Y2328D01*
X2902D01*
X2825Y1957D01*
Y1956D01*
X2823Y1951D01*
X2822Y1945D01*
X2821Y1938D01*
X2819Y1923D01*
X2818Y1916D01*
Y1912D01*
Y1909D01*
X2819Y1905D01*
X2820Y1898D01*
X2823Y1892D01*
X2825Y1891D01*
X2827Y1890D01*
X2832Y1888D01*
X2837Y1886D01*
X2842D01*
X2847Y1888D01*
X2855Y1890D01*
X2864Y1893D01*
X2874Y1899D01*
X2887Y1906D01*
X2901Y1916D01*
X2902D01*
X2903Y1919D01*
X2910Y1923D01*
X2919Y1933D01*
X2932Y1944D01*
X2945Y1959D01*
X2959Y1978D01*
X2973Y1998D01*
X2986Y2021D01*
Y2022D01*
X2987Y2025D01*
X2989Y2028D01*
X2992Y2033D01*
X2994Y2039D01*
X2996Y2047D01*
X3003Y2064D01*
X3009Y2085D01*
X3015Y2108D01*
X3018Y2132D01*
X3019Y2159D01*
Y2160D01*
Y2164D01*
Y2171D01*
X3018Y2180D01*
X3017Y2191D01*
X3015Y2203D01*
X3011Y2217D01*
X3008Y2233D01*
X3003Y2250D01*
X2998Y2267D01*
X2989Y2284D01*
X2980Y2303D01*
X2970Y2320D01*
X2957Y2338D01*
X2943Y2356D01*
X2927Y2372D01*
X2926Y2373D01*
X2923Y2375D01*
X2918Y2380D01*
X2910Y2386D01*
X2901Y2391D01*
X2889Y2400D01*
X2876Y2408D01*
X2860Y2416D01*
X2843Y2424D01*
X2823Y2431D01*
X2803Y2439D01*
X2780Y2444D01*
X2755Y2450D01*
X2729Y2455D01*
X2700Y2457D01*
X2670Y2458D01*
X2656D01*
X2647Y2457D01*
X2634D01*
X2621Y2455D01*
X2606Y2454D01*
X2588Y2451D01*
X2551Y2444D01*
X2511Y2434D01*
X2491Y2427D01*
X2471Y2420D01*
X2451Y2411D01*
X2433Y2401D01*
X2431Y2400D01*
X2428Y2398D01*
X2423Y2395D01*
X2416Y2390D01*
X2408Y2385D01*
X2399Y2376D01*
X2389Y2368D01*
X2378Y2359D01*
X2367Y2348D01*
X2354Y2336D01*
X2343Y2322D01*
X2330Y2308D01*
X2307Y2276D01*
X2286Y2239D01*
Y2238D01*
X2284Y2235D01*
X2282Y2229D01*
X2278Y2221D01*
X2275Y2212D01*
X2271Y2200D01*
X2267Y2187D01*
X2262Y2174D01*
X2257Y2157D01*
X2253Y2141D01*
X2246Y2104D01*
X2240Y2065D01*
X2238Y2024D01*
Y2022D01*
Y2019D01*
Y2013D01*
X2239Y2005D01*
Y1996D01*
X2241Y1984D01*
X2242Y1972D01*
X2245Y1958D01*
X2252Y1927D01*
X2261Y1893D01*
X2275Y1860D01*
X2283Y1843D01*
X2292Y1825D01*
X2293Y1824D01*
X2294Y1822D01*
X2298Y1817D01*
X2302Y1810D01*
X2308Y1803D01*
X2315Y1795D01*
X2323Y1786D01*
X2332Y1776D01*
X2343Y1765D01*
X2354Y1755D01*
X2381Y1733D01*
X2412Y1712D01*
X2446Y1695D01*
X2448D01*
X2451Y1693D01*
X2457Y1692D01*
X2464Y1688D01*
X2473Y1686D01*
X2484Y1682D01*
X2497Y1678D01*
X2512Y1674D01*
X2528Y1671D01*
X2546Y1666D01*
X2564Y1663D01*
X2584Y1660D01*
X2627Y1656D01*
X2674Y1654D01*
X2685D01*
X2694Y1655D01*
X2705D01*
X2717Y1656D01*
X2731Y1657D01*
X2746Y1658D01*
X2780Y1662D01*
X2815Y1669D01*
X2851Y1677D01*
X2886Y1688D01*
X2887D01*
X2889Y1689D01*
X2894Y1692D01*
X2901Y1695D01*
X2908Y1698D01*
X2917Y1703D01*
X2938Y1715D01*
X2959Y1728D01*
X2984Y1747D01*
X3008Y1768D01*
X3030Y1792D01*
X3141D01*
Y1791D01*
X3138Y1787D01*
X3135Y1781D01*
X3131Y1775D01*
X3126Y1765D01*
X3119Y1756D01*
X3111Y1745D01*
X3101Y1732D01*
X3091Y1719D01*
X3079Y1705D01*
X3066Y1693D01*
X3052Y1679D01*
X3036Y1665D01*
X3019Y1652D01*
X3001Y1640D01*
X2981Y1628D01*
X2980Y1627D01*
X2976Y1625D01*
X2969Y1621D01*
X2959Y1618D01*
X2948Y1612D01*
X2933Y1606D01*
X2917Y1600D01*
X2898Y1594D01*
X2878Y1587D01*
X2855Y1581D01*
X2830Y1575D01*
X2804Y1569D01*
X2776Y1566D01*
X2746Y1562D01*
X2715Y1560D01*
X2683Y1559D01*
X2667D01*
X2654Y1560D01*
X2639Y1561D01*
X2623Y1562D01*
X2603Y1564D01*
X2582Y1566D01*
X2559Y1569D01*
X2535Y1573D01*
X2487Y1583D01*
X2461Y1590D01*
X2436Y1598D01*
X2412Y1606D01*
X2388Y1617D01*
X2386Y1618D01*
X2382Y1619D01*
X2376Y1622D01*
X2368Y1627D01*
X2358Y1634D01*
X2345Y1641D01*
X2332Y1649D01*
X2318Y1659D01*
X2303Y1671D01*
X2288Y1683D01*
X2273Y1697D01*
X2258Y1712D01*
X2243Y1728D01*
X2230Y1747D01*
X2216Y1765D01*
X2204Y1786D01*
X2203Y1787D01*
X2202Y1791D01*
X2199Y1798D01*
X2195Y1806D01*
X2190Y1816D01*
X2186Y1829D01*
X2180Y1843D01*
X2174Y1859D01*
X2169Y1876D01*
X2163Y1894D01*
X2158Y1915D01*
X2154Y1936D01*
X2147Y1982D01*
X2145Y2006D01*
X2144Y2031D01*
Y2032D01*
Y2037D01*
Y2044D01*
X2145Y2055D01*
X2147Y2069D01*
X2148Y2084D01*
X2150Y2100D01*
X2152Y2119D01*
X2157Y2139D01*
X2160Y2161D01*
X2166Y2183D01*
X2173Y2206D01*
X2181Y2230D01*
X2190Y2254D01*
X2201Y2277D01*
X2212Y2301D01*
X2214Y2303D01*
X2216Y2307D01*
X2219Y2313D01*
X2225Y2322D01*
X2232Y2333D01*
X2240Y2344D01*
X2250Y2358D01*
X2262Y2372D01*
X2275Y2387D01*
X2288Y2403D01*
X2305Y2418D01*
X2321Y2434D01*
X2339Y2449D01*
X2358Y2464D01*
X2378Y2477D01*
X2400Y2489D01*
X2401Y2491D01*
X2406Y2492D01*
X2412Y2495D01*
X2421Y2500D01*
X2433Y2504D01*
X2446Y2509D01*
X2461Y2515D01*
X2479Y2522D01*
X2498Y2527D01*
X2519Y2533D01*
X2541Y2538D01*
X2565Y2542D01*
X2591Y2547D01*
X2617Y2551D01*
X2644Y2552D01*
X2672Y2553D01*
X2685D01*
X2694Y2552D01*
D02*
G37*
G36*
X1737Y2538D02*
X1758Y2537D01*
X1782Y2536D01*
X1805Y2533D01*
X1828Y2529D01*
X1849Y2524D01*
X1850D01*
X1853Y2523D01*
X1856Y2522D01*
X1861Y2521D01*
X1872Y2515D01*
X1888Y2508D01*
X1906Y2499D01*
X1924Y2486D01*
X1944Y2471D01*
X1962Y2454D01*
X1963D01*
X1964Y2451D01*
X1970Y2444D01*
X1978Y2434D01*
X1990Y2420D01*
X2001Y2402D01*
X2013Y2381D01*
X2024Y2358D01*
X2035Y2331D01*
Y2330D01*
X2036Y2328D01*
X2037Y2325D01*
X2038Y2319D01*
X2041Y2312D01*
X2043Y2303D01*
X2045Y2293D01*
X2047Y2282D01*
X2050Y2269D01*
X2052Y2257D01*
X2057Y2225D01*
X2059Y2191D01*
X2060Y2153D01*
Y2152D01*
Y2148D01*
Y2144D01*
Y2137D01*
X2059Y2129D01*
Y2119D01*
X2057Y2097D01*
X2054Y2072D01*
X2050Y2046D01*
X2044Y2018D01*
X2036Y1991D01*
Y1990D01*
X2035Y1988D01*
X2034Y1983D01*
X2031Y1978D01*
X2028Y1971D01*
X2024Y1963D01*
X2015Y1944D01*
X2004Y1922D01*
X1990Y1900D01*
X1974Y1878D01*
X1955Y1858D01*
X1953Y1856D01*
X1948Y1851D01*
X1939Y1844D01*
X1928Y1836D01*
X1911Y1825D01*
X1893Y1815D01*
X1872Y1806D01*
X1848Y1796D01*
X1846Y1795D01*
X1839Y1794D01*
X1828Y1792D01*
X1812Y1790D01*
X1794Y1786D01*
X1771Y1784D01*
X1743Y1783D01*
X1713Y1781D01*
X1427D01*
Y2539D01*
X1728D01*
X1737Y2538D01*
D02*
G37*
%LPC*%
G36*
X1681Y2411D02*
X1581D01*
Y1909D01*
X1715D01*
X1729Y1911D01*
X1743D01*
X1759Y1913D01*
X1773Y1914D01*
X1785Y1916D01*
X1786D01*
X1792Y1919D01*
X1798Y1921D01*
X1806Y1923D01*
X1827Y1934D01*
X1838Y1939D01*
X1847Y1948D01*
X1848Y1949D01*
X1851Y1952D01*
X1855Y1957D01*
X1861Y1965D01*
X1868Y1975D01*
X1873Y1988D01*
X1880Y2003D01*
X1886Y2020D01*
Y2021D01*
X1887Y2022D01*
Y2026D01*
X1888Y2029D01*
X1891Y2041D01*
X1894Y2057D01*
X1898Y2077D01*
X1900Y2101D01*
X1901Y2129D01*
X1902Y2160D01*
Y2161D01*
Y2163D01*
Y2168D01*
Y2175D01*
Y2182D01*
X1901Y2190D01*
X1900Y2209D01*
X1899Y2231D01*
X1895Y2253D01*
X1892Y2275D01*
X1886Y2293D01*
X1885Y2296D01*
X1884Y2301D01*
X1880Y2310D01*
X1876Y2320D01*
X1869Y2333D01*
X1862Y2344D01*
X1854Y2357D01*
X1843Y2367D01*
X1842Y2368D01*
X1839Y2372D01*
X1832Y2376D01*
X1824Y2382D01*
X1815Y2388D01*
X1802Y2394D01*
X1788Y2398D01*
X1773Y2403D01*
X1772D01*
X1766Y2404D01*
X1758Y2405D01*
X1745Y2408D01*
X1737D01*
X1728Y2409D01*
X1719D01*
X1707Y2410D01*
X1695D01*
X1681Y2411D01*
D02*
G37*
G36*
X2630Y2247D02*
X2622D01*
X2614Y2245D01*
X2602Y2243D01*
X2589Y2239D01*
X2576Y2232D01*
X2562Y2224D01*
X2547Y2213D01*
X2546Y2212D01*
X2541Y2206D01*
X2534Y2199D01*
X2526Y2187D01*
X2517Y2174D01*
X2508Y2157D01*
X2498Y2137D01*
X2490Y2115D01*
Y2114D01*
X2489Y2112D01*
Y2109D01*
X2488Y2104D01*
X2484Y2092D01*
X2481Y2077D01*
X2478Y2059D01*
X2475Y2041D01*
X2473Y2021D01*
X2472Y2003D01*
Y2002D01*
Y2001D01*
Y1997D01*
Y1992D01*
X2473Y1981D01*
X2475Y1966D01*
X2479Y1950D01*
X2483Y1935D01*
X2489Y1919D01*
X2498Y1906D01*
X2499Y1905D01*
X2503Y1901D01*
X2509Y1897D01*
X2517Y1891D01*
X2526Y1885D01*
X2537Y1881D01*
X2550Y1877D01*
X2564Y1876D01*
X2569D01*
X2574Y1877D01*
X2581Y1878D01*
X2591Y1880D01*
X2600Y1882D01*
X2609Y1885D01*
X2619Y1890D01*
X2621D01*
X2623Y1892D01*
X2626Y1894D01*
X2632Y1898D01*
X2644Y1908D01*
X2657Y1922D01*
X2659Y1923D01*
X2662Y1928D01*
X2668Y1935D01*
X2674Y1945D01*
X2682Y1958D01*
X2689Y1974D01*
X2697Y1992D01*
X2705Y2013D01*
Y2014D01*
X2706Y2016D01*
X2707Y2019D01*
X2708Y2024D01*
X2712Y2035D01*
X2715Y2050D01*
X2719Y2067D01*
X2722Y2087D01*
X2724Y2107D01*
X2725Y2126D01*
Y2127D01*
Y2129D01*
Y2135D01*
X2724Y2146D01*
X2722Y2159D01*
X2719Y2174D01*
X2714Y2189D01*
X2707Y2202D01*
X2698Y2215D01*
X2697Y2216D01*
X2693Y2220D01*
X2687Y2225D01*
X2679Y2231D01*
X2669Y2237D01*
X2657Y2243D01*
X2645Y2246D01*
X2630Y2247D01*
D02*
G37*
%LPD*%
D39*
X61863Y13177D02*
G03*
X61863Y13177I-118J0D01*
G01*
X59057Y18865D02*
G03*
X59057Y18865I-118J0D01*
G01*
D42*
X39653Y16265D02*
G03*
X39653Y15765I0J-250D01*
G01*
Y10223D02*
G03*
X39653Y9723I0J-250D01*
G01*
X62139Y11281D02*
G03*
X62139Y10781I0J-250D01*
G01*
X22433Y4659D02*
G03*
X22433Y4659I-2000J0D01*
G01*
X16535Y18128D02*
G03*
X16535Y18128I-1181J0D01*
G01*
X59338Y19259D02*
G03*
X59838Y19259I250J0D01*
G01*
X27970Y15333D02*
Y19333D01*
X27137Y15333D02*
X27970D01*
X27137D02*
Y15833D01*
X26637D02*
X27137D01*
X26637Y15333D02*
Y15833D01*
X27137Y19333D02*
X27970D01*
X27137Y18833D02*
Y19333D01*
X26637Y18833D02*
X27137D01*
X26637D02*
Y19333D01*
X21720D02*
X26637D01*
X21720Y15333D02*
X25637D01*
X21720D02*
Y19333D01*
X25637Y15333D02*
X26637D01*
X25220D02*
Y19333D01*
X24720Y19166D02*
X25220Y19333D01*
X21887Y19166D02*
X24720D01*
X21720Y19333D02*
X21887Y19166D01*
X24720Y15499D02*
Y19166D01*
X21887Y15499D02*
Y19166D01*
X21720Y15333D02*
X21887Y15499D01*
X24720D01*
X25220Y15333D01*
X20326Y18921D02*
X20485Y18997D01*
X21735D01*
X20326Y18497D02*
X21735D01*
X20326Y17583D02*
X20485Y17658D01*
X21735D01*
X20326Y17158D02*
X21735D01*
X20326Y16165D02*
X20485Y16241D01*
X21735D01*
X20326Y15741D02*
X21735D01*
X72148Y4451D02*
X73148D01*
X72148D02*
Y8451D01*
X73148Y4451D02*
Y8451D01*
X72148D02*
X73148D01*
X36732Y14971D02*
X39653D01*
X36732Y17058D02*
X39653D01*
X36732Y14971D02*
Y17058D01*
X39653Y14971D02*
Y15765D01*
Y16265D02*
Y17058D01*
X36732Y8930D02*
X39653D01*
X36732Y11016D02*
X39653D01*
X36732Y8930D02*
Y11016D01*
X39653Y8930D02*
Y9723D01*
Y10223D02*
Y11016D01*
X57263Y3649D02*
Y4634D01*
X54271Y3649D02*
Y4634D01*
Y3649D02*
X57263D01*
X54271Y4634D02*
X57263D01*
X48898Y17359D02*
X48990D01*
X48006D02*
X48099D01*
X48898Y15784D02*
X48990D01*
X48006D02*
X48099D01*
X48006D02*
Y17359D01*
X48990Y15784D02*
Y17359D01*
X56738D02*
X56830D01*
X55846D02*
X55939D01*
X56738Y15784D02*
X56830D01*
X55846D02*
X55939D01*
X55846D02*
Y17359D01*
X56830Y15784D02*
Y17359D01*
X49876Y15784D02*
X49969D01*
X50768D02*
X50860D01*
X49876Y17359D02*
X49969D01*
X50768D02*
X50860D01*
Y15784D02*
Y17359D01*
X49876Y15784D02*
Y17359D01*
X42471Y3905D02*
X42771D01*
Y5905D01*
X42171D02*
X42771D01*
X42171Y3905D02*
Y5905D01*
Y3905D02*
X42471D01*
Y5905D02*
Y5995D01*
Y3815D02*
Y3905D01*
X39670D02*
X39970D01*
Y5905D01*
X39370D02*
X39970D01*
X39370Y3905D02*
Y5905D01*
Y3905D02*
X39670D01*
Y5905D02*
Y5995D01*
Y3815D02*
Y3905D01*
X35469Y5905D02*
Y5995D01*
Y3815D02*
Y3905D01*
Y5905D02*
X35769D01*
Y3905D02*
Y5905D01*
X35169Y3905D02*
X35769D01*
X35169D02*
Y5905D01*
X35469D01*
X40997Y8492D02*
Y13571D01*
X62139Y8492D02*
Y10781D01*
Y11281D02*
Y13571D01*
X40997Y8492D02*
X62139D01*
X40997Y13571D02*
X62139D01*
X64588Y11015D02*
Y11315D01*
Y11015D02*
X66588D01*
Y11615D01*
X64588D02*
X66588D01*
X64588Y11315D02*
Y11615D01*
X66588Y11315D02*
X66678D01*
X64498D02*
X64588D01*
Y9458D02*
Y9758D01*
Y9458D02*
X66588D01*
Y10058D01*
X64588D02*
X66588D01*
X64588Y9758D02*
Y10058D01*
X66588Y9758D02*
X66678D01*
X64498D02*
X64588D01*
X34069Y3905D02*
X34369D01*
Y5905D01*
X33769D02*
X34369D01*
X33769Y3905D02*
Y5905D01*
Y3905D02*
X34069D01*
Y5905D02*
Y5995D01*
Y3815D02*
Y3905D01*
X20981Y5659D02*
X21381D01*
X21181Y5459D02*
Y5859D01*
X14724Y17432D02*
Y17832D01*
X14524Y17632D02*
X14924D01*
X79134Y10691D02*
Y16691D01*
X75255Y10691D02*
X79134D01*
X71031D02*
X74714D01*
X71031D02*
Y16691D01*
X74714D01*
X75255D02*
X79134D01*
X48680Y2323D02*
X49680D01*
X48680D02*
Y4323D01*
X49680D01*
Y2323D02*
Y4323D01*
X47124Y2323D02*
X48124D01*
X47124D02*
Y4323D01*
X48124D01*
Y2323D02*
Y4323D01*
X57263Y1929D02*
Y2914D01*
X54271Y1929D02*
Y2914D01*
Y1929D02*
X57263D01*
X54271Y2914D02*
X57263D01*
X66242Y7183D02*
X69242D01*
X66242Y6183D02*
Y7183D01*
Y6183D02*
X69242D01*
Y7183D01*
X66242Y14264D02*
X69242D01*
Y15264D01*
X66242D02*
X69242D01*
X66242Y14264D02*
Y15264D01*
X17972Y9404D02*
Y12404D01*
Y9404D02*
X18972D01*
Y12404D01*
X17972D02*
X18972D01*
X62139Y1929D02*
Y2914D01*
X59147Y1929D02*
Y2914D01*
Y1929D02*
X62139D01*
X59147Y2914D02*
X62139D01*
X59147Y3704D02*
Y4689D01*
X62139Y3704D02*
Y4689D01*
X59147D02*
X62139D01*
X59147Y3704D02*
X62139D01*
X62826Y14695D02*
X63810D01*
X62826Y17687D02*
X63810D01*
X62826Y14695D02*
Y17687D01*
X63810Y14695D02*
Y17687D01*
X29952Y9045D02*
X30936D01*
X29952Y12037D02*
X30936D01*
X29952Y9045D02*
Y12037D01*
X30936Y9045D02*
Y12037D01*
X59147Y5479D02*
Y6464D01*
X62139Y5479D02*
Y6464D01*
X59147D02*
X62139D01*
X59147Y5479D02*
X62139D01*
X29952Y14287D02*
X30936D01*
X29952Y17280D02*
X30936D01*
X29952Y14287D02*
Y17280D01*
X30936Y14287D02*
Y17280D01*
X64498Y12871D02*
X64588D01*
X66588D02*
X66678D01*
X64588D02*
Y13171D01*
X66588D01*
Y12571D02*
Y13171D01*
X64588Y12571D02*
X66588D01*
X64588D02*
Y12871D01*
X66588Y8201D02*
X66678D01*
X64498D02*
X64588D01*
X66588Y7901D02*
Y8201D01*
X64588Y7901D02*
X66588D01*
X64588D02*
Y8501D01*
X66588D01*
Y8201D02*
Y8501D01*
X45272Y3815D02*
Y3905D01*
Y5905D02*
Y5995D01*
X44972Y3905D02*
X45272D01*
X44972D02*
Y5905D01*
X45572D01*
Y3905D02*
Y5905D01*
X45272Y3905D02*
X45572D01*
X33555Y9067D02*
X34540D01*
X33555Y12060D02*
X34540D01*
X33555Y9067D02*
Y12060D01*
X34540Y9067D02*
Y12060D01*
X33555Y14327D02*
X34540D01*
X33555Y17320D02*
X34540D01*
X33555Y14327D02*
Y17320D01*
X34540Y14327D02*
Y17320D01*
X58545Y15204D02*
Y19259D01*
X60632Y15204D02*
Y19259D01*
X58545D02*
X59338D01*
X59838D02*
X60632D01*
X58545Y15204D02*
X60632D01*
X42908Y17359D02*
X43000D01*
X42016D02*
X42109D01*
X42908Y15784D02*
X43000D01*
X42016D02*
X42109D01*
X42016D02*
Y17359D01*
X43000Y15784D02*
Y17359D01*
X50237Y2323D02*
X51237D01*
X50237D02*
Y4323D01*
X51237D01*
Y2323D02*
Y4323D01*
X51794Y2323D02*
X52794D01*
X51794D02*
Y4323D01*
X52794D01*
Y2323D02*
Y4323D01*
X30968Y5905D02*
X31268D01*
X30968Y3905D02*
Y5905D01*
Y3905D02*
X31568D01*
Y5905D01*
X31268D02*
X31568D01*
X31268Y3815D02*
Y3905D01*
Y5905D02*
Y5995D01*
X32368Y5905D02*
X32668D01*
X32368Y3905D02*
Y5905D01*
Y3905D02*
X32968D01*
Y5905D01*
X32668D02*
X32968D01*
X32668Y3815D02*
Y3905D01*
Y5905D02*
Y5995D01*
X36869Y3905D02*
X37169D01*
Y5905D01*
X36569D02*
X37169D01*
X36569Y3905D02*
Y5905D01*
Y3905D02*
X36869D01*
Y5905D02*
Y5995D01*
Y3815D02*
Y3905D01*
X38270D02*
X38570D01*
Y5905D01*
X37970D02*
X38570D01*
X37970Y3905D02*
Y5905D01*
Y3905D02*
X38270D01*
Y5905D02*
Y5995D01*
Y3815D02*
Y3905D01*
X40771Y5905D02*
X41071D01*
X40771Y3905D02*
Y5905D01*
Y3905D02*
X41371D01*
Y5905D01*
X41071D02*
X41371D01*
X41071Y3815D02*
Y3905D01*
Y5905D02*
Y5995D01*
X43572Y5905D02*
X43872D01*
X43572Y3905D02*
Y5905D01*
Y3905D02*
X44172D01*
Y5905D01*
X43872D02*
X44172D01*
X43872Y3815D02*
Y3905D01*
Y5905D02*
Y5995D01*
X-1713Y3161D02*
Y9161D01*
X2167D01*
X2707D02*
X6390D01*
Y3161D02*
Y9161D01*
X2707Y3161D02*
X6390D01*
X-1713D02*
X2167D01*
D43*
X13243Y6211D02*
G03*
X13243Y6211I-984J0D01*
G01*
X16393D02*
G03*
X16393Y6211I-4134J0D01*
G01*
X0Y21457D02*
X0Y21457D01*
Y0D02*
Y21457D01*
X0Y21457D02*
X76772D01*
Y0D02*
Y21457D01*
X0Y0D02*
X76772D01*
D44*
X61629Y14031D02*
G03*
X61629Y14031I-49J0D01*
G01*
X58137Y19243D02*
G03*
X58137Y19243I-49J0D01*
G01*
D45*
X23425Y10935D02*
G03*
X23425Y10935I-2953J0D01*
G01*
X70681Y16691D02*
G03*
X70681Y16691I-2953J0D01*
G01*
Y4734D02*
G03*
X70681Y4734I-2953J0D01*
G01*
X25492Y8858D02*
X27500D01*
X25492D02*
Y12411D01*
X27500D01*
Y8858D02*
Y12411D01*
X10482Y10699D02*
Y12707D01*
X14035D01*
Y10699D02*
Y12707D01*
X10482Y10699D02*
X14035D01*
X7994Y13248D02*
X16494D01*
X7924Y13318D02*
X7994Y13248D01*
X7924Y13318D02*
Y16578D01*
X16494Y13248D02*
X16544Y13298D01*
Y16648D01*
X7924Y16578D02*
X8044Y16698D01*
X16494D01*
X16544Y16648D01*
X48319Y18028D02*
X48219Y17928D01*
Y17728D01*
X48319Y17628D01*
X48719D01*
X48819Y17728D01*
Y17928D01*
X48719Y18028D01*
X48819Y18228D02*
Y18428D01*
Y18328D01*
X48219D01*
X48319Y18228D01*
X48219Y19127D02*
X48319Y18928D01*
X48519Y18728D01*
X48719D01*
X48819Y18828D01*
Y19028D01*
X48719Y19127D01*
X48619D01*
X48519Y19028D01*
Y18728D01*
X42325Y17988D02*
X42225Y17888D01*
Y17689D01*
X42325Y17589D01*
X42725D01*
X42825Y17689D01*
Y17888D01*
X42725Y17988D01*
X42825Y18188D02*
Y18388D01*
Y18288D01*
X42225D01*
X42325Y18188D01*
X42225Y19088D02*
Y18688D01*
X42525D01*
X42425Y18888D01*
Y18988D01*
X42525Y19088D01*
X42725D01*
X42825Y18988D01*
Y18788D01*
X42725Y18688D01*
X6812Y7831D02*
Y7631D01*
Y7731D01*
X7311D01*
X7411Y7631D01*
Y7531D01*
X7311Y7431D01*
X6912Y8431D02*
X6812Y8331D01*
Y8131D01*
X6912Y8031D01*
X7311D01*
X7411Y8131D01*
Y8331D01*
X7311Y8431D01*
X7411Y9031D02*
Y8631D01*
X7012Y9031D01*
X6912D01*
X6812Y8931D01*
Y8731D01*
X6912Y8631D01*
X45028Y17991D02*
X45428Y17391D01*
Y17991D02*
X45028Y17391D01*
X46028D02*
X45628D01*
X46028Y17791D01*
Y17891D01*
X45928Y17991D01*
X45728D01*
X45628Y17891D01*
X40821Y2845D02*
X41421D01*
Y2546D01*
X41321Y2446D01*
X41121D01*
X41021Y2546D01*
Y2845D01*
Y2646D02*
X40821Y2446D01*
X41421Y1846D02*
Y2046D01*
Y1946D01*
X40921D01*
X40821Y2046D01*
Y2146D01*
X40921Y2246D01*
X40821Y1646D02*
X41421D01*
Y1346D01*
X41321Y1246D01*
X41121D01*
X41021Y1346D01*
Y1646D01*
X40821Y746D02*
X41421D01*
X41121Y1046D01*
Y646D01*
X43632Y2845D02*
X44231D01*
Y2546D01*
X44131Y2446D01*
X43931D01*
X43832Y2546D01*
Y2845D01*
Y2646D02*
X43632Y2446D01*
X44231Y1846D02*
Y2046D01*
Y1946D01*
X43732D01*
X43632Y2046D01*
Y2146D01*
X43732Y2246D01*
X43632Y1646D02*
X44231D01*
Y1346D01*
X44131Y1246D01*
X43931D01*
X43832Y1346D01*
Y1646D01*
X44131Y1046D02*
X44231Y946D01*
Y746D01*
X44131Y646D01*
X44031D01*
X43931Y746D01*
Y846D01*
Y746D01*
X43832Y646D01*
X43732D01*
X43632Y746D01*
Y946D01*
X43732Y1046D01*
X30938Y2845D02*
X31538D01*
Y2546D01*
X31438Y2446D01*
X31238D01*
X31138Y2546D01*
Y2845D01*
Y2646D02*
X30938Y2446D01*
Y2246D02*
Y2046D01*
Y2146D01*
X31538D01*
X31438Y2246D01*
Y1746D02*
X31538Y1646D01*
Y1446D01*
X31438Y1346D01*
X31038D01*
X30938Y1446D01*
Y1646D01*
X31038Y1746D01*
X31438D01*
X36579Y2845D02*
X37179D01*
Y2546D01*
X37079Y2446D01*
X36879D01*
X36779Y2546D01*
Y2845D01*
Y2646D02*
X36579Y2446D01*
X36679Y2246D02*
X36579Y2146D01*
Y1946D01*
X36679Y1846D01*
X37079D01*
X37179Y1946D01*
Y2146D01*
X37079Y2246D01*
X36979D01*
X36879Y2146D01*
Y1846D01*
X32378Y2845D02*
X32978D01*
Y2546D01*
X32878Y2446D01*
X32678D01*
X32578Y2546D01*
Y2845D01*
Y2646D02*
X32378Y2446D01*
X32878Y2246D02*
X32978Y2146D01*
Y1946D01*
X32878Y1846D01*
X32778D01*
X32678Y1946D01*
X32578Y1846D01*
X32478D01*
X32378Y1946D01*
Y2146D01*
X32478Y2246D01*
X32578D01*
X32678Y2146D01*
X32778Y2246D01*
X32878D01*
X32678Y2146D02*
Y1946D01*
X38030Y2845D02*
X38630D01*
Y2546D01*
X38530Y2446D01*
X38330D01*
X38230Y2546D01*
Y2845D01*
Y2646D02*
X38030Y2446D01*
X38630Y2246D02*
Y1846D01*
X38530D01*
X38130Y2246D01*
X38030D01*
X40439Y16403D02*
Y16603D01*
X40339Y16703D01*
X39939D01*
X39839Y16603D01*
Y16403D01*
X39939Y16303D01*
X40339D01*
X40439Y16403D01*
X39839Y16103D02*
X40439D01*
Y15803D01*
X40339Y15703D01*
X40139D01*
X40039Y15803D01*
Y16103D01*
X39839Y15104D02*
Y15504D01*
X40239Y15104D01*
X40339D01*
X40439Y15204D01*
Y15404D01*
X40339Y15504D01*
X40439Y10422D02*
Y10621D01*
X40339Y10721D01*
X39939D01*
X39839Y10621D01*
Y10422D01*
X39939Y10322D01*
X40339D01*
X40439Y10422D01*
X39839Y10122D02*
X40439D01*
Y9822D01*
X40339Y9722D01*
X40139D01*
X40039Y9822D01*
Y10122D01*
X39839Y9522D02*
Y9322D01*
Y9422D01*
X40439D01*
X40339Y9522D01*
X52568Y5811D02*
Y6011D01*
Y5911D01*
X52068D01*
X51969Y6011D01*
Y6111D01*
X52068Y6211D01*
X51969Y5611D02*
X52568D01*
Y5311D01*
X52468Y5211D01*
X52268D01*
X52168Y5311D01*
Y5611D01*
X51969Y4711D02*
X52568D01*
X52268Y5011D01*
Y4611D01*
X51184Y5811D02*
Y6011D01*
Y5911D01*
X50684D01*
X50584Y6011D01*
Y6111D01*
X50684Y6211D01*
X50584Y5611D02*
X51184D01*
Y5311D01*
X51084Y5211D01*
X50884D01*
X50784Y5311D01*
Y5611D01*
X51084Y5011D02*
X51184Y4911D01*
Y4711D01*
X51084Y4611D01*
X50984D01*
X50884Y4711D01*
Y4811D01*
Y4711D01*
X50784Y4611D01*
X50684D01*
X50584Y4711D01*
Y4911D01*
X50684Y5011D01*
X73622Y7785D02*
X74222D01*
Y7486D01*
X74122Y7386D01*
X73922D01*
X73822Y7486D01*
Y7785D01*
X74222Y7186D02*
X73622D01*
Y6886D01*
X73722Y6786D01*
X73822D01*
X73922Y6886D01*
Y7186D01*
Y6886D01*
X74022Y6786D01*
X74122D01*
X74222Y6886D01*
Y7186D01*
Y6586D02*
X73622D01*
Y6186D01*
X74222Y5986D02*
X73722D01*
X73622Y5886D01*
Y5686D01*
X73722Y5586D01*
X74222D01*
Y4986D02*
Y5386D01*
X73622D01*
Y4986D01*
X73922Y5386D02*
Y5186D01*
X7739Y17649D02*
X7339D01*
Y17349D01*
X7539D01*
X7339D01*
Y17049D01*
X7939D02*
X8139D01*
X8039D01*
Y17649D01*
X7939Y17549D01*
X64888Y11795D02*
Y12395D01*
X65188D01*
X65288Y12295D01*
Y12095D01*
X65188Y11995D01*
X64888D01*
X65088D02*
X65288Y11795D01*
X65488D02*
X65688D01*
X65588D01*
Y12395D01*
X65488Y12295D01*
X65988D02*
X66088Y12395D01*
X66288D01*
X66388Y12295D01*
Y12195D01*
X66288Y12095D01*
X66388Y11995D01*
Y11895D01*
X66288Y11795D01*
X66088D01*
X65988Y11895D01*
Y11995D01*
X66088Y12095D01*
X65988Y12195D01*
Y12295D01*
X66088Y12095D02*
X66288D01*
X64888Y10228D02*
Y10828D01*
X65188D01*
X65288Y10728D01*
Y10528D01*
X65188Y10428D01*
X64888D01*
X65088D02*
X65288Y10228D01*
X65488D02*
X65688D01*
X65588D01*
Y10828D01*
X65488Y10728D01*
X65988Y10828D02*
X66388D01*
Y10728D01*
X65988Y10328D01*
Y10228D01*
X33729Y2845D02*
X34328D01*
Y2546D01*
X34228Y2446D01*
X34028D01*
X33929Y2546D01*
Y2845D01*
Y2646D02*
X33729Y2446D01*
Y2246D02*
Y2046D01*
Y2146D01*
X34328D01*
X34228Y2246D01*
X34328Y1346D02*
X34228Y1546D01*
X34028Y1746D01*
X33829D01*
X33729Y1646D01*
Y1446D01*
X33829Y1346D01*
X33929D01*
X34028Y1446D01*
Y1746D01*
X52868Y17961D02*
X53268Y17361D01*
Y17961D02*
X52868Y17361D01*
X53468D02*
X53668D01*
X53568D01*
Y17961D01*
X53468Y17861D01*
X25286Y16742D02*
X25786D01*
X25886Y16842D01*
Y17042D01*
X25786Y17142D01*
X25286D01*
Y17742D02*
Y17342D01*
X25586D01*
X25486Y17542D01*
Y17642D01*
X25586Y17742D01*
X25786D01*
X25886Y17642D01*
Y17442D01*
X25786Y17342D01*
X63049Y13601D02*
X62549D01*
X62449Y13501D01*
Y13301D01*
X62549Y13201D01*
X63049D01*
X62449Y12601D02*
Y13001D01*
X62849Y12601D01*
X62949D01*
X63049Y12701D01*
Y12901D01*
X62949Y13001D01*
X61811Y19409D02*
Y18909D01*
X61911Y18809D01*
X62111D01*
X62211Y18909D01*
Y19409D01*
X62411Y18809D02*
X62611D01*
X62511D01*
Y19409D01*
X62411Y19309D01*
X39373Y2845D02*
X39973D01*
Y2546D01*
X39873Y2446D01*
X39673D01*
X39573Y2546D01*
Y2845D01*
Y2646D02*
X39373Y2446D01*
X39973Y1846D02*
X39873Y2046D01*
X39673Y2246D01*
X39473D01*
X39373Y2146D01*
Y1946D01*
X39473Y1846D01*
X39573D01*
X39673Y1946D01*
Y2246D01*
X42158Y2845D02*
X42758D01*
Y2546D01*
X42658Y2446D01*
X42458D01*
X42358Y2546D01*
Y2845D01*
Y2646D02*
X42158Y2446D01*
X42758Y1846D02*
Y2246D01*
X42458D01*
X42558Y2046D01*
Y1946D01*
X42458Y1846D01*
X42258D01*
X42158Y1946D01*
Y2146D01*
X42258Y2246D01*
X8279Y10000D02*
Y9401D01*
X8679D01*
X8879D02*
X9079D01*
X8979D01*
Y10000D01*
X8879Y9900D01*
X49514Y5811D02*
Y6011D01*
Y5911D01*
X49014D01*
X48914Y6011D01*
Y6111D01*
X49014Y6211D01*
X48914Y5611D02*
X49514D01*
Y5311D01*
X49414Y5211D01*
X49214D01*
X49114Y5311D01*
Y5611D01*
X48914Y4611D02*
Y5011D01*
X49314Y4611D01*
X49414D01*
X49514Y4711D01*
Y4911D01*
X49414Y5011D01*
X47942Y5611D02*
Y5811D01*
Y5711D01*
X47442D01*
X47343Y5811D01*
Y5911D01*
X47442Y6011D01*
X47343Y5411D02*
X47942D01*
Y5111D01*
X47842Y5011D01*
X47642D01*
X47542Y5111D01*
Y5411D01*
X47343Y4811D02*
Y4611D01*
Y4711D01*
X47942D01*
X47842Y4811D01*
X71266Y10551D02*
X71066D01*
X71166D01*
Y10051D01*
X71066Y9951D01*
X70966D01*
X70866Y10051D01*
X71866Y10451D02*
X71766Y10551D01*
X71566D01*
X71466Y10451D01*
Y10051D01*
X71566Y9951D01*
X71766D01*
X71866Y10051D01*
X72066Y9951D02*
X72266D01*
X72166D01*
Y10551D01*
X72066Y10451D01*
X15244Y20088D02*
X14844D01*
Y19488D01*
X15244D01*
X14844Y19788D02*
X15044D01*
X15844Y19488D02*
X15444D01*
X15844Y19888D01*
Y19988D01*
X15744Y20088D01*
X15544D01*
X15444Y19988D01*
X23083Y3260D02*
Y3659D01*
X22483D01*
Y3260D01*
X22783Y3659D02*
Y3460D01*
X22483Y3060D02*
Y2860D01*
Y2960D01*
X23083D01*
X22983Y3060D01*
X8533Y12313D02*
X7933D01*
Y12013D01*
X8033Y11913D01*
X8433D01*
X8533Y12013D01*
Y12313D01*
X7933Y11313D02*
Y11713D01*
X8333Y11313D01*
X8433D01*
X8533Y11413D01*
Y11613D01*
X8433Y11713D01*
X24725Y12943D02*
X25325D01*
Y13243D01*
X25225Y13343D01*
X24825D01*
X24725Y13243D01*
Y12943D01*
X25325Y13543D02*
Y13743D01*
Y13643D01*
X24725D01*
X24825Y13543D01*
X35232Y15752D02*
X35332Y15852D01*
Y16052D01*
X35232Y16152D01*
X34832D01*
X34732Y16052D01*
Y15852D01*
X34832Y15752D01*
X35232Y15552D02*
X35332Y15452D01*
Y15252D01*
X35232Y15152D01*
X35132D01*
X35032Y15252D01*
X34932Y15152D01*
X34832D01*
X34732Y15252D01*
Y15452D01*
X34832Y15552D01*
X34932D01*
X35032Y15452D01*
X35132Y15552D01*
X35232D01*
X35032Y15452D02*
Y15252D01*
X35232Y10605D02*
X35332Y10705D01*
Y10905D01*
X35232Y11005D01*
X34832D01*
X34732Y10905D01*
Y10705D01*
X34832Y10605D01*
X35332Y10405D02*
Y10006D01*
X35232D01*
X34832Y10405D01*
X34732D01*
X56258Y18031D02*
X56158Y18131D01*
X55958D01*
X55858Y18031D01*
Y17631D01*
X55958Y17531D01*
X56158D01*
X56258Y17631D01*
X56758Y17531D02*
Y18131D01*
X56458Y17831D01*
X56858D01*
X50238Y18051D02*
X50138Y18151D01*
X49938D01*
X49838Y18051D01*
Y17651D01*
X49938Y17551D01*
X50138D01*
X50238Y17651D01*
X50438Y18051D02*
X50538Y18151D01*
X50738D01*
X50838Y18051D01*
Y17951D01*
X50738Y17851D01*
X50638D01*
X50738D01*
X50838Y17751D01*
Y17651D01*
X50738Y17551D01*
X50538D01*
X50438Y17651D01*
X57917Y4271D02*
X57817Y4371D01*
X57617D01*
X57517Y4271D01*
Y3871D01*
X57617Y3771D01*
X57817D01*
X57917Y3871D01*
X58516Y3771D02*
X58116D01*
X58516Y4171D01*
Y4271D01*
X58416Y4371D01*
X58216D01*
X58116Y4271D01*
X57917Y2571D02*
X57817Y2671D01*
X57617D01*
X57517Y2571D01*
Y2171D01*
X57617Y2071D01*
X57817D01*
X57917Y2171D01*
X58116Y2071D02*
X58316D01*
X58216D01*
Y2671D01*
X58116Y2571D01*
X64888Y8611D02*
Y9211D01*
X65188D01*
X65288Y9111D01*
Y8911D01*
X65188Y8811D01*
X64888D01*
X65088D02*
X65288Y8611D01*
X65488D02*
X65688D01*
X65588D01*
Y9211D01*
X65488Y9111D01*
X66388Y9211D02*
X65988D01*
Y8911D01*
X66188Y9011D01*
X66288D01*
X66388Y8911D01*
Y8711D01*
X66288Y8611D01*
X66088D01*
X65988Y8711D01*
X64888Y13261D02*
Y13861D01*
X65188D01*
X65288Y13761D01*
Y13561D01*
X65188Y13461D01*
X64888D01*
X65088D02*
X65288Y13261D01*
X65488D02*
X65688D01*
X65588D01*
Y13861D01*
X65488Y13761D01*
X66288Y13261D02*
Y13861D01*
X65988Y13561D01*
X66388D01*
X35109Y2845D02*
X35709D01*
Y2546D01*
X35609Y2446D01*
X35409D01*
X35309Y2546D01*
Y2845D01*
Y2646D02*
X35109Y2446D01*
Y2246D02*
Y2046D01*
Y2146D01*
X35709D01*
X35609Y2246D01*
Y1746D02*
X35709Y1646D01*
Y1446D01*
X35609Y1346D01*
X35509D01*
X35409Y1446D01*
Y1546D01*
Y1446D01*
X35309Y1346D01*
X35209D01*
X35109Y1446D01*
Y1646D01*
X35209Y1746D01*
X67148Y5344D02*
Y5944D01*
X67448D01*
X67548Y5844D01*
Y5644D01*
X67448Y5544D01*
X67148D01*
X68147Y5944D02*
X67947Y5844D01*
X67747Y5644D01*
Y5444D01*
X67847Y5344D01*
X68047D01*
X68147Y5444D01*
Y5544D01*
X68047Y5644D01*
X67747D01*
X67175Y15394D02*
Y15994D01*
X67475D01*
X67575Y15894D01*
Y15694D01*
X67475Y15594D01*
X67175D01*
X68175Y15994D02*
X67775D01*
Y15694D01*
X67975Y15794D01*
X68075D01*
X68175Y15694D01*
Y15494D01*
X68075Y15394D01*
X67875D01*
X67775Y15494D01*
X19291Y11329D02*
X19891D01*
Y11029D01*
X19791Y10929D01*
X19591D01*
X19491Y11029D01*
Y11329D01*
X19291Y10429D02*
X19891D01*
X19591Y10729D01*
Y10329D01*
X62663Y2641D02*
X62563Y2741D01*
X62363D01*
X62263Y2641D01*
Y2241D01*
X62363Y2141D01*
X62563D01*
X62663Y2241D01*
X62863Y2141D02*
X63063D01*
X62963D01*
Y2741D01*
X62863Y2641D01*
X63663Y2141D02*
Y2741D01*
X63363Y2441D01*
X63763D01*
X62663Y4346D02*
X62563Y4446D01*
X62363D01*
X62263Y4346D01*
Y3946D01*
X62363Y3846D01*
X62563D01*
X62663Y3946D01*
X62863Y3846D02*
X63063D01*
X62963D01*
Y4446D01*
X62863Y4346D01*
X63363D02*
X63463Y4446D01*
X63663D01*
X63763Y4346D01*
Y4246D01*
X63663Y4146D01*
X63563D01*
X63663D01*
X63763Y4046D01*
Y3946D01*
X63663Y3846D01*
X63463D01*
X63363Y3946D01*
X62228Y15804D02*
X62128Y15704D01*
Y15504D01*
X62228Y15404D01*
X62628D01*
X62728Y15504D01*
Y15704D01*
X62628Y15804D01*
X62728Y16004D02*
Y16204D01*
Y16104D01*
X62128D01*
X62228Y16004D01*
X62728Y16904D02*
Y16504D01*
X62328Y16904D01*
X62228D01*
X62128Y16804D01*
Y16604D01*
X62228Y16504D01*
X31701Y10830D02*
X31801Y10930D01*
Y11130D01*
X31701Y11230D01*
X31301D01*
X31201Y11130D01*
Y10930D01*
X31301Y10830D01*
X31201Y10631D02*
Y10431D01*
Y10531D01*
X31801D01*
X31701Y10631D01*
X31201Y10131D02*
Y9931D01*
Y10031D01*
X31801D01*
X31701Y10131D01*
X62663Y6181D02*
X62563Y6281D01*
X62363D01*
X62263Y6181D01*
Y5781D01*
X62363Y5681D01*
X62563D01*
X62663Y5781D01*
X62863Y5681D02*
X63063D01*
X62963D01*
Y6281D01*
X62863Y6181D01*
X63363D02*
X63463Y6281D01*
X63663D01*
X63763Y6181D01*
Y5781D01*
X63663Y5681D01*
X63463D01*
X63363Y5781D01*
Y6181D01*
X31701Y15752D02*
X31801Y15852D01*
Y16052D01*
X31701Y16152D01*
X31301D01*
X31201Y16052D01*
Y15852D01*
X31301Y15752D01*
Y15552D02*
X31201Y15452D01*
Y15252D01*
X31301Y15152D01*
X31701D01*
X31801Y15252D01*
Y15452D01*
X31701Y15552D01*
X31601D01*
X31501Y15452D01*
Y15152D01*
X45062Y2845D02*
X45662D01*
Y2546D01*
X45562Y2446D01*
X45362D01*
X45262Y2546D01*
Y2845D01*
Y2646D02*
X45062Y2446D01*
Y2246D02*
Y2046D01*
Y2146D01*
X45662D01*
X45562Y2246D01*
X45162Y1746D02*
X45062Y1646D01*
Y1446D01*
X45162Y1346D01*
X45562D01*
X45662Y1446D01*
Y1646D01*
X45562Y1746D01*
X45462D01*
X45362Y1646D01*
Y1346D01*
X498845Y-470493D02*
X498645D01*
X498745D01*
Y-470993D01*
X498645Y-471093D01*
X498545D01*
X498445Y-470993D01*
X499045Y-471093D02*
X499245D01*
X499145D01*
Y-470493D01*
X499045Y-470593D01*
X70258Y17681D02*
X69658D01*
Y17382D01*
X69758Y17282D01*
X70158D01*
X70258Y17382D01*
Y17681D01*
Y16682D02*
Y17082D01*
X69658D01*
Y16682D01*
X69958Y17082D02*
Y16882D01*
X70258Y16482D02*
Y16082D01*
Y16282D01*
X69658D01*
Y15482D02*
Y15882D01*
X70058Y15482D01*
X70158D01*
X70258Y15582D01*
Y15782D01*
X70158Y15882D01*
X70324Y5817D02*
X69724D01*
Y5517D01*
X69824Y5417D01*
X70224D01*
X70324Y5517D01*
Y5817D01*
Y4817D02*
Y5217D01*
X69724D01*
Y4817D01*
X70024Y5217D02*
Y5017D01*
X70324Y4617D02*
Y4217D01*
Y4417D01*
X69724D01*
X70224Y4018D02*
X70324Y3918D01*
Y3718D01*
X70224Y3618D01*
X70124D01*
X70024Y3718D01*
Y3818D01*
Y3718D01*
X69924Y3618D01*
X69824D01*
X69724Y3718D01*
Y3918D01*
X69824Y4018D01*
X23041Y11998D02*
X22441D01*
Y11698D01*
X22541Y11598D01*
X22941D01*
X23041Y11698D01*
Y11998D01*
Y10998D02*
Y11398D01*
X22441D01*
Y10998D01*
X22741Y11398D02*
Y11198D01*
X23041Y10798D02*
Y10399D01*
Y10598D01*
X22441D01*
Y10199D02*
Y9999D01*
Y10099D01*
X23041D01*
X22941Y10199D01*
D46*
X26270Y10433D02*
X26730D01*
X26270D02*
X26500Y10883D01*
X26492Y10886D02*
Y11386D01*
Y10886D02*
X26722D01*
X26500Y10883D02*
X26730Y10433D01*
X26486Y10020D02*
Y10428D01*
X26270Y10886D02*
X26500D01*
X12057Y11469D02*
Y11929D01*
X12507Y11699D01*
X12510Y11706D02*
X13010D01*
X12510Y11476D02*
Y11706D01*
X12057Y11469D02*
X12507Y11699D01*
X11644Y11713D02*
X12052D01*
X12510Y11699D02*
Y11929D01*
D47*
X51288Y17171D02*
X55288D01*
Y15971D02*
Y17171D01*
X51288Y15971D02*
X55288D01*
X51288D02*
Y17171D01*
X43448Y15971D02*
X47448D01*
X43448D02*
Y17171D01*
X47448D01*
Y15971D02*
Y17171D01*
D48*
X25067Y6580D02*
X28187D01*
X25007Y6550D02*
X28217D01*
X24947Y6520D02*
X28277D01*
X24887Y6490D02*
X28307D01*
X24857Y6460D02*
X28337D01*
X24827Y6430D02*
X28367D01*
X24797Y6400D02*
X28397D01*
X24767Y6370D02*
X28397D01*
X24767Y6340D02*
X25097D01*
X25847D02*
X26147D01*
X26417D02*
X26447D01*
X28037D02*
X28427D01*
X24737Y6310D02*
X25037D01*
X25847D02*
X26177D01*
X28007D02*
X28427D01*
X24737Y6280D02*
X25007D01*
X25847D02*
X26207D01*
X27977D02*
X28427D01*
X24737Y6250D02*
X24977D01*
X25847D02*
X26237D01*
X27947D02*
X28427D01*
X24737Y6220D02*
X24977D01*
X25847D02*
X26267D01*
X27917D02*
X28427D01*
X24737Y6190D02*
X24947D01*
X25847D02*
X26297D01*
X27887D02*
X28427D01*
X24737Y6160D02*
X24947D01*
X25847D02*
X26327D01*
X27857D02*
X28427D01*
X24737Y6130D02*
X24947D01*
X25847D02*
X26357D01*
X27827D02*
X28427D01*
X24737Y6100D02*
X24947D01*
X25847D02*
X26387D01*
X27797D02*
X28427D01*
X24737Y6070D02*
X24947D01*
X25847D02*
X26417D01*
X27767D02*
X28427D01*
X24737Y6040D02*
X24947D01*
X25847D02*
X26447D01*
X27737D02*
X28427D01*
X24737Y6010D02*
X24947D01*
X25847D02*
X26477D01*
X27707D02*
X28427D01*
X24737Y5980D02*
X24947D01*
X25847D02*
X26507D01*
X27677D02*
X28427D01*
X24737Y5950D02*
X24947D01*
X25847D02*
X26537D01*
X27647D02*
X28427D01*
X24737Y5920D02*
X24947D01*
X25847D02*
X26567D01*
X27617D02*
X28427D01*
X24737Y5890D02*
X24947D01*
X25847D02*
X26597D01*
X27617D02*
X28427D01*
X24737Y5860D02*
X24947D01*
X25847D02*
X26627D01*
X27587D02*
X28427D01*
X24737Y5830D02*
X24947D01*
X25847D02*
X26657D01*
X27557D02*
X28427D01*
X24737Y5800D02*
X24947D01*
X25847D02*
X26687D01*
X27527D02*
X28427D01*
X24737Y5770D02*
X24947D01*
X25847D02*
X26717D01*
X27497D02*
X28427D01*
X24737Y5740D02*
X24947D01*
X25847D02*
X26747D01*
X27467D02*
X28427D01*
X24737Y5710D02*
X24947D01*
X25877D02*
X26777D01*
X27437D02*
X28427D01*
X24737Y5680D02*
X24947D01*
X25907D02*
X26807D01*
X27407D02*
X28427D01*
X24737Y5650D02*
X24947D01*
X25667D02*
X25787D01*
X25937D02*
X26837D01*
X27377D02*
X28427D01*
X24737Y5620D02*
X24947D01*
X25607D02*
X25817D01*
X25967D02*
X26867D01*
X27347D02*
X28427D01*
X24737Y5590D02*
X24947D01*
X25517D02*
X25847D01*
X25967D02*
X26897D01*
X27317D02*
X28427D01*
X24737Y5560D02*
X24947D01*
X25487D02*
X25877D01*
X26027D02*
X26927D01*
X27287D02*
X28427D01*
X24737Y5530D02*
X24947D01*
X25427D02*
X25907D01*
X26057D02*
X26957D01*
X27257D02*
X28427D01*
X24737Y5500D02*
X24947D01*
X25397D02*
X25937D01*
X26087D02*
X26987D01*
X27227D02*
X28427D01*
X24737Y5470D02*
X24947D01*
X25367D02*
X25967D01*
X26117D02*
X27017D01*
X27197D02*
X28427D01*
X24737Y5440D02*
X24947D01*
X25337D02*
X25997D01*
X26147D02*
X27047D01*
X27167D02*
X28427D01*
X24737Y5410D02*
X24947D01*
X25307D02*
X26027D01*
X26177D02*
X27077D01*
X27137D02*
X28427D01*
X24737Y5380D02*
X24947D01*
X25277D02*
X26057D01*
X26207D02*
X28427D01*
X24737Y5350D02*
X24947D01*
X25247D02*
X26087D01*
X26237D02*
X28427D01*
X24737Y5320D02*
X24947D01*
X25247D02*
X26117D01*
X26267D02*
X28427D01*
X24737Y5290D02*
X24947D01*
X25217D02*
X26147D01*
X26297D02*
X28427D01*
X24737Y5260D02*
X24947D01*
X25187D02*
X26177D01*
X26327D02*
X28427D01*
X24737Y5230D02*
X24947D01*
X25187D02*
X26207D01*
X26357D02*
X28427D01*
X24737Y5200D02*
X24947D01*
X25157D02*
X26237D01*
X26387D02*
X28427D01*
X24737Y5170D02*
X24947D01*
X25157D02*
X26267D01*
X26417D02*
X28427D01*
X24737Y5140D02*
X24947D01*
X25157D02*
X26297D01*
X26447D02*
X28427D01*
X24737Y5110D02*
X24947D01*
X25127D02*
X26327D01*
X26477D02*
X28427D01*
X24737Y5080D02*
X24947D01*
X25127D02*
X26357D01*
X26507D02*
X27707D01*
X27737D02*
X28427D01*
X24737Y5050D02*
X24947D01*
X25127D02*
X25877D01*
X26537D02*
X27677D01*
X27737D02*
X28427D01*
X24737Y5020D02*
X24947D01*
X25127D02*
X25817D01*
X26567D02*
X27647D01*
X27737D02*
X28427D01*
X24737Y4990D02*
X24947D01*
X25127D02*
X25787D01*
X26627D02*
X27617D01*
X27737D02*
X28427D01*
X24737Y4960D02*
X24947D01*
X25127D02*
X25757D01*
X26657D02*
X27587D01*
X27737D02*
X28427D01*
X24737Y4930D02*
X24947D01*
X25097D02*
X25757D01*
X26687D02*
X27557D01*
X27737D02*
X28427D01*
X24737Y4900D02*
X24947D01*
X25097D02*
X25757D01*
X26717D02*
X27527D01*
X27737D02*
X28427D01*
X24737Y4870D02*
X24947D01*
X25097D02*
X25757D01*
X26747D02*
X27497D01*
X27737D02*
X28427D01*
X24737Y4840D02*
X24947D01*
X25127D02*
X25757D01*
X26777D02*
X27467D01*
X27737D02*
X28427D01*
X24737Y4810D02*
X24947D01*
X25127D02*
X25787D01*
X27737D02*
X28427D01*
X24737Y4780D02*
X24947D01*
X25127D02*
X25817D01*
X27737D02*
X28427D01*
X24737Y4750D02*
X24947D01*
X25127D02*
X25847D01*
X27737D02*
X28427D01*
X24737Y4720D02*
X24947D01*
X25127D02*
X27017D01*
X27737D02*
X28427D01*
X24737Y4690D02*
X24947D01*
X25127D02*
X27137D01*
X27737D02*
X28427D01*
X24737Y4660D02*
X24947D01*
X25157D02*
X27197D01*
X27737D02*
X28427D01*
X24737Y4630D02*
X24947D01*
X25157D02*
X27257D01*
X27737D02*
X28427D01*
X24737Y4600D02*
X24947D01*
X25157D02*
X27317D01*
X27737D02*
X28427D01*
X24737Y4570D02*
X24947D01*
X25187D02*
X27347D01*
X27737D02*
X28427D01*
X24737Y4540D02*
X24947D01*
X25187D02*
X27377D01*
X27737D02*
X28427D01*
X24737Y4510D02*
X24947D01*
X25217D02*
X27407D01*
X27737D02*
X28427D01*
X24737Y4480D02*
X24947D01*
X25217D02*
X27437D01*
X27737D02*
X28427D01*
X24737Y4450D02*
X24947D01*
X25247D02*
X27467D01*
X27737D02*
X28427D01*
X24737Y4420D02*
X24947D01*
X25277D02*
X27497D01*
X27737D02*
X28427D01*
X24737Y4390D02*
X24947D01*
X25277D02*
X27527D01*
X27737D02*
X28427D01*
X24737Y4360D02*
X24947D01*
X25307D02*
X27527D01*
X27737D02*
X28427D01*
X24737Y4330D02*
X24947D01*
X25337D02*
X27557D01*
X27737D02*
X28427D01*
X24737Y4300D02*
X24947D01*
X25367D02*
X27557D01*
X27737D02*
X28427D01*
X24737Y4270D02*
X24947D01*
X25397D02*
X27587D01*
X27737D02*
X28427D01*
X24737Y4240D02*
X24947D01*
X25457D02*
X27587D01*
X27737D02*
X28427D01*
X24737Y4210D02*
X24947D01*
X25487D02*
X27617D01*
X27737D02*
X28427D01*
X24737Y4180D02*
X24947D01*
X25547D02*
X27617D01*
X27737D02*
X28427D01*
X24737Y4150D02*
X24947D01*
X25607D02*
X27617D01*
X27737D02*
X28427D01*
X24737Y4120D02*
X24947D01*
X25697D02*
X27617D01*
X27737D02*
X28427D01*
X24737Y4090D02*
X24947D01*
X25787D02*
X25817D01*
X26927D02*
X27647D01*
X27737D02*
X28427D01*
X24737Y4060D02*
X24947D01*
X26957D02*
X27647D01*
X27737D02*
X28427D01*
X24737Y4030D02*
X24947D01*
X26987D02*
X27647D01*
X27737D02*
X28427D01*
X24737Y4000D02*
X24947D01*
X27017D02*
X27647D01*
X27737D02*
X28427D01*
X24737Y3970D02*
X24947D01*
X27017D02*
X27647D01*
X27737D02*
X28427D01*
X24737Y3940D02*
X24947D01*
X27017D02*
X27647D01*
X27737D02*
X28427D01*
X24737Y3910D02*
X24947D01*
X27017D02*
X27647D01*
X27737D02*
X28427D01*
X24737Y3880D02*
X24947D01*
X26987D02*
X27647D01*
X27737D02*
X28427D01*
X24737Y3850D02*
X24947D01*
X26957D02*
X27647D01*
X27737D02*
X28427D01*
X24737Y3820D02*
X24947D01*
X26507D02*
X26537D01*
X26927D02*
X27647D01*
X27737D02*
X28427D01*
X24737Y3790D02*
X27617D01*
X27737D02*
X28427D01*
X24737Y3760D02*
X27617D01*
X27737D02*
X28427D01*
X24737Y3730D02*
X27617D01*
X27737D02*
X28427D01*
X24737Y3700D02*
X27617D01*
X27737D02*
X28427D01*
X24737Y3670D02*
X27587D01*
X27737D02*
X28427D01*
X24737Y3640D02*
X27587D01*
X27737D02*
X28427D01*
X24737Y3610D02*
X27557D01*
X27737D02*
X28427D01*
X24737Y3580D02*
X27557D01*
X27737D02*
X28427D01*
X24737Y3550D02*
X27527D01*
X27737D02*
X28427D01*
X24737Y3520D02*
X27527D01*
X27737D02*
X28427D01*
X24737Y3490D02*
X27497D01*
X27737D02*
X28427D01*
X24737Y3460D02*
X27467D01*
X27737D02*
X28427D01*
X24737Y3430D02*
X27437D01*
X27737D02*
X28427D01*
X24737Y3400D02*
X27407D01*
X27737D02*
X28427D01*
X24737Y3370D02*
X27377D01*
X27737D02*
X28427D01*
X24737Y3340D02*
X27347D01*
X27737D02*
X28427D01*
X24737Y3310D02*
X27287D01*
X27737D02*
X28427D01*
X24737Y3280D02*
X27257D01*
X27737D02*
X28427D01*
X24737Y3250D02*
X27197D01*
X27737D02*
X28427D01*
X24737Y3220D02*
X27137D01*
X27737D02*
X28427D01*
X24737Y3190D02*
X27017D01*
X27737D02*
X28427D01*
X24737Y3160D02*
X24947D01*
X28217D02*
X28427D01*
X24737Y3130D02*
X24947D01*
X28217D02*
X28427D01*
X24737Y3100D02*
X24977D01*
X28217D02*
X28427D01*
X24737Y3070D02*
X24977D01*
X28187D02*
X28427D01*
X24737Y3040D02*
X25037D01*
X28157D02*
X28427D01*
X24737Y3010D02*
X28397D01*
X24767Y2980D02*
X28367D01*
X24797Y2950D02*
X28367D01*
X24797Y2920D02*
X28337D01*
X24827Y2890D02*
X28307D01*
X29597D02*
X29747D01*
X24887Y2860D02*
X28247D01*
X29567D02*
X29627D01*
X29717D02*
X29777D01*
X24977Y2830D02*
X28187D01*
X29537D02*
X29567D01*
X29597D02*
X29717D01*
X29777D02*
X29807D01*
X29507Y2800D02*
X29537D01*
X29597D02*
X29627D01*
X29717D02*
X29747D01*
X29807D02*
X29837D01*
X29507Y2770D02*
X29537D01*
X29597D02*
X29627D01*
X29717D02*
X29747D01*
X29807D02*
X29837D01*
X29507Y2740D02*
X29537D01*
X29597D02*
X29627D01*
X29687D02*
X29747D01*
X29807D02*
X29837D01*
X29507Y2710D02*
X29537D01*
X29597D02*
X29717D01*
X29807D02*
X29837D01*
X29507Y2680D02*
X29537D01*
X29597D02*
X29627D01*
X29687D02*
X29717D01*
X29807D02*
X29837D01*
X29507Y2650D02*
X29567D01*
X29597D02*
X29627D01*
X29717D02*
X29747D01*
X29777D02*
X29837D01*
X29537Y2620D02*
X29567D01*
X29597D02*
X29627D01*
X29717D02*
X29807D01*
X29567Y2590D02*
X29627D01*
X29717D02*
X29777D01*
X29627Y2560D02*
X29717D01*
X27407Y2500D02*
X27587D01*
X27287Y2470D02*
X27707D01*
X29237D02*
X29447D01*
X27197Y2440D02*
X27767D01*
X29147D02*
X29447D01*
X23987Y2410D02*
X24257D01*
X24977D02*
X25247D01*
X25367D02*
X25517D01*
X26417D02*
X26597D01*
X26717D02*
X26897D01*
X27137D02*
X27797D01*
X29087D02*
X29447D01*
X23987Y2380D02*
X24257D01*
X24947D02*
X25217D01*
X25337D02*
X25517D01*
X26417D02*
X26597D01*
X26717D02*
X26897D01*
X27107D02*
X27827D01*
X29057D02*
X29417D01*
X29507D02*
X29747D01*
X23987Y2350D02*
X24257D01*
X24947D02*
X25217D01*
X25337D02*
X25517D01*
X26417D02*
X26597D01*
X26717D02*
X26867D01*
X27077D02*
X27857D01*
X29057D02*
X29417D01*
X29477D02*
X29747D01*
X23987Y2320D02*
X24287D01*
X24917D02*
X25217D01*
X25337D02*
X25517D01*
X26417D02*
X26567D01*
X26717D02*
X26867D01*
X27047D02*
X27887D01*
X29027D02*
X29417D01*
X29477D02*
X29717D01*
X23957Y2290D02*
X24287D01*
X24887D02*
X25217D01*
X25337D02*
X25487D01*
X26417D02*
X26567D01*
X26687D02*
X26867D01*
X27017D02*
X27887D01*
X29027D02*
X29417D01*
X29477D02*
X29717D01*
X23957Y2260D02*
X24287D01*
X24887D02*
X25187D01*
X25337D02*
X25487D01*
X26417D02*
X26567D01*
X26687D02*
X26867D01*
X27017D02*
X27317D01*
X27557D02*
X27887D01*
X28997D02*
X29267D01*
X29477D02*
X29717D01*
X23957Y2230D02*
X24287D01*
X24857D02*
X25187D01*
X26687D02*
X26867D01*
X26987D02*
X27257D01*
X27617D02*
X27917D01*
X28997D02*
X29267D01*
X29477D02*
X29717D01*
X23957Y2200D02*
X24287D01*
X24857D02*
X25187D01*
X26687D02*
X26837D01*
X26987D02*
X27227D01*
X27647D02*
X27917D01*
X28997D02*
X29237D01*
X29447D02*
X29717D01*
X23957Y2170D02*
X24287D01*
X24827D02*
X25187D01*
X26657D02*
X26837D01*
X26957D02*
X27227D01*
X27647D02*
X27917D01*
X28337D02*
X28517D01*
X28997D02*
X29237D01*
X29447D02*
X29687D01*
X23927Y2140D02*
X24107D01*
X24137D02*
X24287D01*
X24827D02*
X24977D01*
X25007D02*
X25187D01*
X26657D02*
X26837D01*
X26957D02*
X27197D01*
X27647D02*
X27917D01*
X28217D02*
X28637D01*
X28877D02*
X29837D01*
X23927Y2110D02*
X24107D01*
X24137D02*
X24317D01*
X24797D02*
X24977D01*
X25007D02*
X25157D01*
X26657D02*
X26837D01*
X26957D02*
X27197D01*
X27647D02*
X27917D01*
X28157D02*
X28697D01*
X28847D02*
X29837D01*
X23927Y2080D02*
X24107D01*
X24137D02*
X24317D01*
X24767D02*
X24947D01*
X24977D02*
X25157D01*
X25277D02*
X25457D01*
X25487D02*
X25667D01*
X26147D02*
X26327D01*
X26357D02*
X26537D01*
X26657D02*
X26807D01*
X26957D02*
X27197D01*
X28097D02*
X28727D01*
X28847D02*
X29837D01*
X23927Y2050D02*
X24077D01*
X24137D02*
X24317D01*
X24767D02*
X24917D01*
X24977D02*
X25157D01*
X25277D02*
X25457D01*
X25487D02*
X25667D01*
X26147D02*
X26327D01*
X26357D02*
X26507D01*
X26657D02*
X26807D01*
X26957D02*
X27227D01*
X28067D02*
X28757D01*
X28847D02*
X29837D01*
X23897Y2020D02*
X24077D01*
X24137D02*
X24317D01*
X24737D02*
X24917D01*
X24977D02*
X25157D01*
X25277D02*
X25427D01*
X25487D02*
X25667D01*
X26117D02*
X26297D01*
X26357D02*
X26507D01*
X26627D02*
X26807D01*
X26957D02*
X27287D01*
X28037D02*
X28757D01*
X28847D02*
X29807D01*
X23897Y1990D02*
X24077D01*
X24137D02*
X24317D01*
X24737D02*
X24887D01*
X24977D02*
X25127D01*
X25277D02*
X25427D01*
X25487D02*
X25667D01*
X26087D02*
X26297D01*
X26327D02*
X26507D01*
X26627D02*
X26807D01*
X26957D02*
X27377D01*
X28007D02*
X28787D01*
X28817D02*
X29807D01*
X23897Y1960D02*
X24077D01*
X24167D02*
X24317D01*
X24707D02*
X24887D01*
X24947D02*
X25127D01*
X25247D02*
X25427D01*
X25487D02*
X25667D01*
X26087D02*
X26267D01*
X26327D02*
X26507D01*
X26627D02*
X26807D01*
X26957D02*
X27497D01*
X27977D02*
X28337D01*
X28457D02*
X28787D01*
X28847D02*
X29807D01*
X23897Y1930D02*
X24077D01*
X24167D02*
X24317D01*
X24707D02*
X24857D01*
X24947D02*
X25127D01*
X25247D02*
X25427D01*
X25487D02*
X25697D01*
X26057D02*
X26237D01*
X26327D02*
X26507D01*
X26627D02*
X26777D01*
X26957D02*
X27617D01*
X27977D02*
X28277D01*
X28517D02*
X28787D01*
X28937D02*
X29207D01*
X29417D02*
X29657D01*
X23897Y1900D02*
X24047D01*
X24167D02*
X24317D01*
X24677D02*
X24857D01*
X24947D02*
X25127D01*
X25247D02*
X25427D01*
X25517D02*
X25697D01*
X26057D02*
X26237D01*
X26327D02*
X26477D01*
X26597D02*
X26777D01*
X26987D02*
X27707D01*
X27947D02*
X28217D01*
X28517D02*
X28817D01*
X28937D02*
X29177D01*
X29417D02*
X29657D01*
X23867Y1870D02*
X24047D01*
X24167D02*
X24347D01*
X24647D02*
X24827D01*
X24947D02*
X25127D01*
X25247D02*
X25397D01*
X25517D02*
X25697D01*
X26027D02*
X26207D01*
X26297D02*
X26477D01*
X26597D02*
X26777D01*
X27017D02*
X27767D01*
X27947D02*
X28217D01*
X28547D02*
X28817D01*
X28937D02*
X29177D01*
X29387D02*
X29657D01*
X23867Y1840D02*
X24047D01*
X24167D02*
X24347D01*
X24647D02*
X24797D01*
X24917D02*
X25097D01*
X25217D02*
X25397D01*
X25517D02*
X25697D01*
X26027D02*
X26177D01*
X26297D02*
X26477D01*
X26597D02*
X26777D01*
X27047D02*
X27797D01*
X27917D02*
X28187D01*
X28547D02*
X28817D01*
X28937D02*
X29177D01*
X29387D02*
X29627D01*
X23867Y1810D02*
X24047D01*
X24167D02*
X24347D01*
X24617D02*
X24797D01*
X24917D02*
X25097D01*
X25217D02*
X25397D01*
X25517D02*
X25697D01*
X25997D02*
X26177D01*
X26297D02*
X26477D01*
X26597D02*
X26747D01*
X27077D02*
X27827D01*
X27917D02*
X28157D01*
X28547D02*
X28817D01*
X28937D02*
X29177D01*
X29387D02*
X29627D01*
X23867Y1780D02*
X24047D01*
X24167D02*
X24347D01*
X24617D02*
X24767D01*
X24917D02*
X25097D01*
X25217D02*
X25397D01*
X25517D02*
X25697D01*
X25967D02*
X26147D01*
X26297D02*
X26447D01*
X26597D02*
X26747D01*
X27167D02*
X27827D01*
X27887D02*
X28157D01*
X28547D02*
X28817D01*
X28907D02*
X29177D01*
X29387D02*
X29627D01*
X23837Y1750D02*
X24017D01*
X24197D02*
X24347D01*
X24587D02*
X24767D01*
X24917D02*
X25097D01*
X25217D02*
X25367D01*
X25517D02*
X25697D01*
X25967D02*
X26147D01*
X26297D02*
X26447D01*
X26567D02*
X26747D01*
X27287D02*
X27857D01*
X27887D02*
X28157D01*
X28547D02*
X28817D01*
X28907D02*
X29177D01*
X29387D02*
X29627D01*
X23837Y1720D02*
X24017D01*
X24197D02*
X24347D01*
X24587D02*
X24737D01*
X24917D02*
X25067D01*
X25217D02*
X25367D01*
X25547D02*
X25697D01*
X25937D02*
X26117D01*
X26267D02*
X26447D01*
X26567D02*
X26747D01*
X27407D02*
X27857D01*
X27887D02*
X28127D01*
X28547D02*
X28817D01*
X28907D02*
X29147D01*
X29357D02*
X29627D01*
X23837Y1690D02*
X24017D01*
X24197D02*
X24347D01*
X24557D02*
X24707D01*
X24887D02*
X25067D01*
X25187D02*
X25367D01*
X25547D02*
X25727D01*
X25937D02*
X26087D01*
X26267D02*
X26447D01*
X26567D02*
X26747D01*
X27497D02*
X28127D01*
X28547D02*
X28817D01*
X28907D02*
X29147D01*
X29357D02*
X29597D01*
X23837Y1660D02*
X24017D01*
X24197D02*
X24377D01*
X24527D02*
X24707D01*
X24887D02*
X25067D01*
X25187D02*
X25367D01*
X25547D02*
X25727D01*
X25907D02*
X26087D01*
X26267D02*
X26447D01*
X26567D02*
X26717D01*
X27557D02*
X28127D01*
X28547D02*
X28817D01*
X28907D02*
X29147D01*
X29357D02*
X29597D01*
X23837Y1630D02*
X23987D01*
X24197D02*
X24377D01*
X24527D02*
X24677D01*
X24887D02*
X25067D01*
X25187D02*
X25367D01*
X25547D02*
X25727D01*
X25877D02*
X26057D01*
X26267D02*
X26417D01*
X26537D02*
X26717D01*
X27587D02*
X28127D01*
X28547D02*
X28787D01*
X28907D02*
X29147D01*
X29357D02*
X29597D01*
X23807Y1600D02*
X23987D01*
X24197D02*
X24377D01*
X24497D02*
X24677D01*
X24887D02*
X25067D01*
X25187D02*
X25337D01*
X25547D02*
X25727D01*
X25877D02*
X26027D01*
X26237D02*
X26417D01*
X26537D02*
X26717D01*
X26837D02*
X27107D01*
X27587D02*
X28127D01*
X28517D02*
X28787D01*
X28877D02*
X29147D01*
X29357D02*
X29597D01*
X23807Y1570D02*
X23987D01*
X24197D02*
X24377D01*
X24497D02*
X24647D01*
X24857D02*
X25037D01*
X25157D02*
X25337D01*
X25547D02*
X25727D01*
X25847D02*
X26027D01*
X26237D02*
X26417D01*
X26537D02*
X26717D01*
X26837D02*
X27107D01*
X27587D02*
X28127D01*
X28517D02*
X28787D01*
X28877D02*
X29117D01*
X29327D02*
X29597D01*
X23807Y1540D02*
X23987D01*
X24197D02*
X24377D01*
X24467D02*
X24647D01*
X24857D02*
X25037D01*
X25157D02*
X25337D01*
X25547D02*
X25727D01*
X25847D02*
X25997D01*
X26237D02*
X26417D01*
X26537D02*
X26687D01*
X26837D02*
X27107D01*
X27587D02*
X27827D01*
X27857D02*
X28127D01*
X28487D02*
X28757D01*
X28877D02*
X29117D01*
X29327D02*
X29567D01*
X23807Y1510D02*
X23987D01*
X24227D02*
X24377D01*
X24437D02*
X24617D01*
X24857D02*
X25037D01*
X25157D02*
X25337D01*
X25577D02*
X25727D01*
X25817D02*
X25997D01*
X26237D02*
X26417D01*
X26537D02*
X26687D01*
X26837D02*
X27107D01*
X27557D02*
X27827D01*
X27857D02*
X28127D01*
X28487D02*
X28757D01*
X28877D02*
X29117D01*
X29327D02*
X29567D01*
X23777Y1480D02*
X23957D01*
X24227D02*
X24377D01*
X24437D02*
X24587D01*
X24857D02*
X25037D01*
X25157D02*
X25337D01*
X25577D02*
X25727D01*
X25817D02*
X25967D01*
X26237D02*
X26387D01*
X26507D02*
X26687D01*
X26837D02*
X27137D01*
X27527D02*
X27827D01*
X27857D02*
X28157D01*
X28457D02*
X28727D01*
X28877D02*
X29117D01*
X29327D02*
X29567D01*
X23777Y1450D02*
X23957D01*
X24227D02*
X24377D01*
X24407D02*
X24587D01*
X24857D02*
X25007D01*
X25157D02*
X25307D01*
X25577D02*
X25757D01*
X25787D02*
X25937D01*
X26207D02*
X26387D01*
X26507D02*
X26687D01*
X26837D02*
X27167D01*
X27497D02*
X27797D01*
X27887D02*
X28157D01*
X28427D02*
X28727D01*
X28847D02*
X29117D01*
X29327D02*
X29567D01*
X23777Y1420D02*
X23957D01*
X24227D02*
X24557D01*
X24827D02*
X25007D01*
X25127D02*
X25307D01*
X25577D02*
X25937D01*
X26207D02*
X26387D01*
X26507D02*
X26687D01*
X26837D02*
X27767D01*
X27887D02*
X28217D01*
X28367D02*
X28697D01*
X28847D02*
X29117D01*
X29327D02*
X29567D01*
X23777Y1390D02*
X23957D01*
X24227D02*
X24557D01*
X24827D02*
X25007D01*
X25127D02*
X25307D01*
X25577D02*
X25907D01*
X26207D02*
X26387D01*
X26507D02*
X26657D01*
X26867D02*
X27767D01*
X27887D02*
X28667D01*
X28847D02*
X29087D01*
X29297D02*
X29687D01*
X23777Y1360D02*
X23927D01*
X24227D02*
X24527D01*
X24827D02*
X25007D01*
X25127D02*
X25307D01*
X25577D02*
X25907D01*
X26207D02*
X26357D01*
X26477D02*
X26657D01*
X26867D02*
X27737D01*
X27917D02*
X28637D01*
X28847D02*
X29087D01*
X29297D02*
X29687D01*
X23747Y1330D02*
X23927D01*
X24227D02*
X24527D01*
X24827D02*
X25007D01*
X25127D02*
X25277D01*
X25607D02*
X25877D01*
X26177D02*
X26357D01*
X26477D02*
X26657D01*
X26897D02*
X27707D01*
X27917D02*
X28607D01*
X28847D02*
X29087D01*
X29297D02*
X29687D01*
X23747Y1300D02*
X23927D01*
X24257D02*
X24497D01*
X24797D02*
X24977D01*
X25097D02*
X25277D01*
X25607D02*
X25847D01*
X26177D02*
X26357D01*
X26477D02*
X26657D01*
X26927D02*
X27647D01*
X27947D02*
X28577D01*
X28847D02*
X29087D01*
X29327D02*
X29687D01*
X23747Y1270D02*
X23927D01*
X24257D02*
X24467D01*
X24797D02*
X24977D01*
X25097D02*
X25277D01*
X25607D02*
X25847D01*
X26177D02*
X26357D01*
X26477D02*
X26627D01*
X26987D02*
X27617D01*
X27977D02*
X28547D01*
X28817D02*
X29087D01*
X29327D02*
X29687D01*
X23747Y1240D02*
X23927D01*
X24257D02*
X24467D01*
X24797D02*
X24977D01*
X25097D02*
X25277D01*
X25607D02*
X25817D01*
X26177D02*
X26357D01*
X26477D02*
X26627D01*
X27047D02*
X27527D01*
X28037D02*
X28487D01*
X28817D02*
X29057D01*
X29387D02*
X29687D01*
X23747Y1210D02*
X23897D01*
X24257D02*
X24437D01*
X24797D02*
X24977D01*
X25097D02*
X25247D01*
X25607D02*
X25787D01*
X26177D02*
X26327D01*
X26477D02*
X26627D01*
X27137D02*
X27437D01*
X28127D02*
X28367D01*
D49*
X22620Y15999D02*
Y16333D01*
X22370D01*
X22453Y16166D01*
Y16083D01*
X22370Y15999D01*
X22203D01*
X22120Y16083D01*
Y16249D01*
X22203Y16333D01*
X22120Y18533D02*
Y18366D01*
Y18449D01*
X22620D01*
X22537Y18533D01*
D50*
X26464Y8702D02*
D03*
D51*
X26484Y12566D02*
D03*
D52*
X26496Y11686D02*
D03*
D53*
X10326Y11735D02*
D03*
D54*
X14188Y11717D02*
D03*
D55*
X13313Y11701D02*
D03*
M02*
