M48
;Layer_Color=9474304
;FILE_FORMAT=2:4
INCH,LZ
;TYPE=PLATED
T1F00S00C0.0335
T2F00S00C0.0354
T3F00S00C0.0394
T4F00S00C0.0400
T5F00S00C0.1575
;TYPE=NON_PLATED
T6F00S00C0.1280
%
T01
X0075Y008008
Y011008
Y013596
Y016596
X049307Y010295
X052307
X063087Y01187
X066087
T02
X004307Y012589
Y013589
Y014589
Y015589
X005307Y015089
Y014089
Y013089
Y012089
X03539Y011795
X03639
X03739
X03839
X03939
X04039
X04139
X04239
X04339
Y008795
X04239
X04139
X04039
X03939
X03839
X03739
X03639
X03539
X071898Y009439
Y010439
Y011439
Y012439
X072898Y011939
Y010939
Y009939
Y008939
T03
X008996Y014154
Y015984
X026791Y008327
Y006358
T04
X013022Y004262
Y005285
X013022Y01686
Y017884
X058297Y011978
Y010955
T05
X074036Y002067
X002658
X074036Y02002
X002658
T06
X001807Y011589
Y016089
X075398Y012939
Y008439
M30
