%FSLAX24Y24*%
%MOIN*%
G70*
G01*
G75*
G04 Layer_Physical_Order=2*
G04 Layer_Color=16711680*
%ADD10C,0.0276*%
%ADD11C,0.0394*%
%ADD12R,0.0669X0.0669*%
%ADD13C,0.0669*%
%ADD14C,0.2756*%
%ADD15C,0.0709*%
%ADD16R,0.0709X0.0709*%
%ADD17C,0.1161*%
%ADD18C,0.0787*%
G36*
X48500Y10289D02*
X48689Y9832D01*
X48689Y9832D01*
X48689Y9832D01*
X48735Y9723D01*
X48852Y9674D01*
X48698Y8902D01*
X47109D01*
X46368Y9642D01*
X46670Y10370D01*
X48419D01*
X48500Y10289D01*
D02*
G37*
G36*
X26091Y9166D02*
X26189Y8929D01*
D01*
Y8929D01*
D01*
D01*
X25939Y8327D01*
D01*
D01*
D01*
X25939D01*
Y8327D01*
X25682Y7942D01*
X20993D01*
X20012Y8924D01*
X20313Y9651D01*
X24920D01*
X26091Y9166D01*
D02*
G37*
G36*
X65315Y12268D02*
X65393Y12151D01*
X65277Y11870D01*
X65514Y11298D01*
X66080Y11063D01*
X66111Y11032D01*
X66230Y10983D01*
X66518Y10864D01*
X68835D01*
X70350Y10236D01*
Y9106D01*
X70146Y8902D01*
X52916D01*
X52763Y9674D01*
X52880Y9723D01*
X53061Y10161D01*
X53280Y10379D01*
X57732D01*
X58188Y10190D01*
D01*
X58297Y10145D01*
X58870Y10382D01*
X58915Y10492D01*
D01*
X59107Y10955D01*
X59107Y10955D01*
X59107Y10955D01*
X59364Y11339D01*
X62497D01*
X62514Y11298D01*
X62871Y11150D01*
X63087Y11060D01*
Y11060D01*
X63087Y11060D01*
Y11060D01*
X63659Y11298D01*
X63830Y11709D01*
X64760Y12639D01*
X65315Y12268D01*
D02*
G37*
G36*
X34662Y8067D02*
D01*
Y8067D01*
X34537Y7942D01*
X28211D01*
X27840Y8637D01*
X28077Y8992D01*
X34662D01*
Y8067D01*
D02*
G37*
G36*
X1016Y10798D02*
X1807Y10470D01*
X1920Y10517D01*
X2574Y10079D01*
Y9104D01*
X2743Y8698D01*
X9032Y2408D01*
X9439Y2240D01*
X14587D01*
X14994Y2408D01*
X15417Y2831D01*
X15585Y3238D01*
Y4754D01*
X15417Y5161D01*
X14885Y5692D01*
X14479Y5861D01*
X13588D01*
X13131Y6050D01*
Y6050D01*
D01*
D01*
X13131Y6050D01*
D01*
X13022Y6095D01*
D01*
D01*
D01*
X12449Y5858D01*
Y5858D01*
D01*
D01*
X12404Y5748D01*
D01*
Y5748D01*
D01*
D01*
X12212Y5285D01*
D01*
D01*
D01*
X12212D01*
Y5285D01*
X11913Y4837D01*
X10859D01*
X8258Y7437D01*
X8560Y8165D01*
X17872D01*
X20085Y5951D01*
X20492Y5783D01*
X26178D01*
X26189Y5756D01*
X26703Y5543D01*
Y5543D01*
X26791Y5506D01*
X27394Y5756D01*
X27431Y5844D01*
X27431D01*
X27644Y6358D01*
X27644Y6358D01*
X27644Y6358D01*
X27848Y6664D01*
X42697D01*
X43149Y6851D01*
X43327Y7029D01*
X44017Y6339D01*
X44469Y6152D01*
X71427D01*
X71879Y6339D01*
X73350Y7810D01*
X73537Y8262D01*
X74353D01*
X74607Y7648D01*
X75398Y7320D01*
X76164Y7638D01*
X76818Y7200D01*
Y1D01*
X76818Y1D01*
X76818Y1D01*
X76818Y0D01*
X75686D01*
X75392Y711D01*
X75953Y2067D01*
X75392Y3423D01*
X74036Y3985D01*
X72680Y3423D01*
X72118Y2067D01*
X72680Y711D01*
Y711D01*
Y711D01*
X72385Y0D01*
X4308D01*
X4014Y711D01*
X4575Y2067D01*
X4014Y3423D01*
X2658Y3985D01*
X1302Y3423D01*
X775Y2152D01*
X3Y2306D01*
X15Y11196D01*
X788Y11350D01*
X1016Y10798D01*
D02*
G37*
G36*
X1302Y711D02*
Y711D01*
Y711D01*
X1147Y337D01*
X374Y183D01*
X1Y557D01*
X2Y1830D01*
X775Y1983D01*
X1302Y711D01*
D02*
G37*
G36*
X6690Y8008D02*
X6690Y8008D01*
X6690D01*
X6925Y7442D01*
Y7382D01*
X7029Y7131D01*
X6374Y6694D01*
X5630Y7437D01*
X5862Y7997D01*
X6646Y8075D01*
X6690Y8008D01*
D02*
G37*
G36*
X56996Y12257D02*
X56695Y11530D01*
X53041D01*
X52635Y11362D01*
X52357Y11084D01*
X52307Y11105D01*
X51827Y10906D01*
X51735Y10868D01*
X51735Y10868D01*
X51735Y10868D01*
X51498Y10295D01*
X51735Y9723D01*
X51852Y9674D01*
X51698Y8902D01*
X49916D01*
X49763Y9674D01*
X49880Y9723D01*
X50072Y10186D01*
X50072D01*
D01*
D01*
X50072Y10186D01*
D01*
D01*
X50117Y10295D01*
D01*
D01*
D01*
X49880Y10868D01*
X49880D01*
D01*
D01*
X49770Y10913D01*
X49770Y10913D01*
D01*
D01*
X49770D01*
D01*
D01*
D01*
D01*
Y10913D01*
X49314Y11102D01*
X49064Y11352D01*
X48658Y11520D01*
X45048D01*
X44746Y12248D01*
X45462Y12963D01*
X56291D01*
X56996Y12257D01*
D02*
G37*
G36*
X15463Y15693D02*
X15161Y14965D01*
X11912D01*
X11241Y15636D01*
X11542Y16364D01*
X12418D01*
X12449Y16288D01*
X12803Y16141D01*
X13022Y16051D01*
Y16051D01*
X13022Y16051D01*
Y16051D01*
X13594Y16288D01*
X13696Y16533D01*
X14468Y16687D01*
X15463Y15693D01*
D02*
G37*
G36*
X76818Y14178D02*
X76164Y13740D01*
X75398Y14058D01*
X74607Y13730D01*
X74279Y12939D01*
X74607Y12148D01*
X75398Y11820D01*
X76164Y12138D01*
X76818Y11700D01*
Y9678D01*
X76164Y9240D01*
X75398Y9558D01*
X74607Y9230D01*
X74309Y8512D01*
X73537Y8665D01*
Y8939D01*
Y9939D01*
Y10939D01*
X73415Y11233D01*
X73470Y11366D01*
X73470Y11366D01*
X73470Y11366D01*
X73707Y11939D01*
X73470Y12511D01*
X72898Y12749D01*
X72898Y12749D01*
X72898Y12749D01*
X72513Y12908D01*
X72470Y13011D01*
X72059Y13182D01*
X71344Y13897D01*
X70892Y14084D01*
X64662D01*
X64210Y13897D01*
X62930Y12618D01*
X58709D01*
X58297Y12788D01*
X58281Y12781D01*
X57007Y14054D01*
X56555Y14242D01*
X45197D01*
X44877Y14109D01*
X44745Y14054D01*
X44693Y14002D01*
X43965Y14303D01*
Y14563D01*
X43797Y14970D01*
X42622Y16145D01*
X42215Y16313D01*
X16469D01*
X14433Y18350D01*
X14026Y18518D01*
X13445D01*
X13022Y18694D01*
X12599Y18518D01*
X5305D01*
X4898Y18350D01*
X3954Y17405D01*
X3785Y16998D01*
Y16337D01*
X3559D01*
Y16337D01*
X2924D01*
X2802Y16387D01*
X2598Y16880D01*
X1807Y17207D01*
X1016Y16880D01*
X795Y16345D01*
X22Y16499D01*
X27Y19724D01*
X799Y19877D01*
X1302Y18664D01*
X2658Y18102D01*
X4014Y18664D01*
X4575Y20020D01*
X4113Y21135D01*
X4551Y21790D01*
X72143D01*
X72580Y21135D01*
X72118Y20020D01*
X72680Y18664D01*
X74036Y18102D01*
X75392Y18664D01*
X75953Y20020D01*
X75491Y21135D01*
X75929Y21790D01*
X76818D01*
Y14178D01*
D02*
G37*
G36*
X1202Y21135D02*
X800Y20164D01*
X28Y20318D01*
X29Y21534D01*
X783Y21763D01*
X1202Y21135D01*
D02*
G37*
G36*
X6739Y16713D02*
X6690Y16596D01*
X6777Y16387D01*
X6340Y15733D01*
X5707D01*
X5307Y15898D01*
X5307Y15898D01*
X5307Y15898D01*
X5084Y16047D01*
X5007Y16831D01*
X5544Y17368D01*
X6301D01*
X6739Y16713D01*
D02*
G37*
G36*
X70446Y12151D02*
X70390Y12014D01*
X67524D01*
X67153Y12709D01*
X67218Y12806D01*
X70009D01*
X70446Y12151D01*
D02*
G37*
G36*
X41434Y13206D02*
X41362Y12840D01*
X40667Y12469D01*
X40390Y12584D01*
X39890Y12377D01*
X39390Y12584D01*
X39390Y12584D01*
X39390Y12584D01*
X39055Y12695D01*
X38727Y13411D01*
X38894Y13814D01*
X40935D01*
X41434Y13206D01*
D02*
G37*
G36*
X1016Y15298D02*
X1807Y14970D01*
X1920Y15017D01*
X2574Y14579D01*
Y13098D01*
X1920Y12661D01*
X1807Y12707D01*
X1016Y12380D01*
X788Y11830D01*
X16Y11984D01*
X21Y15682D01*
X794Y15835D01*
X1016Y15298D01*
D02*
G37*
D10*
X26791Y8327D02*
Y9114D01*
X13022Y5285D02*
X14479D01*
X37390Y11795D02*
Y12295D01*
X37028Y12657D02*
X37390Y12295D01*
X8439Y12657D02*
X37028D01*
X7500Y13596D02*
X8439Y12657D01*
X37421Y13445D02*
X38390Y12476D01*
Y11795D02*
Y12476D01*
X58179Y11978D02*
X58297D01*
X53041Y10955D02*
X58297D01*
X52419Y10333D02*
X53041Y10955D01*
X41390Y11445D02*
Y11795D01*
X43390Y7996D02*
Y8795D01*
X42390Y11795D02*
Y13201D01*
X43390Y11795D02*
Y14563D01*
X41358Y9114D02*
Y9508D01*
X40390Y8795D02*
X41390D01*
X39390D02*
X40390D01*
X38390D02*
X39390D01*
X35390D02*
X36390D01*
X37390D02*
X38390D01*
X36390D02*
X37390D01*
X11437Y13445D02*
X37421D01*
X5307Y13089D02*
X6006D01*
X6329Y10866D02*
Y12766D01*
X6006Y13089D02*
X6329Y12766D01*
X3150Y15020D02*
X3719Y15589D01*
X4307D01*
X8996Y15965D02*
X10099D01*
X8799Y14154D02*
X8937D01*
X5307Y14089D02*
X5589Y14370D01*
X8583D01*
X8799Y14154D01*
X5307Y15089D02*
X5376Y15157D01*
X9725D01*
X11437Y13445D01*
X10099Y15965D02*
X11673Y14390D01*
X41201D01*
X42390Y13201D01*
X7500Y11006D02*
X7611Y10896D01*
X35916D01*
X36390Y11370D01*
Y11795D01*
X14587Y2815D02*
X15010Y3238D01*
Y4754D01*
X14479Y5285D02*
X15010Y4754D01*
X20492Y6358D02*
X26791D01*
X18110Y8740D02*
X20492Y6358D01*
X5669Y8740D02*
X18110D01*
X4307Y10102D02*
X5669Y8740D01*
X4307Y10102D02*
Y12589D01*
X6329Y10866D02*
X6969Y10226D01*
X38711D01*
X39390Y10906D01*
Y11795D01*
X26791Y9114D02*
X27244Y9567D01*
X39282D01*
X40390Y10675D01*
Y11795D01*
X41358Y9508D02*
X42126Y10276D01*
X44921D01*
X46870Y8327D01*
X41390Y11445D02*
X41890Y10945D01*
X48658D01*
X49307Y10295D01*
X42390Y8795D02*
Y9467D01*
X42618Y9695D01*
X44469D01*
X46624Y7539D01*
X70827D01*
X71898Y8610D01*
Y9439D01*
X66087Y11870D02*
X66518Y11439D01*
X71898D01*
X7500Y16596D02*
X7843Y16939D01*
X12943D01*
X13022Y16860D01*
X5305Y17943D02*
X12963D01*
X13022Y17884D01*
X13081Y17943D01*
X14026D01*
X46870Y8327D02*
X70384D01*
X70925Y8868D01*
Y10236D01*
X71128Y10439D01*
X71898D01*
X3150Y9104D02*
Y15020D01*
Y9104D02*
X9439Y2815D01*
X14587D01*
X4360Y15718D02*
Y16998D01*
X5305Y17943D01*
X7500Y7382D02*
Y8008D01*
Y7382D02*
X10620Y4262D01*
X13022D01*
X62979Y11978D02*
X63087Y11870D01*
X14026Y17943D02*
X16230Y15738D01*
X42215D01*
X43390Y14563D01*
D11*
Y7870D02*
Y8795D01*
X70892Y13445D02*
X71898Y12439D01*
X64662Y13445D02*
X70892D01*
X63087Y11870D02*
X64662Y13445D01*
X5307Y10362D02*
Y12089D01*
Y10362D02*
X6152Y9518D01*
X18514D01*
X43390Y7870D02*
X44469Y6791D01*
X43390Y11795D02*
X45197Y13602D01*
X56555D01*
X58179Y11978D01*
X44469Y6791D02*
X71427D01*
X72898Y8262D01*
Y8939D01*
Y9939D01*
Y10939D01*
X58297Y11978D02*
X62979D01*
X18514Y9518D02*
X20728Y7303D01*
X42697D01*
X43390Y7996D01*
D12*
X35390Y8795D02*
D03*
D13*
X36390D02*
D03*
X37390D02*
D03*
X38390D02*
D03*
X39390D02*
D03*
X40390D02*
D03*
X41390D02*
D03*
X42390D02*
D03*
X43390D02*
D03*
X35390Y11795D02*
D03*
X36390D02*
D03*
X37390D02*
D03*
X38390D02*
D03*
X39390D02*
D03*
X40390D02*
D03*
X41390D02*
D03*
X42390D02*
D03*
X43390D02*
D03*
D14*
X74036Y2067D02*
D03*
Y20020D02*
D03*
X2658D02*
D03*
Y2067D02*
D03*
D15*
X5307Y12089D02*
D03*
Y15089D02*
D03*
X4307Y12589D02*
D03*
X5307Y13089D02*
D03*
Y14089D02*
D03*
X4307Y13589D02*
D03*
Y14589D02*
D03*
X7500Y11008D02*
D03*
Y8008D02*
D03*
Y13596D02*
D03*
Y16596D02*
D03*
X58297Y10955D02*
D03*
Y11978D02*
D03*
X13022Y4262D02*
D03*
Y5285D02*
D03*
X13022Y16860D02*
D03*
Y17884D02*
D03*
X71898Y12439D02*
D03*
Y9439D02*
D03*
X72898Y11939D02*
D03*
X71898Y11439D02*
D03*
Y10439D02*
D03*
X72898Y10939D02*
D03*
Y9939D02*
D03*
X52307Y10295D02*
D03*
X49307D02*
D03*
X63087Y11870D02*
D03*
X66087D02*
D03*
D16*
X4307Y15589D02*
D03*
X72898Y8939D02*
D03*
D17*
X1807Y16089D02*
D03*
Y11589D02*
D03*
X75398Y8439D02*
D03*
Y12939D02*
D03*
D18*
X26791Y6358D02*
D03*
Y8327D02*
D03*
X8996Y15984D02*
D03*
Y14154D02*
D03*
M02*
