M48
;Layer_Color=9474304
;FILE_FORMAT=2:4
INCH,LZ
;TYPE=PLATED
T1F00S00C0.0280
T2F00S00C0.0315
T3F00S00C0.0335
T4F00S00C0.0354
T5F00S00C0.0394
T6F00S00C0.0400
T7F00S00C0.0433
T8F00S00C0.0591
T9F00S00C0.0600
T10F00S00C0.1024
T11F00S00C0.1181
T12F00S00C0.1575
;TYPE=NON_PLATED
T13F00S00C0.1280
%
T01
X040498Y000544
X048628Y001084
X075502Y001457
X070568Y009214
X069318
X068048Y008564
X075108Y015064
X060328Y012704
X0599Y010323
X057284Y007158
X053178Y008234
X053718Y005094
X050468Y002984
X050018Y010114
X052508Y015454
X058418Y002964
X043518Y002924
X035488Y001744
X033819Y007283
X033878Y016191
X037188Y014534
X042998Y014094
X031868Y014424
X023918Y013884
X022342Y007164
X026978Y005164
X030878Y005614
X030448Y002154
X017808Y002324
X009928Y019724
X026038Y018064
X027573Y02002
X028268Y020494
X049998Y017874
X060588Y020594
X061276Y020394
X069008Y018134
T02
X067203Y007096
X068203
Y009963
X067203
Y01283
X068203
Y015696
X067203
X055937Y006693
X053937
X047276Y008661
X045276
X018209Y012303
X017209
X014606Y002638
X012638
X067913Y017504
Y018504
Y019504
T03
X064689Y003858
X077165Y005043
Y002043
X073941Y012402
X070941
X061689Y003858
X027165Y003095
X026324
X025482
X02464
X023798
X022956
X022114
X021273
X020431
X019589
X018747
X017905
Y006095
X018747
X019589
X020431
X021273
X022114
X022956
X023798
X02464
X025482
X026324
X027165
X02122Y01035
Y01335
X017063Y006095
Y003095
X004728Y002028
X001728
X068972Y019488
X071972
T04
X065417Y002067
X07126Y003937
Y004937
Y005937
X079281Y005644
Y004644
Y006644
Y007644
Y008644
Y009644
X077996Y012817
Y013817
Y014817
Y015817
X076996Y015317
Y014317
Y013317
Y016317
X07126Y016323
Y015323
X0658Y015818
Y016818
Y014818
Y013818
Y012818
Y011818
Y010818
Y009818
X0628
Y010818
Y011818
Y012818
Y013818
Y014818
Y015818
Y016818
X061084Y015417
X060084
X059084
Y011882
X060084
X061084
Y008849
X060084
X059084
X058218Y004643
X057218
X056219
X055219
X054219
X053218
X052218
X051219
X050219
Y001643
X051219
X052218
X053218
X054219
X055219
X056219
X057218
X058218
X061417Y002067
X062417
X063417
X064417
X056493Y011381
X055493
X054493
X053493
X052493
X051493
X050493
X049493
X048493
X047493
X046493
X045493
X044493
X043493
X042493
X041493
X040493
X039493
X038493
X037493
X037322Y00466
X036322
X038322
X039322
Y001626
X038322
X037322
X036322
X031878Y003107
Y004107
X030328
Y003107
Y006157
Y007157
X031878
Y006157
X032874Y015354
Y016354
X029874
Y015354
X023984Y011992
Y010992
Y009992
X014205Y010827
X012205
X012024Y007799
X013024
X014024
X015024
Y004799
X014024
X013024
X012024
X011024
X010024
X009024
X008024
X007024
X004518Y005056
Y006056
Y007056
X003518Y006556
Y005556
Y004556
X004518Y004056
X003518Y007556
X007024Y007799
X008024
X009024
X010024
X011024
X029874Y017354
Y018354
X032874
Y017354
X037493Y017381
X038493
X039493
X040493
X041493
X042493
X043493
X044493
X045493
X046493
X047493
X048493
X049493
X050493
X051493
X052493
X053493
X054493
X055493
X056493
X059084Y018451
X060084
X061084
X07126Y017323
T05
X067898Y002067
X069898
X069193Y003429
Y005429
X071441Y011417
X073441
X058807Y006693
X057807
X052045
X051045
X050158Y008661
X049158
X043392
X042392
X043718Y004107
X045686
X044702Y002926
X034893Y011324
Y013324
X031102Y012417
Y010417
X019898Y009646
Y007677
X017898
Y009646
X017387Y01437
Y016343
X015387
Y01437
X075378Y019291
X077378
T06
X037181Y019196
X038181
X039181
X040181
X041181
X042181
X043181
X044181
X045181
X046181
X047181
X048181
X049181
X050181
X051181
X052181
T07
X012598Y014016
Y014685
Y015354
Y016024
Y016693
T08
X00415Y010956
Y012531
Y014106
Y015681
X001985
Y014106
Y012531
Y010956
Y017256
Y01883
X00415
Y017256
X019425Y017717
X027425
T09
X006693Y011014
Y016929
X010827Y019075
X016742
T10
X009218Y010011
Y01198
Y013948
Y015917
T11
X064602Y006656
X035143Y006666
Y018881
X064602Y018861
T12
X079134Y001969
X008268
Y019685
X079134
T13
X080496Y012317
Y016817
X001018Y008056
Y003556
M30
