%FSLAX24Y24*%
%MOIN*%
G70*
G01*
G75*
G04 Layer_Color=32896*
%ADD10C,0.0787*%
%ADD11C,0.0197*%
%ADD12C,0.0276*%
%ADD13C,0.0394*%
%ADD14C,0.0472*%
%ADD15C,0.0315*%
%ADD16C,0.0551*%
%ADD17C,0.2362*%
%ADD18C,0.0650*%
%ADD19C,0.0591*%
%ADD20R,0.0591X0.0591*%
%ADD21R,0.0591X0.0591*%
%ADD22C,0.1161*%
%ADD23C,0.0630*%
%ADD24C,0.0591*%
%ADD25R,0.0591X0.0591*%
%ADD26R,0.0630X0.0630*%
%ADD27C,0.0630*%
%ADD28C,0.1181*%
%ADD29R,0.1181X0.1181*%
%ADD30C,0.0669*%
%ADD31R,0.0669X0.0669*%
%ADD32O,0.0984X0.0551*%
%ADD33R,0.0984X0.0551*%
%ADD34O,0.1400X0.0900*%
%ADD35O,0.0900X0.1400*%
%ADD36O,0.1969X0.1378*%
%ADD37C,0.1969*%
%ADD38O,0.0600X0.1200*%
G04:AMPARAMS|DCode=39|XSize=120mil|YSize=60mil|CornerRadius=0mil|HoleSize=0mil|Usage=FLASHONLY|Rotation=90.000|XOffset=0mil|YOffset=0mil|HoleType=Round|Shape=Octagon|*
%AMOCTAGOND39*
4,1,8,0.0150,0.0600,-0.0150,0.0600,-0.0300,0.0450,-0.0300,-0.0450,-0.0150,-0.0600,0.0150,-0.0600,0.0300,-0.0450,0.0300,0.0450,0.0150,0.0600,0.0*
%
%ADD39OCTAGOND39*%

%ADD40C,0.0787*%
%ADD41C,0.0600*%
%ADD42R,0.0591X0.0591*%
%ADD43C,0.0620*%
%ADD44C,0.0500*%
%ADD45C,0.0100*%
%ADD46C,0.0236*%
%ADD47C,0.0098*%
%ADD48C,0.0079*%
%ADD49C,0.0050*%
%ADD50C,0.0039*%
%ADD51C,0.0060*%
%ADD52C,0.0150*%
%ADD53R,0.0300X0.2008*%
%ADD54R,0.0252X0.0300*%
%ADD55R,0.0219X0.0300*%
%ADD56R,0.2008X0.0300*%
%ADD57R,0.0300X0.0252*%
%ADD58R,0.0300X0.0219*%
%ADD59C,0.0631*%
%ADD60C,0.2442*%
%ADD61C,0.0730*%
%ADD62C,0.0671*%
%ADD63R,0.0671X0.0671*%
%ADD64R,0.0671X0.0671*%
%ADD65C,0.1241*%
%ADD66C,0.0710*%
%ADD67C,0.0671*%
%ADD68R,0.0671X0.0671*%
%ADD69R,0.0710X0.0710*%
%ADD70C,0.0710*%
%ADD71C,0.1261*%
%ADD72R,0.1261X0.1261*%
%ADD73C,0.0749*%
%ADD74R,0.0749X0.0749*%
%ADD75O,0.1064X0.0631*%
%ADD76R,0.1064X0.0631*%
%ADD77O,0.1480X0.0980*%
%ADD78O,0.0980X0.1480*%
%ADD79O,0.2049X0.1458*%
%ADD80C,0.2049*%
%ADD81O,0.0680X0.1280*%
G04:AMPARAMS|DCode=82|XSize=128mil|YSize=68mil|CornerRadius=0mil|HoleSize=0mil|Usage=FLASHONLY|Rotation=90.000|XOffset=0mil|YOffset=0mil|HoleType=Round|Shape=Octagon|*
%AMOCTAGOND82*
4,1,8,0.0170,0.0640,-0.0170,0.0640,-0.0340,0.0470,-0.0340,-0.0470,-0.0170,-0.0640,0.0170,-0.0640,0.0340,-0.0470,0.0340,0.0470,0.0170,0.0640,0.0*
%
%ADD82OCTAGOND82*%

%ADD83C,0.0867*%
%ADD84C,0.0680*%
%ADD85R,0.0671X0.0671*%
%ADD86C,0.0700*%
%ADD87C,0.0580*%
%ADD88C,0.0120*%
D45*
X42773Y1391D02*
X46671D01*
X46710D02*
Y5289D01*
X42734Y1391D02*
Y5289D01*
X46631D01*
X27559Y2362D02*
X26959D01*
Y2062D01*
X27059Y1962D01*
X27259D01*
X27359Y2062D01*
Y2362D01*
Y2162D02*
X27559Y1962D01*
Y1762D02*
Y1562D01*
Y1662D01*
X26959D01*
X27059Y1762D01*
Y1263D02*
X26959Y1163D01*
Y963D01*
X27059Y863D01*
X27159D01*
X27259Y963D01*
Y1063D01*
Y963D01*
X27359Y863D01*
X27459D01*
X27559Y963D01*
Y1163D01*
X27459Y1263D01*
X34858Y9990D02*
X34758Y9890D01*
X34558D01*
X34458Y9990D01*
Y10389D01*
X34558Y10489D01*
X34758D01*
X34858Y10389D01*
X35458Y10489D02*
X35058D01*
X35458Y10090D01*
Y9990D01*
X35358Y9890D01*
X35158D01*
X35058Y9990D01*
X43015Y9848D02*
X43115Y9948D01*
X43315D01*
X43415Y9848D01*
Y9448D01*
X43315Y9348D01*
X43115D01*
X43015Y9448D01*
X42815Y9848D02*
X42715Y9948D01*
X42515D01*
X42415Y9848D01*
Y9748D01*
X42515Y9648D01*
X42615D01*
X42515D01*
X42415Y9548D01*
Y9448D01*
X42515Y9348D01*
X42715D01*
X42815Y9448D01*
X49708Y9861D02*
X49808Y9961D01*
X50008D01*
X50108Y9861D01*
Y9461D01*
X50008Y9361D01*
X49808D01*
X49708Y9461D01*
X49209Y9361D02*
Y9961D01*
X49508Y9661D01*
X49109D01*
X58480Y7779D02*
X58580Y7879D01*
X58780D01*
X58880Y7779D01*
Y7379D01*
X58780Y7279D01*
X58580D01*
X58480Y7379D01*
X57881Y7879D02*
X58281D01*
Y7579D01*
X58081Y7679D01*
X57981D01*
X57881Y7579D01*
Y7379D01*
X57981Y7279D01*
X58181D01*
X58281Y7379D01*
X51695Y7793D02*
X51795Y7893D01*
X51995D01*
X52095Y7793D01*
Y7393D01*
X51995Y7293D01*
X51795D01*
X51695Y7393D01*
X51096Y7893D02*
X51296Y7793D01*
X51495Y7593D01*
Y7393D01*
X51396Y7293D01*
X51196D01*
X51096Y7393D01*
Y7493D01*
X51196Y7593D01*
X51495D01*
X68988Y15939D02*
X68888Y16039D01*
Y16239D01*
X68988Y16339D01*
X69388D01*
X69488Y16239D01*
Y16039D01*
X69388Y15939D01*
X69488Y15739D02*
Y15539D01*
Y15639D01*
X68888D01*
X68988Y15739D01*
X68888Y14839D02*
Y15239D01*
X69188D01*
X69088Y15039D01*
Y14939D01*
X69188Y14839D01*
X69388D01*
X69488Y14939D01*
Y15139D01*
X69388Y15239D01*
X69088Y10594D02*
X68988Y10694D01*
Y10893D01*
X69088Y10993D01*
X69488D01*
X69588Y10893D01*
Y10694D01*
X69488Y10594D01*
X69588Y10394D02*
Y10194D01*
Y10294D01*
X68988D01*
X69088Y10394D01*
X68988Y9494D02*
X69088Y9694D01*
X69288Y9894D01*
X69488D01*
X69588Y9794D01*
Y9594D01*
X69488Y9494D01*
X69388D01*
X69288Y9594D01*
Y9894D01*
X68938Y13416D02*
X68838Y13516D01*
Y13716D01*
X68938Y13816D01*
X69338D01*
X69438Y13716D01*
Y13516D01*
X69338Y13416D01*
X69438Y13216D02*
Y13016D01*
Y13116D01*
X68838D01*
X68938Y13216D01*
X68838Y12716D02*
Y12316D01*
X68938D01*
X69338Y12716D01*
X69438D01*
X69138Y7671D02*
X69038Y7771D01*
Y7971D01*
X69138Y8071D01*
X69538D01*
X69638Y7971D01*
Y7771D01*
X69538Y7671D01*
X69638Y7471D02*
Y7271D01*
Y7371D01*
X69038D01*
X69138Y7471D01*
Y6971D02*
X69038Y6871D01*
Y6671D01*
X69138Y6571D01*
X69238D01*
X69338Y6671D01*
X69438Y6571D01*
X69538D01*
X69638Y6671D01*
Y6871D01*
X69538Y6971D01*
X69438D01*
X69338Y6871D01*
X69238Y6971D01*
X69138D01*
X69338Y6871D02*
Y6671D01*
X62263Y16461D02*
Y16261D01*
X62163Y16161D01*
X61763D01*
X61663Y16261D01*
Y16461D01*
X61763Y16560D01*
X62163D01*
X62263Y16461D01*
X61663Y16760D02*
X62263D01*
Y17060D01*
X62163Y17160D01*
X61963D01*
X61863Y17060D01*
Y16760D01*
X61663Y17760D02*
Y17360D01*
X62063Y17760D01*
X62163D01*
X62263Y17660D01*
Y17460D01*
X62163Y17360D01*
X45642Y678D02*
Y1278D01*
X45342D01*
X45242Y1178D01*
Y978D01*
X45342Y878D01*
X45642D01*
X45042Y678D02*
Y1278D01*
X44742D01*
X44642Y1178D01*
Y978D01*
X44742Y878D01*
X45042D01*
X44842D02*
X44642Y678D01*
X44442D02*
X44242D01*
X44342D01*
Y1278D01*
X44442Y1178D01*
X66726Y19391D02*
Y19791D01*
X66826Y19891D01*
X67026D01*
X67126Y19791D01*
Y19391D01*
X67026Y19291D01*
X66826D01*
X66926Y19491D02*
X66726Y19291D01*
X66826D02*
X66726Y19391D01*
X66526Y19291D02*
X66326D01*
X66426D01*
Y19891D01*
X66526Y19791D01*
X18121Y2345D02*
X17522D01*
Y2045D01*
X17622Y1945D01*
X17821D01*
X17921Y2045D01*
Y2345D01*
Y2145D02*
X18121Y1945D01*
Y1745D02*
Y1545D01*
Y1645D01*
X17522D01*
X17622Y1745D01*
X18121Y1245D02*
Y1045D01*
Y1145D01*
X17522D01*
X17622Y1245D01*
X17263Y2345D02*
X16664D01*
Y2045D01*
X16764Y1945D01*
X16963D01*
X17063Y2045D01*
Y2345D01*
Y2145D02*
X17263Y1945D01*
Y1745D02*
Y1545D01*
Y1645D01*
X16664D01*
X16764Y1745D01*
X17263Y845D02*
Y1245D01*
X16864Y845D01*
X16764D01*
X16664Y945D01*
Y1145D01*
X16764Y1245D01*
X23269Y2345D02*
X22669D01*
Y2045D01*
X22769Y1945D01*
X22969D01*
X23069Y2045D01*
Y2345D01*
Y2145D02*
X23269Y1945D01*
X22669Y1345D02*
Y1745D01*
X22969D01*
X22869Y1545D01*
Y1445D01*
X22969Y1345D01*
X23169D01*
X23269Y1445D01*
Y1645D01*
X23169Y1745D01*
X22411Y2345D02*
X21811D01*
Y2045D01*
X21911Y1945D01*
X22111D01*
X22211Y2045D01*
Y2345D01*
Y2145D02*
X22411Y1945D01*
X21811Y1345D02*
X21911Y1545D01*
X22111Y1745D01*
X22311D01*
X22411Y1645D01*
Y1445D01*
X22311Y1345D01*
X22211D01*
X22111Y1445D01*
Y1745D01*
X21553Y2345D02*
X20953D01*
Y2045D01*
X21053Y1945D01*
X21253D01*
X21353Y2045D01*
Y2345D01*
Y2145D02*
X21553Y1945D01*
X20953Y1745D02*
Y1345D01*
X21053D01*
X21453Y1745D01*
X21553D01*
X20695Y2345D02*
X20095D01*
Y2045D01*
X20195Y1945D01*
X20395D01*
X20495Y2045D01*
Y2345D01*
Y2145D02*
X20695Y1945D01*
X20195Y1745D02*
X20095Y1645D01*
Y1445D01*
X20195Y1345D01*
X20295D01*
X20395Y1445D01*
X20495Y1345D01*
X20595D01*
X20695Y1445D01*
Y1645D01*
X20595Y1745D01*
X20495D01*
X20395Y1645D01*
X20295Y1745D01*
X20195D01*
X20395Y1645D02*
Y1445D01*
X19837Y2345D02*
X19238D01*
Y2045D01*
X19337Y1945D01*
X19537D01*
X19637Y2045D01*
Y2345D01*
Y2145D02*
X19837Y1945D01*
X19737Y1745D02*
X19837Y1645D01*
Y1445D01*
X19737Y1345D01*
X19337D01*
X19238Y1445D01*
Y1645D01*
X19337Y1745D01*
X19437D01*
X19537Y1645D01*
Y1345D01*
X18979Y2345D02*
X18380D01*
Y2045D01*
X18479Y1945D01*
X18679D01*
X18779Y2045D01*
Y2345D01*
Y2145D02*
X18979Y1945D01*
Y1745D02*
Y1545D01*
Y1645D01*
X18380D01*
X18479Y1745D01*
Y1245D02*
X18380Y1145D01*
Y945D01*
X18479Y845D01*
X18879D01*
X18979Y945D01*
Y1145D01*
X18879Y1245D01*
X18479D01*
X24985Y2345D02*
X24385D01*
Y2045D01*
X24485Y1945D01*
X24685D01*
X24785Y2045D01*
Y2345D01*
Y2145D02*
X24985Y1945D01*
X24485Y1745D02*
X24385Y1645D01*
Y1445D01*
X24485Y1345D01*
X24585D01*
X24685Y1445D01*
Y1545D01*
Y1445D01*
X24785Y1345D01*
X24885D01*
X24985Y1445D01*
Y1645D01*
X24885Y1745D01*
X24127Y2345D02*
X23527D01*
Y2045D01*
X23627Y1945D01*
X23827D01*
X23927Y2045D01*
Y2345D01*
Y2145D02*
X24127Y1945D01*
Y1445D02*
X23527D01*
X23827Y1745D01*
Y1345D01*
X58474Y11811D02*
X57974D01*
X57874Y11911D01*
Y12111D01*
X57974Y12211D01*
X58474D01*
X57874Y12811D02*
Y12411D01*
X58274Y12811D01*
X58374D01*
X58474Y12711D01*
Y12511D01*
X58374Y12411D01*
X39945Y2090D02*
Y2590D01*
X40045Y2690D01*
X40245D01*
X40345Y2590D01*
Y2090D01*
X40545Y2190D02*
X40645Y2090D01*
X40845D01*
X40945Y2190D01*
Y2290D01*
X40845Y2390D01*
X40745D01*
X40845D01*
X40945Y2490D01*
Y2590D01*
X40845Y2690D01*
X40645D01*
X40545Y2590D01*
X59592Y2579D02*
X59092D01*
X58992Y2679D01*
Y2879D01*
X59092Y2979D01*
X59592D01*
X58992Y3479D02*
X59592D01*
X59292Y3179D01*
Y3579D01*
X66035Y18133D02*
Y17633D01*
X65935Y17533D01*
X65735D01*
X65635Y17633D01*
Y18133D01*
X65035D02*
X65235Y18033D01*
X65435Y17833D01*
Y17633D01*
X65335Y17533D01*
X65135D01*
X65035Y17633D01*
Y17733D01*
X65135Y17833D01*
X65435D01*
X46850Y10049D02*
X46451Y9449D01*
Y10049D02*
X46850Y9449D01*
X46251D02*
X46051D01*
X46151D01*
Y10049D01*
X46251Y9949D01*
X54528Y7471D02*
X54927Y8071D01*
Y7471D02*
X54528Y8071D01*
X55527D02*
X55127D01*
X55527Y7671D01*
Y7571D01*
X55427Y7471D01*
X55227D01*
X55127Y7571D01*
X62263Y10042D02*
Y9842D01*
X62163Y9742D01*
X61763D01*
X61663Y9842D01*
Y10042D01*
X61763Y10142D01*
X62163D01*
X62263Y10042D01*
X61663Y10342D02*
X62263D01*
Y10642D01*
X62163Y10742D01*
X61963D01*
X61863Y10642D01*
Y10342D01*
X61663Y10942D02*
Y11142D01*
Y11042D01*
X62263D01*
X62163Y10942D01*
X26701Y2345D02*
X26101D01*
Y2045D01*
X26201Y1945D01*
X26401D01*
X26501Y2045D01*
Y2345D01*
Y2145D02*
X26701Y1945D01*
Y1745D02*
Y1545D01*
Y1645D01*
X26101D01*
X26201Y1745D01*
X25843Y2379D02*
X25243D01*
Y2079D01*
X25343Y1979D01*
X25543D01*
X25643Y2079D01*
Y2379D01*
Y2179D02*
X25843Y1979D01*
Y1379D02*
Y1779D01*
X25443Y1379D01*
X25343D01*
X25243Y1479D01*
Y1679D01*
X25343Y1779D01*
D46*
X57289Y12235D02*
G03*
X57289Y12235I-118J0D01*
G01*
X58608Y2493D02*
G03*
X58608Y2493I-118J0D01*
G01*
D47*
X57054Y11381D02*
G03*
X57054Y11381I-49J0D01*
G01*
X58780Y1643D02*
G03*
X58780Y1643I-49J0D01*
G01*
D48*
X57564Y14631D02*
G03*
X57564Y14131I0J-250D01*
G01*
X39751Y3378D02*
G03*
X39751Y2878I0J-250D01*
G01*
X58884Y3393D02*
G03*
X58884Y2893I0J-250D01*
G01*
X61513Y10601D02*
G03*
X61513Y10101I0J-250D01*
G01*
Y17169D02*
G03*
X61513Y16669I0J-250D01*
G01*
X67415Y19532D02*
G03*
X67415Y17476I415J-1028D01*
G01*
X64550Y9440D02*
G03*
X64050Y9440I-250J0D01*
G01*
X68884Y9963D02*
G03*
X68884Y9963I-1181J0D01*
G01*
Y7096D02*
G03*
X68884Y7096I-1181J0D01*
G01*
Y12830D02*
G03*
X68884Y12830I-1181J0D01*
G01*
Y15696D02*
G03*
X68884Y15696I-1181J0D01*
G01*
X27165Y5595D02*
X27465D01*
Y3595D02*
Y5595D01*
X26865Y3595D02*
X27465D01*
X26865D02*
Y5595D01*
X27165D01*
Y3505D02*
Y3595D01*
Y5595D02*
Y5685D01*
X36422Y11841D02*
X57564D01*
X36422Y16920D02*
X57564D01*
Y11841D02*
Y14131D01*
Y14631D02*
Y16920D01*
X36422Y11841D02*
Y16920D01*
X35893Y4171D02*
X39751D01*
X35893Y2085D02*
X39751D01*
X35893D02*
Y4171D01*
X39751Y3378D02*
Y4171D01*
Y2085D02*
Y2878D01*
X42104Y8169D02*
X43679D01*
X42104Y9154D02*
X43679D01*
Y9061D02*
Y9154D01*
Y8169D02*
Y8262D01*
X42104Y9061D02*
Y9154D01*
Y8169D02*
Y8262D01*
X48871Y8169D02*
X50446D01*
X48871Y9154D02*
X50446D01*
Y9061D02*
Y9154D01*
Y8169D02*
Y8262D01*
X48871Y9061D02*
Y9154D01*
Y8169D02*
Y8262D01*
X35385Y10828D02*
Y13820D01*
X34401Y10828D02*
Y13820D01*
Y10828D02*
X35385D01*
X34401Y13820D02*
X35385D01*
X17063Y3505D02*
Y3595D01*
Y5595D02*
Y5685D01*
Y3595D02*
X17363D01*
Y5595D01*
X16763D02*
X17363D01*
X16763Y3595D02*
Y5595D01*
Y3595D02*
X17063D01*
X17905Y3505D02*
Y3595D01*
Y5595D02*
Y5685D01*
Y3595D02*
X18205D01*
Y5595D01*
X17605D02*
X18205D01*
X17605Y3595D02*
Y5595D01*
Y3595D02*
X17905D01*
X18747Y3505D02*
Y3595D01*
Y5595D02*
Y5685D01*
Y3595D02*
X19047D01*
Y5595D01*
X18447D02*
X19047D01*
X18447Y3595D02*
Y5595D01*
Y3595D02*
X18747D01*
X19589Y3505D02*
Y3595D01*
Y5595D02*
Y5685D01*
Y3595D02*
X19889D01*
Y5595D01*
X19289D02*
X19889D01*
X19289Y3595D02*
Y5595D01*
Y3595D02*
X19589D01*
X49553Y2100D02*
X58884D01*
X49553Y4186D02*
X58884D01*
Y2100D02*
Y2893D01*
Y3393D02*
Y4186D01*
X49553Y2100D02*
Y4186D01*
X20431Y3505D02*
Y3595D01*
Y5595D02*
Y5685D01*
Y3595D02*
X20731D01*
Y5595D01*
X20131D02*
X20731D01*
X20131Y3595D02*
Y5595D01*
Y3595D02*
X20431D01*
X21273Y3505D02*
Y3595D01*
Y5595D02*
Y5685D01*
Y3595D02*
X21573D01*
Y5595D01*
X20973D02*
X21573D01*
X20973Y3595D02*
Y5595D01*
Y3595D02*
X21273D01*
X22114Y3505D02*
Y3595D01*
Y5595D02*
Y5685D01*
Y3595D02*
X22414D01*
Y5595D01*
X21814D02*
X22414D01*
X21814Y3595D02*
Y5595D01*
Y3595D02*
X22114D01*
X22956Y3505D02*
Y3595D01*
Y5595D02*
Y5685D01*
Y3595D02*
X23256D01*
Y5595D01*
X22656D02*
X23256D01*
X22656Y3595D02*
Y5595D01*
Y3595D02*
X22956D01*
X23798Y5595D02*
Y5685D01*
Y3505D02*
Y3595D01*
X23498Y5595D02*
X23798D01*
X23498Y3595D02*
Y5595D01*
Y3595D02*
X24098D01*
Y5595D01*
X23798D02*
X24098D01*
X24640D02*
Y5685D01*
Y3505D02*
Y3595D01*
X24340Y5595D02*
X24640D01*
X24340Y3595D02*
Y5595D01*
Y3595D02*
X24940D01*
Y5595D01*
X24640D02*
X24940D01*
X57520Y6201D02*
X59094D01*
X57520Y7185D02*
X59094D01*
Y7093D02*
Y7185D01*
Y6201D02*
Y6293D01*
X57520Y7093D02*
Y7185D01*
Y6201D02*
Y6293D01*
X50758Y6201D02*
X52333D01*
X50758Y7185D02*
X52333D01*
Y7093D02*
Y7185D01*
Y6201D02*
Y6293D01*
X50758Y7093D02*
Y7185D01*
Y6201D02*
Y6293D01*
X61513Y9307D02*
Y10101D01*
Y10601D02*
Y11394D01*
X58593Y9307D02*
Y11394D01*
Y9307D02*
X61513D01*
X58593Y11394D02*
X61513D01*
Y15876D02*
Y16669D01*
Y17169D02*
Y17963D01*
X58593Y15876D02*
Y17963D01*
Y15876D02*
X61513D01*
X58593Y17963D02*
X61513D01*
X68497Y17671D02*
Y19337D01*
X68411Y19395D02*
X68497Y19337D01*
X68411Y17613D02*
X68497Y17671D01*
X26324Y5595D02*
Y5685D01*
Y3505D02*
Y3595D01*
X26024Y5595D02*
X26324D01*
X26024Y3595D02*
Y5595D01*
Y3595D02*
X26624D01*
Y5595D01*
X26324D02*
X26624D01*
X25482D02*
Y5685D01*
Y3505D02*
Y3595D01*
X25182Y5595D02*
X25482D01*
X25182Y3595D02*
Y5595D01*
Y3595D02*
X25782D01*
Y5595D01*
X25482D02*
X25782D01*
X65343Y9440D02*
Y17196D01*
X63256Y9440D02*
Y17196D01*
X65343D01*
X64550Y9440D02*
X65343D01*
X63256D02*
X64050D01*
X67207Y9133D02*
Y9533D01*
X67007Y9333D02*
X67407D01*
X67207Y6267D02*
Y6667D01*
X67007Y6467D02*
X67407D01*
X67207Y12000D02*
Y12400D01*
X67007Y12200D02*
X67407D01*
X67207Y14867D02*
Y15267D01*
X67007Y15067D02*
X67407D01*
D88*
X52937Y6093D02*
Y7293D01*
X56937D01*
Y6093D02*
Y7293D01*
X52937Y6093D02*
X56937D01*
X44276Y8061D02*
Y9261D01*
X48276D01*
Y8061D02*
Y9261D01*
X44276Y8061D02*
X48276D01*
M02*
